<svg version="1.2" xmlns="http://www.w3.org/2000/svg" xmlns:xlink="http://www.w3.org/1999/xlink" overflow="visible" preserveAspectRatio="none" viewBox="0 0 40 40.000004061897215" width="40" height="40.000004061897215"><g transform="translate(0, 0)"><g transform="translate(0.000009999999997400977, -0.000665938102783592) rotate(0)"><path d="M37.62143,15.58274c0.0812,-0.64203 -0.12443,-1.28728 -0.56151,-1.76195c-0.43708,-0.47467 -1.06065,-0.72996 -1.70278,-0.6971c-3.06607,-17.50276 -27.65,-17.49197 -30.71429,0c-0.64073,-0.03001 -1.2619,0.22643 -1.69719,0.70066c-0.43529,0.47423 -0.64023,1.1178 -0.55996,1.75839c-1.31522,-0.001 -2.38276,1.07041 -2.38571,2.39434v2.27929c0.00296,1.32393 1.0705,2.39533 2.38571,2.39434c-0.07792,0.61601 0.10899,1.23621 0.51379,1.7048c0.4048,0.46859 0.98901,0.74102 1.60585,0.74886h1.1c1.16885,-0.00099 2.11669,-0.95351 2.11964,-2.1301v-7.71149c-0.0022,-1.06851 -0.79173,-1.96945 -1.84464,-2.10493c1.19962,-6.90512 7.15588,-11.94333 14.11964,-11.94333c6.96376,0 12.92002,5.0382 14.11964,11.94333c-1.05252,0.13623 -1.84166,1.03672 -1.84464,2.10493v7.71149c0.00379,1.06988 0.79412,1.97153 1.84821,2.10853c-0.92292,5.41167 -4.814,9.82869 -10.04107,11.39827c-0.41675,-0.65641 -1.13683,-1.05406 -1.91071,-1.05516h-4.69821c-1.23017,0.03472 -2.20951,1.04858 -2.20951,2.28738c0,1.23881 0.97934,2.25267 2.20951,2.28738h4.69821c0.61072,-0.00032 1.19554,-0.24839 1.62231,-0.68814c0.42677,-0.43975 0.65948,-1.03407 0.64555,-1.64868c5.73117,-1.72978 9.97342,-6.6085 10.91786,-12.55589c0.64074,0.03121 1.26236,-0.2246 1.69788,-0.69873c0.43551,-0.47412 0.64027,-1.11795 0.55927,-1.75852c1.31493,0.00199 2.38276,-1.0689 2.38571,-2.39254v-2.28109c-0.00197,-1.32154 -1.06574,-2.39236 -2.37857,-2.39434zM2.37857,21.4313c-1.68929,-0.0755 -1.04821,-2.24334 -1.16429,-3.45489c0,-0.64757 0.52098,-1.17281 1.16429,-1.1738v4.6269zM6.51429,15.26211v7.71149c-0.02679,1.10729 -1.25,0.90956 -2.00893,0.91495c-1.03214,-0.03236 -0.92679,-1.1037 -0.90893,-1.84788v-5.84923c-0.025,-0.7316 -0.12143,-1.81013 0.90893,-1.84249c0.75357,0.00539 1.98036,-0.19773 2.00893,0.91316zM22.17143,38.77947h-4.69821c-0.53089,-0.07286 -0.92669,-0.52929 -0.92669,-1.06864c0,-0.53935 0.3958,-0.99578 0.92669,-1.06864h4.69821c0.53089,0.07286 0.92669,0.52929 0.92669,1.06864c0,0.53935 -0.3958,0.99578 -0.92669,1.06864zM36.40357,22.9736c-0.02679,1.10729 -1.25,0.90956 -2.00714,0.91495c-0.50228,0 -0.90973,-0.40935 -0.91071,-0.91495v-7.71149c0.02679,-1.10549 1.25,-0.90956 2.00893,-0.91316c1.03036,0.03056 0.925,1.1019 0.90893,1.84249c0.00179,0.62016 -0.00179,6.34356 0,6.78216zM38.7875,20.2575c0.00001,0.31256 -0.12383,0.61222 -0.34406,0.83256c-0.22023,0.22034 -0.51866,0.34316 -0.82916,0.34125v-4.6269c1.69821,0.0719 1.05536,2.25053 1.17321,3.4531zM16.74821,30.93855c0.00183,0.23024 0.13168,0.44003 0.33619,0.54316c0.20451,0.10312 0.44918,0.08218 0.63346,-0.05422l3.6375,-2.77003h7.55179c0.16133,0.00048 0.31622,-0.0637 0.43047,-0.17837c0.11425,-0.11467 0.17846,-0.27039 0.17846,-0.4328v-10.15976c0.00048,-0.16255 -0.06358,-0.31856 -0.17793,-0.43333c-0.11435,-0.11477 -0.26952,-0.1788 -0.431,-0.17784h-3.18214v-6.19975c0.00048,-0.16207 -0.06339,-0.31762 -0.17741,-0.43206c-0.11402,-0.11444 -0.26873,-0.17827 -0.42973,-0.17731h-14.02679c-0.161,-0.00096 -0.31572,0.06288 -0.42973,0.17731c-0.11402,0.11444 -0.17789,0.26998 -0.17741,0.43206v10.15976c0,0.33754 0.27183,0.61117 0.60714,0.61117h3.18393v6.19616c0.01071,0.93832 1.42857,0.52668 2.47321,0.61117zM11.69821,11.68498h12.81429v8.94102c-1.03929,0.08448 -2.45893,-0.32715 -2.46964,0.60937v1.66633l-2.82857,-2.15706c-0.10273,-0.07886 -0.22796,-0.12235 -0.35714,-0.12403h-7.14286zM15.48929,27.43692v-5.59038h3.15536c1.27316,1.04819 2.61096,2.0142 4.00536,2.89226c0.33253,-0.00295 0.60082,-0.27463 0.60179,-0.60937v-2.28289h1.86607c0.33532,0 0.60714,-0.27363 0.60714,-0.61117v-2.73767h2.57857v8.93922h-7.14286c-0.12946,0.00181 -0.25482,0.04598 -0.35714,0.12583l-2.82857,2.15706v-1.67712c-0.02857,-0.93293 -1.44643,-0.52129 -2.48571,-0.60577z" style="stroke-width: 0; stroke-linecap: butt; stroke-linejoin: miter; fill: rgb(0, 0, 0);" vector-effect="non-scaling-stroke"/></g><defs><path id="path-1671061844695212441" d="M37.62143,15.58274c0.0812,-0.64203 -0.12443,-1.28728 -0.56151,-1.76195c-0.43708,-0.47467 -1.06065,-0.72996 -1.70278,-0.6971c-3.06607,-17.50276 -27.65,-17.49197 -30.71429,0c-0.64073,-0.03001 -1.2619,0.22643 -1.69719,0.70066c-0.43529,0.47423 -0.64023,1.1178 -0.55996,1.75839c-1.31522,-0.001 -2.38276,1.07041 -2.38571,2.39434v2.27929c0.00296,1.32393 1.0705,2.39533 2.38571,2.39434c-0.07792,0.61601 0.10899,1.23621 0.51379,1.7048c0.4048,0.46859 0.98901,0.74102 1.60585,0.74886h1.1c1.16885,-0.00099 2.11669,-0.95351 2.11964,-2.1301v-7.71149c-0.0022,-1.06851 -0.79173,-1.96945 -1.84464,-2.10493c1.19962,-6.90512 7.15588,-11.94333 14.11964,-11.94333c6.96376,0 12.92002,5.0382 14.11964,11.94333c-1.05252,0.13623 -1.84166,1.03672 -1.84464,2.10493v7.71149c0.00379,1.06988 0.79412,1.97153 1.84821,2.10853c-0.92292,5.41167 -4.814,9.82869 -10.04107,11.39827c-0.41675,-0.65641 -1.13683,-1.05406 -1.91071,-1.05516h-4.69821c-1.23017,0.03472 -2.20951,1.04858 -2.20951,2.28738c0,1.23881 0.97934,2.25267 2.20951,2.28738h4.69821c0.61072,-0.00032 1.19554,-0.24839 1.62231,-0.68814c0.42677,-0.43975 0.65948,-1.03407 0.64555,-1.64868c5.73117,-1.72978 9.97342,-6.6085 10.91786,-12.55589c0.64074,0.03121 1.26236,-0.2246 1.69788,-0.69873c0.43551,-0.47412 0.64027,-1.11795 0.55927,-1.75852c1.31493,0.00199 2.38276,-1.0689 2.38571,-2.39254v-2.28109c-0.00197,-1.32154 -1.06574,-2.39236 -2.37857,-2.39434zM2.37857,21.4313c-1.68929,-0.0755 -1.04821,-2.24334 -1.16429,-3.45489c0,-0.64757 0.52098,-1.17281 1.16429,-1.1738v4.6269zM6.51429,15.26211v7.71149c-0.02679,1.10729 -1.25,0.90956 -2.00893,0.91495c-1.03214,-0.03236 -0.92679,-1.1037 -0.90893,-1.84788v-5.84923c-0.025,-0.7316 -0.12143,-1.81013 0.90893,-1.84249c0.75357,0.00539 1.98036,-0.19773 2.00893,0.91316zM22.17143,38.77947h-4.69821c-0.53089,-0.07286 -0.92669,-0.52929 -0.92669,-1.06864c0,-0.53935 0.3958,-0.99578 0.92669,-1.06864h4.69821c0.53089,0.07286 0.92669,0.52929 0.92669,1.06864c0,0.53935 -0.3958,0.99578 -0.92669,1.06864zM36.40357,22.9736c-0.02679,1.10729 -1.25,0.90956 -2.00714,0.91495c-0.50228,0 -0.90973,-0.40935 -0.91071,-0.91495v-7.71149c0.02679,-1.10549 1.25,-0.90956 2.00893,-0.91316c1.03036,0.03056 0.925,1.1019 0.90893,1.84249c0.00179,0.62016 -0.00179,6.34356 0,6.78216zM38.7875,20.2575c0.00001,0.31256 -0.12383,0.61222 -0.34406,0.83256c-0.22023,0.22034 -0.51866,0.34316 -0.82916,0.34125v-4.6269c1.69821,0.0719 1.05536,2.25053 1.17321,3.4531zM16.74821,30.93855c0.00183,0.23024 0.13168,0.44003 0.33619,0.54316c0.20451,0.10312 0.44918,0.08218 0.63346,-0.05422l3.6375,-2.77003h7.55179c0.16133,0.00048 0.31622,-0.0637 0.43047,-0.17837c0.11425,-0.11467 0.17846,-0.27039 0.17846,-0.4328v-10.15976c0.00048,-0.16255 -0.06358,-0.31856 -0.17793,-0.43333c-0.11435,-0.11477 -0.26952,-0.1788 -0.431,-0.17784h-3.18214v-6.19975c0.00048,-0.16207 -0.06339,-0.31762 -0.17741,-0.43206c-0.11402,-0.11444 -0.26873,-0.17827 -0.42973,-0.17731h-14.02679c-0.161,-0.00096 -0.31572,0.06288 -0.42973,0.17731c-0.11402,0.11444 -0.17789,0.26998 -0.17741,0.43206v10.15976c0,0.33754 0.27183,0.61117 0.60714,0.61117h3.18393v6.19616c0.01071,0.93832 1.42857,0.52668 2.47321,0.61117zM11.69821,11.68498h12.81429v8.94102c-1.03929,0.08448 -2.45893,-0.32715 -2.46964,0.60937v1.66633l-2.82857,-2.15706c-0.10273,-0.07886 -0.22796,-0.12235 -0.35714,-0.12403h-7.14286zM15.48929,27.43692v-5.59038h3.15536c1.27316,1.04819 2.61096,2.0142 4.00536,2.89226c0.33253,-0.00295 0.60082,-0.27463 0.60179,-0.60937v-2.28289h1.86607c0.33532,0 0.60714,-0.27363 0.60714,-0.61117v-2.73767h2.57857v8.93922h-7.14286c-0.12946,0.00181 -0.25482,0.04598 -0.35714,0.12583l-2.82857,2.15706v-1.67712c-0.02857,-0.93293 -1.44643,-0.52129 -2.48571,-0.60577z" vector-effect="non-scaling-stroke"/></defs></g></svg>