<svg version="1.2" xmlns="http://www.w3.org/2000/svg" xmlns:xlink="http://www.w3.org/1999/xlink" overflow="visible" preserveAspectRatio="none" viewBox="0 0 23.325 14.993750000000004" width="23.325" height="14.993750000000004"><g transform="translate(0, 0)"><g transform="translate(-1.0824674490095276e-15, 0.000004999999999699689) rotate(0)"><path d="M21.6625,7.49687c-1.1,1.725 -2.5875,3.1875 -4.3375,4.25c-3.4625,2.0875 -7.7875,2.0875 -11.25,0c-1.775,-1.0625 -3.2875,-2.5125 -4.4125,-4.25c1.225,-1.95 2.95,-3.55 5,-4.6c-0.525,0.8875 -0.8,1.9 -0.8,2.925c0,3.2125 2.5875,5.8125 5.8,5.8375c3.2125,-0.0125 5.8125,-2.6125 5.825,-5.825c0,-1.0375 -0.2875,-2.05 -0.825,-2.9375c2.05,1.05 3.775,2.65 5,4.6zM12.2875,2.49687c0,0.35 -0.275,0.625 -0.625,0.625c-1.5,0 -2.7125,1.2125 -2.7125,2.7125c0,0.35 -0.275,0.625 -0.625,0.625c-0.35,0 -0.625,-0.275 -0.625,-0.625c0.0125,-2.1875 1.775,-3.95 3.9625,-3.9625c0.35,0 0.625,0.275 0.625,0.625zM23.325,7.49687c-0.0125,-0.3125 -0.1,-0.625 -0.2625,-0.9c-1.2125,-1.975 -2.8875,-3.625 -4.9,-4.7875c-4,-2.4125 -9,-2.4125 -13,0c-2.0125,1.1625 -3.6875,2.8125 -4.9,4.7875c-0.35,0.55 -0.35,1.25 0,1.8c1.2125,1.975 2.8875,3.625 4.9,4.7875c4,2.4125 9,2.4125 13,0c2.0125,-1.1625 3.7,-2.8125 4.9,-4.8c0.1625,-0.2625 0.25,-0.575 0.2625,-0.8875z" style="stroke-width: 0; stroke-linecap: butt; stroke-linejoin: miter; fill: rgb(59, 59, 59);" vector-effect="non-scaling-stroke"/></g><defs><path id="path-167173373870716255" d="M21.6625,7.49687c-1.1,1.725 -2.5875,3.1875 -4.3375,4.25c-3.4625,2.0875 -7.7875,2.0875 -11.25,0c-1.775,-1.0625 -3.2875,-2.5125 -4.4125,-4.25c1.225,-1.95 2.95,-3.55 5,-4.6c-0.525,0.8875 -0.8,1.9 -0.8,2.925c0,3.2125 2.5875,5.8125 5.8,5.8375c3.2125,-0.0125 5.8125,-2.6125 5.825,-5.825c0,-1.0375 -0.2875,-2.05 -0.825,-2.9375c2.05,1.05 3.775,2.65 5,4.6zM12.2875,2.49687c0,0.35 -0.275,0.625 -0.625,0.625c-1.5,0 -2.7125,1.2125 -2.7125,2.7125c0,0.35 -0.275,0.625 -0.625,0.625c-0.35,0 -0.625,-0.275 -0.625,-0.625c0.0125,-2.1875 1.775,-3.95 3.9625,-3.9625c0.35,0 0.625,0.275 0.625,0.625zM23.325,7.49687c-0.0125,-0.3125 -0.1,-0.625 -0.2625,-0.9c-1.2125,-1.975 -2.8875,-3.625 -4.9,-4.7875c-4,-2.4125 -9,-2.4125 -13,0c-2.0125,1.1625 -3.6875,2.8125 -4.9,4.7875c-0.35,0.55 -0.35,1.25 0,1.8c1.2125,1.975 2.8875,3.625 4.9,4.7875c4,2.4125 9,2.4125 13,0c2.0125,-1.1625 3.7,-2.8125 4.9,-4.8c0.1625,-0.2625 0.25,-0.575 0.2625,-0.8875z" vector-effect="non-scaling-stroke"/></defs></g></svg>