<svg version="1.2" xmlns="http://www.w3.org/2000/svg" xmlns:xlink="http://www.w3.org/1999/xlink" overflow="visible" preserveAspectRatio="none" viewBox="0 0 24 24" width="30" height="30"><g><path xmlns:default="http://www.w3.org/2000/svg" id="commenting" d="M8.94,11.76c-0.52,0.52-1.36,0.52-1.88,0s-0.52-1.36,0-1.88c0.52-0.52,1.36-0.52,1.88,0  c0.25,0.25,0.39,0.59,0.39,0.94C9.34,11.18,9.19,11.52,8.94,11.76z M12.94,11.76c-0.52,0.52-1.36,0.52-1.88,0  c-0.52-0.52-0.52-1.36,0-1.88c0.52-0.52,1.36-0.52,1.88,0c0.25,0.25,0.39,0.59,0.39,0.94C13.34,11.18,13.19,11.52,12.94,11.76z   M16.94,11.76c-0.52,0.52-1.36,0.52-1.88,0s-0.52-1.36,0-1.88s1.36-0.52,1.88,0c0.25,0.25,0.39,0.59,0.39,0.94  C17.34,11.18,17.19,11.52,16.94,11.76z M21.33,10.82c-0.01-1.23-0.45-2.42-1.25-3.35c-0.91-1.08-2.07-1.92-3.39-2.43  C15.2,4.44,13.61,4.14,12,4.15c-1.61-0.02-3.2,0.28-4.69,0.89C5.99,5.56,4.83,6.39,3.92,7.47c-0.8,0.93-1.24,2.12-1.25,3.35  c0,1,0.3,1.98,0.87,2.81c0.62,0.92,1.44,1.68,2.39,2.25c-0.03,0.27-0.08,0.52-0.13,0.75c-0.05,0.23-0.1,0.43-0.15,0.6  c-0.05,0.17-0.12,0.34-0.21,0.5l-0.21,0.39c-0.07,0.12-0.16,0.23-0.25,0.33l-0.24,0.27l-0.27,0.26L4.23,19.2  c-0.14,0.08-0.22,0.23-0.21,0.39c0.02,0.08,0.07,0.15,0.14,0.19c0.07,0.05,0.15,0.07,0.23,0.06c0.23,0,0.53-0.05,0.9-0.14  C7,19.36,8.57,18.52,9.8,17.29c0.73,0.13,1.46,0.19,2.2,0.19c1.61,0.02,3.2-0.28,4.69-0.89c1.32-0.51,2.48-1.35,3.39-2.43  c0.8-0.93,1.24-2.12,1.25-3.35l0,0L21.33,10.82z" style="fill: rgb(59, 59, 59);" vector-effect="non-scaling-stroke"/></g></svg>