<svg version="1.2" xmlns="http://www.w3.org/2000/svg" xmlns:xlink="http://www.w3.org/1999/xlink" overflow="visible" preserveAspectRatio="none" viewBox="0 0 30.266000000000002 29.950006700225867" width="30.266000000000002" height="29.950006700225867"><g transform="translate(0, 0)"><g transform="translate(0, 0) rotate(0)"><path d="M15.133,0c-3.467,0 -6.297,2.83 -6.297,6.297c0,3.467 2.83,6.296 6.297,6.296c3.467,0 6.297,-2.83 6.297,-6.296c0,-3.468 -2.83,-6.297 -6.297,-6.297zM0,28.953c0.002,0.553 0.451,0.999 1.004,0.997h28.258c0.552,0.002 1.002,-0.444 1.004,-0.997c0,-8.201 -6.581,-14.823 -15.133,-15.052c-8.552,0.228 -15.133,6.85 -15.133,15.052z" style="stroke-width: 0; stroke-linecap: butt; stroke-linejoin: miter; fill: rgb(224, 224, 224);" vector-effect="non-scaling-stroke"/></g><defs><path id="path-167211005155216060" d="M15.133,0c-3.467,0 -6.297,2.83 -6.297,6.297c0,3.467 2.83,6.296 6.297,6.296c3.467,0 6.297,-2.83 6.297,-6.296c0,-3.468 -2.83,-6.297 -6.297,-6.297zM0,28.953c0.002,0.553 0.451,0.999 1.004,0.997h28.258c0.552,0.002 1.002,-0.444 1.004,-0.997c0,-8.201 -6.581,-14.823 -15.133,-15.052c-8.552,0.228 -15.133,6.85 -15.133,15.052z" vector-effect="non-scaling-stroke"/></defs></g></svg>