<svg version="1.2" xmlns="http://www.w3.org/2000/svg" xmlns:xlink="http://www.w3.org/1999/xlink" overflow="visible" preserveAspectRatio="none" viewBox="0 0 1920 578" width="1920" height="578"><g transform="translate(0, 0)"><defs><path id="path-16718125400596" d="M0 0 C0 0 1919.9999999999973 0 1919.9999999999973 0 C1919.9999999999973 0 1919.9999999999973 577.9999999999991 1919.9999999999973 577.9999999999991 C1919.9999999999973 577.9999999999991 0 577.9999999999991 0 577.9999999999991 C0 577.9999999999991 0 0 0 0 Z" vector-effect="non-scaling-stroke"/><linearGradient id="gradient-167181254009319" x1="50%" y1="100%" x2="50%" y2="0%" vector-effect="non-scaling-stroke"><stop offset="0%" stop-color="rgb(255,255,255)" stop-opacity="1" vector-effect="non-scaling-stroke"/><stop offset="100%" stop-color="rgba(255,255,255,0)" stop-opacity="0" vector-effect="non-scaling-stroke"/></linearGradient></defs><g transform="translate(0, 0)"><path d="M0 0 C0 0 1919.9999999999973 0 1919.9999999999973 0 C1919.9999999999973 0 1919.9999999999973 577.9999999999991 1919.9999999999973 577.9999999999991 C1919.9999999999973 577.9999999999991 0 577.9999999999991 0 577.9999999999991 C0 577.9999999999991 0 0 0 0 Z" style="stroke: rgb(140, 140, 140); stroke-width: 0; stroke-linecap: butt; stroke-linejoin: miter; fill: url(&quot;#gradient-167181254009319&quot;);" vector-effect="non-scaling-stroke"/></g></g></svg>