<svg version="1.2" xmlns="http://www.w3.org/2000/svg" xmlns:xlink="http://www.w3.org/1999/xlink" overflow="visible" preserveAspectRatio="none" viewBox="0 0 24 24" width="30" height="30"><g><path xmlns:default="http://www.w3.org/2000/svg" id="eye" d="M20,12c-0.88,1.38-2.07,2.55-3.47,3.4c-2.77,1.67-6.23,1.67-9,0C6.11,14.55,4.9,13.39,4,12  c0.98-1.56,2.36-2.84,4-3.68c-0.42,0.71-0.64,1.52-0.64,2.34c0,2.57,2.07,4.65,4.64,4.67c2.57-0.01,4.65-2.09,4.66-4.66  c0-0.83-0.23-1.64-0.66-2.35C17.64,9.16,19.02,10.44,20,12L20,12z M12.5,8c0,0.28-0.22,0.5-0.5,0.5c-1.2,0-2.17,0.97-2.17,2.17  c0,0.28-0.22,0.5-0.5,0.5s-0.5-0.22-0.5-0.5C8.84,8.92,10.25,7.51,12,7.5C12.28,7.5,12.5,7.72,12.5,8L12.5,8z M21.33,12  c-0.01-0.25-0.08-0.5-0.21-0.72c-0.97-1.58-2.31-2.9-3.92-3.83C14,5.52,10,5.52,6.8,7.45C5.19,8.38,3.85,9.7,2.88,11.28  c-0.28,0.44-0.28,1,0,1.44c0.97,1.58,2.31,2.9,3.92,3.83c3.2,1.93,7.2,1.93,10.4,0c1.61-0.93,2.96-2.25,3.92-3.84  C21.25,12.5,21.32,12.25,21.33,12L21.33,12z" style="fill: rgb(255, 255, 255);" vector-effect="non-scaling-stroke"/></g></svg>