<svg version="1.2" xmlns="http://www.w3.org/2000/svg" xmlns:xlink="http://www.w3.org/1999/xlink" overflow="visible" preserveAspectRatio="none" viewBox="0 0 31.00000000000055 31" width="31.00000000000055" height="31"><g transform="translate(0, 0)"><g transform="translate(0, 0) rotate(0)"><path d="M9.81666,28.41665c0,0.28536 -0.23129,0.51665 -0.51665,0.51665h-1.79745c-0.80442,-0.00436 -1.47353,-0.62 -1.54467,-1.42134l-0.35141,-4.21885c-0.01532,-0.18394 0.06866,-0.36213 0.22033,-0.46736c0.15161,-0.10523 0.3479,-0.12158 0.51489,-0.04287c0.16693,0.07871 0.27924,0.24055 0.29456,0.42449l0.35141,4.21885c0.02373,0.26707 0.24673,0.47233 0.51489,0.47378h1.79745c0.28536,0 0.51665,0.23129 0.51665,0.51665zM30.99998,14.27272v0.27719c0.00539,1.9669 -0.88532,3.82654 -2.41455,5.04096l-0.87805,0.70145l-0.67346,8.17573c-0.12521,1.42747 -1.30333,2.52422 -2.71982,2.53194h-17.6282c-1.41649,-0.00766 -2.59461,-1.10446 -2.71982,-2.53194l-0.67346,-8.17579l-0.87805,-0.70139c-1.52917,-1.21448 -2.41987,-3.07412 -2.41455,-5.04096v-0.27719c0.00236,-1.51336 1.07156,-2.80968 2.54284,-3.08288l-0.00442,-0.05348h4.46575c-0.18612,-0.31639 -0.28542,-0.67732 -0.28748,-1.04547c0,-1.15476 0.92528,-2.09089 2.06664,-2.09089c1.14137,0 2.06664,0.93613 2.06664,2.09089c-0.00206,0.36822 -0.10129,0.72914 -0.28748,1.04547h17.89902l-0.00442,0.05348c1.47129,0.27327 2.54048,1.56953 2.54284,3.08288zM3.17522,18.86657l-0.03403,-0.41263l-0.51217,-6.21716c-0.93399,0.22249 -1.59444,1.0652 -1.59565,2.036v0.27719c-0.00436,1.64671 0.74133,3.20368 2.02154,4.22061zM13.1144,12.18183c0.20913,0.34371 0.31963,0.73956 0.31914,1.14318v1.92984c-0.01047,0.2702 0.16693,0.51107 0.42583,0.57814c0.15046,0.02628 0.30467,-0.01574 0.42171,-0.11492c0.11698,-0.09918 0.18497,-0.24546 0.18576,-0.39989c0,-0.2887 0.23135,-0.52271 0.51665,-0.52271c0.2853,0 0.51665,0.234 0.51665,0.52271v2.54505c-0.01181,0.51358 0.32925,0.96713 0.82168,1.09264c0.30564,0.06585 0.6243,-0.01372 0.86455,-0.21593c0.24031,-0.19792 0.37999,-0.49459 0.38042,-0.8081v-2.09089c0,-0.2887 0.23129,-0.52271 0.51665,-0.52271c0.28536,0 0.51665,0.234 0.51665,0.52271c0.00133,0.31443 0.14198,0.61177 0.38314,0.81006c0.24116,0.19829 0.55751,0.27682 0.86207,0.21391c0.49249,-0.12564 0.83343,-0.57931 0.82144,-1.09295v-3.59015zM7.75001,10.09095c0.00061,0.57716 0.46288,1.04492 1.03335,1.04547c0.57071,0 1.03335,-0.46807 1.03335,-1.04547c0,-0.57741 -0.46264,-1.04547 -1.03335,-1.04547c-0.57071,0 -1.03335,0.46807 -1.03335,1.04547zM27.33835,12.18183h-5.63842v3.59015c0.01659,1.01399 -0.67467,1.89964 -1.65341,2.11845c-0.49509,0.10083 -1.00944,0.01531 -1.44658,-0.24043v0.28178c-0.0023,1.15476 -0.92788,2.08978 -2.06919,2.0904c-0.56006,0.00129 -1.0965,-0.22812 -1.48588,-0.63542c-0.38938,-0.40724 -0.59814,-0.95733 -0.57828,-1.52359v-1.06716c-0.24963,0.08919 -0.51767,0.11265 -0.77875,0.06812c-0.75647,-0.15241 -1.29794,-0.82899 -1.28789,-1.60928v-1.92984c-0.00067,-0.63107 -0.50617,-1.14251 -1.12992,-1.14318h-7.60843l0.38653,4.69315l0.35462,4.30398l-0.00012,-0.00012l0.59324,7.20242c0.07792,0.88694 0.80993,1.56843 1.69004,1.57326h17.6282c0.88017,-0.00484 1.61218,-0.68632 1.69004,-1.57326zM29.96668,14.27278c-0.00121,-0.9708 -0.66166,-1.81351 -1.59565,-2.036l-0.54595,6.62979l0.12006,-0.09599c1.2802,-1.01693 2.0259,-2.5739 2.02154,-4.22061zM5.14721,3.27576c-0.14017,-0.2168 -0.18238,-0.47681 -0.11742,-0.72271l0.12251,-0.46354c0.0973,-0.36896 0.34746,-0.68667 0.69545,-0.88315c0.348,-0.19649 0.76527,-0.2557 1.15997,-0.16453l7.9869,1.84208c0.52128,-1.02446 1.7413,-1.56518 2.91983,-1.29409l0.9922,0.229c1.17859,0.2717 1.98972,1.28116 1.94032,2.41481l7.98732,1.84214c0.82179,0.18966 1.32355,0.96604 1.12069,1.73413l-0.12203,0.46354c-0.11275,0.42588 -0.5211,0.72539 -0.99046,0.72657c-0.08317,-0.00006 -0.16603,-0.00951 -0.24675,-0.02821l-22.81876,-5.2626c-0.26309,-0.06072 -0.48966,-0.21663 -0.62977,-0.43343zM16.02167,3.12063l3.7991,0.87633c-0.06437,-0.60407 -0.5284,-1.10499 -1.15883,-1.251l-0.99244,-0.229c-0.63049,-0.14383 -1.28978,0.09771 -1.64783,0.60367zM6.02175,2.78205l22.8196,5.2626l0.12149,-0.46354c0.06748,-0.25603 -0.09963,-0.5148 -0.3735,-0.57827l-8.08731,-1.86519l-5.80229,-1.33802v-0.00017l-7.93703,-1.8305c-0.0403,-0.00929 -0.08167,-0.01399 -0.12322,-0.01399c-0.23471,0.00073 -0.43889,0.15054 -0.49523,0.36354zM6.5,5c0.82846,0 1.5,0.67154 1.5,1.5c0,0.82846 -0.6716,1.5 -1.5,1.5c-0.8284,0 -1.5,-0.6716 -1.5,-1.5c0.00094,-0.82805 0.67195,-1.49906 1.5,-1.5zM6.50006,6.00002c-0.27615,0 -0.49998,0.22383 -0.49998,0.49998c0,0.27615 0.22383,0.49998 0.49998,0.49998c0.27615,0 0.49998,-0.22383 0.49998,-0.49998c-0.00035,-0.27598 -0.224,-0.49963 -0.49998,-0.49998zM3.5,8c0.82805,0.00088 1.49912,0.67195 1.5,1.5c0,0.82846 -0.67154,1.5 -1.5,1.5c-0.82846,0 -1.5,-0.6716 -1.5,-1.5c0,-0.8284 0.6716,-1.5 1.5,-1.5zM3.50006,9.00002c-0.27615,0 -0.49998,0.22383 -0.49998,0.49998c0,0.27609 0.22383,0.49998 0.49998,0.49998c0.27598,-0.00035 0.49963,-0.224 0.49998,-0.49998c0,-0.27615 -0.22383,-0.49998 -0.49998,-0.49998zM12.5,6c0.82842,0 1.5,0.67158 1.5,1.5c0,0.82842 -0.67158,1.5 -1.5,1.5c-0.82842,0 -1.5,-0.67158 -1.5,-1.5c0.001,-0.82802 0.67198,-1.499 1.5,-1.5zM12.5,6.85715c-0.35502,0 -0.64285,0.28783 -0.64285,0.64285c0,0.35502 0.28783,0.64285 0.64285,0.64285c0.35502,0 0.64285,-0.28783 0.64285,-0.64285c-0.0004,-0.35487 -0.28798,-0.6425 -0.64285,-0.64285zM0,5.5c0.00134,-0.82797 0.89597,-1.49895 2,-1.5c1.10456,0 2,0.67158 2,1.5c0,0.82842 -0.89544,1.5 -2,1.5c-1.10456,0 -2,-0.67158 -2,-1.5zM1.14287,5.5c0,0.35502 0.38377,0.64285 0.85713,0.64285c0.47337,0 0.85713,-0.28783 0.85713,-0.64285c0,-0.35502 -0.38377,-0.64285 -0.85713,-0.64285c-0.47316,0.0004 -0.8566,0.28798 -0.85713,0.64285zM2,1.5c0,-0.8284 0.6716,-1.5 1.5,-1.5c0.82805,0.00094 1.49912,0.67195 1.5,1.5c0,0.8284 -0.6716,1.5 -1.5,1.5c-0.8284,0 -1.5,-0.6716 -1.5,-1.5zM3.00002,1.5c0,0.27609 0.22383,0.49998 0.49998,0.49998c0.27598,-0.00035 0.49963,-0.224 0.49998,-0.49998c0,-0.27615 -0.22383,-0.49998 -0.49998,-0.49998c-0.27609,0 -0.49998,0.22389 -0.49998,0.49998z" style="stroke-width: 0; stroke-linecap: butt; stroke-linejoin: miter; fill: rgb(131, 49, 167);" vector-effect="non-scaling-stroke"/></g><defs><path id="path-1673538955703183190" d="M9.81666,28.41665c0,0.28536 -0.23129,0.51665 -0.51665,0.51665h-1.79745c-0.80442,-0.00436 -1.47353,-0.62 -1.54467,-1.42134l-0.35141,-4.21885c-0.01532,-0.18394 0.06866,-0.36213 0.22033,-0.46736c0.15161,-0.10523 0.3479,-0.12158 0.51489,-0.04287c0.16693,0.07871 0.27924,0.24055 0.29456,0.42449l0.35141,4.21885c0.02373,0.26707 0.24673,0.47233 0.51489,0.47378h1.79745c0.28536,0 0.51665,0.23129 0.51665,0.51665zM30.99998,14.27272v0.27719c0.00539,1.9669 -0.88532,3.82654 -2.41455,5.04096l-0.87805,0.70145l-0.67346,8.17573c-0.12521,1.42747 -1.30333,2.52422 -2.71982,2.53194h-17.6282c-1.41649,-0.00766 -2.59461,-1.10446 -2.71982,-2.53194l-0.67346,-8.17579l-0.87805,-0.70139c-1.52917,-1.21448 -2.41987,-3.07412 -2.41455,-5.04096v-0.27719c0.00236,-1.51336 1.07156,-2.80968 2.54284,-3.08288l-0.00442,-0.05348h4.46575c-0.18612,-0.31639 -0.28542,-0.67732 -0.28748,-1.04547c0,-1.15476 0.92528,-2.09089 2.06664,-2.09089c1.14137,0 2.06664,0.93613 2.06664,2.09089c-0.00206,0.36822 -0.10129,0.72914 -0.28748,1.04547h17.89902l-0.00442,0.05348c1.47129,0.27327 2.54048,1.56953 2.54284,3.08288zM3.17522,18.86657l-0.03403,-0.41263l-0.51217,-6.21716c-0.93399,0.22249 -1.59444,1.0652 -1.59565,2.036v0.27719c-0.00436,1.64671 0.74133,3.20368 2.02154,4.22061zM13.1144,12.18183c0.20913,0.34371 0.31963,0.73956 0.31914,1.14318v1.92984c-0.01047,0.2702 0.16693,0.51107 0.42583,0.57814c0.15046,0.02628 0.30467,-0.01574 0.42171,-0.11492c0.11698,-0.09918 0.18497,-0.24546 0.18576,-0.39989c0,-0.2887 0.23135,-0.52271 0.51665,-0.52271c0.2853,0 0.51665,0.234 0.51665,0.52271v2.54505c-0.01181,0.51358 0.32925,0.96713 0.82168,1.09264c0.30564,0.06585 0.6243,-0.01372 0.86455,-0.21593c0.24031,-0.19792 0.37999,-0.49459 0.38042,-0.8081v-2.09089c0,-0.2887 0.23129,-0.52271 0.51665,-0.52271c0.28536,0 0.51665,0.234 0.51665,0.52271c0.00133,0.31443 0.14198,0.61177 0.38314,0.81006c0.24116,0.19829 0.55751,0.27682 0.86207,0.21391c0.49249,-0.12564 0.83343,-0.57931 0.82144,-1.09295v-3.59015zM7.75001,10.09095c0.00061,0.57716 0.46288,1.04492 1.03335,1.04547c0.57071,0 1.03335,-0.46807 1.03335,-1.04547c0,-0.57741 -0.46264,-1.04547 -1.03335,-1.04547c-0.57071,0 -1.03335,0.46807 -1.03335,1.04547zM27.33835,12.18183h-5.63842v3.59015c0.01659,1.01399 -0.67467,1.89964 -1.65341,2.11845c-0.49509,0.10083 -1.00944,0.01531 -1.44658,-0.24043v0.28178c-0.0023,1.15476 -0.92788,2.08978 -2.06919,2.0904c-0.56006,0.00129 -1.0965,-0.22812 -1.48588,-0.63542c-0.38938,-0.40724 -0.59814,-0.95733 -0.57828,-1.52359v-1.06716c-0.24963,0.08919 -0.51767,0.11265 -0.77875,0.06812c-0.75647,-0.15241 -1.29794,-0.82899 -1.28789,-1.60928v-1.92984c-0.00067,-0.63107 -0.50617,-1.14251 -1.12992,-1.14318h-7.60843l0.38653,4.69315l0.35462,4.30398l-0.00012,-0.00012l0.59324,7.20242c0.07792,0.88694 0.80993,1.56843 1.69004,1.57326h17.6282c0.88017,-0.00484 1.61218,-0.68632 1.69004,-1.57326zM29.96668,14.27278c-0.00121,-0.9708 -0.66166,-1.81351 -1.59565,-2.036l-0.54595,6.62979l0.12006,-0.09599c1.2802,-1.01693 2.0259,-2.5739 2.02154,-4.22061zM5.14721,3.27576c-0.14017,-0.2168 -0.18238,-0.47681 -0.11742,-0.72271l0.12251,-0.46354c0.0973,-0.36896 0.34746,-0.68667 0.69545,-0.88315c0.348,-0.19649 0.76527,-0.2557 1.15997,-0.16453l7.9869,1.84208c0.52128,-1.02446 1.7413,-1.56518 2.91983,-1.29409l0.9922,0.229c1.17859,0.2717 1.98972,1.28116 1.94032,2.41481l7.98732,1.84214c0.82179,0.18966 1.32355,0.96604 1.12069,1.73413l-0.12203,0.46354c-0.11275,0.42588 -0.5211,0.72539 -0.99046,0.72657c-0.08317,-0.00006 -0.16603,-0.00951 -0.24675,-0.02821l-22.81876,-5.2626c-0.26309,-0.06072 -0.48966,-0.21663 -0.62977,-0.43343zM16.02167,3.12063l3.7991,0.87633c-0.06437,-0.60407 -0.5284,-1.10499 -1.15883,-1.251l-0.99244,-0.229c-0.63049,-0.14383 -1.28978,0.09771 -1.64783,0.60367zM6.02175,2.78205l22.8196,5.2626l0.12149,-0.46354c0.06748,-0.25603 -0.09963,-0.5148 -0.3735,-0.57827l-8.08731,-1.86519l-5.80229,-1.33802v-0.00017l-7.93703,-1.8305c-0.0403,-0.00929 -0.08167,-0.01399 -0.12322,-0.01399c-0.23471,0.00073 -0.43889,0.15054 -0.49523,0.36354zM6.5,5c0.82846,0 1.5,0.67154 1.5,1.5c0,0.82846 -0.6716,1.5 -1.5,1.5c-0.8284,0 -1.5,-0.6716 -1.5,-1.5c0.00094,-0.82805 0.67195,-1.49906 1.5,-1.5zM6.50006,6.00002c-0.27615,0 -0.49998,0.22383 -0.49998,0.49998c0,0.27615 0.22383,0.49998 0.49998,0.49998c0.27615,0 0.49998,-0.22383 0.49998,-0.49998c-0.00035,-0.27598 -0.224,-0.49963 -0.49998,-0.49998zM3.5,8c0.82805,0.00088 1.49912,0.67195 1.5,1.5c0,0.82846 -0.67154,1.5 -1.5,1.5c-0.82846,0 -1.5,-0.6716 -1.5,-1.5c0,-0.8284 0.6716,-1.5 1.5,-1.5zM3.50006,9.00002c-0.27615,0 -0.49998,0.22383 -0.49998,0.49998c0,0.27609 0.22383,0.49998 0.49998,0.49998c0.27598,-0.00035 0.49963,-0.224 0.49998,-0.49998c0,-0.27615 -0.22383,-0.49998 -0.49998,-0.49998zM12.5,6c0.82842,0 1.5,0.67158 1.5,1.5c0,0.82842 -0.67158,1.5 -1.5,1.5c-0.82842,0 -1.5,-0.67158 -1.5,-1.5c0.001,-0.82802 0.67198,-1.499 1.5,-1.5zM12.5,6.85715c-0.35502,0 -0.64285,0.28783 -0.64285,0.64285c0,0.35502 0.28783,0.64285 0.64285,0.64285c0.35502,0 0.64285,-0.28783 0.64285,-0.64285c-0.0004,-0.35487 -0.28798,-0.6425 -0.64285,-0.64285zM0,5.5c0.00134,-0.82797 0.89597,-1.49895 2,-1.5c1.10456,0 2,0.67158 2,1.5c0,0.82842 -0.89544,1.5 -2,1.5c-1.10456,0 -2,-0.67158 -2,-1.5zM1.14287,5.5c0,0.35502 0.38377,0.64285 0.85713,0.64285c0.47337,0 0.85713,-0.28783 0.85713,-0.64285c0,-0.35502 -0.38377,-0.64285 -0.85713,-0.64285c-0.47316,0.0004 -0.8566,0.28798 -0.85713,0.64285zM2,1.5c0,-0.8284 0.6716,-1.5 1.5,-1.5c0.82805,0.00094 1.49912,0.67195 1.5,1.5c0,0.8284 -0.6716,1.5 -1.5,1.5c-0.8284,0 -1.5,-0.6716 -1.5,-1.5zM3.00002,1.5c0,0.27609 0.22383,0.49998 0.49998,0.49998c0.27598,-0.00035 0.49963,-0.224 0.49998,-0.49998c0,-0.27615 -0.22383,-0.49998 -0.49998,-0.49998c-0.27609,0 -0.49998,0.22389 -0.49998,0.49998z" vector-effect="non-scaling-stroke"/></defs></g></svg>