<svg version="1.2" xmlns="http://www.w3.org/2000/svg" xmlns:xlink="http://www.w3.org/1999/xlink" overflow="visible" preserveAspectRatio="none" viewBox="0 0 30.000000000000124 30.999999999999964" width="30.000000000000124" height="30.999999999999964"><g transform="translate(0, 0)"><g transform="translate(-2.3919234648506205e-14, -3.723757413531814e-14) rotate(0)"><path d="M6.89515,22.7776c0.24579,-0.14735 0.56464,-0.06781 0.71214,0.17773l3.11424,5.18514c0.09543,0.15884 0.09878,0.35644 0.00882,0.51843c-0.09002,0.162 -0.2596,0.26377 -0.44506,0.26687c-0.18546,0.0031 -0.35844,-0.09279 -0.45388,-0.25162l-3.11424,-5.18514c-0.14756,-0.24555 -0.06788,-0.56407 0.17797,-0.71142zM11.83359,28.40734c0,-0.28638 0.23235,-0.5185 0.51902,-0.5185h0.51902c0.28661,0 0.51902,0.23212 0.51902,0.5185c0,0.28638 -0.23235,0.5185 -0.51902,0.5185h-0.51902c-0.28667,0 -0.51902,-0.23212 -0.51902,-0.5185zM4.70333,15.75946c0.06934,0.27763 -0.09975,0.5589 -0.37766,0.62823c-0.27791,0.06933 -0.55947,-0.09947 -0.62899,-0.3771l-1.46789,-5.86672c-0.06946,-0.27769 0.09963,-0.55909 0.3776,-0.62842c0.27797,-0.06939 0.55965,0.09953 0.62905,0.37722zM4.93069,7.82192c0.20133,0.20119 0.20285,0.52688 0.00328,0.72989l-0.36696,0.36659c-0.0972,0.0974 -0.22925,0.15209 -0.36696,0.15191c-0.20991,-0.00006 -0.39913,-0.12639 -0.47942,-0.3201c-0.08029,-0.19371 -0.03595,-0.41672 0.11247,-0.56498l0.36696,-0.36659c0.20316,-0.19937 0.52924,-0.19791 0.73063,0.00328zM29.99998,20.11117c0.00189,0.41824 -0.16946,0.81867 -0.4734,1.10638c-0.29372,0.29118 -0.69176,0.45287 -1.10549,0.44916h-0.71104l-4.7455,8.53321c-0.27456,0.49376 -0.79553,0.80007 -1.36096,0.80007h-12.27343c-0.56543,0 -1.08639,-0.30631 -1.36096,-0.80007l-4.88625,-8.78647c-0.09057,-0.05864 -0.17481,-0.12651 -0.25139,-0.20246c-0.31605,-0.31798 -0.47839,-0.7573 -0.445,-1.20415c-0.02652,-0.04381 -0.04635,-0.09121 -0.05888,-0.14079l-2.28349,-9.44977c-0.12639,-0.51752 0.02238,-1.06354 0.39384,-1.44569l8.21386,-8.49681c0.3849,-0.39429 0.94856,-0.55823 1.48516,-0.43191l9.41637,2.26435l0.16106,-0.1609c0.60849,-0.60557 1.59288,-0.60466 2.20034,0.00201c0.6074,0.60666 0.60855,1.59006 0.00249,2.19812l-6.46557,6.45862c2.09895,0.20174 3.86542,1.65569 4.4651,3.67528c0.07658,0.03931 0.14993,0.08294 0.22396,0.12572c0.78409,-0.46697 1.67968,-0.7144 2.59254,-0.71622c0.74279,0 1.47695,0.15938 2.15272,0.46739c0.02263,0.0099 0.04434,0.02175 0.0649,0.03543c1.64136,0.77796 2.75513,2.35781 2.93529,4.16382h0.53477c0.8656,-0.00504 1.57196,0.69082 1.57895,1.55567zM21.06924,15.28326c0.2711,0.25326 0.51415,0.5349 0.72497,0.84006c0.66421,-0.21285 1.3803,-0.19949 2.03605,0.0381l0.19616,0.08811c0.93707,0.42759 1.60116,1.29129 1.77305,2.30598h1.04832c-0.1798,-1.42442 -1.08512,-2.65427 -2.39255,-3.25036c-0.02153,-0.00984 -0.04233,-0.02121 -0.06235,-0.03391c-0.52352,-0.22774 -1.08846,-0.34526 -1.65949,-0.34532c-0.5737,0.00091 -1.14077,0.12268 -1.66417,0.35735zM23.59761,17.1933l-0.16526,-0.07492c-0.36112,-0.12074 -0.74766,-0.14468 -1.12094,-0.06945c0.2037,0.47991 0.33332,0.98783 0.38447,1.50657h2.04323c-0.15583,-0.60253 -0.5751,-1.10292 -1.1415,-1.3622zM17.54298,14.92591c-2.08976,0.00681 -3.85119,1.55907 -4.11864,3.62959h1.05251c0.12907,-0.7723 0.54742,-1.46659 1.17021,-1.942l0.00122,-0.0014l0.00182,-0.00122l0.00274,-0.00237l0.00316,-0.00152c0.53867,-0.42042 1.20342,-0.64731 1.88697,-0.64409c0.37456,0.00043 0.74602,0.06763 1.09692,0.19851l0.19616,0.08811c0.93707,0.42759 1.60116,1.29129 1.77305,2.30598h1.04832c-0.1798,-1.42442 -1.08512,-2.65427 -2.39255,-3.25036c-0.02153,-0.00984 -0.04233,-0.02121 -0.06235,-0.03391c-0.52358,-0.22768 -1.08852,-0.34526 -1.65955,-0.34532zM18.40724,17.19336l-0.16526,-0.07492c-0.22457,-0.07899 -0.46093,-0.1191 -0.699,-0.11849c-0.45467,-0.00255 -0.89692,0.14838 -1.255,0.42838l-0.00262,0.00128l-0.00195,0.00225c-0.37012,0.2786 -0.63398,0.67496 -0.74809,1.12364h4.01335c-0.15577,-0.60253 -0.5751,-1.10292 -1.14144,-1.36214zM12.94145,16.67803c0.23667,-0.45232 0.54006,-0.86655 0.89997,-1.22876c-0.61293,-0.34447 -1.30457,-0.52469 -2.00783,-0.5233c-0.18418,0.00012 -0.36805,0.0141 -0.55004,0.04193l-1.01444,1.01341c0.9274,0.05803 1.83478,0.29458 2.67234,0.69672zM9.7417,17.00001c-0.19671,0 -0.36075,0.00887 -0.51494,0.02248l-1.53473,1.53306h4.68997c0.03108,-0.30412 0.08905,-0.6049 0.17323,-0.89881c-0.87357,-0.43567 -1.83716,-0.66062 -2.81352,-0.65673zM14.68816,14.74933c0.38666,-0.25837 0.80715,-0.46223 1.24953,-0.60593c-0.70186,-0.50245 -1.54361,-0.77273 -2.40709,-0.77297c-0.05523,0 -0.2068,-0.00201 -0.41665,-0.00456l-0.22377,-0.0028l-0.55278,0.5521c0.84084,0.07826 1.64884,0.36495 2.35076,0.83416zM14.94789,11.81475c-0.18308,0.00055 -0.36592,0.01367 -0.54718,0.03925l-0.49962,0.49917c1.26388,0.08908 2.45064,0.64027 3.33351,1.54819c0.10255,-0.00595 0.2048,-0.01252 0.30844,-0.01252c0.35741,0.00085 0.71378,0.03846 1.06352,0.11229c-0.72217,-1.34755 -2.12869,-2.18804 -3.65868,-2.18639zM3.11939,18.72412l3.41848,-3.41516l12.15464,-12.14275l-8.79881,-2.11561c-0.17864,-0.04351 -0.36702,0.01106 -0.49469,0.14328l-8.2144,8.4973c-0.12396,0.12736 -0.17353,0.30947 -0.13126,0.48204zM4.29988,20.47763l6.34532,-6.33861l0.00699,-0.00693l10.53068,-10.51988c0.2023,-0.20289 0.20206,-0.53113 -0.00055,-0.73372c-0.09732,-0.09728 -0.22931,-0.15191 -0.36696,-0.15191c-0.13765,0 -0.26964,0.05463 -0.36696,0.15191l-16.88244,16.8659c-0.20224,0.20265 -0.20224,0.53059 0,0.73323c0.20522,0.19627 0.52869,0.19627 0.73391,0zM26.52275,21.66659h-22.11186l4.46558,8.02991c0.09166,0.16437 0.26526,0.26633 0.45363,0.26633h12.27349c0.18837,0 0.36197,-0.1019 0.45363,-0.26633zM28.96195,20.11099c-0.00651,-0.29215 -0.24835,-0.52403 -0.54086,-0.5185h-21.76711l-1.03822,1.03705h21.78894l0.00128,0.00012l1.01505,-0.00012c0.14154,0.00194 0.27797,-0.05293 0.37864,-0.1524c0.10316,-0.09382 0.16204,-0.22671 0.16228,-0.36616z" style="stroke-width: 0; stroke-linecap: butt; stroke-linejoin: miter; fill: rgb(131, 49, 167);" vector-effect="non-scaling-stroke"/></g><defs><path id="path-1673538955703183194" d="M6.89515,22.7776c0.24579,-0.14735 0.56464,-0.06781 0.71214,0.17773l3.11424,5.18514c0.09543,0.15884 0.09878,0.35644 0.00882,0.51843c-0.09002,0.162 -0.2596,0.26377 -0.44506,0.26687c-0.18546,0.0031 -0.35844,-0.09279 -0.45388,-0.25162l-3.11424,-5.18514c-0.14756,-0.24555 -0.06788,-0.56407 0.17797,-0.71142zM11.83359,28.40734c0,-0.28638 0.23235,-0.5185 0.51902,-0.5185h0.51902c0.28661,0 0.51902,0.23212 0.51902,0.5185c0,0.28638 -0.23235,0.5185 -0.51902,0.5185h-0.51902c-0.28667,0 -0.51902,-0.23212 -0.51902,-0.5185zM4.70333,15.75946c0.06934,0.27763 -0.09975,0.5589 -0.37766,0.62823c-0.27791,0.06933 -0.55947,-0.09947 -0.62899,-0.3771l-1.46789,-5.86672c-0.06946,-0.27769 0.09963,-0.55909 0.3776,-0.62842c0.27797,-0.06939 0.55965,0.09953 0.62905,0.37722zM4.93069,7.82192c0.20133,0.20119 0.20285,0.52688 0.00328,0.72989l-0.36696,0.36659c-0.0972,0.0974 -0.22925,0.15209 -0.36696,0.15191c-0.20991,-0.00006 -0.39913,-0.12639 -0.47942,-0.3201c-0.08029,-0.19371 -0.03595,-0.41672 0.11247,-0.56498l0.36696,-0.36659c0.20316,-0.19937 0.52924,-0.19791 0.73063,0.00328zM29.99998,20.11117c0.00189,0.41824 -0.16946,0.81867 -0.4734,1.10638c-0.29372,0.29118 -0.69176,0.45287 -1.10549,0.44916h-0.71104l-4.7455,8.53321c-0.27456,0.49376 -0.79553,0.80007 -1.36096,0.80007h-12.27343c-0.56543,0 -1.08639,-0.30631 -1.36096,-0.80007l-4.88625,-8.78647c-0.09057,-0.05864 -0.17481,-0.12651 -0.25139,-0.20246c-0.31605,-0.31798 -0.47839,-0.7573 -0.445,-1.20415c-0.02652,-0.04381 -0.04635,-0.09121 -0.05888,-0.14079l-2.28349,-9.44977c-0.12639,-0.51752 0.02238,-1.06354 0.39384,-1.44569l8.21386,-8.49681c0.3849,-0.39429 0.94856,-0.55823 1.48516,-0.43191l9.41637,2.26435l0.16106,-0.1609c0.60849,-0.60557 1.59288,-0.60466 2.20034,0.00201c0.6074,0.60666 0.60855,1.59006 0.00249,2.19812l-6.46557,6.45862c2.09895,0.20174 3.86542,1.65569 4.4651,3.67528c0.07658,0.03931 0.14993,0.08294 0.22396,0.12572c0.78409,-0.46697 1.67968,-0.7144 2.59254,-0.71622c0.74279,0 1.47695,0.15938 2.15272,0.46739c0.02263,0.0099 0.04434,0.02175 0.0649,0.03543c1.64136,0.77796 2.75513,2.35781 2.93529,4.16382h0.53477c0.8656,-0.00504 1.57196,0.69082 1.57895,1.55567zM21.06924,15.28326c0.2711,0.25326 0.51415,0.5349 0.72497,0.84006c0.66421,-0.21285 1.3803,-0.19949 2.03605,0.0381l0.19616,0.08811c0.93707,0.42759 1.60116,1.29129 1.77305,2.30598h1.04832c-0.1798,-1.42442 -1.08512,-2.65427 -2.39255,-3.25036c-0.02153,-0.00984 -0.04233,-0.02121 -0.06235,-0.03391c-0.52352,-0.22774 -1.08846,-0.34526 -1.65949,-0.34532c-0.5737,0.00091 -1.14077,0.12268 -1.66417,0.35735zM23.59761,17.1933l-0.16526,-0.07492c-0.36112,-0.12074 -0.74766,-0.14468 -1.12094,-0.06945c0.2037,0.47991 0.33332,0.98783 0.38447,1.50657h2.04323c-0.15583,-0.60253 -0.5751,-1.10292 -1.1415,-1.3622zM17.54298,14.92591c-2.08976,0.00681 -3.85119,1.55907 -4.11864,3.62959h1.05251c0.12907,-0.7723 0.54742,-1.46659 1.17021,-1.942l0.00122,-0.0014l0.00182,-0.00122l0.00274,-0.00237l0.00316,-0.00152c0.53867,-0.42042 1.20342,-0.64731 1.88697,-0.64409c0.37456,0.00043 0.74602,0.06763 1.09692,0.19851l0.19616,0.08811c0.93707,0.42759 1.60116,1.29129 1.77305,2.30598h1.04832c-0.1798,-1.42442 -1.08512,-2.65427 -2.39255,-3.25036c-0.02153,-0.00984 -0.04233,-0.02121 -0.06235,-0.03391c-0.52358,-0.22768 -1.08852,-0.34526 -1.65955,-0.34532zM18.40724,17.19336l-0.16526,-0.07492c-0.22457,-0.07899 -0.46093,-0.1191 -0.699,-0.11849c-0.45467,-0.00255 -0.89692,0.14838 -1.255,0.42838l-0.00262,0.00128l-0.00195,0.00225c-0.37012,0.2786 -0.63398,0.67496 -0.74809,1.12364h4.01335c-0.15577,-0.60253 -0.5751,-1.10292 -1.14144,-1.36214zM12.94145,16.67803c0.23667,-0.45232 0.54006,-0.86655 0.89997,-1.22876c-0.61293,-0.34447 -1.30457,-0.52469 -2.00783,-0.5233c-0.18418,0.00012 -0.36805,0.0141 -0.55004,0.04193l-1.01444,1.01341c0.9274,0.05803 1.83478,0.29458 2.67234,0.69672zM9.7417,17.00001c-0.19671,0 -0.36075,0.00887 -0.51494,0.02248l-1.53473,1.53306h4.68997c0.03108,-0.30412 0.08905,-0.6049 0.17323,-0.89881c-0.87357,-0.43567 -1.83716,-0.66062 -2.81352,-0.65673zM14.68816,14.74933c0.38666,-0.25837 0.80715,-0.46223 1.24953,-0.60593c-0.70186,-0.50245 -1.54361,-0.77273 -2.40709,-0.77297c-0.05523,0 -0.2068,-0.00201 -0.41665,-0.00456l-0.22377,-0.0028l-0.55278,0.5521c0.84084,0.07826 1.64884,0.36495 2.35076,0.83416zM14.94789,11.81475c-0.18308,0.00055 -0.36592,0.01367 -0.54718,0.03925l-0.49962,0.49917c1.26388,0.08908 2.45064,0.64027 3.33351,1.54819c0.10255,-0.00595 0.2048,-0.01252 0.30844,-0.01252c0.35741,0.00085 0.71378,0.03846 1.06352,0.11229c-0.72217,-1.34755 -2.12869,-2.18804 -3.65868,-2.18639zM3.11939,18.72412l3.41848,-3.41516l12.15464,-12.14275l-8.79881,-2.11561c-0.17864,-0.04351 -0.36702,0.01106 -0.49469,0.14328l-8.2144,8.4973c-0.12396,0.12736 -0.17353,0.30947 -0.13126,0.48204zM4.29988,20.47763l6.34532,-6.33861l0.00699,-0.00693l10.53068,-10.51988c0.2023,-0.20289 0.20206,-0.53113 -0.00055,-0.73372c-0.09732,-0.09728 -0.22931,-0.15191 -0.36696,-0.15191c-0.13765,0 -0.26964,0.05463 -0.36696,0.15191l-16.88244,16.8659c-0.20224,0.20265 -0.20224,0.53059 0,0.73323c0.20522,0.19627 0.52869,0.19627 0.73391,0zM26.52275,21.66659h-22.11186l4.46558,8.02991c0.09166,0.16437 0.26526,0.26633 0.45363,0.26633h12.27349c0.18837,0 0.36197,-0.1019 0.45363,-0.26633zM28.96195,20.11099c-0.00651,-0.29215 -0.24835,-0.52403 -0.54086,-0.5185h-21.76711l-1.03822,1.03705h21.78894l0.00128,0.00012l1.01505,-0.00012c0.14154,0.00194 0.27797,-0.05293 0.37864,-0.1524c0.10316,-0.09382 0.16204,-0.22671 0.16228,-0.36616z" vector-effect="non-scaling-stroke"/></defs></g></svg>