<svg version="1.2" xmlns="http://www.w3.org/2000/svg" xmlns:xlink="http://www.w3.org/1999/xlink" overflow="visible" preserveAspectRatio="none" viewBox="0 0 31.000000000000018 31.00000000000008" width="31.000000000000018" height="31.00000000000008"><g transform="translate(0, 0)"><g transform="translate(-2.381775332516156e-13, 8.123422724423679e-14) rotate(0)"><path d="M19.50632,17.86725c0.04777,0.17832 -0.00321,0.36852 -0.13367,0.49907c-2.01467,2.02987 -4.1305,3.95669 -6.33944,5.77312c-0.22121,0.18032 -0.54666,0.14708 -0.72695,-0.07418c-0.18028,-0.22126 -0.14705,-0.54678 0.07416,-0.7271c2.18194,-1.79409 4.27186,-3.69735 6.2617,-5.70245c0.13052,-0.13049 0.32073,-0.18147 0.49896,-0.1337c0.17829,0.04778 0.31753,0.18704 0.36523,0.36525zM22.44469,14.76943c0.0557,0.17639 0.01289,0.36912 -0.11224,0.5053c-0.31432,0.34363 -0.6382,0.69229 -0.97165,1.04603c-0.19621,0.20594 -0.5219,0.2146 -0.72877,0.01938c-0.20686,-0.19528 -0.21709,-0.52099 -0.02288,-0.72886c0.33012,-0.34969 0.65031,-0.69435 0.96057,-1.03392c0.12441,-0.13685 0.31244,-0.19679 0.49309,-0.15713c0.18065,0.03966 0.32618,0.17281 0.38188,0.3492zM30.84517,7.40404c-0.55847,2.09412 -3.9214,7.00789 -10.17553,13.26336c-6.25414,6.25547 -11.16692,9.61912 -13.26101,10.17771c-0.37909,0.10257 -0.77005,0.15471 -1.16283,0.15489c-1.46189,-0.05226 -2.84133,-0.69053 -3.82756,-1.77114c-1.13994,-1.0556 -1.582,-2.66694 -1.14025,-4.15657c-0.03118,-0.03342 -0.05981,-0.06988 -0.09002,-0.10439c-0.02633,-0.02991 -0.05243,-0.05976 -0.07797,-0.0904c-0.07489,-0.0901 -0.14596,-0.18402 -0.21461,-0.28078c-0.02646,-0.03724 -0.05376,-0.07345 -0.07918,-0.11154c-0.06538,-0.09815 -0.12592,-0.2003 -0.18458,-0.30427c-0.02113,-0.03736 -0.04431,-0.07315 -0.06447,-0.11117c-0.07519,-0.14211 -0.14529,-0.2881 -0.20716,-0.43942l-0.00133,-0.00715c-0.70516,-1.72385 -0.34077,-3.58823 0.83223,-4.56608c-0.01302,-0.02797 -0.01986,-0.05946 -0.03227,-0.08786c-0.07483,-0.16767 -0.13821,-0.34024 -0.18973,-0.51651c-0.00369,-0.01272 -0.00908,-0.0244 -0.01259,-0.03712c-0.00272,-0.00969 -0.0069,-0.01841 -0.00957,-0.02816c-0.00278,-0.01035 0.00012,-0.02047 -0.00206,-0.03088c-0.17296,-0.66601 -0.19941,-1.36169 -0.07761,-2.03896c0.19215,-1.21915 0.88689,-2.30175 1.91502,-2.98417c-0.0115,-0.15846 -0.01356,-0.31747 -0.00617,-0.47618c0.00097,-0.0284 0.00272,-0.0568 0.00436,-0.08532c0.00854,-0.15501 0.02537,-0.30948 0.05049,-0.46274c0.0017,-0.01011 0.00151,-0.0198 0.00327,-0.02991l0.00121,-0.00321c0.21122,-1.17628 0.84791,-2.23363 1.78862,-2.97042c-0.00387,-0.06309 0.00042,-0.1268 -0.00006,-0.19019c-0.00042,-0.07714 -0.00478,-0.15314 -0.00012,-0.23125c0.00932,-0.15937 0.02857,-0.31802 0.05775,-0.47497c0.00708,-0.03784 0.01834,-0.07569 0.02652,-0.11353c0.02912,-0.13691 0.0652,-0.27224 0.10812,-0.40545c0.01332,-0.04099 0.02821,-0.08162 0.04292,-0.1225c0.05013,-0.13987 0.10721,-0.27708 0.1712,-0.41115c0.01023,-0.0215 0.01635,-0.04336 0.027,-0.06485c0.00236,-0.00472 0.00684,-0.00739 0.00932,-0.01205c0.23422,-0.46825 0.54249,-0.89562 0.91292,-1.26559c0.86135,-0.89435 2.05868,-1.38554 3.29985,-1.35381c0.0072,-0.00957 0.01574,-0.01835 0.02307,-0.02785c0.05273,-0.06842 0.10939,-0.13479 0.16666,-0.20103c0.03517,-0.04081 0.06889,-0.08253 0.10552,-0.12225c0.04183,-0.04505 0.08718,-0.08792 0.13107,-0.1317c0.05636,-0.05643 0.11157,-0.11366 0.17084,-0.1673c0.00521,-0.00472 0.01108,-0.00902 0.01628,-0.01368c0.19851,-0.17911 0.41166,-0.34121 0.63723,-0.48466c0.83356,-0.53818 1.81713,-0.79607 2.80748,-0.73619c0.03529,-0.0571 0.07803,-0.1102 0.11678,-0.16549c0.0221,-0.03161 0.04335,-0.06328 0.06659,-0.0944c0.081,-0.1076 0.16763,-0.21078 0.25965,-0.30912c0.02192,-0.02362 0.04159,-0.04838 0.06423,-0.07163c0.11799,-0.12122 0.24337,-0.235 0.3754,-0.34072c0.02143,-0.01708 0.04571,-0.03173 0.0675,-0.0485c0.11266,-0.08623 0.22974,-0.16797 0.35221,-0.24408c0.01737,-0.01078 0.03209,-0.02386 0.0497,-0.03445c0.00866,-0.00533 0.01871,-0.00527 0.02761,-0.00999c0.49454,-0.29428 1.03824,-0.49658 1.60488,-0.59704c0.92431,-0.17348 1.87955,-0.06043 2.73786,0.32395l0.00436,-0.0043c0.10909,-0.12752 0.22872,-0.24572 0.35748,-0.35332c0.05727,-0.04874 0.11938,-0.09119 0.18028,-0.13594c0.07561,-0.05522 0.15232,-0.10863 0.2335,-0.1578c0.07464,-0.04541 0.1505,-0.08792 0.2292,-0.1277c0.07912,-0.04002 0.16134,-0.07514 0.24452,-0.1096c0.08118,-0.03355 0.16061,-0.06891 0.245,-0.09682c0.11678,-0.03887 0.23876,-0.06824 0.36166,-0.09628c0.10715,-0.02428 0.2154,-0.04354 0.326,-0.05922c0.10425,-0.01484 0.20728,-0.03264 0.31474,-0.03966c0.00775,-0.00042 0.01459,0.00327 0.02228,0.00321c1.28711,-0.06861 2.54693,0.3885 3.49072,1.26656c1.49028,-0.44421 3.1034,-0.0026 4.1598,1.13873c1.50239,1.50271 2.07599,3.27585 1.61578,4.992zM19.71276,4.06861c1.12384,-0.20594 2.26893,-0.27127 3.40888,-0.19449c0.04014,-0.71493 0.33841,-1.39099 0.83937,-1.90259c0.05261,-0.05262 0.1106,-0.09785 0.16666,-0.14581c-0.26903,-0.21102 -0.56604,-0.38372 -0.88253,-0.51318c-1.41497,-0.58202 -2.98044,-0.23209 -3.57366,0.79607c-0.03971,0.06636 -0.07519,0.13515 -0.10606,0.20606c-0.21909,0.57675 -0.16485,1.22181 0.14735,1.75394zM13.91817,4.6883c0.08851,0.46588 0.34707,0.88218 0.72544,1.16798c1.27452,-0.68 2.62635,-1.20389 4.02619,-1.5603c-0.31589,-0.69047 -0.3593,-1.4748 -0.12156,-2.19591c-0.64534,-0.27303 -1.35667,-0.35035 -2.0456,-0.22241c-0.4759,0.08374 -0.93103,0.25892 -1.34021,0.5159c-0.07816,0.04941 -0.15377,0.10076 -0.22557,0.15483c-0.03106,0.02331 -0.06127,0.04723 -0.09117,0.07151c-0.07089,0.05746 -0.13809,0.11699 -0.20172,0.17863c-0.02621,0.02531 -0.05188,0.05092 -0.07694,0.07708c-0.05999,0.06267 -0.11587,0.12716 -0.16842,0.1931c-0.02391,0.03015 -0.04746,0.06037 -0.06992,0.09125c-0.04571,0.06273 -0.08705,0.12692 -0.12592,0.19183c-0.02313,0.03887 -0.04565,0.07799 -0.06641,0.11783c-0.20523,0.371 -0.28193,0.79946 -0.21818,1.21866zM9.75813,7.95815c0.20256,0.31111 0.49394,0.55417 0.83634,0.69762c0.96214,-0.84924 1.99996,-1.60868 3.10043,-2.26881c-0.41487,-0.41417 -0.69232,-0.94588 -0.79481,-1.52306c-0.05794,-0.35417 -0.0474,-0.71614 0.03106,-1.06632c-0.65448,0.02828 -1.28972,0.22961 -1.84104,0.58348l-0.00412,0.00394c-0.04262,0.02719 -0.08215,0.05692 -0.12332,0.08532c-0.052,0.03579 -0.10425,0.07127 -0.15431,0.10954c-0.04462,0.03403 -0.08681,0.06969 -0.12943,0.10512c-0.05884,0.04935 -0.11678,0.09955 -0.17223,0.15223c-0.02422,0.02271 -0.04861,0.04529 -0.07198,0.06842c-0.17786,0.17693 -0.33647,0.37215 -0.47329,0.58245c-0.00515,0.00793 -0.01265,0.01332 -0.01816,0.02089c-0.53534,0.70985 -0.60769,1.66681 -0.18513,2.44919zM5.65518,9.06007c-0.00054,0.03657 -0.00103,0.07303 0,0.10911c0.00224,0.07993 0.0092,0.15895 0.01925,0.23718c0.04468,0.41702 0.22696,0.80721 0.51803,1.109c0.50925,0.46685 1.21513,0.65414 1.88881,0.50107c0.07216,-0.01253 0.14626,-0.00908 0.21697,0.01005c0.40997,-0.48998 0.83683,-0.97222 1.29952,-1.43501c0.06581,-0.06588 0.13549,-0.1248 0.2019,-0.18959c-0.3691,-0.22362 -0.68215,-0.52868 -0.91529,-0.89181c-0.5038,-0.84839 -0.57439,-1.88576 -0.19027,-2.79464c-0.75492,0.12062 -1.45075,0.48169 -1.98404,1.02956c-0.34319,0.3429 -0.61701,0.74872 -0.80662,1.19529c-0.02016,0.04771 -0.04262,0.09531 -0.0603,0.14308c-0.02924,0.07902 -0.05243,0.15865 -0.07507,0.23827c-0.01205,0.04233 -0.02543,0.08471 -0.0356,0.1268c-0.01986,0.08296 -0.03426,0.16585 -0.04674,0.24863c-0.00575,0.03797 -0.01211,0.07599 -0.01622,0.11366c-0.00914,0.08362 -0.01326,0.16676 -0.01435,0.24935zM4.71017,14.86401c0.26861,0.16749 0.57639,0.26158 0.8927,0.27297c0.53105,-1.07219 1.15611,-2.09521 1.8678,-3.05701c-0.75104,-0.01326 -1.46909,-0.3113 -2.0088,-0.83392c-0.23241,-0.23337 -0.42189,-0.50579 -0.55974,-0.80485c-0.19257,0.19389 -0.36396,0.40769 -0.51131,0.63779c-0.27551,0.43361 -0.4607,0.91839 -0.54449,1.42527c-0.01574,0.10094 -0.02755,0.20079 -0.03384,0.299c-0.00109,0.01617 -0.00291,0.0324 -0.00375,0.0485c-0.08754,0.78481 0.25759,1.55527 0.90142,2.01225zM2.02207,18.35209c0.00799,0.0224 0.01429,0.04626 0.0227,0.06824c0.06223,0.16083 0.13875,0.31572 0.22865,0.46286c0.28393,0.50773 0.77611,0.86547 1.34656,0.97876c0.14287,0.0221 0.28792,0.02688 0.43194,0.01429c0.21915,-1.29011 0.58813,-2.55026 1.0995,-3.75481c-0.3524,-0.06303 -0.68942,-0.19322 -0.99265,-0.38353c-0.49533,-0.3188 -0.88114,-0.78172 -1.1055,-1.32651c-0.62482,0.53503 -1.03921,1.27467 -1.16925,2.08697c-0.11448,0.6195 -0.06696,1.25814 0.13803,1.85373zM2.23008,24.56033l0.00599,0.00757c0.24119,0.22113 0.51827,0.39958 0.81933,0.52777c0.36923,0.16264 0.77816,0.21302 1.17578,0.14478c-0.35984,-1.41001 -0.46796,-2.87245 -0.31928,-4.32006c-0.15673,-0.00024 -0.31311,-0.01368 -0.46754,-0.04009c-0.64916,-0.12056 -1.23826,-0.45765 -1.67111,-0.95635c-0.75667,0.7136 -0.96662,2.07444 -0.45531,3.3169c0.04885,0.11929 0.10388,0.23597 0.16473,0.34963c0.01483,0.02797 0.03148,0.05425 0.04692,0.08174c0.04952,0.08768 0.10128,0.1739 0.15722,0.25656c0.01532,0.02277 0.03136,0.04469 0.04704,0.06697c0.06484,0.09131 0.13276,0.17984 0.20511,0.26382c0.00775,0.00902 0.01532,0.01829 0.02313,0.02719c0.08415,0.09616 0.17363,0.18747 0.26801,0.27357zM28.49905,3.14278c-0.44441,-0.45178 -1.0004,-0.77779 -1.6116,-0.94503c-0.07022,0.01593 -0.14305,0.01677 -0.21364,0.00242c-0.7031,-0.17814 -1.44863,0.01066 -1.98216,0.50209c-0.33599,0.34811 -0.53123,0.80836 -0.548,1.29193c1.09236,0.16827 2.15161,0.50688 3.13905,1.00346c0.16485,0.08362 0.27255,0.24899 0.28235,0.43367c0.00981,0.18468 -0.07973,0.36052 -0.23483,0.46116c-0.1551,0.10064 -0.35215,0.11081 -0.51676,0.02658c-4.71294,-2.40136 -11.49273,-0.59038 -16.48518,4.40314c-4.99196,4.99297 -6.80256,11.77476 -4.4022,16.49173c0.08421,0.16464 0.07404,0.36174 -0.0267,0.51687c-0.10074,0.15513 -0.27666,0.24457 -0.46131,0.23452c-0.1847,-0.01005 -0.34985,-0.11802 -0.43322,-0.28314c-0.1735,-0.34424 -0.32715,-0.69816 -0.46015,-1.05996c-0.2131,0.05183 -0.4314,0.0792 -0.65073,0.0815c-0.42474,-0.0023 -0.84476,-0.08853 -1.23602,-0.25383c-0.17538,-0.07521 -0.34477,-0.16379 -0.50659,-0.26485c-0.11853,1.01164 0.2519,2.01928 0.99744,2.71314c1.23045,1.22968 2.64803,1.70956 3.99301,1.34879c1.95794,-0.52226 6.98217,-4.09432 12.79741,-9.91031c5.81475,-5.81647 9.38605,-10.84178 9.90819,-12.7996c0.36014,-1.34522 -0.1186,-2.76364 -1.34838,-3.99429z" style="stroke-width: 0; stroke-linecap: butt; stroke-linejoin: miter; fill: rgb(131, 49, 167);" vector-effect="non-scaling-stroke"/></g><defs><path id="path-1673538955703183201" d="M19.50632,17.86725c0.04777,0.17832 -0.00321,0.36852 -0.13367,0.49907c-2.01467,2.02987 -4.1305,3.95669 -6.33944,5.77312c-0.22121,0.18032 -0.54666,0.14708 -0.72695,-0.07418c-0.18028,-0.22126 -0.14705,-0.54678 0.07416,-0.7271c2.18194,-1.79409 4.27186,-3.69735 6.2617,-5.70245c0.13052,-0.13049 0.32073,-0.18147 0.49896,-0.1337c0.17829,0.04778 0.31753,0.18704 0.36523,0.36525zM22.44469,14.76943c0.0557,0.17639 0.01289,0.36912 -0.11224,0.5053c-0.31432,0.34363 -0.6382,0.69229 -0.97165,1.04603c-0.19621,0.20594 -0.5219,0.2146 -0.72877,0.01938c-0.20686,-0.19528 -0.21709,-0.52099 -0.02288,-0.72886c0.33012,-0.34969 0.65031,-0.69435 0.96057,-1.03392c0.12441,-0.13685 0.31244,-0.19679 0.49309,-0.15713c0.18065,0.03966 0.32618,0.17281 0.38188,0.3492zM30.84517,7.40404c-0.55847,2.09412 -3.9214,7.00789 -10.17553,13.26336c-6.25414,6.25547 -11.16692,9.61912 -13.26101,10.17771c-0.37909,0.10257 -0.77005,0.15471 -1.16283,0.15489c-1.46189,-0.05226 -2.84133,-0.69053 -3.82756,-1.77114c-1.13994,-1.0556 -1.582,-2.66694 -1.14025,-4.15657c-0.03118,-0.03342 -0.05981,-0.06988 -0.09002,-0.10439c-0.02633,-0.02991 -0.05243,-0.05976 -0.07797,-0.0904c-0.07489,-0.0901 -0.14596,-0.18402 -0.21461,-0.28078c-0.02646,-0.03724 -0.05376,-0.07345 -0.07918,-0.11154c-0.06538,-0.09815 -0.12592,-0.2003 -0.18458,-0.30427c-0.02113,-0.03736 -0.04431,-0.07315 -0.06447,-0.11117c-0.07519,-0.14211 -0.14529,-0.2881 -0.20716,-0.43942l-0.00133,-0.00715c-0.70516,-1.72385 -0.34077,-3.58823 0.83223,-4.56608c-0.01302,-0.02797 -0.01986,-0.05946 -0.03227,-0.08786c-0.07483,-0.16767 -0.13821,-0.34024 -0.18973,-0.51651c-0.00369,-0.01272 -0.00908,-0.0244 -0.01259,-0.03712c-0.00272,-0.00969 -0.0069,-0.01841 -0.00957,-0.02816c-0.00278,-0.01035 0.00012,-0.02047 -0.00206,-0.03088c-0.17296,-0.66601 -0.19941,-1.36169 -0.07761,-2.03896c0.19215,-1.21915 0.88689,-2.30175 1.91502,-2.98417c-0.0115,-0.15846 -0.01356,-0.31747 -0.00617,-0.47618c0.00097,-0.0284 0.00272,-0.0568 0.00436,-0.08532c0.00854,-0.15501 0.02537,-0.30948 0.05049,-0.46274c0.0017,-0.01011 0.00151,-0.0198 0.00327,-0.02991l0.00121,-0.00321c0.21122,-1.17628 0.84791,-2.23363 1.78862,-2.97042c-0.00387,-0.06309 0.00042,-0.1268 -0.00006,-0.19019c-0.00042,-0.07714 -0.00478,-0.15314 -0.00012,-0.23125c0.00932,-0.15937 0.02857,-0.31802 0.05775,-0.47497c0.00708,-0.03784 0.01834,-0.07569 0.02652,-0.11353c0.02912,-0.13691 0.0652,-0.27224 0.10812,-0.40545c0.01332,-0.04099 0.02821,-0.08162 0.04292,-0.1225c0.05013,-0.13987 0.10721,-0.27708 0.1712,-0.41115c0.01023,-0.0215 0.01635,-0.04336 0.027,-0.06485c0.00236,-0.00472 0.00684,-0.00739 0.00932,-0.01205c0.23422,-0.46825 0.54249,-0.89562 0.91292,-1.26559c0.86135,-0.89435 2.05868,-1.38554 3.29985,-1.35381c0.0072,-0.00957 0.01574,-0.01835 0.02307,-0.02785c0.05273,-0.06842 0.10939,-0.13479 0.16666,-0.20103c0.03517,-0.04081 0.06889,-0.08253 0.10552,-0.12225c0.04183,-0.04505 0.08718,-0.08792 0.13107,-0.1317c0.05636,-0.05643 0.11157,-0.11366 0.17084,-0.1673c0.00521,-0.00472 0.01108,-0.00902 0.01628,-0.01368c0.19851,-0.17911 0.41166,-0.34121 0.63723,-0.48466c0.83356,-0.53818 1.81713,-0.79607 2.80748,-0.73619c0.03529,-0.0571 0.07803,-0.1102 0.11678,-0.16549c0.0221,-0.03161 0.04335,-0.06328 0.06659,-0.0944c0.081,-0.1076 0.16763,-0.21078 0.25965,-0.30912c0.02192,-0.02362 0.04159,-0.04838 0.06423,-0.07163c0.11799,-0.12122 0.24337,-0.235 0.3754,-0.34072c0.02143,-0.01708 0.04571,-0.03173 0.0675,-0.0485c0.11266,-0.08623 0.22974,-0.16797 0.35221,-0.24408c0.01737,-0.01078 0.03209,-0.02386 0.0497,-0.03445c0.00866,-0.00533 0.01871,-0.00527 0.02761,-0.00999c0.49454,-0.29428 1.03824,-0.49658 1.60488,-0.59704c0.92431,-0.17348 1.87955,-0.06043 2.73786,0.32395l0.00436,-0.0043c0.10909,-0.12752 0.22872,-0.24572 0.35748,-0.35332c0.05727,-0.04874 0.11938,-0.09119 0.18028,-0.13594c0.07561,-0.05522 0.15232,-0.10863 0.2335,-0.1578c0.07464,-0.04541 0.1505,-0.08792 0.2292,-0.1277c0.07912,-0.04002 0.16134,-0.07514 0.24452,-0.1096c0.08118,-0.03355 0.16061,-0.06891 0.245,-0.09682c0.11678,-0.03887 0.23876,-0.06824 0.36166,-0.09628c0.10715,-0.02428 0.2154,-0.04354 0.326,-0.05922c0.10425,-0.01484 0.20728,-0.03264 0.31474,-0.03966c0.00775,-0.00042 0.01459,0.00327 0.02228,0.00321c1.28711,-0.06861 2.54693,0.3885 3.49072,1.26656c1.49028,-0.44421 3.1034,-0.0026 4.1598,1.13873c1.50239,1.50271 2.07599,3.27585 1.61578,4.992zM19.71276,4.06861c1.12384,-0.20594 2.26893,-0.27127 3.40888,-0.19449c0.04014,-0.71493 0.33841,-1.39099 0.83937,-1.90259c0.05261,-0.05262 0.1106,-0.09785 0.16666,-0.14581c-0.26903,-0.21102 -0.56604,-0.38372 -0.88253,-0.51318c-1.41497,-0.58202 -2.98044,-0.23209 -3.57366,0.79607c-0.03971,0.06636 -0.07519,0.13515 -0.10606,0.20606c-0.21909,0.57675 -0.16485,1.22181 0.14735,1.75394zM13.91817,4.6883c0.08851,0.46588 0.34707,0.88218 0.72544,1.16798c1.27452,-0.68 2.62635,-1.20389 4.02619,-1.5603c-0.31589,-0.69047 -0.3593,-1.4748 -0.12156,-2.19591c-0.64534,-0.27303 -1.35667,-0.35035 -2.0456,-0.22241c-0.4759,0.08374 -0.93103,0.25892 -1.34021,0.5159c-0.07816,0.04941 -0.15377,0.10076 -0.22557,0.15483c-0.03106,0.02331 -0.06127,0.04723 -0.09117,0.07151c-0.07089,0.05746 -0.13809,0.11699 -0.20172,0.17863c-0.02621,0.02531 -0.05188,0.05092 -0.07694,0.07708c-0.05999,0.06267 -0.11587,0.12716 -0.16842,0.1931c-0.02391,0.03015 -0.04746,0.06037 -0.06992,0.09125c-0.04571,0.06273 -0.08705,0.12692 -0.12592,0.19183c-0.02313,0.03887 -0.04565,0.07799 -0.06641,0.11783c-0.20523,0.371 -0.28193,0.79946 -0.21818,1.21866zM9.75813,7.95815c0.20256,0.31111 0.49394,0.55417 0.83634,0.69762c0.96214,-0.84924 1.99996,-1.60868 3.10043,-2.26881c-0.41487,-0.41417 -0.69232,-0.94588 -0.79481,-1.52306c-0.05794,-0.35417 -0.0474,-0.71614 0.03106,-1.06632c-0.65448,0.02828 -1.28972,0.22961 -1.84104,0.58348l-0.00412,0.00394c-0.04262,0.02719 -0.08215,0.05692 -0.12332,0.08532c-0.052,0.03579 -0.10425,0.07127 -0.15431,0.10954c-0.04462,0.03403 -0.08681,0.06969 -0.12943,0.10512c-0.05884,0.04935 -0.11678,0.09955 -0.17223,0.15223c-0.02422,0.02271 -0.04861,0.04529 -0.07198,0.06842c-0.17786,0.17693 -0.33647,0.37215 -0.47329,0.58245c-0.00515,0.00793 -0.01265,0.01332 -0.01816,0.02089c-0.53534,0.70985 -0.60769,1.66681 -0.18513,2.44919zM5.65518,9.06007c-0.00054,0.03657 -0.00103,0.07303 0,0.10911c0.00224,0.07993 0.0092,0.15895 0.01925,0.23718c0.04468,0.41702 0.22696,0.80721 0.51803,1.109c0.50925,0.46685 1.21513,0.65414 1.88881,0.50107c0.07216,-0.01253 0.14626,-0.00908 0.21697,0.01005c0.40997,-0.48998 0.83683,-0.97222 1.29952,-1.43501c0.06581,-0.06588 0.13549,-0.1248 0.2019,-0.18959c-0.3691,-0.22362 -0.68215,-0.52868 -0.91529,-0.89181c-0.5038,-0.84839 -0.57439,-1.88576 -0.19027,-2.79464c-0.75492,0.12062 -1.45075,0.48169 -1.98404,1.02956c-0.34319,0.3429 -0.61701,0.74872 -0.80662,1.19529c-0.02016,0.04771 -0.04262,0.09531 -0.0603,0.14308c-0.02924,0.07902 -0.05243,0.15865 -0.07507,0.23827c-0.01205,0.04233 -0.02543,0.08471 -0.0356,0.1268c-0.01986,0.08296 -0.03426,0.16585 -0.04674,0.24863c-0.00575,0.03797 -0.01211,0.07599 -0.01622,0.11366c-0.00914,0.08362 -0.01326,0.16676 -0.01435,0.24935zM4.71017,14.86401c0.26861,0.16749 0.57639,0.26158 0.8927,0.27297c0.53105,-1.07219 1.15611,-2.09521 1.8678,-3.05701c-0.75104,-0.01326 -1.46909,-0.3113 -2.0088,-0.83392c-0.23241,-0.23337 -0.42189,-0.50579 -0.55974,-0.80485c-0.19257,0.19389 -0.36396,0.40769 -0.51131,0.63779c-0.27551,0.43361 -0.4607,0.91839 -0.54449,1.42527c-0.01574,0.10094 -0.02755,0.20079 -0.03384,0.299c-0.00109,0.01617 -0.00291,0.0324 -0.00375,0.0485c-0.08754,0.78481 0.25759,1.55527 0.90142,2.01225zM2.02207,18.35209c0.00799,0.0224 0.01429,0.04626 0.0227,0.06824c0.06223,0.16083 0.13875,0.31572 0.22865,0.46286c0.28393,0.50773 0.77611,0.86547 1.34656,0.97876c0.14287,0.0221 0.28792,0.02688 0.43194,0.01429c0.21915,-1.29011 0.58813,-2.55026 1.0995,-3.75481c-0.3524,-0.06303 -0.68942,-0.19322 -0.99265,-0.38353c-0.49533,-0.3188 -0.88114,-0.78172 -1.1055,-1.32651c-0.62482,0.53503 -1.03921,1.27467 -1.16925,2.08697c-0.11448,0.6195 -0.06696,1.25814 0.13803,1.85373zM2.23008,24.56033l0.00599,0.00757c0.24119,0.22113 0.51827,0.39958 0.81933,0.52777c0.36923,0.16264 0.77816,0.21302 1.17578,0.14478c-0.35984,-1.41001 -0.46796,-2.87245 -0.31928,-4.32006c-0.15673,-0.00024 -0.31311,-0.01368 -0.46754,-0.04009c-0.64916,-0.12056 -1.23826,-0.45765 -1.67111,-0.95635c-0.75667,0.7136 -0.96662,2.07444 -0.45531,3.3169c0.04885,0.11929 0.10388,0.23597 0.16473,0.34963c0.01483,0.02797 0.03148,0.05425 0.04692,0.08174c0.04952,0.08768 0.10128,0.1739 0.15722,0.25656c0.01532,0.02277 0.03136,0.04469 0.04704,0.06697c0.06484,0.09131 0.13276,0.17984 0.20511,0.26382c0.00775,0.00902 0.01532,0.01829 0.02313,0.02719c0.08415,0.09616 0.17363,0.18747 0.26801,0.27357zM28.49905,3.14278c-0.44441,-0.45178 -1.0004,-0.77779 -1.6116,-0.94503c-0.07022,0.01593 -0.14305,0.01677 -0.21364,0.00242c-0.7031,-0.17814 -1.44863,0.01066 -1.98216,0.50209c-0.33599,0.34811 -0.53123,0.80836 -0.548,1.29193c1.09236,0.16827 2.15161,0.50688 3.13905,1.00346c0.16485,0.08362 0.27255,0.24899 0.28235,0.43367c0.00981,0.18468 -0.07973,0.36052 -0.23483,0.46116c-0.1551,0.10064 -0.35215,0.11081 -0.51676,0.02658c-4.71294,-2.40136 -11.49273,-0.59038 -16.48518,4.40314c-4.99196,4.99297 -6.80256,11.77476 -4.4022,16.49173c0.08421,0.16464 0.07404,0.36174 -0.0267,0.51687c-0.10074,0.15513 -0.27666,0.24457 -0.46131,0.23452c-0.1847,-0.01005 -0.34985,-0.11802 -0.43322,-0.28314c-0.1735,-0.34424 -0.32715,-0.69816 -0.46015,-1.05996c-0.2131,0.05183 -0.4314,0.0792 -0.65073,0.0815c-0.42474,-0.0023 -0.84476,-0.08853 -1.23602,-0.25383c-0.17538,-0.07521 -0.34477,-0.16379 -0.50659,-0.26485c-0.11853,1.01164 0.2519,2.01928 0.99744,2.71314c1.23045,1.22968 2.64803,1.70956 3.99301,1.34879c1.95794,-0.52226 6.98217,-4.09432 12.79741,-9.91031c5.81475,-5.81647 9.38605,-10.84178 9.90819,-12.7996c0.36014,-1.34522 -0.1186,-2.76364 -1.34838,-3.99429z" vector-effect="non-scaling-stroke"/></defs></g></svg>