<svg version="1.2" xmlns="http://www.w3.org/2000/svg" xmlns:xlink="http://www.w3.org/1999/xlink" overflow="visible" preserveAspectRatio="none" viewBox="0 0 37.9999999999998 30.99999999999999" width="37.9999999999998" height="30.99999999999999"><g transform="translate(0, 0)"><g transform="translate(0, 0) rotate(0)"><path d="M7.39785,16.98071v-1.86007h1.25424v1.86007zM9.90632,16.98071v-1.86007h1.25424v1.86007zM12.41479,16.98071v-1.86007h1.25424v1.86007zM4.88937,23.80098v-1.24005h5.01695v1.24005zM37.99906,26.66105v0.62002h-1.98368c-0.28411,1.90448 -1.83837,3.40083 -3.81673,3.67434c-2.46149,0.34032 -4.74344,-1.30476 -5.09695,-3.67434h-15.56029c-0.28411,1.90448 -1.83837,3.40083 -3.81673,3.67434c-2.46149,0.34032 -4.74344,-1.30476 -5.09695,-3.67434h-2.62773v-3.72015h0.03285c0.08477,-1.60315 0.5121,-3.17228 1.25526,-4.60926v-3.45106c0,-1.0273 0.86504,-1.86007 1.93216,-1.86007h3.58479c0.50671,-0.24437 1.03056,-0.45448 1.56762,-0.6287v-1.85139c0.01272,-0.69598 0.60823,-1.25074 1.33126,-1.24005h8.92978c0.72303,-0.0107 1.31854,0.54407 1.33126,1.24005v1.86007c0,0.0093 -0.0058,0.01736 -0.0058,0.02604c-0.00209,0.06789 -0.01602,0.13493 -0.04122,0.19841c-0.00322,0.00744 -0.00386,0.01488 -0.00708,0.0217v0.00558l-1.29776,2.80995c-0.73873,1.60369 -0.73873,3.43339 0,5.03708l1.12709,2.44166h6.15585c0.37854,-0.70295 0.88726,-1.33329 1.50128,-1.86007h-0.9912c-1.06711,0 -1.93216,-0.83277 -1.93216,-1.86007v-3.72015c0,-1.0273 0.86504,-1.86007 1.93216,-1.86007h0.42443l-1.64233,-5.27021c-0.3948,-0.20383 -0.7277,-0.50292 -0.96608,-0.86803l-3.47402,0.66777l-0.25247,-1.21587l3.34585,-0.64421c-0.00193,-0.0372 -0.01159,-0.07254 -0.01159,-0.10974c0,-1.36971 1.15342,-2.4801 2.57621,-2.4801h0.64405v-0.98336l-0.64405,-0.62002v0.36333h-1.2881v-3.10012h1.2881v0.98336l1.74345,1.67841c0.12076,0.11625 0.18871,0.2739 0.18871,0.43836v1.24005h2.57621c0.71144,0 1.2881,0.55515 1.2881,1.24005v2.4801c0,0.68489 -0.57667,1.24005 -1.2881,1.24005h-1.7106l2.85444,9.15962l0.55646,1.78629c3.17067,0.60235 5.43829,3.30396 5.38427,6.41477zM29.62638,8.06032h1.2881v-2.4801h-1.2881zM9.66078,12.40049h9.01672v-1.24005h-8.97357zM2.57621,16.97689c0.63222,-0.78348 1.3637,-1.48775 2.17754,-2.0963h-1.53349c-0.35568,0 -0.64405,0.27762 -0.64405,0.62002zM10.24042,27.28108h-2.04744c-0.11319,0.19081 -0.27751,0.349 -0.47571,0.45797c-0.61249,0.33675 -1.3926,0.13168 -1.7424,-0.45797h-2.04615c0.3081,1.44241 1.62615,2.47824 3.15585,2.4801c1.5297,-0.00186 2.84776,-1.03769 3.15585,-2.4801zM12.8411,26.04103c-0.43449,-2.72129 -2.89727,-4.71079 -5.75653,-4.65018c-2.85927,-0.06061 -5.32204,1.9289 -5.75653,4.65018zM13.31319,23.56093h5.01716l-0.89523,-1.9382c-0.88589,-1.9244 -0.88589,-4.1196 0,-6.044l0.89523,-1.9382h-6.09337c-2.17722,-0.00217 -4.30508,0.62421 -6.10883,1.79807l-2.9723,2.86141c-0.94217,1.3484 -1.54564,2.88924 -1.76277,4.50076c1.36974,-1.68275 3.47088,-2.66099 5.69149,-2.64998c2.56083,-0.01938 4.93674,1.28144 6.22862,3.41013zM25.38917,24.80098h-11.51758c0.13139,0.40371 0.21986,0.81913 0.26406,1.24005h11.01329c0.04001,-0.41968 0.12044,-0.83479 0.24023,-1.24005zM26.40612,8.06032h1.93216v-2.4801h-1.93216c-0.71144,0 -1.2881,0.55515 -1.2881,1.24005c0,0.68482 0.57667,1.24005 1.2881,1.24005zM28.30865,14.70264l1.75504,5.63168c0.38651,-0.09246 0.78148,-0.1485 1.17926,-0.16741l-0.42121,-1.34979l-2.96264,-9.51676h-1.23143zM28.76078,20.46081l-1.54572,-4.9602h-0.80893c-0.35568,0 -0.64405,0.27762 -0.64405,0.62002v3.72015c0,0.34241 0.28837,0.62002 0.64405,0.62002zM34.71439,27.28108h-2.04744c-0.11319,0.19081 -0.27751,0.349 -0.47571,0.45797c-0.61249,0.33675 -1.3926,0.13168 -1.7424,-0.45797h-2.04615c0.3081,1.44241 1.62615,2.47824 3.15585,2.4801c1.5297,-0.00186 2.84776,-1.03769 3.15585,-2.4801zM36.67553,26.04103c-0.14878,-2.50312 -2.22391,-4.50091 -4.82411,-4.64414c-2.8261,-0.1557 -5.24814,1.92355 -5.40987,4.64414z" style="stroke-width: 0; stroke-linecap: butt; stroke-linejoin: miter; fill: rgb(131, 49, 167);" vector-effect="non-scaling-stroke"/></g><defs><path id="path-1673538955704183217" d="M7.39785,16.98071v-1.86007h1.25424v1.86007zM9.90632,16.98071v-1.86007h1.25424v1.86007zM12.41479,16.98071v-1.86007h1.25424v1.86007zM4.88937,23.80098v-1.24005h5.01695v1.24005zM37.99906,26.66105v0.62002h-1.98368c-0.28411,1.90448 -1.83837,3.40083 -3.81673,3.67434c-2.46149,0.34032 -4.74344,-1.30476 -5.09695,-3.67434h-15.56029c-0.28411,1.90448 -1.83837,3.40083 -3.81673,3.67434c-2.46149,0.34032 -4.74344,-1.30476 -5.09695,-3.67434h-2.62773v-3.72015h0.03285c0.08477,-1.60315 0.5121,-3.17228 1.25526,-4.60926v-3.45106c0,-1.0273 0.86504,-1.86007 1.93216,-1.86007h3.58479c0.50671,-0.24437 1.03056,-0.45448 1.56762,-0.6287v-1.85139c0.01272,-0.69598 0.60823,-1.25074 1.33126,-1.24005h8.92978c0.72303,-0.0107 1.31854,0.54407 1.33126,1.24005v1.86007c0,0.0093 -0.0058,0.01736 -0.0058,0.02604c-0.00209,0.06789 -0.01602,0.13493 -0.04122,0.19841c-0.00322,0.00744 -0.00386,0.01488 -0.00708,0.0217v0.00558l-1.29776,2.80995c-0.73873,1.60369 -0.73873,3.43339 0,5.03708l1.12709,2.44166h6.15585c0.37854,-0.70295 0.88726,-1.33329 1.50128,-1.86007h-0.9912c-1.06711,0 -1.93216,-0.83277 -1.93216,-1.86007v-3.72015c0,-1.0273 0.86504,-1.86007 1.93216,-1.86007h0.42443l-1.64233,-5.27021c-0.3948,-0.20383 -0.7277,-0.50292 -0.96608,-0.86803l-3.47402,0.66777l-0.25247,-1.21587l3.34585,-0.64421c-0.00193,-0.0372 -0.01159,-0.07254 -0.01159,-0.10974c0,-1.36971 1.15342,-2.4801 2.57621,-2.4801h0.64405v-0.98336l-0.64405,-0.62002v0.36333h-1.2881v-3.10012h1.2881v0.98336l1.74345,1.67841c0.12076,0.11625 0.18871,0.2739 0.18871,0.43836v1.24005h2.57621c0.71144,0 1.2881,0.55515 1.2881,1.24005v2.4801c0,0.68489 -0.57667,1.24005 -1.2881,1.24005h-1.7106l2.85444,9.15962l0.55646,1.78629c3.17067,0.60235 5.43829,3.30396 5.38427,6.41477zM29.62638,8.06032h1.2881v-2.4801h-1.2881zM9.66078,12.40049h9.01672v-1.24005h-8.97357zM2.57621,16.97689c0.63222,-0.78348 1.3637,-1.48775 2.17754,-2.0963h-1.53349c-0.35568,0 -0.64405,0.27762 -0.64405,0.62002zM10.24042,27.28108h-2.04744c-0.11319,0.19081 -0.27751,0.349 -0.47571,0.45797c-0.61249,0.33675 -1.3926,0.13168 -1.7424,-0.45797h-2.04615c0.3081,1.44241 1.62615,2.47824 3.15585,2.4801c1.5297,-0.00186 2.84776,-1.03769 3.15585,-2.4801zM12.8411,26.04103c-0.43449,-2.72129 -2.89727,-4.71079 -5.75653,-4.65018c-2.85927,-0.06061 -5.32204,1.9289 -5.75653,4.65018zM13.31319,23.56093h5.01716l-0.89523,-1.9382c-0.88589,-1.9244 -0.88589,-4.1196 0,-6.044l0.89523,-1.9382h-6.09337c-2.17722,-0.00217 -4.30508,0.62421 -6.10883,1.79807l-2.9723,2.86141c-0.94217,1.3484 -1.54564,2.88924 -1.76277,4.50076c1.36974,-1.68275 3.47088,-2.66099 5.69149,-2.64998c2.56083,-0.01938 4.93674,1.28144 6.22862,3.41013zM25.38917,24.80098h-11.51758c0.13139,0.40371 0.21986,0.81913 0.26406,1.24005h11.01329c0.04001,-0.41968 0.12044,-0.83479 0.24023,-1.24005zM26.40612,8.06032h1.93216v-2.4801h-1.93216c-0.71144,0 -1.2881,0.55515 -1.2881,1.24005c0,0.68482 0.57667,1.24005 1.2881,1.24005zM28.30865,14.70264l1.75504,5.63168c0.38651,-0.09246 0.78148,-0.1485 1.17926,-0.16741l-0.42121,-1.34979l-2.96264,-9.51676h-1.23143zM28.76078,20.46081l-1.54572,-4.9602h-0.80893c-0.35568,0 -0.64405,0.27762 -0.64405,0.62002v3.72015c0,0.34241 0.28837,0.62002 0.64405,0.62002zM34.71439,27.28108h-2.04744c-0.11319,0.19081 -0.27751,0.349 -0.47571,0.45797c-0.61249,0.33675 -1.3926,0.13168 -1.7424,-0.45797h-2.04615c0.3081,1.44241 1.62615,2.47824 3.15585,2.4801c1.5297,-0.00186 2.84776,-1.03769 3.15585,-2.4801zM36.67553,26.04103c-0.14878,-2.50312 -2.22391,-4.50091 -4.82411,-4.64414c-2.8261,-0.1557 -5.24814,1.92355 -5.40987,4.64414z" vector-effect="non-scaling-stroke"/></defs></g></svg>