<svg version="1.2" xmlns="http://www.w3.org/2000/svg" xmlns:xlink="http://www.w3.org/1999/xlink" overflow="visible" preserveAspectRatio="none" viewBox="0 0 32 32" width="32" height="32"><g transform="translate(0, 0)"><g transform="translate(0, 0) rotate(0)"><path d="M32,15.46667v16.53333h-32v-16.53333c0.00973,-8.538 6.92867,-15.45693 15.46667,-15.46667h1.06667c8.538,0.00973 15.457,6.92867 15.46667,15.46667zM30.93333,27.73333h-29.86667v3.2h29.86667zM12.26667,26.66667v-4.8h-7.46667v4.8zM14.4,9.06667v1.06667h3.2v-1.06667zM16.86027,8l-0.86027,-2.58027l-0.86027,2.58027zM12.26667,11.2v5.33333h7.46667v-5.33333zM19.73333,26.66667h7.46667v-4.8h-7.46667zM14.4,25.6v-3.73333h-1.06667v4.8h5.33333v-4.8h-1.06667v3.73333h-1.06667v-3.73333h-1.06667v3.73333zM18.66667,20.8v-3.2h-5.33333v3.2h1.06667v-2.13333h1.06667v2.13333h1.06667v-2.13333h1.06667v2.13333zM30.93333,15.46667c-0.0088,-7.94927 -6.45073,-14.3912 -14.4,-14.4h-1.06667c-7.94927,0.0088 -14.3912,6.45073 -14.4,14.4v11.2h2.66667v-4.8h-1.06667v-1.06667h1.06667v-1.06667h1.06667v1.06667h1.06667v-1.06667h1.06667v1.06667h1.06667v-1.06667h1.06667v1.06667h1.06667v-1.06667h1.06667v1.06667h1.06667v-3.2h-1.06667v-7.46667h2.13333v-2.13333h0.68213l1.47733,-4.4352c0.05293,-0.161 0.17913,-0.2872 0.34013,-0.34013c0.2798,-0.092 0.5812,0.06033 0.6732,0.34013l1.4784,4.4352h0.68213v2.13333h2.13333v7.46667h-1.06667v3.2h1.06667v-1.06667h1.06667v1.06667h1.06667v-1.06667h1.06667v1.06667h1.06667v-1.06667h1.06667v1.06667h1.06667v-1.06667h1.06667v1.06667h1.06667v1.06667h-1.06667v4.8h2.66667zM14,14c0,-1.10457 0.89543,-2 2,-2c1.10457,0 2,0.89543 2,2c0,1.10457 -0.89543,2 -2,2c-1.10457,0 -2,-0.89543 -2,-2zM15.14286,14c0,0.47336 0.38379,0.85714 0.85714,0.85714c0.47336,0 0.85714,-0.38379 0.85714,-0.85714c0,-0.47336 -0.38379,-0.85714 -0.85714,-0.85714c-0.47336,0 -0.85714,0.38379 -0.85714,0.85714zM13.41667,29.43333v-1.03333h4.65v1.03333zM8.25,25.3v-2.58333h1.03333v2.58333zM6.18333,25.3v-2.58333h1.03333v2.58333zM10.31667,25.3v-2.58333h1.03333v2.58333zM20.65,25.3v-2.58333h1.03333v2.58333zM22.71667,25.3v-2.58333h1.03333v2.58333zM24.78333,25.3v-2.58333h1.03333v2.58333zM10.31667,8.25v-1.03333h1.03333v1.03333zM9.28333,5.66667v-1.03333h1.03333v1.03333zM4.11667,11.35v-1.03333h1.03333v1.03333zM7.21667,10.83333v-1.03333h1.03333v1.03333zM22.71667,9.8v-1.03333h1.03333v1.03333zM23.75,13.41667v-1.03333h1.03333v1.03333zM17.55,3.6v-1.03333h1.03333v1.03333zM20.13333,8.25v-1.03333h1.03333v1.03333zM6.18333,7.21667v-1.03333h1.03333v1.03333zM27.36667,13.93333v-1.03333h1.03333v1.03333zM6.18333,14.96667v-1.03333h1.03333v1.03333zM25.3,8.25v-1.03333h1.03333v1.03333zM22.2,5.66667v-1.03333h1.03333v1.03333z" style="stroke-width: 0; stroke-linecap: butt; stroke-linejoin: miter; fill: rgb(131, 49, 167);" vector-effect="non-scaling-stroke"/></g><defs><path id="path-1673538955704183215" d="M32,15.46667v16.53333h-32v-16.53333c0.00973,-8.538 6.92867,-15.45693 15.46667,-15.46667h1.06667c8.538,0.00973 15.457,6.92867 15.46667,15.46667zM30.93333,27.73333h-29.86667v3.2h29.86667zM12.26667,26.66667v-4.8h-7.46667v4.8zM14.4,9.06667v1.06667h3.2v-1.06667zM16.86027,8l-0.86027,-2.58027l-0.86027,2.58027zM12.26667,11.2v5.33333h7.46667v-5.33333zM19.73333,26.66667h7.46667v-4.8h-7.46667zM14.4,25.6v-3.73333h-1.06667v4.8h5.33333v-4.8h-1.06667v3.73333h-1.06667v-3.73333h-1.06667v3.73333zM18.66667,20.8v-3.2h-5.33333v3.2h1.06667v-2.13333h1.06667v2.13333h1.06667v-2.13333h1.06667v2.13333zM30.93333,15.46667c-0.0088,-7.94927 -6.45073,-14.3912 -14.4,-14.4h-1.06667c-7.94927,0.0088 -14.3912,6.45073 -14.4,14.4v11.2h2.66667v-4.8h-1.06667v-1.06667h1.06667v-1.06667h1.06667v1.06667h1.06667v-1.06667h1.06667v1.06667h1.06667v-1.06667h1.06667v1.06667h1.06667v-1.06667h1.06667v1.06667h1.06667v-3.2h-1.06667v-7.46667h2.13333v-2.13333h0.68213l1.47733,-4.4352c0.05293,-0.161 0.17913,-0.2872 0.34013,-0.34013c0.2798,-0.092 0.5812,0.06033 0.6732,0.34013l1.4784,4.4352h0.68213v2.13333h2.13333v7.46667h-1.06667v3.2h1.06667v-1.06667h1.06667v1.06667h1.06667v-1.06667h1.06667v1.06667h1.06667v-1.06667h1.06667v1.06667h1.06667v-1.06667h1.06667v1.06667h1.06667v1.06667h-1.06667v4.8h2.66667zM14,14c0,-1.10457 0.89543,-2 2,-2c1.10457,0 2,0.89543 2,2c0,1.10457 -0.89543,2 -2,2c-1.10457,0 -2,-0.89543 -2,-2zM15.14286,14c0,0.47336 0.38379,0.85714 0.85714,0.85714c0.47336,0 0.85714,-0.38379 0.85714,-0.85714c0,-0.47336 -0.38379,-0.85714 -0.85714,-0.85714c-0.47336,0 -0.85714,0.38379 -0.85714,0.85714zM13.41667,29.43333v-1.03333h4.65v1.03333zM8.25,25.3v-2.58333h1.03333v2.58333zM6.18333,25.3v-2.58333h1.03333v2.58333zM10.31667,25.3v-2.58333h1.03333v2.58333zM20.65,25.3v-2.58333h1.03333v2.58333zM22.71667,25.3v-2.58333h1.03333v2.58333zM24.78333,25.3v-2.58333h1.03333v2.58333zM10.31667,8.25v-1.03333h1.03333v1.03333zM9.28333,5.66667v-1.03333h1.03333v1.03333zM4.11667,11.35v-1.03333h1.03333v1.03333zM7.21667,10.83333v-1.03333h1.03333v1.03333zM22.71667,9.8v-1.03333h1.03333v1.03333zM23.75,13.41667v-1.03333h1.03333v1.03333zM17.55,3.6v-1.03333h1.03333v1.03333zM20.13333,8.25v-1.03333h1.03333v1.03333zM6.18333,7.21667v-1.03333h1.03333v1.03333zM27.36667,13.93333v-1.03333h1.03333v1.03333zM6.18333,14.96667v-1.03333h1.03333v1.03333zM25.3,8.25v-1.03333h1.03333v1.03333zM22.2,5.66667v-1.03333h1.03333v1.03333z" vector-effect="non-scaling-stroke"/></defs></g></svg>