<svg version="1.2" xmlns="http://www.w3.org/2000/svg" xmlns:xlink="http://www.w3.org/1999/xlink" overflow="visible" preserveAspectRatio="none" viewBox="0 0 29 32" width="29" height="32"><g transform="translate(0, 0)"><g transform="translate(0, 0) rotate(0)"><path d="M6.62281,29.43333v-1.03333h1.01754v1.03333zM8.65789,29.43333v-1.03333h1.01754v1.03333zM10.69298,29.43333v-1.03333h1.01754v1.03333zM12.72807,29.43333v-1.03333h1.01754v1.03333zM14.76316,29.43333v-1.03333h1.01754v1.03333zM16.79825,29.43333v-1.03333h1.01754v1.03333zM18.83333,29.43333v-1.03333h1.01754v1.03333zM29,16.3808v1.37173c-0.04305,0.84013 -0.72462,1.48647 -1.52632,1.44747v8.53333c0,0.88367 -0.68334,1.6 -1.52632,1.6h-3.5614c-0.00165,1.472 -1.13965,2.66493 -2.54386,2.66667h-12.21053c-1.40421,-0.00173 -2.54221,-1.19467 -2.54386,-2.66667h-3.5614c-0.84297,0 -1.52632,-0.71633 -1.52632,-1.6v-8.53333c0.00165,-1.472 1.13965,-2.66493 2.54386,-2.66667h2.54386v-8c-0.00013,-1.00433 0.38705,-1.96607 1.07351,-2.66667h-2.09105c-0.84297,0 -1.52632,-0.71633 -1.52632,-1.6v-2.66667c0,-0.88367 0.68334,-1.6 1.52632,-1.6h19.33333c0.84297,0 1.52632,0.71633 1.52632,1.6v2.66667c0,0.88367 -0.68334,1.6 -1.52632,1.6h-2.09105c0.68646,0.7006 1.07364,1.66233 1.07351,2.66667v5.088c0.2996,-0.28333 0.64989,-0.5014 1.03064,-0.64147c1.58578,-0.5834 3.32247,0.29113 3.879,1.95347h0.17807c0.8017,-0.039 1.48326,0.60733 1.52632,1.44747zM5.08772,20.8h-4.07018v6.93333c0,0.29453 0.2278,0.53333 0.50877,0.53333h3.5614zM5.08772,17.6h-2.54386c-0.84297,0 -1.52632,0.71633 -1.52632,1.6v0.53333h4.07018zM19.33333,4.8h4.07018c0.28097,0 0.50877,-0.2388 0.50877,-0.53333v-2.66667c0,-0.29453 -0.2278,-0.53333 -0.50877,-0.53333h-4.07018zM17.29825,4.8h1.01754v-3.73333h-1.01754zM11.19298,4.8h5.08772v-3.73333h-5.08772zM9.15789,4.8h1.01754v-3.73333h-1.01754zM8.14035,4.8v-3.73333h-4.07018c-0.28097,0 -0.50877,0.2388 -0.50877,0.53333v2.66667c0,0.29453 0.2278,0.53333 0.50877,0.53333zM21.36842,27.73333h-15.26316v1.6c0,0.88367 0.68334,1.6 1.52632,1.6h12.21053c0.84297,0 1.52632,-0.71633 1.52632,-1.6zM21.36842,22.4h-10.17544v1.06667c0,0.88367 -0.68334,1.6 -1.52632,1.6c-0.84297,0 -1.52632,-0.71633 -1.52632,-1.6v-1.06667h-2.03509v4.26667h15.26316zM9.66667,24c0.28097,0 0.50877,-0.2388 0.50877,-0.53333v-1.06667h-1.01754v1.06667c0,0.29453 0.2278,0.53333 0.50877,0.53333zM21.36842,19.2h-15.26316v2.13333h15.26316zM21.36842,12.0768c-0.53256,0.6904 -1.23689,1.21293 -2.03509,1.50987v2.41333h-3.05263v-2.13333h-5.08772v2.13333h-3.05263v-2.41333c-0.7982,-0.29693 -1.50253,-0.81947 -2.03509,-1.50987v6.05653h15.26316zM9.15789,13.8352v1.09813h1.01754v-1.06667h-0.50877c-0.16999,-0.00053 -0.33986,-0.011 -0.50877,-0.03147zM9.66667,12.8h0.50877v-1.06667h-1.01754v1.024c0.1684,0.02693 0.3384,0.0412 0.50877,0.04267zM17.29825,13.86667v1.06667h1.01754v-1.09813c-0.16891,0.02047 -0.33878,0.03093 -0.50877,0.03147zM17.80702,12.8c0.17038,-0.00147 0.34037,-0.01573 0.50877,-0.04267v-1.024h-1.01754v1.06667zM21.36842,8.53333c-0.00165,-1.472 -1.13965,-2.66493 -2.54386,-2.66667h-10.17544c-1.40421,0.00173 -2.54221,1.19467 -2.54386,2.66667v0.53333c0.00184,1.4402 0.79381,2.7508 2.03509,3.368v-1.768h3.05263v2.13333h5.08772v-2.13333h3.05263v1.768c1.24128,-0.6172 2.03324,-1.9278 2.03509,-3.368zM26.45614,20.8h-4.07018v7.46667h3.5614c0.28097,0 0.50877,-0.2388 0.50877,-0.53333zM26.45614,17.6h-4.07018v2.13333h4.07018zM26.45614,16c0,-1.1782 -0.91115,-2.13333 -2.03509,-2.13333c-1.12394,0 -2.03509,0.95513 -2.03509,2.13333v0.53333h4.07018zM27.98246,16.3808c0,-0.2064 -0.23302,-0.3808 -0.50877,-0.3808v2.13333c0.27575,0 0.50877,-0.1744 0.50877,-0.3808z" style="stroke-width: 0; stroke-linecap: butt; stroke-linejoin: miter; fill: rgb(131, 49, 167);" vector-effect="non-scaling-stroke"/></g><defs><path id="path-1673538955703183207" d="M6.62281,29.43333v-1.03333h1.01754v1.03333zM8.65789,29.43333v-1.03333h1.01754v1.03333zM10.69298,29.43333v-1.03333h1.01754v1.03333zM12.72807,29.43333v-1.03333h1.01754v1.03333zM14.76316,29.43333v-1.03333h1.01754v1.03333zM16.79825,29.43333v-1.03333h1.01754v1.03333zM18.83333,29.43333v-1.03333h1.01754v1.03333zM29,16.3808v1.37173c-0.04305,0.84013 -0.72462,1.48647 -1.52632,1.44747v8.53333c0,0.88367 -0.68334,1.6 -1.52632,1.6h-3.5614c-0.00165,1.472 -1.13965,2.66493 -2.54386,2.66667h-12.21053c-1.40421,-0.00173 -2.54221,-1.19467 -2.54386,-2.66667h-3.5614c-0.84297,0 -1.52632,-0.71633 -1.52632,-1.6v-8.53333c0.00165,-1.472 1.13965,-2.66493 2.54386,-2.66667h2.54386v-8c-0.00013,-1.00433 0.38705,-1.96607 1.07351,-2.66667h-2.09105c-0.84297,0 -1.52632,-0.71633 -1.52632,-1.6v-2.66667c0,-0.88367 0.68334,-1.6 1.52632,-1.6h19.33333c0.84297,0 1.52632,0.71633 1.52632,1.6v2.66667c0,0.88367 -0.68334,1.6 -1.52632,1.6h-2.09105c0.68646,0.7006 1.07364,1.66233 1.07351,2.66667v5.088c0.2996,-0.28333 0.64989,-0.5014 1.03064,-0.64147c1.58578,-0.5834 3.32247,0.29113 3.879,1.95347h0.17807c0.8017,-0.039 1.48326,0.60733 1.52632,1.44747zM5.08772,20.8h-4.07018v6.93333c0,0.29453 0.2278,0.53333 0.50877,0.53333h3.5614zM5.08772,17.6h-2.54386c-0.84297,0 -1.52632,0.71633 -1.52632,1.6v0.53333h4.07018zM19.33333,4.8h4.07018c0.28097,0 0.50877,-0.2388 0.50877,-0.53333v-2.66667c0,-0.29453 -0.2278,-0.53333 -0.50877,-0.53333h-4.07018zM17.29825,4.8h1.01754v-3.73333h-1.01754zM11.19298,4.8h5.08772v-3.73333h-5.08772zM9.15789,4.8h1.01754v-3.73333h-1.01754zM8.14035,4.8v-3.73333h-4.07018c-0.28097,0 -0.50877,0.2388 -0.50877,0.53333v2.66667c0,0.29453 0.2278,0.53333 0.50877,0.53333zM21.36842,27.73333h-15.26316v1.6c0,0.88367 0.68334,1.6 1.52632,1.6h12.21053c0.84297,0 1.52632,-0.71633 1.52632,-1.6zM21.36842,22.4h-10.17544v1.06667c0,0.88367 -0.68334,1.6 -1.52632,1.6c-0.84297,0 -1.52632,-0.71633 -1.52632,-1.6v-1.06667h-2.03509v4.26667h15.26316zM9.66667,24c0.28097,0 0.50877,-0.2388 0.50877,-0.53333v-1.06667h-1.01754v1.06667c0,0.29453 0.2278,0.53333 0.50877,0.53333zM21.36842,19.2h-15.26316v2.13333h15.26316zM21.36842,12.0768c-0.53256,0.6904 -1.23689,1.21293 -2.03509,1.50987v2.41333h-3.05263v-2.13333h-5.08772v2.13333h-3.05263v-2.41333c-0.7982,-0.29693 -1.50253,-0.81947 -2.03509,-1.50987v6.05653h15.26316zM9.15789,13.8352v1.09813h1.01754v-1.06667h-0.50877c-0.16999,-0.00053 -0.33986,-0.011 -0.50877,-0.03147zM9.66667,12.8h0.50877v-1.06667h-1.01754v1.024c0.1684,0.02693 0.3384,0.0412 0.50877,0.04267zM17.29825,13.86667v1.06667h1.01754v-1.09813c-0.16891,0.02047 -0.33878,0.03093 -0.50877,0.03147zM17.80702,12.8c0.17038,-0.00147 0.34037,-0.01573 0.50877,-0.04267v-1.024h-1.01754v1.06667zM21.36842,8.53333c-0.00165,-1.472 -1.13965,-2.66493 -2.54386,-2.66667h-10.17544c-1.40421,0.00173 -2.54221,1.19467 -2.54386,2.66667v0.53333c0.00184,1.4402 0.79381,2.7508 2.03509,3.368v-1.768h3.05263v2.13333h5.08772v-2.13333h3.05263v1.768c1.24128,-0.6172 2.03324,-1.9278 2.03509,-3.368zM26.45614,20.8h-4.07018v7.46667h3.5614c0.28097,0 0.50877,-0.2388 0.50877,-0.53333zM26.45614,17.6h-4.07018v2.13333h4.07018zM26.45614,16c0,-1.1782 -0.91115,-2.13333 -2.03509,-2.13333c-1.12394,0 -2.03509,0.95513 -2.03509,2.13333v0.53333h4.07018zM27.98246,16.3808c0,-0.2064 -0.23302,-0.3808 -0.50877,-0.3808v2.13333c0.27575,0 0.50877,-0.1744 0.50877,-0.3808z" vector-effect="non-scaling-stroke"/></defs></g></svg>