<svg version="1.2" xmlns="http://www.w3.org/2000/svg" xmlns:xlink="http://www.w3.org/1999/xlink" overflow="visible" preserveAspectRatio="none" viewBox="0 0 24 24" width="26" height="26"><g><path xmlns:default="http://www.w3.org/2000/svg" id="th-large" d="M10.94,13.07c-0.24-0.26-0.58-0.4-0.94-0.4H4.67c-0.73,0.01-1.32,0.61-1.33,1.34v4  c0.01,0.73,0.6,1.32,1.33,1.33H10c0.73-0.01,1.32-0.6,1.33-1.33v-4C11.34,13.65,11.19,13.31,10.94,13.07z M10.94,5.07  c-0.25-0.25-0.59-0.4-0.94-0.39H4.67c-0.73,0.01-1.32,0.6-1.33,1.33v4c0.01,0.73,0.6,1.32,1.33,1.33H10  c0.73-0.01,1.32-0.6,1.33-1.33v-4C11.33,5.65,11.19,5.32,10.94,5.07L10.94,5.07z M20.27,13.07c-0.24-0.26-0.58-0.4-0.94-0.4H14  c-0.73,0.01-1.32,0.61-1.33,1.34v4c0.01,0.73,0.6,1.32,1.33,1.33h5.33c0.73-0.01,1.32-0.6,1.33-1.33v-4  C20.67,13.65,20.52,13.31,20.27,13.07z M20.27,5.07c-0.24-0.26-0.58-0.4-0.94-0.4H14c-0.73,0.01-1.32,0.61-1.33,1.34v4  c0.01,0.73,0.6,1.32,1.33,1.33h5.33c0.73-0.01,1.32-0.6,1.33-1.33v-4C20.66,5.65,20.52,5.32,20.27,5.07L20.27,5.07z" style="fill: rgb(255, 255, 255);" vector-effect="non-scaling-stroke"/></g></svg>