<svg version="1.2" xmlns="http://www.w3.org/2000/svg" xmlns:xlink="http://www.w3.org/1999/xlink" overflow="visible" preserveAspectRatio="none" viewBox="0 0 24 24" width="30" height="30"><g><path xmlns:default="http://www.w3.org/2000/svg" id="bars" d="M19.8,16.2c-0.12-0.13-0.29-0.2-0.47-0.2H4.67C4.3,16,4.01,16.3,4,16.67V18c0.01,0.37,0.3,0.66,0.67,0.67h14.66  c0.37-0.01,0.66-0.3,0.67-0.67v-1.34C20,16.48,19.93,16.31,19.8,16.2z M19.8,10.87c-0.12-0.13-0.29-0.2-0.47-0.2H4.67  C4.3,10.67,4.01,10.97,4,11.34v1.33c0.01,0.37,0.3,0.66,0.67,0.67h14.66c0.37-0.01,0.66-0.3,0.67-0.67v-1.34  C20,11.15,19.93,10.98,19.8,10.87z M19.8,5.54c-0.12-0.13-0.29-0.2-0.47-0.2H4.67C4.31,5.34,4.01,5.63,4,6v1.34  C4.01,7.7,4.31,7.99,4.67,8h14.66c0.36-0.01,0.66-0.3,0.67-0.66V6c0-0.18-0.07-0.35-0.2-0.47V5.54z" style="fill: rgb(223, 22, 131);" vector-effect="non-scaling-stroke"/></g></svg>