<svg version="1.2" xmlns="http://www.w3.org/2000/svg" xmlns:xlink="http://www.w3.org/1999/xlink" overflow="visible" preserveAspectRatio="none" viewBox="0 0 40.00000361777231 41" width="40.00000361777231" height="41"><g transform="translate(0, 0)"><g transform="translate(-0.000006382227693699921, -0.000010000000004450893) rotate(0)"><path d="M7.20286,17.42513c0.04349,0.03472 0.09155,0.06444 0.14289,0.0879l1.23989,6.52668c0.06213,0.32375 0.35607,0.55898 0.70005,0.56023h0.71444v1.36665h-0.71444c-0.35379,0 -0.65395,0.24774 -0.70659,0.58213l-2.14266,13.66677c-0.05853,0.37318 0.21057,0.72102 0.60065,0.77701c0.03499,0.005 0.0703,0.00751 0.10561,0.00751h22.85746c0.39433,0 0.71411,-0.30592 0.71411,-0.68348c0,-0.03378 -0.00262,-0.06757 -0.00785,-0.10104l-2.14299,-13.66646c-0.05232,-0.3347 -0.35248,-0.58244 -0.70626,-0.58244h-0.71444v-1.36665h0.71444c0.34528,0.00031 0.6412,-0.23617 0.70267,-0.56086l1.97165,-10.37231h3.75432v7.51671c0,1.5096 1.27912,2.73329 2.8571,2.73329c1.57798,0 2.8571,-1.22369 2.8571,-2.73329v-9.56683c0,-0.14796 -0.05003,-0.29185 -0.14289,-0.41009l-2.14299,-2.73329c-0.13471,-0.17204 -0.34659,-0.27339 -0.57122,-0.27339h-6.11278l-3.6886,-3.87628c-0.13537,-0.14233 -0.32697,-0.22334 -0.52806,-0.22366h-5.97055l0.5758,-3.30385c0.06507,-0.37224 -0.19782,-0.72446 -0.58692,-0.7867c-0.03858,-0.00626 -0.07815,-0.00938 -0.11738,-0.00938h-4.28598c-0.39433,0 -0.71411,0.30624 -0.71378,0.68348c0,0.03785 0.00327,0.07539 0.00948,0.11261l0.5758,3.30385h-5.97055c-0.20109,0.00031 -0.3927,0.08133 -0.52806,0.22334l-3.6886,3.87659h-3.25568c-0.14093,0.00031 -0.27891,0.04035 -0.39629,0.1148l-2.14299,1.36665c-0.32796,0.20958 -0.41657,0.63406 -0.19749,0.9478c0.02583,0.03754 0.05591,0.07226 0.08894,0.10385zM31.31066,9.56652h5.47518l1.78561,2.27785v9.33911c0,0.7548 -0.63956,1.36665 -1.42855,1.36665c-0.78899,0 -1.42855,-0.61185 -1.42855,-1.36665v-8.20019c0,-0.37724 -0.31978,-0.68317 -0.71444,-0.68317h-4.20914zM14.28577,39.63335h-6.31354l1.92849,-12.30013h4.38505zM11.42867,25.96658v-1.36665h14.2855v1.36665zM21.42852,39.63335h-5.7142v-12.30013h5.7142zM27.24212,27.33323l1.92849,12.30013h-6.31354v-12.30013zM27.26141,23.23329h-4.40434v-13.66677h7.00019zM26.49989,5.46658l2.6001,2.73329h-6.44205l-0.95215,-2.73329zM19.87082,1.36665l-0.47575,2.73329h-1.6473l-0.47575,-2.73329zM16.94211,5.46658h3.25568l0.9528,2.73329h-5.15998zM15.71432,9.56652h5.7142v13.66677h-5.7142zM10.64295,5.46658h4.79213l-0.95215,2.73329h-6.43779zM14.28577,9.56652v13.66677h-4.40434l-2.59585,-13.66677zM3.07154,9.56652h2.75835l1.07149,5.63894l-5.07137,-4.85161zM3.57154,10.06652v0c-1,-1 -1,-1 -1,-1v0z" style="stroke-width: 0; stroke-linecap: butt; stroke-linejoin: miter; fill: rgb(138, 138, 138);" vector-effect="non-scaling-stroke"/></g><defs><path id="path-1676997203261223034" d="M7.20286,17.42513c0.04349,0.03472 0.09155,0.06444 0.14289,0.0879l1.23989,6.52668c0.06213,0.32375 0.35607,0.55898 0.70005,0.56023h0.71444v1.36665h-0.71444c-0.35379,0 -0.65395,0.24774 -0.70659,0.58213l-2.14266,13.66677c-0.05853,0.37318 0.21057,0.72102 0.60065,0.77701c0.03499,0.005 0.0703,0.00751 0.10561,0.00751h22.85746c0.39433,0 0.71411,-0.30592 0.71411,-0.68348c0,-0.03378 -0.00262,-0.06757 -0.00785,-0.10104l-2.14299,-13.66646c-0.05232,-0.3347 -0.35248,-0.58244 -0.70626,-0.58244h-0.71444v-1.36665h0.71444c0.34528,0.00031 0.6412,-0.23617 0.70267,-0.56086l1.97165,-10.37231h3.75432v7.51671c0,1.5096 1.27912,2.73329 2.8571,2.73329c1.57798,0 2.8571,-1.22369 2.8571,-2.73329v-9.56683c0,-0.14796 -0.05003,-0.29185 -0.14289,-0.41009l-2.14299,-2.73329c-0.13471,-0.17204 -0.34659,-0.27339 -0.57122,-0.27339h-6.11278l-3.6886,-3.87628c-0.13537,-0.14233 -0.32697,-0.22334 -0.52806,-0.22366h-5.97055l0.5758,-3.30385c0.06507,-0.37224 -0.19782,-0.72446 -0.58692,-0.7867c-0.03858,-0.00626 -0.07815,-0.00938 -0.11738,-0.00938h-4.28598c-0.39433,0 -0.71411,0.30624 -0.71378,0.68348c0,0.03785 0.00327,0.07539 0.00948,0.11261l0.5758,3.30385h-5.97055c-0.20109,0.00031 -0.3927,0.08133 -0.52806,0.22334l-3.6886,3.87659h-3.25568c-0.14093,0.00031 -0.27891,0.04035 -0.39629,0.1148l-2.14299,1.36665c-0.32796,0.20958 -0.41657,0.63406 -0.19749,0.9478c0.02583,0.03754 0.05591,0.07226 0.08894,0.10385zM31.31066,9.56652h5.47518l1.78561,2.27785v9.33911c0,0.7548 -0.63956,1.36665 -1.42855,1.36665c-0.78899,0 -1.42855,-0.61185 -1.42855,-1.36665v-8.20019c0,-0.37724 -0.31978,-0.68317 -0.71444,-0.68317h-4.20914zM14.28577,39.63335h-6.31354l1.92849,-12.30013h4.38505zM11.42867,25.96658v-1.36665h14.2855v1.36665zM21.42852,39.63335h-5.7142v-12.30013h5.7142zM27.24212,27.33323l1.92849,12.30013h-6.31354v-12.30013zM27.26141,23.23329h-4.40434v-13.66677h7.00019zM26.49989,5.46658l2.6001,2.73329h-6.44205l-0.95215,-2.73329zM19.87082,1.36665l-0.47575,2.73329h-1.6473l-0.47575,-2.73329zM16.94211,5.46658h3.25568l0.9528,2.73329h-5.15998zM15.71432,9.56652h5.7142v13.66677h-5.7142zM10.64295,5.46658h4.79213l-0.95215,2.73329h-6.43779zM14.28577,9.56652v13.66677h-4.40434l-2.59585,-13.66677zM3.07154,9.56652h2.75835l1.07149,5.63894l-5.07137,-4.85161zM3.57154,10.06652v0c-1,-1 -1,-1 -1,-1v0z" vector-effect="non-scaling-stroke"/></defs></g></svg>