<svg version="1.2" xmlns="http://www.w3.org/2000/svg" xmlns:xlink="http://www.w3.org/1999/xlink" overflow="visible" preserveAspectRatio="none" viewBox="0 0 46.00001000000001 40.00000584470847" width="46.00001000000001" height="40.00000584470847"><g transform="translate(0, 0)"><g transform="translate(4.884981308350689e-15, 0.000005844708464992476) rotate(0)"><path d="M46,27.01743v10.94791c0,1.59755 -0.44063,2.03466 -2.02763,2.03466h-41.94474c-1.587,0 -2.02763,-0.43711 -2.02763,-2.03466v-27.84774c0,-1.59755 0.44063,-2.03466 2.02763,-2.03466l16.65987,0.12278c0.7935,0 1.07434,0.32087 1.07434,1.11965c0,0.79877 -0.40189,1.2015 -1.19539,1.2015l-16.65987,-0.1637l0.11097,6.72952l16.66996,0.20463c0.7935,0 0.67083,0.23902 0.67083,1.03779c0,0.79877 0.12267,0.95594 -0.67083,0.95594l-16.65987,-0.1637v18.838h41.94474v-11.11161c0,-0.79877 0.03874,-0.75131 0.83224,-0.75131c0.7935,0 1.19539,0.11624 1.19539,0.91502zM14.1329,26.89465c0,0.79877 -0.32119,1.24242 -1.11469,1.24242h-5.75c-0.7935,0 -1.21557,-0.42337 -1.21557,-1.22214c0,-0.79877 0.42207,-0.81252 1.21557,-0.81252h5.75c0.7935,0 1.11469,-0.00654 1.11469,0.79224zM45.99193,5.30363v5.91354c0,8.14591 -2.29944,11.94259 -10.37581,16.58768c-0.22746,0.1301 -0.48151,0.19515 -0.73556,0.19515c-0.25405,0 -0.5081,-0.06505 -0.73556,-0.19515c-8.07637,-4.65692 -10.12705,-8.53689 -10.12705,-16.67097v-5.91354c0,-0.59135 -0.14599,-0.50188 0.3946,-0.73546l10.33917,-4.43516c0.37516,-0.15671 0.08686,0.09315 0.46202,0.24986l10.33917,4.43516c0.54355,0.23358 0.43901,-0.02247 0.43901,0.56889zM43.86709,6.4043l-8.86215,-3.80241l-8.86215,3.80241v4.93781c0,6.81832 2.25689,10.57637 8.86215,14.54732c6.60525,-3.96207 8.86215,-7.72013 8.86215,-14.54732zM39.53312,10.55573l-5.75,7.23528c-0.276,0.34729 -0.24614,0.13483 -0.68027,0.13483c-0.01725,0 -0.0806,0.40926 -0.10073,0.40926c-0.46,-0.02315 -1.28326,-1.28362 -1.53913,-1.66854l-2.47149,-3.31801c-0.43988,-0.66275 -0.25875,-1.56282 0.39963,-2.00562c0.65263,-0.4399 1.62745,1.00534 2.07308,1.67099l1.62685,2.44597l5.24582,-6.54927c0.50025,-0.62223 0.75739,-0.88144 1.37551,-0.38944c0.621,0.50068 0.31524,1.40943 -0.17926,2.03456z" style="stroke-width: 0; stroke-linecap: butt; stroke-linejoin: miter; fill: rgb(0, 0, 0);" vector-effect="non-scaling-stroke"/></g><defs><path id="path-1671061844697212445" d="M46,27.01743v10.94791c0,1.59755 -0.44063,2.03466 -2.02763,2.03466h-41.94474c-1.587,0 -2.02763,-0.43711 -2.02763,-2.03466v-27.84774c0,-1.59755 0.44063,-2.03466 2.02763,-2.03466l16.65987,0.12278c0.7935,0 1.07434,0.32087 1.07434,1.11965c0,0.79877 -0.40189,1.2015 -1.19539,1.2015l-16.65987,-0.1637l0.11097,6.72952l16.66996,0.20463c0.7935,0 0.67083,0.23902 0.67083,1.03779c0,0.79877 0.12267,0.95594 -0.67083,0.95594l-16.65987,-0.1637v18.838h41.94474v-11.11161c0,-0.79877 0.03874,-0.75131 0.83224,-0.75131c0.7935,0 1.19539,0.11624 1.19539,0.91502zM14.1329,26.89465c0,0.79877 -0.32119,1.24242 -1.11469,1.24242h-5.75c-0.7935,0 -1.21557,-0.42337 -1.21557,-1.22214c0,-0.79877 0.42207,-0.81252 1.21557,-0.81252h5.75c0.7935,0 1.11469,-0.00654 1.11469,0.79224zM45.99193,5.30363v5.91354c0,8.14591 -2.29944,11.94259 -10.37581,16.58768c-0.22746,0.1301 -0.48151,0.19515 -0.73556,0.19515c-0.25405,0 -0.5081,-0.06505 -0.73556,-0.19515c-8.07637,-4.65692 -10.12705,-8.53689 -10.12705,-16.67097v-5.91354c0,-0.59135 -0.14599,-0.50188 0.3946,-0.73546l10.33917,-4.43516c0.37516,-0.15671 0.08686,0.09315 0.46202,0.24986l10.33917,4.43516c0.54355,0.23358 0.43901,-0.02247 0.43901,0.56889zM43.86709,6.4043l-8.86215,-3.80241l-8.86215,3.80241v4.93781c0,6.81832 2.25689,10.57637 8.86215,14.54732c6.60525,-3.96207 8.86215,-7.72013 8.86215,-14.54732zM39.53312,10.55573l-5.75,7.23528c-0.276,0.34729 -0.24614,0.13483 -0.68027,0.13483c-0.01725,0 -0.0806,0.40926 -0.10073,0.40926c-0.46,-0.02315 -1.28326,-1.28362 -1.53913,-1.66854l-2.47149,-3.31801c-0.43988,-0.66275 -0.25875,-1.56282 0.39963,-2.00562c0.65263,-0.4399 1.62745,1.00534 2.07308,1.67099l1.62685,2.44597l5.24582,-6.54927c0.50025,-0.62223 0.75739,-0.88144 1.37551,-0.38944c0.621,0.50068 0.31524,1.40943 -0.17926,2.03456z" vector-effect="non-scaling-stroke"/></defs></g></svg>