<svg version="1.2" xmlns="http://www.w3.org/2000/svg" xmlns:xlink="http://www.w3.org/1999/xlink" overflow="visible" preserveAspectRatio="none" viewBox="0 0 15 15" width="15" height="15"><g transform="translate(0, 0)"><defs><path id="path-167140966881158" d="M19.77830832196453 11.255115961800819 C19.77830832196453 10.692360163710779 19.31787175989086 10.231923601637108 18.75511596180082 10.231923601637108 C18.75511596180082 10.231923601637108 14.324693042291953 10.231923601637108 14.324693042291953 10.231923601637108 C14.324693042291953 10.231923601637108 14.324693042291953 5.801500682128241 14.324693042291953 5.801500682128241 C14.324693042291953 5.2387448840382 13.864256480218282 4.77830832196453 13.301500682128243 4.77830832196453 C13.301500682128243 4.77830832196453 11.255115961800819 4.77830832196453 11.255115961800819 4.77830832196453 C10.692360163710779 4.77830832196453 10.231923601637108 5.2387448840382 10.231923601637108 5.801500682128241 C10.231923601637108 5.801500682128241 10.231923601637108 10.231923601637108 10.231923601637108 10.231923601637108 C10.231923601637108 10.231923601637108 5.801500682128241 10.231923601637108 5.801500682128241 10.231923601637108 C5.2387448840382 10.231923601637108 4.77830832196453 10.692360163710779 4.77830832196453 11.255115961800819 C4.77830832196453 11.255115961800819 4.77830832196453 13.301500682128243 4.77830832196453 13.301500682128243 C4.77830832196453 13.864256480218282 5.2387448840382 14.324693042291953 5.801500682128241 14.324693042291953 C5.801500682128241 14.324693042291953 10.231923601637108 14.324693042291953 10.231923601637108 14.324693042291953 C10.231923601637108 14.324693042291953 10.231923601637108 18.75511596180082 10.231923601637108 18.75511596180082 C10.231923601637108 19.31787175989086 10.692360163710779 19.77830832196453 11.255115961800819 19.77830832196453 C11.255115961800819 19.77830832196453 13.301500682128243 19.77830832196453 13.301500682128243 19.77830832196453 C13.864256480218282 19.77830832196453 14.324693042291953 19.31787175989086 14.324693042291953 18.75511596180082 C14.324693042291953 18.75511596180082 14.324693042291953 14.324693042291953 14.324693042291953 14.324693042291953 C14.324693042291953 14.324693042291953 18.75511596180082 14.324693042291953 18.75511596180082 14.324693042291953 C19.31787175989086 14.324693042291953 19.77830832196453 13.864256480218282 19.77830832196453 13.301500682128243 C19.77830832196453 13.301500682128243 19.77830832196453 11.255115961800819 19.77830832196453 11.255115961800819 C19.77830832196453 11.255115961800819 19.77830832196453 11.255115961800819 19.77830832196453 11.255115961800819 Z" vector-effect="non-scaling-stroke"/></defs><g transform="translate(-4.77830832196453, -4.77830832196453)"><path d="M19.77830832196453 11.255115961800819 C19.77830832196453 10.692360163710779 19.31787175989086 10.231923601637108 18.75511596180082 10.231923601637108 C18.75511596180082 10.231923601637108 14.324693042291953 10.231923601637108 14.324693042291953 10.231923601637108 C14.324693042291953 10.231923601637108 14.324693042291953 5.801500682128241 14.324693042291953 5.801500682128241 C14.324693042291953 5.2387448840382 13.864256480218282 4.77830832196453 13.301500682128243 4.77830832196453 C13.301500682128243 4.77830832196453 11.255115961800819 4.77830832196453 11.255115961800819 4.77830832196453 C10.692360163710779 4.77830832196453 10.231923601637108 5.2387448840382 10.231923601637108 5.801500682128241 C10.231923601637108 5.801500682128241 10.231923601637108 10.231923601637108 10.231923601637108 10.231923601637108 C10.231923601637108 10.231923601637108 5.801500682128241 10.231923601637108 5.801500682128241 10.231923601637108 C5.2387448840382 10.231923601637108 4.77830832196453 10.692360163710779 4.77830832196453 11.255115961800819 C4.77830832196453 11.255115961800819 4.77830832196453 13.301500682128243 4.77830832196453 13.301500682128243 C4.77830832196453 13.864256480218282 5.2387448840382 14.324693042291953 5.801500682128241 14.324693042291953 C5.801500682128241 14.324693042291953 10.231923601637108 14.324693042291953 10.231923601637108 14.324693042291953 C10.231923601637108 14.324693042291953 10.231923601637108 18.75511596180082 10.231923601637108 18.75511596180082 C10.231923601637108 19.31787175989086 10.692360163710779 19.77830832196453 11.255115961800819 19.77830832196453 C11.255115961800819 19.77830832196453 13.301500682128243 19.77830832196453 13.301500682128243 19.77830832196453 C13.864256480218282 19.77830832196453 14.324693042291953 19.31787175989086 14.324693042291953 18.75511596180082 C14.324693042291953 18.75511596180082 14.324693042291953 14.324693042291953 14.324693042291953 14.324693042291953 C14.324693042291953 14.324693042291953 18.75511596180082 14.324693042291953 18.75511596180082 14.324693042291953 C19.31787175989086 14.324693042291953 19.77830832196453 13.864256480218282 19.77830832196453 13.301500682128243 C19.77830832196453 13.301500682128243 19.77830832196453 11.255115961800819 19.77830832196453 11.255115961800819 C19.77830832196453 11.255115961800819 19.77830832196453 11.255115961800819 19.77830832196453 11.255115961800819 Z" style="stroke-width: 0; stroke-linecap: butt; stroke-linejoin: miter; fill: rgb(255, 255, 255);" vector-effect="non-scaling-stroke"/></g></g></svg>