<svg version="1.2" xmlns="http://www.w3.org/2000/svg" xmlns:xlink="http://www.w3.org/1999/xlink" overflow="visible" preserveAspectRatio="none" viewBox="0 -19.501163467132052 55 55" width="42" height="42"><g><g xmlns:default="http://www.w3.org/2000/svg">
	<g>
		<path d="M8.2,0C3.7,0,0,3.6,0,8c0,4.4,3.7,8,8.2,8c4.5,0,8.2-3.6,8.2-8C16.3,3.6,12.7,0,8.2,0z M8.2,14.1C4.8,14.1,2,11.4,2,8    C2,4.7,4.8,2,8.2,2c3.4,0,6.2,2.7,6.2,6.1C14.3,11.4,11.6,14.1,8.2,14.1z M27.5,0c-4.5,0-8.2,3.6-8.2,8c0,4.4,3.7,8,8.2,8    c4.5,0,8.2-3.6,8.2-8C35.7,3.6,32,0,27.5,0z M27.5,14.1c-3.4,0-6.2-2.7-6.2-6.1c0-3.3,2.8-6.1,6.2-6.1c3.4,0,6.2,2.7,6.2,6.1    C33.7,11.4,30.9,14.1,27.5,14.1z M46.8,0c-4.5,0-8.2,3.6-8.2,8c0,4.4,3.7,8,8.2,8c4.5,0,8.2-3.6,8.2-8C55,3.6,51.3,0,46.8,0z     M46.8,14.1c-3.4,0-6.2-2.7-6.2-6.1c0-3.3,2.8-6.1,6.2-6.1C50.2,2,53,4.7,53,8C53,11.4,50.2,14.1,46.8,14.1z" style="fill: rgb(138, 138, 138);" vector-effect="non-scaling-stroke"/>
	</g>
</g></g></svg>