<svg version="1.2" xmlns="http://www.w3.org/2000/svg" xmlns:xlink="http://www.w3.org/1999/xlink" overflow="visible" preserveAspectRatio="none" viewBox="0 0 39.99996784291455 39.9999904258973" width="39.99996784291455" height="39.9999904258973"><g transform="translate(0, 0)"><g transform="translate(-0.00001000000000095369, -0.0007995741026979429) rotate(0)"><path d="M15.46748,15.79185c1.68519,1.76736 2.58374,4.08269 2.53026,6.51951c-0.06309,2.84855 -1.40502,5.45092 -3.68165,7.13997c-1.35713,1.00629 -2.22725,2.57241 -2.40368,4.27788c2.35784,0.42105 3.93614,1.30449 4.35266,2.41244h0.50489c0.32633,0 0.59074,0.26753 0.59074,0.59751c0,0.32999 -0.26442,0.59751 -0.59074,0.59751h-0.50418c-0.2745,0.72992 -1.05593,1.37086 -2.2686,1.84385c-1.35634,0.52892 -3.14707,0.82027 -5.04241,0.82027c-1.89533,0 -3.68591,-0.29127 -5.04193,-0.82027c-1.5338,-0.59831 -2.37856,-1.46534 -2.37856,-2.44136c0,-1.40288 1.7289,-2.54047 4.55154,-3.02573c-0.13965,-1.33118 -0.69904,-2.57369 -1.61233,-3.55218c-0.22385,-0.23996 -0.21314,-0.61815 0.0241,-0.84464c0.23724,-0.2265 0.61106,-0.21574 0.83515,0.0243c1.27064,1.36137 1.9704,3.14866 1.9704,5.0325v0.05258c0,0.92702 0.74402,1.69574 1.65935,1.71526c0.01016,0.00008 0.02032,0.00032 0.03048,0.00064c0.00008,0 0.00024,0 0.00032,0c0.92565,0 1.70385,-0.81023 1.70385,-1.76928c0,-2.32919 1.09169,-4.52923 2.92039,-5.88503c1.97811,-1.46765 3.14424,-3.72856 3.19906,-6.20291c0.04639,-2.11568 -0.73472,-4.12698 -2.19952,-5.66331c-1.46267,-1.53394 -3.41771,-2.39507 -5.50515,-2.42479c-2.11076,-0.02972 -4.09958,0.77876 -5.60109,2.27661c-1.50206,1.49832 -2.32933,3.49856 -2.32933,5.63216c0,2.14571 0.83483,4.15312 2.35052,5.65224c0.2333,0.23072 0.23748,0.60899 0.00937,0.84496c-0.22795,0.2359 -0.602,0.2402 -0.83531,0.00948c-1.74505,-1.72586 -2.70607,-4.03664 -2.70607,-6.50668c0,-2.45602 0.9522,-4.75836 2.68125,-6.48302c1.72843,-1.72418 4.02121,-2.65352 6.44727,-2.62069c2.40487,0.03426 4.65606,1.02509 6.33896,2.79023zM11.82694,34.92885c-0.25386,1.3695 -1.42581,2.40822 -2.82965,2.40822c-0.01268,0 -0.02536,-0.00024 -0.03804,-0.00064c-0.00378,0 -0.01181,-0.00016 -0.0156,-0.00024c-1.39202,-0.02669 -2.55113,-1.07449 -2.78018,-2.42248c-2.17093,0.39826 -3.44764,1.20809 -3.44764,1.82544c0,0.84265 2.43039,2.0666 6.23901,2.0666c3.8091,0 6.2398,-1.22395 6.2398,-2.0666c0,-0.60556 -1.24694,-1.40671 -3.36769,-1.81031zM4,22.00078c0,-2.75701 2.24305,-5 5.00004,-5c2.75699,0 4.99996,2.24299 4.99996,5c0,2.75701 -2.24305,5 -4.99996,5c-2.75707,0 -5.00004,-2.24299 -5.00004,-5zM5.1709,22.00078c0,2.11138 1.71778,3.82909 3.82914,3.82909c2.11136,0 3.82906,-1.71772 3.82906,-3.82909c0,-2.11138 -1.7177,-3.82909 -3.82906,-3.82909c-2.11136,0 -3.82914,1.71772 -3.82914,3.82909zM39.99812,7.62654c-0.05234,2.33374 -1.17055,4.46535 -3.06794,5.84819c-1.05614,0.76975 -1.74311,1.95679 -1.90962,3.25614c2.2651,0.42026 3.64814,1.36427 3.64814,2.52257c0,0.49758 -0.25467,1.21946 -1.46782,1.83279c-0.08768,0.04435 -0.18116,0.06532 -0.27327,0.06532c-0.22005,0 -0.43213,-0.11999 -0.53874,-0.32836c-0.15113,-0.29554 -0.03269,-0.65704 0.26458,-0.80729c0.59534,-0.3009 0.8075,-0.59116 0.8075,-0.76238c0,-0.35686 -0.81531,-0.981 -2.55206,-1.32168c-0.11127,0.4574 -0.35001,0.8827 -0.69228,1.2165c-0.46756,0.45604 -1.07587,0.70555 -1.71767,0.70555c-0.01562,0 -0.03132,-0.00016 -0.04694,-0.00048c-1.15743,-0.02193 -2.12782,-0.84916 -2.37171,-1.93285c-0.7451,0.14297 -1.39673,0.35213 -1.87443,0.60549c-0.54526,0.28914 -0.73947,0.56538 -0.73947,0.72748c0,0.52488 1.7638,1.54654 4.99696,1.54654c0.71193,0 1.40277,-0.05267 2.05318,-0.15649c0.33028,-0.05259 0.63922,0.17026 0.69204,0.49758c0.05282,0.3274 -0.17126,0.63535 -0.50049,0.68794c-0.71362,0.11391 -1.46887,0.1717 -2.24473,0.1717c-1.56879,0 -3.0524,-0.23742 -4.1777,-0.66873c-1.02909,-0.3944 -1.69222,-0.93625 -1.92862,-1.55831h-0.50106c-0.33358,0 -0.60388,-0.2688 -0.60388,-0.60036c0,-0.33156 0.2703,-0.60036 0.60388,-0.60036h0.57078c0.43753,-0.85412 1.708,-1.52517 3.55096,-1.85529c-0.17102,-1.2919 -0.86113,-2.4767 -1.92041,-3.25213c-1.91437,-1.40141 -3.05731,-3.64725 -3.05731,-6.00781c0,-2.01162 0.79349,-3.89749 2.23442,-5.3101c1.44045,-1.41222 3.3462,-2.17236 5.37281,-2.14626c2.00415,0.02794 3.88019,0.83947 5.28255,2.28515c1.40413,1.44752 2.15286,3.34403 2.10833,5.33996zM38.79061,7.5991c0.03744,-1.6735 -0.59116,-3.26446 -1.77016,-4.47984c-1.17708,-1.21346 -2.75038,-1.89459 -4.43012,-1.91796c-0.03027,-0.0004 -0.06063,-0.00064 -0.09082,-0.00064c-1.66461,0 -3.23002,0.63751 -4.417,1.80117c-1.20888,1.1852 -1.87467,2.76744 -1.87467,4.45518c0,1.98048 0.95912,3.86491 2.56567,5.0409c1.53715,1.12524 2.4548,2.93746 2.4548,4.84782v0.04243c0,0.68394 0.55919,1.251 1.24664,1.26405c0.32891,0.00656 0.65017,-0.12207 0.89575,-0.36166c0.25524,-0.24903 0.40162,-0.59348 0.40162,-0.94513c0,-1.91524 0.91354,-3.7245 2.44369,-4.83974c1.5923,-1.16054 2.53065,-2.94883 2.57461,-4.90658zM37,7.00078c0,2.20564 -2.01875,4 -4.50004,4c-2.48129,0 -4.49996,-1.79443 -4.49996,-4c0,-2.20557 2.01867,-4 4.49996,-4c2.48137,0 4.50004,1.79436 4.50004,4zM35.72322,7.00078c0,-1.57978 -1.44591,-2.8651 -3.22327,-2.8651c-1.77727,0 -3.22318,1.28524 -3.22318,2.8651c0,1.57986 1.44591,2.8651 3.22318,2.8651c1.77736,0 3.22327,-1.28531 3.22327,-2.8651zM34.58378,29.72936c0.17612,0.56659 0.26543,1.15728 0.26543,1.75555c0,0.15526 -0.00609,0.31192 -0.01805,0.46554c-0.02414,0.30746 -0.28074,0.54086 -0.58368,0.54086c-0.01539,0 -0.03086,-0.00055 -0.04641,-0.0018c-0.32263,-0.02534 -0.56375,-0.3077 -0.53852,-0.63065c0.00977,-0.12319 0.01461,-0.24904 0.01461,-0.37379c0,-0.47993 -0.07149,-0.95329 -0.21253,-1.40694c-0.09611,-0.30934 0.07642,-0.63824 0.38545,-0.73444c0.30942,-0.09636 0.63751,0.07649 0.7337,0.38568zM30.92418,27.1872c-0.29411,-0.13531 -0.42295,-0.48361 -0.28778,-0.77801c0.13502,-0.29432 0.48312,-0.4233 0.77714,-0.28807c0.68432,0.31482 1.29519,0.75259 1.81573,1.30119c0.22292,0.23488 0.21331,0.60625 -0.02133,0.82932c-0.11338,0.10778 -0.25863,0.16128 -0.4035,0.16128c-0.15502,0 -0.30973,-0.06124 -0.42498,-0.18263c-0.41733,-0.43988 -0.90701,-0.79084 -1.45529,-1.04308zM30.56273,36.58455c0.06267,0.31787 -0.14401,0.62635 -0.46155,0.68908c-0.37513,0.07407 -0.76066,0.11161 -1.14618,0.11161h-0.98436c-0.32372,0 -0.58602,-0.26265 -0.58602,-0.58662c0,-0.32397 0.2623,-0.58662 0.58602,-0.58662h0.98436c0.3095,0 0.61884,-0.03011 0.91943,-0.08948c0.31716,-0.06265 0.62564,0.14415 0.6883,0.46202zM21.58673,20.03213c-0.21253,-0.24435 -0.1869,-0.61485 0.0572,-0.8276c0.59431,-0.51786 1.3173,-0.86178 2.0907,-0.99459c0.31856,-0.05491 0.62197,0.15964 0.67658,0.47899c0.05477,0.31928 -0.15948,0.62259 -0.47851,0.67735c-0.56157,0.09644 -1.08696,0.34649 -1.51913,0.7231c-0.11103,0.09675 -0.24816,0.14415 -0.38459,0.14415c-0.16362,0 -0.32638,-0.0682 -0.44225,-0.2014zM20.41562,23.902c-0.16581,-0.46444 -0.24988,-0.95196 -0.24988,-1.4491c0,-0.28963 0.02899,-0.57919 0.08611,-0.86068c0.06438,-0.31748 0.37365,-0.5224 0.69088,-0.45811c0.31716,0.06445 0.52203,0.3741 0.45764,0.69158c-0.04149,0.20485 -0.06259,0.41587 -0.06259,0.62729c0,0.36214 0.06102,0.71692 0.18151,1.05427c0.10892,0.30504 -0.04985,0.64074 -0.35458,0.74977c-0.06517,0.02323 -0.13174,0.03434 -0.19722,0.03434c-0.24066,0 -0.46624,-0.14947 -0.55188,-0.38936zM28.81036,26.75804h-2.02404c-0.32372,0 -0.58602,-0.26265 -0.58602,-0.58662c0,-0.32397 0.2623,-0.58662 0.58602,-0.58662h2.02404c0.32372,0 0.58602,0.26265 0.58602,0.58662c0,0.32397 -0.26238,0.58662 -0.58602,0.58662zM34.02174,34.50129c-0.38584,0.64817 -0.88529,1.20991 -1.48428,1.66943c-0.10642,0.08158 -0.23175,0.12108 -0.35607,0.12108c-0.17612,0 -0.35013,-0.07908 -0.46561,-0.2298c-0.19683,-0.25717 -0.14815,-0.62533 0.10869,-0.82244c0.48046,-0.36863 0.88099,-0.81907 1.19049,-1.33889c0.16573,-0.27845 0.52531,-0.36941 0.8034,-0.20367c0.27801,0.16589 0.36912,0.52592 0.20339,0.80429zM26.12786,36.79863c0,0.32397 -0.2623,0.58662 -0.58602,0.58662h-2.02397c-0.32372,0 -0.58602,-0.26265 -0.58602,-0.58662c0,-0.32397 0.2623,-0.58662 0.58602,-0.58662h2.02397c0.32364,0 0.58602,0.26265 0.58602,0.58662zM21.67495,36.79863c0,0.32397 -0.2623,0.58662 -0.58602,0.58662h-2.02404c-0.32372,0 -0.58602,-0.26265 -0.58602,-0.58662c0,-0.32397 0.2623,-0.58662 0.58602,-0.58662h2.02404c0.32372,0 0.58602,0.26265 0.58602,0.58662zM24.34057,26.75624c-0.78691,-0.02268 -1.55109,-0.26061 -2.21017,-0.68806c-0.27168,-0.17622 -0.34919,-0.53945 -0.17315,-0.81133c0.17596,-0.27188 0.53891,-0.34947 0.81043,-0.17333c0.47882,0.31059 1.03445,0.48345 1.60664,0.49995c0.32348,0.00931 0.57821,0.27939 0.56891,0.60328c-0.00914,0.3181 -0.26965,0.56972 -0.58548,0.56972c-0.0057,0 -0.01141,-0.00008 -0.01719,-0.00023z" style="stroke-width: 0; stroke-linecap: butt; stroke-linejoin: miter; fill: rgb(0, 0, 0);" vector-effect="non-scaling-stroke"/></g><defs><path id="path-1671061844699212449" d="M15.46748,15.79185c1.68519,1.76736 2.58374,4.08269 2.53026,6.51951c-0.06309,2.84855 -1.40502,5.45092 -3.68165,7.13997c-1.35713,1.00629 -2.22725,2.57241 -2.40368,4.27788c2.35784,0.42105 3.93614,1.30449 4.35266,2.41244h0.50489c0.32633,0 0.59074,0.26753 0.59074,0.59751c0,0.32999 -0.26442,0.59751 -0.59074,0.59751h-0.50418c-0.2745,0.72992 -1.05593,1.37086 -2.2686,1.84385c-1.35634,0.52892 -3.14707,0.82027 -5.04241,0.82027c-1.89533,0 -3.68591,-0.29127 -5.04193,-0.82027c-1.5338,-0.59831 -2.37856,-1.46534 -2.37856,-2.44136c0,-1.40288 1.7289,-2.54047 4.55154,-3.02573c-0.13965,-1.33118 -0.69904,-2.57369 -1.61233,-3.55218c-0.22385,-0.23996 -0.21314,-0.61815 0.0241,-0.84464c0.23724,-0.2265 0.61106,-0.21574 0.83515,0.0243c1.27064,1.36137 1.9704,3.14866 1.9704,5.0325v0.05258c0,0.92702 0.74402,1.69574 1.65935,1.71526c0.01016,0.00008 0.02032,0.00032 0.03048,0.00064c0.00008,0 0.00024,0 0.00032,0c0.92565,0 1.70385,-0.81023 1.70385,-1.76928c0,-2.32919 1.09169,-4.52923 2.92039,-5.88503c1.97811,-1.46765 3.14424,-3.72856 3.19906,-6.20291c0.04639,-2.11568 -0.73472,-4.12698 -2.19952,-5.66331c-1.46267,-1.53394 -3.41771,-2.39507 -5.50515,-2.42479c-2.11076,-0.02972 -4.09958,0.77876 -5.60109,2.27661c-1.50206,1.49832 -2.32933,3.49856 -2.32933,5.63216c0,2.14571 0.83483,4.15312 2.35052,5.65224c0.2333,0.23072 0.23748,0.60899 0.00937,0.84496c-0.22795,0.2359 -0.602,0.2402 -0.83531,0.00948c-1.74505,-1.72586 -2.70607,-4.03664 -2.70607,-6.50668c0,-2.45602 0.9522,-4.75836 2.68125,-6.48302c1.72843,-1.72418 4.02121,-2.65352 6.44727,-2.62069c2.40487,0.03426 4.65606,1.02509 6.33896,2.79023zM11.82694,34.92885c-0.25386,1.3695 -1.42581,2.40822 -2.82965,2.40822c-0.01268,0 -0.02536,-0.00024 -0.03804,-0.00064c-0.00378,0 -0.01181,-0.00016 -0.0156,-0.00024c-1.39202,-0.02669 -2.55113,-1.07449 -2.78018,-2.42248c-2.17093,0.39826 -3.44764,1.20809 -3.44764,1.82544c0,0.84265 2.43039,2.0666 6.23901,2.0666c3.8091,0 6.2398,-1.22395 6.2398,-2.0666c0,-0.60556 -1.24694,-1.40671 -3.36769,-1.81031zM4,22.00078c0,-2.75701 2.24305,-5 5.00004,-5c2.75699,0 4.99996,2.24299 4.99996,5c0,2.75701 -2.24305,5 -4.99996,5c-2.75707,0 -5.00004,-2.24299 -5.00004,-5zM5.1709,22.00078c0,2.11138 1.71778,3.82909 3.82914,3.82909c2.11136,0 3.82906,-1.71772 3.82906,-3.82909c0,-2.11138 -1.7177,-3.82909 -3.82906,-3.82909c-2.11136,0 -3.82914,1.71772 -3.82914,3.82909zM39.99812,7.62654c-0.05234,2.33374 -1.17055,4.46535 -3.06794,5.84819c-1.05614,0.76975 -1.74311,1.95679 -1.90962,3.25614c2.2651,0.42026 3.64814,1.36427 3.64814,2.52257c0,0.49758 -0.25467,1.21946 -1.46782,1.83279c-0.08768,0.04435 -0.18116,0.06532 -0.27327,0.06532c-0.22005,0 -0.43213,-0.11999 -0.53874,-0.32836c-0.15113,-0.29554 -0.03269,-0.65704 0.26458,-0.80729c0.59534,-0.3009 0.8075,-0.59116 0.8075,-0.76238c0,-0.35686 -0.81531,-0.981 -2.55206,-1.32168c-0.11127,0.4574 -0.35001,0.8827 -0.69228,1.2165c-0.46756,0.45604 -1.07587,0.70555 -1.71767,0.70555c-0.01562,0 -0.03132,-0.00016 -0.04694,-0.00048c-1.15743,-0.02193 -2.12782,-0.84916 -2.37171,-1.93285c-0.7451,0.14297 -1.39673,0.35213 -1.87443,0.60549c-0.54526,0.28914 -0.73947,0.56538 -0.73947,0.72748c0,0.52488 1.7638,1.54654 4.99696,1.54654c0.71193,0 1.40277,-0.05267 2.05318,-0.15649c0.33028,-0.05259 0.63922,0.17026 0.69204,0.49758c0.05282,0.3274 -0.17126,0.63535 -0.50049,0.68794c-0.71362,0.11391 -1.46887,0.1717 -2.24473,0.1717c-1.56879,0 -3.0524,-0.23742 -4.1777,-0.66873c-1.02909,-0.3944 -1.69222,-0.93625 -1.92862,-1.55831h-0.50106c-0.33358,0 -0.60388,-0.2688 -0.60388,-0.60036c0,-0.33156 0.2703,-0.60036 0.60388,-0.60036h0.57078c0.43753,-0.85412 1.708,-1.52517 3.55096,-1.85529c-0.17102,-1.2919 -0.86113,-2.4767 -1.92041,-3.25213c-1.91437,-1.40141 -3.05731,-3.64725 -3.05731,-6.00781c0,-2.01162 0.79349,-3.89749 2.23442,-5.3101c1.44045,-1.41222 3.3462,-2.17236 5.37281,-2.14626c2.00415,0.02794 3.88019,0.83947 5.28255,2.28515c1.40413,1.44752 2.15286,3.34403 2.10833,5.33996zM38.79061,7.5991c0.03744,-1.6735 -0.59116,-3.26446 -1.77016,-4.47984c-1.17708,-1.21346 -2.75038,-1.89459 -4.43012,-1.91796c-0.03027,-0.0004 -0.06063,-0.00064 -0.09082,-0.00064c-1.66461,0 -3.23002,0.63751 -4.417,1.80117c-1.20888,1.1852 -1.87467,2.76744 -1.87467,4.45518c0,1.98048 0.95912,3.86491 2.56567,5.0409c1.53715,1.12524 2.4548,2.93746 2.4548,4.84782v0.04243c0,0.68394 0.55919,1.251 1.24664,1.26405c0.32891,0.00656 0.65017,-0.12207 0.89575,-0.36166c0.25524,-0.24903 0.40162,-0.59348 0.40162,-0.94513c0,-1.91524 0.91354,-3.7245 2.44369,-4.83974c1.5923,-1.16054 2.53065,-2.94883 2.57461,-4.90658zM37,7.00078c0,2.20564 -2.01875,4 -4.50004,4c-2.48129,0 -4.49996,-1.79443 -4.49996,-4c0,-2.20557 2.01867,-4 4.49996,-4c2.48137,0 4.50004,1.79436 4.50004,4zM35.72322,7.00078c0,-1.57978 -1.44591,-2.8651 -3.22327,-2.8651c-1.77727,0 -3.22318,1.28524 -3.22318,2.8651c0,1.57986 1.44591,2.8651 3.22318,2.8651c1.77736,0 3.22327,-1.28531 3.22327,-2.8651zM34.58378,29.72936c0.17612,0.56659 0.26543,1.15728 0.26543,1.75555c0,0.15526 -0.00609,0.31192 -0.01805,0.46554c-0.02414,0.30746 -0.28074,0.54086 -0.58368,0.54086c-0.01539,0 -0.03086,-0.00055 -0.04641,-0.0018c-0.32263,-0.02534 -0.56375,-0.3077 -0.53852,-0.63065c0.00977,-0.12319 0.01461,-0.24904 0.01461,-0.37379c0,-0.47993 -0.07149,-0.95329 -0.21253,-1.40694c-0.09611,-0.30934 0.07642,-0.63824 0.38545,-0.73444c0.30942,-0.09636 0.63751,0.07649 0.7337,0.38568zM30.92418,27.1872c-0.29411,-0.13531 -0.42295,-0.48361 -0.28778,-0.77801c0.13502,-0.29432 0.48312,-0.4233 0.77714,-0.28807c0.68432,0.31482 1.29519,0.75259 1.81573,1.30119c0.22292,0.23488 0.21331,0.60625 -0.02133,0.82932c-0.11338,0.10778 -0.25863,0.16128 -0.4035,0.16128c-0.15502,0 -0.30973,-0.06124 -0.42498,-0.18263c-0.41733,-0.43988 -0.90701,-0.79084 -1.45529,-1.04308zM30.56273,36.58455c0.06267,0.31787 -0.14401,0.62635 -0.46155,0.68908c-0.37513,0.07407 -0.76066,0.11161 -1.14618,0.11161h-0.98436c-0.32372,0 -0.58602,-0.26265 -0.58602,-0.58662c0,-0.32397 0.2623,-0.58662 0.58602,-0.58662h0.98436c0.3095,0 0.61884,-0.03011 0.91943,-0.08948c0.31716,-0.06265 0.62564,0.14415 0.6883,0.46202zM21.58673,20.03213c-0.21253,-0.24435 -0.1869,-0.61485 0.0572,-0.8276c0.59431,-0.51786 1.3173,-0.86178 2.0907,-0.99459c0.31856,-0.05491 0.62197,0.15964 0.67658,0.47899c0.05477,0.31928 -0.15948,0.62259 -0.47851,0.67735c-0.56157,0.09644 -1.08696,0.34649 -1.51913,0.7231c-0.11103,0.09675 -0.24816,0.14415 -0.38459,0.14415c-0.16362,0 -0.32638,-0.0682 -0.44225,-0.2014zM20.41562,23.902c-0.16581,-0.46444 -0.24988,-0.95196 -0.24988,-1.4491c0,-0.28963 0.02899,-0.57919 0.08611,-0.86068c0.06438,-0.31748 0.37365,-0.5224 0.69088,-0.45811c0.31716,0.06445 0.52203,0.3741 0.45764,0.69158c-0.04149,0.20485 -0.06259,0.41587 -0.06259,0.62729c0,0.36214 0.06102,0.71692 0.18151,1.05427c0.10892,0.30504 -0.04985,0.64074 -0.35458,0.74977c-0.06517,0.02323 -0.13174,0.03434 -0.19722,0.03434c-0.24066,0 -0.46624,-0.14947 -0.55188,-0.38936zM28.81036,26.75804h-2.02404c-0.32372,0 -0.58602,-0.26265 -0.58602,-0.58662c0,-0.32397 0.2623,-0.58662 0.58602,-0.58662h2.02404c0.32372,0 0.58602,0.26265 0.58602,0.58662c0,0.32397 -0.26238,0.58662 -0.58602,0.58662zM34.02174,34.50129c-0.38584,0.64817 -0.88529,1.20991 -1.48428,1.66943c-0.10642,0.08158 -0.23175,0.12108 -0.35607,0.12108c-0.17612,0 -0.35013,-0.07908 -0.46561,-0.2298c-0.19683,-0.25717 -0.14815,-0.62533 0.10869,-0.82244c0.48046,-0.36863 0.88099,-0.81907 1.19049,-1.33889c0.16573,-0.27845 0.52531,-0.36941 0.8034,-0.20367c0.27801,0.16589 0.36912,0.52592 0.20339,0.80429zM26.12786,36.79863c0,0.32397 -0.2623,0.58662 -0.58602,0.58662h-2.02397c-0.32372,0 -0.58602,-0.26265 -0.58602,-0.58662c0,-0.32397 0.2623,-0.58662 0.58602,-0.58662h2.02397c0.32364,0 0.58602,0.26265 0.58602,0.58662zM21.67495,36.79863c0,0.32397 -0.2623,0.58662 -0.58602,0.58662h-2.02404c-0.32372,0 -0.58602,-0.26265 -0.58602,-0.58662c0,-0.32397 0.2623,-0.58662 0.58602,-0.58662h2.02404c0.32372,0 0.58602,0.26265 0.58602,0.58662zM24.34057,26.75624c-0.78691,-0.02268 -1.55109,-0.26061 -2.21017,-0.68806c-0.27168,-0.17622 -0.34919,-0.53945 -0.17315,-0.81133c0.17596,-0.27188 0.53891,-0.34947 0.81043,-0.17333c0.47882,0.31059 1.03445,0.48345 1.60664,0.49995c0.32348,0.00931 0.57821,0.27939 0.56891,0.60328c-0.00914,0.3181 -0.26965,0.56972 -0.58548,0.56972c-0.0057,0 -0.01141,-0.00008 -0.01719,-0.00023z" vector-effect="non-scaling-stroke"/></defs></g></svg>