<svg version="1.2" xmlns="http://www.w3.org/2000/svg" xmlns:xlink="http://www.w3.org/1999/xlink" overflow="visible" preserveAspectRatio="none" viewBox="0 0 24 24" width="30" height="30"><g><path xmlns:default="http://www.w3.org/2000/svg" id="whatsapp" d="M14.29,12.81c-0.22,0.11-0.41,0.29-0.54,0.5c-0.13,0.22-0.33,0.4-0.56,0.5c-0.08,0-0.16-0.03-0.23-0.07  c-0.57-0.27-1.1-0.63-1.57-1.05c-0.44-0.4-0.8-0.89-1.06-1.43c-0.03-0.05-0.05-0.1-0.05-0.16c0.08-0.19,0.2-0.35,0.36-0.48  c0.2-0.15,0.34-0.37,0.39-0.62c-0.07-0.27-0.16-0.53-0.26-0.78L10.43,8.3c-0.04-0.12-0.12-0.22-0.21-0.3  c-0.09-0.03-0.18-0.03-0.27,0h-0.2H9.56C9.37,7.99,9.18,8.06,9.03,8.18C8.56,8.6,8.28,9.2,8.26,9.83v0.08c0.04,0.73,0.3,1.42,0.74,2  c0.45,0.69,0.97,1.33,1.54,1.93c0.51,0.51,1.11,0.93,1.77,1.23c0.62,0.34,1.3,0.56,2,0.65c0.37-0.01,0.73-0.11,1.06-0.28  c0.32-0.13,0.59-0.37,0.74-0.68c0.09-0.24,0.15-0.5,0.15-0.76c0.01-0.05,0.01-0.11,0-0.16c-0.29-0.22-0.6-0.4-0.93-0.55  c-0.31-0.19-0.65-0.35-1-0.46l0,0L14.29,12.81z M12.18,18.33c-1.28,0.01-2.53-0.37-3.59-1.08L6.03,18l0.82-2.43  C5.5,13.73,5.22,11.3,6.12,9.2c0.67-1.56,1.94-2.8,3.52-3.43c1.62-0.69,3.45-0.69,5.07,0c1.57,0.65,2.83,1.91,3.48,3.48  c0.69,1.62,0.69,3.45,0,5.07c-0.65,1.57-1.91,2.83-3.48,3.48c-0.8,0.35-1.67,0.52-2.54,0.52l0,0L12.18,18.33z M12.18,3.94  c-1.03,0-2.05,0.21-3,0.62C7.27,5.34,5.74,6.85,4.95,8.75c-0.99,2.31-0.8,4.95,0.5,7.1l-1.42,4.21l4.34-1.4c1.16,0.66,2.47,1,3.8,1  c1.03,0,2.05-0.21,3-0.62c1.89-0.79,3.39-2.29,4.18-4.18c0.83-1.94,0.83-4.15,0-6.09c-0.79-1.89-2.29-3.39-4.18-4.18  c-0.95-0.41-1.97-0.62-3-0.62l0,0L12.18,3.94z" style="fill: rgb(255, 255, 255);" vector-effect="non-scaling-stroke"/></g></svg>