<svg version="1.2" xmlns="http://www.w3.org/2000/svg" xmlns:xlink="http://www.w3.org/1999/xlink" overflow="visible" preserveAspectRatio="none" viewBox="0 0 24 24" width="30" height="30"><g><path xmlns:default="http://www.w3.org/2000/svg" id="youtube-play" d="M10.07,14.47V9.23l5,2.63l-5,2.6l0,0V14.47z M12,5.47c-2.61,0-4.78,0.06-6.53,0.19H5.29H5.05H4.81  c-0.1,0.02-0.2,0.04-0.3,0.08L4.22,5.88C4.11,5.94,4,6,3.9,6.08C3.79,6.16,3.69,6.26,3.6,6.36L3.45,6.65  C3.31,6.85,3.2,7.06,3.12,7.29c-0.13,0.32-0.22,0.66-0.26,1c-0.13,0.99-0.2,2-0.19,3v1.83c0,0.29,0.02,0.68,0.06,1.18  c0.04,0.5,0.08,0.97,0.13,1.42c0.05,0.36,0.14,0.71,0.28,1.05c0.08,0.21,0.18,0.42,0.3,0.61l0.16,0.25  c0.17,0.18,0.37,0.32,0.59,0.43c0.17,0.09,0.35,0.16,0.53,0.22c0.19,0.04,0.38,0.08,0.57,0.1h0.37h0.51l2.09,0.08  c1.06,0,2.31,0.02,3.74,0.07c2.61,0,4.78-0.07,6.53-0.2h0.17h0.24h0.25c0.1-0.02,0.2-0.04,0.3-0.08l0.29-0.13  c0.11-0.05,0.22-0.12,0.32-0.2c0.11-0.08,0.21-0.18,0.3-0.28l0.15-0.18c0.14-0.2,0.25-0.41,0.33-0.64c0.13-0.32,0.22-0.66,0.26-1  c0.13-0.99,0.2-2,0.19-3v-1.89c0-0.29-0.02-0.68-0.06-1.18s-0.08-0.98-0.13-1.43C21.09,7.96,21,7.61,20.86,7.27  c-0.08-0.21-0.18-0.42-0.3-0.61L20.4,6.47c-0.09-0.1-0.19-0.2-0.3-0.28c-0.1-0.08-0.21-0.14-0.32-0.2l-0.29-0.14  c-0.1-0.04-0.2-0.06-0.3-0.08h-0.24h-0.24h-0.18h-0.76c-0.51-0.13-1.31-0.2-2.39-0.23S13.17,5.5,12,5.49l0,0V5.47z" style="fill: rgb(255, 255, 255);" vector-effect="non-scaling-stroke"/></g></svg>