<svg version="1.2" xmlns="http://www.w3.org/2000/svg" xmlns:xlink="http://www.w3.org/1999/xlink" overflow="visible" preserveAspectRatio="none" viewBox="0 0 16.000010000006263 16.000001111116717" width="16.000010000006263" height="16.000001111116717"><g transform="translate(0, 0)"><g transform="translate(-8.536590669905308e-7, -8.536585482943337e-7) rotate(0)"><path d="M13.65855,12.46556c0.3719,0.0121 0.70361,0.02224 0.97561,0.02224c0.36215,0 0.70946,-0.144 0.96585,-0.4c0.256,-0.25639 0.4,-0.60371 0.4,-0.96585v-6.2439c0,-0.36215 -0.144,-0.70946 -0.4,-0.96585c-0.25639,-0.256 -0.60371,-0.4 -0.96585,-0.4h-0.97561v-2.14634c0,-0.75434 -0.61151,-1.36585 -1.36585,-1.36585c-2.24234,0 -8.68449,0 -10.92684,0c-0.36215,0 -0.70946,0.144 -0.96585,0.4c-0.256,0.25639 -0.4,0.60371 -0.4,0.96585v13.26829c0,0.36215 0.144,0.70946 0.4,0.96585c0.25639,0.256 0.60371,0.4 0.96585,0.4h10.92684c0.36215,0 0.70985,-0.144 0.96585,-0.4c0.256,-0.25639 0.4,-0.60371 0.4,-0.96585zM14.82928,4.87805v6.2439c0,0.0519 -0.02068,0.10146 -0.05698,0.13815c-0.03668,0.03629 -0.08624,0.05698 -0.13815,0.05698h-4.29269c-1.89503,0.15727 -3.31708,-1.41737 -3.31708,-3.31707c0,-1.83181 1.48527,-3.31707 3.31708,-3.31707h4.29269c0.0519,0 0.10146,0.02068 0.13815,0.05698c0.03629,0.03668 0.05698,0.08624 0.05698,0.13815zM10.34148,6.2439c-0.96937,0 -1.7561,0.78673 -1.7561,1.7561c0,0.96937 0.78673,1.7561 1.7561,1.7561c0.96937,0 1.7561,-0.78673 1.7561,-1.7561c0,-0.96937 -0.78673,-1.7561 -1.7561,-1.7561z" style="stroke-width: 0; stroke-linecap: butt; stroke-linejoin: miter; fill: rgb(138, 138, 138);" vector-effect="non-scaling-stroke"/></g><defs><path id="path-1672180209981520336" d="M13.65855,12.46556c0.3719,0.0121 0.70361,0.02224 0.97561,0.02224c0.36215,0 0.70946,-0.144 0.96585,-0.4c0.256,-0.25639 0.4,-0.60371 0.4,-0.96585v-6.2439c0,-0.36215 -0.144,-0.70946 -0.4,-0.96585c-0.25639,-0.256 -0.60371,-0.4 -0.96585,-0.4h-0.97561v-2.14634c0,-0.75434 -0.61151,-1.36585 -1.36585,-1.36585c-2.24234,0 -8.68449,0 -10.92684,0c-0.36215,0 -0.70946,0.144 -0.96585,0.4c-0.256,0.25639 -0.4,0.60371 -0.4,0.96585v13.26829c0,0.36215 0.144,0.70946 0.4,0.96585c0.25639,0.256 0.60371,0.4 0.96585,0.4h10.92684c0.36215,0 0.70985,-0.144 0.96585,-0.4c0.256,-0.25639 0.4,-0.60371 0.4,-0.96585zM14.82928,4.87805v6.2439c0,0.0519 -0.02068,0.10146 -0.05698,0.13815c-0.03668,0.03629 -0.08624,0.05698 -0.13815,0.05698h-4.29269c-1.89503,0.15727 -3.31708,-1.41737 -3.31708,-3.31707c0,-1.83181 1.48527,-3.31707 3.31708,-3.31707h4.29269c0.0519,0 0.10146,0.02068 0.13815,0.05698c0.03629,0.03668 0.05698,0.08624 0.05698,0.13815zM10.34148,6.2439c-0.96937,0 -1.7561,0.78673 -1.7561,1.7561c0,0.96937 0.78673,1.7561 1.7561,1.7561c0.96937,0 1.7561,-0.78673 1.7561,-1.7561c0,-0.96937 -0.78673,-1.7561 -1.7561,-1.7561z" vector-effect="non-scaling-stroke"/></defs></g></svg>