<svg version="1.2" xmlns="http://www.w3.org/2000/svg" xmlns:xlink="http://www.w3.org/1999/xlink" overflow="visible" preserveAspectRatio="none" viewBox="0 0 18 13.999984531280193" width="18" height="13.999984531280193"><g transform="translate(0, 0)"><g transform="translate(0, 0.000003867212967634259) rotate(0)"><path d="M2.7108,5.3511c-1.6254,0.70044 -2.7108,2.06939 -2.7108,3.61771c0,0.89294 0.35685,1.72289 0.97155,2.40189l-0.33615,2.12539c-0.0288,0.18069 0.0612,0.36007 0.2259,0.44888c0.1647,0.08881 0.36855,0.06869 0.51165,-0.05031l1.49265,-1.24382c0.69345,0.27475 1.47825,0.4305 2.3094,0.4305c1.3419,0 2.5623,-0.40688 3.47715,-1.06532c-3.4686,-0.77482 -5.95215,-3.3749 -5.95215,-6.32848c0,-0.11288 0.0036,-0.22488 0.0108,-0.33644zM14.13495,10.7302l2.2221,1.85195c0.1431,0.119 0.34695,0.13913 0.51165,0.05031c0.1647,-0.08881 0.2547,-0.26819 0.2259,-0.44888l-0.4941,-3.12377c0.88335,-0.94676 1.3995,-2.11358 1.3995,-3.37228c0,-3.10977 -3.20175,-5.68754 -7.2,-5.68754c-3.99825,0 -7.2,2.57777 -7.2,5.68754c0,3.10977 3.20175,5.68754 7.2,5.68754c1.20465,0 2.33955,-0.23363 3.33495,-0.64488z" style="stroke-width: 0; stroke-linecap: butt; stroke-linejoin: miter; fill: rgb(138, 138, 138);" vector-effect="non-scaling-stroke"/></g><defs><path id="path-1672180209981520327" d="M2.7108,5.3511c-1.6254,0.70044 -2.7108,2.06939 -2.7108,3.61771c0,0.89294 0.35685,1.72289 0.97155,2.40189l-0.33615,2.12539c-0.0288,0.18069 0.0612,0.36007 0.2259,0.44888c0.1647,0.08881 0.36855,0.06869 0.51165,-0.05031l1.49265,-1.24382c0.69345,0.27475 1.47825,0.4305 2.3094,0.4305c1.3419,0 2.5623,-0.40688 3.47715,-1.06532c-3.4686,-0.77482 -5.95215,-3.3749 -5.95215,-6.32848c0,-0.11288 0.0036,-0.22488 0.0108,-0.33644zM14.13495,10.7302l2.2221,1.85195c0.1431,0.119 0.34695,0.13913 0.51165,0.05031c0.1647,-0.08881 0.2547,-0.26819 0.2259,-0.44888l-0.4941,-3.12377c0.88335,-0.94676 1.3995,-2.11358 1.3995,-3.37228c0,-3.10977 -3.20175,-5.68754 -7.2,-5.68754c-3.99825,0 -7.2,2.57777 -7.2,5.68754c0,3.10977 3.20175,5.68754 7.2,5.68754c1.20465,0 2.33955,-0.23363 3.33495,-0.64488z" vector-effect="non-scaling-stroke"/></defs></g></svg>