<svg version="1.2" xmlns="http://www.w3.org/2000/svg" xmlns:xlink="http://www.w3.org/1999/xlink" overflow="visible" preserveAspectRatio="none" viewBox="0 0 17 16" width="17" height="16"><g transform="translate(0, 0)"><defs><path id="path-1672180209977520264" d="M9.625214394246445 2.8627768056725023 C9.813539195479391 2.547122364370225 10.157876015468334 2.353213724256987 10.530080371007047 2.353213724256987 C10.90228472654576 2.3532137242569866 11.246621546534701 2.5471223643702237 11.434946347767644 2.8627768056725023 C11.434946347767644 2.8627768056725023 13.675167596228397 6.610486605005164 13.67785276588389 6.610486605005164 C13.72304439022422 6.688184920966366 13.799881648798932 6.7431655368319925 13.888974230046891 6.7615537869615405 C13.888974230046891 6.7615537869615405 18.204897435184154 7.69981907367766 18.204897435184154 7.69981907367766 C18.568681164612617 7.779226099320653 18.862732044551738 8.041684288200427 18.978197502382667 8.390036137947464 C19.09366296021361 8.738387987694498 19.013361475393527 9.120797957403314 18.767019274926366 9.395704460839188 C18.767019274926366 9.395704460839188 15.833076548411633 12.647175456220314 15.833076548411633 12.647175456220314 C15.77225397251052 12.714103496087999 15.743325366942887 12.803346123225467 15.753541559964054 12.892535064094123 C15.753541559964054 12.892535064094123 16.18132594135359 17.219995748691133 16.18132594135359 17.219995748691133 C16.216188664458976 17.58472196193892 16.0524957123385 17.94042324182489 15.750836646414035 18.15543976875203 C15.450216503362695 18.37164386525978 15.055139229557962 18.413795770291443 14.71434799679805 18.266025656682913 C14.71434799679805 18.266025656682913 10.661663556073385 16.529646033905735 10.661663556073385 16.529646033905735 C10.577546308224555 16.494600163778543 10.482568364702317 16.494600163778543 10.398451116853488 16.529646033905735 C10.398451116853488 16.529646033905735 6.345786420023346 18.265999773502593 6.345786420023346 18.265999773502593 C6.004381195973231 18.412023031282065 5.609903696460933 18.369748356922045 5.308510653092053 18.15483881927131 C5.007117609723173 17.93992928162057 4.843703742558778 17.584397243749738 4.878815056765977 17.219969865510812 C4.878815056765977 17.219969865510812 5.306599438155519 12.892509180913798 5.306599438155519 12.892509180913798 C5.31681385453642 12.803319288308433 5.287882814795382 12.714076536512959 5.227057868409765 12.64714957303999 C5.227057868409765 12.64714957303999 2.293115141895029 9.395678577658865 2.293115141895029 9.395678577658865 C2.0467689354094047 9.120774322790531 1.9664641402762162 8.738363625370438 2.0819286649199977 8.390010512485784 C2.1973931895637797 8.041657399601132 2.491445338775536 7.779198546015475 2.8552304003390625 7.699793190497339 C2.8552304003390625 7.699793190497339 7.171153605476327 6.761527903781219 7.171153605476327 6.761527903781219 C7.2606450975360195 6.742482686757646 7.338084323775965 6.68777565893657 7.384993145785697 6.6104607218248415 C7.384993145785697 6.6104607218248415 9.625214394246445 2.8627768056725023 9.625214394246445 2.8627768056725023 Z" vector-effect="non-scaling-stroke"/></defs><g transform="translate(-2.030063807831558, -2.353213724256987)"><path d="M9.625214394246445 2.8627768056725023 C9.813539195479391 2.547122364370225 10.157876015468334 2.353213724256987 10.530080371007047 2.353213724256987 C10.90228472654576 2.3532137242569866 11.246621546534701 2.5471223643702237 11.434946347767644 2.8627768056725023 C11.434946347767644 2.8627768056725023 13.675167596228397 6.610486605005164 13.67785276588389 6.610486605005164 C13.72304439022422 6.688184920966366 13.799881648798932 6.7431655368319925 13.888974230046891 6.7615537869615405 C13.888974230046891 6.7615537869615405 18.204897435184154 7.69981907367766 18.204897435184154 7.69981907367766 C18.568681164612617 7.779226099320653 18.862732044551738 8.041684288200427 18.978197502382667 8.390036137947464 C19.09366296021361 8.738387987694498 19.013361475393527 9.120797957403314 18.767019274926366 9.395704460839188 C18.767019274926366 9.395704460839188 15.833076548411633 12.647175456220314 15.833076548411633 12.647175456220314 C15.77225397251052 12.714103496087999 15.743325366942887 12.803346123225467 15.753541559964054 12.892535064094123 C15.753541559964054 12.892535064094123 16.18132594135359 17.219995748691133 16.18132594135359 17.219995748691133 C16.216188664458976 17.58472196193892 16.0524957123385 17.94042324182489 15.750836646414035 18.15543976875203 C15.450216503362695 18.37164386525978 15.055139229557962 18.413795770291443 14.71434799679805 18.266025656682913 C14.71434799679805 18.266025656682913 10.661663556073385 16.529646033905735 10.661663556073385 16.529646033905735 C10.577546308224555 16.494600163778543 10.482568364702317 16.494600163778543 10.398451116853488 16.529646033905735 C10.398451116853488 16.529646033905735 6.345786420023346 18.265999773502593 6.345786420023346 18.265999773502593 C6.004381195973231 18.412023031282065 5.609903696460933 18.369748356922045 5.308510653092053 18.15483881927131 C5.007117609723173 17.93992928162057 4.843703742558778 17.584397243749738 4.878815056765977 17.219969865510812 C4.878815056765977 17.219969865510812 5.306599438155519 12.892509180913798 5.306599438155519 12.892509180913798 C5.31681385453642 12.803319288308433 5.287882814795382 12.714076536512959 5.227057868409765 12.64714957303999 C5.227057868409765 12.64714957303999 2.293115141895029 9.395678577658865 2.293115141895029 9.395678577658865 C2.0467689354094047 9.120774322790531 1.9664641402762162 8.738363625370438 2.0819286649199977 8.390010512485784 C2.1973931895637797 8.041657399601132 2.491445338775536 7.779198546015475 2.8552304003390625 7.699793190497339 C2.8552304003390625 7.699793190497339 7.171153605476327 6.761527903781219 7.171153605476327 6.761527903781219 C7.2606450975360195 6.742482686757646 7.338084323775965 6.68777565893657 7.384993145785697 6.6104607218248415 C7.384993145785697 6.6104607218248415 9.625214394246445 2.8627768056725023 9.625214394246445 2.8627768056725023 Z" style="stroke-width: 0; stroke-linecap: butt; stroke-linejoin: miter; fill: rgb(138, 138, 138);" vector-effect="non-scaling-stroke"/></g></g></svg>