<svg version="1.2" xmlns="http://www.w3.org/2000/svg" xmlns:xlink="http://www.w3.org/1999/xlink" overflow="visible" preserveAspectRatio="none" viewBox="0 0 57.00001000000002 48.00001606920268" width="57.00001000000002" height="48.00001606920268"><g transform="translate(0, 0)"><g transform="translate(0, -0.000003930797316115987) rotate(0)"><path d="M47.30649,48.00001h-40.45401c-3.77843,0 -6.85248,-3.012 -6.85248,-6.71418v-27.57933c0,-3.70218 3.07404,-6.71418 6.85248,-6.71418h11.5389l19.23093,-6.9411c0.21604,-0.07786 0.45442,-0.0665 0.66141,0.03103c0.20699,0.0978 0.36478,0.27374 0.43717,0.48764l0.81835,2.42185l5.04498,-1.56765c0.22198,-0.06871 0.46318,-0.04544 0.66678,0.06483c0.20388,0.11027 0.35234,0.29785 0.41087,0.51867l1.31971,4.98445h0.32491c3.77843,0 6.85248,3.012 6.85248,6.71418v6.90619c1.63698,0.44913 2.84104,1.92396 2.84104,3.66949v6.42908c0,1.74525 -1.20405,3.22036 -2.84104,3.66949v6.90564c0,3.7019 -3.07404,6.71391 -6.85248,6.71391zM6.85248,8.655c-2.84302,0 -5.15583,2.26614 -5.15583,5.05178v27.57933c0,2.78564 2.31281,5.05178 5.15583,5.05178h40.45401c2.84302,0 5.15583,-2.26614 5.15583,-5.05178v-6.76544h-15.14145c-2.03428,0 -3.68936,-1.62168 -3.68936,-3.6149v-6.81836c0,-1.99323 1.65508,-3.6149 3.68936,-3.6149h15.14145v-6.76572c0,-2.78564 -2.31281,-5.05178 -5.15583,-5.05178h-0.96313c-0.01244,0.00028 -0.02488,0.00028 -0.03733,0h-6.00783c-0.01301,0.00028 -0.02602,0.00028 -0.03931,0h-21.69616c-0.01329,0.00028 -0.02658,0.00028 -0.03959,0zM35.32816,30.7107c0,1.18391 0.98321,2.14728 2.1915,2.14728h15.59247c1.2083,0 2.1915,-0.96336 2.1915,-2.14728v-6.42908c0,-1.18391 -0.98321,-2.14728 -2.1915,-2.14728h-15.59247c-1.2083,0 -2.1915,0.96336 -2.1915,2.14728zM40.89118,6.99259h4.33748l-0.98462,-3.71853l-4.17149,1.29612zM23.29978,6.99259h15.80427l-0.90799,-2.68728c-0.00254,-0.0072 -0.00509,-0.01441 -0.00735,-0.02161c0,-0.00028 -0.00028,-0.00083 -0.00028,-0.00139l-0.80223,-2.37392zM40.27841,30.64282c-1.77073,0 -3.21119,-1.41166 -3.21119,-3.14638c0,-1.735 1.44045,-3.14638 3.21119,-3.14638c1.77073,0 3.21119,1.41138 3.21119,3.14638c0.00028,1.73472 -1.44045,3.14638 -3.21119,3.14638zM40.27841,26.01219c-0.83532,0 -1.51454,0.66579 -1.51454,1.48397c0,0.81818 0.67951,1.48397 1.51454,1.48397c0.83503,0 1.51454,-0.66579 1.51454,-1.48397c0,-0.81818 -0.67922,-1.48397 -1.51454,-1.48397z" style="stroke-width: 0; stroke-linecap: butt; stroke-linejoin: miter; fill: rgb(255, 255, 255);" vector-effect="non-scaling-stroke"/></g><defs><path id="path-167770689620268387" d="M47.30649,48.00001h-40.45401c-3.77843,0 -6.85248,-3.012 -6.85248,-6.71418v-27.57933c0,-3.70218 3.07404,-6.71418 6.85248,-6.71418h11.5389l19.23093,-6.9411c0.21604,-0.07786 0.45442,-0.0665 0.66141,0.03103c0.20699,0.0978 0.36478,0.27374 0.43717,0.48764l0.81835,2.42185l5.04498,-1.56765c0.22198,-0.06871 0.46318,-0.04544 0.66678,0.06483c0.20388,0.11027 0.35234,0.29785 0.41087,0.51867l1.31971,4.98445h0.32491c3.77843,0 6.85248,3.012 6.85248,6.71418v6.90619c1.63698,0.44913 2.84104,1.92396 2.84104,3.66949v6.42908c0,1.74525 -1.20405,3.22036 -2.84104,3.66949v6.90564c0,3.7019 -3.07404,6.71391 -6.85248,6.71391zM6.85248,8.655c-2.84302,0 -5.15583,2.26614 -5.15583,5.05178v27.57933c0,2.78564 2.31281,5.05178 5.15583,5.05178h40.45401c2.84302,0 5.15583,-2.26614 5.15583,-5.05178v-6.76544h-15.14145c-2.03428,0 -3.68936,-1.62168 -3.68936,-3.6149v-6.81836c0,-1.99323 1.65508,-3.6149 3.68936,-3.6149h15.14145v-6.76572c0,-2.78564 -2.31281,-5.05178 -5.15583,-5.05178h-0.96313c-0.01244,0.00028 -0.02488,0.00028 -0.03733,0h-6.00783c-0.01301,0.00028 -0.02602,0.00028 -0.03931,0h-21.69616c-0.01329,0.00028 -0.02658,0.00028 -0.03959,0zM35.32816,30.7107c0,1.18391 0.98321,2.14728 2.1915,2.14728h15.59247c1.2083,0 2.1915,-0.96336 2.1915,-2.14728v-6.42908c0,-1.18391 -0.98321,-2.14728 -2.1915,-2.14728h-15.59247c-1.2083,0 -2.1915,0.96336 -2.1915,2.14728zM40.89118,6.99259h4.33748l-0.98462,-3.71853l-4.17149,1.29612zM23.29978,6.99259h15.80427l-0.90799,-2.68728c-0.00254,-0.0072 -0.00509,-0.01441 -0.00735,-0.02161c0,-0.00028 -0.00028,-0.00083 -0.00028,-0.00139l-0.80223,-2.37392zM40.27841,30.64282c-1.77073,0 -3.21119,-1.41166 -3.21119,-3.14638c0,-1.735 1.44045,-3.14638 3.21119,-3.14638c1.77073,0 3.21119,1.41138 3.21119,3.14638c0.00028,1.73472 -1.44045,3.14638 -3.21119,3.14638zM40.27841,26.01219c-0.83532,0 -1.51454,0.66579 -1.51454,1.48397c0,0.81818 0.67951,1.48397 1.51454,1.48397c0.83503,0 1.51454,-0.66579 1.51454,-1.48397c0,-0.81818 -0.67922,-1.48397 -1.51454,-1.48397z" vector-effect="non-scaling-stroke"/></defs></g></svg>