<svg version="1.2" xmlns="http://www.w3.org/2000/svg" xmlns:xlink="http://www.w3.org/1999/xlink" overflow="visible" preserveAspectRatio="none" viewBox="0 0 24 24" width="25" height="25"><g><path xmlns:default="http://www.w3.org/2000/svg" id="sliders" d="M4,16.66V18h3.67v-1.34H4z M8.66,15.33C8.3,15.34,8.01,15.64,8,16v2.67c0.01,0.37,0.3,0.66,0.67,0.67h2.67  c0.37-0.01,0.66-0.31,0.66-0.68V16c-0.01-0.37-0.3-0.66-0.67-0.67H8.67H8.66z M4,11.33v1.33h9v-1.33H4z M4,6v1.34h2.34V6H4z   M12.33,16.66V18H20v-1.34H12.33z M7.33,4.66c-0.37,0.01-0.66,0.3-0.67,0.67V8c0.01,0.37,0.3,0.66,0.67,0.67H10  c0.37-0.01,0.66-0.3,0.67-0.67V5.34c-0.01-0.37-0.3-0.66-0.67-0.67H7.34L7.33,4.66z M14,10c-0.37,0.01-0.66,0.3-0.67,0.67v2.67  C13.34,13.7,13.64,13.99,14,14h2.67c0.37-0.01,0.66-0.3,0.67-0.67v-2.66C17.33,10.3,17.03,10,16.66,10H14z M17.66,11.33v1.33H20  v-1.33H17.66z M11,6v1.34h9V6H11z" style="fill: rgb(223, 22, 131);" vector-effect="non-scaling-stroke"/></g></svg>