<svg version="1.2" xmlns="http://www.w3.org/2000/svg" xmlns:xlink="http://www.w3.org/1999/xlink" overflow="visible" preserveAspectRatio="none" viewBox="0 0 16.001733987560215 16.000000888893396" width="16.001733987560215" height="16.000000888893396"><g transform="translate(0, 0)"><g transform="translate(-5.7231651022504604e-8, 0) rotate(0)"><path d="M15.50173,6.95923c-0.00036,-0.00037 -0.00073,-0.00073 -0.00109,-0.0011l-6.49869,-6.52649c-0.277,-0.27832 -0.64529,-0.43164 -1.03703,-0.43164c-0.39174,0 -0.76003,0.1532 -1.03715,0.43152l-6.49529,6.52319c-0.00219,0.0022 -0.00438,0.00452 -0.00656,0.00671c-0.56883,0.57459 -0.56786,1.50684 0.0028,2.07996c0.26072,0.26196 0.60506,0.4137 0.97322,0.42957c0.01495,0.00146 0.03002,0.0022 0.04522,0.0022h0.25901v4.8031c0,0.95044 0.76999,1.72375 1.71659,1.72375h2.5425c0.25768,0 0.46674,-0.20984 0.46674,-0.46875v-3.76563c0,-0.43372 0.35127,-0.7865 0.78312,-0.7865h1.49963c0.43185,0 0.78312,0.35278 0.78312,0.7865v3.76563c0,0.25891 0.20894,0.46875 0.46674,0.46875h2.5425c0.9466,0 1.71659,-0.77332 1.71659,-1.72375v-4.8031h0.24017c0.39162,0 0.7599,-0.1532 1.03715,-0.43152c0.57127,-0.5741 0.57151,-1.50793 0.00073,-2.0824zM16.00173,7.45923v0c-1,-1 -1,-1 -1,-1v0z" style="stroke-width: 0; stroke-linecap: butt; stroke-linejoin: miter; fill: rgb(138, 138, 138);" vector-effect="non-scaling-stroke"/></g><defs><path id="path-1672180131195460644" d="M15.50173,6.95923c-0.00036,-0.00037 -0.00073,-0.00073 -0.00109,-0.0011l-6.49869,-6.52649c-0.277,-0.27832 -0.64529,-0.43164 -1.03703,-0.43164c-0.39174,0 -0.76003,0.1532 -1.03715,0.43152l-6.49529,6.52319c-0.00219,0.0022 -0.00438,0.00452 -0.00656,0.00671c-0.56883,0.57459 -0.56786,1.50684 0.0028,2.07996c0.26072,0.26196 0.60506,0.4137 0.97322,0.42957c0.01495,0.00146 0.03002,0.0022 0.04522,0.0022h0.25901v4.8031c0,0.95044 0.76999,1.72375 1.71659,1.72375h2.5425c0.25768,0 0.46674,-0.20984 0.46674,-0.46875v-3.76563c0,-0.43372 0.35127,-0.7865 0.78312,-0.7865h1.49963c0.43185,0 0.78312,0.35278 0.78312,0.7865v3.76563c0,0.25891 0.20894,0.46875 0.46674,0.46875h2.5425c0.9466,0 1.71659,-0.77332 1.71659,-1.72375v-4.8031h0.24017c0.39162,0 0.7599,-0.1532 1.03715,-0.43152c0.57127,-0.5741 0.57151,-1.50793 0.00073,-2.0824zM16.00173,7.45923v0c-1,-1 -1,-1 -1,-1v0z" vector-effect="non-scaling-stroke"/></defs></g></svg>