<svg version="1.2" xmlns="http://www.w3.org/2000/svg" xmlns:xlink="http://www.w3.org/1999/xlink" overflow="visible" preserveAspectRatio="none" viewBox="0 0 12 16.0000025" width="12" height="16.0000025"><g transform="translate(0, 0)"><g transform="translate(6.661338147750939e-16, 0) rotate(0)"><path d="M6,0.00001c3.31311,0.00141 5.99855,2.62135 6,5.85364c0,1.97892 -0.89667,3.99675 -1.99332,5.69922c-1.02293,1.56298 -2.23065,3.00321 -3.5983,4.29105c-0.23043,0.20811 -0.58622,0.20811 -0.81665,0c-1.36768,-1.28784 -2.57544,-2.72807 -3.5984,-4.29105c-1.09665,-1.70248 -1.99333,-3.7203 -1.99333,-5.69922c0.00146,-3.2323 2.68691,-5.85223 6.00002,-5.85365zM6.00002,2.53662c-1.15272,-0.00002 -2.19194,0.67741 -2.63308,1.7164c-0.44114,1.03899 -0.19732,2.23492 0.61776,3.03015c0.81508,0.79522 2.04092,1.03312 3.10589,0.60277c1.06498,-0.43035 1.75937,-1.44421 1.75939,-2.5688c-0.00047,-1.53542 -1.27615,-2.78002 -2.84996,-2.78052z" style="stroke-width: 0; stroke-linecap: butt; stroke-linejoin: miter; fill: rgb(138, 138, 138);" vector-effect="non-scaling-stroke"/></g><defs><path id="path-1672180209981520358" d="M6,0.00001c3.31311,0.00141 5.99855,2.62135 6,5.85364c0,1.97892 -0.89667,3.99675 -1.99332,5.69922c-1.02293,1.56298 -2.23065,3.00321 -3.5983,4.29105c-0.23043,0.20811 -0.58622,0.20811 -0.81665,0c-1.36768,-1.28784 -2.57544,-2.72807 -3.5984,-4.29105c-1.09665,-1.70248 -1.99333,-3.7203 -1.99333,-5.69922c0.00146,-3.2323 2.68691,-5.85223 6.00002,-5.85365zM6.00002,2.53662c-1.15272,-0.00002 -2.19194,0.67741 -2.63308,1.7164c-0.44114,1.03899 -0.19732,2.23492 0.61776,3.03015c0.81508,0.79522 2.04092,1.03312 3.10589,0.60277c1.06498,-0.43035 1.75937,-1.44421 1.75939,-2.5688c-0.00047,-1.53542 -1.27615,-2.78002 -2.84996,-2.78052z" vector-effect="non-scaling-stroke"/></defs></g></svg>