<svg version="1.2" xmlns="http://www.w3.org/2000/svg" xmlns:xlink="http://www.w3.org/1999/xlink" overflow="visible" preserveAspectRatio="none" viewBox="0 0 24 24" width="20" height="20"><g><path xmlns:default="http://www.w3.org/2000/svg" id="power-off" d="M20,12.68C20,10.17,18.82,7.8,16.8,6.3c-0.28-0.22-0.65-0.32-1-0.26c-0.35,0.04-0.67,0.23-0.87,0.52  c-0.22,0.28-0.32,0.64-0.26,1c0.05,0.35,0.23,0.67,0.52,0.88c0.67,0.49,1.21,1.14,1.58,1.88c0.69,1.39,0.74,3.01,0.14,4.44  c-0.54,1.28-1.56,2.3-2.84,2.84c-1.32,0.56-2.81,0.56-4.13,0c-1.28-0.54-2.3-1.56-2.84-2.84c-0.6-1.43-0.55-3.05,0.14-4.44  c0.36-0.75,0.9-1.4,1.56-1.9c0.29-0.21,0.47-0.53,0.52-0.88c0.06-0.36-0.04-0.72-0.26-1c-0.2-0.29-0.52-0.49-0.87-0.53  c-0.35-0.05-0.72,0.04-1,0.26c-2.94,2.19-3.99,6.11-2.56,9.48c0.8,1.93,2.34,3.46,4.27,4.26c1.98,0.85,4.23,0.85,6.21,0  c1.93-0.8,3.46-2.33,4.26-4.26c0.42-0.98,0.64-2.03,0.64-3.1l0,0L20,12.68z M12.94,3.74c-0.52-0.52-1.36-0.52-1.88,0  c-0.25,0.25-0.39,0.59-0.39,0.94v6.66c0,0.74,0.6,1.34,1.34,1.34s1.34-0.6,1.34-1.34V4.68C13.34,4.33,13.2,3.99,12.94,3.74z" style="fill: rgb(138, 138, 138);" vector-effect="non-scaling-stroke"/></g></svg>