<svg version="1.2" xmlns="http://www.w3.org/2000/svg" xmlns:xlink="http://www.w3.org/1999/xlink" overflow="visible" preserveAspectRatio="none" viewBox="0 0 10.000003025850834 16.000002020925542" width="10.000003025850834" height="16.000002020925542"><g transform="translate(0, 0)"><g transform="translate(-0.0000037891712884041695, -4.790744597096976e-7) rotate(0)"><path d="M6.75727,7.22254c-0.97405,1.04029 -2.5475,1.04029 -3.52155,0.01l-0.00937,-0.01c-0.98341,-1.04029 -0.98341,-2.72076 -0.00937,-3.76106l0.00937,-0.01c0.97405,-1.04029 2.5475,-1.04029 3.52155,-0.01l0.00937,0.01c0.91785,1.03029 0.86166,2.69076 0,3.77106zM9.98848,5.34201c0.01873,-1.4204 -0.50575,-2.78078 -1.46107,-3.77106c-0.92722,-1.02029 -2.20097,-1.59045 -3.53091,-1.57044c-1.32995,-0.02001 -2.6037,0.55015 -3.53091,1.57044c-0.95531,0.99028 -1.4798,2.35066 -1.46107,3.76106c-0.0281,0.64018 0.07493,1.28036 0.30907,1.87053l3.55901,8.06226c0.09366,0.23006 0.25288,0.41012 0.44956,0.54015c0.40273,0.26007 0.91785,0.26007 1.32058,0c0.19668,-0.13004 0.3559,-0.32009 0.45893,-0.54015l3.57774,-8.06226c0.23415,-0.59017 0.33717,-1.22034 0.31844,-1.86052v0z" style="stroke-width: 0; stroke-linecap: butt; stroke-linejoin: miter; fill: rgb(59, 59, 59);" vector-effect="non-scaling-stroke"/></g><defs><path id="path-1677866548115297410" d="M6.75727,7.22254c-0.97405,1.04029 -2.5475,1.04029 -3.52155,0.01l-0.00937,-0.01c-0.98341,-1.04029 -0.98341,-2.72076 -0.00937,-3.76106l0.00937,-0.01c0.97405,-1.04029 2.5475,-1.04029 3.52155,-0.01l0.00937,0.01c0.91785,1.03029 0.86166,2.69076 0,3.77106zM9.98848,5.34201c0.01873,-1.4204 -0.50575,-2.78078 -1.46107,-3.77106c-0.92722,-1.02029 -2.20097,-1.59045 -3.53091,-1.57044c-1.32995,-0.02001 -2.6037,0.55015 -3.53091,1.57044c-0.95531,0.99028 -1.4798,2.35066 -1.46107,3.76106c-0.0281,0.64018 0.07493,1.28036 0.30907,1.87053l3.55901,8.06226c0.09366,0.23006 0.25288,0.41012 0.44956,0.54015c0.40273,0.26007 0.91785,0.26007 1.32058,0c0.19668,-0.13004 0.3559,-0.32009 0.45893,-0.54015l3.57774,-8.06226c0.23415,-0.59017 0.33717,-1.22034 0.31844,-1.86052v0z" vector-effect="non-scaling-stroke"/></defs></g></svg>