<svg version="1.2" xmlns="http://www.w3.org/2000/svg" xmlns:xlink="http://www.w3.org/1999/xlink" overflow="visible" preserveAspectRatio="none" viewBox="0 0 20 11" width="20" height="11"><g transform="translate(0, 0)"><g transform="translate(0, 0) rotate(0)"><path d="M20,9.5c0,0.398 -0.158,0.7795 -0.4395,1.0605c-0.281,0.2815 -0.6625,0.4395 -1.0605,0.4395h-17c-0.398,0 -0.7795,-0.158 -1.0605,-0.4395c-0.2815,-0.281 -0.4395,-0.6625 -0.4395,-1.0605v-8c0,-0.398 0.158,-0.7795 0.4395,-1.0605c0.281,-0.2815 0.6625,-0.4395 1.0605,-0.4395c3.284,0 13.716,0 17,0c0.398,0 0.7795,0.158 1.0605,0.4395c0.2815,0.281 0.4395,0.6625 0.4395,1.0605zM1,7.5415v1.9585c0,0.1325 0.0525,0.26 0.1465,0.3535c0.0935,0.094 0.221,0.1465 0.3535,0.1465h1.9585c-0.211,-1.2555 -1.203,-2.2475 -2.4585,-2.4585zM19,7.5185c-1.332,0.149 -2.4015,1.172 -2.6215,2.4815h2.1215c0.1325,0 0.26,-0.0525 0.3535,-0.1465c0.094,-0.0935 0.1465,-0.221 0.1465,-0.3535zM10,2.25c-1.7935,0 -3.25,1.4565 -3.25,3.25c0,1.7935 1.4565,3.25 3.25,3.25c1.7935,0 3.25,-1.4565 3.25,-3.25c0,-1.7935 -1.4565,-3.25 -3.25,-3.25zM10,3.25c1.242,0 2.25,1.008 2.25,2.25c0,1.242 -1.008,2.25 -2.25,2.25c-1.242,0 -2.25,-1.008 -2.25,-2.25c0,-1.242 1.008,-2.25 2.25,-2.25zM16.3785,1c0.22,1.3095 1.2895,2.3325 2.6215,2.4815v-1.9815c0,-0.1325 -0.0525,-0.26 -0.1465,-0.3535c-0.0935,-0.094 -0.221,-0.1465 -0.3535,-0.1465zM3.4585,1h-1.9585c-0.1325,0 -0.26,0.0525 -0.3535,0.1465c-0.094,0.0935 -0.1465,0.221 -0.1465,0.3535v1.9585c1.2555,-0.211 2.2475,-1.203 2.4585,-2.4585z" style="stroke-width: 0; stroke-linecap: butt; stroke-linejoin: miter; fill: rgb(138, 138, 138);" vector-effect="non-scaling-stroke"/></g><defs><path id="path-1672180209981520355" d="M20,9.5c0,0.398 -0.158,0.7795 -0.4395,1.0605c-0.281,0.2815 -0.6625,0.4395 -1.0605,0.4395h-17c-0.398,0 -0.7795,-0.158 -1.0605,-0.4395c-0.2815,-0.281 -0.4395,-0.6625 -0.4395,-1.0605v-8c0,-0.398 0.158,-0.7795 0.4395,-1.0605c0.281,-0.2815 0.6625,-0.4395 1.0605,-0.4395c3.284,0 13.716,0 17,0c0.398,0 0.7795,0.158 1.0605,0.4395c0.2815,0.281 0.4395,0.6625 0.4395,1.0605zM1,7.5415v1.9585c0,0.1325 0.0525,0.26 0.1465,0.3535c0.0935,0.094 0.221,0.1465 0.3535,0.1465h1.9585c-0.211,-1.2555 -1.203,-2.2475 -2.4585,-2.4585zM19,7.5185c-1.332,0.149 -2.4015,1.172 -2.6215,2.4815h2.1215c0.1325,0 0.26,-0.0525 0.3535,-0.1465c0.094,-0.0935 0.1465,-0.221 0.1465,-0.3535zM10,2.25c-1.7935,0 -3.25,1.4565 -3.25,3.25c0,1.7935 1.4565,3.25 3.25,3.25c1.7935,0 3.25,-1.4565 3.25,-3.25c0,-1.7935 -1.4565,-3.25 -3.25,-3.25zM10,3.25c1.242,0 2.25,1.008 2.25,2.25c0,1.242 -1.008,2.25 -2.25,2.25c-1.242,0 -2.25,-1.008 -2.25,-2.25c0,-1.242 1.008,-2.25 2.25,-2.25zM16.3785,1c0.22,1.3095 1.2895,2.3325 2.6215,2.4815v-1.9815c0,-0.1325 -0.0525,-0.26 -0.1465,-0.3535c-0.0935,-0.094 -0.221,-0.1465 -0.3535,-0.1465zM3.4585,1h-1.9585c-0.1325,0 -0.26,0.0525 -0.3535,0.1465c-0.094,0.0935 -0.1465,0.221 -0.1465,0.3535v1.9585c1.2555,-0.211 2.2475,-1.203 2.4585,-2.4585z" vector-effect="non-scaling-stroke"/></defs></g></svg>