<svg version="1.2" xmlns="http://www.w3.org/2000/svg" xmlns:xlink="http://www.w3.org/1999/xlink" overflow="visible" preserveAspectRatio="none" viewBox="0 0 36.00000313249551 36.00000000000001" width="36.00000313249551" height="36.00000000000001"><g transform="translate(0, 0)"><g transform="translate(-0.000003188823082475329, 5.467848396278896e-15) rotate(0)"><path d="M35.84837,35.7987c-0.11386,0.12804 -0.27702,0.2013 -0.44836,0.2013h-34.80002c-0.17134,0 -0.33451,-0.07326 -0.44836,-0.2013c-0.11386,-0.12804 -0.16754,-0.29865 -0.14751,-0.46882l2.4,-20.40003c0.03556,-0.30215 0.29164,-0.52987 0.59588,-0.52988h5.4v-5.40001c0.00413,-3.64337 2.95664,-6.59588 6.6,-6.60001h6c2.13573,0.0001 4.13939,1.03365 5.3775,2.77388l4.99823,-4.99808c0.11252,-0.11253 0.26514,-0.17575 0.42428,-0.17575c0.15914,0 0.31175,0.06322 0.42428,0.17575l2.4,2.4c0.11253,0.11252 0.17575,0.26514 0.17575,0.42428c0,0.15914 -0.06322,0.31175 -0.17575,0.42428l-6.34815,6.34816c0.29678,1.15238 0.30383,2.76083 -0.81263,4.62751h5.5365c0.30424,0.00001 0.56032,0.22772 0.59588,0.52988l2.4,20.40003c0.02003,0.17017 -0.03366,0.34078 -0.14751,0.46882zM32.46623,15.59997h-1.79873l1.70648,15.92545l2.22825,2.22825zM30.52111,34.8h3.43035l-2.05823,-2.05823zM31.18058,31.64789l-1.71938,-16.04792h-1.7862l2.13038,18.11035zM26.02485,14.39997c0.81345,-1.1163 1.56885,-2.72753 1.04595,-4.48066l-2.19098,-2.19098c-0.33741,-0.10063 -0.68645,-0.15707 -1.03838,-0.16793c0.1055,0.47258 0.15867,0.95534 0.15855,1.43955v5.15146l0.24855,0.24855zM13.2,8.99996v5.15146l4.95803,-4.95796c0.20865,-0.24435 1.79903,-2.03558 4.05255,-2.64188c-0.82506,-1.61742 -2.40641,-2.71314 -4.21058,-2.9175c-2.73119,0.30879 -4.79624,2.61729 -4.8,5.36588zM22.63913,7.69263c-1.45148,0.357 -2.628,1.3413 -3.20085,1.89705l3.36173,3.36173v-3.95146c0.00001,-0.44071 -0.05401,-0.87977 -0.16088,-1.30733zM14.64855,14.39997h7.9029l-3.95145,-3.95146zM28.55146,7.79996l-1.55145,-1.55145l-0.95145,0.95145l1.55145,1.55145zM27.84856,5.39995l1.55145,1.55145l3.95153,-3.95146l-1.55153,-1.55153zM21.19568,3.60363c0.98688,0.69604 1.76527,1.64801 2.25143,2.75348c0.53231,-0.02406 1.06521,0.03201 1.58085,0.16635l0.4866,-0.4866c-0.96045,-1.46283 -2.57008,-2.36969 -4.31888,-2.43323zM9.6,14.39997h2.4v-5.40001c0.00043,-2.14726 1.04593,-4.15994 2.80245,-5.39498c-2.90171,0.1091 -5.19882,2.49122 -5.20245,5.39498zM1.27499,34.8h27.45002l-2.25855,-19.20003h-2.46645v1.8c0,0.33137 -0.26863,0.6 -0.6,0.6c-0.33137,0 -0.6,-0.26863 -0.6,-0.6v-1.8h-13.20001v1.8c0,0.33137 -0.26863,0.6 -0.6,0.6c-0.33137,0 -0.6,-0.26863 -0.6,-0.6v-1.8h-4.86645zM24.99968,31.53157c0.01625,1.017 -0.59566,1.93643 -1.53298,2.30338c-0.93732,0.36695 -2.00128,0.10361 -2.66548,-0.65973c-0.45466,0.52423 -1.11045,0.82478 -1.79966,0.82478c-0.68921,0 -1.345,-0.30055 -1.79966,-0.82478c-0.45466,0.52423 -1.11045,0.82478 -1.79966,0.82478c-0.68921,0 -1.345,-0.30055 -1.79966,-0.82478c-0.75791,0.87202 -2.01979,1.07889 -3.01094,0.49361c-0.99115,-0.58528 -1.43413,-1.79888 -1.05699,-2.89576c0.37715,-1.09687 1.46884,-1.76996 2.60488,-1.60606c-0.12171,-0.20676 -0.21217,-0.4308 -0.26837,-0.66466c-0.65283,-0.08265 -1.65576,-0.38029 -2.83603,-1.3089c-0.71185,-0.5588 -1.35136,-1.20609 -1.90344,-1.92658c-0.13491,-0.17044 -0.16898,-0.40107 -0.08922,-0.60399c0.07975,-0.20292 0.26104,-0.34685 0.47476,-0.37694c0.21372,-0.03009 0.42694,0.05831 0.55838,0.2315c0.31591,0.41053 0.66316,0.79534 1.03855,1.15089c0.14599,-0.30466 0.30706,-0.60167 0.48261,-0.8899c-0.22146,-0.23493 -0.42534,-0.48622 -0.60993,-0.75178c-0.78937,-1.14141 -1.05407,-2.36235 -0.76538,-3.53108c0.04053,-0.16406 0.14683,-0.30358 0.29331,-0.38496c0.14648,-0.08138 0.31985,-0.09723 0.47837,-0.04375l1.06742,0.36003c0.10805,-0.90235 0.41969,-2.33981 1.3181,-3.24907c0.12708,-0.12861 0.30444,-0.19279 0.48328,-0.17487c0.17884,0.01792 0.34032,0.11604 0.44002,0.26738l0.98464,1.49506l3.21689,-0.54255c0.20434,-0.03447 0.41179,0.04019 0.54874,0.19751c0.13695,0.15731 0.18401,0.37501 0.12448,0.57583l-0.85484,2.88342c0.57279,0.07814 1.09838,0.36317 1.47992,0.80255c0.81661,-0.93926 2.20491,-1.09633 3.20629,-0.36275c1.00138,0.73358 1.28766,2.11739 0.66117,3.19593c0.83272,0.09426 1.55644,0.62159 1.90893,1.39093c0.35249,0.76934 0.28264,1.66911 -0.18426,2.37329c0.94855,0.33609 1.58951,1.23501 1.60575,2.25202zM11.89113,27.27792c0.1347,-0.48736 0.41612,-0.92013 0.80512,-1.23809c-0.01605,0.00053 -0.03224,0.00053 -0.04814,0.00053c-0.73101,0.0026 -1.45281,-0.16502 -2.10957,-0.48988c-0.17685,0.29098 -0.33246,0.59465 -0.46559,0.90857c0.76838,0.54095 1.40081,0.74518 1.81818,0.81857zM17.8018,26.71442c-0.66262,0 -1.19977,0.54364 -1.19977,1.21426c0,0.67062 0.53716,1.21426 1.19977,1.21426c0.66262,0 1.19977,-0.54364 1.19977,-1.21426c-0.00079,-0.67029 -0.53748,-1.21347 -1.19977,-1.21426zM13.00271,27.92869c0,0.67062 0.53716,1.21426 1.19977,1.21426c0.66262,0 1.19977,-0.54364 1.19977,-1.21426c0,-0.67062 -0.53716,-1.21426 -1.19977,-1.21426c-0.66229,0.00079 -1.19899,0.54397 -1.19977,1.21426zM21.40111,26.71442c-0.66262,0 -1.19977,0.54364 -1.19977,1.21426c0,0.67062 0.53716,1.21426 1.19977,1.21426c0.66262,0 1.19977,-0.54364 1.19977,-1.21426c-0.00079,-0.67029 -0.53748,-1.21347 -1.19977,-1.21426zM18.40168,24.2859c0,0.67062 0.53716,1.21426 1.19977,1.21426c0.66262,0 1.19977,-0.54364 1.19977,-1.21426c0,-0.67062 -0.53716,-1.21426 -1.19977,-1.21426c-0.66229,0.00079 -1.19899,0.54397 -1.19977,1.21426zM16.00214,23.07163c-0.66262,0 -1.19977,0.54364 -1.19977,1.21426c0,0.67062 0.53716,1.21426 1.19977,1.21426c0.66262,0 1.19977,-0.54364 1.19977,-1.21426c-0.00079,-0.67029 -0.53748,-1.21347 -1.19977,-1.21426zM9.30824,21.45363c0.0093,0.94675 0.52243,1.75575 0.97481,2.28653c0.56074,-0.7769 1.46687,-1.87657 2.42999,-2.41403c0.18813,-0.11179 0.42139,-0.1114 0.60916,0.00101c0.18776,0.11242 0.30043,0.31913 0.29421,0.53984c-0.00621,0.2207 -0.13032,0.4206 -0.32411,0.52201c-0.70112,0.3913 -1.47039,1.26929 -2.08925,2.13931c0.76934,0.33292 1.62762,0.39139 2.43411,0.16582c-0.18464,-1.08793 0.38028,-2.16472 1.37419,-2.61932l0.73928,-2.49417l-2.64917,0.44708c-0.23283,0.03927 -0.46676,-0.0633 -0.59771,-0.26205l-0.72331,-1.098c-0.56554,1.08973 -0.57739,2.56544 -0.57739,2.58342c-0.00044,0.19494 -0.09329,0.37783 -0.24963,0.4917c-0.15634,0.11387 -0.35718,0.14489 -0.53997,0.0834zM13.00271,31.57148c0,-0.67062 -0.53716,-1.21426 -1.19977,-1.21426c-0.66262,0 -1.19977,0.54364 -1.19977,1.21426c0,0.67062 0.53716,1.21426 1.19977,1.21426c0.66229,-0.00079 1.19899,-0.54397 1.19977,-1.21426zM16.60203,31.57148c0,-0.67062 -0.53716,-1.21426 -1.19977,-1.21426c-0.66262,0 -1.19977,0.54364 -1.19977,1.21426c0,0.67062 0.53716,1.21426 1.19977,1.21426c0.66229,-0.00079 1.19899,-0.54397 1.19977,-1.21426zM20.20134,31.57148c0,-0.67062 -0.53716,-1.21426 -1.19977,-1.21426c-0.66262,0 -1.19977,0.54364 -1.19977,1.21426c0,0.67062 0.53716,1.21426 1.19977,1.21426c0.66229,-0.00079 1.19899,-0.54397 1.19977,-1.21426zM23.80065,31.57148c0,-0.67062 -0.53716,-1.21426 -1.19977,-1.21426c-0.66262,0 -1.19977,0.54364 -1.19977,1.21426c0,0.67062 0.53716,1.21426 1.19977,1.21426c0.66229,-0.00079 1.19899,-0.54397 1.19977,-1.21426z" style="stroke-width: 0; stroke-linecap: butt; stroke-linejoin: miter; fill: rgb(223, 22, 131);" vector-effect="non-scaling-stroke"/></g><defs><path id="path-1673967729005352559" d="M35.84837,35.7987c-0.11386,0.12804 -0.27702,0.2013 -0.44836,0.2013h-34.80002c-0.17134,0 -0.33451,-0.07326 -0.44836,-0.2013c-0.11386,-0.12804 -0.16754,-0.29865 -0.14751,-0.46882l2.4,-20.40003c0.03556,-0.30215 0.29164,-0.52987 0.59588,-0.52988h5.4v-5.40001c0.00413,-3.64337 2.95664,-6.59588 6.6,-6.60001h6c2.13573,0.0001 4.13939,1.03365 5.3775,2.77388l4.99823,-4.99808c0.11252,-0.11253 0.26514,-0.17575 0.42428,-0.17575c0.15914,0 0.31175,0.06322 0.42428,0.17575l2.4,2.4c0.11253,0.11252 0.17575,0.26514 0.17575,0.42428c0,0.15914 -0.06322,0.31175 -0.17575,0.42428l-6.34815,6.34816c0.29678,1.15238 0.30383,2.76083 -0.81263,4.62751h5.5365c0.30424,0.00001 0.56032,0.22772 0.59588,0.52988l2.4,20.40003c0.02003,0.17017 -0.03366,0.34078 -0.14751,0.46882zM32.46623,15.59997h-1.79873l1.70648,15.92545l2.22825,2.22825zM30.52111,34.8h3.43035l-2.05823,-2.05823zM31.18058,31.64789l-1.71938,-16.04792h-1.7862l2.13038,18.11035zM26.02485,14.39997c0.81345,-1.1163 1.56885,-2.72753 1.04595,-4.48066l-2.19098,-2.19098c-0.33741,-0.10063 -0.68645,-0.15707 -1.03838,-0.16793c0.1055,0.47258 0.15867,0.95534 0.15855,1.43955v5.15146l0.24855,0.24855zM13.2,8.99996v5.15146l4.95803,-4.95796c0.20865,-0.24435 1.79903,-2.03558 4.05255,-2.64188c-0.82506,-1.61742 -2.40641,-2.71314 -4.21058,-2.9175c-2.73119,0.30879 -4.79624,2.61729 -4.8,5.36588zM22.63913,7.69263c-1.45148,0.357 -2.628,1.3413 -3.20085,1.89705l3.36173,3.36173v-3.95146c0.00001,-0.44071 -0.05401,-0.87977 -0.16088,-1.30733zM14.64855,14.39997h7.9029l-3.95145,-3.95146zM28.55146,7.79996l-1.55145,-1.55145l-0.95145,0.95145l1.55145,1.55145zM27.84856,5.39995l1.55145,1.55145l3.95153,-3.95146l-1.55153,-1.55153zM21.19568,3.60363c0.98688,0.69604 1.76527,1.64801 2.25143,2.75348c0.53231,-0.02406 1.06521,0.03201 1.58085,0.16635l0.4866,-0.4866c-0.96045,-1.46283 -2.57008,-2.36969 -4.31888,-2.43323zM9.6,14.39997h2.4v-5.40001c0.00043,-2.14726 1.04593,-4.15994 2.80245,-5.39498c-2.90171,0.1091 -5.19882,2.49122 -5.20245,5.39498zM1.27499,34.8h27.45002l-2.25855,-19.20003h-2.46645v1.8c0,0.33137 -0.26863,0.6 -0.6,0.6c-0.33137,0 -0.6,-0.26863 -0.6,-0.6v-1.8h-13.20001v1.8c0,0.33137 -0.26863,0.6 -0.6,0.6c-0.33137,0 -0.6,-0.26863 -0.6,-0.6v-1.8h-4.86645zM24.99968,31.53157c0.01625,1.017 -0.59566,1.93643 -1.53298,2.30338c-0.93732,0.36695 -2.00128,0.10361 -2.66548,-0.65973c-0.45466,0.52423 -1.11045,0.82478 -1.79966,0.82478c-0.68921,0 -1.345,-0.30055 -1.79966,-0.82478c-0.45466,0.52423 -1.11045,0.82478 -1.79966,0.82478c-0.68921,0 -1.345,-0.30055 -1.79966,-0.82478c-0.75791,0.87202 -2.01979,1.07889 -3.01094,0.49361c-0.99115,-0.58528 -1.43413,-1.79888 -1.05699,-2.89576c0.37715,-1.09687 1.46884,-1.76996 2.60488,-1.60606c-0.12171,-0.20676 -0.21217,-0.4308 -0.26837,-0.66466c-0.65283,-0.08265 -1.65576,-0.38029 -2.83603,-1.3089c-0.71185,-0.5588 -1.35136,-1.20609 -1.90344,-1.92658c-0.13491,-0.17044 -0.16898,-0.40107 -0.08922,-0.60399c0.07975,-0.20292 0.26104,-0.34685 0.47476,-0.37694c0.21372,-0.03009 0.42694,0.05831 0.55838,0.2315c0.31591,0.41053 0.66316,0.79534 1.03855,1.15089c0.14599,-0.30466 0.30706,-0.60167 0.48261,-0.8899c-0.22146,-0.23493 -0.42534,-0.48622 -0.60993,-0.75178c-0.78937,-1.14141 -1.05407,-2.36235 -0.76538,-3.53108c0.04053,-0.16406 0.14683,-0.30358 0.29331,-0.38496c0.14648,-0.08138 0.31985,-0.09723 0.47837,-0.04375l1.06742,0.36003c0.10805,-0.90235 0.41969,-2.33981 1.3181,-3.24907c0.12708,-0.12861 0.30444,-0.19279 0.48328,-0.17487c0.17884,0.01792 0.34032,0.11604 0.44002,0.26738l0.98464,1.49506l3.21689,-0.54255c0.20434,-0.03447 0.41179,0.04019 0.54874,0.19751c0.13695,0.15731 0.18401,0.37501 0.12448,0.57583l-0.85484,2.88342c0.57279,0.07814 1.09838,0.36317 1.47992,0.80255c0.81661,-0.93926 2.20491,-1.09633 3.20629,-0.36275c1.00138,0.73358 1.28766,2.11739 0.66117,3.19593c0.83272,0.09426 1.55644,0.62159 1.90893,1.39093c0.35249,0.76934 0.28264,1.66911 -0.18426,2.37329c0.94855,0.33609 1.58951,1.23501 1.60575,2.25202zM11.89113,27.27792c0.1347,-0.48736 0.41612,-0.92013 0.80512,-1.23809c-0.01605,0.00053 -0.03224,0.00053 -0.04814,0.00053c-0.73101,0.0026 -1.45281,-0.16502 -2.10957,-0.48988c-0.17685,0.29098 -0.33246,0.59465 -0.46559,0.90857c0.76838,0.54095 1.40081,0.74518 1.81818,0.81857zM17.8018,26.71442c-0.66262,0 -1.19977,0.54364 -1.19977,1.21426c0,0.67062 0.53716,1.21426 1.19977,1.21426c0.66262,0 1.19977,-0.54364 1.19977,-1.21426c-0.00079,-0.67029 -0.53748,-1.21347 -1.19977,-1.21426zM13.00271,27.92869c0,0.67062 0.53716,1.21426 1.19977,1.21426c0.66262,0 1.19977,-0.54364 1.19977,-1.21426c0,-0.67062 -0.53716,-1.21426 -1.19977,-1.21426c-0.66229,0.00079 -1.19899,0.54397 -1.19977,1.21426zM21.40111,26.71442c-0.66262,0 -1.19977,0.54364 -1.19977,1.21426c0,0.67062 0.53716,1.21426 1.19977,1.21426c0.66262,0 1.19977,-0.54364 1.19977,-1.21426c-0.00079,-0.67029 -0.53748,-1.21347 -1.19977,-1.21426zM18.40168,24.2859c0,0.67062 0.53716,1.21426 1.19977,1.21426c0.66262,0 1.19977,-0.54364 1.19977,-1.21426c0,-0.67062 -0.53716,-1.21426 -1.19977,-1.21426c-0.66229,0.00079 -1.19899,0.54397 -1.19977,1.21426zM16.00214,23.07163c-0.66262,0 -1.19977,0.54364 -1.19977,1.21426c0,0.67062 0.53716,1.21426 1.19977,1.21426c0.66262,0 1.19977,-0.54364 1.19977,-1.21426c-0.00079,-0.67029 -0.53748,-1.21347 -1.19977,-1.21426zM9.30824,21.45363c0.0093,0.94675 0.52243,1.75575 0.97481,2.28653c0.56074,-0.7769 1.46687,-1.87657 2.42999,-2.41403c0.18813,-0.11179 0.42139,-0.1114 0.60916,0.00101c0.18776,0.11242 0.30043,0.31913 0.29421,0.53984c-0.00621,0.2207 -0.13032,0.4206 -0.32411,0.52201c-0.70112,0.3913 -1.47039,1.26929 -2.08925,2.13931c0.76934,0.33292 1.62762,0.39139 2.43411,0.16582c-0.18464,-1.08793 0.38028,-2.16472 1.37419,-2.61932l0.73928,-2.49417l-2.64917,0.44708c-0.23283,0.03927 -0.46676,-0.0633 -0.59771,-0.26205l-0.72331,-1.098c-0.56554,1.08973 -0.57739,2.56544 -0.57739,2.58342c-0.00044,0.19494 -0.09329,0.37783 -0.24963,0.4917c-0.15634,0.11387 -0.35718,0.14489 -0.53997,0.0834zM13.00271,31.57148c0,-0.67062 -0.53716,-1.21426 -1.19977,-1.21426c-0.66262,0 -1.19977,0.54364 -1.19977,1.21426c0,0.67062 0.53716,1.21426 1.19977,1.21426c0.66229,-0.00079 1.19899,-0.54397 1.19977,-1.21426zM16.60203,31.57148c0,-0.67062 -0.53716,-1.21426 -1.19977,-1.21426c-0.66262,0 -1.19977,0.54364 -1.19977,1.21426c0,0.67062 0.53716,1.21426 1.19977,1.21426c0.66229,-0.00079 1.19899,-0.54397 1.19977,-1.21426zM20.20134,31.57148c0,-0.67062 -0.53716,-1.21426 -1.19977,-1.21426c-0.66262,0 -1.19977,0.54364 -1.19977,1.21426c0,0.67062 0.53716,1.21426 1.19977,1.21426c0.66229,-0.00079 1.19899,-0.54397 1.19977,-1.21426zM23.80065,31.57148c0,-0.67062 -0.53716,-1.21426 -1.19977,-1.21426c-0.66262,0 -1.19977,0.54364 -1.19977,1.21426c0,0.67062 0.53716,1.21426 1.19977,1.21426c0.66229,-0.00079 1.19899,-0.54397 1.19977,-1.21426z" vector-effect="non-scaling-stroke"/></defs></g></svg>