<svg version="1.2" xmlns="http://www.w3.org/2000/svg" xmlns:xlink="http://www.w3.org/1999/xlink" overflow="visible" preserveAspectRatio="none" viewBox="0 0 24 14.999999999999998" width="24" height="14.999999999999998"><g transform="translate(0, 0)"><g transform="translate(0, 0) rotate(0)"><path d="M24,11.93878h-24v1.22449c0,1.01449 0.8058,1.83673 1.8,1.83673h20.4c0.9942,0 1.8,-0.82224 1.8,-1.83673zM24,10.71429h-24v-1.83673h24zM0,1.92c0,-1.06048 0.8058,-1.92 1.8,-1.92c3.9408,0 16.4592,0 20.4,0c0.9942,0 1.8,0.85952 1.8,1.92v6.08h-24zM20.4,5.12h-2.7c-0.3312,0 -0.6,0.28672 -0.6,0.64c0,0.35328 0.2688,0.64 0.6,0.64h2.7c0.3312,0 0.6,-0.28672 0.6,-0.64c0,-0.35328 -0.2688,-0.64 -0.6,-0.64zM20.4,2.88h-4.8c-0.3312,0 -0.6,0.28672 -0.6,0.64c0,0.35328 0.2688,0.64 0.6,0.64h4.8c0.3312,0 0.6,-0.28672 0.6,-0.64c0,-0.35328 -0.2688,-0.64 -0.6,-0.64z" style="stroke-width: 0; stroke-linecap: butt; stroke-linejoin: miter; fill: rgb(223, 22, 131);" vector-effect="non-scaling-stroke"/></g><defs><path id="path-167779309024718911" d="M24,11.93878h-24v1.22449c0,1.01449 0.8058,1.83673 1.8,1.83673h20.4c0.9942,0 1.8,-0.82224 1.8,-1.83673zM24,10.71429h-24v-1.83673h24zM0,1.92c0,-1.06048 0.8058,-1.92 1.8,-1.92c3.9408,0 16.4592,0 20.4,0c0.9942,0 1.8,0.85952 1.8,1.92v6.08h-24zM20.4,5.12h-2.7c-0.3312,0 -0.6,0.28672 -0.6,0.64c0,0.35328 0.2688,0.64 0.6,0.64h2.7c0.3312,0 0.6,-0.28672 0.6,-0.64c0,-0.35328 -0.2688,-0.64 -0.6,-0.64zM20.4,2.88h-4.8c-0.3312,0 -0.6,0.28672 -0.6,0.64c0,0.35328 0.2688,0.64 0.6,0.64h4.8c0.3312,0 0.6,-0.28672 0.6,-0.64c0,-0.35328 -0.2688,-0.64 -0.6,-0.64z" vector-effect="non-scaling-stroke"/></defs></g></svg>