<svg version="1.2" xmlns="http://www.w3.org/2000/svg" xmlns:xlink="http://www.w3.org/1999/xlink" overflow="visible" preserveAspectRatio="none" viewBox="0 0 15.000000000000002 24.00001" width="15.000000000000002" height="24.00001"><g transform="translate(0, 0)"><g transform="translate(-1.3322676295501878e-15, 0.000010000000000509601) rotate(0)"><path style="stroke-width: 0; stroke-linecap: butt; stroke-linejoin: miter; fill: rgb(138, 138, 138);" d="M15,5.49998v16.5c0,1.10306 -0.74746,2.00002 -1.66664,2.00002h-11.66668c-0.91922,0 -1.66668,-0.89695 -1.66668,-1.99997v-20.00002c0,-1.10306 0.74746,-2.00002 1.66664,-2.00002h8.75c0.1107,0 0.21648,0.05273 0.29461,0.14648l4.16668,5.00002c0.07813,0.09375 0.12207,0.22069 0.12207,0.35348zM10.83332,4.00003c0,0.55125 0.37395,0.99998 0.83332,0.99998h1.91082l-2.74414,-3.29297zM14.16668,6h-2.5c-0.91922,0 -1.66668,-0.89695 -1.66668,-1.99997v-3h-8.33332c-0.45938,0 -0.83332,0.44873 -0.83332,0.99998v19.99997c0,0.55125 0.37395,0.99998 0.83332,0.99998h11.66668c0.45938,0 0.83332,-0.44873 0.83332,-0.99998zM11.16664,11.87497c0.59529,0 1.83335,0 1.83335,0.8866c0,0.45081 -0.23856,0.98842 -1.375,0.98842c-0.41044,0 -1.25774,-0.46181 -2.0249,-0.94447c-0.95739,0.14611 -2.17039,0.37941 -3.14613,0.69434c-0.93994,1.56885 -2.22677,2.50013 -3.07897,2.50013c-0.66107,0 -1.375,-0.33286 -1.375,-0.87047c0,-0.74046 0.9668,-1.11547 2.43044,-1.68237c0.32093,-0.12452 0.66692,-0.25854 1.03125,-0.4076c0.10115,-0.04138 0.20591,-0.08128 0.31376,-0.12048c0.13252,-0.24244 0.25781,-0.50463 0.37331,-0.78771c0.23989,-0.58996 0.45341,-1.11329 0.63512,-1.56702c-0.74254,-0.78954 -1.11719,-1.46886 -1.11719,-2.02844c0,-1.26932 0.74791,-1.5359 1.375,-1.5359c0.82534,0 1.375,0.25527 1.375,1.50001c0,0.29299 -0.18485,0.84266 -0.6065,1.9087c0.27032,0.26367 0.58141,0.54053 0.93053,0.82617c0.26855,0.21973 0.67182,0.50059 1.09613,0.77379c0.64904,-0.08898 1.14495,-0.13366 1.3298,-0.1337zM5.00424,14.05469c-0.06132,0.0238 -0.12177,0.0469 -0.18129,0.06996c-0.93728,0.36327 -1.90631,0.73898 -1.90631,1.00487c0.01925,0.01941 0.1965,0.12048 0.45835,0.12048c0.26005,0 0.94084,-0.37863 1.62925,-1.19531zM7.13523,9.67117c0.2359,-0.61745 0.3648,-1.01296 0.3648,-1.17116c0,-0.74999 -0.13428,-0.74999 -0.45835,-0.74999c-0.16023,0 -0.45835,0 -0.45835,0.78588c0,0.29334 0.19198,0.68189 0.55189,1.13526zM8.67544,12.19177c-0.28381,-0.19811 -0.49685,-0.35631 -0.58279,-0.42662c-0.21979,-0.17979 -0.42479,-0.35522 -0.61501,-0.52661c-0.13651,0.33764 -0.28961,0.71265 -0.45968,1.13013c-0.02686,0.06666 -0.05461,0.13257 -0.08327,0.19775c0.57471,-0.14906 1.1758,-0.27394 1.74075,-0.37466zM11.16664,12.62503c-0.05371,0 -0.14906,0.00587 -0.27839,0.01758c0.3563,0.19849 0.645,0.33764 0.76987,0.35961c0.42522,-0.00221 0.42522,-0.07214 0.42522,-0.24061c-0.04744,-0.08241 -0.23946,-0.13658 -0.9167,-0.13658z" vector-effect="non-scaling-stroke"/></g><defs><path id="path-1674319544461492" d="M15,5.49998v16.5c0,1.10306 -0.74746,2.00002 -1.66664,2.00002h-11.66668c-0.91922,0 -1.66668,-0.89695 -1.66668,-1.99997v-20.00002c0,-1.10306 0.74746,-2.00002 1.66664,-2.00002h8.75c0.1107,0 0.21648,0.05273 0.29461,0.14648l4.16668,5.00002c0.07813,0.09375 0.12207,0.22069 0.12207,0.35348zM10.83332,4.00003c0,0.55125 0.37395,0.99998 0.83332,0.99998h1.91082l-2.74414,-3.29297zM14.16668,6h-2.5c-0.91922,0 -1.66668,-0.89695 -1.66668,-1.99997v-3h-8.33332c-0.45938,0 -0.83332,0.44873 -0.83332,0.99998v19.99997c0,0.55125 0.37395,0.99998 0.83332,0.99998h11.66668c0.45938,0 0.83332,-0.44873 0.83332,-0.99998zM11.16664,11.87497c0.59529,0 1.83335,0 1.83335,0.8866c0,0.45081 -0.23856,0.98842 -1.375,0.98842c-0.41044,0 -1.25774,-0.46181 -2.0249,-0.94447c-0.95739,0.14611 -2.17039,0.37941 -3.14613,0.69434c-0.93994,1.56885 -2.22677,2.50013 -3.07897,2.50013c-0.66107,0 -1.375,-0.33286 -1.375,-0.87047c0,-0.74046 0.9668,-1.11547 2.43044,-1.68237c0.32093,-0.12452 0.66692,-0.25854 1.03125,-0.4076c0.10115,-0.04138 0.20591,-0.08128 0.31376,-0.12048c0.13252,-0.24244 0.25781,-0.50463 0.37331,-0.78771c0.23989,-0.58996 0.45341,-1.11329 0.63512,-1.56702c-0.74254,-0.78954 -1.11719,-1.46886 -1.11719,-2.02844c0,-1.26932 0.74791,-1.5359 1.375,-1.5359c0.82534,0 1.375,0.25527 1.375,1.50001c0,0.29299 -0.18485,0.84266 -0.6065,1.9087c0.27032,0.26367 0.58141,0.54053 0.93053,0.82617c0.26855,0.21973 0.67182,0.50059 1.09613,0.77379c0.64904,-0.08898 1.14495,-0.13366 1.3298,-0.1337zM5.00424,14.05469c-0.06132,0.0238 -0.12177,0.0469 -0.18129,0.06996c-0.93728,0.36327 -1.90631,0.73898 -1.90631,1.00487c0.01925,0.01941 0.1965,0.12048 0.45835,0.12048c0.26005,0 0.94084,-0.37863 1.62925,-1.19531zM7.13523,9.67117c0.2359,-0.61745 0.3648,-1.01296 0.3648,-1.17116c0,-0.74999 -0.13428,-0.74999 -0.45835,-0.74999c-0.16023,0 -0.45835,0 -0.45835,0.78588c0,0.29334 0.19198,0.68189 0.55189,1.13526zM8.67544,12.19177c-0.28381,-0.19811 -0.49685,-0.35631 -0.58279,-0.42662c-0.21979,-0.17979 -0.42479,-0.35522 -0.61501,-0.52661c-0.13651,0.33764 -0.28961,0.71265 -0.45968,1.13013c-0.02686,0.06666 -0.05461,0.13257 -0.08327,0.19775c0.57471,-0.14906 1.1758,-0.27394 1.74075,-0.37466zM11.16664,12.62503c-0.05371,0 -0.14906,0.00587 -0.27839,0.01758c0.3563,0.19849 0.645,0.33764 0.76987,0.35961c0.42522,-0.00221 0.42522,-0.07214 0.42522,-0.24061c-0.04744,-0.08241 -0.23946,-0.13658 -0.9167,-0.13658z" vector-effect="non-scaling-stroke"/></defs></g></svg>