<svg version="1.2" xmlns="http://www.w3.org/2000/svg" xmlns:xlink="http://www.w3.org/1999/xlink" overflow="visible" preserveAspectRatio="none" viewBox="0 0 18.999999999999922 20" width="18.999999999999922" height="20"><g transform="translate(0, 0)"><g transform="translate(7.497109622564904e-14, 0) rotate(0)"><path d="M13.07938,10.6215l-3.19974,3.6985c-0.09392,0.114 -0.23283,0.18 -0.37964,0.18c-0.14681,0 -0.28572,-0.066 -0.37964,-0.18l-3.19974,-3.6985c-3.32925,1.443 -5.72473,4.837 -5.91998,8.854c-0.00692,0.1365 0.04251,0.27 0.13544,0.3695c0.09343,0.099 0.22294,0.155 0.35838,0.155h18.01107c0.13544,0 0.26496,-0.056 0.35838,-0.155c0.09293,-0.0995 0.14236,-0.233 0.13544,-0.3695c-0.19526,-4.017 -2.59073,-7.411 -5.91998,-8.854zM6.92113,10.256l2.57887,2.963l2.57887,-2.963c-0.82057,-0.246 -1.68563,-0.3775 -2.57887,-0.3775c-0.89324,0 -1.7583,0.1315 -2.57887,0.3775zM9.5,0c-2.34605,0 -4.25066,1.9265 -4.25066,4.2995c0,2.373 1.90462,4.2995 4.25066,4.2995c2.34605,0 4.25066,-1.9265 4.25066,-4.2995c0,-2.373 -1.90462,-4.2995 -4.25066,-4.2995z" style="stroke-width: 0; stroke-linecap: butt; stroke-linejoin: miter; fill: rgb(138, 138, 138);" vector-effect="non-scaling-stroke"/></g><defs><path id="path-1672255493410191284" d="M13.07938,10.6215l-3.19974,3.6985c-0.09392,0.114 -0.23283,0.18 -0.37964,0.18c-0.14681,0 -0.28572,-0.066 -0.37964,-0.18l-3.19974,-3.6985c-3.32925,1.443 -5.72473,4.837 -5.91998,8.854c-0.00692,0.1365 0.04251,0.27 0.13544,0.3695c0.09343,0.099 0.22294,0.155 0.35838,0.155h18.01107c0.13544,0 0.26496,-0.056 0.35838,-0.155c0.09293,-0.0995 0.14236,-0.233 0.13544,-0.3695c-0.19526,-4.017 -2.59073,-7.411 -5.91998,-8.854zM6.92113,10.256l2.57887,2.963l2.57887,-2.963c-0.82057,-0.246 -1.68563,-0.3775 -2.57887,-0.3775c-0.89324,0 -1.7583,0.1315 -2.57887,0.3775zM9.5,0c-2.34605,0 -4.25066,1.9265 -4.25066,4.2995c0,2.373 1.90462,4.2995 4.25066,4.2995c2.34605,0 4.25066,-1.9265 4.25066,-4.2995c0,-2.373 -1.90462,-4.2995 -4.25066,-4.2995z" vector-effect="non-scaling-stroke"/></defs></g></svg>