<svg version="1.2" xmlns="http://www.w3.org/2000/svg" xmlns:xlink="http://www.w3.org/1999/xlink" overflow="visible" preserveAspectRatio="none" viewBox="0 0 15.000009928797994 16" width="15.000009928797994" height="16"><g transform="translate(0, 0)"><g transform="translate(-0.00000123519219384311, 0) rotate(0)"><path d="M10.32583,8.4972l-2.52611,2.9588c-0.07415,0.0912 -0.18381,0.144 -0.29971,0.144c-0.11591,0 -0.22557,-0.0528 -0.29971,-0.144l-2.52611,-2.9588c-2.62836,1.1544 -4.51952,3.8696 -4.67367,7.0832c-0.00546,0.1092 0.03356,0.216 0.10693,0.2956c0.07376,0.0792 0.176,0.124 0.28293,0.124h14.21927c0.10693,0 0.20918,-0.0448 0.28293,-0.124c0.07337,-0.0796 0.11239,-0.1864 0.10693,-0.2956c-0.15415,-3.2136 -2.04532,-5.9288 -4.67367,-7.0832zM5.46406,8.2048l2.03595,2.3704l2.03595,-2.3704c-0.64782,-0.1968 -1.33076,-0.302 -2.03595,-0.302c-0.70519,0 -1.38813,0.1052 -2.03595,0.302zM7.50001,0c-1.85214,0 -3.35579,1.5412 -3.35579,3.4396c0,1.8984 1.50365,3.4396 3.35579,3.4396c1.85214,0 3.35579,-1.5412 3.35579,-3.4396c0,-1.8984 -1.50365,-3.4396 -3.35579,-3.4396z" style="stroke-width: 0; stroke-linecap: butt; stroke-linejoin: miter; fill: rgb(138, 138, 138);" vector-effect="non-scaling-stroke"/></g><defs><path id="path-1672180209981520331" d="M10.32583,8.4972l-2.52611,2.9588c-0.07415,0.0912 -0.18381,0.144 -0.29971,0.144c-0.11591,0 -0.22557,-0.0528 -0.29971,-0.144l-2.52611,-2.9588c-2.62836,1.1544 -4.51952,3.8696 -4.67367,7.0832c-0.00546,0.1092 0.03356,0.216 0.10693,0.2956c0.07376,0.0792 0.176,0.124 0.28293,0.124h14.21927c0.10693,0 0.20918,-0.0448 0.28293,-0.124c0.07337,-0.0796 0.11239,-0.1864 0.10693,-0.2956c-0.15415,-3.2136 -2.04532,-5.9288 -4.67367,-7.0832zM5.46406,8.2048l2.03595,2.3704l2.03595,-2.3704c-0.64782,-0.1968 -1.33076,-0.302 -2.03595,-0.302c-0.70519,0 -1.38813,0.1052 -2.03595,0.302zM7.50001,0c-1.85214,0 -3.35579,1.5412 -3.35579,3.4396c0,1.8984 1.50365,3.4396 3.35579,3.4396c1.85214,0 3.35579,-1.5412 3.35579,-3.4396c0,-1.8984 -1.50365,-3.4396 -3.35579,-3.4396z" vector-effect="non-scaling-stroke"/></defs></g></svg>