<svg version="1.2" xmlns="http://www.w3.org/2000/svg" xmlns:xlink="http://www.w3.org/1999/xlink" overflow="visible" preserveAspectRatio="none" viewBox="0 0 268 268" width="268" height="268"><g transform="translate(0, 0)"><g transform="translate(0, 0) rotate(0)"><path d="M89,0v89h-89v-89zM68.05882,20.94118h-47.11765v47.11765h47.11765zM34.02344,54.96093v-20.9375h20.9375v20.9375zM268,0v89h-89v-89zM247.05882,20.94118h-47.11765v47.11765h47.11765zM213.03906,54.96093v-20.9375h20.9375v20.9375zM89,179v89h-89v-89zM68.05882,199.94118h-47.11765v47.11765h47.11765zM34.02344,233.97655v-20.9375h20.9375v20.9375zM20.9375,124.05468v-20.9375h20.9375v20.9375zM83.22656,144.99218v20.9375h-20.9375v-20.9375h-20.41406v-20.9375h20.9375v20.9375zM146.5625,61.24218v-20.9375h20.9375v20.9375zM104.6875,61.24218v-40.30469h20.9375v40.30469zM125.625,20.9375v-20.9375h20.9375v20.9375zM146.5625,61.24218v41.875h-41.875v-20.9375h20.9375v-20.9375zM188.4375,185.8203v20.9375h-41.875v-20.41406h-20.9375v-20.41406h-20.9375v-41.875h20.9375v41.35156h20.9375v20.41406zM146.5625,144.99218v-41.875h20.9375v41.875zM268,123.66387v40.33613h-58.94737v-19.66387h-21.05263v-20.16807h20.52632v-20.16807h38.42105v19.66387zM246.94737,124.16807h-37.89474v19.66387h37.89474zM247.0625,227.6953v-41.875h20.9375v41.875zM167.5,165.92968v-20.9375h20.9375v20.9375zM188.4375,227.6953v-20.9375h20.9375v20.9375zM209.375,206.7578v-20.9375h20.9375v20.9375zM247.0625,227.6953v20.9375h-16.75v19.36719h-20.9375v-40.30469zM104.6875,226.12499v-39.78125h20.9375v39.78125zM187.91406,247.06249v20.9375h-20.9375v-20.9375h-20.41406v20.9375h-20.9375v-41.875h41.875v20.9375zM62.8125,124.05468v-20.9375h41.875v20.9375zM0,165.92968v-41.875h20.9375v41.875z" style="stroke-width: 0; stroke-linecap: butt; stroke-linejoin: miter; fill: rgb(59, 59, 59);" vector-effect="non-scaling-stroke"/></g><defs><path id="path-167707809634349158" d="M89,0v89h-89v-89zM68.05882,20.94118h-47.11765v47.11765h47.11765zM34.02344,54.96093v-20.9375h20.9375v20.9375zM268,0v89h-89v-89zM247.05882,20.94118h-47.11765v47.11765h47.11765zM213.03906,54.96093v-20.9375h20.9375v20.9375zM89,179v89h-89v-89zM68.05882,199.94118h-47.11765v47.11765h47.11765zM34.02344,233.97655v-20.9375h20.9375v20.9375zM20.9375,124.05468v-20.9375h20.9375v20.9375zM83.22656,144.99218v20.9375h-20.9375v-20.9375h-20.41406v-20.9375h20.9375v20.9375zM146.5625,61.24218v-20.9375h20.9375v20.9375zM104.6875,61.24218v-40.30469h20.9375v40.30469zM125.625,20.9375v-20.9375h20.9375v20.9375zM146.5625,61.24218v41.875h-41.875v-20.9375h20.9375v-20.9375zM188.4375,185.8203v20.9375h-41.875v-20.41406h-20.9375v-20.41406h-20.9375v-41.875h20.9375v41.35156h20.9375v20.41406zM146.5625,144.99218v-41.875h20.9375v41.875zM268,123.66387v40.33613h-58.94737v-19.66387h-21.05263v-20.16807h20.52632v-20.16807h38.42105v19.66387zM246.94737,124.16807h-37.89474v19.66387h37.89474zM247.0625,227.6953v-41.875h20.9375v41.875zM167.5,165.92968v-20.9375h20.9375v20.9375zM188.4375,227.6953v-20.9375h20.9375v20.9375zM209.375,206.7578v-20.9375h20.9375v20.9375zM247.0625,227.6953v20.9375h-16.75v19.36719h-20.9375v-40.30469zM104.6875,226.12499v-39.78125h20.9375v39.78125zM187.91406,247.06249v20.9375h-20.9375v-20.9375h-20.41406v20.9375h-20.9375v-41.875h41.875v20.9375zM62.8125,124.05468v-20.9375h41.875v20.9375zM0,165.92968v-41.875h20.9375v41.875z" vector-effect="non-scaling-stroke"/></defs></g></svg>