<svg version="1.2" xmlns="http://www.w3.org/2000/svg" xmlns:xlink="http://www.w3.org/1999/xlink" overflow="visible" preserveAspectRatio="none" viewBox="0 0 19.99996461832933 20.00000571400906" width="19.99996461832933" height="20.00000571400906"><g transform="translate(0, 0)"><g transform="translate(-0.000029999043725759984, -0.000010144464587958507) rotate(0)"><path d="M12.2739,2.00951c0.03359,-0.16717 0.08303,-0.32724 0.14644,-0.47889c0.4468,-1.06871 1.58733,-1.71878 2.76204,-1.48203c0.01598,0.00327 0.03195,0.00655 0.048,0.0099c0.00978,0.00202 0.01957,0.00407 0.02938,0.00613c2.34801,0.49499 4.18231,2.33463 4.67587,4.68947c0.00547,0.02601 0.01074,0.05191 0.0159,0.07765c0.26965,1.34531 -0.61387,2.64584 -1.95516,2.9169c-3.14903,0.63642 -5.42322,2.26932 -6.60123,4.05478l-0.01145,-0.00468c0.2409,0.25026 0.48081,0.50152 0.71974,0.75377c0.60057,0.63405 0.61139,1.62697 0.02881,2.26167c0.04586,0.04832 0.0917,0.09667 0.13752,0.14504c0.96668,1.02058 0.94672,2.64149 -0.06621,3.61592c-0.53738,0.51689 -1.15711,0.9512 -1.85918,1.30288c-0.16052,-0.14972 -0.32078,-0.2997 -0.48078,-0.44993c-0.11516,0.09261 -0.23402,0.18154 -0.35668,0.2669c-0.08793,0.06131 -0.17785,0.12117 -0.26984,0.17837c-0.32402,0.20235 -0.74465,0.15823 -1.02324,-0.10366c-2.02816,-1.90502 -4.00887,-3.85822 -5.94242,-5.85871c0,0.00001 -0.00001,0.00002 -0.00001,0.00002c-0.68672,-0.71034 -1.36707,-1.42648 -2.04184,-2.14881c-0.15112,-0.16173 -0.22954,-0.37148 -0.22953,-0.5825c0,-0.1532 0.04132,-0.30708 0.12617,-0.44376c0.13715,-0.22043 0.28504,-0.42989 0.44386,-0.62844c-0.14973,-0.1604 -0.29921,-0.32106 -0.44843,-0.48197c0.35066,-0.70415 0.78371,-1.32568 1.2991,-1.86459c0.80436,-0.84105 2.05059,-0.99951 3.03317,-0.47901c0.20433,0.1082 0.39726,0.24575 0.57246,0.41261c0.04818,0.04591 0.09634,0.09185 0.14448,0.13781c0.6328,-0.58436 1.6226,-0.57342 2.25502,0.02884c0.0998,0.0951 0.19943,0.19037 0.29891,0.28579c0.16885,0.1619 0.33726,0.32424 0.50521,0.48704l0.00069,-0.00424c1.63112,-1.08218 3.13444,-3.08744 3.86311,-5.84425c0.06671,-0.25241 0.12692,-0.51113 0.18014,-0.77602z" style="stroke-width: 0; stroke-linecap: butt; stroke-linejoin: miter; fill: rgb(255, 255, 255);" vector-effect="non-scaling-stroke"/></g><defs><path id="path-167698967191767596" d="M12.2739,2.00951c0.03359,-0.16717 0.08303,-0.32724 0.14644,-0.47889c0.4468,-1.06871 1.58733,-1.71878 2.76204,-1.48203c0.01598,0.00327 0.03195,0.00655 0.048,0.0099c0.00978,0.00202 0.01957,0.00407 0.02938,0.00613c2.34801,0.49499 4.18231,2.33463 4.67587,4.68947c0.00547,0.02601 0.01074,0.05191 0.0159,0.07765c0.26965,1.34531 -0.61387,2.64584 -1.95516,2.9169c-3.14903,0.63642 -5.42322,2.26932 -6.60123,4.05478l-0.01145,-0.00468c0.2409,0.25026 0.48081,0.50152 0.71974,0.75377c0.60057,0.63405 0.61139,1.62697 0.02881,2.26167c0.04586,0.04832 0.0917,0.09667 0.13752,0.14504c0.96668,1.02058 0.94672,2.64149 -0.06621,3.61592c-0.53738,0.51689 -1.15711,0.9512 -1.85918,1.30288c-0.16052,-0.14972 -0.32078,-0.2997 -0.48078,-0.44993c-0.11516,0.09261 -0.23402,0.18154 -0.35668,0.2669c-0.08793,0.06131 -0.17785,0.12117 -0.26984,0.17837c-0.32402,0.20235 -0.74465,0.15823 -1.02324,-0.10366c-2.02816,-1.90502 -4.00887,-3.85822 -5.94242,-5.85871c0,0.00001 -0.00001,0.00002 -0.00001,0.00002c-0.68672,-0.71034 -1.36707,-1.42648 -2.04184,-2.14881c-0.15112,-0.16173 -0.22954,-0.37148 -0.22953,-0.5825c0,-0.1532 0.04132,-0.30708 0.12617,-0.44376c0.13715,-0.22043 0.28504,-0.42989 0.44386,-0.62844c-0.14973,-0.1604 -0.29921,-0.32106 -0.44843,-0.48197c0.35066,-0.70415 0.78371,-1.32568 1.2991,-1.86459c0.80436,-0.84105 2.05059,-0.99951 3.03317,-0.47901c0.20433,0.1082 0.39726,0.24575 0.57246,0.41261c0.04818,0.04591 0.09634,0.09185 0.14448,0.13781c0.6328,-0.58436 1.6226,-0.57342 2.25502,0.02884c0.0998,0.0951 0.19943,0.19037 0.29891,0.28579c0.16885,0.1619 0.33726,0.32424 0.50521,0.48704l0.00069,-0.00424c1.63112,-1.08218 3.13444,-3.08744 3.86311,-5.84425c0.06671,-0.25241 0.12692,-0.51113 0.18014,-0.77602z" vector-effect="non-scaling-stroke"/></defs></g></svg>