<svg version="1.2" xmlns="http://www.w3.org/2000/svg" xmlns:xlink="http://www.w3.org/1999/xlink" overflow="visible" preserveAspectRatio="none" viewBox="0 0 24 24" width="24" height="24"><g><path xmlns:default="http://www.w3.org/2000/svg" id="paper-plane" d="M21.01,2.82c-0.11-0.07-0.24-0.11-0.37-0.11c-0.12,0-0.23,0.03-0.33,0.09l-17.3,9.99  c-0.32,0.18-0.43,0.58-0.25,0.9c0.07,0.13,0.19,0.24,0.33,0.29l4.12,1.68l11.13-9.63l-9,11v3.63c0,0.28,0.18,0.52,0.44,0.62  c0.08,0.02,0.15,0.02,0.23,0c0.2,0.01,0.39-0.08,0.51-0.24l2.49-3.01l4.72,1.93c0.09,0.04,0.18,0.07,0.28,0.07  c0.11,0,0.22-0.03,0.32-0.08c0.18-0.1,0.3-0.27,0.33-0.47l2.67-16C21.36,3.21,21.24,2.95,21.01,2.82L21.01,2.82z" style="fill: rgb(223, 22, 131);" vector-effect="non-scaling-stroke"/></g></svg>