<svg version="1.2" xmlns="http://www.w3.org/2000/svg" xmlns:xlink="http://www.w3.org/1999/xlink" overflow="visible" preserveAspectRatio="none" viewBox="0 0 20.0004103987224 18.26255861904189" width="20.0004103987224" height="18.26255861904189"><g transform="translate(0, 0)"><g transform="translate(0.0003938260886622441, 0.2625318704377206) rotate(0)"><path d="M4.04411,5.1487l0.57256,-1.05074c0.20618,-0.37855 0.7449,-0.02768 0.53898,0.3503l-0.41263,0.75724l2.94498,1.92812l2.65896,-4.8472l-0.52186,-0.95129c-0.19286,-0.35144 -0.51886,-0.59372 -0.85453,-0.64537l-1.10239,-0.00599h-0.00562c-0.40492,0 -0.78423,0.23572 -0.99133,0.61569l-0.78358,1.43828c-0.20618,0.37855 -0.7449,0.02768 -0.53911,-0.3503l0.78371,-1.43799c0.3196,-0.58701 0.90561,-0.95058 1.53031,-0.95058c0.53875,0 1.07759,0 1.61647,0c-0.20884,-0.20884 -0.46536,-0.46536 0,0c1.38006,0 2.7604,0 4.14034,0c0.63501,0 1.22639,0.37412 1.54324,0.97812l1.3692,2.60959l0.99329,-0.65022c0.25453,-0.16666 0.56576,0.12913 0.45,0.42735l-1.14496,2.94956l0.51241,-0.27712c0.1415,-0.07668 0.32009,-0.02727 0.39904,0.11014l2.04695,3.55872c0.28728,0.49951 0.28153,1.11702 -0.01518,1.61141c-0.90309,1.5052 -1.79064,3.02123 -2.6881,4.53083c-0.29536,0.50415 -0.85046,0.81755 -1.4484,0.81767h-0.00539l-2.57929,-0.00798l0.01775,1.05582c0.00453,0.27029 -0.36121,0.39258 -0.52829,0.1767l-2.48234,-3.20364c-0.07687,-0.09895 -0.0792,-0.23505 -0.00575,-0.3365l2.37402,-3.28033c0.1601,-0.22112 0.52964,-0.11038 0.53405,0.15991l0.01922,1.15512h3.30036l-2.37683,-4.16146c-0.07871,-0.138 -0.02766,-0.31197 0.11408,-0.38865l0.04035,-0.02182l-2.50189,-0.24654c-0.29543,-0.02897 -0.38754,-0.46815 -0.13314,-0.63467l1.08266,-0.70887l-1.79372,-3.26923l-2.64772,4.8268c-0.08702,0.15867 -0.28654,0.21189 -0.4304,0.11772l-1.6614,-1.0877l1.62172,2.71333c0.1359,0.22737 -0.17532,0.47133 -0.44959,0.35269l-1.16744,-0.50461l-1.71434,2.62564l5.39554,-0.01157c0.08184,0 0.17601,0.03194 0.23239,0.07779c0.06186,0.04986 0.09676,0.11775 0.09704,0.18864l0.01109,3.45912c0.00055,0.14735 -0.14549,0.2671 -0.32655,0.26788l-0.94216,0.00434c-0.42291,0 -0.4251,-0.53243 -0.0037,-0.53432l0.61465,-0.00278l-0.00958,-2.9258l-5.41785,0.01169l-0.49886,0.76381c-0.18449,0.28246 -0.20721,0.6179 -0.06788,0.88389l0.59138,0.80677c0.2183,0.29782 0.61739,0.48268 1.04481,0.47968l1.70408,-0.0079c0.42291,0 0.4251,0.53232 0.00356,0.53432l-1.70408,0.00779c-0.79148,0.00401 -1.35631,-0.38708 -1.74432,-0.91027c-0.99198,-1.33875 -1.98123,-2.67873 -2.97184,-4.01792c-0.34845,-0.46443 -0.36282,-1.04994 -0.03654,-1.52684l1.40243,-2.05014l-1.0715,-0.4632c-0.27441,-0.11853 -0.19982,-0.46465 0.10785,-0.50027l4.14188,-0.47977l-0.6629,-0.43399c-0.14817,-0.09703 -0.19665,-0.30663 -0.10832,-0.46887zM16.25689,7.78997c-0.04952,0.12756 -0.16359,0.20889 -0.28863,0.20889c-0.00941,0 -0.01868,-0.00043 -0.02835,-0.00143l-0.85831,-0.08458l-0.52093,0.28182l2.39262,4.18933h0.91448c0.24762,-0.00429 0.57064,-0.07859 0.81117,-0.37722l0.58705,-0.97854c0.19217,-0.3203 0.19585,-0.72063 0.00979,-1.04427l-1.90386,-3.30998l-0.43637,0.23612c-0.12459,0.06748 -0.24279,0.03821 -0.32393,-0.03396zM10.36315,0.98439l2.84228,5.18037c0.08911,0.16238 0.04077,0.3727 -0.1078,0.46987l-0.52617,0.34445l2.561,0.25225l0.09017,-0.04877c0.15561,-0.08416 0.30118,-0.01768 0.37714,0.0948l0.16884,0.01663l1.25317,-3.22842l-0.44203,0.28923c-0.07213,0.04737 -0.15888,0.06093 -0.24042,0.03767c-0.0814,-0.02312 -0.15104,-0.08133 -0.19286,-0.16109l-1.52808,-2.91266c-0.20527,-0.39139 -0.5885,-0.63353 -1.001,-0.63353h-0.00627l-3.44907,-0.00328c0.07408,0.09317 0.14164,0.19405 0.20109,0.3025zM16.57555,15.56264l1.56334,-2.62912c-0.08519,0.01322 -0.17332,0.02072 -0.2639,0.02215h-5.18317c-0.16047,0 -0.2912,-0.12515 -0.29377,-0.28113l-0.0093,-0.55893l-1.7314,2.39264l1.81035,2.33644l-0.00783,-0.46974c-0.00135,-0.0768 0.02925,-0.15075 0.08458,-0.2054c0.05545,-0.05454 0.1322,-0.0849 0.21017,-0.0849l2.87868,0.00869c0.0011,0 0.00233,0 0.00343,0c0.38741,0 0.74691,-0.20314 0.93883,-0.53071zM15.13672,15.59334c-1,-1 0,0 0,0zM2.83578,13.04501l2.71645,-4.1606c0.04079,-0.06266 0.11059,-0.1094 0.19393,-0.1301c0.08335,-0.0207 0.17327,-0.0138 0.25046,0.01948l0.56702,0.24518l-1.47032,-2.45992l-3.32878,0.38552l0.47697,0.20612c0.07801,0.03372 0.13577,0.09148 0.16081,0.16026c0.02505,0.06878 0.01478,0.1429 -0.02792,0.20556l-1.56516,2.2882c-0.21145,0.30895 -0.20215,0.68846 0.02422,0.99018l1.8627,2.51813c0.03627,-0.09137 0.0828,-0.18119 0.1396,-0.268z" style="stroke-width: 0; stroke-linecap: butt; stroke-linejoin: miter; fill: rgb(138, 138, 138);" vector-effect="non-scaling-stroke"/></g><defs><path id="path-1674012990824189163" d="M4.04411,5.1487l0.57256,-1.05074c0.20618,-0.37855 0.7449,-0.02768 0.53898,0.3503l-0.41263,0.75724l2.94498,1.92812l2.65896,-4.8472l-0.52186,-0.95129c-0.19286,-0.35144 -0.51886,-0.59372 -0.85453,-0.64537l-1.10239,-0.00599h-0.00562c-0.40492,0 -0.78423,0.23572 -0.99133,0.61569l-0.78358,1.43828c-0.20618,0.37855 -0.7449,0.02768 -0.53911,-0.3503l0.78371,-1.43799c0.3196,-0.58701 0.90561,-0.95058 1.53031,-0.95058c0.53875,0 1.07759,0 1.61647,0c-0.20884,-0.20884 -0.46536,-0.46536 0,0c1.38006,0 2.7604,0 4.14034,0c0.63501,0 1.22639,0.37412 1.54324,0.97812l1.3692,2.60959l0.99329,-0.65022c0.25453,-0.16666 0.56576,0.12913 0.45,0.42735l-1.14496,2.94956l0.51241,-0.27712c0.1415,-0.07668 0.32009,-0.02727 0.39904,0.11014l2.04695,3.55872c0.28728,0.49951 0.28153,1.11702 -0.01518,1.61141c-0.90309,1.5052 -1.79064,3.02123 -2.6881,4.53083c-0.29536,0.50415 -0.85046,0.81755 -1.4484,0.81767h-0.00539l-2.57929,-0.00798l0.01775,1.05582c0.00453,0.27029 -0.36121,0.39258 -0.52829,0.1767l-2.48234,-3.20364c-0.07687,-0.09895 -0.0792,-0.23505 -0.00575,-0.3365l2.37402,-3.28033c0.1601,-0.22112 0.52964,-0.11038 0.53405,0.15991l0.01922,1.15512h3.30036l-2.37683,-4.16146c-0.07871,-0.138 -0.02766,-0.31197 0.11408,-0.38865l0.04035,-0.02182l-2.50189,-0.24654c-0.29543,-0.02897 -0.38754,-0.46815 -0.13314,-0.63467l1.08266,-0.70887l-1.79372,-3.26923l-2.64772,4.8268c-0.08702,0.15867 -0.28654,0.21189 -0.4304,0.11772l-1.6614,-1.0877l1.62172,2.71333c0.1359,0.22737 -0.17532,0.47133 -0.44959,0.35269l-1.16744,-0.50461l-1.71434,2.62564l5.39554,-0.01157c0.08184,0 0.17601,0.03194 0.23239,0.07779c0.06186,0.04986 0.09676,0.11775 0.09704,0.18864l0.01109,3.45912c0.00055,0.14735 -0.14549,0.2671 -0.32655,0.26788l-0.94216,0.00434c-0.42291,0 -0.4251,-0.53243 -0.0037,-0.53432l0.61465,-0.00278l-0.00958,-2.9258l-5.41785,0.01169l-0.49886,0.76381c-0.18449,0.28246 -0.20721,0.6179 -0.06788,0.88389l0.59138,0.80677c0.2183,0.29782 0.61739,0.48268 1.04481,0.47968l1.70408,-0.0079c0.42291,0 0.4251,0.53232 0.00356,0.53432l-1.70408,0.00779c-0.79148,0.00401 -1.35631,-0.38708 -1.74432,-0.91027c-0.99198,-1.33875 -1.98123,-2.67873 -2.97184,-4.01792c-0.34845,-0.46443 -0.36282,-1.04994 -0.03654,-1.52684l1.40243,-2.05014l-1.0715,-0.4632c-0.27441,-0.11853 -0.19982,-0.46465 0.10785,-0.50027l4.14188,-0.47977l-0.6629,-0.43399c-0.14817,-0.09703 -0.19665,-0.30663 -0.10832,-0.46887zM16.25689,7.78997c-0.04952,0.12756 -0.16359,0.20889 -0.28863,0.20889c-0.00941,0 -0.01868,-0.00043 -0.02835,-0.00143l-0.85831,-0.08458l-0.52093,0.28182l2.39262,4.18933h0.91448c0.24762,-0.00429 0.57064,-0.07859 0.81117,-0.37722l0.58705,-0.97854c0.19217,-0.3203 0.19585,-0.72063 0.00979,-1.04427l-1.90386,-3.30998l-0.43637,0.23612c-0.12459,0.06748 -0.24279,0.03821 -0.32393,-0.03396zM10.36315,0.98439l2.84228,5.18037c0.08911,0.16238 0.04077,0.3727 -0.1078,0.46987l-0.52617,0.34445l2.561,0.25225l0.09017,-0.04877c0.15561,-0.08416 0.30118,-0.01768 0.37714,0.0948l0.16884,0.01663l1.25317,-3.22842l-0.44203,0.28923c-0.07213,0.04737 -0.15888,0.06093 -0.24042,0.03767c-0.0814,-0.02312 -0.15104,-0.08133 -0.19286,-0.16109l-1.52808,-2.91266c-0.20527,-0.39139 -0.5885,-0.63353 -1.001,-0.63353h-0.00627l-3.44907,-0.00328c0.07408,0.09317 0.14164,0.19405 0.20109,0.3025zM16.57555,15.56264l1.56334,-2.62912c-0.08519,0.01322 -0.17332,0.02072 -0.2639,0.02215h-5.18317c-0.16047,0 -0.2912,-0.12515 -0.29377,-0.28113l-0.0093,-0.55893l-1.7314,2.39264l1.81035,2.33644l-0.00783,-0.46974c-0.00135,-0.0768 0.02925,-0.15075 0.08458,-0.2054c0.05545,-0.05454 0.1322,-0.0849 0.21017,-0.0849l2.87868,0.00869c0.0011,0 0.00233,0 0.00343,0c0.38741,0 0.74691,-0.20314 0.93883,-0.53071zM15.13672,15.59334c-1,-1 0,0 0,0zM2.83578,13.04501l2.71645,-4.1606c0.04079,-0.06266 0.11059,-0.1094 0.19393,-0.1301c0.08335,-0.0207 0.17327,-0.0138 0.25046,0.01948l0.56702,0.24518l-1.47032,-2.45992l-3.32878,0.38552l0.47697,0.20612c0.07801,0.03372 0.13577,0.09148 0.16081,0.16026c0.02505,0.06878 0.01478,0.1429 -0.02792,0.20556l-1.56516,2.2882c-0.21145,0.30895 -0.20215,0.68846 0.02422,0.99018l1.8627,2.51813c0.03627,-0.09137 0.0828,-0.18119 0.1396,-0.268z" vector-effect="non-scaling-stroke"/></defs></g></svg>