<svg version="1.2" xmlns="http://www.w3.org/2000/svg" xmlns:xlink="http://www.w3.org/1999/xlink" overflow="visible" preserveAspectRatio="none" viewBox="0 0 19.999990000000004 20.00001" width="19.999990000000004" height="20.00001"><g transform="translate(0, 0)"><g transform="translate(0.00001999999999757751, -0.000009999999998733244) rotate(0)"><path d="M13.88889,18.04348h5.60764l-2.10503,-13.91304h-3.28559v1.14783c0.17013,0.09839 0.25307,0.29898 0.20222,0.48906c-0.05084,0.19008 -0.2228,0.32225 -0.41924,0.32225c-0.19644,0 -0.3684,-0.13217 -0.41924,-0.32225c-0.05084,-0.19008 0.0321,-0.39067 0.20222,-0.48906v-2.45217c0,-1.32068 -1.06876,-2.3913 -2.38715,-2.3913c-1.31839,0 -2.38715,1.07062 -2.38715,2.3913v0.86957h4.34028v0.43478h-4.34028v1.14783c0.17013,0.09839 0.25307,0.29898 0.20222,0.48906c-0.05084,0.19008 -0.2228,0.32225 -0.41924,0.32225c-0.19644,0 -0.3684,-0.13217 -0.41924,-0.32225c-0.05084,-0.19008 0.0321,-0.39067 0.20222,-0.48906v-1.14783h-3.07509l-1.04818,6.30435h9.11458v9.56522h-13.45486v-6.73913h0.43403v1.73913h6.72743c-0.37566,-0.14051 -0.69863,-0.39417 -0.92448,-0.72609c-0.22352,-0.38261 -0.21701,-0.82826 0.02387,-1.32391c0.13475,-0.27469 0.42497,-0.43736 0.72917,-0.4087c0.5013,0.02174 1.15234,0.43478 1.47352,1.18043v-2.85217h-8.02951v1.08696h-0.43403v-1.52174h3.90625l1.11762,-6.73913h3.43967v-0.86957c0,-1.5608 1.26309,-2.82609 2.82118,-2.82609c1.55809,0 2.82118,1.26528 2.82118,2.82609v0.86957h3.65885l2.23524,14.78261h-6.11111zM9.1645,14.87609c0.62066,-0.13261 1.3303,-0.38913 1.58637,-0.82391c0.14974,-0.26087 0.13672,-0.55217 -0.03906,-0.91304c-0.05497,-0.11075 -0.17217,-0.17636 -0.29514,-0.16522h-0.02821c-0.37109,0.01522 -0.8941,0.38696 -1.12196,0.98043c-0.10966,0.29405 -0.1447,0.61077 -0.102,0.92174zM6.61241,14.05217c0.25825,0.43913 0.96571,0.6913 1.58203,0.82391c0.04192,-0.31115 0.00613,-0.62785 -0.10417,-0.92174c-0.22786,-0.59348 -0.7487,-0.96522 -1.12196,-0.98043h-0.02387c-0.12171,-0.0106 -0.23765,0.05392 -0.29297,0.16304c-0.17361,0.36087 -0.18663,0.6587 -0.03906,0.91304zM0.43403,19.56522h8.02734v-3.97391c-0.26956,0.66049 -0.67988,1.25403 -1.20226,1.73913l-0.30382,-0.31087c0.47904,-0.44089 0.85541,-0.98193 1.10243,-1.58478h-7.6237zM13.02083,19.56522v-4.13043h-3.71745c0.24584,0.60421 0.62149,1.14676 1.10026,1.58913l-0.30382,0.31087c-0.52238,-0.4851 -0.93269,-1.07864 -1.20226,-1.73913v3.96957zM13.02083,10.86957h-4.13194v2.85c0.32118,-0.74565 0.97439,-1.1587 1.47352,-1.18043c0.30433,-0.02931 0.59489,0.13355 0.72917,0.4087c0.24089,0.49565 0.24089,0.9413 0.02387,1.32391c-0.22324,0.33132 -0.54303,0.58563 -0.9158,0.72826h2.82118zM0.00005,12.39129h0.43478v0.43478h-0.43478z" style="stroke-width: 0; stroke-linecap: butt; stroke-linejoin: miter; fill: rgb(138, 138, 138);" vector-effect="non-scaling-stroke"/></g><defs><path id="path-1674015675983396885" d="M13.88889,18.04348h5.60764l-2.10503,-13.91304h-3.28559v1.14783c0.17013,0.09839 0.25307,0.29898 0.20222,0.48906c-0.05084,0.19008 -0.2228,0.32225 -0.41924,0.32225c-0.19644,0 -0.3684,-0.13217 -0.41924,-0.32225c-0.05084,-0.19008 0.0321,-0.39067 0.20222,-0.48906v-2.45217c0,-1.32068 -1.06876,-2.3913 -2.38715,-2.3913c-1.31839,0 -2.38715,1.07062 -2.38715,2.3913v0.86957h4.34028v0.43478h-4.34028v1.14783c0.17013,0.09839 0.25307,0.29898 0.20222,0.48906c-0.05084,0.19008 -0.2228,0.32225 -0.41924,0.32225c-0.19644,0 -0.3684,-0.13217 -0.41924,-0.32225c-0.05084,-0.19008 0.0321,-0.39067 0.20222,-0.48906v-1.14783h-3.07509l-1.04818,6.30435h9.11458v9.56522h-13.45486v-6.73913h0.43403v1.73913h6.72743c-0.37566,-0.14051 -0.69863,-0.39417 -0.92448,-0.72609c-0.22352,-0.38261 -0.21701,-0.82826 0.02387,-1.32391c0.13475,-0.27469 0.42497,-0.43736 0.72917,-0.4087c0.5013,0.02174 1.15234,0.43478 1.47352,1.18043v-2.85217h-8.02951v1.08696h-0.43403v-1.52174h3.90625l1.11762,-6.73913h3.43967v-0.86957c0,-1.5608 1.26309,-2.82609 2.82118,-2.82609c1.55809,0 2.82118,1.26528 2.82118,2.82609v0.86957h3.65885l2.23524,14.78261h-6.11111zM9.1645,14.87609c0.62066,-0.13261 1.3303,-0.38913 1.58637,-0.82391c0.14974,-0.26087 0.13672,-0.55217 -0.03906,-0.91304c-0.05497,-0.11075 -0.17217,-0.17636 -0.29514,-0.16522h-0.02821c-0.37109,0.01522 -0.8941,0.38696 -1.12196,0.98043c-0.10966,0.29405 -0.1447,0.61077 -0.102,0.92174zM6.61241,14.05217c0.25825,0.43913 0.96571,0.6913 1.58203,0.82391c0.04192,-0.31115 0.00613,-0.62785 -0.10417,-0.92174c-0.22786,-0.59348 -0.7487,-0.96522 -1.12196,-0.98043h-0.02387c-0.12171,-0.0106 -0.23765,0.05392 -0.29297,0.16304c-0.17361,0.36087 -0.18663,0.6587 -0.03906,0.91304zM0.43403,19.56522h8.02734v-3.97391c-0.26956,0.66049 -0.67988,1.25403 -1.20226,1.73913l-0.30382,-0.31087c0.47904,-0.44089 0.85541,-0.98193 1.10243,-1.58478h-7.6237zM13.02083,19.56522v-4.13043h-3.71745c0.24584,0.60421 0.62149,1.14676 1.10026,1.58913l-0.30382,0.31087c-0.52238,-0.4851 -0.93269,-1.07864 -1.20226,-1.73913v3.96957zM13.02083,10.86957h-4.13194v2.85c0.32118,-0.74565 0.97439,-1.1587 1.47352,-1.18043c0.30433,-0.02931 0.59489,0.13355 0.72917,0.4087c0.24089,0.49565 0.24089,0.9413 0.02387,1.32391c-0.22324,0.33132 -0.54303,0.58563 -0.9158,0.72826h2.82118zM0.00005,12.39129h0.43478v0.43478h-0.43478z" vector-effect="non-scaling-stroke"/></defs></g></svg>