<svg version="1.2" xmlns="http://www.w3.org/2000/svg" xmlns:xlink="http://www.w3.org/1999/xlink" overflow="visible" preserveAspectRatio="none" viewBox="0 0 8.999999999999998 19.99998" width="8.999999999999998" height="19.99998"><g transform="translate(0, 0)"><g transform="translate(-0.000007499999999924234, -0.000009999999999843467) rotate(0)"><path d="M8.99991,7.66667c-0.00092,0.24674 -0.10528,0.48438 -0.29241,0.66667c0.39001,0.37679 0.39001,0.95654 0,1.33333c0.39001,0.37679 0.39001,0.95654 0,1.33333c0.39001,0.37679 0.39001,0.95654 0,1.33333c0.39001,0.37679 0.39001,0.95654 0,1.33333c0.39001,0.37679 0.39001,0.95654 0,1.33333c0.18713,0.18229 0.2915,0.41992 0.29241,0.66667v2c-0.00165,1.28809 -1.17589,2.33187 -2.62496,2.33333h-3.74994c-1.44907,-0.00146 -2.62331,-1.04525 -2.62496,-2.33333v-2c0.00092,-0.24674 0.10528,-0.48437 0.2926,-0.66667c-0.39019,-0.37679 -0.39019,-0.95654 0,-1.33333c-0.39019,-0.37679 -0.39019,-0.95654 0,-1.33333c-0.39019,-0.37679 -0.39019,-0.95654 0,-1.33333c-0.39019,-0.37679 -0.39019,-0.95654 0,-1.33333c-0.39019,-0.37679 -0.39019,-0.95654 0,-1.33333c-0.18731,-0.18229 -0.29168,-0.41992 -0.2926,-0.66667v-0.45231c0.00146,-1.07633 0.65001,-2.06966 1.70066,-2.60465l0.35723,-0.18164c0.35028,-0.17855 0.56634,-0.5096 0.56707,-0.86833v-0.89307h-0.37499c-0.20709,0 -0.37499,-0.14925 -0.37499,-0.33333v-1.33333c0,-0.55225 0.50372,-1 1.12498,-1h2.99995c0.62127,0 1.12498,0.44775 1.12498,1v1.33333c0,0.18408 -0.16791,0.33333 -0.37499,0.33333h-0.37499v0.89307c0.00073,0.35872 0.21698,0.68978 0.56707,0.86833l0.35723,0.18164c1.05064,0.53499 1.69938,1.52832 1.70066,2.60465zM2.62501,2h3.74994v-1c0,-0.18408 -0.16791,-0.33333 -0.37499,-0.33333h-2.99995c-0.20709,0 -0.37499,0.14925 -0.37499,0.33333zM0.75003,7.66667c0,0.18408 0.16791,0.33333 0.37499,0.33333h6.7499c0.20709,0 0.37499,-0.14925 0.37499,-0.33333v-0.41245c-0.03905,-0.02238 -0.06521,-0.04888 -0.07462,-0.07744c-0.00844,-0.02204 -0.02022,-0.04367 -0.03517,-0.06478c-0.00375,0.03588 -0.00833,0.07115 -0.01372,0.1056c-0.01657,0.10783 -0.03967,0.20739 -0.0685,0.29391c-0.06261,0.16261 -0.14529,0.25478 -0.23164,0.25826c-0.02087,-0.0013 -0.04158,-0.00739 -0.06197,-0.01783c-0.02167,-0.00826 -0.04254,-0.02609 -0.06197,-0.05348c-0.02087,-0.01957 -0.04078,-0.04652 -0.0591,-0.08l-0.04859,-0.10696c-0.02947,-0.08522 -0.05273,-0.18478 -0.0685,-0.29391c-0.01673,-0.10696 -0.02565,-0.22174 -0.02613,-0.33826c0.00032,-0.03006 0.00101,-0.06012 0.0021,-0.09012c-0.12377,-0.0527 -0.15483,-0.13594 -0.0637,-0.20377c0.02362,-0.01756 0.05352,-0.03265 0.08781,-0.04504c0.00716,-0.05671 0.01701,-0.11039 0.02923,-0.15976c0.01211,-0.04652 0.02517,-0.0913 0.03919,-0.13348c0.07713,-0.19433 0.1789,-0.27407 0.27626,-0.23922c-0.22728,-0.3344 -0.54895,-0.61856 -0.94352,-0.81964l-0.35742,-0.18164c-0.58355,-0.29736 -0.94389,-0.84912 -0.94499,-1.44694v-0.89307h-2.24997v0.89307c-0.0011,0.59782 -0.36144,1.14958 -0.94499,1.44694l-0.35742,0.18164c-0.817,0.41634 -1.32127,1.18896 -1.32255,2.02604zM8.14607,6.56641c-0.0086,-0.02639 -0.01772,-0.05262 -0.02735,-0.07867c0.00283,0.01749 0.0054,0.03528 0.00769,0.05335c0.0013,0.00679 0.00254,0.01366 0.00373,0.0206c0.00533,0.00156 0.01064,0.00314 0.01593,0.00473zM7.87493,8.66667h-6.7499c-0.20709,0 -0.37499,0.14925 -0.37499,0.33333c0,0.18408 0.16791,0.33333 0.37499,0.33333h6.7499c0.20709,0 0.37499,-0.14925 0.37499,-0.33333c0,-0.18408 -0.16791,-0.33333 -0.37499,-0.33333zM7.87493,10h-6.7499c-0.20709,0 -0.37499,0.14925 -0.37499,0.33333c0,0.18408 0.16791,0.33333 0.37499,0.33333h6.7499c0.20709,0 0.37499,-0.14925 0.37499,-0.33333c0,-0.18408 -0.16791,-0.33333 -0.37499,-0.33333zM7.87493,11.33333h-6.7499c-0.20709,0 -0.37499,0.14925 -0.37499,0.33333c0,0.18408 0.16791,0.33333 0.37499,0.33333h6.7499c0.20709,0 0.37499,-0.14925 0.37499,-0.33333c0,-0.18408 -0.16791,-0.33333 -0.37499,-0.33333zM7.87493,12.66667h-6.7499c-0.20709,0 -0.37499,0.14925 -0.37499,0.33333c0,0.18408 0.16791,0.33333 0.37499,0.33333h6.7499c0.20709,0 0.37499,-0.14925 0.37499,-0.33333c0,-0.18408 -0.16791,-0.33333 -0.37499,-0.33333zM7.87493,14h-6.7499c-0.20709,0 -0.37499,0.14925 -0.37499,0.33333c0,0.18408 0.16791,0.33333 0.37499,0.33333h6.7499c0.20709,0 0.37499,-0.14925 0.37499,-0.33333c0,-0.18408 -0.16791,-0.33333 -0.37499,-0.33333zM8.24992,15.66667c0,-0.18408 -0.16791,-0.33333 -0.37499,-0.33333h-6.7499c-0.20709,0 -0.37499,0.14925 -0.37499,0.33333v2c0.00128,0.92008 0.83989,1.66553 1.87497,1.66667h3.74994c0.4222,-0.00046 0.81172,-0.12476 1.12505,-0.33424c0,-0.00005 0,-0.00011 0,-0.00016c0,-0.04757 0.0568,-0.08737 0.1328,-0.09737c0.07498,-0.06039 0.14443,-0.12609 0.20763,-0.19643v-0.10534c0,-0.05261 0.06946,-0.09571 0.15754,-0.09951c0.15986,-0.24518 0.25153,-0.52987 0.25196,-0.83361zM8.09615,16.80898c0.00382,0.06256 0.00588,0.12609 0.00632,0.19011c0,0.55274 -0.13488,1.0009 -0.30124,1.0009c-0.16636,0 -0.30124,-0.44816 -0.30124,-1.0009c0.00059,-0.06402 0.0025,-0.12756 0.00603,-0.19011c0.00279,-0.06647 0.00897,-0.13049 0.01809,-0.19011c0.00662,-0.06402 0.01574,-0.12462 0.02706,-0.18034c0.01118,-0.05229 0.02324,-0.10263 0.03618,-0.15004c0.02883,-0.09041 0.06251,-0.16177 0.09943,-0.21015c0.11223,-0.15688 0.24166,-0.0738 0.3283,0.21015l0.03618,0.15004c0.01133,0.0562 0.02045,0.1168 0.02706,0.18034c0.00927,0.05914 0.0153,0.12365 0.0178,0.19011zM7,16.11887c-1,-1 0,0 0,0zM7,6.34805c-1,-1 0,0 0,0z" style="stroke-width: 0; stroke-linecap: butt; stroke-linejoin: miter; fill: rgb(138, 138, 138);" vector-effect="non-scaling-stroke"/></g><defs><path id="path-1674015675986396894" d="M8.99991,7.66667c-0.00092,0.24674 -0.10528,0.48438 -0.29241,0.66667c0.39001,0.37679 0.39001,0.95654 0,1.33333c0.39001,0.37679 0.39001,0.95654 0,1.33333c0.39001,0.37679 0.39001,0.95654 0,1.33333c0.39001,0.37679 0.39001,0.95654 0,1.33333c0.39001,0.37679 0.39001,0.95654 0,1.33333c0.18713,0.18229 0.2915,0.41992 0.29241,0.66667v2c-0.00165,1.28809 -1.17589,2.33187 -2.62496,2.33333h-3.74994c-1.44907,-0.00146 -2.62331,-1.04525 -2.62496,-2.33333v-2c0.00092,-0.24674 0.10528,-0.48437 0.2926,-0.66667c-0.39019,-0.37679 -0.39019,-0.95654 0,-1.33333c-0.39019,-0.37679 -0.39019,-0.95654 0,-1.33333c-0.39019,-0.37679 -0.39019,-0.95654 0,-1.33333c-0.39019,-0.37679 -0.39019,-0.95654 0,-1.33333c-0.39019,-0.37679 -0.39019,-0.95654 0,-1.33333c-0.18731,-0.18229 -0.29168,-0.41992 -0.2926,-0.66667v-0.45231c0.00146,-1.07633 0.65001,-2.06966 1.70066,-2.60465l0.35723,-0.18164c0.35028,-0.17855 0.56634,-0.5096 0.56707,-0.86833v-0.89307h-0.37499c-0.20709,0 -0.37499,-0.14925 -0.37499,-0.33333v-1.33333c0,-0.55225 0.50372,-1 1.12498,-1h2.99995c0.62127,0 1.12498,0.44775 1.12498,1v1.33333c0,0.18408 -0.16791,0.33333 -0.37499,0.33333h-0.37499v0.89307c0.00073,0.35872 0.21698,0.68978 0.56707,0.86833l0.35723,0.18164c1.05064,0.53499 1.69938,1.52832 1.70066,2.60465zM2.62501,2h3.74994v-1c0,-0.18408 -0.16791,-0.33333 -0.37499,-0.33333h-2.99995c-0.20709,0 -0.37499,0.14925 -0.37499,0.33333zM0.75003,7.66667c0,0.18408 0.16791,0.33333 0.37499,0.33333h6.7499c0.20709,0 0.37499,-0.14925 0.37499,-0.33333v-0.41245c-0.03905,-0.02238 -0.06521,-0.04888 -0.07462,-0.07744c-0.00844,-0.02204 -0.02022,-0.04367 -0.03517,-0.06478c-0.00375,0.03588 -0.00833,0.07115 -0.01372,0.1056c-0.01657,0.10783 -0.03967,0.20739 -0.0685,0.29391c-0.06261,0.16261 -0.14529,0.25478 -0.23164,0.25826c-0.02087,-0.0013 -0.04158,-0.00739 -0.06197,-0.01783c-0.02167,-0.00826 -0.04254,-0.02609 -0.06197,-0.05348c-0.02087,-0.01957 -0.04078,-0.04652 -0.0591,-0.08l-0.04859,-0.10696c-0.02947,-0.08522 -0.05273,-0.18478 -0.0685,-0.29391c-0.01673,-0.10696 -0.02565,-0.22174 -0.02613,-0.33826c0.00032,-0.03006 0.00101,-0.06012 0.0021,-0.09012c-0.12377,-0.0527 -0.15483,-0.13594 -0.0637,-0.20377c0.02362,-0.01756 0.05352,-0.03265 0.08781,-0.04504c0.00716,-0.05671 0.01701,-0.11039 0.02923,-0.15976c0.01211,-0.04652 0.02517,-0.0913 0.03919,-0.13348c0.07713,-0.19433 0.1789,-0.27407 0.27626,-0.23922c-0.22728,-0.3344 -0.54895,-0.61856 -0.94352,-0.81964l-0.35742,-0.18164c-0.58355,-0.29736 -0.94389,-0.84912 -0.94499,-1.44694v-0.89307h-2.24997v0.89307c-0.0011,0.59782 -0.36144,1.14958 -0.94499,1.44694l-0.35742,0.18164c-0.817,0.41634 -1.32127,1.18896 -1.32255,2.02604zM8.14607,6.56641c-0.0086,-0.02639 -0.01772,-0.05262 -0.02735,-0.07867c0.00283,0.01749 0.0054,0.03528 0.00769,0.05335c0.0013,0.00679 0.00254,0.01366 0.00373,0.0206c0.00533,0.00156 0.01064,0.00314 0.01593,0.00473zM7.87493,8.66667h-6.7499c-0.20709,0 -0.37499,0.14925 -0.37499,0.33333c0,0.18408 0.16791,0.33333 0.37499,0.33333h6.7499c0.20709,0 0.37499,-0.14925 0.37499,-0.33333c0,-0.18408 -0.16791,-0.33333 -0.37499,-0.33333zM7.87493,10h-6.7499c-0.20709,0 -0.37499,0.14925 -0.37499,0.33333c0,0.18408 0.16791,0.33333 0.37499,0.33333h6.7499c0.20709,0 0.37499,-0.14925 0.37499,-0.33333c0,-0.18408 -0.16791,-0.33333 -0.37499,-0.33333zM7.87493,11.33333h-6.7499c-0.20709,0 -0.37499,0.14925 -0.37499,0.33333c0,0.18408 0.16791,0.33333 0.37499,0.33333h6.7499c0.20709,0 0.37499,-0.14925 0.37499,-0.33333c0,-0.18408 -0.16791,-0.33333 -0.37499,-0.33333zM7.87493,12.66667h-6.7499c-0.20709,0 -0.37499,0.14925 -0.37499,0.33333c0,0.18408 0.16791,0.33333 0.37499,0.33333h6.7499c0.20709,0 0.37499,-0.14925 0.37499,-0.33333c0,-0.18408 -0.16791,-0.33333 -0.37499,-0.33333zM7.87493,14h-6.7499c-0.20709,0 -0.37499,0.14925 -0.37499,0.33333c0,0.18408 0.16791,0.33333 0.37499,0.33333h6.7499c0.20709,0 0.37499,-0.14925 0.37499,-0.33333c0,-0.18408 -0.16791,-0.33333 -0.37499,-0.33333zM8.24992,15.66667c0,-0.18408 -0.16791,-0.33333 -0.37499,-0.33333h-6.7499c-0.20709,0 -0.37499,0.14925 -0.37499,0.33333v2c0.00128,0.92008 0.83989,1.66553 1.87497,1.66667h3.74994c0.4222,-0.00046 0.81172,-0.12476 1.12505,-0.33424c0,-0.00005 0,-0.00011 0,-0.00016c0,-0.04757 0.0568,-0.08737 0.1328,-0.09737c0.07498,-0.06039 0.14443,-0.12609 0.20763,-0.19643v-0.10534c0,-0.05261 0.06946,-0.09571 0.15754,-0.09951c0.15986,-0.24518 0.25153,-0.52987 0.25196,-0.83361zM8.09615,16.80898c0.00382,0.06256 0.00588,0.12609 0.00632,0.19011c0,0.55274 -0.13488,1.0009 -0.30124,1.0009c-0.16636,0 -0.30124,-0.44816 -0.30124,-1.0009c0.00059,-0.06402 0.0025,-0.12756 0.00603,-0.19011c0.00279,-0.06647 0.00897,-0.13049 0.01809,-0.19011c0.00662,-0.06402 0.01574,-0.12462 0.02706,-0.18034c0.01118,-0.05229 0.02324,-0.10263 0.03618,-0.15004c0.02883,-0.09041 0.06251,-0.16177 0.09943,-0.21015c0.11223,-0.15688 0.24166,-0.0738 0.3283,0.21015l0.03618,0.15004c0.01133,0.0562 0.02045,0.1168 0.02706,0.18034c0.00927,0.05914 0.0153,0.12365 0.0178,0.19011zM7,16.11887c-1,-1 0,0 0,0zM7,6.34805c-1,-1 0,0 0,0z" vector-effect="non-scaling-stroke"/></defs></g></svg>