<svg version="1.2" xmlns="http://www.w3.org/2000/svg" xmlns:xlink="http://www.w3.org/1999/xlink" overflow="visible" preserveAspectRatio="none" viewBox="0 0 20.000020000000003 20.000059999999987" width="20.000020000000003" height="20.000059999999987"><g transform="translate(0, 0)"><g transform="translate(-0.00002000000000279556, 3.552713678800501e-15) rotate(0)"><path d="M17.75087,17.46094h-0.86987c-0.15137,-0.86035 -0.85095,-1.5343 -1.71314,-1.65955v-1.54333l1.44898,-1.4491c0.3446,0.25525 0.77063,0.40662 1.23157,0.40662c1.14331,0 2.07349,-0.93018 2.07349,-2.07349c0,-0.50757 -0.18543,-0.99622 -0.52185,-1.37549c-0.24622,-0.27759 -0.68933,0.10571 -0.43835,0.38867c0.24133,0.27209 0.37427,0.62256 0.37427,0.98682c0,0.82019 -0.66748,1.48755 -1.48755,1.48755c-0.29907,0 -0.57739,-0.08887 -0.81091,-0.24133l1.02136,-1.02124c0.26587,-0.26599 -0.14807,-0.68054 -0.41455,-0.41431l-1.02551,1.02576c-0.16272,-0.23853 -0.25793,-0.52649 -0.25793,-0.83643c0,-0.82031 0.66724,-1.48755 1.48755,-1.48755c0.37293,0 0.37781,-0.58594 0,-0.58594c-1.14356,0 -2.07349,0.93018 -2.07349,2.07349c0,0.47168 0.15845,0.90674 0.42481,1.25549l-1.03186,1.03186v-4.22412c2.40442,-0.15161 4.31446,-2.15576 4.31446,-4.5979c0,-2.54053 -2.06677,-4.60742 -4.60743,-4.60742c-2.54065,0 -4.60755,2.06689 -4.60755,4.60742c0,2.44214 1.90991,4.44629 4.31458,4.5979v6.59656c-0.24207,0.03552 -0.47485,0.11377 -0.68774,0.23145c-0.26025,-0.78052 -0.99744,-1.3335 -1.85462,-1.3335c-0.01245,0 -0.0249,0.00012 -0.03735,0.00037c-0.51282,0.00952 -0.99378,0.21558 -1.35413,0.57996c-0.27991,0.28284 -0.4635,0.63721 -0.53308,1.02112c-0.38867,-0.0177 -0.77844,0.11865 -1.0697,0.37708c-0.31055,-0.69092 -1.0083,-1.17053 -1.80359,-1.17053c-0.52515,0 -1.01904,0.21021 -1.38233,0.56543v-1.6012c2.80445,-0.15259 5.03907,-2.48218 5.03907,-5.32397c0,-1.67493 -0.78638,-3.24658 -2.11621,-4.25305c0.18616,-0.43359 0.28027,-0.89404 0.28027,-1.37195c0,-1.92761 -1.56836,-3.49609 -3.4961,-3.49609c-0.8374,0 -1.64746,0.30078 -2.28101,0.8468c-0.28503,0.24548 0.09705,0.68982 0.38232,0.44385c0.52734,-0.45447 1.20166,-0.70471 1.89868,-0.70471c1.60462,0 2.91016,1.30554 2.91016,2.91016c0,0.46875 -0.10876,0.91724 -0.32336,1.33289c-0.06787,0.13123 -0.02722,0.29236 0.09448,0.37598c1.29285,0.88696 2.06482,2.35095 2.06482,3.91614c0,2.51868 -1.97205,4.58496 -4.45313,4.73682v-5.35754l1.57446,-1.57434c0.26587,-0.26599 -0.14807,-0.68079 -0.41455,-0.41431l-1.15991,1.16003v-4.25378c0,-0.3761 -0.58594,-0.37659 -0.58594,0v7.33972l-2.07788,-2.078c-0.26611,-0.26599 -0.68079,0.14783 -0.41455,0.41431l2.49243,2.49231v2.27161c-2.48108,-0.15186 -4.45313,-2.21814 -4.45313,-4.73682c0,-1.56519 0.77197,-3.02917 2.0647,-3.91614c0.12183,-0.08362 0.16235,-0.24475 0.0946,-0.37598c-0.2146,-0.41565 -0.32336,-0.86414 -0.32336,-1.33289c0,-0.42346 0.08887,-0.83167 0.26416,-1.21338c0.15698,-0.3418 -0.37512,-0.58679 -0.53247,-0.24451c-0.21082,0.45898 -0.31763,0.94934 -0.31763,1.45789c0,0.47791 0.09412,0.93835 0.28027,1.37195c-1.32984,1.00659 -2.11621,2.57813 -2.11621,4.25305c0,2.8418 2.23462,5.17139 5.03907,5.32397v1.76013c-0.14172,-0.03931 -0.28882,-0.0603 -0.43799,-0.0603c-0.78626,0 -1.44422,0.54712 -1.60498,1.28906h-0.98132c-1.24024,0 -2.24915,1.00757 -2.24915,2.24609c0,0.16174 0.1311,0.29297 0.29297,0.29297h15.72267c0.3761,0 0.37671,-0.58594 0,-0.58594h-15.40382c0.13904,-0.77625 0.82031,-1.36719 1.63733,-1.36719h1.23816c0.15674,0 0.28589,-0.12354 0.2926,-0.28052c0.02429,-0.56543 0.48792,-1.00854 1.05554,-1.00854c0.25073,0 0.4939,0.08936 0.68469,0.25159c0.14441,0.12292 0.37756,0.07141 0.4563,-0.10168c0.22522,-0.49438 0.7218,-0.81396 1.26526,-0.81396c0.72315,0 1.33142,0.56323 1.38501,1.28198c0.02258,0.30188 0.45154,0.36829 0.56409,0.0874c0.1377,-0.34387 0.46631,-0.57043 0.83716,-0.57727c0.22656,-0.00342 0.63843,0.14514 0.6416,-0.24475c0.0061,-0.74609 0.59631,-1.34106 1.34363,-1.35522c0.00879,-0.00012 0.01746,-0.00012 0.02612,-0.00012c0.71729,0 1.31494,0.55273 1.36585,1.26917c0.01672,0.23804 0.31201,0.35925 0.49072,0.19446c0.26086,-0.24048 0.6001,-0.37671 0.95508,-0.3833c0.78821,-0.01477 1.448,0.61218 1.47376,1.39746c0.00525,0.15784 0.13477,0.28333 0.29285,0.28333h1.13318c0.81714,0 1.49829,0.59094 1.63745,1.36719h-1.61475c-0.3761,0 -0.37671,0.58594 0,0.58594h1.9336c0.16187,0 0.29297,-0.13123 0.29297,-0.29297c0,-1.23853 -1.00891,-2.24609 -2.24915,-2.24609zM14.87489,0.58594c2.21741,0 4.02149,1.80408 4.02149,4.02148c0,2.1189 -1.64734,3.86035 -3.72852,4.01086v-4.01843c0,-0.3761 -0.58594,-0.37671 -0.58594,0v4.01843c-2.0813,-0.15051 -3.72864,-1.89197 -3.72864,-4.01086c0,-2.21741 1.80408,-4.02148 4.02161,-4.02148zM15.37489,1.08594v0c-1,-1 -1,-1 -1,-1v0z" style="stroke-width: 0; stroke-linecap: butt; stroke-linejoin: miter; fill: rgb(138, 138, 138);" vector-effect="non-scaling-stroke"/></g><defs><path id="path-1674015675982396882" d="M17.75087,17.46094h-0.86987c-0.15137,-0.86035 -0.85095,-1.5343 -1.71314,-1.65955v-1.54333l1.44898,-1.4491c0.3446,0.25525 0.77063,0.40662 1.23157,0.40662c1.14331,0 2.07349,-0.93018 2.07349,-2.07349c0,-0.50757 -0.18543,-0.99622 -0.52185,-1.37549c-0.24622,-0.27759 -0.68933,0.10571 -0.43835,0.38867c0.24133,0.27209 0.37427,0.62256 0.37427,0.98682c0,0.82019 -0.66748,1.48755 -1.48755,1.48755c-0.29907,0 -0.57739,-0.08887 -0.81091,-0.24133l1.02136,-1.02124c0.26587,-0.26599 -0.14807,-0.68054 -0.41455,-0.41431l-1.02551,1.02576c-0.16272,-0.23853 -0.25793,-0.52649 -0.25793,-0.83643c0,-0.82031 0.66724,-1.48755 1.48755,-1.48755c0.37293,0 0.37781,-0.58594 0,-0.58594c-1.14356,0 -2.07349,0.93018 -2.07349,2.07349c0,0.47168 0.15845,0.90674 0.42481,1.25549l-1.03186,1.03186v-4.22412c2.40442,-0.15161 4.31446,-2.15576 4.31446,-4.5979c0,-2.54053 -2.06677,-4.60742 -4.60743,-4.60742c-2.54065,0 -4.60755,2.06689 -4.60755,4.60742c0,2.44214 1.90991,4.44629 4.31458,4.5979v6.59656c-0.24207,0.03552 -0.47485,0.11377 -0.68774,0.23145c-0.26025,-0.78052 -0.99744,-1.3335 -1.85462,-1.3335c-0.01245,0 -0.0249,0.00012 -0.03735,0.00037c-0.51282,0.00952 -0.99378,0.21558 -1.35413,0.57996c-0.27991,0.28284 -0.4635,0.63721 -0.53308,1.02112c-0.38867,-0.0177 -0.77844,0.11865 -1.0697,0.37708c-0.31055,-0.69092 -1.0083,-1.17053 -1.80359,-1.17053c-0.52515,0 -1.01904,0.21021 -1.38233,0.56543v-1.6012c2.80445,-0.15259 5.03907,-2.48218 5.03907,-5.32397c0,-1.67493 -0.78638,-3.24658 -2.11621,-4.25305c0.18616,-0.43359 0.28027,-0.89404 0.28027,-1.37195c0,-1.92761 -1.56836,-3.49609 -3.4961,-3.49609c-0.8374,0 -1.64746,0.30078 -2.28101,0.8468c-0.28503,0.24548 0.09705,0.68982 0.38232,0.44385c0.52734,-0.45447 1.20166,-0.70471 1.89868,-0.70471c1.60462,0 2.91016,1.30554 2.91016,2.91016c0,0.46875 -0.10876,0.91724 -0.32336,1.33289c-0.06787,0.13123 -0.02722,0.29236 0.09448,0.37598c1.29285,0.88696 2.06482,2.35095 2.06482,3.91614c0,2.51868 -1.97205,4.58496 -4.45313,4.73682v-5.35754l1.57446,-1.57434c0.26587,-0.26599 -0.14807,-0.68079 -0.41455,-0.41431l-1.15991,1.16003v-4.25378c0,-0.3761 -0.58594,-0.37659 -0.58594,0v7.33972l-2.07788,-2.078c-0.26611,-0.26599 -0.68079,0.14783 -0.41455,0.41431l2.49243,2.49231v2.27161c-2.48108,-0.15186 -4.45313,-2.21814 -4.45313,-4.73682c0,-1.56519 0.77197,-3.02917 2.0647,-3.91614c0.12183,-0.08362 0.16235,-0.24475 0.0946,-0.37598c-0.2146,-0.41565 -0.32336,-0.86414 -0.32336,-1.33289c0,-0.42346 0.08887,-0.83167 0.26416,-1.21338c0.15698,-0.3418 -0.37512,-0.58679 -0.53247,-0.24451c-0.21082,0.45898 -0.31763,0.94934 -0.31763,1.45789c0,0.47791 0.09412,0.93835 0.28027,1.37195c-1.32984,1.00659 -2.11621,2.57813 -2.11621,4.25305c0,2.8418 2.23462,5.17139 5.03907,5.32397v1.76013c-0.14172,-0.03931 -0.28882,-0.0603 -0.43799,-0.0603c-0.78626,0 -1.44422,0.54712 -1.60498,1.28906h-0.98132c-1.24024,0 -2.24915,1.00757 -2.24915,2.24609c0,0.16174 0.1311,0.29297 0.29297,0.29297h15.72267c0.3761,0 0.37671,-0.58594 0,-0.58594h-15.40382c0.13904,-0.77625 0.82031,-1.36719 1.63733,-1.36719h1.23816c0.15674,0 0.28589,-0.12354 0.2926,-0.28052c0.02429,-0.56543 0.48792,-1.00854 1.05554,-1.00854c0.25073,0 0.4939,0.08936 0.68469,0.25159c0.14441,0.12292 0.37756,0.07141 0.4563,-0.10168c0.22522,-0.49438 0.7218,-0.81396 1.26526,-0.81396c0.72315,0 1.33142,0.56323 1.38501,1.28198c0.02258,0.30188 0.45154,0.36829 0.56409,0.0874c0.1377,-0.34387 0.46631,-0.57043 0.83716,-0.57727c0.22656,-0.00342 0.63843,0.14514 0.6416,-0.24475c0.0061,-0.74609 0.59631,-1.34106 1.34363,-1.35522c0.00879,-0.00012 0.01746,-0.00012 0.02612,-0.00012c0.71729,0 1.31494,0.55273 1.36585,1.26917c0.01672,0.23804 0.31201,0.35925 0.49072,0.19446c0.26086,-0.24048 0.6001,-0.37671 0.95508,-0.3833c0.78821,-0.01477 1.448,0.61218 1.47376,1.39746c0.00525,0.15784 0.13477,0.28333 0.29285,0.28333h1.13318c0.81714,0 1.49829,0.59094 1.63745,1.36719h-1.61475c-0.3761,0 -0.37671,0.58594 0,0.58594h1.9336c0.16187,0 0.29297,-0.13123 0.29297,-0.29297c0,-1.23853 -1.00891,-2.24609 -2.24915,-2.24609zM14.87489,0.58594c2.21741,0 4.02149,1.80408 4.02149,4.02148c0,2.1189 -1.64734,3.86035 -3.72852,4.01086v-4.01843c0,-0.3761 -0.58594,-0.37671 -0.58594,0v4.01843c-2.0813,-0.15051 -3.72864,-1.89197 -3.72864,-4.01086c0,-2.21741 1.80408,-4.02148 4.02161,-4.02148zM15.37489,1.08594v0c-1,-1 -1,-1 -1,-1v0z" vector-effect="non-scaling-stroke"/></defs></g></svg>