<svg version="1.2" xmlns="http://www.w3.org/2000/svg" xmlns:xlink="http://www.w3.org/1999/xlink" overflow="visible" preserveAspectRatio="none" viewBox="0 0 17.000003601962618 16.000010000005886" width="17.000003601962618" height="16.000010000005886"><g transform="translate(0, 0)"><g transform="translate(-3.601929279284377e-7, -0.0000013391805850915262) rotate(0)"><path d="M5.88407,12.8929c-0.86232,0 -1.56229,0.69606 -1.56229,1.55355c0,0.8575 0.69997,1.55355 1.56229,1.55355c0.86232,0 1.56229,-0.69606 1.56229,-1.55355c0,-0.8575 -0.69997,-1.55355 -1.56229,-1.55355zM11.57052,12.8929c-0.86232,0 -1.56229,0.69606 -1.56229,1.55355c0,0.8575 0.69997,1.55355 1.56229,1.55355c0.86232,0 1.56229,-0.69606 1.56229,-1.55355c0,-0.8575 -0.69997,-1.55355 -1.56229,-1.55355zM2.30858,0.84524c0,0 0.68424,6.95085 0.94562,9.41769c0.1139,1.07557 1.02552,1.89207 2.11308,1.89207h7.23216c0.92692,0 1.74716,-0.59801 2.02638,-1.47706c0.74799,-2.35569 2.35448,-7.41362 2.35448,-7.41362c0.0408,-0.12848 0.01742,-0.26879 -0.06247,-0.3774c-0.08032,-0.10861 -0.2074,-0.17243 -0.34297,-0.17243h-13.25691l-0.19465,-2.32695c-0.0187,-0.21892 -0.20272,-0.38754 -0.42372,-0.38754h-2.27458c-0.2346,0 -0.425,0.18933 -0.425,0.42262c0,0.23329 0.1904,0.42262 0.425,0.42262zM9.32612,4.62728c-1.55846,0 -2.82325,1.25772 -2.82325,2.80747c0,1.54933 1.26479,2.80705 2.82325,2.80705c1.55804,0 2.82325,-1.25772 2.82325,-2.80705c0,-1.54975 -1.26521,-2.80747 -2.82325,-2.80747zM9.07707,7.34346l-0.22015,-0.21892c-0.16575,-0.16524 -0.4352,-0.16524 -0.60094,0c-0.16575,0.16482 -0.16575,0.43276 0,0.59759l0.52062,0.51771c0.13855,0.13777 0.34935,0.1606 0.5117,0.06762l0.00935,-0.00507l0.00892,-0.00549l0.00892,-0.00592l0.0085,-0.00592l0.0085,-0.00634l0.0085,-0.00676l0.0085,-0.00676l0.00807,-0.00676l0.00807,-0.00718l0.00807,-0.00761l0.00382,-0.0038l1.01829,-1.0126c0.16617,-0.16524 0.16617,-0.43276 0,-0.59801c-0.16575,-0.16482 -0.4352,-0.16482 -0.60094,0z" style="stroke-width: 0; stroke-linecap: butt; stroke-linejoin: miter; fill: rgb(138, 138, 138);" vector-effect="non-scaling-stroke"/></g><defs><path id="path-1672180209981520343" d="M5.88407,12.8929c-0.86232,0 -1.56229,0.69606 -1.56229,1.55355c0,0.8575 0.69997,1.55355 1.56229,1.55355c0.86232,0 1.56229,-0.69606 1.56229,-1.55355c0,-0.8575 -0.69997,-1.55355 -1.56229,-1.55355zM11.57052,12.8929c-0.86232,0 -1.56229,0.69606 -1.56229,1.55355c0,0.8575 0.69997,1.55355 1.56229,1.55355c0.86232,0 1.56229,-0.69606 1.56229,-1.55355c0,-0.8575 -0.69997,-1.55355 -1.56229,-1.55355zM2.30858,0.84524c0,0 0.68424,6.95085 0.94562,9.41769c0.1139,1.07557 1.02552,1.89207 2.11308,1.89207h7.23216c0.92692,0 1.74716,-0.59801 2.02638,-1.47706c0.74799,-2.35569 2.35448,-7.41362 2.35448,-7.41362c0.0408,-0.12848 0.01742,-0.26879 -0.06247,-0.3774c-0.08032,-0.10861 -0.2074,-0.17243 -0.34297,-0.17243h-13.25691l-0.19465,-2.32695c-0.0187,-0.21892 -0.20272,-0.38754 -0.42372,-0.38754h-2.27458c-0.2346,0 -0.425,0.18933 -0.425,0.42262c0,0.23329 0.1904,0.42262 0.425,0.42262zM9.32612,4.62728c-1.55846,0 -2.82325,1.25772 -2.82325,2.80747c0,1.54933 1.26479,2.80705 2.82325,2.80705c1.55804,0 2.82325,-1.25772 2.82325,-2.80705c0,-1.54975 -1.26521,-2.80747 -2.82325,-2.80747zM9.07707,7.34346l-0.22015,-0.21892c-0.16575,-0.16524 -0.4352,-0.16524 -0.60094,0c-0.16575,0.16482 -0.16575,0.43276 0,0.59759l0.52062,0.51771c0.13855,0.13777 0.34935,0.1606 0.5117,0.06762l0.00935,-0.00507l0.00892,-0.00549l0.00892,-0.00592l0.0085,-0.00592l0.0085,-0.00634l0.0085,-0.00676l0.0085,-0.00676l0.00807,-0.00676l0.00807,-0.00718l0.00807,-0.00761l0.00382,-0.0038l1.01829,-1.0126c0.16617,-0.16524 0.16617,-0.43276 0,-0.59801c-0.16575,-0.16482 -0.4352,-0.16482 -0.60094,0z" vector-effect="non-scaling-stroke"/></defs></g></svg>