<svg version="1.2" xmlns="http://www.w3.org/2000/svg" xmlns:xlink="http://www.w3.org/1999/xlink" overflow="visible" preserveAspectRatio="none" viewBox="0 0 17 15" width="17" height="15"><g transform="translate(0, 0)"><defs><path id="path-1672180209974520228" d="M10.094498032627857 4.090825890211907 C11.891653686806649 2.086224403344793 14.982582546732347 1.8344597073453142 17.09204565973705 3.5208563014833625 C18.95573653868368 5.112300484621683 19.155564620792624 8.295188850898326 17.299697271203634 11.478002933065829 C16.111542915097523 13.642016648752513 13.10169867595912 15.836963505552614 10.570288494231733 17.27884901562707 C10.276126754801965 17.446513798800634 9.912913475538843 17.446513798800634 9.618751736109074 17.27884901562707 C7.087259533509387 15.836963505552614 4.0801030552632085 13.644610402229903 2.8945544391770177 11.485796574182856 C1.0334629909524367 8.29762784581501 1.2332216707848247 5.112300484621682 3.0969567148165433 3.5208563014833607 C5.206417773098059 1.8344604417486519 8.297344585386917 2.086225197964676 10.094498032627857 4.090825890211907 Z" vector-effect="non-scaling-stroke"/></defs><g transform="translate(-1.5948827516410498, -2.404597603007242)"><path d="M10.094498032627857 4.090825890211907 C11.891653686806649 2.086224403344793 14.982582546732347 1.8344597073453142 17.09204565973705 3.5208563014833625 C18.95573653868368 5.112300484621683 19.155564620792624 8.295188850898326 17.299697271203634 11.478002933065829 C16.111542915097523 13.642016648752513 13.10169867595912 15.836963505552614 10.570288494231733 17.27884901562707 C10.276126754801965 17.446513798800634 9.912913475538843 17.446513798800634 9.618751736109074 17.27884901562707 C7.087259533509387 15.836963505552614 4.0801030552632085 13.644610402229903 2.8945544391770177 11.485796574182856 C1.0334629909524367 8.29762784581501 1.2332216707848247 5.112300484621682 3.0969567148165433 3.5208563014833607 C5.206417773098059 1.8344604417486519 8.297344585386917 2.086225197964676 10.094498032627857 4.090825890211907 Z" style="stroke-width: 0; stroke-linecap: butt; stroke-linejoin: miter; fill: rgb(138, 138, 138);" vector-effect="non-scaling-stroke"/></g></g></svg>