<svg version="1.2" xmlns="http://www.w3.org/2000/svg" xmlns:xlink="http://www.w3.org/1999/xlink" overflow="visible" preserveAspectRatio="none" viewBox="0 0 35.99999 35.99999" width="35.99999" height="35.99999"><g transform="translate(0, 0)"><g transform="translate(2.3314683517128287e-15, 0) rotate(0)"><path d="M30.7317,28.04751c0.83678,0.02722 1.58312,0.05005 2.19512,0.05005c0.81483,0 1.59629,-0.324 2.17317,-0.9c0.576,-0.57688 0.9,-1.35834 0.9,-2.17317v-14.04878c0,-0.81483 -0.324,-1.59629 -0.9,-2.17317c-0.57688,-0.576 -1.35834,-0.9 -2.17317,-0.9h-2.19512v-4.82927c0,-1.69727 -1.3759,-3.07317 -3.07317,-3.07317c-5.04527,0 -19.54009,0 -24.58536,0c-0.81483,0 -1.59629,0.324 -2.17317,0.9c-0.576,0.57688 -0.9,1.35834 -0.9,2.17317v29.85365c0,0.81483 0.324,1.59629 0.9,2.17317c0.57688,0.576 1.35834,0.9 2.17317,0.9h24.58536c0.81483,0 1.59717,-0.324 2.17317,-0.9c0.576,-0.57688 0.9,-1.35834 0.9,-2.17317zM33.36585,10.97561v14.04878c0,0.11678 -0.04654,0.22829 -0.1282,0.31083c-0.08254,0.08166 -0.19405,0.1282 -0.31083,0.1282h-9.65854c-4.2638,0.35385 -7.46341,-3.18907 -7.46341,-7.46341c0,-4.12156 3.34185,-7.46341 7.46341,-7.46341h9.65854c0.11678,0 0.22829,0.04654 0.31083,0.1282c0.08166,0.08254 0.1282,0.19405 0.1282,0.31083zM23.26829,14.04878c-2.18107,0 -3.95122,1.77015 -3.95122,3.95122c0,2.18107 1.77015,3.95122 3.95122,3.95122c2.18107,0 3.95122,-1.77015 3.95122,-3.95122c0,-2.18107 -1.77015,-3.95122 -3.95122,-3.95122z" style="stroke-width: 0; stroke-linecap: butt; stroke-linejoin: miter; fill: rgb(223, 22, 131);" vector-effect="non-scaling-stroke"/></g><defs><path id="path-167413916170345210" d="M30.7317,28.04751c0.83678,0.02722 1.58312,0.05005 2.19512,0.05005c0.81483,0 1.59629,-0.324 2.17317,-0.9c0.576,-0.57688 0.9,-1.35834 0.9,-2.17317v-14.04878c0,-0.81483 -0.324,-1.59629 -0.9,-2.17317c-0.57688,-0.576 -1.35834,-0.9 -2.17317,-0.9h-2.19512v-4.82927c0,-1.69727 -1.3759,-3.07317 -3.07317,-3.07317c-5.04527,0 -19.54009,0 -24.58536,0c-0.81483,0 -1.59629,0.324 -2.17317,0.9c-0.576,0.57688 -0.9,1.35834 -0.9,2.17317v29.85365c0,0.81483 0.324,1.59629 0.9,2.17317c0.57688,0.576 1.35834,0.9 2.17317,0.9h24.58536c0.81483,0 1.59717,-0.324 2.17317,-0.9c0.576,-0.57688 0.9,-1.35834 0.9,-2.17317zM33.36585,10.97561v14.04878c0,0.11678 -0.04654,0.22829 -0.1282,0.31083c-0.08254,0.08166 -0.19405,0.1282 -0.31083,0.1282h-9.65854c-4.2638,0.35385 -7.46341,-3.18907 -7.46341,-7.46341c0,-4.12156 3.34185,-7.46341 7.46341,-7.46341h9.65854c0.11678,0 0.22829,0.04654 0.31083,0.1282c0.08166,0.08254 0.1282,0.19405 0.1282,0.31083zM23.26829,14.04878c-2.18107,0 -3.95122,1.77015 -3.95122,3.95122c0,2.18107 1.77015,3.95122 3.95122,3.95122c2.18107,0 3.95122,-1.77015 3.95122,-3.95122c0,-2.18107 -1.77015,-3.95122 -3.95122,-3.95122z" vector-effect="non-scaling-stroke"/></defs></g></svg>