<svg version="1.2" xmlns="http://www.w3.org/2000/svg" xmlns:xlink="http://www.w3.org/1999/xlink" overflow="visible" preserveAspectRatio="none" viewBox="0 0 24 24" width="20" height="20"><g><path xmlns:default="http://www.w3.org/2000/svg" id="map" d="M7.84,2.7l-5,2.67C2.73,5.42,2.66,5.54,2.66,5.66v15.33c0.01,0.18,0.15,0.32,0.33,0.33c0.05,0.01,0.11,0.01,0.16,0  l5-2.67c0.11-0.05,0.19-0.17,0.18-0.29V2.99C8.33,2.81,8.18,2.66,7.99,2.66C7.94,2.67,7.89,2.68,7.84,2.7z M20.85,2.7l-5,2.67  c-0.11,0.05-0.19,0.17-0.18,0.29v15.33c0.01,0.18,0.15,0.32,0.33,0.33c0.05,0.01,0.11,0.01,0.16,0l5-2.67  c0.11-0.05,0.19-0.17,0.18-0.29V2.99C21.33,2.81,21.18,2.66,21,2.66c-0.06,0-0.11,0.01-0.16,0.04H20.85z M9.1,2.76  C9.03,2.82,9,2.91,8.99,2.99v15.33c0,0.13,0.07,0.25,0.19,0.3l5.33,2.67c0.17,0.08,0.37,0,0.45-0.17c0.02-0.04,0.03-0.09,0.03-0.13  V5.66c0-0.13-0.07-0.25-0.19-0.3L9.47,2.69C9.35,2.64,9.19,2.66,9.1,2.76z" style="fill: rgb(138, 138, 138);" vector-effect="non-scaling-stroke"/></g></svg>