<svg version="1.2" xmlns="http://www.w3.org/2000/svg" xmlns:xlink="http://www.w3.org/1999/xlink" overflow="visible" preserveAspectRatio="none" viewBox="0 0 15.6860124558155 17.994431605915022" width="15.6860124558155" height="17.994431605915022"><g transform="translate(0, 0)"><g transform="translate(-1.313987544184556, -0.005568394085005612) rotate(0)"><path d="M17,3.83739c0,5.58447 -1.35233,8.81868 -3.01771,10.79927c-1.66423,1.97946 -3.63407,2.70136 -4.49022,3.26291c-0.20488,0.13391 -0.471,0.13391 -0.67531,0c-0.85615,-0.56042 -2.82484,-1.28232 -4.49022,-3.26291c-1.6648,-1.98003 -3.01256,-5.21424 -3.01256,-10.79927c0,-0.35504 0.19973,-0.68814 0.41777,-0.8682c0.21919,-0.17949 0.43838,-0.26502 0.62266,-0.3376l6.57623,-2.58208c0.06696,-0.0287 0.14078,-0.04164 0.21575,-0.04389c0.08184,-0.00113 0.16196,0.01407 0.23693,0.04389l6.57566,2.58152c0.18313,0.07371 0.39889,0.15867 0.61693,0.3376c0.21919,0.18062 0.4235,0.51315 0.42407,0.86876z" style="stroke-width: 0; stroke-linecap: butt; stroke-linejoin: miter; fill: rgb(138, 138, 138);" vector-effect="non-scaling-stroke"/></g><defs><path id="path-1672180209981520329" d="M17,3.83739c0,5.58447 -1.35233,8.81868 -3.01771,10.79927c-1.66423,1.97946 -3.63407,2.70136 -4.49022,3.26291c-0.20488,0.13391 -0.471,0.13391 -0.67531,0c-0.85615,-0.56042 -2.82484,-1.28232 -4.49022,-3.26291c-1.6648,-1.98003 -3.01256,-5.21424 -3.01256,-10.79927c0,-0.35504 0.19973,-0.68814 0.41777,-0.8682c0.21919,-0.17949 0.43838,-0.26502 0.62266,-0.3376l6.57623,-2.58208c0.06696,-0.0287 0.14078,-0.04164 0.21575,-0.04389c0.08184,-0.00113 0.16196,0.01407 0.23693,0.04389l6.57566,2.58152c0.18313,0.07371 0.39889,0.15867 0.61693,0.3376c0.21919,0.18062 0.4235,0.51315 0.42407,0.86876z" vector-effect="non-scaling-stroke"/></defs></g></svg>