<svg version="1.2" xmlns="http://www.w3.org/2000/svg" xmlns:xlink="http://www.w3.org/1999/xlink" overflow="visible" preserveAspectRatio="none" viewBox="0 0 24 24" width="28" height="28"><g><path xmlns:default="http://www.w3.org/2000/svg" id="bell" d="M12,20.5c-1.01,0-1.83-0.82-1.83-1.83c0.02-0.09,0.11-0.15,0.21-0.12c0.06,0.02,0.11,0.06,0.12,0.12  c0.01,0.83,0.67,1.49,1.5,1.5c0.09-0.02,0.18,0.03,0.21,0.12s-0.03,0.18-0.12,0.21C12.05,20.51,12.03,20.51,12,20.5z M20.66,17.33  c-0.34-0.28-0.66-0.59-0.95-0.92c-0.33-0.39-0.63-0.8-0.88-1.24c-0.31-0.52-0.57-1.08-0.78-1.65c-0.24-0.7-0.41-1.41-0.52-2.14  c-0.14-0.9-0.21-1.8-0.2-2.71c-0.02-1.1-0.45-2.15-1.22-2.94c-0.83-0.92-1.97-1.5-3.2-1.65C12.97,3.95,13,3.81,13,3.67  c0-0.55-0.45-1-1-1s-1,0.45-1,1c0,0.14,0.02,0.28,0.08,0.41c-1.23,0.15-2.37,0.73-3.2,1.65C7.12,6.52,6.69,7.57,6.67,8.67  c0.01,0.91-0.06,1.81-0.2,2.71c-0.11,0.73-0.28,1.44-0.52,2.14c-0.21,0.57-0.47,1.13-0.78,1.65c-0.25,0.44-0.55,0.85-0.88,1.24  C4,16.74,3.68,17.05,3.34,17.33c0.01,0.73,0.6,1.32,1.33,1.33h4.66c0,1.47,1.2,2.67,2.67,2.67s2.67-1.2,2.67-2.67h4.66  C20.06,18.65,20.65,18.06,20.66,17.33L20.66,17.33z" style="fill: rgb(138, 138, 138);" vector-effect="non-scaling-stroke"/></g></svg>