<svg version="1.2" xmlns="http://www.w3.org/2000/svg" xmlns:xlink="http://www.w3.org/1999/xlink" overflow="visible" preserveAspectRatio="none" viewBox="0 0 34.99999 36" width="34.99999" height="36"><g transform="translate(0, 0)"><g transform="translate(-0.000010000000003174137, -1.2212453270876722e-15) rotate(0)"><path d="M3.37554,21.94095c0.33046,-0.68535 0.73945,-1.49873 1.25728,-2.52848l0.00362,-0.0075c0.14906,-0.29639 0.51155,-0.41652 0.80964,-0.26831c0.29809,0.14821 0.41891,0.50862 0.26985,0.80501l-0.00362,0.00712c-0.51534,1.0248 -0.92237,1.83427 -1.24846,2.51055c-0.06909,0.14358 -0.19276,0.25395 -0.34376,0.30679c-0.151,0.05284 -0.31694,0.04381 -0.46124,-0.02509c-0.30036,-0.14323 -0.42717,-0.50136 -0.28332,-0.8001zM33.10412,17.08845c0.26967,0.3822 1.89588,2.87977 1.89588,7.51155v9.6c-0.00116,0.99363 -0.811,1.79884 -1.81034,1.8h-31.37931c-0.99934,-0.00116 -1.80918,-0.80637 -1.81034,-1.8v-9.6c0,-1.34168 0.62427,-2.58308 2.47753,-6.26857c1.65186,-3.28485 2.81245,-8.18783 2.9535,-8.79892v-3.63533c-0.72349,-0.25417 -1.20723,-0.93423 -1.20723,-1.69718c0,-0.76294 0.48374,-1.443 1.20723,-1.69717v-1.90283c0,-0.33137 0.27017,-0.6 0.60345,-0.6h3.62069c0.33328,0 0.60345,0.26863 0.60345,0.6v1.90283c0.72349,0.25417 1.20723,0.93423 1.20723,1.69717c0,0.76294 -0.48374,1.443 -1.20723,1.69718v3.63533c0.45227,1.92166 1.00464,3.81867 1.65488,5.68335c0.36004,-0.79488 0.90015,-1.49617 1.57809,-2.049c0.4854,-0.40209 1.02145,-0.73953 1.59461,-1.0038v-5.00055c-0.33328,0 -0.60345,-0.26863 -0.60345,-0.6v-3.6c0,-0.33137 0.27017,-0.6 0.60345,-0.6h4.82759c0.33328,0 0.60345,0.26863 0.60345,0.6v3.6c0,0.33137 -0.27017,0.6 -0.60345,0.6v5.00085c0.57419,0.26548 1.1108,0.60483 1.59605,1.00935c0.47165,0.39122 0.87935,0.85287 1.20856,1.36845c1.03031,-1.71615 2.02298,-3.73147 2.02298,-6.74115v-0.10282c-0.72349,-0.25417 -1.20723,-0.93423 -1.20723,-1.69718c0,-0.76294 0.48374,-1.443 1.20723,-1.69718v-1.90282c0,-0.33137 0.27017,-0.6 0.60345,-0.6h3.62069c0.33328,0 0.60345,0.26863 0.60345,0.6v1.90283c0.72349,0.25417 1.20723,0.93423 1.20723,1.69717c0,0.76294 -0.48374,1.443 -1.20723,1.69718v0.10282c0,3.49642 1.33973,5.6517 2.52173,7.55325c0.37037,0.59588 0.72067,1.1595 1.01342,1.7352zM23.53448,32.4h10.25862v-6h-10.25862zM23.53448,17.4v0.80715c0.42464,0.24915 0.87644,0.44939 1.34667,0.59685c-0.27356,-0.76308 -0.14044,-1.61195 0.35377,-2.256c-0.66285,-0.15175 -1.30497,-0.38213 -1.91255,-0.68617l-0.00392,0.0063c0.14465,0.49787 0.21739,1.01365 0.21603,1.53188zM27.15517,19.2c0.66655,0 1.2069,-0.53726 1.2069,-1.2c0,-0.66274 -0.54035,-1.2 -1.2069,-1.2c-0.66655,0 -1.2069,0.53726 -1.2069,1.2c0.00075,0.66243 0.54066,1.19926 1.2069,1.2zM29.0755,16.54807c0.49397,0.64371 0.62721,1.49207 0.35415,2.25488c0.83864,-0.2688 1.75045,-0.72 2.43642,-1.4763c-0.23783,-0.43388 -0.51331,-0.87795 -0.80206,-1.3425c-0.02512,-0.04043 -0.05061,-0.08145 -0.07596,-0.1224c-0.6076,0.30409 -1.24974,0.53449 -1.91263,0.68625zM23.94717,14.8308c1.52891,0.75052 3.17572,0.7692 3.20801,0.7692c0.03228,0 1.67909,-0.01867 3.20801,-0.76927c-1.015,-1.74375 -2.00111,-3.91748 -2.00111,-7.03073v-0.6c0,-0.33137 0.27017,-0.6 0.60345,-0.6c0.33328,0 0.60345,-0.26863 0.60345,-0.6c0,-0.33137 -0.27017,-0.6 -0.60345,-0.6c-0.33328,0 -0.60345,-0.26863 -0.60345,-0.6v-1.8h-2.41379v1.8c0,0.33137 -0.27017,0.6 -0.60345,0.6c-0.33328,0 -0.60345,0.26863 -0.60345,0.6c0,0.33137 0.27017,0.6 0.60345,0.6c0.33328,0 0.60345,0.26863 0.60345,0.6v0.6c0,3.11325 -0.98611,5.28698 -2.00111,7.0308zM15.68966,5.9625c0.33328,0 0.60345,0.26863 0.60345,0.6v1.8375h2.41379v-1.8375c0,-0.33137 0.27017,-0.6 0.60345,-0.6v-2.4h-3.62069zM18.7069,9.6h-2.41379v1.2h2.41379zM1.2069,25.2v7.2h10.25862v-7.2zM6.3651,10.8h2.95969c-0.15803,-0.62257 -0.24734,-1.01887 -0.25873,-1.06987c-0.00952,-0.04273 -0.01432,-0.08636 -0.01433,-0.13013h-2.41379c-0.00001,0.04376 -0.00482,0.0874 -0.01433,0.13013c-0.0129,0.05737 -0.10213,0.45322 -0.2585,1.06987zM5.43103,4.2c0,0.33137 0.27017,0.6 0.60345,0.6c0.33328,0 0.60345,0.26863 0.60345,0.6v3h2.41379v-3c0,-0.33137 0.27017,-0.6 0.60345,-0.6c0.33328,0 0.60345,-0.26863 0.60345,-0.6c0,-0.33137 -0.27017,-0.6 -0.60345,-0.6c-0.33328,0 -0.60345,-0.26863 -0.60345,-0.6v-1.8h-2.41379v1.8c0,0.33137 -0.27017,0.6 -0.60345,0.6c-0.33328,0 -0.60345,0.26863 -0.60345,0.6zM1.2689,24h10.19662v-6.59062c-0.78071,-1.86322 -1.40611,-3.90067 -1.82264,-5.40938h-3.59565c-0.5296,1.91985 -1.39653,4.69373 -2.49028,6.86835c-1.43953,2.86267 -2.09706,4.17052 -2.28805,5.13165zM1.81034,34.8h9.75897c-0.06877,-0.19265 -0.10387,-0.39558 -0.10379,-0.6v-0.6h-10.25862v0.6c0.00037,0.33122 0.27033,0.59963 0.60345,0.6zM21.72414,34.8c0.33312,-0.00037 0.60307,-0.26878 0.60345,-0.6v-16.8c0,-3.11633 -3.0837,-4.22498 -3.21495,-4.27058c-0.24248,-0.0843 -0.4051,-0.31152 -0.40574,-0.56693v-0.5625h-2.41379v0.5625c-0.00002,0.25619 -0.16365,0.48411 -0.40733,0.56738c-0.12974,0.04515 -3.21336,1.15297 -3.21336,4.23262v16.8375c0.00037,0.33122 0.27033,0.59963 0.60345,0.6zM33.7931,34.2v-0.6h-10.25862v0.6c0.00008,0.20442 -0.03502,0.40735 -0.10379,0.6h9.75897c0.33312,-0.00037 0.60307,-0.26878 0.60345,-0.6zM33.7931,24.6c0,-3.13583 -0.80877,-5.20605 -1.30767,-6.1851c-2.04901,1.96013 -5.18483,1.9851 -5.33026,1.9851c-0.08659,0 -1.86699,-0.0117 -3.62069,-0.83513v5.63512h10.25862zM32.49403,23.34c0.01601,0.15833 -0.0319,0.31651 -0.13319,0.43972c-0.10129,0.12321 -0.24765,0.20137 -0.4069,0.21728c-0.02044,0.00203 -0.04088,0.003 -0.0611,0.003c-0.30962,-0.00038 -0.56871,-0.23369 -0.59968,-0.54c-0.07651,-0.77833 -0.21524,-1.54937 -0.41487,-2.3058c-0.08565,-0.32025 0.10602,-0.6489 0.42811,-0.73406c0.32209,-0.08516 0.65263,0.10541 0.73828,0.42566c0.21613,0.81822 0.36638,1.65226 0.44934,2.4942zM13.87931,18v-0.6375c0,-0.89167 0.34736,-1.6341 1.06207,-2.26957c0.32822,-0.28833 0.69478,-0.53038 1.08938,-0.71933c0.30016,-0.14406 0.66094,-0.01892 0.80583,0.27952c0.14489,0.29844 0.01902,0.65716 -0.28113,0.80123c-0.29278,0.14056 -0.5651,0.31986 -0.80953,0.53303c-0.58135,0.51698 -0.65972,0.98512 -0.65972,1.37512v0.6375c0,0.33137 -0.27017,0.6 -0.60345,0.6c-0.33328,0 -0.60345,-0.26863 -0.60345,-0.6zM21,20.61111v9.77778c0,0.33751 -0.26117,0.61111 -0.58333,0.61111h-5.83333c-0.32217,0 -0.58333,-0.2736 -0.58333,-0.61111v-9.77778c0,-0.33751 0.26117,-0.61111 0.58333,-0.61111h5.83333c0.32217,0 0.58333,0.2736 0.58333,0.61111zM19.83333,21.22222h-4.66667v8.55556h4.66667z" style="stroke-width: 0; stroke-linecap: butt; stroke-linejoin: miter; fill: rgb(223, 22, 131);" vector-effect="non-scaling-stroke"/></g><defs><path id="path-1673965089654127990" d="M3.37554,21.94095c0.33046,-0.68535 0.73945,-1.49873 1.25728,-2.52848l0.00362,-0.0075c0.14906,-0.29639 0.51155,-0.41652 0.80964,-0.26831c0.29809,0.14821 0.41891,0.50862 0.26985,0.80501l-0.00362,0.00712c-0.51534,1.0248 -0.92237,1.83427 -1.24846,2.51055c-0.06909,0.14358 -0.19276,0.25395 -0.34376,0.30679c-0.151,0.05284 -0.31694,0.04381 -0.46124,-0.02509c-0.30036,-0.14323 -0.42717,-0.50136 -0.28332,-0.8001zM33.10412,17.08845c0.26967,0.3822 1.89588,2.87977 1.89588,7.51155v9.6c-0.00116,0.99363 -0.811,1.79884 -1.81034,1.8h-31.37931c-0.99934,-0.00116 -1.80918,-0.80637 -1.81034,-1.8v-9.6c0,-1.34168 0.62427,-2.58308 2.47753,-6.26857c1.65186,-3.28485 2.81245,-8.18783 2.9535,-8.79892v-3.63533c-0.72349,-0.25417 -1.20723,-0.93423 -1.20723,-1.69718c0,-0.76294 0.48374,-1.443 1.20723,-1.69717v-1.90283c0,-0.33137 0.27017,-0.6 0.60345,-0.6h3.62069c0.33328,0 0.60345,0.26863 0.60345,0.6v1.90283c0.72349,0.25417 1.20723,0.93423 1.20723,1.69717c0,0.76294 -0.48374,1.443 -1.20723,1.69718v3.63533c0.45227,1.92166 1.00464,3.81867 1.65488,5.68335c0.36004,-0.79488 0.90015,-1.49617 1.57809,-2.049c0.4854,-0.40209 1.02145,-0.73953 1.59461,-1.0038v-5.00055c-0.33328,0 -0.60345,-0.26863 -0.60345,-0.6v-3.6c0,-0.33137 0.27017,-0.6 0.60345,-0.6h4.82759c0.33328,0 0.60345,0.26863 0.60345,0.6v3.6c0,0.33137 -0.27017,0.6 -0.60345,0.6v5.00085c0.57419,0.26548 1.1108,0.60483 1.59605,1.00935c0.47165,0.39122 0.87935,0.85287 1.20856,1.36845c1.03031,-1.71615 2.02298,-3.73147 2.02298,-6.74115v-0.10282c-0.72349,-0.25417 -1.20723,-0.93423 -1.20723,-1.69718c0,-0.76294 0.48374,-1.443 1.20723,-1.69718v-1.90282c0,-0.33137 0.27017,-0.6 0.60345,-0.6h3.62069c0.33328,0 0.60345,0.26863 0.60345,0.6v1.90283c0.72349,0.25417 1.20723,0.93423 1.20723,1.69717c0,0.76294 -0.48374,1.443 -1.20723,1.69718v0.10282c0,3.49642 1.33973,5.6517 2.52173,7.55325c0.37037,0.59588 0.72067,1.1595 1.01342,1.7352zM23.53448,32.4h10.25862v-6h-10.25862zM23.53448,17.4v0.80715c0.42464,0.24915 0.87644,0.44939 1.34667,0.59685c-0.27356,-0.76308 -0.14044,-1.61195 0.35377,-2.256c-0.66285,-0.15175 -1.30497,-0.38213 -1.91255,-0.68617l-0.00392,0.0063c0.14465,0.49787 0.21739,1.01365 0.21603,1.53188zM27.15517,19.2c0.66655,0 1.2069,-0.53726 1.2069,-1.2c0,-0.66274 -0.54035,-1.2 -1.2069,-1.2c-0.66655,0 -1.2069,0.53726 -1.2069,1.2c0.00075,0.66243 0.54066,1.19926 1.2069,1.2zM29.0755,16.54807c0.49397,0.64371 0.62721,1.49207 0.35415,2.25488c0.83864,-0.2688 1.75045,-0.72 2.43642,-1.4763c-0.23783,-0.43388 -0.51331,-0.87795 -0.80206,-1.3425c-0.02512,-0.04043 -0.05061,-0.08145 -0.07596,-0.1224c-0.6076,0.30409 -1.24974,0.53449 -1.91263,0.68625zM23.94717,14.8308c1.52891,0.75052 3.17572,0.7692 3.20801,0.7692c0.03228,0 1.67909,-0.01867 3.20801,-0.76927c-1.015,-1.74375 -2.00111,-3.91748 -2.00111,-7.03073v-0.6c0,-0.33137 0.27017,-0.6 0.60345,-0.6c0.33328,0 0.60345,-0.26863 0.60345,-0.6c0,-0.33137 -0.27017,-0.6 -0.60345,-0.6c-0.33328,0 -0.60345,-0.26863 -0.60345,-0.6v-1.8h-2.41379v1.8c0,0.33137 -0.27017,0.6 -0.60345,0.6c-0.33328,0 -0.60345,0.26863 -0.60345,0.6c0,0.33137 0.27017,0.6 0.60345,0.6c0.33328,0 0.60345,0.26863 0.60345,0.6v0.6c0,3.11325 -0.98611,5.28698 -2.00111,7.0308zM15.68966,5.9625c0.33328,0 0.60345,0.26863 0.60345,0.6v1.8375h2.41379v-1.8375c0,-0.33137 0.27017,-0.6 0.60345,-0.6v-2.4h-3.62069zM18.7069,9.6h-2.41379v1.2h2.41379zM1.2069,25.2v7.2h10.25862v-7.2zM6.3651,10.8h2.95969c-0.15803,-0.62257 -0.24734,-1.01887 -0.25873,-1.06987c-0.00952,-0.04273 -0.01432,-0.08636 -0.01433,-0.13013h-2.41379c-0.00001,0.04376 -0.00482,0.0874 -0.01433,0.13013c-0.0129,0.05737 -0.10213,0.45322 -0.2585,1.06987zM5.43103,4.2c0,0.33137 0.27017,0.6 0.60345,0.6c0.33328,0 0.60345,0.26863 0.60345,0.6v3h2.41379v-3c0,-0.33137 0.27017,-0.6 0.60345,-0.6c0.33328,0 0.60345,-0.26863 0.60345,-0.6c0,-0.33137 -0.27017,-0.6 -0.60345,-0.6c-0.33328,0 -0.60345,-0.26863 -0.60345,-0.6v-1.8h-2.41379v1.8c0,0.33137 -0.27017,0.6 -0.60345,0.6c-0.33328,0 -0.60345,0.26863 -0.60345,0.6zM1.2689,24h10.19662v-6.59062c-0.78071,-1.86322 -1.40611,-3.90067 -1.82264,-5.40938h-3.59565c-0.5296,1.91985 -1.39653,4.69373 -2.49028,6.86835c-1.43953,2.86267 -2.09706,4.17052 -2.28805,5.13165zM1.81034,34.8h9.75897c-0.06877,-0.19265 -0.10387,-0.39558 -0.10379,-0.6v-0.6h-10.25862v0.6c0.00037,0.33122 0.27033,0.59963 0.60345,0.6zM21.72414,34.8c0.33312,-0.00037 0.60307,-0.26878 0.60345,-0.6v-16.8c0,-3.11633 -3.0837,-4.22498 -3.21495,-4.27058c-0.24248,-0.0843 -0.4051,-0.31152 -0.40574,-0.56693v-0.5625h-2.41379v0.5625c-0.00002,0.25619 -0.16365,0.48411 -0.40733,0.56738c-0.12974,0.04515 -3.21336,1.15297 -3.21336,4.23262v16.8375c0.00037,0.33122 0.27033,0.59963 0.60345,0.6zM33.7931,34.2v-0.6h-10.25862v0.6c0.00008,0.20442 -0.03502,0.40735 -0.10379,0.6h9.75897c0.33312,-0.00037 0.60307,-0.26878 0.60345,-0.6zM33.7931,24.6c0,-3.13583 -0.80877,-5.20605 -1.30767,-6.1851c-2.04901,1.96013 -5.18483,1.9851 -5.33026,1.9851c-0.08659,0 -1.86699,-0.0117 -3.62069,-0.83513v5.63512h10.25862zM32.49403,23.34c0.01601,0.15833 -0.0319,0.31651 -0.13319,0.43972c-0.10129,0.12321 -0.24765,0.20137 -0.4069,0.21728c-0.02044,0.00203 -0.04088,0.003 -0.0611,0.003c-0.30962,-0.00038 -0.56871,-0.23369 -0.59968,-0.54c-0.07651,-0.77833 -0.21524,-1.54937 -0.41487,-2.3058c-0.08565,-0.32025 0.10602,-0.6489 0.42811,-0.73406c0.32209,-0.08516 0.65263,0.10541 0.73828,0.42566c0.21613,0.81822 0.36638,1.65226 0.44934,2.4942zM13.87931,18v-0.6375c0,-0.89167 0.34736,-1.6341 1.06207,-2.26957c0.32822,-0.28833 0.69478,-0.53038 1.08938,-0.71933c0.30016,-0.14406 0.66094,-0.01892 0.80583,0.27952c0.14489,0.29844 0.01902,0.65716 -0.28113,0.80123c-0.29278,0.14056 -0.5651,0.31986 -0.80953,0.53303c-0.58135,0.51698 -0.65972,0.98512 -0.65972,1.37512v0.6375c0,0.33137 -0.27017,0.6 -0.60345,0.6c-0.33328,0 -0.60345,-0.26863 -0.60345,-0.6zM21,20.61111v9.77778c0,0.33751 -0.26117,0.61111 -0.58333,0.61111h-5.83333c-0.32217,0 -0.58333,-0.2736 -0.58333,-0.61111v-9.77778c0,-0.33751 0.26117,-0.61111 0.58333,-0.61111h5.83333c0.32217,0 0.58333,0.2736 0.58333,0.61111zM19.83333,21.22222h-4.66667v8.55556h4.66667z" vector-effect="non-scaling-stroke"/></defs></g></svg>