<svg version="1.2" xmlns="http://www.w3.org/2000/svg" xmlns:xlink="http://www.w3.org/1999/xlink" overflow="visible" preserveAspectRatio="none" viewBox="0 0 39.000009999999996 35.999993368114545" width="39.000009999999996" height="35.999993368114545"><g transform="translate(0, 0)"><g transform="translate(0.000030000000005525607, -0.000006631885447166974) rotate(0)"><path d="M0,33.5314v-0.617c0,-0.3412 0.2724,-0.617 0.60939,-0.617h0.61061v-3.07881c0.00061,-9.50974 7.12199,-17.36286 16.24888,-18.39015c-0.25655,-0.39056 -0.40708,-0.85762 -0.40708,-1.36047c0,-1.36109 1.09325,-2.46798 2.43758,-2.46798c1.34432,0 2.43758,1.10689 2.43758,2.46798c0,0.50285 -0.15052,0.96992 -0.40647,1.36047c9.1275,1.02545 16.2501,8.87979 16.25071,18.39077v3.07881h0.60939c0.33699,0 0.60939,0.2758 0.60939,0.617v0.617c0,1.36109 -1.09325,2.46798 -2.43758,2.46798h-34.12485c-1.34432,0 -2.43758,-1.10689 -2.43758,-2.4686zM18.2806,9.46798c0,0.68055 0.54663,1.23399 1.21879,1.23399c0.67216,0 1.21879,-0.55344 1.21879,-1.23399c0,-0.68055 -0.54663,-1.23399 -1.21879,-1.23399c-0.67216,0 -1.21879,0.55344 -1.21879,1.23399zM2.43879,32.29741h34.12363v-3.07757c0,-9.52517 -7.65399,-17.27463 -17.06181,-17.27463c-9.40783,0 -17.06181,7.74946 -17.06181,17.27463zM1.21879,33.53202c0,0.68055 0.54663,1.23399 1.21879,1.23399h34.12485c0.67216,0 1.21879,-0.55344 1.21879,-1.23399zM35.34253,29.29687c0,0.33729 -0.27239,0.60993 -0.60937,0.60993c-0.33698,0 -0.60937,-0.27264 -0.60937,-0.60993c0,-8.07608 -6.56419,-14.64564 -14.63231,-14.64564c-0.33698,0 -0.60937,-0.27264 -0.60937,-0.60993c0,-0.33729 0.27239,-0.60993 0.60938,-0.60993c8.74027,0 15.85106,7.11727 15.85106,15.8655zM10.54767,8.73674c0.1432,-0.14333 1.38572,-1.48274 -0.06947,-3.48514c-1.69284,-2.32932 -0.69469,-4.34148 0.06947,-5.08011c0.24131,-0.23421 0.62827,-0.22628 0.86166,0.01525c0.23278,0.24092 0.2273,0.62518 -0.0128,0.86c-0.15052,0.15065 -1.38511,1.48945 0.06703,3.48758c1.69284,2.32932 0.69469,4.34148 -0.06947,5.08011c-0.11761,0.11406 -0.27056,0.17078 -0.42291,0.17078c-0.15966,0 -0.31931,-0.06282 -0.43875,-0.18664c-0.23339,-0.24275 -0.22669,-0.62884 0.01523,-0.86183zM27.58884,8.73674c0.1432,-0.14333 1.38572,-1.48274 -0.06947,-3.48514c-1.69284,-2.32932 -0.69469,-4.34148 0.06947,-5.08011c0.24131,-0.23421 0.62827,-0.22628 0.86166,0.01525c0.23278,0.24092 0.2273,0.62518 -0.0128,0.86c-0.15052,0.15065 -1.38511,1.48945 0.06703,3.48758c1.69284,2.32932 0.69469,4.34148 -0.06947,5.08011c-0.11761,0.11406 -0.27056,0.17078 -0.42291,0.17078c-0.15966,0 -0.31931,-0.06282 -0.43875,-0.18664c-0.23339,-0.24275 -0.22669,-0.62884 0.01523,-0.86183zM19.92717,1.04614c-0.1493,0.14943 -1.38633,1.48884 0.06642,3.48819c0.19805,0.27203 0.13772,0.65384 -0.13467,0.85146c-0.10847,0.07807 -0.23339,0.1165 -0.3577,0.1165c-0.18891,0 -0.37477,-0.08661 -0.49359,-0.25129c-1.69284,-2.32932 -0.69469,-4.34148 0.06947,-5.08011c0.24131,-0.23421 0.62827,-0.22628 0.86166,0.01525c0.23278,0.24092 0.22669,0.62518 -0.01158,0.86z" style="stroke-width: 0; stroke-linecap: butt; stroke-linejoin: miter; fill: rgb(223, 22, 131);" vector-effect="non-scaling-stroke"/></g><defs><path id="path-1673967729003352554" d="M0,33.5314v-0.617c0,-0.3412 0.2724,-0.617 0.60939,-0.617h0.61061v-3.07881c0.00061,-9.50974 7.12199,-17.36286 16.24888,-18.39015c-0.25655,-0.39056 -0.40708,-0.85762 -0.40708,-1.36047c0,-1.36109 1.09325,-2.46798 2.43758,-2.46798c1.34432,0 2.43758,1.10689 2.43758,2.46798c0,0.50285 -0.15052,0.96992 -0.40647,1.36047c9.1275,1.02545 16.2501,8.87979 16.25071,18.39077v3.07881h0.60939c0.33699,0 0.60939,0.2758 0.60939,0.617v0.617c0,1.36109 -1.09325,2.46798 -2.43758,2.46798h-34.12485c-1.34432,0 -2.43758,-1.10689 -2.43758,-2.4686zM18.2806,9.46798c0,0.68055 0.54663,1.23399 1.21879,1.23399c0.67216,0 1.21879,-0.55344 1.21879,-1.23399c0,-0.68055 -0.54663,-1.23399 -1.21879,-1.23399c-0.67216,0 -1.21879,0.55344 -1.21879,1.23399zM2.43879,32.29741h34.12363v-3.07757c0,-9.52517 -7.65399,-17.27463 -17.06181,-17.27463c-9.40783,0 -17.06181,7.74946 -17.06181,17.27463zM1.21879,33.53202c0,0.68055 0.54663,1.23399 1.21879,1.23399h34.12485c0.67216,0 1.21879,-0.55344 1.21879,-1.23399zM35.34253,29.29687c0,0.33729 -0.27239,0.60993 -0.60937,0.60993c-0.33698,0 -0.60937,-0.27264 -0.60937,-0.60993c0,-8.07608 -6.56419,-14.64564 -14.63231,-14.64564c-0.33698,0 -0.60937,-0.27264 -0.60937,-0.60993c0,-0.33729 0.27239,-0.60993 0.60938,-0.60993c8.74027,0 15.85106,7.11727 15.85106,15.8655zM10.54767,8.73674c0.1432,-0.14333 1.38572,-1.48274 -0.06947,-3.48514c-1.69284,-2.32932 -0.69469,-4.34148 0.06947,-5.08011c0.24131,-0.23421 0.62827,-0.22628 0.86166,0.01525c0.23278,0.24092 0.2273,0.62518 -0.0128,0.86c-0.15052,0.15065 -1.38511,1.48945 0.06703,3.48758c1.69284,2.32932 0.69469,4.34148 -0.06947,5.08011c-0.11761,0.11406 -0.27056,0.17078 -0.42291,0.17078c-0.15966,0 -0.31931,-0.06282 -0.43875,-0.18664c-0.23339,-0.24275 -0.22669,-0.62884 0.01523,-0.86183zM27.58884,8.73674c0.1432,-0.14333 1.38572,-1.48274 -0.06947,-3.48514c-1.69284,-2.32932 -0.69469,-4.34148 0.06947,-5.08011c0.24131,-0.23421 0.62827,-0.22628 0.86166,0.01525c0.23278,0.24092 0.2273,0.62518 -0.0128,0.86c-0.15052,0.15065 -1.38511,1.48945 0.06703,3.48758c1.69284,2.32932 0.69469,4.34148 -0.06947,5.08011c-0.11761,0.11406 -0.27056,0.17078 -0.42291,0.17078c-0.15966,0 -0.31931,-0.06282 -0.43875,-0.18664c-0.23339,-0.24275 -0.22669,-0.62884 0.01523,-0.86183zM19.92717,1.04614c-0.1493,0.14943 -1.38633,1.48884 0.06642,3.48819c0.19805,0.27203 0.13772,0.65384 -0.13467,0.85146c-0.10847,0.07807 -0.23339,0.1165 -0.3577,0.1165c-0.18891,0 -0.37477,-0.08661 -0.49359,-0.25129c-1.69284,-2.32932 -0.69469,-4.34148 0.06947,-5.08011c0.24131,-0.23421 0.62827,-0.22628 0.86166,0.01525c0.23278,0.24092 0.22669,0.62518 -0.01158,0.86z" vector-effect="non-scaling-stroke"/></defs></g></svg>