<svg version="1.2" xmlns="http://www.w3.org/2000/svg" xmlns:xlink="http://www.w3.org/1999/xlink" overflow="visible" preserveAspectRatio="none" viewBox="0 0 24 24" width="28" height="28"><g><path xmlns:default="http://www.w3.org/2000/svg" id="paypal" d="M19.83,9.38c-0.1-0.67-0.46-1.28-1-1.69h-0.06l0,0c-0.01,0.03-0.01,0.05,0,0.08c-0.08,0.47-0.2,0.93-0.36,1.38  c-0.32,0.97-0.87,1.85-1.61,2.56c-0.84,0.76-1.88,1.28-3,1.5c-0.81,0.17-1.63,0.24-2.46,0.22H9.9c-0.22-0.03-0.42,0.13-0.45,0.35  c0,0.01,0,0.03,0,0.04l-0.28,1.72l-0.28,1.74l-0.28,1.7l-0.27,1.8c-0.02,0.13,0.01,0.26,0.09,0.37c0.08,0.1,0.21,0.16,0.34,0.16  h2.61c0.17,0,0.33-0.06,0.46-0.17c0.14-0.11,0.23-0.27,0.26-0.44v-0.16l0.6-3.56v-0.2c0.04-0.19,0.15-0.37,0.31-0.48  c0.13-0.11,0.29-0.17,0.46-0.17h0.44c3.33,0,5.29-1.54,5.88-4.62c0.14-0.7,0.14-1.42,0-2.12l0,0L19.83,9.38z M18.01,6.44  c0.01-0.71-0.2-1.41-0.59-2C17,3.85,16.41,3.4,15.72,3.16c-0.38-0.14-0.76-0.25-1.16-0.33c-0.33-0.08-0.66-0.12-1-0.14H7.35  c-0.2,0-0.39,0.07-0.54,0.2c-0.15,0.13-0.26,0.3-0.29,0.5L4.11,18.66c-0.04,0.27,0.15,0.53,0.43,0.57c0.02,0,0.05,0.01,0.07,0h3.07  c0.06,0.01,0.11-0.04,0.12-0.1c0,0,0,0,0,0c0.57-3.62,0.87-5.46,0.88-5.52c0.06-0.62,0.61-1.06,1.23-1c0,0,0,0,0,0h1.87  c0.89,0,1.78-0.15,2.62-0.44c1.51-0.54,2.67-1.75,3.14-3.28C17.84,8.11,17.99,7.28,18.01,6.44L18.01,6.44z" style="fill: rgb(0, 48, 135);" vector-effect="non-scaling-stroke"/></g></svg>