<svg version="1.2" xmlns="http://www.w3.org/2000/svg" xmlns:xlink="http://www.w3.org/1999/xlink" overflow="visible" preserveAspectRatio="none" viewBox="0 0 13.99999 14" width="13.99999" height="14"><g transform="translate(0, 0)"><g transform="translate(4.440892098500626e-16, 0) rotate(0)"><path d="M13.8315,10.89144c0.07044,0.22664 0.10616,0.46291 0.10616,0.70222c0,0.0621 -0.00244,0.12477 -0.00722,0.18622c-0.00966,0.12299 -0.11228,0.21634 -0.23344,0.21634c-0.00616,0 -0.01234,-0.00022 -0.01856,-0.00072c-0.12903,-0.01014 -0.22547,-0.12308 -0.21538,-0.25226c0.00391,-0.04928 0.00584,-0.09962 0.00584,-0.14952c0,-0.19197 -0.02859,-0.38132 -0.085,-0.56278c-0.03844,-0.12374 0.03056,-0.2553 0.15416,-0.29378c0.12375,-0.03854 0.25497,0.0306 0.29344,0.15427zM12.36787,9.87457c-0.11763,-0.05413 -0.16916,-0.19344 -0.11509,-0.3112c0.054,-0.11773 0.19322,-0.16932 0.31081,-0.11523c0.27369,0.12593 0.518,0.30104 0.72619,0.52048c0.08916,0.09395 0.08531,0.2425 -0.00853,0.33173c-0.04534,0.04311 -0.10344,0.06451 -0.16138,0.06451c-0.062,0 -0.12387,-0.0245 -0.16997,-0.07305c-0.16691,-0.17595 -0.36275,-0.31633 -0.58203,-0.41723zM12.22331,13.63351c0.02506,0.12715 -0.05759,0.25054 -0.18459,0.27563c-0.15003,0.02963 -0.30422,0.04465 -0.45841,0.04465h-0.39369c-0.12947,0 -0.23437,-0.10506 -0.23437,-0.23465c0,-0.12959 0.10491,-0.23465 0.23438,-0.23465h0.39369c0.12378,0 0.2475,-0.01205 0.36772,-0.03579c0.12684,-0.02506 0.25022,0.05766 0.27528,0.18481zM8.63344,7.01255c-0.085,-0.09774 -0.07475,-0.24594 0.02287,-0.33104c0.23769,-0.20715 0.52684,-0.34471 0.83616,-0.39783c0.12741,-0.02196 0.24875,0.06386 0.27059,0.1916c0.02191,0.12771 -0.06378,0.24904 -0.19138,0.27094c-0.22459,0.03858 -0.43472,0.1386 -0.60756,0.28924c-0.04441,0.0387 -0.09925,0.05766 -0.15381,0.05766c-0.06544,0 -0.13053,-0.02728 -0.17688,-0.08056zM8.16506,8.56049c-0.06631,-0.18578 -0.09994,-0.38078 -0.09994,-0.57964c0,-0.11585 0.01159,-0.23167 0.03444,-0.34427c0.02575,-0.12699 0.14944,-0.20896 0.27631,-0.18324c0.12684,0.02578 0.20878,0.14964 0.18303,0.27663c-0.01659,0.08194 -0.02503,0.16635 -0.02503,0.25092c0,0.14485 0.02441,0.28677 0.07259,0.42171c0.04356,0.12202 -0.01994,0.2563 -0.14181,0.29991c-0.02606,0.00929 -0.05269,0.01373 -0.07888,0.01373c-0.09625,0 -0.18647,-0.05979 -0.22072,-0.15574zM11.52247,9.70291h-0.8095c-0.12947,0 -0.23437,-0.10506 -0.23437,-0.23465c0,-0.12959 0.10491,-0.23465 0.23438,-0.23465h0.8095c0.12947,0 0.23438,0.10506 0.23438,0.23465c0,0.12959 -0.10494,0.23465 -0.23437,0.23465zM13.60672,12.80021c-0.15431,0.25927 -0.35406,0.48397 -0.59363,0.66777c-0.04256,0.03263 -0.09269,0.04843 -0.14241,0.04843c-0.07044,0 -0.14003,-0.03163 -0.18622,-0.09192c-0.07872,-0.10287 -0.05925,-0.25013 0.04347,-0.32897c0.19216,-0.14745 0.35234,-0.32763 0.47613,-0.53556c0.06628,-0.11138 0.21009,-0.14776 0.32131,-0.08147c0.11119,0.06636 0.14763,0.21037 0.08134,0.32172zM10.44962,13.71914c0,0.12959 -0.10491,0.23465 -0.23437,0.23465h-0.80947c-0.12947,0 -0.23437,-0.10506 -0.23437,-0.23465c0,-0.12959 0.10491,-0.23465 0.23438,-0.23465h0.80947c0.12944,0 0.23438,0.10506 0.23438,0.23465zM8.66872,13.71914c0,0.12959 -0.10491,0.23465 -0.23437,0.23465h-0.8095c-0.12947,0 -0.23437,-0.10506 -0.23437,-0.23465c0,-0.12959 0.10491,-0.23465 0.23438,-0.23465h0.8095c0.12947,0 0.23438,0.10506 0.23438,0.23465zM9.73481,9.70219c-0.31472,-0.00907 -0.62034,-0.10425 -0.88394,-0.27522c-0.10866,-0.07049 -0.13966,-0.21578 -0.06925,-0.32453c0.07038,-0.10875 0.21553,-0.13979 0.32413,-0.06933c0.1915,0.12424 0.41372,0.19338 0.64256,0.19998c0.12937,0.00372 0.23125,0.11175 0.22753,0.24131c-0.00366,0.12724 -0.10784,0.22789 -0.23416,0.22789c-0.00228,0 -0.00456,-0.00003 -0.00687,-0.00009zM4,3.00001c2.20874,0.00097 3.99903,1.80218 4,4.02437c0,1.36051 -0.59778,2.74776 -1.32888,3.91821c-0.68195,1.07455 -1.4871,2.06471 -2.39887,2.9501c-0.15362,0.14308 -0.39082,0.14308 -0.54443,0c-0.91179,-0.88539 -1.71696,-1.87555 -2.39893,-2.9501c-0.7311,-1.17045 -1.32889,-2.55771 -1.32889,-3.91821c0.00097,-2.2222 1.79127,-4.02341 4.00002,-4.02438zM4.00002,4.74393c-0.76848,-0.00001 -1.46129,0.46572 -1.75539,1.18002c-0.29409,0.7143 -0.13155,1.53651 0.41184,2.08322c0.54339,0.54671 1.36061,0.71027 2.0706,0.41441c0.70999,-0.29587 1.17291,-0.99289 1.17292,-1.76605c-0.00031,-1.0556 -0.85077,-1.91126 -1.89997,-1.91161zM11.49999,0.00001c1.38046,0.00062 2.4994,1.14684 2.5,2.56096c0,0.86578 -0.37361,1.74858 -0.83055,2.49341c-0.42622,0.6838 -0.92944,1.3139 -1.49929,1.87734c-0.09601,0.09105 -0.24426,0.09105 -0.34027,0c-0.56987,-0.56343 -1.0731,-1.19353 -1.49933,-1.87734c-0.45694,-0.74483 -0.83055,-1.62763 -0.83055,-2.49341c0.00061,-1.41413 1.11955,-2.56035 2.50001,-2.56097zM11.5,1.10977c-0.4803,-0.00001 -0.91331,0.29637 -1.09712,0.75092c-0.18381,0.45456 -0.08222,0.97778 0.2574,1.32569c0.33962,0.34791 0.85038,0.45199 1.29412,0.26371c0.44374,-0.18828 0.73307,-0.63184 0.73308,-1.12385c-0.0002,-0.67174 -0.53173,-1.21626 -1.18748,-1.21648z" style="stroke-width: 0; stroke-linecap: butt; stroke-linejoin: miter; fill: rgb(138, 138, 138);" vector-effect="non-scaling-stroke"/></g><defs><path id="path-1672180209980520318" d="M13.8315,10.89144c0.07044,0.22664 0.10616,0.46291 0.10616,0.70222c0,0.0621 -0.00244,0.12477 -0.00722,0.18622c-0.00966,0.12299 -0.11228,0.21634 -0.23344,0.21634c-0.00616,0 -0.01234,-0.00022 -0.01856,-0.00072c-0.12903,-0.01014 -0.22547,-0.12308 -0.21538,-0.25226c0.00391,-0.04928 0.00584,-0.09962 0.00584,-0.14952c0,-0.19197 -0.02859,-0.38132 -0.085,-0.56278c-0.03844,-0.12374 0.03056,-0.2553 0.15416,-0.29378c0.12375,-0.03854 0.25497,0.0306 0.29344,0.15427zM12.36787,9.87457c-0.11763,-0.05413 -0.16916,-0.19344 -0.11509,-0.3112c0.054,-0.11773 0.19322,-0.16932 0.31081,-0.11523c0.27369,0.12593 0.518,0.30104 0.72619,0.52048c0.08916,0.09395 0.08531,0.2425 -0.00853,0.33173c-0.04534,0.04311 -0.10344,0.06451 -0.16138,0.06451c-0.062,0 -0.12387,-0.0245 -0.16997,-0.07305c-0.16691,-0.17595 -0.36275,-0.31633 -0.58203,-0.41723zM12.22331,13.63351c0.02506,0.12715 -0.05759,0.25054 -0.18459,0.27563c-0.15003,0.02963 -0.30422,0.04465 -0.45841,0.04465h-0.39369c-0.12947,0 -0.23437,-0.10506 -0.23437,-0.23465c0,-0.12959 0.10491,-0.23465 0.23438,-0.23465h0.39369c0.12378,0 0.2475,-0.01205 0.36772,-0.03579c0.12684,-0.02506 0.25022,0.05766 0.27528,0.18481zM8.63344,7.01255c-0.085,-0.09774 -0.07475,-0.24594 0.02287,-0.33104c0.23769,-0.20715 0.52684,-0.34471 0.83616,-0.39783c0.12741,-0.02196 0.24875,0.06386 0.27059,0.1916c0.02191,0.12771 -0.06378,0.24904 -0.19138,0.27094c-0.22459,0.03858 -0.43472,0.1386 -0.60756,0.28924c-0.04441,0.0387 -0.09925,0.05766 -0.15381,0.05766c-0.06544,0 -0.13053,-0.02728 -0.17688,-0.08056zM8.16506,8.56049c-0.06631,-0.18578 -0.09994,-0.38078 -0.09994,-0.57964c0,-0.11585 0.01159,-0.23167 0.03444,-0.34427c0.02575,-0.12699 0.14944,-0.20896 0.27631,-0.18324c0.12684,0.02578 0.20878,0.14964 0.18303,0.27663c-0.01659,0.08194 -0.02503,0.16635 -0.02503,0.25092c0,0.14485 0.02441,0.28677 0.07259,0.42171c0.04356,0.12202 -0.01994,0.2563 -0.14181,0.29991c-0.02606,0.00929 -0.05269,0.01373 -0.07888,0.01373c-0.09625,0 -0.18647,-0.05979 -0.22072,-0.15574zM11.52247,9.70291h-0.8095c-0.12947,0 -0.23437,-0.10506 -0.23437,-0.23465c0,-0.12959 0.10491,-0.23465 0.23438,-0.23465h0.8095c0.12947,0 0.23438,0.10506 0.23438,0.23465c0,0.12959 -0.10494,0.23465 -0.23437,0.23465zM13.60672,12.80021c-0.15431,0.25927 -0.35406,0.48397 -0.59363,0.66777c-0.04256,0.03263 -0.09269,0.04843 -0.14241,0.04843c-0.07044,0 -0.14003,-0.03163 -0.18622,-0.09192c-0.07872,-0.10287 -0.05925,-0.25013 0.04347,-0.32897c0.19216,-0.14745 0.35234,-0.32763 0.47613,-0.53556c0.06628,-0.11138 0.21009,-0.14776 0.32131,-0.08147c0.11119,0.06636 0.14763,0.21037 0.08134,0.32172zM10.44962,13.71914c0,0.12959 -0.10491,0.23465 -0.23437,0.23465h-0.80947c-0.12947,0 -0.23437,-0.10506 -0.23437,-0.23465c0,-0.12959 0.10491,-0.23465 0.23438,-0.23465h0.80947c0.12944,0 0.23438,0.10506 0.23438,0.23465zM8.66872,13.71914c0,0.12959 -0.10491,0.23465 -0.23437,0.23465h-0.8095c-0.12947,0 -0.23437,-0.10506 -0.23437,-0.23465c0,-0.12959 0.10491,-0.23465 0.23438,-0.23465h0.8095c0.12947,0 0.23438,0.10506 0.23438,0.23465zM9.73481,9.70219c-0.31472,-0.00907 -0.62034,-0.10425 -0.88394,-0.27522c-0.10866,-0.07049 -0.13966,-0.21578 -0.06925,-0.32453c0.07038,-0.10875 0.21553,-0.13979 0.32413,-0.06933c0.1915,0.12424 0.41372,0.19338 0.64256,0.19998c0.12937,0.00372 0.23125,0.11175 0.22753,0.24131c-0.00366,0.12724 -0.10784,0.22789 -0.23416,0.22789c-0.00228,0 -0.00456,-0.00003 -0.00687,-0.00009zM4,3.00001c2.20874,0.00097 3.99903,1.80218 4,4.02437c0,1.36051 -0.59778,2.74776 -1.32888,3.91821c-0.68195,1.07455 -1.4871,2.06471 -2.39887,2.9501c-0.15362,0.14308 -0.39082,0.14308 -0.54443,0c-0.91179,-0.88539 -1.71696,-1.87555 -2.39893,-2.9501c-0.7311,-1.17045 -1.32889,-2.55771 -1.32889,-3.91821c0.00097,-2.2222 1.79127,-4.02341 4.00002,-4.02438zM4.00002,4.74393c-0.76848,-0.00001 -1.46129,0.46572 -1.75539,1.18002c-0.29409,0.7143 -0.13155,1.53651 0.41184,2.08322c0.54339,0.54671 1.36061,0.71027 2.0706,0.41441c0.70999,-0.29587 1.17291,-0.99289 1.17292,-1.76605c-0.00031,-1.0556 -0.85077,-1.91126 -1.89997,-1.91161zM11.49999,0.00001c1.38046,0.00062 2.4994,1.14684 2.5,2.56096c0,0.86578 -0.37361,1.74858 -0.83055,2.49341c-0.42622,0.6838 -0.92944,1.3139 -1.49929,1.87734c-0.09601,0.09105 -0.24426,0.09105 -0.34027,0c-0.56987,-0.56343 -1.0731,-1.19353 -1.49933,-1.87734c-0.45694,-0.74483 -0.83055,-1.62763 -0.83055,-2.49341c0.00061,-1.41413 1.11955,-2.56035 2.50001,-2.56097zM11.5,1.10977c-0.4803,-0.00001 -0.91331,0.29637 -1.09712,0.75092c-0.18381,0.45456 -0.08222,0.97778 0.2574,1.32569c0.33962,0.34791 0.85038,0.45199 1.29412,0.26371c0.44374,-0.18828 0.73307,-0.63184 0.73308,-1.12385c-0.0002,-0.67174 -0.53173,-1.21626 -1.18748,-1.21648z" vector-effect="non-scaling-stroke"/></defs></g></svg>