<svg version="1.2" xmlns="http://www.w3.org/2000/svg" xmlns:xlink="http://www.w3.org/1999/xlink" overflow="visible" preserveAspectRatio="none" viewBox="0 0 21.999989975725175 22.000021334576754" width="21.999989975725175" height="22.000021334576754"><g transform="translate(0, 0)"><g transform="translate(-0.000009999999999177334, -0.00000866542324240438) rotate(0)"><path style="stroke-width: 0; stroke-linecap: butt; stroke-linejoin: miter; fill: rgb(138, 138, 138);" d="M18.13006,14.72041c-1.14728,0.00324 -2.22517,0.55106 -2.90565,1.47672l-6.22639,-3.36941c0.46011,-1.1191 0.46011,-2.3751 0,-3.4942l6.22639,-3.36941c1.15828,1.59478 3.35057,2.01932 5.01836,0.9718c1.66779,-1.04752 2.24223,-3.2098 1.31496,-4.94967c-0.92728,-1.73987 -3.03999,-2.46391 -4.83622,-1.65738c-1.79623,0.80652 -2.6633,2.86852 -1.98482,4.7201l-6.22639,3.36941c-1.16226,-1.68379 -3.2818,-2.41497 -5.23201,-1.80489c-1.95022,0.61008 -3.27828,2.41977 -3.27828,4.46715c0,2.04738 1.32806,3.85706 3.27828,4.46715c1.95022,0.61008 4.06976,-0.1211 5.23201,-1.80489l6.22639,3.36941c-0.1528,0.39849 -0.23362,0.82106 -0.23868,1.24793c0,2.0102 1.62613,3.6398 3.63206,3.6398c2.00593,0 3.63206,-1.62959 3.63206,-3.6398c0,-2.0102 -1.62613,-3.6398 -3.63206,-3.6398zM18.13006,1.20117c1.43281,0 2.59433,1.16399 2.59433,2.59985c0,1.43586 -1.16152,2.59985 -2.59433,2.59985c-1.43281,0 -2.59433,-1.16399 -2.59433,-2.59985c0,-1.43586 1.16152,-2.59985 2.59433,-2.59985zM4.63956,14.72041c-2.00593,0 -3.63206,-1.62959 -3.63206,-3.6398c0,-2.0102 1.62613,-3.6398 3.63206,-3.6398c2.00593,0 3.63206,1.62959 3.63206,3.6398c0,2.0102 -1.62613,3.6398 -3.63206,3.6398zM18.13006,20.96006c-1.43281,0 -2.59433,-1.16399 -2.59433,-2.59985c0,-1.43586 1.16152,-2.59985 2.59433,-2.59985c1.43281,0 2.59433,1.16399 2.59433,2.59985c0,1.43586 -1.16152,2.59985 -2.59433,2.59985z" vector-effect="non-scaling-stroke"/></g><defs><path id="path-16742270756431139" d="M18.13006,14.72041c-1.14728,0.00324 -2.22517,0.55106 -2.90565,1.47672l-6.22639,-3.36941c0.46011,-1.1191 0.46011,-2.3751 0,-3.4942l6.22639,-3.36941c1.15828,1.59478 3.35057,2.01932 5.01836,0.9718c1.66779,-1.04752 2.24223,-3.2098 1.31496,-4.94967c-0.92728,-1.73987 -3.03999,-2.46391 -4.83622,-1.65738c-1.79623,0.80652 -2.6633,2.86852 -1.98482,4.7201l-6.22639,3.36941c-1.16226,-1.68379 -3.2818,-2.41497 -5.23201,-1.80489c-1.95022,0.61008 -3.27828,2.41977 -3.27828,4.46715c0,2.04738 1.32806,3.85706 3.27828,4.46715c1.95022,0.61008 4.06976,-0.1211 5.23201,-1.80489l6.22639,3.36941c-0.1528,0.39849 -0.23362,0.82106 -0.23868,1.24793c0,2.0102 1.62613,3.6398 3.63206,3.6398c2.00593,0 3.63206,-1.62959 3.63206,-3.6398c0,-2.0102 -1.62613,-3.6398 -3.63206,-3.6398zM18.13006,1.20117c1.43281,0 2.59433,1.16399 2.59433,2.59985c0,1.43586 -1.16152,2.59985 -2.59433,2.59985c-1.43281,0 -2.59433,-1.16399 -2.59433,-2.59985c0,-1.43586 1.16152,-2.59985 2.59433,-2.59985zM4.63956,14.72041c-2.00593,0 -3.63206,-1.62959 -3.63206,-3.6398c0,-2.0102 1.62613,-3.6398 3.63206,-3.6398c2.00593,0 3.63206,1.62959 3.63206,3.6398c0,2.0102 -1.62613,3.6398 -3.63206,3.6398zM18.13006,20.96006c-1.43281,0 -2.59433,-1.16399 -2.59433,-2.59985c0,-1.43586 1.16152,-2.59985 2.59433,-2.59985c1.43281,0 2.59433,1.16399 2.59433,2.59985c0,1.43586 -1.16152,2.59985 -2.59433,2.59985z" vector-effect="non-scaling-stroke"/></defs></g></svg>