<svg version="1.2" xmlns="http://www.w3.org/2000/svg" xmlns:xlink="http://www.w3.org/1999/xlink" overflow="visible" preserveAspectRatio="none" viewBox="0 0 19.99997 18" width="19.99997" height="18"><g transform="translate(0, 0)"><g transform="translate(0.000009999999999843467, 0.000009999999999621423) rotate(0)"><path d="M18.18999,6.17433c0.09292,-0.15308 0.14246,-0.32858 0.14333,-0.50767v-2.66667c-0.002,-1.656 -1.344,-2.998 -3,-3h-10.66666c-1.656,0.002 -2.998,1.344 -3,3v2.66667c0.00087,0.17908 0.05042,0.35458 0.14333,0.50767c-1.08567,0.40112 -1.8075,1.43496 -1.81,2.59233v6.9c0,0.18408 0.14925,0.33333 0.33333,0.33333h1.33333v1.66667c0,0.18408 0.14925,0.33333 0.33333,0.33333h1.66667c0.18408,0 0.33333,-0.14925 0.33333,-0.33333v-1.66667h11.99999v1.66667c0,0.18408 0.14925,0.33333 0.33333,0.33333h1.66667c0.18408,0 0.33333,-0.14925 0.33333,-0.33333v-1.66667h1.33333c0.18408,0 0.33333,-0.14925 0.33333,-0.33333v-6.9c-0.0025,-1.15738 -0.72433,-2.19121 -1.81,-2.59233zM2.33333,3c0.00146,-1.28804 1.04529,-2.33187 2.33333,-2.33333h10.66666c1.28804,0.00146 2.33187,1.04529 2.33333,2.33333v2.66667c0,0.18408 -0.14925,0.33333 -0.33333,0.33333h-0.66667v-2.39133c-0.00075,-0.51996 -0.42204,-0.94125 -0.942,-0.942h-4.116c-0.51996,0.00075 -0.94125,0.42204 -0.942,0.942v2.39133h-1.33333v-2.39133c-0.00075,-0.51996 -0.42204,-0.94125 -0.942,-0.942h-4.116c-0.51996,0.00075 -0.94125,0.42204 -0.942,0.942v2.39133h-0.66667c-0.18408,0 -0.33333,-0.14925 -0.33333,-0.33333zM15.99999,3.60867v2.39133h-4.66666v-2.39133c0.00037,-0.15192 0.12342,-0.27496 0.27533,-0.27533h4.116c0.15192,0.00037 0.27496,0.12342 0.27533,0.27533zM8.66666,3.60867v2.39133h-4.66666v-2.39133c0.00037,-0.15192 0.12342,-0.27496 0.27533,-0.27533h4.116c0.15192,0.00037 0.27496,0.12342 0.27533,0.27533zM3.33333,17.33333h-1v-1.33333h1zM17.66666,17.33333h-1v-1.33333h1zM19.33332,15.33333h-18.66665v-2h18.66665zM19.33332,12.66667h-18.66665v-3.9c0.00167,-1.15913 0.94087,-2.09833 2.1,-2.1h14.46666c1.15912,0.00167 2.09833,0.94088 2.1,2.1z" style="stroke-width: 0; stroke-linecap: butt; stroke-linejoin: miter; fill: rgb(138, 138, 138);" vector-effect="non-scaling-stroke"/></g><defs><path id="path-1674015675985396891" d="M18.18999,6.17433c0.09292,-0.15308 0.14246,-0.32858 0.14333,-0.50767v-2.66667c-0.002,-1.656 -1.344,-2.998 -3,-3h-10.66666c-1.656,0.002 -2.998,1.344 -3,3v2.66667c0.00087,0.17908 0.05042,0.35458 0.14333,0.50767c-1.08567,0.40112 -1.8075,1.43496 -1.81,2.59233v6.9c0,0.18408 0.14925,0.33333 0.33333,0.33333h1.33333v1.66667c0,0.18408 0.14925,0.33333 0.33333,0.33333h1.66667c0.18408,0 0.33333,-0.14925 0.33333,-0.33333v-1.66667h11.99999v1.66667c0,0.18408 0.14925,0.33333 0.33333,0.33333h1.66667c0.18408,0 0.33333,-0.14925 0.33333,-0.33333v-1.66667h1.33333c0.18408,0 0.33333,-0.14925 0.33333,-0.33333v-6.9c-0.0025,-1.15738 -0.72433,-2.19121 -1.81,-2.59233zM2.33333,3c0.00146,-1.28804 1.04529,-2.33187 2.33333,-2.33333h10.66666c1.28804,0.00146 2.33187,1.04529 2.33333,2.33333v2.66667c0,0.18408 -0.14925,0.33333 -0.33333,0.33333h-0.66667v-2.39133c-0.00075,-0.51996 -0.42204,-0.94125 -0.942,-0.942h-4.116c-0.51996,0.00075 -0.94125,0.42204 -0.942,0.942v2.39133h-1.33333v-2.39133c-0.00075,-0.51996 -0.42204,-0.94125 -0.942,-0.942h-4.116c-0.51996,0.00075 -0.94125,0.42204 -0.942,0.942v2.39133h-0.66667c-0.18408,0 -0.33333,-0.14925 -0.33333,-0.33333zM15.99999,3.60867v2.39133h-4.66666v-2.39133c0.00037,-0.15192 0.12342,-0.27496 0.27533,-0.27533h4.116c0.15192,0.00037 0.27496,0.12342 0.27533,0.27533zM8.66666,3.60867v2.39133h-4.66666v-2.39133c0.00037,-0.15192 0.12342,-0.27496 0.27533,-0.27533h4.116c0.15192,0.00037 0.27496,0.12342 0.27533,0.27533zM3.33333,17.33333h-1v-1.33333h1zM17.66666,17.33333h-1v-1.33333h1zM19.33332,15.33333h-18.66665v-2h18.66665zM19.33332,12.66667h-18.66665v-3.9c0.00167,-1.15913 0.94087,-2.09833 2.1,-2.1h14.46666c1.15912,0.00167 2.09833,0.94088 2.1,2.1z" vector-effect="non-scaling-stroke"/></defs></g></svg>