<svg version="1.2" xmlns="http://www.w3.org/2000/svg" xmlns:xlink="http://www.w3.org/1999/xlink" overflow="visible" preserveAspectRatio="none" viewBox="0 0 19.99999 20" width="19.99999" height="20"><g transform="translate(0, 0)"><g transform="translate(-0.000009999999999177334, 1.1102230246251565e-16) rotate(0)"><path d="M11.19747,8.57459c0.04613,0.12854 0.03445,0.31199 -0.026,0.40996c-0.25171,0.40752 -0.39605,1.02603 -0.39605,1.69717c0,0.16155 -0.0616,0.29237 -0.13767,0.29237c-0.07607,0 -0.13775,-0.13082 -0.13775,-0.29237c0,-0.8552 0.18388,-1.64333 0.50442,-2.16235c0.06053,-0.09796 0.14691,-0.07332 0.19305,0.05522zM10,8c-1,-1 0,0 0,0zM20,11.28037c0,2.49834 -1.46899,5.50143 -4.19171,6.14605c-0.83283,0.1972 -1.40549,0.68826 -2.01186,1.20826c-0.78275,0.67119 -1.59223,1.36532 -2.96331,1.36532c-2.30672,0 -3.67221,-1.40728 -4.7708,-2.72617c-0.09512,-0.11413 -0.07959,-0.28378 0.03455,-0.37874c0.11414,-0.09511 0.28367,-0.07972 0.37879,0.03441c1.3024,1.56351 2.48562,2.5326 4.35747,2.5326c1.17203,0 1.87198,-0.60028 2.61305,-1.23567c0.62847,-0.53888 1.2782,-1.09609 2.23818,-1.32336c1.3964,-0.33063 2.27497,-1.33036 2.76622,-2.11078c0.64288,-1.02127 1.01159,-2.30127 1.01159,-3.51191c0,-2.78953 -0.9183,-3.50604 -1.98151,-4.33583c-0.19149,-0.14937 -0.38956,-0.30406 -0.58357,-0.47273c-0.11204,-0.09748 -0.12379,-0.26741 -0.0263,-0.37944c0.09763,-0.11203 0.26745,-0.12378 0.37949,-0.02629c0.1831,0.1593 0.37543,0.30937 0.56147,0.45455c1.0758,0.83959 2.18838,1.7077 2.18824,4.75975zM17.31175,6.02062c-1,-1 0,0 0,0zM4.34591,15.52269c0.10067,0.12615 0.08102,0.31073 -0.04399,0.41248c-0.05366,0.04363 -0.1182,0.06483 -0.18214,0.06483c-0.08495,0 -0.16914,-0.03722 -0.22658,-0.10922c-0.18154,-0.22744 -0.32136,-0.39997 -0.45332,-0.55954c-0.38333,-0.46343 -0.8359,-0.73237 -1.31506,-1.01687c-1.04464,-0.6204 -2.12481,-1.26185 -2.12481,-3.89249c0,-2.94748 1.855,-4.07662 3.34555,-4.98395c0.4967,-0.3025 0.96604,-0.58806 1.31401,-0.9078c0.51061,-0.46908 0.76047,-1.07895 1.02515,-1.72483c0.27843,-0.67974 0.56623,-1.38236 1.17887,-1.91825c0.68232,-0.59691 1.67754,-0.88705 3.04263,-0.88705c3.17777,0 4.28953,1.47099 5.46658,3.02848c0.18033,0.23858 0.36686,0.4854 0.56245,0.72947c0.10097,0.12585 0.08178,0.31058 -0.04308,0.41248c-0.1247,0.1019 -0.30776,0.08253 -0.40873,-0.04348c-0.20104,-0.25063 -0.38998,-0.50081 -0.57288,-0.74274c-1.18129,-1.56298 -2.11423,-2.79752 -5.00435,-2.79752c-2.68349,0 -3.14739,1.13204 -3.6843,2.4427c-0.27752,0.67715 -0.56427,1.37718 -1.17101,1.93458c-0.39029,0.35848 -0.88321,0.65854 -1.405,0.97629c-0.73765,0.44894 -1.50023,0.91329 -2.08642,1.60066c-0.65829,0.77188 -0.97814,1.71415 -0.97814,2.88097c0,2.29504 0.85192,2.80103 1.83837,3.38696c0.50078,0.29731 1.01849,0.60484 1.46652,1.14653c0.13408,0.16216 0.27586,0.33712 0.45967,0.56732zM3.38624,14.45537c-1,-1 0,0 0,0zM16,10c0,2.20554 -1.79446,4 -4,4c-2.20554,0 -4,-1.79446 -4,-4c0,-2.20554 1.79446,-4 4,-4c2.20554,0 4,1.79446 4,4zM15.42024,10c0,-1.88596 -1.53428,-3.42024 -3.42024,-3.42024c-1.88596,0 -3.42024,1.53428 -3.42024,3.42024c0,1.88596 1.53428,3.42024 3.42024,3.42024c1.88596,0 3.42024,-1.53428 3.42024,-3.42024zM11.5,12.92024c-1,-1 0,0 0,0z" style="stroke-width: 0; stroke-linecap: butt; stroke-linejoin: miter; fill: rgb(138, 138, 138);" vector-effect="non-scaling-stroke"/></g><defs><path id="path-1674015675984396888" d="M11.19747,8.57459c0.04613,0.12854 0.03445,0.31199 -0.026,0.40996c-0.25171,0.40752 -0.39605,1.02603 -0.39605,1.69717c0,0.16155 -0.0616,0.29237 -0.13767,0.29237c-0.07607,0 -0.13775,-0.13082 -0.13775,-0.29237c0,-0.8552 0.18388,-1.64333 0.50442,-2.16235c0.06053,-0.09796 0.14691,-0.07332 0.19305,0.05522zM10,8c-1,-1 0,0 0,0zM20,11.28037c0,2.49834 -1.46899,5.50143 -4.19171,6.14605c-0.83283,0.1972 -1.40549,0.68826 -2.01186,1.20826c-0.78275,0.67119 -1.59223,1.36532 -2.96331,1.36532c-2.30672,0 -3.67221,-1.40728 -4.7708,-2.72617c-0.09512,-0.11413 -0.07959,-0.28378 0.03455,-0.37874c0.11414,-0.09511 0.28367,-0.07972 0.37879,0.03441c1.3024,1.56351 2.48562,2.5326 4.35747,2.5326c1.17203,0 1.87198,-0.60028 2.61305,-1.23567c0.62847,-0.53888 1.2782,-1.09609 2.23818,-1.32336c1.3964,-0.33063 2.27497,-1.33036 2.76622,-2.11078c0.64288,-1.02127 1.01159,-2.30127 1.01159,-3.51191c0,-2.78953 -0.9183,-3.50604 -1.98151,-4.33583c-0.19149,-0.14937 -0.38956,-0.30406 -0.58357,-0.47273c-0.11204,-0.09748 -0.12379,-0.26741 -0.0263,-0.37944c0.09763,-0.11203 0.26745,-0.12378 0.37949,-0.02629c0.1831,0.1593 0.37543,0.30937 0.56147,0.45455c1.0758,0.83959 2.18838,1.7077 2.18824,4.75975zM17.31175,6.02062c-1,-1 0,0 0,0zM4.34591,15.52269c0.10067,0.12615 0.08102,0.31073 -0.04399,0.41248c-0.05366,0.04363 -0.1182,0.06483 -0.18214,0.06483c-0.08495,0 -0.16914,-0.03722 -0.22658,-0.10922c-0.18154,-0.22744 -0.32136,-0.39997 -0.45332,-0.55954c-0.38333,-0.46343 -0.8359,-0.73237 -1.31506,-1.01687c-1.04464,-0.6204 -2.12481,-1.26185 -2.12481,-3.89249c0,-2.94748 1.855,-4.07662 3.34555,-4.98395c0.4967,-0.3025 0.96604,-0.58806 1.31401,-0.9078c0.51061,-0.46908 0.76047,-1.07895 1.02515,-1.72483c0.27843,-0.67974 0.56623,-1.38236 1.17887,-1.91825c0.68232,-0.59691 1.67754,-0.88705 3.04263,-0.88705c3.17777,0 4.28953,1.47099 5.46658,3.02848c0.18033,0.23858 0.36686,0.4854 0.56245,0.72947c0.10097,0.12585 0.08178,0.31058 -0.04308,0.41248c-0.1247,0.1019 -0.30776,0.08253 -0.40873,-0.04348c-0.20104,-0.25063 -0.38998,-0.50081 -0.57288,-0.74274c-1.18129,-1.56298 -2.11423,-2.79752 -5.00435,-2.79752c-2.68349,0 -3.14739,1.13204 -3.6843,2.4427c-0.27752,0.67715 -0.56427,1.37718 -1.17101,1.93458c-0.39029,0.35848 -0.88321,0.65854 -1.405,0.97629c-0.73765,0.44894 -1.50023,0.91329 -2.08642,1.60066c-0.65829,0.77188 -0.97814,1.71415 -0.97814,2.88097c0,2.29504 0.85192,2.80103 1.83837,3.38696c0.50078,0.29731 1.01849,0.60484 1.46652,1.14653c0.13408,0.16216 0.27586,0.33712 0.45967,0.56732zM3.38624,14.45537c-1,-1 0,0 0,0zM16,10c0,2.20554 -1.79446,4 -4,4c-2.20554,0 -4,-1.79446 -4,-4c0,-2.20554 1.79446,-4 4,-4c2.20554,0 4,1.79446 4,4zM15.42024,10c0,-1.88596 -1.53428,-3.42024 -3.42024,-3.42024c-1.88596,0 -3.42024,1.53428 -3.42024,3.42024c0,1.88596 1.53428,3.42024 3.42024,3.42024c1.88596,0 3.42024,-1.53428 3.42024,-3.42024zM11.5,12.92024c-1,-1 0,0 0,0z" vector-effect="non-scaling-stroke"/></defs></g></svg>