<svg version="1.2" xmlns="http://www.w3.org/2000/svg" xmlns:xlink="http://www.w3.org/1999/xlink" overflow="visible" preserveAspectRatio="none" viewBox="0 0 20.218335469563804 19.22861989339193" width="20.218335469563804" height="19.22861989339193"><g transform="translate(0, 0)"><defs><path id="path-1673882411288640820" d="M24.091669212146126 11.794998631087742 C24.056669208448092 11.456665337020933 23.75333584306514 11.21166536545531 23.415002473984153 11.234998696080607 C23.415002473984153 11.234998696080607 17.313335162627048 10.348332132319314 17.313335162627048 10.348332132319314 C17.313335162627048 10.348332132319314 14.583334874180466 4.8299994394365235 14.583334874180466 4.8299994394365235 C14.49000153098571 4.503332810682362 14.151668161904723 4.316666165679984 13.836668128622424 4.409999488181174 C13.63833477433357 4.468332814744416 13.475001423742748 4.619999463808848 13.416668084246027 4.8299994394365235 C13.416668084246027 4.8299994394365235 10.663334460000756 10.348332132319314 10.663334460000756 10.348332132319314 C10.663334460000756 10.348332132319314 4.561667148643649 11.23499869608061 4.561667148643649 11.23499869608061 C4.223333779562663 11.199998700142663 3.9316670820790534 11.456665337020933 3.885000410481676 11.794998631087742 C3.9083337462803645 12.016665272028064 4.013333757374464 12.226665247655738 4.1883337758646295 12.378331896720171 C4.1883337758646295 12.378331896720171 8.610000909716145 16.683331397087507 8.610000909716145 16.683331397087507 C8.610000909716145 16.683331397087507 7.560000798775152 22.76166402497743 7.560000798775152 22.76166402497743 C7.560000798775152 22.84333068216597 7.560000798775152 22.924997339354512 7.560000798775152 23.006663996543054 C7.560000798775152 23.158330645607485 7.595000802473185 23.30999729467192 7.688334145667941 23.438330613111052 C7.781667488862696 23.55499726623754 7.921667503654828 23.62499725811343 8.073334186346305 23.61333059280078 C8.248334204836471 23.61333059280078 8.411667555427291 23.554997266237535 8.563334238118768 23.473330609048997 C8.563334238118768 23.473330609048997 13.988334811313901 20.59166427682479 13.988334811313901 20.59166427682479 C13.988334811313901 20.59166427682479 19.436668720307722 23.461663943736347 19.436668720307722 23.461663943736347 C19.5883354029992 23.554997266237535 19.75166875359002 23.601663927488133 19.926668772080188 23.601663927488133 C20.078335454771665 23.613330592800782 20.218335469563797 23.54333060092489 20.30000214485921 23.426663947798406 C20.393335488053964 23.29833062935927 20.428335491751998 23.146663980294843 20.428335491751998 22.994997331230408 C20.428335491751998 22.913330674041866 20.428335491751998 22.831664016853324 20.428335491751998 22.749997359664786 C20.428335491751998 22.749997359664786 19.378335380811006 16.671664731774857 19.378335380811006 16.671664731774857 C19.378335380811006 16.671664731774857 23.78833584676318 12.366665231407524 23.78833584676318 12.366665231407524 C23.96333586525334 12.226665247655742 24.08000254424679 12.016665272028064 24.103335880045478 11.783331965775092 C24.103335880045478 11.783331965775092 24.103335880045478 11.783331965775092 24.103335880045478 11.783331965775092 C24.103335880045478 11.783331965775092 24.091669212146126 11.794998631087742 24.091669212146126 11.794998631087742 Z" vector-effect="non-scaling-stroke"/><linearGradient id="gradient-1673882411658643942" x1="7%" y1="75%" x2="93%" y2="25%" vector-effect="non-scaling-stroke"><stop offset="3%" stop-color="rgb(58,141,222)" stop-opacity="1" vector-effect="non-scaling-stroke"/><stop offset="47%" stop-color="rgb(131,49,167)" stop-opacity="1" vector-effect="non-scaling-stroke"/><stop offset="97%" stop-color="rgb(223,22,131)" stop-opacity="1" vector-effect="non-scaling-stroke"/></linearGradient></defs><g transform="translate(-3.885000410481676, -4.385973756509052)"><path d="M24.091669212146126 11.794998631087742 C24.056669208448092 11.456665337020933 23.75333584306514 11.21166536545531 23.415002473984153 11.234998696080607 C23.415002473984153 11.234998696080607 17.313335162627048 10.348332132319314 17.313335162627048 10.348332132319314 C17.313335162627048 10.348332132319314 14.583334874180466 4.8299994394365235 14.583334874180466 4.8299994394365235 C14.49000153098571 4.503332810682362 14.151668161904723 4.316666165679984 13.836668128622424 4.409999488181174 C13.63833477433357 4.468332814744416 13.475001423742748 4.619999463808848 13.416668084246027 4.8299994394365235 C13.416668084246027 4.8299994394365235 10.663334460000756 10.348332132319314 10.663334460000756 10.348332132319314 C10.663334460000756 10.348332132319314 4.561667148643649 11.23499869608061 4.561667148643649 11.23499869608061 C4.223333779562663 11.199998700142663 3.9316670820790534 11.456665337020933 3.885000410481676 11.794998631087742 C3.9083337462803645 12.016665272028064 4.013333757374464 12.226665247655738 4.1883337758646295 12.378331896720171 C4.1883337758646295 12.378331896720171 8.610000909716145 16.683331397087507 8.610000909716145 16.683331397087507 C8.610000909716145 16.683331397087507 7.560000798775152 22.76166402497743 7.560000798775152 22.76166402497743 C7.560000798775152 22.84333068216597 7.560000798775152 22.924997339354512 7.560000798775152 23.006663996543054 C7.560000798775152 23.158330645607485 7.595000802473185 23.30999729467192 7.688334145667941 23.438330613111052 C7.781667488862696 23.55499726623754 7.921667503654828 23.62499725811343 8.073334186346305 23.61333059280078 C8.248334204836471 23.61333059280078 8.411667555427291 23.554997266237535 8.563334238118768 23.473330609048997 C8.563334238118768 23.473330609048997 13.988334811313901 20.59166427682479 13.988334811313901 20.59166427682479 C13.988334811313901 20.59166427682479 19.436668720307722 23.461663943736347 19.436668720307722 23.461663943736347 C19.5883354029992 23.554997266237535 19.75166875359002 23.601663927488133 19.926668772080188 23.601663927488133 C20.078335454771665 23.613330592800782 20.218335469563797 23.54333060092489 20.30000214485921 23.426663947798406 C20.393335488053964 23.29833062935927 20.428335491751998 23.146663980294843 20.428335491751998 22.994997331230408 C20.428335491751998 22.913330674041866 20.428335491751998 22.831664016853324 20.428335491751998 22.749997359664786 C20.428335491751998 22.749997359664786 19.378335380811006 16.671664731774857 19.378335380811006 16.671664731774857 C19.378335380811006 16.671664731774857 23.78833584676318 12.366665231407524 23.78833584676318 12.366665231407524 C23.96333586525334 12.226665247655742 24.08000254424679 12.016665272028064 24.103335880045478 11.783331965775092 C24.103335880045478 11.783331965775092 24.103335880045478 11.783331965775092 24.103335880045478 11.783331965775092 C24.103335880045478 11.783331965775092 24.091669212146126 11.794998631087742 24.091669212146126 11.794998631087742 Z" style="stroke-width: 0; stroke-linecap: butt; stroke-linejoin: miter; fill: url(&quot;#gradient-1673882411658643942&quot;);" vector-effect="non-scaling-stroke"/></g></g></svg>