<svg version="1.2" xmlns="http://www.w3.org/2000/svg" xmlns:xlink="http://www.w3.org/1999/xlink" overflow="visible" preserveAspectRatio="none" viewBox="0 0 24 24" width="25" height="25"><g><path xmlns:default="http://www.w3.org/2000/svg" id="ticket" d="M7.37,13.36l3.29,3.29l6-6l-3.33-3.25L7.37,13.36z M11.13,17.59c-0.26,0.25-0.68,0.25-0.94,0l-3.77-3.77  c-0.26-0.25-0.27-0.66-0.02-0.92c0.01-0.01,0.01-0.01,0.02-0.02l6.43-6.43c0.26-0.25,0.68-0.25,0.94,0l3.77,3.77  c0.26,0.25,0.27,0.66,0.02,0.92c-0.01,0.01-0.01,0.01-0.02,0.02L11.13,17.59C11.13,17.59,11.13,17.59,11.13,17.59z M20.39,10.97  c0.51-0.52,0.51-1.36,0-1.88l-1.31-1.3c-0.78,0.78-2.05,0.77-2.83-0.01c-0.37-0.38-0.58-0.88-0.58-1.41  c-0.01-0.53,0.2-1.05,0.58-1.42l-1.3-1.3c-0.52-0.51-1.36-0.51-1.88,0l-9.46,9.38c-0.51,0.52-0.51,1.36,0,1.88l1.3,1.31  c0.37-0.38,0.89-0.59,1.42-0.58c1.1,0,2,0.89,2,2c0,0.53-0.21,1.04-0.58,1.41l1.31,1.31c0.52,0.51,1.36,0.51,1.88,0l9.44-9.45l0,0  L20.39,10.97z" style="fill: rgb(255, 255, 255);" vector-effect="non-scaling-stroke"/></g></svg>