<svg version="1.2" xmlns="http://www.w3.org/2000/svg" xmlns:xlink="http://www.w3.org/1999/xlink" overflow="visible" preserveAspectRatio="none" viewBox="0 0 46.99999777590871 42.00000155556527" width="46.99999777590871" height="42.00000155556527"><g transform="translate(0, 0)"><g transform="translate(0, 0) rotate(0)"><path d="M34.075,0c-4.21042,0.00634 -8.15462,2.00829 -10.575,5.36676c-2.42038,-3.35846 -6.36458,-5.36042 -10.575,-5.36676c-6.88553,0 -12.925,6.24524 -12.925,13.36376c0,6.93767 4.01841,14.08303 11.62148,20.66423c3.5227,3.04339 7.38697,5.68892 11.51898,7.887c0.22567,0.11335 0.49341,0.11335 0.71908,0c4.13048,-2.19808 7.9936,-4.84399 11.51515,-7.887c7.6069,-6.5812 11.62531,-13.72656 11.62531,-20.66423c0,-7.11851 -6.03947,-13.36376 -12.925,-13.36376zM23.5,40.36831c-2.87707,-1.54779 -21.93333,-12.3611 -21.93333,-27.00456c0,-6.30528 5.30701,-11.83647 11.35833,-11.83647c4.0995,0.00708 7.87847,2.16303 9.89264,5.64417c0.1507,0.22447 0.40735,0.35945 0.68236,0.35945c0.27501,0 0.53166,-0.13498 0.68236,-0.35945c2.01418,-3.48114 5.79315,-5.63709 9.89264,-5.64417c6.05133,0 11.35833,5.53119 11.35833,11.83647c0,14.64345 -19.05627,25.45676 -21.93333,27.00456zM24,40.86831v0c-1,-1 -1,-1 -1,-1v0z" style="stroke-width: 0; stroke-linecap: butt; stroke-linejoin: miter; fill: rgb(255, 255, 255);" vector-effect="non-scaling-stroke"/></g><defs><path id="path-1674254399295753881" d="M34.075,0c-4.21042,0.00634 -8.15462,2.00829 -10.575,5.36676c-2.42038,-3.35846 -6.36458,-5.36042 -10.575,-5.36676c-6.88553,0 -12.925,6.24524 -12.925,13.36376c0,6.93767 4.01841,14.08303 11.62148,20.66423c3.5227,3.04339 7.38697,5.68892 11.51898,7.887c0.22567,0.11335 0.49341,0.11335 0.71908,0c4.13048,-2.19808 7.9936,-4.84399 11.51515,-7.887c7.6069,-6.5812 11.62531,-13.72656 11.62531,-20.66423c0,-7.11851 -6.03947,-13.36376 -12.925,-13.36376zM23.5,40.36831c-2.87707,-1.54779 -21.93333,-12.3611 -21.93333,-27.00456c0,-6.30528 5.30701,-11.83647 11.35833,-11.83647c4.0995,0.00708 7.87847,2.16303 9.89264,5.64417c0.1507,0.22447 0.40735,0.35945 0.68236,0.35945c0.27501,0 0.53166,-0.13498 0.68236,-0.35945c2.01418,-3.48114 5.79315,-5.63709 9.89264,-5.64417c6.05133,0 11.35833,5.53119 11.35833,11.83647c0,14.64345 -19.05627,25.45676 -21.93333,27.00456zM24,40.86831v0c-1,-1 -1,-1 -1,-1v0z" vector-effect="non-scaling-stroke"/></defs></g></svg>