<?xml version="1.0" standalone="no"?>
<!DOCTYPE svg PUBLIC "-//W3C//DTD SVG 20010904//EN"
 "http://www.w3.org/TR/2001/REC-SVG-20010904/DTD/svg10.dtd">
<svg version="1.0" xmlns="http://www.w3.org/2000/svg"
 width="474.000000pt" height="318.000000pt" viewBox="0 0 474.000000 318.000000"
 preserveAspectRatio="xMidYMid meet">

<g transform="translate(0.000000,318.000000) scale(0.100000,-0.100000)"
fill="#000000" stroke="none">
<path d="M2624 2915 c-254 -55 -486 -243 -696 -565 -120 -182 -161 -289 -156
-399 l3 -65 64 107 c237 393 566 692 837 761 34 9 97 16 140 16 215 0 364
-122 421 -343 24 -95 13 -264 -26 -387 -17 -52 -31 -96 -31 -97 0 -2 42 -3 94
-3 76 0 95 3 100 16 13 35 17 215 7 308 -41 362 -195 580 -455 647 -83 22
-213 24 -302 4z"/>
<path d="M1180 2863 c-8 -3 -38 -14 -67 -25 -28 -10 -81 -41 -116 -68 l-66
-48 -98 0 c-201 1 -352 -89 -428 -255 -48 -104 -54 -215 -19 -334 5 -17 2 -23
-9 -23 -20 0 -90 -84 -124 -151 -25 -47 -28 -65 -28 -144 0 -80 3 -96 29 -145
16 -30 55 -82 86 -115 l58 -60 -24 -85 c-68 -234 -4 -383 199 -460 l82 -31 0
-87 c0 -77 4 -95 31 -152 52 -109 164 -200 265 -216 30 -5 38 -12 43 -33 14
-68 93 -141 196 -183 43 -17 76 -22 150 -22 84 0 102 3 151 27 31 15 77 49
101 75 l45 48 1 1170 0 1169 -21 23 c-32 34 -127 90 -193 112 -55 19 -206 27
-244 13z m189 -19 c17 -4 31 -11 31 -15 0 -5 -39 -61 -86 -124 -47 -63 -83
-119 -79 -125 4 -6 49 46 102 115 109 143 97 139 206 68 l67 -45 0 -282 0
-283 -100 -8 c-80 -5 -100 -10 -100 -22 0 -13 14 -14 100 -8 l100 7 0 -101 0
-101 -67 0 c-79 -1 -210 -8 -270 -16 -40 -5 -43 -8 -54 -47 -20 -73 -31 -97
-51 -108 -13 -7 -18 -17 -15 -31 14 -51 -60 -167 -204 -322 -5 -6 -19 15 -34
48 l-25 58 90 114 c49 63 90 119 90 124 0 32 -40 -4 -124 -111 l-95 -121 14
-35 c9 -20 14 -38 11 -40 -2 -2 -19 6 -39 17 -29 17 -36 18 -40 6 -7 -17 -1
-22 66 -60 26 -15 48 -31 48 -36 4 -31 57 -140 68 -140 20 0 20 20 0 74 l-22
55 74 88 c40 49 84 99 97 113 12 14 28 42 34 64 10 32 13 35 20 20 4 -11 25
-65 48 -122 l40 -104 -88 -89 c-48 -50 -88 -96 -90 -104 -8 -33 23 -24 67 19
26 26 51 43 55 39 4 -5 7 -3 6 2 -5 22 1 36 12 29 6 -4 8 -3 5 3 -11 17 66 82
199 168 71 46 130 82 133 80 2 -2 -35 -71 -83 -153 -47 -83 -86 -154 -86 -160
0 -39 30 -1 111 145 l94 166 3 -178 c1 -98 0 -180 -2 -182 -2 -3 -24 -7 -48
-9 -91 -10 -108 -15 -108 -30 0 -13 9 -15 53 -9 l52 6 -125 -83 -125 -83 -17
-70 c-21 -85 -26 -138 -14 -145 11 -6 19 18 41 122 l17 76 134 87 c74 48 137
85 140 83 2 -3 3 -135 2 -295 l-3 -290 -125 48 c-136 53 -150 56 -150 35 0 -8
53 -33 138 -64 l137 -50 3 -74 3 -75 -42 -38 c-91 -82 -215 -109 -339 -72 -90
27 -88 17 -37 176 26 83 41 144 35 147 -17 10 -25 -7 -63 -131 l-37 -119 -80
214 c-44 118 -82 217 -84 219 -3 3 -9 0 -15 -6 -8 -8 11 -69 65 -213 42 -112
74 -205 72 -207 -9 -10 -60 79 -65 115 -6 33 -10 37 -32 34 -33 -4 -126 31
-161 60 l-28 23 40 89 c44 98 46 106 26 106 -7 0 -30 -38 -51 -85 -36 -80 -39
-84 -56 -69 -10 9 -30 41 -45 72 -25 51 -28 68 -29 158 l0 102 -55 12 c-119
26 -203 87 -240 173 -22 50 -22 51 -2 66 65 53 192 163 198 172 6 10 36 -36
117 -181 17 -30 50 -86 73 -125 24 -38 51 -85 61 -102 9 -18 23 -33 30 -33 29
0 18 23 -136 284 -110 185 -112 189 -91 203 17 12 19 18 9 29 -10 13 -14 12
-30 -1 -16 -16 -23 -6 -109 172 -51 103 -106 217 -122 252 l-29 64 37 56 c59
90 72 101 120 101 52 0 74 8 74 26 0 10 -12 12 -52 7 l-51 -6 68 97 c49 71 65
100 56 109 -6 6 -12 9 -14 6 -2 -2 -34 -47 -70 -100 -85 -123 -93 -130 -108
-93 -36 95 -31 220 15 319 23 52 82 135 95 135 4 0 21 -27 40 -60 26 -48 36
-59 46 -50 11 9 7 23 -22 72 -41 71 -42 69 57 117 49 23 67 26 170 26 l115 1
55 41 c129 96 255 132 379 107z m-959 -775 c0 -6 -18 -36 -40 -68 -22 -31 -40
-62 -40 -67 0 -10 191 -422 229 -494 l18 -35 -101 -94 -101 -94 -3 34 c-5 42
12 119 41 195 l23 58 -66 65 c-91 91 -115 142 -115 251 0 96 18 145 81 218 33
39 74 56 74 31z m1200 -308 l0 -139 -157 -101 c-153 -99 -158 -101 -166 -79
-5 13 -28 76 -52 141 l-44 117 32 85 31 84 51 5 c27 3 104 9 170 14 66 5 123
9 128 10 4 1 7 -61 7 -137z"/>
<path d="M1137 2559 c-10 -6 -22 -22 -27 -35 -21 -53 42 -110 92 -83 31 16 38
28 38 66 0 51 -56 79 -103 52z"/>
<path d="M898 2466 c-81 -18 -150 -35 -152 -37 -3 -3 -2 -10 2 -16 10 -15 332
56 332 74 0 17 -12 16 -182 -21z"/>
<path d="M610 2450 c-27 -27 -26 -71 3 -98 30 -29 62 -28 92 3 46 45 19 115
-45 115 -17 0 -39 -9 -50 -20z"/>
<path d="M915 2325 c-148 -115 -175 -141 -151 -147 13 -3 345 255 339 265 -10
16 -35 1 -188 -118z"/>
<path d="M1202 2409 c3 -8 20 -60 39 -116 19 -60 39 -103 46 -103 19 0 17 15
-20 125 -24 72 -39 101 -52 104 -12 2 -16 -2 -13 -10z"/>
<path d="M636 2179 c-52 -41 -25 -119 42 -119 66 0 94 69 47 115 -30 30 -54
31 -89 4z"/>
<path d="M1267 2152 c-26 -29 -22 -77 9 -101 15 -12 35 -21 46 -21 26 0 68 44
68 73 0 54 -87 89 -123 49z"/>
<path d="M750 2066 c0 -12 269 -190 286 -188 30 3 -3 31 -129 111 -79 50 -147
91 -150 91 -4 0 -7 -6 -7 -14z"/>
<path d="M700 2029 c0 -7 16 -55 36 -106 l36 -94 -26 -104 c-30 -121 -31 -135
-11 -135 16 0 26 32 50 160 l16 85 -39 100 c-35 89 -62 129 -62 94z"/>
<path d="M1238 2023 c-59 -70 -87 -133 -59 -133 16 0 94 131 84 141 -6 6 -15
3 -25 -8z"/>
<path d="M1068 1873 c-51 -57 6 -143 75 -112 14 6 31 25 38 41 10 25 9 33 -8
56 -25 34 -81 42 -105 15z"/>
<path d="M676 1559 c-36 -28 -36 -80 0 -108 15 -12 35 -21 46 -21 27 0 68 45
68 75 0 30 -41 75 -68 75 -11 0 -31 -9 -46 -21z"/>
<path d="M1323 1218 c-34 -16 -50 -65 -32 -96 35 -63 121 -43 127 30 5 52 -48
89 -95 66z"/>
<path d="M978 1203 c-26 -29 -30 -60 -14 -91 25 -49 65 -55 116 -17 29 21 45
25 107 25 64 0 73 2 73 18 0 16 -8 17 -67 14 -46 -3 -72 -10 -81 -21 -11 -14
-12 -12 -10 17 2 27 -3 36 -27 52 -37 25 -77 26 -97 3z"/>
<path d="M955 1008 c-11 -29 -21 -56 -23 -60 -2 -5 3 -8 12 -8 9 0 26 22 41
52 30 62 30 68 7 68 -12 0 -23 -16 -37 -52z"/>
<path d="M867 902 c-23 -25 -21 -78 3 -102 59 -59 152 27 100 93 -26 33 -78
37 -103 9z"/>
<path d="M1004 819 c-9 -14 2 -24 81 -70 46 -27 72 -36 79 -29 12 12 16 9 -76
63 -47 28 -80 42 -84 36z"/>
<path d="M1206 729 c-51 -40 -25 -119 40 -119 35 0 47 8 63 37 17 33 14 51
-14 78 -30 30 -54 31 -89 4z"/>
<path d="M2161 1818 c-17 -55 -31 -196 -31 -306 l0 -105 -36 -39 c-39 -44 -36
-62 17 -73 16 -4 29 -11 29 -16 0 -14 40 -10 46 5 3 8 24 19 47 25 64 18 148
81 187 140 33 49 69 80 96 81 6 0 14 -22 18 -49 11 -87 69 -142 132 -127 14 4
45 33 71 67 l47 60 13 -61 c18 -92 41 -124 87 -128 46 -4 68 13 93 74 10 24
21 44 24 44 4 0 10 -15 13 -34 16 -83 90 -115 141 -60 14 15 25 30 25 34 0 4
7 24 16 45 l15 38 25 -36 c17 -25 34 -38 58 -42 43 -9 66 4 107 57 52 68 52
68 45 -5 -5 -53 -4 -68 6 -65 15 5 34 95 51 238 l12 105 30 -3 c42 -5 45 -11
34 -62 -6 -25 -12 -92 -12 -150 -2 -87 1 -112 18 -145 16 -33 26 -41 52 -43
18 -2 41 1 51 7 24 13 85 128 106 200 18 63 19 71 7 71 -5 0 -23 -41 -41 -91
-18 -50 -42 -104 -54 -121 -24 -35 -52 -56 -62 -46 -14 15 -16 150 -3 249 19
144 22 133 -41 141 -30 3 -68 10 -84 14 -37 9 -46 -6 -46 -76 0 -81 -13 -114
-75 -191 -76 -93 -95 -91 -118 16 -11 54 -10 59 7 69 51 29 77 62 83 102 4 34
1 46 -16 63 -30 30 -58 26 -96 -12 -36 -36 -55 -89 -55 -154 0 -50 -43 -172
-72 -203 -18 -19 -22 -20 -35 -8 -24 25 -34 137 -23 289 5 78 13 146 17 150 4
4 49 9 98 13 50 3 91 6 93 6 1 0 2 5 2 10 0 6 -38 10 -95 10 l-95 0 0 30 c0
26 -3 30 -29 30 -23 0 -31 -6 -40 -30 -10 -29 -12 -30 -75 -30 l-66 0 0 30 c0
26 -3 30 -29 30 -25 0 -31 -5 -36 -31 -7 -31 -9 -33 -57 -43 -40 -9 -35 -26 7
-26 35 0 35 0 30 -37 -2 -21 -7 -76 -10 -122 l-5 -84 -56 -69 c-75 -92 -94
-89 -117 17 -11 54 -10 59 7 69 51 29 77 62 83 102 4 34 1 46 -16 63 -11 11
-30 21 -42 21 -31 0 -86 -60 -99 -109 -9 -33 -18 -45 -46 -58 -35 -17 -35 -17
-59 12 -20 26 -30 30 -69 29 -25 0 -46 0 -46 1 0 1 20 32 45 69 75 112 83 177
22 184 -31 4 -102 -57 -144 -124 -16 -24 -32 -44 -36 -44 -8 0 -2 106 9 158 4
18 0 22 -20 22 -19 0 -27 -7 -35 -32z m229 -16 c0 -46 -169 -310 -190 -297
-11 7 33 136 65 191 30 51 97 124 113 124 7 0 12 -8 12 -18z m609 -57 c2 -2
-1 -68 -6 -147 -10 -148 -31 -229 -73 -280 -18 -22 -19 -22 -37 -5 -16 16 -18
38 -18 215 0 108 3 205 8 216 6 16 14 17 65 11 31 -4 59 -8 61 -10z m-334
-125 c-9 -36 -33 -70 -50 -70 -8 0 -15 6 -15 13 0 22 22 92 33 105 16 20 40
-16 32 -48z m670 0 c-9 -36 -33 -70 -50 -70 -8 0 -15 6 -15 13 0 22 22 92 33
105 16 20 40 -16 32 -48z m-947 -62 c22 -22 14 -55 -15 -66 -95 -38 -167 -62
-171 -57 -7 7 54 71 102 106 42 31 65 36 84 17z m-8 -96 c0 -27 -150 -142
-185 -142 -3 0 -5 18 -5 39 l0 39 88 35 c94 39 102 41 102 29z m-254 -149
c-11 -11 -19 6 -11 24 8 17 8 17 12 0 3 -10 2 -21 -1 -24z"/>
<path d="M4046 1792 c-11 -18 -28 -221 -24 -286 6 -83 21 -120 55 -135 59 -27
99 1 139 96 28 64 29 66 35 38 4 -17 7 -52 8 -78 0 -26 8 -63 15 -82 12 -29
20 -35 45 -35 22 0 34 8 49 33 24 40 75 187 68 195 -8 8 -9 6 -35 -78 -36
-117 -77 -170 -95 -124 -11 28 -6 165 9 279 20 152 20 175 -5 175 -14 0 -22
-11 -30 -42 -55 -211 -117 -358 -151 -358 -34 0 -43 68 -30 215 7 72 15 145
18 163 5 31 4 32 -30 32 -20 0 -38 -3 -41 -8z"/>
<path d="M2585 1089 c-212 -191 -402 -317 -702 -465 l-193 -95 0 -108 0 -109
128 40 c248 77 558 254 842 482 86 69 278 253 322 309 l30 37 -164 0 -163 -1
-100 -90z"/>
</g>
</svg>
