<svg id="Capa" xmlns="http://www.w3.org/2000/svg" xmlns:xlink="http://www.w3.org/1999/xlink" viewBox="0 0 31 31"><defs><style>.cls-1{fill:#e01c24;}.cls-2{fill:#fff;}.cls-3{fill:url(#Degradado_sin_nombre_92);}.cls-4{fill:url(#Degradado_sin_nombre_92-2);}</style><linearGradient id="Degradado_sin_nombre_92" x1="9.63" y1="15.46" x2="12.66" y2="15.46" gradientUnits="userSpaceOnUse"><stop offset="0" stop-color="#e01c24"/><stop offset="0.14" stop-color="#e1242c"/><stop offset="0.36" stop-color="#e53c42"/><stop offset="0.63" stop-color="#ea6167"/><stop offset="0.94" stop-color="#f19599"/><stop offset="1" stop-color="#f3a0a3"/></linearGradient><linearGradient id="Degradado_sin_nombre_92-2" x1="9.63" y1="18.38" x2="16.01" y2="18.38" xlink:href="#Degradado_sin_nombre_92"/></defs><title>sival</title><polygon class="cls-1" points="21.37 8.06 21.37 10.01 21.36 10.01 19.69 10.98 18.02 11.96 16.34 12.93 14.67 13.9 16.34 14.88 18.02 15.85 19.69 16.82 21.36 17.8 19.69 18.77 18.02 19.74 16.34 20.72 12.99 22.66 11.32 23.64 11.31 23.63 9.64 22.66 11.31 21.69 11.32 21.69 12.99 20.72 14.67 19.74 16.34 18.77 18.02 17.8 16.34 16.82 14.67 15.85 12.99 14.88 11.32 13.9 12.99 12.93 14.67 11.96 16.34 10.98 18.02 10.01 19.69 9.04 21.36 8.06 21.37 8.06"/><polygon class="cls-1" points="11.31 21.69 11.32 21.69 11.31 21.69 11.31 21.69"/><polygon class="cls-1" points="11.31 19.74 11.32 19.74 11.31 19.75 11.31 19.74"/><polygon class="cls-1" points="11.31 17.79 11.32 17.8 11.31 17.8 11.31 17.79"/><polygon class="cls-1" points="11.31 15.84 11.32 15.85 11.31 15.85 11.31 15.84"/><polygon class="cls-1" points="11.31 13.91 11.31 13.9 11.32 13.9 11.31 13.91"/><polygon class="cls-1" points="11.31 11.96 11.31 11.95 11.32 11.96 11.31 11.96"/><polygon class="cls-1" points="11.31 10.01 11.31 10.01 11.32 10.01 11.31 10.01"/><polygon class="cls-1" points="11.31 8.07 11.31 8.06 11.32 8.06 11.31 8.07"/><polygon class="cls-1" points="11.31 6.12 11.31 6.11 11.32 6.12 11.31 6.12"/><polygon class="cls-1" points="11.31 21.69 11.31 21.69 11.32 21.69 11.31 21.69"/><polygon class="cls-1" points="11.31 19.75 11.31 19.74 11.32 19.74 11.31 19.75"/><polygon class="cls-1" points="11.31 17.8 11.31 17.79 11.32 17.8 11.31 17.8"/><polygon class="cls-1" points="11.31 15.85 11.31 15.84 11.32 15.85 11.31 15.85"/><polygon class="cls-1" points="11.31 13.91 11.31 13.9 11.32 13.9 11.31 13.91"/><polygon class="cls-1" points="11.31 11.95 11.31 10.01 11.32 10.01 12.99 9.04 14.67 8.06 16.34 7.09 18.02 6.12 19.69 5.14 21.36 4.17 21.36 6.12 19.69 7.09 18.02 8.06 16.34 9.04 14.67 10.01 12.99 10.98 11.32 11.96 11.31 11.95"/><polygon class="cls-1" points="11.31 11.96 11.31 11.95 11.32 11.96 11.31 11.96"/><polygon class="cls-1" points="11.31 10.01 11.31 10.01 11.32 10.01 11.31 10.01"/><polygon class="cls-1" points="11.31 8.06 11.31 6.12 11.32 6.12 12.99 5.14 14.66 4.17 16.34 3.19 18.02 2.22 19.69 1.25 19.69 1.25 20.63 0.7 21.34 0.29 21.36 0.28 21.36 2.22 19.69 3.2 18.02 4.17 16.34 5.14 14.67 6.12 12.99 7.09 11.32 8.06 11.31 8.06"/><rect class="cls-1" x="21.36" y="4.17" height="1.95"/><polygon class="cls-1" points="21.36 6.12 21.36 6.12 21.37 6.12 21.36 6.12"/><polygon class="cls-1" points="21.37 4.17 21.36 4.17 21.36 4.17 21.37 4.17"/><polygon class="cls-1" points="11.31 8.07 11.31 8.06 11.32 8.06 11.31 8.07"/><polygon class="cls-1" points="11.31 6.12 11.31 6.11 11.32 6.12 11.31 6.12"/><rect class="cls-1" x="21.36" y="0.3" height="1.92"/><path class="cls-1" d="M19.87,21.67a.25.25,0,0,0-.15-.21h0a.28.28,0,0,0,.12-.46.43.43,0,0,0-.3-.08,1.06,1.06,0,0,0-.26,0v1h.14v-.44h.12c.12,0,.18,0,.21.2a1,1,0,0,0,.07.24H20S19.91,21.81,19.87,21.67Zm-.32-.26h-.13V21h.13c.14,0,.23.06.23.19A.2.2,0,0,1,19.55,21.41Z"/><path class="cls-1" d="M19.6,20.58a.88.88,0,1,0,.87.88A.87.87,0,0,0,19.6,20.58Zm0,1.62a.75.75,0,1,1,.74-.74A.74.74,0,0,1,19.6,22.2Z"/><path class="cls-1" d="M9.82,29.3c0,.71-.81,1.42-2.35,1.42A4.15,4.15,0,0,1,5,30l.85-.57A2.13,2.13,0,0,0,7.39,30c.73,0,1.12-.29,1.12-.57S8.06,29,7.91,29l-.47-.08c-.32,0-.67-.1-.78-.13-1.28-.24-1.47-.84-1.47-1.17,0-.9,1.13-1.36,2.24-1.36a3.44,3.44,0,0,1,1.74.41,2,2,0,0,1,.48.33l-.81.61A1.67,1.67,0,0,0,7.37,27c-.7,0-.94.27-.94.5s.44.45,1.13.55h.05a4.15,4.15,0,0,1,1.69.41A1.05,1.05,0,0,1,9.82,29.3Z"/><rect class="cls-1" x="10.84" y="26.48" width="1.25" height="4.11"/><path class="cls-1" d="M23.35,30v-2.3a1,1,0,0,0-.6-1.14,3.52,3.52,0,0,0-1.53-.27,2.28,2.28,0,0,0-2,.73,1.16,1.16,0,0,0-.19.56l1.16.06a.48.48,0,0,1,.14-.37,1.31,1.31,0,0,1,1-.29c.94,0,.94.52.94.72v0h0a12.32,12.32,0,0,1-1.62.33,2.22,2.22,0,0,0-1.64.81,1.13,1.13,0,0,0-.16.56c0,.76.76,1.3,1.83,1.3a2.74,2.74,0,0,0,1.51-.43l.09-.07v.11c0,.05,0,.15,0,.24v0h1.3A.86.86,0,0,1,23.35,30Zm-1.14-1a.83.83,0,0,1-.08.42,1.42,1.42,0,0,1-1.27.53c-.56,0-.9-.21-.9-.57,0-.53.69-.61,1.09-.66a4.4,4.4,0,0,0,1.08-.25l.08,0Z"/><polygon class="cls-1" points="18.24 26.48 16.31 30.56 14.97 30.56 13.04 26.48 14.37 26.48 15.64 29.36 16.91 26.48 18.24 26.48"/><rect class="cls-1" x="24.76" y="25.61" width="1.25" height="4.99"/><polygon class="cls-2" points="9.63 14.88 9.63 16.82 12.66 15.07 10.99 14.09 9.63 14.88"/><polygon class="cls-2" points="9.63 18.77 9.64 20.71 16.01 17.01 14.34 16.04 9.63 18.77"/><polygon class="cls-3" points="9.63 14.88 9.63 16.82 12.66 15.07 10.99 14.09 9.63 14.88"/><polygon class="cls-4" points="9.63 18.77 9.64 20.71 16.01 17.01 14.34 16.04 9.63 18.77"/></svg>