<svg version="1.2" xmlns="http://www.w3.org/2000/svg" xmlns:xlink="http://www.w3.org/1999/xlink" overflow="visible" preserveAspectRatio="none" viewBox="0 0 22.999980000000004 19.99999" width="22.999980000000004" height="19.99999"><g transform="translate(0, 0)"><g transform="translate(0.000009999999999177334, -0.000009999999999621423) rotate(0)"><path d="M20.9185,6.86037c0.10685,-0.17009 0.16383,-0.36509 0.16483,-0.56407v-2.96296c-0.0023,-1.84 -1.5456,-3.33111 -3.45,-3.33333h-12.26667c-1.9044,0.00222 -3.4477,1.49333 -3.45,3.33333v2.96296c0.00101,0.19898 0.05798,0.39398 0.16483,0.56407c-1.24852,0.44569 -2.07863,1.5944 -2.0815,2.88037v7.66667c0,0.20454 0.17164,0.37037 0.38333,0.37037h1.53333v1.85185c0,0.20454 0.17164,0.37037 0.38333,0.37037h1.91667c0.2117,0 0.38333,-0.16583 0.38333,-0.37037v-1.85185h13.8v1.85185c0,0.20454 0.17164,0.37037 0.38333,0.37037h1.91667c0.2117,0 0.38333,-0.16583 0.38333,-0.37037v-1.85185h1.53333c0.2117,0 0.38333,-0.16583 0.38333,-0.37037v-7.66667c-0.00287,-1.28597 -0.83298,-2.43468 -2.0815,-2.88037zM2.68333,3.33333c0.00168,-1.43116 1.20209,-2.59097 2.68333,-2.59259h12.26667c1.48125,0.00162 2.68166,1.16144 2.68333,2.59259v2.96296c0,0.20454 -0.17164,0.37037 -0.38333,0.37037h-0.76667v-2.65704c-0.00086,-0.57773 -0.48535,-1.04583 -1.0833,-1.04667h-4.7334c-0.59795,0.00083 -1.08244,0.46894 -1.0833,1.04667v2.65704h-1.53333v-2.65704c-0.00086,-0.57773 -0.48535,-1.04583 -1.0833,-1.04667h-4.7334c-0.59795,0.00083 -1.08244,0.46894 -1.0833,1.04667v2.65704h-0.76667c-0.2117,0 -0.38333,-0.16583 -0.38333,-0.37037zM18.4,4.00963v2.65704h-5.36667v-2.65704c0.00043,-0.1688 0.14193,-0.30551 0.31663,-0.30593h4.7334c0.1747,0.00042 0.3162,0.13713 0.31663,0.30593zM9.96667,4.00963v2.65704h-5.36667v-2.65704c0.00043,-0.1688 0.14193,-0.30551 0.31663,-0.30593h4.7334c0.1747,0.00042 0.3162,0.13713 0.31663,0.30593zM3.83333,19.25926h-1.15v-1.48148h1.15zM20.31667,19.25926h-1.15v-1.48148h1.15zM22.23333,17.03704h-21.46667v-2.22222h21.46667zM22.23333,14.07408h-21.46667v-4.33333c0.00192,-1.28792 1.08201,-2.33148 2.415,-2.33333h16.63667c1.33299,0.00185 2.41308,1.04542 2.415,2.33333z" style="stroke-width: 0; stroke-linecap: butt; stroke-linejoin: miter; fill: rgb(255, 255, 255);" vector-effect="non-scaling-stroke"/></g><defs><path id="path-167694423241684892" d="M20.9185,6.86037c0.10685,-0.17009 0.16383,-0.36509 0.16483,-0.56407v-2.96296c-0.0023,-1.84 -1.5456,-3.33111 -3.45,-3.33333h-12.26667c-1.9044,0.00222 -3.4477,1.49333 -3.45,3.33333v2.96296c0.00101,0.19898 0.05798,0.39398 0.16483,0.56407c-1.24852,0.44569 -2.07863,1.5944 -2.0815,2.88037v7.66667c0,0.20454 0.17164,0.37037 0.38333,0.37037h1.53333v1.85185c0,0.20454 0.17164,0.37037 0.38333,0.37037h1.91667c0.2117,0 0.38333,-0.16583 0.38333,-0.37037v-1.85185h13.8v1.85185c0,0.20454 0.17164,0.37037 0.38333,0.37037h1.91667c0.2117,0 0.38333,-0.16583 0.38333,-0.37037v-1.85185h1.53333c0.2117,0 0.38333,-0.16583 0.38333,-0.37037v-7.66667c-0.00287,-1.28597 -0.83298,-2.43468 -2.0815,-2.88037zM2.68333,3.33333c0.00168,-1.43116 1.20209,-2.59097 2.68333,-2.59259h12.26667c1.48125,0.00162 2.68166,1.16144 2.68333,2.59259v2.96296c0,0.20454 -0.17164,0.37037 -0.38333,0.37037h-0.76667v-2.65704c-0.00086,-0.57773 -0.48535,-1.04583 -1.0833,-1.04667h-4.7334c-0.59795,0.00083 -1.08244,0.46894 -1.0833,1.04667v2.65704h-1.53333v-2.65704c-0.00086,-0.57773 -0.48535,-1.04583 -1.0833,-1.04667h-4.7334c-0.59795,0.00083 -1.08244,0.46894 -1.0833,1.04667v2.65704h-0.76667c-0.2117,0 -0.38333,-0.16583 -0.38333,-0.37037zM18.4,4.00963v2.65704h-5.36667v-2.65704c0.00043,-0.1688 0.14193,-0.30551 0.31663,-0.30593h4.7334c0.1747,0.00042 0.3162,0.13713 0.31663,0.30593zM9.96667,4.00963v2.65704h-5.36667v-2.65704c0.00043,-0.1688 0.14193,-0.30551 0.31663,-0.30593h4.7334c0.1747,0.00042 0.3162,0.13713 0.31663,0.30593zM3.83333,19.25926h-1.15v-1.48148h1.15zM20.31667,19.25926h-1.15v-1.48148h1.15zM22.23333,17.03704h-21.46667v-2.22222h21.46667zM22.23333,14.07408h-21.46667v-4.33333c0.00192,-1.28792 1.08201,-2.33148 2.415,-2.33333h16.63667c1.33299,0.00185 2.41308,1.04542 2.415,2.33333z" vector-effect="non-scaling-stroke"/></defs></g></svg>