<svg version="1.2" xmlns="http://www.w3.org/2000/svg" xmlns:xlink="http://www.w3.org/1999/xlink" overflow="visible" preserveAspectRatio="none" viewBox="0 0 24 24" width="15" height="15"><g><path xmlns:default="http://www.w3.org/2000/svg" id="bed" d="M4,13.33V6C3.99,5.63,3.7,5.34,3.33,5.33H2c-0.18,0-0.35,0.07-0.47,0.2C1.4,5.65,1.33,5.82,1.33,6v12.66H4V16h16  v2.67h2.67V14c-0.01-0.37-0.3-0.66-0.67-0.67H4z M10,10c0,1.47-1.2,2.67-2.67,2.67c-1.47-0.01-2.66-1.2-2.66-2.67  c0.01-1.47,1.2-2.66,2.67-2.66C8.81,7.35,9.99,8.53,10,10L10,10z M22.66,12.67h-12v-4c0.01-0.37,0.3-0.66,0.67-0.67h7.33  c2.21,0,4,1.79,4,4V12.67L22.66,12.67z" style="fill: rgb(153, 153, 153);" vector-effect="non-scaling-stroke"/></g></svg>