<svg version="1.2" xmlns="http://www.w3.org/2000/svg" xmlns:xlink="http://www.w3.org/1999/xlink" overflow="visible" preserveAspectRatio="none" viewBox="0 0 22 22" width="13" height="13"><g><defs> </defs> <rect display="none" fill="#FFA400" width="22" height="22" style="fill: rgb(153, 153, 153);" vector-effect="non-scaling-stroke"/> <rect id="_x3C_Slice_x3E__126_" display="none" fill="none" width="22" height="22" style="fill: rgb(153, 153, 153);" vector-effect="non-scaling-stroke"/> <path fill-rule="evenodd" clip-rule="evenodd" d="M9,0H0v9l3.5-3.5L8,10l2-2L5.5,3.5L9,0z M8,12l-4.5,4.5L0,13v9h9l-3.5-3.5L10,14 L8,12z M13,0l3.5,3.5L12,8l2,2l4.5-4.5L22,9V0H13z M14,12l-2,2l4.5,4.5L13,22h9v-9l-3.5,3.5L14,12z" style="fill: rgb(153, 153, 153);" vector-effect="non-scaling-stroke"/> </g></svg>