<svg version="1.2" xmlns="http://www.w3.org/2000/svg" xmlns:xlink="http://www.w3.org/1999/xlink" overflow="visible" preserveAspectRatio="none" viewBox="0 0 20 19.99998" width="20" height="19.99998"><g transform="translate(0, 0)"><g transform="translate(0.0000099999999995104, -0.000010000000000176534) rotate(0)"><path d="M16,17c0,0.55228 -0.44772,1 -1,1h3v-1.04217c-0.58873,-0.15206 -1.00004,-0.68312 -1.00004,-1.29117c0,-0.60805 0.41131,-1.1391 1.00004,-1.29117v-1.70883h-1c-0.00034,0.71129 -0.45184,1.34406 -1.12434,1.57574c-0.6725,0.23168 -1.41793,0.01126 -1.85628,-0.5489c-0.30012,0.40665 -0.68796,0.74049 -1.13475,0.97675c0.41443,0.36727 0.55852,0.95257 0.36195,1.47026c-0.19657,0.51769 -0.69283,0.85985 -1.24658,0.85949v0.91767c0.01494,0.02792 0.03022,0.05536 0.04583,0.08233h2.95417v0c-0.55228,0 -1,-0.44772 -1,-1c0,-0.55228 0.44772,-1 1,-1c0.55203,0.00062 0.99938,0.44797 1,1zM15.33333,17c0,-0.18409 -0.14924,-0.33333 -0.33333,-0.33333c-0.18409,0 -0.33333,0.14924 -0.33333,0.33333c0,0.18409 0.14924,0.33333 0.33333,0.33333c0.18401,-0.00021 0.33313,-0.14932 0.33333,-0.33333zM5.33334,14.66668c0,-0.1841 0.14924,-0.33333 0.33333,-0.33333c0.18409,0 0.33333,0.14924 0.33333,0.33333c0,0.1841 -0.14924,0.33333 -0.33333,0.33333c-0.18409,0 -0.33333,-0.14924 -0.33333,-0.33333zM0,15.99992c0,-0.18409 0.14924,-0.33333 0.33333,-0.33333h0.48929c-0.00004,-0.43996 0.20358,-0.91196 0.56779,-1.27613c0.27253,-0.2785 0.6235,-0.46728 1.00608,-0.54117c-0.33921,-0.59154 -0.32275,-1.28017 0.09167,-1.69454c0.51987,-0.51983 1.4715,-0.41429 2.12129,0.23571c0.01971,0.01954 0.03863,0.03946 0.05721,0.05954v-3.45c0,-1.04913 0.44025,-2.0125 1.27321,-2.78592c0.31977,-0.29574 0.67603,-0.54939 1.06012,-0.75479v-2.79262c-0.18409,0 -0.33333,-0.14924 -0.33333,-0.33333v-2c0,-0.18409 0.14924,-0.33333 0.33333,-0.33333h2.66667c0.18409,0 0.33333,0.14924 0.33333,0.33333v2c0,0.18409 -0.14924,0.33333 -0.33333,0.33333v2.7925c0.56883,0.30242 1.07345,0.71253 1.48579,1.2075h2.18088c0.13895,-0.00001 0.26333,0.08619 0.31213,0.21629c0.04167,0.11121 1.02121,2.74667 1.02121,4.78371c0,0.11388 -0.00529,0.225 -0.01492,0.33333h3.68158c0.18409,0 0.33333,0.14924 0.33333,0.33333v2.33333c0,0.18409 -0.14924,0.33333 -0.33333,0.33333c-0.36819,0 -0.66667,0.29848 -0.66667,0.66667c0,0.36819 0.29848,0.66667 0.66667,0.66667c0.18409,0 0.33333,0.14924 0.33333,0.33333v1.33333h1c0.18409,0 0.33333,0.14924 0.33333,0.33333c-0.00103,0.92005 -0.74662,1.66563 -1.66667,1.66667h-17c-0.18409,0 -0.33333,-0.14924 -0.33333,-0.33333v-1.241c-0.64617,-0.67033 -1,-1.52504 -1,-2.42575zM6.33333,19.33333v-0.66667h-4.66667v0.66667zM7,19.3335h2.61975c0.194,-0.06004 1.17483,-0.40733 1.71358,-1.41567v-2.94504c-0.22963,-0.03776 -0.4536,-0.10421 -0.66667,-0.19779v2.225c0,0.18409 -0.14924,0.33333 -0.33333,0.33333h-2.60458c-0.17394,0.40569 -0.42096,0.77597 -0.72875,1.09238zM4.33333,15.33333c-0.00032,-0.18776 0.02536,-0.37466 0.07629,-0.55538c-0.13253,0.04311 -0.2711,0.06471 -0.41046,0.064c-0.05607,-0.00008 -0.11208,-0.00329 -0.16779,-0.00962c0.03008,0.28522 -0.01672,0.5733 -0.13554,0.83433h0.66454c-0.01788,-0.11021 -0.02692,-0.22168 -0.02704,-0.33333zM6.29379,15.66667c0.02636,-0.10915 0.03964,-0.22105 0.03954,-0.33333c0,-0.54204 -0.30529,-1 -0.66667,-1c-0.36137,0 -0.66667,0.45796 -0.66667,1c-0.00009,0.11229 0.01318,0.22419 0.03954,0.33333zM7,15.33333c-0.00012,0.11165 -0.00917,0.22312 -0.02704,0.33333h0.69371c0.18409,0 0.33333,0.14924 0.33333,0.33333c0.00002,0.22384 -0.02199,0.44714 -0.06571,0.66667h2.06571v-2.28092c-0.73867,-0.55533 -1.33333,-1.47642 -1.33333,-2.71908c0,-0.1095 0.00296,-0.22083 0.00833,-0.33333h-2.00833v2.89938c0.22129,0.32404 0.33765,0.70826 0.33333,1.10063zM13.88325,10.36083l-0.71567,-0.20442c-0.28199,-0.08075 -0.58523,-0.03339 -0.82917,0.1295l-0.84321,0.56212c-0.49785,0.33114 -1.13474,0.37087 -1.66988,0.10417l-0.42917,-0.21471c-0.03986,0.30815 -0.06084,0.61845 -0.06283,0.92917c0,1.00787 0.46283,1.64667 0.85108,2.00508c0.52904,0.48829 1.12913,0.66158 1.48225,0.66158c0.35313,0 0.95321,-0.17329 1.48225,-0.66158c0.38825,-0.35842 0.85108,-0.99721 0.85108,-2.00508c-0.005,-0.43765 -0.04404,-0.87424 -0.11675,-1.30583zM11.6865,18.66667h-0.01983v-0.02633c-0.18938,0.26002 -0.41316,0.49314 -0.66521,0.693h1.33042c-0.24328,-0.19313 -0.46024,-0.41725 -0.64537,-0.66667zM12,16.33333c0.36819,0 0.66667,-0.29848 0.66667,-0.66667c0,-0.36819 -0.29848,-0.66667 -0.66667,-0.66667zM19.27621,18.66667h-6.69471c0.32607,0.29975 0.71198,0.52697 1.13229,0.66667h4.61954c0.42364,-0.0005 0.80117,-0.26743 0.94287,-0.66667zM14.52708,12.66667c-0.03545,0.12165 -0.07788,0.24115 -0.12708,0.35792c0.17253,0.45005 0.6416,0.71294 1.11554,0.6252c0.47394,-0.08774 0.81781,-0.50113 0.81779,-0.98312zM13.09825,7.33333h-2.86317c-0.15688,0.45271 -0.51621,1.55383 -0.73092,2.71275l0.61971,0.31008c0.32109,0.15996 0.70319,0.13612 1.00192,-0.0625l0.84321,-0.56217c0.40667,-0.27151 0.91217,-0.35043 1.38225,-0.21579l0.39458,0.1125c-0.1713,-0.77684 -0.38752,-1.54308 -0.64758,-2.29487zM7.33333,2c0.18409,0 0.33333,0.14924 0.33333,0.33333v1.66667h1.33333v-1.66667c0,-0.18409 0.14924,-0.33333 0.33333,-0.33333v-1.33333h-2zM9,4.66667h-1.33333v0.66667h1.33333zM5.33333,9v4.71942c0.21666,-0.07033 0.45001,-0.07033 0.66667,0v-2.71942c0,-0.18409 0.14924,-0.33333 0.33333,-0.33333h2.39942c0.22058,-1.80817 0.92004,-3.69012 0.95512,-3.78371c0.04879,-0.13011 0.17317,-0.2163 0.31213,-0.21629h0.23417c-0.29309,-0.26539 -0.62093,-0.48967 -0.9745,-0.66667h-1.85229c-0.3755,0.18867 -0.72208,0.43009 -1.02921,0.71692c-0.69329,0.65037 -1.04483,1.4185 -1.04483,2.28308zM3.19558,13.80458c0.38333,0.38329 0.92304,0.49125 1.17854,0.23571c0.2555,-0.25554 0.14763,-0.79521 -0.23571,-1.17854c-0.36646,-0.36638 -0.87521,-0.48029 -1.14258,-0.26638c0.13994,-0.10496 0.33721,-0.08388 0.45182,0.04827c0.11461,0.13215 0.10758,0.33041 -0.01612,0.4541c-0.12369,0.12369 -0.32195,0.13073 -0.4541,0.01612c-0.13215,-0.11461 -0.15322,-0.31188 -0.04827,-0.45182c-0.21425,0.26733 -0.10042,0.77621 0.26642,1.14254zM1.86192,14.86192c-0.23775,0.23775 -0.37542,0.54225 -0.37413,0.80487h1.438c0.26808,-0.34775 0.33375,-0.76942 0.1455,-1.00458c0.10504,0.13992 0.08402,0.33723 -0.04812,0.45189c-0.13214,0.11466 -0.33045,0.10764 -0.45416,-0.01607c-0.12371,-0.12371 -0.13073,-0.32201 -0.01607,-0.45416c0.11466,-0.13214 0.31197,-0.15316 0.45189,-0.04812c-0.26733,-0.21408 -0.77604,-0.10017 -1.14271,0.26629zM0.68696,16.33333c0.08245,0.6327 0.37457,1.2195 0.82971,1.66667h4.96667c0.45563,-0.44681 0.74786,-1.03379 0.82975,-1.66667z" style="stroke-width: 0; stroke-linecap: butt; stroke-linejoin: miter; fill: rgb(255, 255, 255);" vector-effect="non-scaling-stroke"/></g><defs><path id="path-167694423241884904" d="M16,17c0,0.55228 -0.44772,1 -1,1h3v-1.04217c-0.58873,-0.15206 -1.00004,-0.68312 -1.00004,-1.29117c0,-0.60805 0.41131,-1.1391 1.00004,-1.29117v-1.70883h-1c-0.00034,0.71129 -0.45184,1.34406 -1.12434,1.57574c-0.6725,0.23168 -1.41793,0.01126 -1.85628,-0.5489c-0.30012,0.40665 -0.68796,0.74049 -1.13475,0.97675c0.41443,0.36727 0.55852,0.95257 0.36195,1.47026c-0.19657,0.51769 -0.69283,0.85985 -1.24658,0.85949v0.91767c0.01494,0.02792 0.03022,0.05536 0.04583,0.08233h2.95417v0c-0.55228,0 -1,-0.44772 -1,-1c0,-0.55228 0.44772,-1 1,-1c0.55203,0.00062 0.99938,0.44797 1,1zM15.33333,17c0,-0.18409 -0.14924,-0.33333 -0.33333,-0.33333c-0.18409,0 -0.33333,0.14924 -0.33333,0.33333c0,0.18409 0.14924,0.33333 0.33333,0.33333c0.18401,-0.00021 0.33313,-0.14932 0.33333,-0.33333zM5.33334,14.66668c0,-0.1841 0.14924,-0.33333 0.33333,-0.33333c0.18409,0 0.33333,0.14924 0.33333,0.33333c0,0.1841 -0.14924,0.33333 -0.33333,0.33333c-0.18409,0 -0.33333,-0.14924 -0.33333,-0.33333zM0,15.99992c0,-0.18409 0.14924,-0.33333 0.33333,-0.33333h0.48929c-0.00004,-0.43996 0.20358,-0.91196 0.56779,-1.27613c0.27253,-0.2785 0.6235,-0.46728 1.00608,-0.54117c-0.33921,-0.59154 -0.32275,-1.28017 0.09167,-1.69454c0.51987,-0.51983 1.4715,-0.41429 2.12129,0.23571c0.01971,0.01954 0.03863,0.03946 0.05721,0.05954v-3.45c0,-1.04913 0.44025,-2.0125 1.27321,-2.78592c0.31977,-0.29574 0.67603,-0.54939 1.06012,-0.75479v-2.79262c-0.18409,0 -0.33333,-0.14924 -0.33333,-0.33333v-2c0,-0.18409 0.14924,-0.33333 0.33333,-0.33333h2.66667c0.18409,0 0.33333,0.14924 0.33333,0.33333v2c0,0.18409 -0.14924,0.33333 -0.33333,0.33333v2.7925c0.56883,0.30242 1.07345,0.71253 1.48579,1.2075h2.18088c0.13895,-0.00001 0.26333,0.08619 0.31213,0.21629c0.04167,0.11121 1.02121,2.74667 1.02121,4.78371c0,0.11388 -0.00529,0.225 -0.01492,0.33333h3.68158c0.18409,0 0.33333,0.14924 0.33333,0.33333v2.33333c0,0.18409 -0.14924,0.33333 -0.33333,0.33333c-0.36819,0 -0.66667,0.29848 -0.66667,0.66667c0,0.36819 0.29848,0.66667 0.66667,0.66667c0.18409,0 0.33333,0.14924 0.33333,0.33333v1.33333h1c0.18409,0 0.33333,0.14924 0.33333,0.33333c-0.00103,0.92005 -0.74662,1.66563 -1.66667,1.66667h-17c-0.18409,0 -0.33333,-0.14924 -0.33333,-0.33333v-1.241c-0.64617,-0.67033 -1,-1.52504 -1,-2.42575zM6.33333,19.33333v-0.66667h-4.66667v0.66667zM7,19.3335h2.61975c0.194,-0.06004 1.17483,-0.40733 1.71358,-1.41567v-2.94504c-0.22963,-0.03776 -0.4536,-0.10421 -0.66667,-0.19779v2.225c0,0.18409 -0.14924,0.33333 -0.33333,0.33333h-2.60458c-0.17394,0.40569 -0.42096,0.77597 -0.72875,1.09238zM4.33333,15.33333c-0.00032,-0.18776 0.02536,-0.37466 0.07629,-0.55538c-0.13253,0.04311 -0.2711,0.06471 -0.41046,0.064c-0.05607,-0.00008 -0.11208,-0.00329 -0.16779,-0.00962c0.03008,0.28522 -0.01672,0.5733 -0.13554,0.83433h0.66454c-0.01788,-0.11021 -0.02692,-0.22168 -0.02704,-0.33333zM6.29379,15.66667c0.02636,-0.10915 0.03964,-0.22105 0.03954,-0.33333c0,-0.54204 -0.30529,-1 -0.66667,-1c-0.36137,0 -0.66667,0.45796 -0.66667,1c-0.00009,0.11229 0.01318,0.22419 0.03954,0.33333zM7,15.33333c-0.00012,0.11165 -0.00917,0.22312 -0.02704,0.33333h0.69371c0.18409,0 0.33333,0.14924 0.33333,0.33333c0.00002,0.22384 -0.02199,0.44714 -0.06571,0.66667h2.06571v-2.28092c-0.73867,-0.55533 -1.33333,-1.47642 -1.33333,-2.71908c0,-0.1095 0.00296,-0.22083 0.00833,-0.33333h-2.00833v2.89938c0.22129,0.32404 0.33765,0.70826 0.33333,1.10063zM13.88325,10.36083l-0.71567,-0.20442c-0.28199,-0.08075 -0.58523,-0.03339 -0.82917,0.1295l-0.84321,0.56212c-0.49785,0.33114 -1.13474,0.37087 -1.66988,0.10417l-0.42917,-0.21471c-0.03986,0.30815 -0.06084,0.61845 -0.06283,0.92917c0,1.00787 0.46283,1.64667 0.85108,2.00508c0.52904,0.48829 1.12913,0.66158 1.48225,0.66158c0.35313,0 0.95321,-0.17329 1.48225,-0.66158c0.38825,-0.35842 0.85108,-0.99721 0.85108,-2.00508c-0.005,-0.43765 -0.04404,-0.87424 -0.11675,-1.30583zM11.6865,18.66667h-0.01983v-0.02633c-0.18938,0.26002 -0.41316,0.49314 -0.66521,0.693h1.33042c-0.24328,-0.19313 -0.46024,-0.41725 -0.64537,-0.66667zM12,16.33333c0.36819,0 0.66667,-0.29848 0.66667,-0.66667c0,-0.36819 -0.29848,-0.66667 -0.66667,-0.66667zM19.27621,18.66667h-6.69471c0.32607,0.29975 0.71198,0.52697 1.13229,0.66667h4.61954c0.42364,-0.0005 0.80117,-0.26743 0.94287,-0.66667zM14.52708,12.66667c-0.03545,0.12165 -0.07788,0.24115 -0.12708,0.35792c0.17253,0.45005 0.6416,0.71294 1.11554,0.6252c0.47394,-0.08774 0.81781,-0.50113 0.81779,-0.98312zM13.09825,7.33333h-2.86317c-0.15688,0.45271 -0.51621,1.55383 -0.73092,2.71275l0.61971,0.31008c0.32109,0.15996 0.70319,0.13612 1.00192,-0.0625l0.84321,-0.56217c0.40667,-0.27151 0.91217,-0.35043 1.38225,-0.21579l0.39458,0.1125c-0.1713,-0.77684 -0.38752,-1.54308 -0.64758,-2.29487zM7.33333,2c0.18409,0 0.33333,0.14924 0.33333,0.33333v1.66667h1.33333v-1.66667c0,-0.18409 0.14924,-0.33333 0.33333,-0.33333v-1.33333h-2zM9,4.66667h-1.33333v0.66667h1.33333zM5.33333,9v4.71942c0.21666,-0.07033 0.45001,-0.07033 0.66667,0v-2.71942c0,-0.18409 0.14924,-0.33333 0.33333,-0.33333h2.39942c0.22058,-1.80817 0.92004,-3.69012 0.95512,-3.78371c0.04879,-0.13011 0.17317,-0.2163 0.31213,-0.21629h0.23417c-0.29309,-0.26539 -0.62093,-0.48967 -0.9745,-0.66667h-1.85229c-0.3755,0.18867 -0.72208,0.43009 -1.02921,0.71692c-0.69329,0.65037 -1.04483,1.4185 -1.04483,2.28308zM3.19558,13.80458c0.38333,0.38329 0.92304,0.49125 1.17854,0.23571c0.2555,-0.25554 0.14763,-0.79521 -0.23571,-1.17854c-0.36646,-0.36638 -0.87521,-0.48029 -1.14258,-0.26638c0.13994,-0.10496 0.33721,-0.08388 0.45182,0.04827c0.11461,0.13215 0.10758,0.33041 -0.01612,0.4541c-0.12369,0.12369 -0.32195,0.13073 -0.4541,0.01612c-0.13215,-0.11461 -0.15322,-0.31188 -0.04827,-0.45182c-0.21425,0.26733 -0.10042,0.77621 0.26642,1.14254zM1.86192,14.86192c-0.23775,0.23775 -0.37542,0.54225 -0.37413,0.80487h1.438c0.26808,-0.34775 0.33375,-0.76942 0.1455,-1.00458c0.10504,0.13992 0.08402,0.33723 -0.04812,0.45189c-0.13214,0.11466 -0.33045,0.10764 -0.45416,-0.01607c-0.12371,-0.12371 -0.13073,-0.32201 -0.01607,-0.45416c0.11466,-0.13214 0.31197,-0.15316 0.45189,-0.04812c-0.26733,-0.21408 -0.77604,-0.10017 -1.14271,0.26629zM0.68696,16.33333c0.08245,0.6327 0.37457,1.2195 0.82971,1.66667h4.96667c0.45563,-0.44681 0.74786,-1.03379 0.82975,-1.66667z" vector-effect="non-scaling-stroke"/></defs></g></svg>