<svg version="1.2" xmlns="http://www.w3.org/2000/svg" xmlns:xlink="http://www.w3.org/1999/xlink" overflow="visible" preserveAspectRatio="none" viewBox="0 0 21.000000000000004 19.999995" width="21.000000000000004" height="19.999995"><g transform="translate(0, 0)"><g transform="translate(2.1094237467877974e-15, -0.000005000000000740523) rotate(0)"><path d="M21,4.6085v15.03356c0,0.19769 -0.1567,0.35794 -0.35,0.35794h-20.3c-0.1933,0 -0.35,-0.16026 -0.35,-0.35794v-15.03356c0,-0.19769 0.1567,-0.35794 0.35,-0.35794h3.39964l6.56486,-4.19615c0.11349,-0.07254 0.25751,-0.07254 0.371,0l6.56486,4.19615h3.39964c0.1933,0 0.35,0.16026 0.35,0.35794zM0.7,4.96644v0.71588h3.40248l6.21653,-3.84107c0.11129,-0.06877 0.25069,-0.06877 0.36199,0l6.21653,3.84107h3.40248v-0.71588h-3.15c-0.0656,0 -0.12987,-0.01885 -0.1855,-0.05441l-6.4645,-4.13199l-6.4645,4.13199c-0.05562,0.03557 -0.1199,0.05442 -0.1855,0.05441zM14,16.06264c-0.00152,-1.38316 -1.09753,-2.50404 -2.45,-2.50559h-2.1c-1.35247,0.00155 -2.44848,1.12244 -2.45,2.50559v3.22148h0.7v-3.22148c0.00108,-0.98797 0.78395,-1.7886 1.75,-1.78971h2.1c0.96605,0.00111 1.74892,0.80174 1.75,1.78971v3.22148h0.7zM12.6,16.06264c-0.00068,-0.59277 -0.47038,-1.07314 -1.05,-1.07383h-2.1c-0.57962,0.00069 -1.04932,0.48105 -1.05,1.07383v3.22148h4.2zM20.3,19.28412v-12.88591h-3.5c-0.0638,0 -0.12639,-0.01784 -0.18099,-0.05159l-6.11901,-3.78076l-6.11901,3.78081c-0.05461,0.03373 -0.1172,0.05155 -0.18099,0.05154h-3.5v12.88591h5.6v-3.22148c0.00195,-1.77834 1.41111,-3.21948 3.15,-3.22148h2.1c1.73889,0.002 3.14805,1.44313 3.15,3.22148v3.22148zM5,14.33333v3.33333c0,0.18409 -0.16789,0.33333 -0.375,0.33333h-2.25c-0.20711,0 -0.375,-0.14924 -0.375,-0.33333v-3.33333c0,-0.18409 0.16789,-0.33333 0.375,-0.33333h2.25c0.20711,0 0.375,0.14924 0.375,0.33333zM4.25,14.66667h-1.5v2.66667h1.5zM19,14.33333v3.33333c0,0.18409 -0.16789,0.33333 -0.375,0.33333h-2.25c-0.20711,0 -0.375,-0.14924 -0.375,-0.33333v-3.33333c0,-0.18409 0.16789,-0.33333 0.375,-0.33333h2.25c0.20711,0 0.375,0.14924 0.375,0.33333zM18.25,14.66667h-1.5v2.66667h1.5zM2.66667,11h-1.33333c-0.18409,0 -0.33333,-0.13431 -0.33333,-0.3v-1.8c0,-0.49706 0.44772,-0.9 1,-0.9c0.55228,0 1,0.40294 1,0.9v1.8c0,0.16569 -0.14924,0.3 -0.33333,0.3zM2.33333,8.9c0,-0.16569 -0.14924,-0.3 -0.33333,-0.3c-0.18409,0 -0.33333,0.13431 -0.33333,0.3v1.5h0.66667zM6,8.9v1.8c0,0.16569 -0.14924,0.3 -0.33333,0.3h-1.33333c-0.18409,0 -0.33333,-0.13431 -0.33333,-0.3v-1.8c0.00064,-0.49682 0.44798,-0.89942 1,-0.9c0.55202,0.00058 0.99936,0.40318 1,0.9zM5.33333,8.9c0,-0.16569 -0.14924,-0.3 -0.33333,-0.3c-0.18409,0 -0.33333,0.13431 -0.33333,0.3v1.5h0.66667zM16.66667,11h-1.33333c-0.18409,0 -0.33333,-0.13431 -0.33333,-0.3v-1.8c0,-0.49706 0.44772,-0.9 1,-0.9c0.55228,0 1,0.40294 1,0.9v1.8c0,0.16569 -0.14924,0.3 -0.33333,0.3zM16.33333,8.9c0,-0.16569 -0.14924,-0.3 -0.33333,-0.3c-0.18409,0 -0.33333,0.13431 -0.33333,0.3v1.5h0.66667zM20,8.9v1.8c0,0.16569 -0.14924,0.3 -0.33333,0.3h-1.33333c-0.18409,0 -0.33333,-0.13431 -0.33333,-0.3v-1.8c0.00064,-0.49682 0.44798,-0.89942 1,-0.9c0.55202,0.00058 0.99936,0.40318 1,0.9zM19.33333,8.9c0,-0.16569 -0.14924,-0.3 -0.33333,-0.3c-0.18409,0 -0.33333,0.13431 -0.33333,0.3v1.5h0.66667zM12.99046,7.01057c0.07114,0.52123 -0.26227,1.01362 -0.78006,1.15201c0.11271,0.2777 0.09916,0.58933 -0.03725,0.85663c-0.13641,0.2673 -0.38272,0.4649 -0.67709,0.54318c0.17771,0.43809 0.03559,0.93853 -0.34753,1.22372c-0.38312,0.28519 -0.91328,0.28519 -1.29641,0c-0.38312,-0.28519 -0.52525,-0.78563 -0.34753,-1.22372c-0.29437,-0.07827 -0.54068,-0.27587 -0.67709,-0.54318c-0.13641,-0.2673 -0.14996,-0.57893 -0.03725,-0.85663c-0.42717,-0.11375 -0.73892,-0.47324 -0.78453,-0.90465c-0.0456,-0.43141 0.18434,-0.84587 0.57865,-1.04298c0.39431,-0.19711 0.87175,-0.13626 1.20148,0.15313c0.14221,-0.1252 0.31609,-0.21073 0.50352,-0.24768c0.01631,-0.07533 0.03326,-0.14955 0.05085,-0.22266c-0.0873,0.01176 -0.17529,0.01787 -0.26341,0.01828c-0.26976,0.00255 -0.53579,-0.0618 -0.77336,-0.18705c-0.74496,-0.3954 -0.93176,-1.27304 -0.93935,-1.31022c-0.02099,-0.10281 0.00618,-0.20942 0.07402,-0.2905c0.06784,-0.08108 0.16922,-0.12809 0.27622,-0.12808h1.0715c0.26038,0 0.62991,0.09492 0.97917,0.51841c0.06768,-0.18031 0.11438,-0.29055 0.12005,-0.30367c0.07618,-0.17828 0.28544,-0.2623 0.4674,-0.18766c0.18196,0.07464 0.26771,0.27967 0.19153,0.45796c-0.00254,0.00599 -0.49602,1.51026 -0.54606,1.73528c0.0781,0.0403 0.15084,0.08987 0.21658,0.14759c0.1961,-0.17283 0.45058,-0.26837 0.71434,-0.26819c0.53671,0.00022 0.99046,0.38947 1.0616,0.91069zM10.36509,5.18409c-0.1355,-0.23399 -0.3411,-0.48403 -0.57924,-0.48403h-0.5504c0.09508,0.17331 0.23768,0.31715 0.41172,0.41531c0.19693,0.10337 0.43735,0.12625 0.71791,0.06872zM10.14302,7.14973c0,0.19327 0.15991,0.34995 0.35717,0.34995c0.19726,0 0.35717,-0.15668 0.35717,-0.34995c0,-0.19327 -0.15991,-0.34995 -0.35717,-0.34995c-0.19717,0.00022 -0.35695,0.15677 -0.35717,0.34995zM8.71435,7.14973c0,0.19327 0.15991,0.34995 0.35717,0.34995c0.19726,0 0.35717,-0.15668 0.35717,-0.34995c0,-0.19327 -0.15991,-0.34995 -0.35717,-0.34995c-0.19717,0.00022 -0.35695,0.15677 -0.35717,0.34995zM9.42869,8.54954c0,0.19327 0.15991,0.34995 0.35717,0.34995c0.19726,0 0.35717,-0.15668 0.35717,-0.34995c0,-0.19327 -0.15991,-0.34995 -0.35717,-0.34995c-0.19717,0.00022 -0.35695,0.15677 -0.35717,0.34995zM10.85736,9.94934c0,-0.19327 -0.15991,-0.34995 -0.35717,-0.34995c-0.19726,0 -0.35717,0.15668 -0.35717,0.34995c0,0.19327 0.15991,0.34995 0.35717,0.34995c0.19717,-0.00022 0.35695,-0.15677 0.35717,-0.34995zM11.57169,8.54954c0,-0.19327 -0.15991,-0.34995 -0.35717,-0.34995c-0.19726,0 -0.35717,0.15668 -0.35717,0.34995c0,0.19327 0.15991,0.34995 0.35717,0.34995c0.19717,-0.00022 0.35695,-0.15677 0.35717,-0.34995zM12.28603,7.14973c0,-0.19327 -0.15991,-0.34995 -0.35717,-0.34995c-0.19726,0 -0.35717,0.15668 -0.35717,0.34995c0,0.19327 0.15991,0.34995 0.35717,0.34995c0.19717,-0.00022 0.35695,-0.15677 0.35717,-0.34995z" style="stroke-width: 0; stroke-linecap: butt; stroke-linejoin: miter; fill: rgb(255, 255, 255);" vector-effect="non-scaling-stroke"/></g><defs><path id="path-167694423241584886" d="M21,4.6085v15.03356c0,0.19769 -0.1567,0.35794 -0.35,0.35794h-20.3c-0.1933,0 -0.35,-0.16026 -0.35,-0.35794v-15.03356c0,-0.19769 0.1567,-0.35794 0.35,-0.35794h3.39964l6.56486,-4.19615c0.11349,-0.07254 0.25751,-0.07254 0.371,0l6.56486,4.19615h3.39964c0.1933,0 0.35,0.16026 0.35,0.35794zM0.7,4.96644v0.71588h3.40248l6.21653,-3.84107c0.11129,-0.06877 0.25069,-0.06877 0.36199,0l6.21653,3.84107h3.40248v-0.71588h-3.15c-0.0656,0 -0.12987,-0.01885 -0.1855,-0.05441l-6.4645,-4.13199l-6.4645,4.13199c-0.05562,0.03557 -0.1199,0.05442 -0.1855,0.05441zM14,16.06264c-0.00152,-1.38316 -1.09753,-2.50404 -2.45,-2.50559h-2.1c-1.35247,0.00155 -2.44848,1.12244 -2.45,2.50559v3.22148h0.7v-3.22148c0.00108,-0.98797 0.78395,-1.7886 1.75,-1.78971h2.1c0.96605,0.00111 1.74892,0.80174 1.75,1.78971v3.22148h0.7zM12.6,16.06264c-0.00068,-0.59277 -0.47038,-1.07314 -1.05,-1.07383h-2.1c-0.57962,0.00069 -1.04932,0.48105 -1.05,1.07383v3.22148h4.2zM20.3,19.28412v-12.88591h-3.5c-0.0638,0 -0.12639,-0.01784 -0.18099,-0.05159l-6.11901,-3.78076l-6.11901,3.78081c-0.05461,0.03373 -0.1172,0.05155 -0.18099,0.05154h-3.5v12.88591h5.6v-3.22148c0.00195,-1.77834 1.41111,-3.21948 3.15,-3.22148h2.1c1.73889,0.002 3.14805,1.44313 3.15,3.22148v3.22148zM5,14.33333v3.33333c0,0.18409 -0.16789,0.33333 -0.375,0.33333h-2.25c-0.20711,0 -0.375,-0.14924 -0.375,-0.33333v-3.33333c0,-0.18409 0.16789,-0.33333 0.375,-0.33333h2.25c0.20711,0 0.375,0.14924 0.375,0.33333zM4.25,14.66667h-1.5v2.66667h1.5zM19,14.33333v3.33333c0,0.18409 -0.16789,0.33333 -0.375,0.33333h-2.25c-0.20711,0 -0.375,-0.14924 -0.375,-0.33333v-3.33333c0,-0.18409 0.16789,-0.33333 0.375,-0.33333h2.25c0.20711,0 0.375,0.14924 0.375,0.33333zM18.25,14.66667h-1.5v2.66667h1.5zM2.66667,11h-1.33333c-0.18409,0 -0.33333,-0.13431 -0.33333,-0.3v-1.8c0,-0.49706 0.44772,-0.9 1,-0.9c0.55228,0 1,0.40294 1,0.9v1.8c0,0.16569 -0.14924,0.3 -0.33333,0.3zM2.33333,8.9c0,-0.16569 -0.14924,-0.3 -0.33333,-0.3c-0.18409,0 -0.33333,0.13431 -0.33333,0.3v1.5h0.66667zM6,8.9v1.8c0,0.16569 -0.14924,0.3 -0.33333,0.3h-1.33333c-0.18409,0 -0.33333,-0.13431 -0.33333,-0.3v-1.8c0.00064,-0.49682 0.44798,-0.89942 1,-0.9c0.55202,0.00058 0.99936,0.40318 1,0.9zM5.33333,8.9c0,-0.16569 -0.14924,-0.3 -0.33333,-0.3c-0.18409,0 -0.33333,0.13431 -0.33333,0.3v1.5h0.66667zM16.66667,11h-1.33333c-0.18409,0 -0.33333,-0.13431 -0.33333,-0.3v-1.8c0,-0.49706 0.44772,-0.9 1,-0.9c0.55228,0 1,0.40294 1,0.9v1.8c0,0.16569 -0.14924,0.3 -0.33333,0.3zM16.33333,8.9c0,-0.16569 -0.14924,-0.3 -0.33333,-0.3c-0.18409,0 -0.33333,0.13431 -0.33333,0.3v1.5h0.66667zM20,8.9v1.8c0,0.16569 -0.14924,0.3 -0.33333,0.3h-1.33333c-0.18409,0 -0.33333,-0.13431 -0.33333,-0.3v-1.8c0.00064,-0.49682 0.44798,-0.89942 1,-0.9c0.55202,0.00058 0.99936,0.40318 1,0.9zM19.33333,8.9c0,-0.16569 -0.14924,-0.3 -0.33333,-0.3c-0.18409,0 -0.33333,0.13431 -0.33333,0.3v1.5h0.66667zM12.99046,7.01057c0.07114,0.52123 -0.26227,1.01362 -0.78006,1.15201c0.11271,0.2777 0.09916,0.58933 -0.03725,0.85663c-0.13641,0.2673 -0.38272,0.4649 -0.67709,0.54318c0.17771,0.43809 0.03559,0.93853 -0.34753,1.22372c-0.38312,0.28519 -0.91328,0.28519 -1.29641,0c-0.38312,-0.28519 -0.52525,-0.78563 -0.34753,-1.22372c-0.29437,-0.07827 -0.54068,-0.27587 -0.67709,-0.54318c-0.13641,-0.2673 -0.14996,-0.57893 -0.03725,-0.85663c-0.42717,-0.11375 -0.73892,-0.47324 -0.78453,-0.90465c-0.0456,-0.43141 0.18434,-0.84587 0.57865,-1.04298c0.39431,-0.19711 0.87175,-0.13626 1.20148,0.15313c0.14221,-0.1252 0.31609,-0.21073 0.50352,-0.24768c0.01631,-0.07533 0.03326,-0.14955 0.05085,-0.22266c-0.0873,0.01176 -0.17529,0.01787 -0.26341,0.01828c-0.26976,0.00255 -0.53579,-0.0618 -0.77336,-0.18705c-0.74496,-0.3954 -0.93176,-1.27304 -0.93935,-1.31022c-0.02099,-0.10281 0.00618,-0.20942 0.07402,-0.2905c0.06784,-0.08108 0.16922,-0.12809 0.27622,-0.12808h1.0715c0.26038,0 0.62991,0.09492 0.97917,0.51841c0.06768,-0.18031 0.11438,-0.29055 0.12005,-0.30367c0.07618,-0.17828 0.28544,-0.2623 0.4674,-0.18766c0.18196,0.07464 0.26771,0.27967 0.19153,0.45796c-0.00254,0.00599 -0.49602,1.51026 -0.54606,1.73528c0.0781,0.0403 0.15084,0.08987 0.21658,0.14759c0.1961,-0.17283 0.45058,-0.26837 0.71434,-0.26819c0.53671,0.00022 0.99046,0.38947 1.0616,0.91069zM10.36509,5.18409c-0.1355,-0.23399 -0.3411,-0.48403 -0.57924,-0.48403h-0.5504c0.09508,0.17331 0.23768,0.31715 0.41172,0.41531c0.19693,0.10337 0.43735,0.12625 0.71791,0.06872zM10.14302,7.14973c0,0.19327 0.15991,0.34995 0.35717,0.34995c0.19726,0 0.35717,-0.15668 0.35717,-0.34995c0,-0.19327 -0.15991,-0.34995 -0.35717,-0.34995c-0.19717,0.00022 -0.35695,0.15677 -0.35717,0.34995zM8.71435,7.14973c0,0.19327 0.15991,0.34995 0.35717,0.34995c0.19726,0 0.35717,-0.15668 0.35717,-0.34995c0,-0.19327 -0.15991,-0.34995 -0.35717,-0.34995c-0.19717,0.00022 -0.35695,0.15677 -0.35717,0.34995zM9.42869,8.54954c0,0.19327 0.15991,0.34995 0.35717,0.34995c0.19726,0 0.35717,-0.15668 0.35717,-0.34995c0,-0.19327 -0.15991,-0.34995 -0.35717,-0.34995c-0.19717,0.00022 -0.35695,0.15677 -0.35717,0.34995zM10.85736,9.94934c0,-0.19327 -0.15991,-0.34995 -0.35717,-0.34995c-0.19726,0 -0.35717,0.15668 -0.35717,0.34995c0,0.19327 0.15991,0.34995 0.35717,0.34995c0.19717,-0.00022 0.35695,-0.15677 0.35717,-0.34995zM11.57169,8.54954c0,-0.19327 -0.15991,-0.34995 -0.35717,-0.34995c-0.19726,0 -0.35717,0.15668 -0.35717,0.34995c0,0.19327 0.15991,0.34995 0.35717,0.34995c0.19717,-0.00022 0.35695,-0.15677 0.35717,-0.34995zM12.28603,7.14973c0,-0.19327 -0.15991,-0.34995 -0.35717,-0.34995c-0.19726,0 -0.35717,0.15668 -0.35717,0.34995c0,0.19327 0.15991,0.34995 0.35717,0.34995c0.19717,-0.00022 0.35695,-0.15677 0.35717,-0.34995z" vector-effect="non-scaling-stroke"/></defs></g></svg>