<svg version="1.2" xmlns="http://www.w3.org/2000/svg" xmlns:xlink="http://www.w3.org/1999/xlink" overflow="visible" preserveAspectRatio="none" viewBox="0 0 21.999993204506847 20.000000024064217" width="21.999993204506847" height="20.000000024064217"><g transform="translate(0, 0)"><g transform="translate(-0.000020000000000131024, -2.949029909160572e-15) rotate(0)"><path d="M21.99976,16.72726v1.45455c0,0.20082 -0.16417,0.36364 -0.36666,0.36364h-0.36666v1.09091c0,0.20082 -0.16417,0.36364 -0.36666,0.36364h-1.46665c-0.13897,0.00005 -0.26606,-0.07782 -0.32816,-0.20109l-0.63176,-1.25346h-2.34004v1.09091c0,0.20082 -0.16417,0.36364 -0.36666,0.36364h-13.93318c-0.13897,0.00005 -0.26606,-0.07782 -0.32816,-0.20109l-0.63176,-1.25346h-0.87339v-0.72728h2.45187c-1.56075,-1.08369 -2.14305,-3.10329 -1.39588,-4.84147c0.05147,-0.11946 0.16326,-0.20264 0.29333,-0.21818c0.16055,-0.02014 0.32216,-0.03055 0.48399,-0.03127c0.25868,0.00191 0.51658,0.02882 0.76999,0.08036c0.16628,-1.23091 0.89722,-2.31642 1.97998,-2.94038c0.11344,-0.06495 0.25323,-0.06495 0.36666,0c0.33999,0.19718 0.64886,0.443 0.91666,0.72946v-4.05129c0.00023,-0.17932 0.13223,-0.33164 0.31093,-0.35891l4.45568,-0.68v-0.452c-0.85299,-0.17396 -1.46555,-0.91814 -1.46665,-1.78183c0,-1.58692 1.50955,-3.10256 1.57408,-3.16619c0.14318,-0.14196 0.37528,-0.14196 0.51846,0c0.06453,0.06364 1.57408,1.57928 1.57408,3.16619c-0.0011,0.86369 -0.61366,1.60787 -1.46665,1.78183v0.33964l4.34422,-0.66255c0.01838,-0.00282 0.03699,-0.00423 0.0556,-0.00423c0.20249,-0.00009 0.36671,0.16268 0.3668,0.3635v2.54546h3.29996c1.41674,0.00182 2.5648,1.14041 2.56664,2.54546c-0.00128,0.89473 -0.47611,1.7231 -1.25069,2.18183c0.19268,0.11368 0.3695,0.25196 0.52589,0.41132c0.98563,1.00446 0.96359,2.61119 -0.04922,3.5887h0.40736c0.20249,0 0.36666,0.16282 0.36666,0.36364zM19.43312,12.72724h-0.3762c0.24264,0.31286 0.37487,0.69618 0.3762,1.09091c-0.00119,1.00364 -0.82132,1.81701 -1.83331,1.81819h-3.66663c-0.60751,0 -1.09999,-0.48841 -1.09999,-1.09091c0,-0.6025 0.49247,-1.09091 1.09999,-1.09091h2.56664v0.72728h-2.56664c-0.20249,0 -0.36666,0.16282 -0.36666,0.36364c0,0.20082 0.16417,0.36364 0.36666,0.36364h3.66663c0.60751,0 1.09999,-0.48841 1.09999,-1.09091c0,-0.6025 -0.49247,-1.09091 -1.09999,-1.09091h-4.76661c-1.01249,0 -1.83331,0.81405 -1.83331,1.81819c0,1.00414 0.82082,1.81819 1.83331,1.81819h6.59993c1.01199,-0.00118 1.83212,-0.81455 1.83331,-1.81819c-0.00119,-1.00364 -0.82132,-1.81701 -1.83331,-1.81819zM14.29984,8.36359c-1.01249,0 -1.83331,0.81405 -1.83331,1.81819c0,1.00414 0.82082,1.81819 1.83331,1.81819h5.13328c0.85208,-0.00509 1.58829,-0.59173 1.7768,-1.41587c0.22403,-0.97928 -0.39485,-1.95324 -1.38227,-2.17542c0.22,0.30514 0.33843,0.67073 0.3388,1.04582c-0.00119,1.00364 -0.82132,1.81701 -1.83331,1.81819h-3.66663c-0.60751,0 -1.09999,-0.48841 -1.09999,-1.09091c0,-0.6025 0.49247,-1.09091 1.09999,-1.09091h2.56664v0.72728h-2.56664c-0.20249,0 -0.36666,0.16282 -0.36666,0.36364c0,0.20082 0.16417,0.36364 0.36666,0.36364h3.66663c0.60751,0 1.09999,-0.48841 1.09999,-1.09091c0,-0.6025 -0.49247,-1.09091 -1.09999,-1.09091zM10.63322,4.29666v-0.66037h0.73333v0.66037c0.43793,-0.15355 0.7314,-0.56337 0.73333,-1.024c0,-0.932 -0.70546,-1.8971 -1.09999,-2.36365c-0.39416,0.46691 -1.09999,1.43382 -1.09999,2.36365c0.00192,0.46064 0.29539,0.87046 0.73333,1.024zM3.31976,13.01815c0.54857,0.21446 1.04343,0.54491 1.45015,0.96837c0.40379,-0.42509 0.89631,-0.75759 1.44318,-0.97419c-0.09689,-0.97455 -0.62731,-1.85542 -1.44648,-2.40219c-0.82091,0.54791 -1.35166,1.43123 -1.44685,2.40801zM4.58622,17.81199c0.0627,0.004 0.12283,0.00618 0.1804,0.00618c0.37258,0 0.74249,-0.06255 1.09403,-0.185c1.71951,-0.59909 2.62375,-2.46715 2.01967,-4.17247c-0.0627,-0.004 -0.12283,-0.00618 -0.1804,-0.00618c-0.37262,0 -0.74249,0.06255 -1.09403,0.185c-1.71951,0.59909 -2.62375,2.46715 -2.01967,4.17247zM3.78469,17.67054c-0.26688,-1.06096 -0.07695,-2.18419 0.52433,-3.10074c-0.62255,-0.711 -1.52623,-1.1181 -2.47571,-1.11528c-0.05757,0 -0.1177,0.00218 -0.1804,0.00618c-0.12375,0.34846 -0.18672,0.71528 -0.18626,1.08473c-0.00027,1.4326 0.93898,2.69883 2.31804,3.1251zM7.83998,18.54545h-6.14673l0.36666,0.72728h5.41341zM10.99988,18.54545h-0.36666c-0.20249,0 -0.36666,-0.16282 -0.36666,-0.36364v-1.45455c0,-0.20082 0.16417,-0.36364 0.36666,-0.36364h0.40736c-0.42056,-0.40646 -0.68758,-0.94387 -0.75638,-1.52223c-0.16582,-1.39396 0.83911,-2.65733 2.24466,-2.82178c-0.50902,-0.48064 -0.79667,-1.14746 -0.79575,-1.84446c0.00188,-1.40401 1.15105,-2.54069 2.56673,-2.53883h1.09999v-2.12146l-8.7999,1.34255v4.77893h-0.02347c0.17779,0.36841 0.29736,0.76173 0.35456,1.16619c0.41245,-0.08209 0.83567,-0.09682 1.25289,-0.04364c0.13007,0.01555 0.24186,0.09873 0.29333,0.21818c0.74744,1.73869 0.16367,3.75892 -1.39882,4.84111h2.45481v0.72728h-0.87339l-0.36666,0.72728h2.7067zM12.97326,18.54545h-1.24005v0.72728h0.87339zM15.39983,18.54545h-1.60672l-0.36666,0.72728h1.97338zM20.53311,18.54545h-1.24005l0.36666,0.72728h0.87339zM21.26643,17.0909h-10.26655v0.72728h10.26655zM7.33327,10.54537v-2.90909h0.73333v2.90909zM7.33327,11.99992v-0.72727h0.73333v0.72727z" style="stroke-width: 0; stroke-linecap: butt; stroke-linejoin: miter; fill: rgb(255, 255, 255);" vector-effect="non-scaling-stroke"/></g><defs><path id="path-167694423241784898" d="M21.99976,16.72726v1.45455c0,0.20082 -0.16417,0.36364 -0.36666,0.36364h-0.36666v1.09091c0,0.20082 -0.16417,0.36364 -0.36666,0.36364h-1.46665c-0.13897,0.00005 -0.26606,-0.07782 -0.32816,-0.20109l-0.63176,-1.25346h-2.34004v1.09091c0,0.20082 -0.16417,0.36364 -0.36666,0.36364h-13.93318c-0.13897,0.00005 -0.26606,-0.07782 -0.32816,-0.20109l-0.63176,-1.25346h-0.87339v-0.72728h2.45187c-1.56075,-1.08369 -2.14305,-3.10329 -1.39588,-4.84147c0.05147,-0.11946 0.16326,-0.20264 0.29333,-0.21818c0.16055,-0.02014 0.32216,-0.03055 0.48399,-0.03127c0.25868,0.00191 0.51658,0.02882 0.76999,0.08036c0.16628,-1.23091 0.89722,-2.31642 1.97998,-2.94038c0.11344,-0.06495 0.25323,-0.06495 0.36666,0c0.33999,0.19718 0.64886,0.443 0.91666,0.72946v-4.05129c0.00023,-0.17932 0.13223,-0.33164 0.31093,-0.35891l4.45568,-0.68v-0.452c-0.85299,-0.17396 -1.46555,-0.91814 -1.46665,-1.78183c0,-1.58692 1.50955,-3.10256 1.57408,-3.16619c0.14318,-0.14196 0.37528,-0.14196 0.51846,0c0.06453,0.06364 1.57408,1.57928 1.57408,3.16619c-0.0011,0.86369 -0.61366,1.60787 -1.46665,1.78183v0.33964l4.34422,-0.66255c0.01838,-0.00282 0.03699,-0.00423 0.0556,-0.00423c0.20249,-0.00009 0.36671,0.16268 0.3668,0.3635v2.54546h3.29996c1.41674,0.00182 2.5648,1.14041 2.56664,2.54546c-0.00128,0.89473 -0.47611,1.7231 -1.25069,2.18183c0.19268,0.11368 0.3695,0.25196 0.52589,0.41132c0.98563,1.00446 0.96359,2.61119 -0.04922,3.5887h0.40736c0.20249,0 0.36666,0.16282 0.36666,0.36364zM19.43312,12.72724h-0.3762c0.24264,0.31286 0.37487,0.69618 0.3762,1.09091c-0.00119,1.00364 -0.82132,1.81701 -1.83331,1.81819h-3.66663c-0.60751,0 -1.09999,-0.48841 -1.09999,-1.09091c0,-0.6025 0.49247,-1.09091 1.09999,-1.09091h2.56664v0.72728h-2.56664c-0.20249,0 -0.36666,0.16282 -0.36666,0.36364c0,0.20082 0.16417,0.36364 0.36666,0.36364h3.66663c0.60751,0 1.09999,-0.48841 1.09999,-1.09091c0,-0.6025 -0.49247,-1.09091 -1.09999,-1.09091h-4.76661c-1.01249,0 -1.83331,0.81405 -1.83331,1.81819c0,1.00414 0.82082,1.81819 1.83331,1.81819h6.59993c1.01199,-0.00118 1.83212,-0.81455 1.83331,-1.81819c-0.00119,-1.00364 -0.82132,-1.81701 -1.83331,-1.81819zM14.29984,8.36359c-1.01249,0 -1.83331,0.81405 -1.83331,1.81819c0,1.00414 0.82082,1.81819 1.83331,1.81819h5.13328c0.85208,-0.00509 1.58829,-0.59173 1.7768,-1.41587c0.22403,-0.97928 -0.39485,-1.95324 -1.38227,-2.17542c0.22,0.30514 0.33843,0.67073 0.3388,1.04582c-0.00119,1.00364 -0.82132,1.81701 -1.83331,1.81819h-3.66663c-0.60751,0 -1.09999,-0.48841 -1.09999,-1.09091c0,-0.6025 0.49247,-1.09091 1.09999,-1.09091h2.56664v0.72728h-2.56664c-0.20249,0 -0.36666,0.16282 -0.36666,0.36364c0,0.20082 0.16417,0.36364 0.36666,0.36364h3.66663c0.60751,0 1.09999,-0.48841 1.09999,-1.09091c0,-0.6025 -0.49247,-1.09091 -1.09999,-1.09091zM10.63322,4.29666v-0.66037h0.73333v0.66037c0.43793,-0.15355 0.7314,-0.56337 0.73333,-1.024c0,-0.932 -0.70546,-1.8971 -1.09999,-2.36365c-0.39416,0.46691 -1.09999,1.43382 -1.09999,2.36365c0.00192,0.46064 0.29539,0.87046 0.73333,1.024zM3.31976,13.01815c0.54857,0.21446 1.04343,0.54491 1.45015,0.96837c0.40379,-0.42509 0.89631,-0.75759 1.44318,-0.97419c-0.09689,-0.97455 -0.62731,-1.85542 -1.44648,-2.40219c-0.82091,0.54791 -1.35166,1.43123 -1.44685,2.40801zM4.58622,17.81199c0.0627,0.004 0.12283,0.00618 0.1804,0.00618c0.37258,0 0.74249,-0.06255 1.09403,-0.185c1.71951,-0.59909 2.62375,-2.46715 2.01967,-4.17247c-0.0627,-0.004 -0.12283,-0.00618 -0.1804,-0.00618c-0.37262,0 -0.74249,0.06255 -1.09403,0.185c-1.71951,0.59909 -2.62375,2.46715 -2.01967,4.17247zM3.78469,17.67054c-0.26688,-1.06096 -0.07695,-2.18419 0.52433,-3.10074c-0.62255,-0.711 -1.52623,-1.1181 -2.47571,-1.11528c-0.05757,0 -0.1177,0.00218 -0.1804,0.00618c-0.12375,0.34846 -0.18672,0.71528 -0.18626,1.08473c-0.00027,1.4326 0.93898,2.69883 2.31804,3.1251zM7.83998,18.54545h-6.14673l0.36666,0.72728h5.41341zM10.99988,18.54545h-0.36666c-0.20249,0 -0.36666,-0.16282 -0.36666,-0.36364v-1.45455c0,-0.20082 0.16417,-0.36364 0.36666,-0.36364h0.40736c-0.42056,-0.40646 -0.68758,-0.94387 -0.75638,-1.52223c-0.16582,-1.39396 0.83911,-2.65733 2.24466,-2.82178c-0.50902,-0.48064 -0.79667,-1.14746 -0.79575,-1.84446c0.00188,-1.40401 1.15105,-2.54069 2.56673,-2.53883h1.09999v-2.12146l-8.7999,1.34255v4.77893h-0.02347c0.17779,0.36841 0.29736,0.76173 0.35456,1.16619c0.41245,-0.08209 0.83567,-0.09682 1.25289,-0.04364c0.13007,0.01555 0.24186,0.09873 0.29333,0.21818c0.74744,1.73869 0.16367,3.75892 -1.39882,4.84111h2.45481v0.72728h-0.87339l-0.36666,0.72728h2.7067zM12.97326,18.54545h-1.24005v0.72728h0.87339zM15.39983,18.54545h-1.60672l-0.36666,0.72728h1.97338zM20.53311,18.54545h-1.24005l0.36666,0.72728h0.87339zM21.26643,17.0909h-10.26655v0.72728h10.26655zM7.33327,10.54537v-2.90909h0.73333v2.90909zM7.33327,11.99992v-0.72727h0.73333v0.72727z" vector-effect="non-scaling-stroke"/></defs></g></svg>