<svg height="244" overflow="visible" viewBox="0 0 244  244" width="244" xmlns="http://www.w3.org/2000/svg"><g><defs><path id="path-1677000863944571745" d="M121.99999999999993 0 C189.33363298826802 0 243.99999999999986 54.666367011732014 243.99999999999986 121.99999999999993 C243.99999999999986 189.33363298826802 189.33363298826802 243.99999999999986 121.99999999999993 243.99999999999986 C54.666367011732014 243.99999999999986 0 189.33363298826802 0 121.99999999999993 C0 54.666367011732014 54.666367011732014 0 121.99999999999993 0 Z" vector-effect="non-scaling-stroke"/></defs> <path d="M122 0 C189.33363298826794 0 243.99999999999977 54.66636701173201 243.99999999999977 121.99999999999994 C243.99999999999977 189.33363298826805 189.33363298826794 243.9999999999999 122 243.9999999999999 C54.66636701173206 243.9999999999999 0 189.33363298826805 0 121.99999999999994 C0 54.66636701173201 54.66636701173206 0 122 0 Z" style="stroke: rgb(140, 140, 140); stroke-width: 0; stroke-linecap: butt; stroke-linejoin: miter; fill: rgba(223, 22, 131, 0.15);" vector-effect="non-scaling-stroke"/></g><g><defs><path id="path-1677000863944571743" d="M80.9999999999999 0 C125.70511698401391 0 161.9999999999998 36.294883015986 161.9999999999998 80.9999999999999 C161.9999999999998 125.70511698401391 125.70511698401391 161.9999999999998 80.9999999999999 161.9999999999998 C36.294883015986024 161.9999999999998 0 125.70511698401391 0 80.9999999999999 C0 36.294883015986 36.294883015986024 0 80.9999999999999 0 Z" vector-effect="non-scaling-stroke"/></defs> <path d="M122 41 C166.705116984014 41 202.99999999999977 77.29488301598599 202.99999999999977 121.99999999999989 C202.99999999999977 166.7051169840139 166.705116984014 202.99999999999977 122 202.99999999999977 C77.29488301598599 202.99999999999977 41 166.7051169840139 41 121.99999999999989 C41 77.29488301598599 77.29488301598599 41 122 41 Z" style="stroke: rgb(140, 140, 140); stroke-width: 0; stroke-linecap: butt; stroke-linejoin: miter; fill: rgba(223, 22, 131, 0.25);" vector-effect="non-scaling-stroke"/></g><g><defs><path id="path-1677000863943571741" d="M44.999999999999986 0 C69.83617610222998 0 89.99999999999997 20.163823897769994 89.99999999999997 44.999999999999986 C89.99999999999997 69.83617610222998 69.83617610222998 89.99999999999997 44.999999999999986 89.99999999999997 C20.163823897769994 89.99999999999997 0 69.83617610222998 0 44.999999999999986 C0 20.163823897769994 20.163823897769994 0 44.999999999999986 0 Z" vector-effect="non-scaling-stroke"/></defs> <path d="M122 77 C146.83617610222996 77 167 97.16382389776999 167 122 C167 146.83617610222996 146.83617610222996 167 122 167 C97.16382389777004 167 77 146.83617610222996 77 122 C77 97.16382389776999 97.16382389777004 77 122 77 Z" style="stroke: rgb(140, 140, 140); stroke-width: 0; stroke-linecap: butt; stroke-linejoin: miter; fill: rgba(223, 22, 131, 0.4);" vector-effect="non-scaling-stroke"/></g><g><defs><path id="path-1677000863942571739" d="M7.499999999999997 0 C11.639362683705 0 14.999999999999995 3.360637316295 14.999999999999995 7.5 C14.999999999999995 11.639362683704997 11.639362683705 15 7.499999999999997 15 C3.360637316295 15 0 11.639362683704997 0 7.5 C0 3.360637316295 3.360637316295 0 7.499999999999997 0 Z" vector-effect="non-scaling-stroke"/></defs> <path d="M122.5 115 C126.63936268370503 115 130 118.36063731629503 130 122.5 C130 126.63936268370497 126.63936268370503 130 122.5 130 C118.36063731629497 130 115 126.63936268370497 115 122.5 C115 118.36063731629503 118.36063731629497 115 122.5 115 Z" style="stroke: rgb(140, 140, 140); stroke-width: 0; stroke-linecap: butt; stroke-linejoin: miter; fill: rgb(131, 49, 167);" vector-effect="non-scaling-stroke"/></g></svg>