<svg version="1.2" xmlns="http://www.w3.org/2000/svg" xmlns:xlink="http://www.w3.org/1999/xlink" overflow="visible" preserveAspectRatio="none" viewBox="0 0 20.000015125781886 20.000017268332527" width="20.000015125781886" height="20.000017268332527"><g transform="translate(0, 0)"><g transform="translate(0.00035127028892716766, 0.000007268332528464344) rotate(0)"><path d="M13.62154,8.4688l-8.82427,11.01518c-0.24156,0.29722 -0.59834,0.47798 -1.00572,0.51074c-0.04334,0.00357 -0.08684,0.00528 -0.13034,0.00528c-0.4063,0 -0.81275,-0.15032 -1.10845,-0.41415c-0.32732,-0.2921 -0.53356,-0.73653 -0.55176,-1.18904c-0.0165,-0.41105 0.11908,-0.78917 0.38162,-1.06481l9.80701,-10.14246c0.0107,-0.01115 0.02123,-0.02243 0.03159,-0.03385c-0.01879,-0.01879 -0.0217,-0.0217 0,0c0.30111,-0.33188 0.45898,-0.77689 0.43348,-1.2277l-0.06772,-1.19618c-0.00015,-0.00217 -0.00015,-0.00435 -0.00031,-0.00637c-0.03054,-0.85486 0.31868,-1.66779 0.95837,-2.23071l1.2553,-1.10487c1.09272,-0.9617 2.49255,-1.45318 3.94283,-1.3833c0.28475,0.01367 0.55901,0.12609 0.77234,0.31648c0.21318,0.19023 0.35694,0.45096 0.4046,0.73389c0.24264,1.4406 -0.07404,2.89907 -0.89142,4.10658l-0.93908,1.38703c-0.47849,0.70687 -1.23833,1.15332 -2.08486,1.22522c-0.00216,0.00016 -0.00432,0.00031 -0.00632,0.00047l-1.18789,0.07578c-0.46291,0.0295 -0.89636,0.25436 -1.18897,0.6168zM14.77211,7.24296l1.18465,-0.07547c0.66266,-0.0573 1.2573,-0.40716 1.63198,-0.96061l0.93908,-1.38719c0.72868,-1.07645 1.01096,-2.37652 0.7947,-3.66091c-0.02468,-0.14613 -0.09888,-0.28092 -0.20917,-0.37921c-0.11029,-0.09845 -0.25189,-0.15653 -0.39905,-0.16367c-1.29232,-0.0618 -2.54083,0.37595 -3.51509,1.2333l-1.2553,1.10487c-0.50085,0.44086 -0.77465,1.07708 -0.75167,1.74621l0.06772,1.19308c0.03579,0.63575 -0.19559,1.26296 -0.63521,1.7209l-9.80624,10.14169c-0.14592,0.15311 -0.22166,0.37254 -0.21179,0.61618c0.01157,0.28992 0.14176,0.57286 0.34815,0.75718c0.20639,0.18417 0.50101,0.28045 0.78838,0.25731c0.24156,-0.01941 0.44887,-0.12159 0.58369,-0.28744l8.8235,-11.01425c0.39967,-0.49506 0.99045,-0.8016 1.62165,-0.84197zM19.99932,18.26827c0.00929,0.46012 -0.17704,0.92372 -0.49843,1.24036c-0.31354,0.30906 -0.76967,0.49138 -1.2258,0.49138c-0.01105,0 -0.02195,-0.00016 -0.033,-0.00032c-0.42441,-0.00821 -0.8054,-0.16984 -1.07296,-0.45491l-6.08736,-6.5844c-0.11712,-0.12659 -0.10782,-0.3228 0.02067,-0.43818c0.12849,-0.11523 0.32764,-0.10623 0.44476,0.02052l6.08592,6.58282c0.14852,0.15832 0.36978,0.24908 0.62131,0.25397c0.29992,0.006 0.59888,-0.11002 0.80139,-0.30954c0.20267,-0.19968 0.32011,-0.49469 0.31418,-0.78955c-0.00497,-0.24782 -0.09709,-0.4658 -0.25955,-0.61371l-6.82803,-6.12728c-0.12849,-0.11539 -0.13778,-0.31159 -0.02083,-0.43818c0.11728,-0.12659 0.31626,-0.13575 0.44476,-0.02036l6.8298,6.1287c0.29095,0.26518 0.45485,0.64054 0.46318,1.05867zM19.03614,16.70959c-1,-1 0,0 0,0zM3.65715,8.00044l-3.48798,-4.14033c-0.24103,-0.28632 -0.22316,-0.70159 0.04165,-0.96603c0.1352,-0.13501 0.315,-0.2095 0.5063,-0.2095c0.1913,0 0.3711,0.07449 0.5063,0.2095l3.16319,3.15863c0.07459,0.07449 0.19596,0.07449 0.27055,0l0.15571,-0.15565l-3.52512,-3.52037c-0.11935,-0.11903 -0.11935,-0.31208 0,-0.4311c0.11919,-0.11903 0.31251,-0.11903 0.4317,0l3.52528,3.52022l0.22844,-0.22797l-3.52528,-3.52037c-0.11919,-0.11903 -0.11919,-0.31208 0,-0.4311c0.11919,-0.11918 0.31251,-0.11918 0.4317,0l3.52528,3.52022l0.15587,-0.1555c0.07459,-0.07449 0.07459,-0.19569 0,-0.27018l-3.16304,-3.15879c-0.27926,-0.27871 -0.27926,-0.73232 0,-1.01119c0.2648,-0.26444 0.68066,-0.28244 0.96722,-0.04159l4.14626,3.48297c0.00995,0.00838 0.01927,0.01738 0.02797,0.02685c0.46558,0.50466 0.73101,1.16032 0.74748,1.84624c0.00016,0.00217 0.00016,0.00435 0.00016,0.00652l0.00373,1.19741c0.00155,0.46664 0.19985,0.91544 0.54437,1.23108l0.56504,0.51397c0.12463,0.11344 0.13365,0.30618 0.0202,0.43079c-0.1136,0.12446 -0.30661,0.13346 -0.43139,0.02002l-0.56597,-0.51475c-0.47024,-0.4311 -0.7408,-1.04284 -0.74297,-1.6791l-0.00357,-1.1943c-0.01352,-0.53042 -0.21694,-1.03788 -0.57343,-1.43081l-4.13088,-3.47025c-0.04227,-0.03538 -0.1035,-0.03274 -0.1425,0.00621c-0.04103,0.04097 -0.04103,0.10785 0,0.14882l3.16304,3.15863c0.31267,0.31223 0.31267,0.82031 0,1.13254l-0.37156,0.37105l-0.00016,0.00016c0,0.00016 -0.00016,0.00016 -0.00016,0.00016l-0.65999,0.65907v0.00016l-0.37172,0.37105c-0.31267,0.31239 -0.82145,0.31239 -1.13412,0.00016l-3.16304,-3.15879c-0.02688,-0.02685 -0.05828,-0.03073 -0.07459,-0.03073c-0.01632,0 -0.04771,0.00388 -0.07444,0.03073c-0.03901,0.03895 -0.04165,0.10009 -0.00622,0.1423l3.47493,4.12513c0.39363,0.35584 0.90164,0.55898 1.43296,0.57248l1.19581,0.00372c0.6373,0.00217 1.24989,0.27219 1.68067,0.74116l0.52899,0.57977c0.1136,0.12446 0.10459,0.31735 -0.0202,0.43079c-0.05843,0.05323 -0.13209,0.07945 -0.20544,0.07945c-0.08298,0 -0.1655,-0.03352 -0.2258,-0.09963l-0.52821,-0.579c-0.31531,-0.34311 -0.76457,-0.54129 -1.23202,-0.54268l-1.19908,-0.00372c-0.00202,0 -0.0042,0 -0.00637,-0.00016c-0.68687,-0.01645 -1.34344,-0.28151 -1.84881,-0.74644c-0.00948,-0.00869 -0.01849,-0.018 -0.02673,-0.02793zM3.18423,7.52838c-1,-1 0,0 0,0z" style="stroke-width: 0; stroke-linecap: butt; stroke-linejoin: miter; fill: rgb(255, 255, 255);" vector-effect="non-scaling-stroke"/></g><defs><path id="path-167694423241784901" d="M13.62154,8.4688l-8.82427,11.01518c-0.24156,0.29722 -0.59834,0.47798 -1.00572,0.51074c-0.04334,0.00357 -0.08684,0.00528 -0.13034,0.00528c-0.4063,0 -0.81275,-0.15032 -1.10845,-0.41415c-0.32732,-0.2921 -0.53356,-0.73653 -0.55176,-1.18904c-0.0165,-0.41105 0.11908,-0.78917 0.38162,-1.06481l9.80701,-10.14246c0.0107,-0.01115 0.02123,-0.02243 0.03159,-0.03385c-0.01879,-0.01879 -0.0217,-0.0217 0,0c0.30111,-0.33188 0.45898,-0.77689 0.43348,-1.2277l-0.06772,-1.19618c-0.00015,-0.00217 -0.00015,-0.00435 -0.00031,-0.00637c-0.03054,-0.85486 0.31868,-1.66779 0.95837,-2.23071l1.2553,-1.10487c1.09272,-0.9617 2.49255,-1.45318 3.94283,-1.3833c0.28475,0.01367 0.55901,0.12609 0.77234,0.31648c0.21318,0.19023 0.35694,0.45096 0.4046,0.73389c0.24264,1.4406 -0.07404,2.89907 -0.89142,4.10658l-0.93908,1.38703c-0.47849,0.70687 -1.23833,1.15332 -2.08486,1.22522c-0.00216,0.00016 -0.00432,0.00031 -0.00632,0.00047l-1.18789,0.07578c-0.46291,0.0295 -0.89636,0.25436 -1.18897,0.6168zM14.77211,7.24296l1.18465,-0.07547c0.66266,-0.0573 1.2573,-0.40716 1.63198,-0.96061l0.93908,-1.38719c0.72868,-1.07645 1.01096,-2.37652 0.7947,-3.66091c-0.02468,-0.14613 -0.09888,-0.28092 -0.20917,-0.37921c-0.11029,-0.09845 -0.25189,-0.15653 -0.39905,-0.16367c-1.29232,-0.0618 -2.54083,0.37595 -3.51509,1.2333l-1.2553,1.10487c-0.50085,0.44086 -0.77465,1.07708 -0.75167,1.74621l0.06772,1.19308c0.03579,0.63575 -0.19559,1.26296 -0.63521,1.7209l-9.80624,10.14169c-0.14592,0.15311 -0.22166,0.37254 -0.21179,0.61618c0.01157,0.28992 0.14176,0.57286 0.34815,0.75718c0.20639,0.18417 0.50101,0.28045 0.78838,0.25731c0.24156,-0.01941 0.44887,-0.12159 0.58369,-0.28744l8.8235,-11.01425c0.39967,-0.49506 0.99045,-0.8016 1.62165,-0.84197zM19.99932,18.26827c0.00929,0.46012 -0.17704,0.92372 -0.49843,1.24036c-0.31354,0.30906 -0.76967,0.49138 -1.2258,0.49138c-0.01105,0 -0.02195,-0.00016 -0.033,-0.00032c-0.42441,-0.00821 -0.8054,-0.16984 -1.07296,-0.45491l-6.08736,-6.5844c-0.11712,-0.12659 -0.10782,-0.3228 0.02067,-0.43818c0.12849,-0.11523 0.32764,-0.10623 0.44476,0.02052l6.08592,6.58282c0.14852,0.15832 0.36978,0.24908 0.62131,0.25397c0.29992,0.006 0.59888,-0.11002 0.80139,-0.30954c0.20267,-0.19968 0.32011,-0.49469 0.31418,-0.78955c-0.00497,-0.24782 -0.09709,-0.4658 -0.25955,-0.61371l-6.82803,-6.12728c-0.12849,-0.11539 -0.13778,-0.31159 -0.02083,-0.43818c0.11728,-0.12659 0.31626,-0.13575 0.44476,-0.02036l6.8298,6.1287c0.29095,0.26518 0.45485,0.64054 0.46318,1.05867zM19.03614,16.70959c-1,-1 0,0 0,0zM3.65715,8.00044l-3.48798,-4.14033c-0.24103,-0.28632 -0.22316,-0.70159 0.04165,-0.96603c0.1352,-0.13501 0.315,-0.2095 0.5063,-0.2095c0.1913,0 0.3711,0.07449 0.5063,0.2095l3.16319,3.15863c0.07459,0.07449 0.19596,0.07449 0.27055,0l0.15571,-0.15565l-3.52512,-3.52037c-0.11935,-0.11903 -0.11935,-0.31208 0,-0.4311c0.11919,-0.11903 0.31251,-0.11903 0.4317,0l3.52528,3.52022l0.22844,-0.22797l-3.52528,-3.52037c-0.11919,-0.11903 -0.11919,-0.31208 0,-0.4311c0.11919,-0.11918 0.31251,-0.11918 0.4317,0l3.52528,3.52022l0.15587,-0.1555c0.07459,-0.07449 0.07459,-0.19569 0,-0.27018l-3.16304,-3.15879c-0.27926,-0.27871 -0.27926,-0.73232 0,-1.01119c0.2648,-0.26444 0.68066,-0.28244 0.96722,-0.04159l4.14626,3.48297c0.00995,0.00838 0.01927,0.01738 0.02797,0.02685c0.46558,0.50466 0.73101,1.16032 0.74748,1.84624c0.00016,0.00217 0.00016,0.00435 0.00016,0.00652l0.00373,1.19741c0.00155,0.46664 0.19985,0.91544 0.54437,1.23108l0.56504,0.51397c0.12463,0.11344 0.13365,0.30618 0.0202,0.43079c-0.1136,0.12446 -0.30661,0.13346 -0.43139,0.02002l-0.56597,-0.51475c-0.47024,-0.4311 -0.7408,-1.04284 -0.74297,-1.6791l-0.00357,-1.1943c-0.01352,-0.53042 -0.21694,-1.03788 -0.57343,-1.43081l-4.13088,-3.47025c-0.04227,-0.03538 -0.1035,-0.03274 -0.1425,0.00621c-0.04103,0.04097 -0.04103,0.10785 0,0.14882l3.16304,3.15863c0.31267,0.31223 0.31267,0.82031 0,1.13254l-0.37156,0.37105l-0.00016,0.00016c0,0.00016 -0.00016,0.00016 -0.00016,0.00016l-0.65999,0.65907v0.00016l-0.37172,0.37105c-0.31267,0.31239 -0.82145,0.31239 -1.13412,0.00016l-3.16304,-3.15879c-0.02688,-0.02685 -0.05828,-0.03073 -0.07459,-0.03073c-0.01632,0 -0.04771,0.00388 -0.07444,0.03073c-0.03901,0.03895 -0.04165,0.10009 -0.00622,0.1423l3.47493,4.12513c0.39363,0.35584 0.90164,0.55898 1.43296,0.57248l1.19581,0.00372c0.6373,0.00217 1.24989,0.27219 1.68067,0.74116l0.52899,0.57977c0.1136,0.12446 0.10459,0.31735 -0.0202,0.43079c-0.05843,0.05323 -0.13209,0.07945 -0.20544,0.07945c-0.08298,0 -0.1655,-0.03352 -0.2258,-0.09963l-0.52821,-0.579c-0.31531,-0.34311 -0.76457,-0.54129 -1.23202,-0.54268l-1.19908,-0.00372c-0.00202,0 -0.0042,0 -0.00637,-0.00016c-0.68687,-0.01645 -1.34344,-0.28151 -1.84881,-0.74644c-0.00948,-0.00869 -0.01849,-0.018 -0.02673,-0.02793zM3.18423,7.52838c-1,-1 0,0 0,0z" vector-effect="non-scaling-stroke"/></defs></g></svg>