<svg version="1.2" xmlns="http://www.w3.org/2000/svg" xmlns:xlink="http://www.w3.org/1999/xlink" overflow="visible" preserveAspectRatio="none" viewBox="0 0 20 20" width="20" height="20"><g transform="translate(0, 0)"><g transform="translate(0, 0.0006200000000000094) rotate(0)"><path d="M10.4175,0.41594v4.16656c0,0.23012 -0.1868,0.41687 -0.4175,0.41687c-0.22949,0 -0.41625,-0.18676 -0.41625,-0.41687v-4.16656c0,-0.23012 0.18676,-0.41656 0.41625,-0.41656c0.23074,0 0.4175,0.18645 0.4175,0.41656zM7.50004,5.66984c-0.19898,0.11508 -0.4541,0.04672 -0.56887,-0.15258l-2.08375,-3.6084c-0.11477,-0.19926 -0.04641,-0.4541 0.15258,-0.56914c0.2002,-0.11508 0.4541,-0.04672 0.57008,0.15258l2.08254,3.6084c0.11598,0.19926 0.04762,0.4541 -0.15258,0.56914zM5.6702,7.50004c-0.11477,0.19926 -0.36988,0.26762 -0.56887,0.15258l-3.6084,-2.08344c-0.19898,-0.11508 -0.26734,-0.36988 -0.15258,-0.56914c0.11477,-0.19926 0.36988,-0.26762 0.56887,-0.15258l3.6084,2.08344c0.19898,0.11504 0.26734,0.36988 0.15258,0.56914zM5,10c0,0.23012 -0.18555,0.41656 -0.41625,0.41656h-4.16625c-0.23074,0 -0.4175,-0.18648 -0.4175,-0.41656c0,-0.23008 0.18676,-0.41688 0.4175,-0.41688h4.16625c0.2307,0 0.41625,0.18676 0.41625,0.41688zM20,10c0,0.23012 -0.18676,0.41656 -0.41625,0.41656h-4.16625c-0.23074,0 -0.4175,-0.18645 -0.4175,-0.41656c0,-0.23008 0.18676,-0.41688 0.4175,-0.41688h4.16625c0.22949,0 0.41625,0.18676 0.41625,0.41688zM18.50832,5.56914l-3.6084,2.08312c-0.19898,0.11508 -0.4541,0.04703 -0.56887,-0.15227c-0.11598,-0.19926 -0.04762,-0.4541 0.15137,-0.56914l3.60961,-2.08344c0.19898,-0.11508 0.4541,-0.04668 0.56887,0.15258c0.11477,0.19926 0.04641,0.4541 -0.15258,0.56914zM15.15262,1.90891l-2.08254,3.6084c-0.11598,0.19926 -0.36988,0.26762 -0.57008,0.15258c-0.19898,-0.11508 -0.26734,-0.36988 -0.15258,-0.56914l2.08375,-3.6084c0.11477,-0.19926 0.36988,-0.26762 0.56887,-0.15258c0.2002,0.11504 0.26855,0.36984 0.15258,0.56914zM20,19.99938h-20c0,-4.02317 2.43179,-7.48531 5.92325,-9.02728c-0.0586,-0.27571 -0.09036,-0.56134 -0.09036,-0.85422c0,-2.27461 1.86531,-4.1185 4.1665,-4.1185c2.30119,0 4.16775,1.84389 4.16775,4.1185c0,0.29289 -0.03176,0.57852 -0.09036,0.85422c3.49142,1.54197 5.92321,5.00349 5.92321,9.02728zM6.66732,10.11787c0,0.18432 0.01586,0.36648 0.0452,0.54473c1.03034,-0.35412 2.13634,-0.54686 3.28754,-0.54686c1.15241,0 2.25846,0.19274 3.28879,0.54686c0.0293,-0.17857 0.04516,-0.36045 0.04516,-0.54473c0,-0.88017 -0.3467,-1.70756 -0.97662,-2.32982c-0.62992,-0.62226 -1.46614,-0.96492 -2.35733,-0.96492c-0.88994,0 -1.72741,0.34265 -2.35733,0.96492c-0.62871,0.62226 -0.97541,1.44965 -0.97541,2.32982zM5.01194,15.07611c0.3919,-1.01044 0.92049,-1.94311 1.56994,-2.7744c0.31494,-0.4018 0.62746,-0.74083 0.91435,-1.02074c-0.36014,0.10135 -0.71539,0.22443 -1.06331,0.37041c-1.09139,0.45609 -2.0729,1.10939 -2.914,1.94192c-0.84236,0.83191 -1.504,1.80134 -1.96547,2.88c-0.36987,0.86445 -0.59816,1.76995 -0.68239,2.70263h3.32051c0.05739,-1.46293 0.33326,-2.84259 0.82036,-4.09981zM9.56175,15.44228c0.2881,-0.99113 0.71903,-1.91172 1.27937,-2.73579c0.46147,-0.67747 0.93392,-1.17696 1.30625,-1.51722c-0.69828,-0.16529 -1.4161,-0.24976 -2.14736,-0.24976c-0.27588,0 -0.55054,0.0127 -0.82157,0.03622c-0.38209,0.23891 -1.19757,0.87654 -1.96184,1.86223c-0.59449,0.76554 -1.07792,1.62702 -1.43684,2.55846c-0.44436,1.15707 -0.69828,2.42877 -0.75321,3.77947h4.11158c-0.05493,-1.32294 0.0879,-2.57773 0.42362,-3.7336zM9.97193,19.17592h9.15829c-0.08422,-0.93264 -0.31252,-1.83813 -0.68242,-2.70263c-0.44803,-1.04789 -1.08526,-1.99199 -1.89343,-2.80819c-0.1831,0.21837 -0.43214,0.55802 -0.67387,1.03279c-0.42971,0.84581 -0.92779,2.30387 -0.85454,4.44729l-0.8338,0.02776c-0.11719,-3.44709 1.11581,-5.3341 1.75061,-6.07188c-0.71168,-0.60145 -1.50763,-1.08769 -2.3744,-1.44965c-0.15626,-0.06517 -0.31373,-0.12548 -0.47245,-0.1822c-0.3833,0.29439 -1.0169,0.88557 -1.58701,1.73258c-0.50538,0.75106 -0.89361,1.59081 -1.15362,2.4963c-0.30889,1.0726 -0.43706,2.24171 -0.38334,3.47782z" style="stroke-width: 0; stroke-linecap: butt; stroke-linejoin: miter; fill: rgb(255, 255, 255);" vector-effect="non-scaling-stroke"/></g><defs><path id="path-167694423241684895" d="M10.4175,0.41594v4.16656c0,0.23012 -0.1868,0.41687 -0.4175,0.41687c-0.22949,0 -0.41625,-0.18676 -0.41625,-0.41687v-4.16656c0,-0.23012 0.18676,-0.41656 0.41625,-0.41656c0.23074,0 0.4175,0.18645 0.4175,0.41656zM7.50004,5.66984c-0.19898,0.11508 -0.4541,0.04672 -0.56887,-0.15258l-2.08375,-3.6084c-0.11477,-0.19926 -0.04641,-0.4541 0.15258,-0.56914c0.2002,-0.11508 0.4541,-0.04672 0.57008,0.15258l2.08254,3.6084c0.11598,0.19926 0.04762,0.4541 -0.15258,0.56914zM5.6702,7.50004c-0.11477,0.19926 -0.36988,0.26762 -0.56887,0.15258l-3.6084,-2.08344c-0.19898,-0.11508 -0.26734,-0.36988 -0.15258,-0.56914c0.11477,-0.19926 0.36988,-0.26762 0.56887,-0.15258l3.6084,2.08344c0.19898,0.11504 0.26734,0.36988 0.15258,0.56914zM5,10c0,0.23012 -0.18555,0.41656 -0.41625,0.41656h-4.16625c-0.23074,0 -0.4175,-0.18648 -0.4175,-0.41656c0,-0.23008 0.18676,-0.41688 0.4175,-0.41688h4.16625c0.2307,0 0.41625,0.18676 0.41625,0.41688zM20,10c0,0.23012 -0.18676,0.41656 -0.41625,0.41656h-4.16625c-0.23074,0 -0.4175,-0.18645 -0.4175,-0.41656c0,-0.23008 0.18676,-0.41688 0.4175,-0.41688h4.16625c0.22949,0 0.41625,0.18676 0.41625,0.41688zM18.50832,5.56914l-3.6084,2.08312c-0.19898,0.11508 -0.4541,0.04703 -0.56887,-0.15227c-0.11598,-0.19926 -0.04762,-0.4541 0.15137,-0.56914l3.60961,-2.08344c0.19898,-0.11508 0.4541,-0.04668 0.56887,0.15258c0.11477,0.19926 0.04641,0.4541 -0.15258,0.56914zM15.15262,1.90891l-2.08254,3.6084c-0.11598,0.19926 -0.36988,0.26762 -0.57008,0.15258c-0.19898,-0.11508 -0.26734,-0.36988 -0.15258,-0.56914l2.08375,-3.6084c0.11477,-0.19926 0.36988,-0.26762 0.56887,-0.15258c0.2002,0.11504 0.26855,0.36984 0.15258,0.56914zM20,19.99938h-20c0,-4.02317 2.43179,-7.48531 5.92325,-9.02728c-0.0586,-0.27571 -0.09036,-0.56134 -0.09036,-0.85422c0,-2.27461 1.86531,-4.1185 4.1665,-4.1185c2.30119,0 4.16775,1.84389 4.16775,4.1185c0,0.29289 -0.03176,0.57852 -0.09036,0.85422c3.49142,1.54197 5.92321,5.00349 5.92321,9.02728zM6.66732,10.11787c0,0.18432 0.01586,0.36648 0.0452,0.54473c1.03034,-0.35412 2.13634,-0.54686 3.28754,-0.54686c1.15241,0 2.25846,0.19274 3.28879,0.54686c0.0293,-0.17857 0.04516,-0.36045 0.04516,-0.54473c0,-0.88017 -0.3467,-1.70756 -0.97662,-2.32982c-0.62992,-0.62226 -1.46614,-0.96492 -2.35733,-0.96492c-0.88994,0 -1.72741,0.34265 -2.35733,0.96492c-0.62871,0.62226 -0.97541,1.44965 -0.97541,2.32982zM5.01194,15.07611c0.3919,-1.01044 0.92049,-1.94311 1.56994,-2.7744c0.31494,-0.4018 0.62746,-0.74083 0.91435,-1.02074c-0.36014,0.10135 -0.71539,0.22443 -1.06331,0.37041c-1.09139,0.45609 -2.0729,1.10939 -2.914,1.94192c-0.84236,0.83191 -1.504,1.80134 -1.96547,2.88c-0.36987,0.86445 -0.59816,1.76995 -0.68239,2.70263h3.32051c0.05739,-1.46293 0.33326,-2.84259 0.82036,-4.09981zM9.56175,15.44228c0.2881,-0.99113 0.71903,-1.91172 1.27937,-2.73579c0.46147,-0.67747 0.93392,-1.17696 1.30625,-1.51722c-0.69828,-0.16529 -1.4161,-0.24976 -2.14736,-0.24976c-0.27588,0 -0.55054,0.0127 -0.82157,0.03622c-0.38209,0.23891 -1.19757,0.87654 -1.96184,1.86223c-0.59449,0.76554 -1.07792,1.62702 -1.43684,2.55846c-0.44436,1.15707 -0.69828,2.42877 -0.75321,3.77947h4.11158c-0.05493,-1.32294 0.0879,-2.57773 0.42362,-3.7336zM9.97193,19.17592h9.15829c-0.08422,-0.93264 -0.31252,-1.83813 -0.68242,-2.70263c-0.44803,-1.04789 -1.08526,-1.99199 -1.89343,-2.80819c-0.1831,0.21837 -0.43214,0.55802 -0.67387,1.03279c-0.42971,0.84581 -0.92779,2.30387 -0.85454,4.44729l-0.8338,0.02776c-0.11719,-3.44709 1.11581,-5.3341 1.75061,-6.07188c-0.71168,-0.60145 -1.50763,-1.08769 -2.3744,-1.44965c-0.15626,-0.06517 -0.31373,-0.12548 -0.47245,-0.1822c-0.3833,0.29439 -1.0169,0.88557 -1.58701,1.73258c-0.50538,0.75106 -0.89361,1.59081 -1.15362,2.4963c-0.30889,1.0726 -0.43706,2.24171 -0.38334,3.47782z" vector-effect="non-scaling-stroke"/></defs></g></svg>