<svg version="1.2" xmlns="http://www.w3.org/2000/svg" xmlns:xlink="http://www.w3.org/1999/xlink" overflow="visible" preserveAspectRatio="none" viewBox="0 0 14.999990000000002 14.999999999999998" width="14.999990000000002" height="14.999999999999998"><g transform="translate(0, 0)"><g transform="translate(-0.0000299999999985312, -1.887379141862766e-15) rotate(0)"><path d="M14.23782,9.35852l-0.84557,2.71337c-0.26204,0.84089 -1.11068,1.42811 -2.06486,1.42811h-0.00614l0.52126,1.04642c0.07687,0.15494 0.01438,0.34314 -0.14001,0.42094c-0.04564,0.02194 -0.09313,0.03261 -0.14001,0.03261c-0.11437,0 -0.22438,-0.06337 -0.27937,-0.17314l-0.62499,-1.25466c-0.01164,-0.02346 -0.02008,-0.04768 -0.0255,-0.07217h-6.26537c-0.00542,0.02429 -0.01382,0.04831 -0.02536,0.07158l-0.62499,1.25466c-0.05499,0.11039 -0.165,0.17376 -0.27937,0.17376c-0.04687,0 -0.09439,-0.01067 -0.14001,-0.03326c-0.15439,-0.07781 -0.21688,-0.26601 -0.14001,-0.42094l0.52095,-1.0458h-0.00605c-0.95358,0 -1.80286,-0.58722 -2.06486,-1.42811l-0.84557,-2.71337c-0.00231,-0.00737 -0.00427,-0.01477 -0.0059,-0.02216c-0.43038,-0.08507 -0.75606,-0.46677 -0.75606,-0.9233c0,-0.51881 0.42062,-0.94099 0.9375,-0.94099h12.18747v-6.27326c0,-0.31491 -0.255,-0.57086 -0.56874,-0.57086c-0.15563,0 -0.29874,0.05961 -0.40562,0.1675l-0.77085,0.77326l0.09149,0.09183c0.07374,0.07463 0.10562,0.18067 0.08502,0.28294l-0.31251,1.5683c-0.0225,0.11418 -0.10688,0.2064 -0.21812,0.23901c-0.02936,0.00879 -0.05936,0.01317 -0.08874,0.01317c-0.0825,0 -0.16436,-0.03326 -0.22374,-0.09536l-1.875,-1.93843c-0.08127,-0.08342 -0.10939,-0.20637 -0.07251,-0.31679c0.03686,-0.11042 0.13125,-0.19196 0.24624,-0.21078l1.56249,-0.25721c0.10125,-0.01694 0.20063,0.01632 0.27187,0.08784l0.09155,0.09189l0.77095,-0.77381c0.22562,-0.22648 0.52562,-0.35131 0.84437,-0.35131c0.66249,0 1.19751,0.53763 1.19748,1.1982v6.27388h0.31189c0.51688,0 0.9375,0.42218 0.9375,0.94099c0,0.45657 -0.32576,0.83831 -0.7562,0.92332c-0.00165,0.00738 -0.00364,0.01477 -0.00598,0.02213z" style="stroke-width: 0; stroke-linecap: butt; stroke-linejoin: miter; fill: rgb(153, 153, 153);" vector-effect="non-scaling-stroke"/></g><defs><path id="path-1672082378235276490" d="M14.23782,9.35852l-0.84557,2.71337c-0.26204,0.84089 -1.11068,1.42811 -2.06486,1.42811h-0.00614l0.52126,1.04642c0.07687,0.15494 0.01438,0.34314 -0.14001,0.42094c-0.04564,0.02194 -0.09313,0.03261 -0.14001,0.03261c-0.11437,0 -0.22438,-0.06337 -0.27937,-0.17314l-0.62499,-1.25466c-0.01164,-0.02346 -0.02008,-0.04768 -0.0255,-0.07217h-6.26537c-0.00542,0.02429 -0.01382,0.04831 -0.02536,0.07158l-0.62499,1.25466c-0.05499,0.11039 -0.165,0.17376 -0.27937,0.17376c-0.04687,0 -0.09439,-0.01067 -0.14001,-0.03326c-0.15439,-0.07781 -0.21688,-0.26601 -0.14001,-0.42094l0.52095,-1.0458h-0.00605c-0.95358,0 -1.80286,-0.58722 -2.06486,-1.42811l-0.84557,-2.71337c-0.00231,-0.00737 -0.00427,-0.01477 -0.0059,-0.02216c-0.43038,-0.08507 -0.75606,-0.46677 -0.75606,-0.9233c0,-0.51881 0.42062,-0.94099 0.9375,-0.94099h12.18747v-6.27326c0,-0.31491 -0.255,-0.57086 -0.56874,-0.57086c-0.15563,0 -0.29874,0.05961 -0.40562,0.1675l-0.77085,0.77326l0.09149,0.09183c0.07374,0.07463 0.10562,0.18067 0.08502,0.28294l-0.31251,1.5683c-0.0225,0.11418 -0.10688,0.2064 -0.21812,0.23901c-0.02936,0.00879 -0.05936,0.01317 -0.08874,0.01317c-0.0825,0 -0.16436,-0.03326 -0.22374,-0.09536l-1.875,-1.93843c-0.08127,-0.08342 -0.10939,-0.20637 -0.07251,-0.31679c0.03686,-0.11042 0.13125,-0.19196 0.24624,-0.21078l1.56249,-0.25721c0.10125,-0.01694 0.20063,0.01632 0.27187,0.08784l0.09155,0.09189l0.77095,-0.77381c0.22562,-0.22648 0.52562,-0.35131 0.84437,-0.35131c0.66249,0 1.19751,0.53763 1.19748,1.1982v6.27388h0.31189c0.51688,0 0.9375,0.42218 0.9375,0.94099c0,0.45657 -0.32576,0.83831 -0.7562,0.92332c-0.00165,0.00738 -0.00364,0.01477 -0.00598,0.02213z" vector-effect="non-scaling-stroke"/></defs></g></svg>