<svg version="1.2" xmlns="http://www.w3.org/2000/svg" xmlns:xlink="http://www.w3.org/1999/xlink" overflow="visible" preserveAspectRatio="none" viewBox="0 0 20.00001 20" width="20.00001" height="20"><g transform="translate(0, 0)"><g transform="translate(-1.1102230246251565e-16, 1.1102230246251565e-16) rotate(0)"><path d="M11.5,5c-0.82843,0 -1.5,-0.67157 -1.5,-1.5c0,-0.82843 0.67157,-1.5 1.5,-1.5c0.82843,0 1.5,0.67157 1.5,1.5c-0.00093,0.82804 -0.67196,1.49907 -1.5,1.5zM12.25,3.5c0,-0.41421 -0.33579,-0.75 -0.75,-0.75c-0.41421,0 -0.75,0.33579 -0.75,0.75c0,0.41421 0.33579,0.75 0.75,0.75c0.41401,-0.00049 0.74951,-0.33599 0.75,-0.75zM11.33333,1.33333c-0.18409,0 -0.33333,-0.14924 -0.33333,-0.33333v-0.66667c0,-0.18409 0.14924,-0.33333 0.33333,-0.33333c0.18409,0 0.33333,0.14924 0.33333,0.33333v0.66667c0,0.18409 -0.14924,0.33333 -0.33333,0.33333zM11.33333,5.33333c0.18409,0 0.33333,0.14924 0.33333,0.33333v0.66667c0,0.18409 -0.14924,0.33333 -0.33333,0.33333c-0.18409,0 -0.33333,-0.14924 -0.33333,-0.33333v-0.66667c0,-0.18409 0.14924,-0.33333 0.33333,-0.33333zM12.67543,1.81096c-0.05161,-0.12451 -0.02315,-0.26785 0.07211,-0.36321l0.47146,-0.4715c0.13038,-0.12884 0.34034,-0.12824 0.46997,0.00136c0.12963,0.1296 0.1303,0.33955 0.00149,0.46997l-0.47142,0.47146c-0.06245,0.06261 -0.14728,0.09775 -0.23571,0.09763c-0.13478,-0.00001 -0.2563,-0.08119 -0.3079,-0.20571zM8.90407,5.58224c-0.05159,-0.12454 -0.02309,-0.2679 0.07222,-0.36324l0.47142,-0.47146c0.08403,-0.08506 0.20719,-0.1186 0.32275,-0.0879c0.11556,0.03071 0.20582,0.12096 0.23654,0.23652c0.03072,0.11556 -0.00281,0.23872 -0.08787,0.32275l-0.47137,0.47142c-0.06245,0.06264 -0.1473,0.09779 -0.23575,0.09767c-0.13481,-0.00001 -0.25633,-0.08122 -0.30793,-0.20576zM14.33333,3.66667h-0.66667c-0.18409,0 -0.33333,-0.14924 -0.33333,-0.33333c0,-0.18409 0.14924,-0.33333 0.33333,-0.33333h0.66667c0.18409,0 0.33333,0.14924 0.33333,0.33333c0,0.18409 -0.14924,0.33333 -0.33333,0.33333zM8.33333,3h0.66667c0.18409,0 0.33333,0.14924 0.33333,0.33333c0,0.18409 -0.14924,0.33333 -0.33333,0.33333h-0.66667c-0.18409,0 -0.33333,-0.14924 -0.33333,-0.33333c0,-0.18409 0.14924,-0.33333 0.33333,-0.33333zM12.74754,5.21892c-0.08506,-0.08404 -0.11859,-0.2072 -0.08787,-0.32275c0.03072,-0.11556 0.12098,-0.20581 0.23654,-0.23652c0.11556,-0.03071 0.23872,0.00283 0.32275,0.0879l0.47142,0.47146c0.12881,0.13042 0.12815,0.34037 -0.00149,0.46997c-0.12963,0.1296 -0.33959,0.13021 -0.46997,0.00136zM9.44771,1.91913l-0.47142,-0.47146c-0.12881,-0.13042 -0.12815,-0.34037 0.00149,-0.46997c0.12963,-0.1296 0.33959,-0.13021 0.46997,-0.00136l0.47129,0.47133c0.09531,0.09534 0.12381,0.23869 0.07222,0.36324c-0.05159,0.12454 -0.17312,0.20575 -0.30793,0.20576c-0.08839,0.00012 -0.17318,-0.03498 -0.23562,-0.09754zM20,9v10c-0.00064,0.55202 -0.44798,0.99936 -1,1h-18.66667c-0.18409,0 -0.33333,-0.14924 -0.33333,-0.33333v-15.33333c0.00011,-0.0795 0.02863,-0.15635 0.08042,-0.21667l2,-2.33333c0.06322,-0.07396 0.15562,-0.11658 0.25292,-0.11667h3.33333c0.10766,0.00001 0.20869,0.05201 0.27125,0.13962l1.66667,2.33333c0.04037,0.05652 0.06208,0.12425 0.06208,0.19371v3.82196c0.55683,0.10867 1.08471,0.23475 1.58362,0.37825c1.10754,0.3185 2.63621,0.8935 3.75467,1.8435c0.10883,-0.00639 0.21829,-0.01214 0.32838,-0.01725v-1.35979c0,-2.10321 1.47046,-3.2 2,-3.52662v-2.80671c-0.18409,0 -0.33333,-0.14924 -0.33333,-0.33333v-2c0,-0.18409 0.14924,-0.33333 0.33333,-0.33333h2.66667c0.18409,0 0.33333,0.14924 0.33333,0.33333v2c0,0.18409 -0.14924,0.33333 -0.33333,0.33333v2.80671c0.52954,0.32663 2,1.42342 2,3.52662zM15.66667,2c0.18409,0 0.33333,0.14924 0.33333,0.33333v1.66667h1.33333v-1.66667c0,-0.18409 0.14924,-0.33333 0.33333,-0.33333v-1.33333h-2zM17.33333,4.66667h-1.33333v0.66667h1.33333zM19.33333,11.66667h-5.33333v4h5.33333zM4.80729,8.43758c-0.55542,1.15496 -1.39729,3.14662 -1.84221,5.39037c0.70826,-0.62608 1.49301,-1.15987 2.3355,-1.58862c0.18164,-1.24059 0.46779,-2.46361 0.85542,-3.656c-0.42439,-0.057 -0.87396,-0.10558 -1.34871,-0.14575zM8.29554,11.09937c-0.03033,-0.75742 -0.07871,-1.482 -0.14429,-2.16075c-0.40922,-0.09444 -0.85097,-0.17997 -1.32525,-0.25658c-0.34846,1.04655 -0.61395,2.11892 -0.794,3.20717c0.73346,-0.32013 1.49014,-0.58416 2.26354,-0.78983zM5.037,13.14542c-0.26688,1.14438 -0.67196,3.3365 -0.70175,6.18792h1.33296c0.02775,-3.09867 0.43629,-5.54908 0.71458,-6.8695c-0.09592,0.0415 -0.19108,0.08358 -0.28479,0.12683c-0.37067,0.17175 -0.72433,0.35667 -1.061,0.55475zM7.13125,12.16538c-0.26088,1.1285 -0.76517,3.74062 -0.79638,7.16796h4.66192c-0.06837,-3.67012 -1.24812,-6.50054 -1.87563,-7.75346c-0.67477,0.15376 -1.33933,0.3493 -1.98983,0.5855zM9.79392,11.43704c0.66733,1.37283 1.80354,4.23408 1.86954,7.89629h1.72721c-0.03799,-0.10703 -0.05738,-0.21977 -0.05733,-0.33333v-2.19971c-0.55454,-2.47529 -1.67387,-4.56204 -2.22033,-5.57704c-0.45292,0.05969 -0.89264,0.13096 -1.31917,0.21379zM13.33333,11.02708c-0.51667,0.02475 -1.01944,0.06225 -1.50833,0.1125c0.39875,0.74621 0.99671,1.90571 1.50833,3.3125zM11.99525,10.45304c-0.45822,-0.29836 -0.94315,-0.55354 -1.44854,-0.76225c0.08475,0.29625 0.15771,0.59946 0.21917,0.90746c0.40008,-0.05747 0.80988,-0.10588 1.22938,-0.14521zM9.75383,9.38979c-0.28339,-0.09756 -0.58912,-0.19086 -0.91721,-0.27992c0.05196,0.58029 0.092,1.19063 0.11938,1.82429c0.37328,-0.08656 0.75683,-0.16389 1.15067,-0.232c-0.0893,-0.44454 -0.20716,-0.88287 -0.35283,-1.31225zM7,8.03562v-3.36896h-2.33333v3.09092c0.82222,0.06469 1.6,0.15738 2.33333,0.27804zM3.05808,2.33333l1.42854,1.66667h2.199l-1.1905,-1.66667zM0.66667,4.45663v3.20158c0.22453,-0.00486 0.44675,-0.00814 0.66667,-0.00983v-1.98171c0,-0.18409 0.14924,-0.33333 0.33333,-0.33333h1.33333c0.18409,0 0.33333,0.14924 0.33333,0.33333v2.01275c0.225,0.00903 0.44722,0.01996 0.66667,0.03279v-3.25558l-1.66667,-1.94442zM2.66667,6h-0.66667v1.64821c0.22475,0.00167 0.44697,0.00504 0.66667,0.01012zM0.66667,16.95675c0.28376,-0.64139 0.64233,-1.24699 1.06825,-1.80421c0.13208,-0.17258 0.27035,-0.34094 0.41479,-0.50508c0.36113,-2.54437 1.29588,-4.87537 1.94446,-6.26192c-1.02792,-0.06412 -2.16608,-0.08833 -3.4275,-0.06054zM0.69121,19.33333h2.97729c0.01435,-1.90496 0.20678,-3.80441 0.57479,-5.67354c-0.75088,0.52943 -1.41776,1.1689 -1.97821,1.89692c-1.20054,1.57483 -1.4995,3.1175 -1.57388,3.77662zM19.33333,19v-2.66667h-5.33333v2.66667c0.00021,0.18401 0.14932,0.33313 0.33333,0.33333h4.66667c0.18401,-0.00021 0.33313,-0.14932 0.33333,-0.33333zM19.33333,9c0,-1.88862 -1.42217,-2.81162 -1.75133,-3h-1.83075c-0.32779,0.1875 -1.75125,1.11042 -1.75125,3v2h5.33333zM16.31762,6.8025c0.10908,0.14831 0.07727,0.35697 -0.07104,0.46604c-0.34108,0.25083 -0.91325,0.80929 -0.91325,1.73146v1c0,0.18409 -0.14924,0.33333 -0.33333,0.33333c-0.18409,0 -0.33333,-0.14924 -0.33333,-0.33333v-1c0,-1.21563 0.74242,-1.94308 1.18492,-2.26854c0.14831,-0.10908 0.35697,-0.07727 0.46604,0.07104z" style="stroke-width: 0; stroke-linecap: butt; stroke-linejoin: miter; fill: rgb(255, 255, 255);" vector-effect="non-scaling-stroke"/></g><defs><path id="path-167694423241884907" d="M11.5,5c-0.82843,0 -1.5,-0.67157 -1.5,-1.5c0,-0.82843 0.67157,-1.5 1.5,-1.5c0.82843,0 1.5,0.67157 1.5,1.5c-0.00093,0.82804 -0.67196,1.49907 -1.5,1.5zM12.25,3.5c0,-0.41421 -0.33579,-0.75 -0.75,-0.75c-0.41421,0 -0.75,0.33579 -0.75,0.75c0,0.41421 0.33579,0.75 0.75,0.75c0.41401,-0.00049 0.74951,-0.33599 0.75,-0.75zM11.33333,1.33333c-0.18409,0 -0.33333,-0.14924 -0.33333,-0.33333v-0.66667c0,-0.18409 0.14924,-0.33333 0.33333,-0.33333c0.18409,0 0.33333,0.14924 0.33333,0.33333v0.66667c0,0.18409 -0.14924,0.33333 -0.33333,0.33333zM11.33333,5.33333c0.18409,0 0.33333,0.14924 0.33333,0.33333v0.66667c0,0.18409 -0.14924,0.33333 -0.33333,0.33333c-0.18409,0 -0.33333,-0.14924 -0.33333,-0.33333v-0.66667c0,-0.18409 0.14924,-0.33333 0.33333,-0.33333zM12.67543,1.81096c-0.05161,-0.12451 -0.02315,-0.26785 0.07211,-0.36321l0.47146,-0.4715c0.13038,-0.12884 0.34034,-0.12824 0.46997,0.00136c0.12963,0.1296 0.1303,0.33955 0.00149,0.46997l-0.47142,0.47146c-0.06245,0.06261 -0.14728,0.09775 -0.23571,0.09763c-0.13478,-0.00001 -0.2563,-0.08119 -0.3079,-0.20571zM8.90407,5.58224c-0.05159,-0.12454 -0.02309,-0.2679 0.07222,-0.36324l0.47142,-0.47146c0.08403,-0.08506 0.20719,-0.1186 0.32275,-0.0879c0.11556,0.03071 0.20582,0.12096 0.23654,0.23652c0.03072,0.11556 -0.00281,0.23872 -0.08787,0.32275l-0.47137,0.47142c-0.06245,0.06264 -0.1473,0.09779 -0.23575,0.09767c-0.13481,-0.00001 -0.25633,-0.08122 -0.30793,-0.20576zM14.33333,3.66667h-0.66667c-0.18409,0 -0.33333,-0.14924 -0.33333,-0.33333c0,-0.18409 0.14924,-0.33333 0.33333,-0.33333h0.66667c0.18409,0 0.33333,0.14924 0.33333,0.33333c0,0.18409 -0.14924,0.33333 -0.33333,0.33333zM8.33333,3h0.66667c0.18409,0 0.33333,0.14924 0.33333,0.33333c0,0.18409 -0.14924,0.33333 -0.33333,0.33333h-0.66667c-0.18409,0 -0.33333,-0.14924 -0.33333,-0.33333c0,-0.18409 0.14924,-0.33333 0.33333,-0.33333zM12.74754,5.21892c-0.08506,-0.08404 -0.11859,-0.2072 -0.08787,-0.32275c0.03072,-0.11556 0.12098,-0.20581 0.23654,-0.23652c0.11556,-0.03071 0.23872,0.00283 0.32275,0.0879l0.47142,0.47146c0.12881,0.13042 0.12815,0.34037 -0.00149,0.46997c-0.12963,0.1296 -0.33959,0.13021 -0.46997,0.00136zM9.44771,1.91913l-0.47142,-0.47146c-0.12881,-0.13042 -0.12815,-0.34037 0.00149,-0.46997c0.12963,-0.1296 0.33959,-0.13021 0.46997,-0.00136l0.47129,0.47133c0.09531,0.09534 0.12381,0.23869 0.07222,0.36324c-0.05159,0.12454 -0.17312,0.20575 -0.30793,0.20576c-0.08839,0.00012 -0.17318,-0.03498 -0.23562,-0.09754zM20,9v10c-0.00064,0.55202 -0.44798,0.99936 -1,1h-18.66667c-0.18409,0 -0.33333,-0.14924 -0.33333,-0.33333v-15.33333c0.00011,-0.0795 0.02863,-0.15635 0.08042,-0.21667l2,-2.33333c0.06322,-0.07396 0.15562,-0.11658 0.25292,-0.11667h3.33333c0.10766,0.00001 0.20869,0.05201 0.27125,0.13962l1.66667,2.33333c0.04037,0.05652 0.06208,0.12425 0.06208,0.19371v3.82196c0.55683,0.10867 1.08471,0.23475 1.58362,0.37825c1.10754,0.3185 2.63621,0.8935 3.75467,1.8435c0.10883,-0.00639 0.21829,-0.01214 0.32838,-0.01725v-1.35979c0,-2.10321 1.47046,-3.2 2,-3.52662v-2.80671c-0.18409,0 -0.33333,-0.14924 -0.33333,-0.33333v-2c0,-0.18409 0.14924,-0.33333 0.33333,-0.33333h2.66667c0.18409,0 0.33333,0.14924 0.33333,0.33333v2c0,0.18409 -0.14924,0.33333 -0.33333,0.33333v2.80671c0.52954,0.32663 2,1.42342 2,3.52662zM15.66667,2c0.18409,0 0.33333,0.14924 0.33333,0.33333v1.66667h1.33333v-1.66667c0,-0.18409 0.14924,-0.33333 0.33333,-0.33333v-1.33333h-2zM17.33333,4.66667h-1.33333v0.66667h1.33333zM19.33333,11.66667h-5.33333v4h5.33333zM4.80729,8.43758c-0.55542,1.15496 -1.39729,3.14662 -1.84221,5.39037c0.70826,-0.62608 1.49301,-1.15987 2.3355,-1.58862c0.18164,-1.24059 0.46779,-2.46361 0.85542,-3.656c-0.42439,-0.057 -0.87396,-0.10558 -1.34871,-0.14575zM8.29554,11.09937c-0.03033,-0.75742 -0.07871,-1.482 -0.14429,-2.16075c-0.40922,-0.09444 -0.85097,-0.17997 -1.32525,-0.25658c-0.34846,1.04655 -0.61395,2.11892 -0.794,3.20717c0.73346,-0.32013 1.49014,-0.58416 2.26354,-0.78983zM5.037,13.14542c-0.26688,1.14438 -0.67196,3.3365 -0.70175,6.18792h1.33296c0.02775,-3.09867 0.43629,-5.54908 0.71458,-6.8695c-0.09592,0.0415 -0.19108,0.08358 -0.28479,0.12683c-0.37067,0.17175 -0.72433,0.35667 -1.061,0.55475zM7.13125,12.16538c-0.26088,1.1285 -0.76517,3.74062 -0.79638,7.16796h4.66192c-0.06837,-3.67012 -1.24812,-6.50054 -1.87563,-7.75346c-0.67477,0.15376 -1.33933,0.3493 -1.98983,0.5855zM9.79392,11.43704c0.66733,1.37283 1.80354,4.23408 1.86954,7.89629h1.72721c-0.03799,-0.10703 -0.05738,-0.21977 -0.05733,-0.33333v-2.19971c-0.55454,-2.47529 -1.67387,-4.56204 -2.22033,-5.57704c-0.45292,0.05969 -0.89264,0.13096 -1.31917,0.21379zM13.33333,11.02708c-0.51667,0.02475 -1.01944,0.06225 -1.50833,0.1125c0.39875,0.74621 0.99671,1.90571 1.50833,3.3125zM11.99525,10.45304c-0.45822,-0.29836 -0.94315,-0.55354 -1.44854,-0.76225c0.08475,0.29625 0.15771,0.59946 0.21917,0.90746c0.40008,-0.05747 0.80988,-0.10588 1.22938,-0.14521zM9.75383,9.38979c-0.28339,-0.09756 -0.58912,-0.19086 -0.91721,-0.27992c0.05196,0.58029 0.092,1.19063 0.11938,1.82429c0.37328,-0.08656 0.75683,-0.16389 1.15067,-0.232c-0.0893,-0.44454 -0.20716,-0.88287 -0.35283,-1.31225zM7,8.03562v-3.36896h-2.33333v3.09092c0.82222,0.06469 1.6,0.15738 2.33333,0.27804zM3.05808,2.33333l1.42854,1.66667h2.199l-1.1905,-1.66667zM0.66667,4.45663v3.20158c0.22453,-0.00486 0.44675,-0.00814 0.66667,-0.00983v-1.98171c0,-0.18409 0.14924,-0.33333 0.33333,-0.33333h1.33333c0.18409,0 0.33333,0.14924 0.33333,0.33333v2.01275c0.225,0.00903 0.44722,0.01996 0.66667,0.03279v-3.25558l-1.66667,-1.94442zM2.66667,6h-0.66667v1.64821c0.22475,0.00167 0.44697,0.00504 0.66667,0.01012zM0.66667,16.95675c0.28376,-0.64139 0.64233,-1.24699 1.06825,-1.80421c0.13208,-0.17258 0.27035,-0.34094 0.41479,-0.50508c0.36113,-2.54437 1.29588,-4.87537 1.94446,-6.26192c-1.02792,-0.06412 -2.16608,-0.08833 -3.4275,-0.06054zM0.69121,19.33333h2.97729c0.01435,-1.90496 0.20678,-3.80441 0.57479,-5.67354c-0.75088,0.52943 -1.41776,1.1689 -1.97821,1.89692c-1.20054,1.57483 -1.4995,3.1175 -1.57388,3.77662zM19.33333,19v-2.66667h-5.33333v2.66667c0.00021,0.18401 0.14932,0.33313 0.33333,0.33333h4.66667c0.18401,-0.00021 0.33313,-0.14932 0.33333,-0.33333zM19.33333,9c0,-1.88862 -1.42217,-2.81162 -1.75133,-3h-1.83075c-0.32779,0.1875 -1.75125,1.11042 -1.75125,3v2h5.33333zM16.31762,6.8025c0.10908,0.14831 0.07727,0.35697 -0.07104,0.46604c-0.34108,0.25083 -0.91325,0.80929 -0.91325,1.73146v1c0,0.18409 -0.14924,0.33333 -0.33333,0.33333c-0.18409,0 -0.33333,-0.14924 -0.33333,-0.33333v-1c0,-1.21563 0.74242,-1.94308 1.18492,-2.26854c0.14831,-0.10908 0.35697,-0.07727 0.46604,0.07104z" vector-effect="non-scaling-stroke"/></defs></g></svg>