<svg version="1.2" xmlns="http://www.w3.org/2000/svg" xmlns:xlink="http://www.w3.org/1999/xlink" overflow="visible" preserveAspectRatio="none" viewBox="0 0 24 24" width="59" height="59"><g><path xmlns:default="http://www.w3.org/2000/svg" id="arrow-up" d="M20.1,12.45c0-0.36-0.14-0.7-0.39-0.95l-6.77-6.78c-0.25-0.25-0.59-0.39-0.95-0.38  c-0.35-0.01-0.7,0.13-0.94,0.39L4.28,11.5c-0.52,0.51-0.53,1.35-0.01,1.87c0,0,0.01,0.01,0.01,0.01l0.78,0.78  c0.51,0.52,1.34,0.52,1.85,0.02c0.01-0.01,0.01-0.01,0.02-0.02l3.06-3.04v7.33c-0.01,0.34,0.13,0.66,0.39,0.88  c0.26,0.23,0.6,0.35,0.94,0.34h1.33c0.34,0.01,0.68-0.11,0.94-0.34c0.26-0.22,0.41-0.55,0.4-0.89v-7.32l3.06,3.05  c0.24,0.26,0.58,0.41,0.94,0.4c0.36,0,0.7-0.14,0.95-0.4l0.78-0.78c0.25-0.25,0.39-0.59,0.39-0.94l0,0L20.1,12.45z" style="fill: rgb(223, 22, 131);" vector-effect="non-scaling-stroke"/></g></svg>