<svg version="1.2" xmlns="http://www.w3.org/2000/svg" xmlns:xlink="http://www.w3.org/1999/xlink" overflow="visible" preserveAspectRatio="none" viewBox="0 0 43.00000223230456 40.999991525998716" width="43.00000223230456" height="40.999991525998716"><g transform="translate(0, 0)"><g transform="translate(0.00001066267758575816, -0.000016819088906883106) rotate(0)"><path style="stroke-width: 0; stroke-linecap: butt; stroke-linejoin: miter; fill: rgb(138, 138, 138);" d="M34.88085,19.12398c0.18079,0.17277 0.25445,0.42891 0.19304,0.67082c-0.06141,0.24191 -0.24841,0.43241 -0.48987,0.49887c-0.24147,0.06646 -0.50016,-0.00122 -0.67761,-0.17741l-1.01763,-0.99204c-0.27078,-0.26883 -0.27356,-0.70474 -0.00621,-0.97699c0.26735,-0.27225 0.70496,-0.27908 0.98072,-0.01537zM29.79292,24.08412c0.18071,0.17277 0.25445,0.42891 0.19304,0.67082c-0.06141,0.24191 -0.24841,0.43241 -0.48987,0.49887c-0.24147,0.06646 -0.50016,-0.00122 -0.67761,-0.17741l-1.01772,-0.99204c-0.27078,-0.26883 -0.27356,-0.70474 -0.00621,-0.97699c0.26735,-0.27225 0.70496,-0.27908 0.98072,-0.01537zM30.3015,19.62017c0.18079,0.17277 0.25445,0.42891 0.19304,0.67082c-0.06141,0.24191 -0.24841,0.43241 -0.48987,0.49887c-0.24147,0.06646 -0.50016,-0.00122 -0.67761,-0.17741l-1.01763,-0.99204c-0.27078,-0.26883 -0.27356,-0.70474 -0.00621,-0.97699c0.26735,-0.27225 0.70496,-0.27908 0.98072,-0.01537zM25.7223,28.05229c0.18071,0.17277 0.25445,0.42891 0.19304,0.67082c-0.06141,0.24191 -0.24841,0.43241 -0.48987,0.49887c-0.24147,0.06646 -0.50016,-0.00122 -0.67761,-0.17741l-1.01772,-0.99204c-0.27094,-0.26875 -0.27388,-0.70483 -0.00645,-0.97716c0.26735,-0.27233 0.70513,-0.27908 0.98089,-0.01521zM20.63429,33.01267c0.17875,0.17334 0.25086,0.42859 0.18904,0.66936c-0.06182,0.24077 -0.24816,0.43022 -0.48848,0.49675c-0.24032,0.06654 -0.49804,0 -0.67573,-0.1744l-1.01739,-0.99204c-0.17875,-0.17334 -0.25086,-0.42859 -0.18904,-0.66936c0.06182,-0.24077 0.24816,-0.43022 0.48848,-0.49675c0.24032,-0.06654 0.49804,0 0.67573,0.1744zM21.14287,28.54815c0.18071,0.17277 0.25445,0.42891 0.19304,0.67082c-0.06141,0.24191 -0.24841,0.43241 -0.48987,0.49887c-0.24147,0.06646 -0.50016,-0.00122 -0.67761,-0.17741l-1.01772,-0.99204c-0.27078,-0.26883 -0.27356,-0.70474 -0.00621,-0.97699c0.26735,-0.27225 0.70496,-0.27908 0.98072,-0.01537zM42.99994,14.60764c-0.00991,0.95544 -0.41408,1.86728 -1.12239,2.53241l-2.38025,2.25552l-22.12409,20.96793c-0.23249,0.22361 -0.51395,0.39361 -0.82346,0.49757c-0.23887,0.09249 -0.49379,0.13966 -0.75106,0.13893c-0.3085,0.00033 -0.61331,-0.06556 -0.89242,-0.19286c-1.23468,-0.56663 -3.63341,-2.12058 -8.04997,-6.30666c-4.41832,-4.18739 -6.05893,-6.46227 -6.65704,-7.63359c-0.19553,-0.39052 -0.24912,-0.83359 -0.15211,-1.2573c0.00084,-0.0074 0.00269,-0.0144 0.00378,-0.0218c0.00571,-0.0253 0.00647,-0.05076 0.01319,-0.07589c0.09869,-0.38889 0.30875,-0.74289 0.60617,-1.02116l21.8869,-20.74302l0.00008,-0.00016l2.61669,-2.47994c1.65019,-1.62797 4.33575,-1.69662 6.07229,-0.1552c0.3033,0.28746 0.55695,0.62023 0.75106,0.98562c1.57871,-0.47495 3.29929,-0.0872 4.4992,1.01409c0.67874,0.64 1.11533,1.48261 1.23955,2.3921c0.91854,0.08492 1.77946,0.47146 2.43997,1.09543c0.7645,0.72508 1.19227,1.71981 1.1853,2.7561c-0.0047,0.77234 -0.22829,1.52865 -0.6464,2.18638c0.48522,0.15536 0.92752,0.41582 1.29314,0.7616c0.63943,0.60608 0.99732,1.43755 0.99186,2.30392zM1.72986,25.42884l6.31041,3.53023c0.69453,0.41053 1.42199,0.7664 2.17539,1.06411c-0.89468,-5.29941 0.98388,-10.68349 5.01433,-14.3712c2.65549,-2.52021 6.04634,-4.18958 9.71368,-4.78224c1.8086,-0.28006 3.65323,-0.25891 5.45444,0.06239c-0.07215,-0.17627 -0.14161,-0.3531 -0.22207,-0.52709c-0.22543,-0.47894 -0.48144,-0.94389 -0.76676,-1.39192l-3.8759,-6.14365zM32.23938,10.44368v0.00008c0.48169,-0.45722 0.75307,-1.0829 0.75307,-1.73607c0,-0.65317 -0.27155,-1.27885 -0.75341,-1.73591c-0.74341,-0.68498 -1.82515,-0.89948 -2.78669,-0.55247l1.17858,1.86785c0.3169,0.49773 0.6013,1.01425 0.85151,1.54647c0.13842,0.29942 0.26852,0.59989 0.37872,0.90061c0.13514,-0.08525 0.26172,-0.18245 0.37822,-0.29055zM14.85958,39.20527l-2.86194,-4.60483c-0.57997,-0.94055 -1.04058,-1.94545 -1.37176,-2.99288l-0.00781,0.00122c-0.08063,-0.00016 -0.16059,-0.01342 -0.23661,-0.03929c-1.07258,-0.36661 -2.10232,-0.84148 -3.07235,-1.41673l-5.21683,-2.91838c1.71083,2.2648 3.64181,4.36561 5.76631,6.27372c3.6634,3.47199 5.82283,5.01374 7.00099,5.69717zM40.0629,16.91741l-5.59706,-3.12401c-1.1265,-0.62641 -2.34271,-1.08762 -3.60889,-1.36857c-1.86479,-0.4233 -3.79745,-0.48577 -5.68727,-0.18408c-3.37463,0.54653 -6.49443,2.08381 -8.93743,4.40367c-4.00852,3.7989 -5.69962,9.15663 -4.41277,13.98222c0.3043,1.14594 0.77802,2.24332 1.40653,3.25806l3.31164,5.32837l21.72001,-20.58489l0.00008,-0.00016zM33.24208,11.43621c-0.06887,0.06507 -0.14522,0.11933 -0.21796,0.17911c0.74568,0.26656 1.46726,0.59274 2.15708,0.97521l0.648,0.36164c0.6847,-0.82708 0.60281,-2.02378 -0.18848,-2.75618c-0.35823,-0.33993 -0.82346,-0.55426 -1.32178,-0.60884c-0.17025,0.70287 -0.54376,1.34425 -1.07686,1.84906zM41.56636,14.6078c0.00437,-0.49285 -0.19805,-0.96634 -0.56098,-1.31196c-0.43466,-0.40101 -1.03117,-0.59371 -1.62735,-0.52563c-0.32371,0.03319 -0.62986,-0.14918 -0.74543,-0.44388c-0.11557,-0.2947 -0.01151,-0.62788 0.2534,-0.81114c0.04418,-0.03359 0.08559,-0.07044 0.12389,-0.11014c0.57627,-0.5371 0.90678,-1.27503 0.91795,-2.04948c0.0058,-0.66261 -0.26634,-1.29911 -0.75416,-1.76373c-0.55468,-0.51465 -1.30994,-0.77543 -2.0757,-0.71678c-0.20032,0.01106 -0.39627,-0.0597 -0.54024,-0.19514c-0.14396,-0.13543 -0.22275,-0.32309 -0.21712,-0.51733c0.02982,-0.77096 -0.27776,-1.5184 -0.84689,-2.05827c-0.97464,-0.87239 -2.40612,-1.0672 -3.59133,-0.4887c-0.19049,0.08769 -0.41106,0.0898 -0.60323,0.00569c-0.19209,-0.08403 -0.3363,-0.24581 -0.39417,-0.44217c-0.11902,-0.40834 -0.34714,-0.77909 -0.66144,-1.07469c-1.01143,-0.88882 -2.5285,-0.96691 -3.63156,-0.187l2.0788,3.29482c1.53504,-0.67928 3.3433,-0.37433 4.55086,0.76746c0.6275,0.59485 1.03134,1.37598 1.14716,2.21892c0.84908,0.07191 1.64599,0.42713 2.25451,1.00498c1.25476,1.17734 1.44231,3.06235 0.44272,4.45004l4.01171,2.23909c0.29876,-0.3662 0.46355,-0.81805 0.46859,-1.28495z" vector-effect="non-scaling-stroke"/></g><defs><path id="path-1676997149824407" d="M34.88085,19.12398c0.18079,0.17277 0.25445,0.42891 0.19304,0.67082c-0.06141,0.24191 -0.24841,0.43241 -0.48987,0.49887c-0.24147,0.06646 -0.50016,-0.00122 -0.67761,-0.17741l-1.01763,-0.99204c-0.27078,-0.26883 -0.27356,-0.70474 -0.00621,-0.97699c0.26735,-0.27225 0.70496,-0.27908 0.98072,-0.01537zM29.79292,24.08412c0.18071,0.17277 0.25445,0.42891 0.19304,0.67082c-0.06141,0.24191 -0.24841,0.43241 -0.48987,0.49887c-0.24147,0.06646 -0.50016,-0.00122 -0.67761,-0.17741l-1.01772,-0.99204c-0.27078,-0.26883 -0.27356,-0.70474 -0.00621,-0.97699c0.26735,-0.27225 0.70496,-0.27908 0.98072,-0.01537zM30.3015,19.62017c0.18079,0.17277 0.25445,0.42891 0.19304,0.67082c-0.06141,0.24191 -0.24841,0.43241 -0.48987,0.49887c-0.24147,0.06646 -0.50016,-0.00122 -0.67761,-0.17741l-1.01763,-0.99204c-0.27078,-0.26883 -0.27356,-0.70474 -0.00621,-0.97699c0.26735,-0.27225 0.70496,-0.27908 0.98072,-0.01537zM25.7223,28.05229c0.18071,0.17277 0.25445,0.42891 0.19304,0.67082c-0.06141,0.24191 -0.24841,0.43241 -0.48987,0.49887c-0.24147,0.06646 -0.50016,-0.00122 -0.67761,-0.17741l-1.01772,-0.99204c-0.27094,-0.26875 -0.27388,-0.70483 -0.00645,-0.97716c0.26735,-0.27233 0.70513,-0.27908 0.98089,-0.01521zM20.63429,33.01267c0.17875,0.17334 0.25086,0.42859 0.18904,0.66936c-0.06182,0.24077 -0.24816,0.43022 -0.48848,0.49675c-0.24032,0.06654 -0.49804,0 -0.67573,-0.1744l-1.01739,-0.99204c-0.17875,-0.17334 -0.25086,-0.42859 -0.18904,-0.66936c0.06182,-0.24077 0.24816,-0.43022 0.48848,-0.49675c0.24032,-0.06654 0.49804,0 0.67573,0.1744zM21.14287,28.54815c0.18071,0.17277 0.25445,0.42891 0.19304,0.67082c-0.06141,0.24191 -0.24841,0.43241 -0.48987,0.49887c-0.24147,0.06646 -0.50016,-0.00122 -0.67761,-0.17741l-1.01772,-0.99204c-0.27078,-0.26883 -0.27356,-0.70474 -0.00621,-0.97699c0.26735,-0.27225 0.70496,-0.27908 0.98072,-0.01537zM42.99994,14.60764c-0.00991,0.95544 -0.41408,1.86728 -1.12239,2.53241l-2.38025,2.25552l-22.12409,20.96793c-0.23249,0.22361 -0.51395,0.39361 -0.82346,0.49757c-0.23887,0.09249 -0.49379,0.13966 -0.75106,0.13893c-0.3085,0.00033 -0.61331,-0.06556 -0.89242,-0.19286c-1.23468,-0.56663 -3.63341,-2.12058 -8.04997,-6.30666c-4.41832,-4.18739 -6.05893,-6.46227 -6.65704,-7.63359c-0.19553,-0.39052 -0.24912,-0.83359 -0.15211,-1.2573c0.00084,-0.0074 0.00269,-0.0144 0.00378,-0.0218c0.00571,-0.0253 0.00647,-0.05076 0.01319,-0.07589c0.09869,-0.38889 0.30875,-0.74289 0.60617,-1.02116l21.8869,-20.74302l0.00008,-0.00016l2.61669,-2.47994c1.65019,-1.62797 4.33575,-1.69662 6.07229,-0.1552c0.3033,0.28746 0.55695,0.62023 0.75106,0.98562c1.57871,-0.47495 3.29929,-0.0872 4.4992,1.01409c0.67874,0.64 1.11533,1.48261 1.23955,2.3921c0.91854,0.08492 1.77946,0.47146 2.43997,1.09543c0.7645,0.72508 1.19227,1.71981 1.1853,2.7561c-0.0047,0.77234 -0.22829,1.52865 -0.6464,2.18638c0.48522,0.15536 0.92752,0.41582 1.29314,0.7616c0.63943,0.60608 0.99732,1.43755 0.99186,2.30392zM1.72986,25.42884l6.31041,3.53023c0.69453,0.41053 1.42199,0.7664 2.17539,1.06411c-0.89468,-5.29941 0.98388,-10.68349 5.01433,-14.3712c2.65549,-2.52021 6.04634,-4.18958 9.71368,-4.78224c1.8086,-0.28006 3.65323,-0.25891 5.45444,0.06239c-0.07215,-0.17627 -0.14161,-0.3531 -0.22207,-0.52709c-0.22543,-0.47894 -0.48144,-0.94389 -0.76676,-1.39192l-3.8759,-6.14365zM32.23938,10.44368v0.00008c0.48169,-0.45722 0.75307,-1.0829 0.75307,-1.73607c0,-0.65317 -0.27155,-1.27885 -0.75341,-1.73591c-0.74341,-0.68498 -1.82515,-0.89948 -2.78669,-0.55247l1.17858,1.86785c0.3169,0.49773 0.6013,1.01425 0.85151,1.54647c0.13842,0.29942 0.26852,0.59989 0.37872,0.90061c0.13514,-0.08525 0.26172,-0.18245 0.37822,-0.29055zM14.85958,39.20527l-2.86194,-4.60483c-0.57997,-0.94055 -1.04058,-1.94545 -1.37176,-2.99288l-0.00781,0.00122c-0.08063,-0.00016 -0.16059,-0.01342 -0.23661,-0.03929c-1.07258,-0.36661 -2.10232,-0.84148 -3.07235,-1.41673l-5.21683,-2.91838c1.71083,2.2648 3.64181,4.36561 5.76631,6.27372c3.6634,3.47199 5.82283,5.01374 7.00099,5.69717zM40.0629,16.91741l-5.59706,-3.12401c-1.1265,-0.62641 -2.34271,-1.08762 -3.60889,-1.36857c-1.86479,-0.4233 -3.79745,-0.48577 -5.68727,-0.18408c-3.37463,0.54653 -6.49443,2.08381 -8.93743,4.40367c-4.00852,3.7989 -5.69962,9.15663 -4.41277,13.98222c0.3043,1.14594 0.77802,2.24332 1.40653,3.25806l3.31164,5.32837l21.72001,-20.58489l0.00008,-0.00016zM33.24208,11.43621c-0.06887,0.06507 -0.14522,0.11933 -0.21796,0.17911c0.74568,0.26656 1.46726,0.59274 2.15708,0.97521l0.648,0.36164c0.6847,-0.82708 0.60281,-2.02378 -0.18848,-2.75618c-0.35823,-0.33993 -0.82346,-0.55426 -1.32178,-0.60884c-0.17025,0.70287 -0.54376,1.34425 -1.07686,1.84906zM41.56636,14.6078c0.00437,-0.49285 -0.19805,-0.96634 -0.56098,-1.31196c-0.43466,-0.40101 -1.03117,-0.59371 -1.62735,-0.52563c-0.32371,0.03319 -0.62986,-0.14918 -0.74543,-0.44388c-0.11557,-0.2947 -0.01151,-0.62788 0.2534,-0.81114c0.04418,-0.03359 0.08559,-0.07044 0.12389,-0.11014c0.57627,-0.5371 0.90678,-1.27503 0.91795,-2.04948c0.0058,-0.66261 -0.26634,-1.29911 -0.75416,-1.76373c-0.55468,-0.51465 -1.30994,-0.77543 -2.0757,-0.71678c-0.20032,0.01106 -0.39627,-0.0597 -0.54024,-0.19514c-0.14396,-0.13543 -0.22275,-0.32309 -0.21712,-0.51733c0.02982,-0.77096 -0.27776,-1.5184 -0.84689,-2.05827c-0.97464,-0.87239 -2.40612,-1.0672 -3.59133,-0.4887c-0.19049,0.08769 -0.41106,0.0898 -0.60323,0.00569c-0.19209,-0.08403 -0.3363,-0.24581 -0.39417,-0.44217c-0.11902,-0.40834 -0.34714,-0.77909 -0.66144,-1.07469c-1.01143,-0.88882 -2.5285,-0.96691 -3.63156,-0.187l2.0788,3.29482c1.53504,-0.67928 3.3433,-0.37433 4.55086,0.76746c0.6275,0.59485 1.03134,1.37598 1.14716,2.21892c0.84908,0.07191 1.64599,0.42713 2.25451,1.00498c1.25476,1.17734 1.44231,3.06235 0.44272,4.45004l4.01171,2.23909c0.29876,-0.3662 0.46355,-0.81805 0.46859,-1.28495z" vector-effect="non-scaling-stroke"/></defs></g></svg>