<svg version="1.2" xmlns="http://www.w3.org/2000/svg" xmlns:xlink="http://www.w3.org/1999/xlink" overflow="visible" preserveAspectRatio="none" viewBox="0 0 7.99999 7.999994999999999" width="7.99999" height="7.999994999999999"><g transform="translate(0, 0)"><g transform="translate(-1.1102230246251565e-16, -0.0000025000000002523004) rotate(0)"><path d="M7.86262,3.1204c-0.18316,0.18305 -0.48014,0.18305 -0.66332,0l-2.32158,-2.3202c-0.18319,-0.18306 -0.18319,-0.47986 0,-0.66291c0.18317,-0.18305 0.48015,-0.18305 0.66331,0l0.66203,0.66166l0.49741,-0.4973c0.08794,-0.08789 0.24368,-0.08789 0.33162,0l0.66622,0.66581c0.04398,0.04394 0.06871,0.10345 0.06871,0.1657c0,0.06225 -0.02473,0.12177 -0.06873,0.16569l-0.4976,0.49711l0.66193,0.66153c0.18316,0.18306 0.18316,0.47986 0,0.66291zM3.12227,7.86271c-0.18317,0.18305 -0.48015,0.18305 -0.66331,0l-0.66193,-0.66155l-0.49643,0.49613c-0.04579,0.04578 -0.1058,0.06867 -0.1658,0.06867c-0.06001,0 -0.12001,-0.02289 -0.1658,-0.06869l-0.66622,-0.66559c-0.04398,-0.04394 -0.06871,-0.10345 -0.06871,-0.1657c0,-0.06225 0.02473,-0.12175 0.06871,-0.1657l0.49663,-0.49613l-0.66204,-0.66164c-0.18316,-0.18305 -0.18316,-0.47984 0,-0.66292c0.18319,-0.18305 0.48014,-0.18305 0.66332,0l2.32158,2.3202c0.18319,0.18305 0.18319,0.47984 0,0.66292zM5.20937,3.78329l-1.42377,1.42778l-0.99498,-0.99438l1.42377,-1.42775zM7.19931,4.44623c-0.18317,0.18305 -0.48015,0.18305 -0.66331,0l-2.98492,-2.98311c-0.18319,-0.18308 -0.18319,-0.47984 0,-0.66292c0.18316,-0.18305 0.48015,-0.18305 0.66331,0l2.98492,2.98311c0.18319,0.18308 0.18319,0.47988 0,0.66292zM4.44892,7.19979c-0.18317,0.18305 -0.48015,0.18305 -0.66331,0l-2.98492,-2.98311c-0.18319,-0.18305 -0.18319,-0.47984 0,-0.66292c0.18316,-0.18305 0.48014,-0.18305 0.66329,0l2.98494,2.98313c0.18319,0.18306 0.18319,0.47986 0,0.66291z" style="stroke-width: 0; stroke-linecap: butt; stroke-linejoin: miter; fill: rgb(255, 255, 255);" vector-effect="non-scaling-stroke"/></g><defs><path id="path-16697508267761743508" d="M7.86262,3.1204c-0.18316,0.18305 -0.48014,0.18305 -0.66332,0l-2.32158,-2.3202c-0.18319,-0.18306 -0.18319,-0.47986 0,-0.66291c0.18317,-0.18305 0.48015,-0.18305 0.66331,0l0.66203,0.66166l0.49741,-0.4973c0.08794,-0.08789 0.24368,-0.08789 0.33162,0l0.66622,0.66581c0.04398,0.04394 0.06871,0.10345 0.06871,0.1657c0,0.06225 -0.02473,0.12177 -0.06873,0.16569l-0.4976,0.49711l0.66193,0.66153c0.18316,0.18306 0.18316,0.47986 0,0.66291zM3.12227,7.86271c-0.18317,0.18305 -0.48015,0.18305 -0.66331,0l-0.66193,-0.66155l-0.49643,0.49613c-0.04579,0.04578 -0.1058,0.06867 -0.1658,0.06867c-0.06001,0 -0.12001,-0.02289 -0.1658,-0.06869l-0.66622,-0.66559c-0.04398,-0.04394 -0.06871,-0.10345 -0.06871,-0.1657c0,-0.06225 0.02473,-0.12175 0.06871,-0.1657l0.49663,-0.49613l-0.66204,-0.66164c-0.18316,-0.18305 -0.18316,-0.47984 0,-0.66292c0.18319,-0.18305 0.48014,-0.18305 0.66332,0l2.32158,2.3202c0.18319,0.18305 0.18319,0.47984 0,0.66292zM5.20937,3.78329l-1.42377,1.42778l-0.99498,-0.99438l1.42377,-1.42775zM7.19931,4.44623c-0.18317,0.18305 -0.48015,0.18305 -0.66331,0l-2.98492,-2.98311c-0.18319,-0.18308 -0.18319,-0.47984 0,-0.66292c0.18316,-0.18305 0.48015,-0.18305 0.66331,0l2.98492,2.98311c0.18319,0.18308 0.18319,0.47988 0,0.66292zM4.44892,7.19979c-0.18317,0.18305 -0.48015,0.18305 -0.66331,0l-2.98492,-2.98311c-0.18319,-0.18305 -0.18319,-0.47984 0,-0.66292c0.18316,-0.18305 0.48014,-0.18305 0.66329,0l2.98494,2.98313c0.18319,0.18306 0.18319,0.47986 0,0.66291z" vector-effect="non-scaling-stroke"/></defs></g></svg>