<svg version="1.2" xmlns="http://www.w3.org/2000/svg" xmlns:xlink="http://www.w3.org/1999/xlink" overflow="visible" preserveAspectRatio="none" viewBox="0 0 37 25" width="37" height="25"><g transform="translate(0, 0)"><g transform="translate(0, 0) rotate(0)"><path d="M0,17.05882v-14.11765c0,-0.32485 0.27611,-0.58824 0.61667,-0.58824h5.55v-1.17647h-1.23333v-1.17647h3.7v1.17647h-1.23333v1.17647h10.48333v-1.17647h-1.23333v-1.17647h3.7v1.17647h-1.23333v1.17647h5.42235c1.44192,-0.00162 2.78895,0.68529 3.58838,1.83l4.91607,7.01824c2.3125,0.15941 3.95653,1.95529 3.95653,4.38706c-0.0027,2.43544 -2.07185,4.40919 -4.625,4.41176h-29.29167c-1.702,-0.00191 -3.08133,-1.31765 -3.08333,-2.94118zM14.8,17.64706h-13.4532c0.26039,0.70257 0.95537,1.17338 1.73653,1.17647h11.71667zM20.96667,17.64706h-4.93333v1.17647h4.93333zM20.96667,8.23529h-4.93333v8.23529h4.93333zM20.96667,5.88235h-4.93333v1.17647h4.93333zM26.26137,18.82353l-1.23333,-1.17647h-2.82803v1.17647zM29.96137,18.82353l-3.7,-3.52941h-4.06137v1.17647h3.08333c0.16357,0 0.32036,0.06206 0.43598,0.17235l2.28598,2.18059zM24.66667,4.51l5.24167,6.66647h1.62307l-4.43013,-6.33941c-0.13004,-0.18574 -0.28189,-0.35662 -0.45263,-0.50941c-0.00802,-0.00706 -0.0148,-0.01529 -0.02282,-0.02235c-0.0666,-0.05882 -0.13813,-0.11118 -0.20967,-0.16412c-0.0259,-0.01882 -0.05057,-0.04059 -0.07708,-0.05882c-0.06413,-0.04412 -0.13197,-0.08294 -0.1998,-0.12176c-0.037,-0.02176 -0.07338,-0.04588 -0.11162,-0.06588c-0.0629,-0.03118 -0.12888,-0.06118 -0.19363,-0.09c-0.04687,-0.01824 -0.09188,-0.04059 -0.13937,-0.05882c-0.06228,-0.02353 -0.12765,-0.04294 -0.18932,-0.06294c-0.05365,-0.01706 -0.0999,-0.03412 -0.16157,-0.04941c-0.06167,-0.01529 -0.12827,-0.02824 -0.185,-0.03941c-0.05673,-0.01118 -0.12272,-0.02353 -0.18007,-0.03176c-0.05735,-0.00824 -0.11902,-0.01294 -0.18068,-0.01765c-0.04378,-0.00353 -0.08757,-0.00765 -0.13135,-0.00765zM24.66667,11.17647h3.7l-3.7,-4.70588zM1.23333,14.11765h13.56667v-8.82353c0,-0.32485 0.27611,-0.58824 0.61667,-0.58824h6.16667c0.34055,0 0.61667,0.26338 0.61667,0.58824v8.82353h4.31667c0.16357,0 0.32036,0.06206 0.43598,0.17235l4.75265,4.53353h0.6697c1.87235,-0.00191 3.38966,-1.44926 3.39167,-3.23529c0,-1.86941 -1.2876,-3.22235 -3.06113,-3.22235c-0.03669,-0.00103 -0.07331,-0.00537 -0.10915,-0.01294h-8.54638c-0.34055,0 -0.61667,-0.26338 -0.61667,-0.58824v-8.23529h-22.2zM1.23333,16.47059h13.56667v-1.17647h-13.56667zM7,7.625v3.75c0,0.34516 -0.27984,0.625 -0.625,0.625h-3.75c-0.34516,0 -0.625,-0.27984 -0.625,-0.625v-3.75c0,-0.34516 0.27984,-0.625 0.625,-0.625h3.75c0.34516,0 0.625,0.27984 0.625,0.625zM5.75,8.25h-2.5v2.5h2.5zM13,7.625v3.75c0,0.34516 -0.27984,0.625 -0.625,0.625h-3.75c-0.34516,0 -0.625,-0.27984 -0.625,-0.625v-3.75c0,-0.34516 0.27984,-0.625 0.625,-0.625h3.75c0.34516,0 0.625,0.27984 0.625,0.625zM11.75,8.25h-2.5v2.5h2.5zM0.00001,22.56002v-1.21999h36.99999v1.21999zM30.21667,25v-1.21999h1.23333v1.21999zM35.15,25v-1.21999h1.23333v1.21999zM32.68333,25v-1.21999h1.23333v1.21999zM27.75,25v-1.21999h1.23333v1.21999zM25.28334,25v-1.21999h1.23333v1.21999zM8.01667,25v-1.21999h1.23333v1.21999zM0.61667,25v-1.21999h1.23333v1.21999zM5.55001,25v-1.21999h1.23333v1.21999zM22.81667,25v-1.21999h1.23333v1.21999zM10.48334,25v-1.21999h1.23333v1.21999zM3.08334,25v-1.21999h1.23333v1.21999zM17.88334,25v-1.21999h1.23333v1.21999zM20.35,25v-1.21999h1.23333v1.21999zM12.95001,25v-1.21999h1.23333v1.21999zM15.41667,25v-1.21999h1.23333v1.21999zM17.88334,12.80008v-1.21999h1.23333v1.21999z" style="stroke-width: 0; stroke-linecap: butt; stroke-linejoin: miter; fill: rgb(131, 49, 167);" vector-effect="non-scaling-stroke"/></g><defs><path id="path-1673538955703183209" d="M0,17.05882v-14.11765c0,-0.32485 0.27611,-0.58824 0.61667,-0.58824h5.55v-1.17647h-1.23333v-1.17647h3.7v1.17647h-1.23333v1.17647h10.48333v-1.17647h-1.23333v-1.17647h3.7v1.17647h-1.23333v1.17647h5.42235c1.44192,-0.00162 2.78895,0.68529 3.58838,1.83l4.91607,7.01824c2.3125,0.15941 3.95653,1.95529 3.95653,4.38706c-0.0027,2.43544 -2.07185,4.40919 -4.625,4.41176h-29.29167c-1.702,-0.00191 -3.08133,-1.31765 -3.08333,-2.94118zM14.8,17.64706h-13.4532c0.26039,0.70257 0.95537,1.17338 1.73653,1.17647h11.71667zM20.96667,17.64706h-4.93333v1.17647h4.93333zM20.96667,8.23529h-4.93333v8.23529h4.93333zM20.96667,5.88235h-4.93333v1.17647h4.93333zM26.26137,18.82353l-1.23333,-1.17647h-2.82803v1.17647zM29.96137,18.82353l-3.7,-3.52941h-4.06137v1.17647h3.08333c0.16357,0 0.32036,0.06206 0.43598,0.17235l2.28598,2.18059zM24.66667,4.51l5.24167,6.66647h1.62307l-4.43013,-6.33941c-0.13004,-0.18574 -0.28189,-0.35662 -0.45263,-0.50941c-0.00802,-0.00706 -0.0148,-0.01529 -0.02282,-0.02235c-0.0666,-0.05882 -0.13813,-0.11118 -0.20967,-0.16412c-0.0259,-0.01882 -0.05057,-0.04059 -0.07708,-0.05882c-0.06413,-0.04412 -0.13197,-0.08294 -0.1998,-0.12176c-0.037,-0.02176 -0.07338,-0.04588 -0.11162,-0.06588c-0.0629,-0.03118 -0.12888,-0.06118 -0.19363,-0.09c-0.04687,-0.01824 -0.09188,-0.04059 -0.13937,-0.05882c-0.06228,-0.02353 -0.12765,-0.04294 -0.18932,-0.06294c-0.05365,-0.01706 -0.0999,-0.03412 -0.16157,-0.04941c-0.06167,-0.01529 -0.12827,-0.02824 -0.185,-0.03941c-0.05673,-0.01118 -0.12272,-0.02353 -0.18007,-0.03176c-0.05735,-0.00824 -0.11902,-0.01294 -0.18068,-0.01765c-0.04378,-0.00353 -0.08757,-0.00765 -0.13135,-0.00765zM24.66667,11.17647h3.7l-3.7,-4.70588zM1.23333,14.11765h13.56667v-8.82353c0,-0.32485 0.27611,-0.58824 0.61667,-0.58824h6.16667c0.34055,0 0.61667,0.26338 0.61667,0.58824v8.82353h4.31667c0.16357,0 0.32036,0.06206 0.43598,0.17235l4.75265,4.53353h0.6697c1.87235,-0.00191 3.38966,-1.44926 3.39167,-3.23529c0,-1.86941 -1.2876,-3.22235 -3.06113,-3.22235c-0.03669,-0.00103 -0.07331,-0.00537 -0.10915,-0.01294h-8.54638c-0.34055,0 -0.61667,-0.26338 -0.61667,-0.58824v-8.23529h-22.2zM1.23333,16.47059h13.56667v-1.17647h-13.56667zM7,7.625v3.75c0,0.34516 -0.27984,0.625 -0.625,0.625h-3.75c-0.34516,0 -0.625,-0.27984 -0.625,-0.625v-3.75c0,-0.34516 0.27984,-0.625 0.625,-0.625h3.75c0.34516,0 0.625,0.27984 0.625,0.625zM5.75,8.25h-2.5v2.5h2.5zM13,7.625v3.75c0,0.34516 -0.27984,0.625 -0.625,0.625h-3.75c-0.34516,0 -0.625,-0.27984 -0.625,-0.625v-3.75c0,-0.34516 0.27984,-0.625 0.625,-0.625h3.75c0.34516,0 0.625,0.27984 0.625,0.625zM11.75,8.25h-2.5v2.5h2.5zM0.00001,22.56002v-1.21999h36.99999v1.21999zM30.21667,25v-1.21999h1.23333v1.21999zM35.15,25v-1.21999h1.23333v1.21999zM32.68333,25v-1.21999h1.23333v1.21999zM27.75,25v-1.21999h1.23333v1.21999zM25.28334,25v-1.21999h1.23333v1.21999zM8.01667,25v-1.21999h1.23333v1.21999zM0.61667,25v-1.21999h1.23333v1.21999zM5.55001,25v-1.21999h1.23333v1.21999zM22.81667,25v-1.21999h1.23333v1.21999zM10.48334,25v-1.21999h1.23333v1.21999zM3.08334,25v-1.21999h1.23333v1.21999zM17.88334,25v-1.21999h1.23333v1.21999zM20.35,25v-1.21999h1.23333v1.21999zM12.95001,25v-1.21999h1.23333v1.21999zM15.41667,25v-1.21999h1.23333v1.21999zM17.88334,12.80008v-1.21999h1.23333v1.21999z" vector-effect="non-scaling-stroke"/></defs></g></svg>