<svg version="1.2" xmlns="http://www.w3.org/2000/svg" xmlns:xlink="http://www.w3.org/1999/xlink" overflow="visible" preserveAspectRatio="none" viewBox="0 0 30.999999999999925 31.00000000000003" width="30.999999999999925" height="31.00000000000003"><g transform="translate(0, 0)"><g transform="translate(1.2239048358415053e-13, 0) rotate(0)"><path d="M28,15.5c0,6.89257 -5.6076,12.5 -12.5,12.5c-6.8924,0 -12.5,-5.60743 -12.5,-12.5c0,-6.89257 5.6076,-12.5 12.5,-12.5c6.8924,0 12.5,5.60743 12.5,12.5zM22.79169,13.50002h1.04169v-1.5h-1.04169zM23.83337,16.50002v-1.99998h-6.25v1.99998zM22.79169,17.50004v1.5h1.04169v-1.5zM18.625,22.00005v-1.99998h-6.25v1.99998zM17.58331,23.00007v1.5h1.04169v-1.5zM7.16669,14.50004v1.99998h6.25v-1.99998zM8.20837,13.50002v-1.5h-1.04169v1.5zM12.375,9.00001v1.99998h6.25v-1.99998zM13.41669,8.00005v-1.5h-1.04169v1.5zM17.58331,12.00001v1.5h1.04169v-1.5zM14.45837,12.00001v7.00003h2.08331v-7.00003zM12.375,12.00001v1.5h1.04169v-1.5zM12.375,17.50004v1.5h1.04169v-1.5zM18.62506,19.00004v-1.5h-1.04169v1.5zM21.75,6.50004h-2.08331v6.99997h2.08331zM17.58337,5.50002h3.56433c-1.10034,-0.63024 -2.3064,-1.07215 -3.56433,-1.30606zM17.58337,8.00005h1.04169v-1.5h-1.04169zM14.45844,4.04971v3.95034h2.08331v-3.95034c-0.34338,-0.03123 -0.69037,-0.04969 -1.04169,-0.04969c-0.35138,0 -0.69836,0.01846 -1.04169,0.04969zM9.85236,5.50002h3.56433v-1.30606c-1.25793,0.23397 -2.46399,0.67588 -3.56433,1.30606zM9.25,13.50008h2.08331v-7.00003h-2.08331zM6.82471,7.99999h1.38367v-1.36436c-0.50024,0.41678 -0.96307,0.87317 -1.38367,1.36436zM4.95618,10.99999h3.2522v-1.99998h-2.15417c-0.43268,0.63094 -0.80042,1.30078 -1.09802,1.99998zM4.58606,19.00004h1.539v-7.00003h-1.539c-0.72583,2.28135 -0.72583,4.71868 0,7.00003zM8.20837,23.00007h-1.38367c0.42059,0.49119 0.88342,0.94758 1.38367,1.36436zM8.20837,20.00007h-3.2522c0.29761,0.69926 0.66534,1.36905 1.09802,1.99998h2.15417zM8.20837,17.50004h-1.04169v1.5h1.04169zM9.25,24.50007h2.08331v-7.00003h-2.08331zM13.41669,25.50004h-3.56433c1.10034,0.63024 2.3064,1.07215 3.56433,1.30606zM13.41669,23.00007h-1.04169v1.5h1.04169zM16.54163,26.95035v-3.95034h-2.08331v3.95034c0.34338,0.03123 0.69037,0.04969 1.04169,0.04969c0.35138,0 0.6983,-0.01846 1.04169,-0.04969zM21.14771,25.50004h-3.56433v1.30606c1.25793,-0.23391 2.46393,-0.67582 3.56433,-1.30606zM21.75,17.50004h-2.08331v7.00003h2.08331zM24.17535,23.00007h-1.38367v1.36436c0.50024,-0.41678 0.96307,-0.87317 1.38367,-1.36436zM26.04388,20.00007h-3.2522v1.99998h2.15417c0.43268,-0.63094 0.80042,-1.30078 1.09802,-1.99998zM26.414,12.00001h-1.539v7.00003h1.539c0.72583,-2.28135 0.72583,-4.71868 0,-7.00003zM24.94586,9.00007h-2.15417v1.99998h3.2522c-0.29761,-0.69926 -0.66534,-1.3691 -1.09802,-1.99998zM24.17535,8.00005c-0.42059,-0.49119 -0.88342,-0.94758 -1.38367,-1.36436v1.36436zM30.15128,18.00511c0.43624,1.02227 0.44284,2.17702 0.01829,3.20414c-0.42455,1.02718 -1.24448,1.84032 -2.27516,2.25622c-0.10953,2.04691 -1.70063,3.70547 -3.7413,3.89971c-0.31363,1.23165 -1.17569,2.25101 -2.33819,2.76481c-1.1625,0.5138 -2.49658,0.46512 -3.61857,-0.13205c-1.54933,1.33609 -3.84338,1.33609 -5.39271,0c-1.12247,0.59748 -2.45723,0.64591 -3.62008,0.13145c-1.16286,-0.51447 -2.0248,-1.53474 -2.33771,-2.76724c-2.03824,-0.19635 -3.62747,-1.85207 -3.74027,-3.89668c-1.55998,-0.63447 -2.5825,-2.14808 -2.58885,-3.83213c-0.00224,-0.68152 0.16566,-1.35286 0.48843,-1.95312c-0.64906,-0.74848 -1.00592,-1.70621 -1.00507,-2.69688c-0.00521,-0.8327 0.24618,-1.64682 0.72002,-2.33154c-0.13587,-0.41475 -0.20453,-0.84863 -0.20332,-1.28511c0.00636,-1.68405 1.02887,-3.19766 2.58885,-3.83213c0.10953,-2.04691 1.70063,-3.70547 3.7413,-3.89971c0.31345,-1.23177 1.17551,-2.25126 2.33813,-2.765c1.16262,-0.51374 2.49676,-0.46482 3.61863,0.13272c1.54909,-1.33675 3.84368,-1.33675 5.39271,0c1.12235,-0.59778 2.45723,-0.64652 3.62014,-0.13211c1.16298,0.51441 2.02492,1.5348 2.33765,2.76742c2.03824,0.19635 3.62747,1.85207 3.74027,3.89668c1.55998,0.63447 2.5825,2.14808 2.58885,3.83213c-0.0003,0.55951 -0.11322,1.11328 -0.33198,1.62823c1.13156,1.47837 1.13156,3.53182 -0.00006,5.0102zM29.16104,17.58013c1.07434,-1.17879 1.07434,-2.98181 0,-4.1606c-0.14689,-0.16154 -0.17655,-0.39791 -0.07417,-0.59082c0.43733,-0.82259 0.48207,-1.79812 0.12182,-2.65728c-0.36025,-0.85916 -1.08736,-1.51107 -1.9806,-1.77572c-0.25587,-0.07508 -0.41263,-0.33258 -0.36177,-0.59439c0.00151,-0.01617 0.00048,-0.0333 0.00048,-0.05146c-0.00188,-1.7113 -1.3887,-3.09812 -3.09999,-3.1c-0.26659,0.00218 -0.49781,-0.18364 -0.55303,-0.44447c-0.15367,-1.05485 -0.83797,-1.95694 -1.8124,-2.38906c-0.97444,-0.43212 -2.10248,-0.33386 -2.98743,0.26035c-0.21016,0.14126 -0.49164,0.10989 -0.66553,-0.07417c-0.58415,-0.61861 -1.39742,-0.96923 -2.24828,-0.96923c-0.85086,0 -1.66412,0.35057 -2.24828,0.96923c-0.17395,0.184 -0.45537,0.21537 -0.66553,0.07417c-0.88501,-0.59421 -2.01299,-0.69254 -2.98743,-0.26035c-0.97438,0.43218 -1.65874,1.33427 -1.8124,2.38906c-0.03603,0.25496 -0.25417,0.44447 -0.51162,0.44454c-0.82834,-0.00769 -1.62556,0.31509 -2.21516,0.89694c-0.5896,0.58186 -0.92297,1.37472 -0.92624,2.20306c-0.00067,0.0178 -0.0003,0.03566 0.00103,0.05346c0.03336,0.25805 -0.1174,0.50448 -0.36231,0.59233c-1.31471,0.39198 -2.21746,1.59892 -2.22206,2.97085c-0.0017,0.40179 0.07617,0.80001 0.22905,1.17158c0.07241,0.17468 0.04353,0.37503 -0.0752,0.52222c-0.43884,0.54426 -0.67582,1.22371 -0.67055,1.92285c-0.00194,0.85099 0.3499,1.66443 0.97129,2.24581c0.18788,0.17413 0.21984,0.45961 0.0752,0.67104c-0.34814,0.51065 -0.53293,1.11509 -0.52978,1.73316c0.0046,1.37193 0.90735,2.57887 2.22206,2.97085c0.25587,0.07508 0.41263,0.33258 0.36177,0.59439c-0.00157,0.01617 -0.00054,0.0333 -0.00054,0.05146c0.00188,1.7113 1.3887,3.09812 3.09999,3.1c0.26659,-0.00218 0.49788,0.1837 0.55303,0.44454c0.15385,1.05473 0.83815,1.95669 1.81246,2.38888c0.97432,0.43218 2.10224,0.33416 2.98737,-0.25969c0.2101,-0.14156 0.49176,-0.11013 0.66553,0.07417c0.58434,0.61837 1.39754,0.96875 2.24828,0.96875c0.85074,0 1.66394,-0.35038 2.24828,-0.96875c0.17371,-0.18455 0.45549,-0.21591 0.66553,-0.07417c0.88513,0.59384 2.01305,0.69187 2.98737,0.25969c0.97432,-0.43218 1.65861,-1.33415 1.81246,-2.38888c0.03603,-0.25496 0.25417,-0.44447 0.51162,-0.44454c0.82828,0.00769 1.6255,-0.31509 2.2151,-0.89694c0.5896,-0.58186 0.92297,-1.37472 0.92624,-2.20306c0.00067,-0.0178 0.0003,-0.03566 -0.00103,-0.05346c-0.03336,-0.25799 0.11734,-0.50448 0.36225,-0.59233c0.89324,-0.26465 1.62035,-0.91656 1.9806,-1.77572c0.36025,-0.85916 0.31557,-1.83469 -0.12182,-2.65728c-0.10232,-0.19284 -0.07266,-0.42922 0.07435,-0.591z" style="stroke-width: 0; stroke-linecap: butt; stroke-linejoin: miter; fill: rgb(131, 49, 167);" vector-effect="non-scaling-stroke"/></g><defs><path id="path-1673538955703183198" d="M28,15.5c0,6.89257 -5.6076,12.5 -12.5,12.5c-6.8924,0 -12.5,-5.60743 -12.5,-12.5c0,-6.89257 5.6076,-12.5 12.5,-12.5c6.8924,0 12.5,5.60743 12.5,12.5zM22.79169,13.50002h1.04169v-1.5h-1.04169zM23.83337,16.50002v-1.99998h-6.25v1.99998zM22.79169,17.50004v1.5h1.04169v-1.5zM18.625,22.00005v-1.99998h-6.25v1.99998zM17.58331,23.00007v1.5h1.04169v-1.5zM7.16669,14.50004v1.99998h6.25v-1.99998zM8.20837,13.50002v-1.5h-1.04169v1.5zM12.375,9.00001v1.99998h6.25v-1.99998zM13.41669,8.00005v-1.5h-1.04169v1.5zM17.58331,12.00001v1.5h1.04169v-1.5zM14.45837,12.00001v7.00003h2.08331v-7.00003zM12.375,12.00001v1.5h1.04169v-1.5zM12.375,17.50004v1.5h1.04169v-1.5zM18.62506,19.00004v-1.5h-1.04169v1.5zM21.75,6.50004h-2.08331v6.99997h2.08331zM17.58337,5.50002h3.56433c-1.10034,-0.63024 -2.3064,-1.07215 -3.56433,-1.30606zM17.58337,8.00005h1.04169v-1.5h-1.04169zM14.45844,4.04971v3.95034h2.08331v-3.95034c-0.34338,-0.03123 -0.69037,-0.04969 -1.04169,-0.04969c-0.35138,0 -0.69836,0.01846 -1.04169,0.04969zM9.85236,5.50002h3.56433v-1.30606c-1.25793,0.23397 -2.46399,0.67588 -3.56433,1.30606zM9.25,13.50008h2.08331v-7.00003h-2.08331zM6.82471,7.99999h1.38367v-1.36436c-0.50024,0.41678 -0.96307,0.87317 -1.38367,1.36436zM4.95618,10.99999h3.2522v-1.99998h-2.15417c-0.43268,0.63094 -0.80042,1.30078 -1.09802,1.99998zM4.58606,19.00004h1.539v-7.00003h-1.539c-0.72583,2.28135 -0.72583,4.71868 0,7.00003zM8.20837,23.00007h-1.38367c0.42059,0.49119 0.88342,0.94758 1.38367,1.36436zM8.20837,20.00007h-3.2522c0.29761,0.69926 0.66534,1.36905 1.09802,1.99998h2.15417zM8.20837,17.50004h-1.04169v1.5h1.04169zM9.25,24.50007h2.08331v-7.00003h-2.08331zM13.41669,25.50004h-3.56433c1.10034,0.63024 2.3064,1.07215 3.56433,1.30606zM13.41669,23.00007h-1.04169v1.5h1.04169zM16.54163,26.95035v-3.95034h-2.08331v3.95034c0.34338,0.03123 0.69037,0.04969 1.04169,0.04969c0.35138,0 0.6983,-0.01846 1.04169,-0.04969zM21.14771,25.50004h-3.56433v1.30606c1.25793,-0.23391 2.46393,-0.67582 3.56433,-1.30606zM21.75,17.50004h-2.08331v7.00003h2.08331zM24.17535,23.00007h-1.38367v1.36436c0.50024,-0.41678 0.96307,-0.87317 1.38367,-1.36436zM26.04388,20.00007h-3.2522v1.99998h2.15417c0.43268,-0.63094 0.80042,-1.30078 1.09802,-1.99998zM26.414,12.00001h-1.539v7.00003h1.539c0.72583,-2.28135 0.72583,-4.71868 0,-7.00003zM24.94586,9.00007h-2.15417v1.99998h3.2522c-0.29761,-0.69926 -0.66534,-1.3691 -1.09802,-1.99998zM24.17535,8.00005c-0.42059,-0.49119 -0.88342,-0.94758 -1.38367,-1.36436v1.36436zM30.15128,18.00511c0.43624,1.02227 0.44284,2.17702 0.01829,3.20414c-0.42455,1.02718 -1.24448,1.84032 -2.27516,2.25622c-0.10953,2.04691 -1.70063,3.70547 -3.7413,3.89971c-0.31363,1.23165 -1.17569,2.25101 -2.33819,2.76481c-1.1625,0.5138 -2.49658,0.46512 -3.61857,-0.13205c-1.54933,1.33609 -3.84338,1.33609 -5.39271,0c-1.12247,0.59748 -2.45723,0.64591 -3.62008,0.13145c-1.16286,-0.51447 -2.0248,-1.53474 -2.33771,-2.76724c-2.03824,-0.19635 -3.62747,-1.85207 -3.74027,-3.89668c-1.55998,-0.63447 -2.5825,-2.14808 -2.58885,-3.83213c-0.00224,-0.68152 0.16566,-1.35286 0.48843,-1.95312c-0.64906,-0.74848 -1.00592,-1.70621 -1.00507,-2.69688c-0.00521,-0.8327 0.24618,-1.64682 0.72002,-2.33154c-0.13587,-0.41475 -0.20453,-0.84863 -0.20332,-1.28511c0.00636,-1.68405 1.02887,-3.19766 2.58885,-3.83213c0.10953,-2.04691 1.70063,-3.70547 3.7413,-3.89971c0.31345,-1.23177 1.17551,-2.25126 2.33813,-2.765c1.16262,-0.51374 2.49676,-0.46482 3.61863,0.13272c1.54909,-1.33675 3.84368,-1.33675 5.39271,0c1.12235,-0.59778 2.45723,-0.64652 3.62014,-0.13211c1.16298,0.51441 2.02492,1.5348 2.33765,2.76742c2.03824,0.19635 3.62747,1.85207 3.74027,3.89668c1.55998,0.63447 2.5825,2.14808 2.58885,3.83213c-0.0003,0.55951 -0.11322,1.11328 -0.33198,1.62823c1.13156,1.47837 1.13156,3.53182 -0.00006,5.0102zM29.16104,17.58013c1.07434,-1.17879 1.07434,-2.98181 0,-4.1606c-0.14689,-0.16154 -0.17655,-0.39791 -0.07417,-0.59082c0.43733,-0.82259 0.48207,-1.79812 0.12182,-2.65728c-0.36025,-0.85916 -1.08736,-1.51107 -1.9806,-1.77572c-0.25587,-0.07508 -0.41263,-0.33258 -0.36177,-0.59439c0.00151,-0.01617 0.00048,-0.0333 0.00048,-0.05146c-0.00188,-1.7113 -1.3887,-3.09812 -3.09999,-3.1c-0.26659,0.00218 -0.49781,-0.18364 -0.55303,-0.44447c-0.15367,-1.05485 -0.83797,-1.95694 -1.8124,-2.38906c-0.97444,-0.43212 -2.10248,-0.33386 -2.98743,0.26035c-0.21016,0.14126 -0.49164,0.10989 -0.66553,-0.07417c-0.58415,-0.61861 -1.39742,-0.96923 -2.24828,-0.96923c-0.85086,0 -1.66412,0.35057 -2.24828,0.96923c-0.17395,0.184 -0.45537,0.21537 -0.66553,0.07417c-0.88501,-0.59421 -2.01299,-0.69254 -2.98743,-0.26035c-0.97438,0.43218 -1.65874,1.33427 -1.8124,2.38906c-0.03603,0.25496 -0.25417,0.44447 -0.51162,0.44454c-0.82834,-0.00769 -1.62556,0.31509 -2.21516,0.89694c-0.5896,0.58186 -0.92297,1.37472 -0.92624,2.20306c-0.00067,0.0178 -0.0003,0.03566 0.00103,0.05346c0.03336,0.25805 -0.1174,0.50448 -0.36231,0.59233c-1.31471,0.39198 -2.21746,1.59892 -2.22206,2.97085c-0.0017,0.40179 0.07617,0.80001 0.22905,1.17158c0.07241,0.17468 0.04353,0.37503 -0.0752,0.52222c-0.43884,0.54426 -0.67582,1.22371 -0.67055,1.92285c-0.00194,0.85099 0.3499,1.66443 0.97129,2.24581c0.18788,0.17413 0.21984,0.45961 0.0752,0.67104c-0.34814,0.51065 -0.53293,1.11509 -0.52978,1.73316c0.0046,1.37193 0.90735,2.57887 2.22206,2.97085c0.25587,0.07508 0.41263,0.33258 0.36177,0.59439c-0.00157,0.01617 -0.00054,0.0333 -0.00054,0.05146c0.00188,1.7113 1.3887,3.09812 3.09999,3.1c0.26659,-0.00218 0.49788,0.1837 0.55303,0.44454c0.15385,1.05473 0.83815,1.95669 1.81246,2.38888c0.97432,0.43218 2.10224,0.33416 2.98737,-0.25969c0.2101,-0.14156 0.49176,-0.11013 0.66553,0.07417c0.58434,0.61837 1.39754,0.96875 2.24828,0.96875c0.85074,0 1.66394,-0.35038 2.24828,-0.96875c0.17371,-0.18455 0.45549,-0.21591 0.66553,-0.07417c0.88513,0.59384 2.01305,0.69187 2.98737,0.25969c0.97432,-0.43218 1.65861,-1.33415 1.81246,-2.38888c0.03603,-0.25496 0.25417,-0.44447 0.51162,-0.44454c0.82828,0.00769 1.6255,-0.31509 2.2151,-0.89694c0.5896,-0.58186 0.92297,-1.37472 0.92624,-2.20306c0.00067,-0.0178 0.0003,-0.03566 -0.00103,-0.05346c-0.03336,-0.25799 0.11734,-0.50448 0.36225,-0.59233c0.89324,-0.26465 1.62035,-0.91656 1.9806,-1.77572c0.36025,-0.85916 0.31557,-1.83469 -0.12182,-2.65728c-0.10232,-0.19284 -0.07266,-0.42922 0.07435,-0.591z" vector-effect="non-scaling-stroke"/></defs></g></svg>