<svg version="1.2" xmlns="http://www.w3.org/2000/svg" xmlns:xlink="http://www.w3.org/1999/xlink" overflow="visible" preserveAspectRatio="none" viewBox="0 0 31.000000000000043 31.000000000000018" width="31.000000000000043" height="31.000000000000018"><g transform="translate(0, 0)"><g transform="translate(2.8525792838962616e-14, 1.6387932677552897e-14) rotate(0)"><path d="M30.90055,18.56073c0.15536,0.30552 0.12642,0.67259 -0.07502,0.94991l-0.16802,0.40934c-1.492,3.63112 -4.08274,6.70263 -7.40792,8.78262v0.80328c-0.00091,0.82474 -0.66808,1.49309 -1.49145,1.49412h-12.51658c-0.8235,-0.00097 -1.49091,-0.66932 -1.492,-1.49412v-0.80303c-3.32585,-2.08078 -5.91708,-5.15308 -7.40944,-8.7851l-0.16602,-0.40734c-0.18927,-0.26058 -0.22705,-0.60194 -0.09942,-0.89776c0.09173,-0.20594 0.25714,-0.3701 0.46361,-0.4601c0.23087,-5.53901 4.77667,-9.913 10.3117,-9.92192c1.46263,-0.00309 2.9088,0.30916 4.24023,0.91559l7.11131,-8.58419c0.35311,-0.42747 0.90736,-0.63336 1.45337,-0.53978c0.54601,0.09357 1.00042,0.47229 1.1915,0.99309c0.19109,0.52074 0.08967,1.10407 -0.26586,1.52948l-7.80414,9.42052l0.8367,-0.61286c0.0155,-0.01146 0.03167,-0.02201 0.04844,-0.03159l10.87424,-7.96333c0.33077,-0.24421 0.74515,-0.34621 1.15124,-0.28338c0.40609,0.06277 0.7704,0.28514 1.01229,0.61789c0.24358,0.33123 0.3453,0.74609 0.28263,1.15264c-0.06273,0.40655 -0.28463,0.77132 -0.61667,1.01353l-7.50304,5.49625c3.68743,0.17465 6.6902,3.02924 7.05663,6.70839h0.17044c0.34239,-0.00006 0.65585,0.1923 0.81127,0.49788zM22.47507,12.37048c-0.38369,0.00206 -0.7664,0.03742 -1.14397,0.10558l-1.45997,1.06944c0.07798,0.14009 0.15409,0.28211 0.22439,0.4242c1.55454,-0.77308 3.38536,-0.75064 4.92059,0.06022c1.53523,0.81092 2.58778,2.31141 2.82894,4.03294h1.03826c-0.37854,-3.25434 -3.13712,-5.70475 -6.40823,-5.69237zM25.7351,18.06279h1.06103c-0.37345,-2.09685 -2.19459,-3.62348 -4.32118,-3.62239c-0.68636,0.00224 -1.36243,0.16762 -1.97262,0.48241c0.12412,0.32468 0.23135,0.65561 0.3212,0.99145c0.50278,-0.28824 1.07217,-0.43954 1.65148,-0.43887c1.55073,0.01104 2.89493,1.07787 3.26009,2.58739zM22.47501,16.51039c-0.51756,0.00079 -1.01931,0.17871 -1.42201,0.50431c0.05255,0.34736 0.08737,0.69721 0.10438,1.04815h3.4961c-0.32901,-0.92408 -1.19901,-1.54409 -2.17848,-1.55246zM19.38766,14.89098c-0.10674,-0.25094 -0.22699,-0.49224 -0.35535,-0.73099l-0.84215,0.61686c0.52652,1.02062 0.83609,2.13948 0.90917,3.286h1.03656c-0.05697,-1.09376 -0.31042,-2.16829 -0.74824,-3.17187zM15.33737,14.30135c0.25024,0.26653 0.47657,0.55464 0.67631,0.86101l1.18569,-0.94124l12.55496,-9.19754c0.13248,-0.09697 0.21125,-0.25106 0.2124,-0.4154c-0.00127,-0.1111 -0.03766,-0.21892 -0.10396,-0.30801c-0.08059,-0.11037 -0.20198,-0.18375 -0.33707,-0.20364c-0.13332,-0.02086 -0.26943,0.01316 -0.37739,0.09424l-10.91965,7.99705c-0.01574,0.01146 -0.03209,0.02207 -0.04892,0.03184zM17.34886,15.42252l-0.82931,0.65864c0.27615,0.62808 0.44587,1.29776 0.5023,1.98169h1.04286c-0.06975,-0.91753 -0.31266,-1.81347 -0.71585,-2.64033zM12.84235,18.06285h1.06381c-0.25236,-1.494 -1.54431,-2.58745 -3.05714,-2.58745c-1.51283,0 -2.80478,1.09345 -3.05714,2.58745h1.06381c0.23171,-0.91316 1.05255,-1.55246 1.99327,-1.55246c0.94072,0 1.76155,0.63924 1.99339,1.55246zM10.84896,17.54539c-0.36909,0 -0.7101,0.19727 -0.89458,0.51747h1.78916c-0.18443,-0.32019 -0.52549,-0.51747 -0.89458,-0.51747zM5.70906,18.06285h1.04244c0.25563,-2.00959 1.92527,-3.53888 3.94645,-3.61475l0.82386,-0.99448c-1.38653,-0.19163 -2.79103,0.19206 -3.88839,1.06222c-1.09735,0.87017 -1.79249,2.15137 -1.92437,3.54701zM7.21069,13.55144c1.4613,-1.06162 3.31253,-1.43123 5.06857,-1.01207l0.7262,-0.87659c-2.10964,-0.65731 -4.40346,-0.31377 -6.22883,0.93293c-1.82537,1.2467 -2.98236,3.26004 -3.14178,5.46715h1.04129c0.14749,-1.80207 1.0732,-3.4498 2.53456,-4.51141zM14.94642,18.06279h1.0445c-0.12594,-1.23281 -0.6903,-2.37921 -1.59009,-3.22991l-0.65905,0.79551c0.66432,0.65209 1.08888,1.51007 1.20464,2.43439zM11.92506,14.58771c0.34772,0.09388 0.68164,0.23323 0.99303,0.41437l10.86934,-13.12035c0.17976,-0.21856 0.14967,-0.54148 -0.06739,-0.72292c-0.21706,-0.18144 -0.53966,-0.15349 -0.72227,0.0627zM1.56408,18.06285h1.04546c0.15427,-2.61153 1.53614,-4.99498 3.72425,-6.42361c2.18805,-1.42863 4.92302,-1.73312 7.37093,-0.82056l0.6992,-0.84403c-1.12581,-0.47071 -2.33403,-0.71177 -3.55393,-0.7091c-4.93325,0.00582 -9.00588,3.86417 -9.28591,8.79729zM29.87743,19.09779h-28.75528l0.17456,0.42856c1.42951,3.47484 3.92381,6.40523 7.12329,8.36873h5.01287c0.28536,0 0.51665,0.23166 0.51665,0.51747c0,0.28581 -0.23129,0.51747 -0.51665,0.51747h-4.65001v0.57587c0.00036,0.25349 0.20556,0.45889 0.45864,0.45913h12.51658c0.25297,-0.0003 0.45798,-0.2057 0.4581,-0.45913v-0.57587h-1.03384c-0.28536,0 -0.51665,-0.23166 -0.51665,-0.51747c0,-0.28581 0.23129,-0.51747 0.51665,-0.51747h1.39591c3.199,-1.96332 5.69311,-4.8931 7.12305,-8.36721zM22.73276,25.82509l-0.23105,-0.46295l0.00254,-0.00127c1.90989,-1.17835 3.43901,-2.88448 4.40328,-4.91305c0.11165,-0.26301 0.41499,-0.38563 0.67764,-0.27392c0.12612,0.05373 0.22572,0.15543 0.27688,0.28272c0.05116,0.12729 0.04977,0.26974 -0.00394,0.396c-1.06357,2.23991 -2.75344,4.12251 -4.86441,5.41924z" style="stroke-width: 0; stroke-linecap: butt; stroke-linejoin: miter; fill: rgb(131, 49, 167);" vector-effect="non-scaling-stroke"/></g><defs><path id="path-1673538955703183192" d="M30.90055,18.56073c0.15536,0.30552 0.12642,0.67259 -0.07502,0.94991l-0.16802,0.40934c-1.492,3.63112 -4.08274,6.70263 -7.40792,8.78262v0.80328c-0.00091,0.82474 -0.66808,1.49309 -1.49145,1.49412h-12.51658c-0.8235,-0.00097 -1.49091,-0.66932 -1.492,-1.49412v-0.80303c-3.32585,-2.08078 -5.91708,-5.15308 -7.40944,-8.7851l-0.16602,-0.40734c-0.18927,-0.26058 -0.22705,-0.60194 -0.09942,-0.89776c0.09173,-0.20594 0.25714,-0.3701 0.46361,-0.4601c0.23087,-5.53901 4.77667,-9.913 10.3117,-9.92192c1.46263,-0.00309 2.9088,0.30916 4.24023,0.91559l7.11131,-8.58419c0.35311,-0.42747 0.90736,-0.63336 1.45337,-0.53978c0.54601,0.09357 1.00042,0.47229 1.1915,0.99309c0.19109,0.52074 0.08967,1.10407 -0.26586,1.52948l-7.80414,9.42052l0.8367,-0.61286c0.0155,-0.01146 0.03167,-0.02201 0.04844,-0.03159l10.87424,-7.96333c0.33077,-0.24421 0.74515,-0.34621 1.15124,-0.28338c0.40609,0.06277 0.7704,0.28514 1.01229,0.61789c0.24358,0.33123 0.3453,0.74609 0.28263,1.15264c-0.06273,0.40655 -0.28463,0.77132 -0.61667,1.01353l-7.50304,5.49625c3.68743,0.17465 6.6902,3.02924 7.05663,6.70839h0.17044c0.34239,-0.00006 0.65585,0.1923 0.81127,0.49788zM22.47507,12.37048c-0.38369,0.00206 -0.7664,0.03742 -1.14397,0.10558l-1.45997,1.06944c0.07798,0.14009 0.15409,0.28211 0.22439,0.4242c1.55454,-0.77308 3.38536,-0.75064 4.92059,0.06022c1.53523,0.81092 2.58778,2.31141 2.82894,4.03294h1.03826c-0.37854,-3.25434 -3.13712,-5.70475 -6.40823,-5.69237zM25.7351,18.06279h1.06103c-0.37345,-2.09685 -2.19459,-3.62348 -4.32118,-3.62239c-0.68636,0.00224 -1.36243,0.16762 -1.97262,0.48241c0.12412,0.32468 0.23135,0.65561 0.3212,0.99145c0.50278,-0.28824 1.07217,-0.43954 1.65148,-0.43887c1.55073,0.01104 2.89493,1.07787 3.26009,2.58739zM22.47501,16.51039c-0.51756,0.00079 -1.01931,0.17871 -1.42201,0.50431c0.05255,0.34736 0.08737,0.69721 0.10438,1.04815h3.4961c-0.32901,-0.92408 -1.19901,-1.54409 -2.17848,-1.55246zM19.38766,14.89098c-0.10674,-0.25094 -0.22699,-0.49224 -0.35535,-0.73099l-0.84215,0.61686c0.52652,1.02062 0.83609,2.13948 0.90917,3.286h1.03656c-0.05697,-1.09376 -0.31042,-2.16829 -0.74824,-3.17187zM15.33737,14.30135c0.25024,0.26653 0.47657,0.55464 0.67631,0.86101l1.18569,-0.94124l12.55496,-9.19754c0.13248,-0.09697 0.21125,-0.25106 0.2124,-0.4154c-0.00127,-0.1111 -0.03766,-0.21892 -0.10396,-0.30801c-0.08059,-0.11037 -0.20198,-0.18375 -0.33707,-0.20364c-0.13332,-0.02086 -0.26943,0.01316 -0.37739,0.09424l-10.91965,7.99705c-0.01574,0.01146 -0.03209,0.02207 -0.04892,0.03184zM17.34886,15.42252l-0.82931,0.65864c0.27615,0.62808 0.44587,1.29776 0.5023,1.98169h1.04286c-0.06975,-0.91753 -0.31266,-1.81347 -0.71585,-2.64033zM12.84235,18.06285h1.06381c-0.25236,-1.494 -1.54431,-2.58745 -3.05714,-2.58745c-1.51283,0 -2.80478,1.09345 -3.05714,2.58745h1.06381c0.23171,-0.91316 1.05255,-1.55246 1.99327,-1.55246c0.94072,0 1.76155,0.63924 1.99339,1.55246zM10.84896,17.54539c-0.36909,0 -0.7101,0.19727 -0.89458,0.51747h1.78916c-0.18443,-0.32019 -0.52549,-0.51747 -0.89458,-0.51747zM5.70906,18.06285h1.04244c0.25563,-2.00959 1.92527,-3.53888 3.94645,-3.61475l0.82386,-0.99448c-1.38653,-0.19163 -2.79103,0.19206 -3.88839,1.06222c-1.09735,0.87017 -1.79249,2.15137 -1.92437,3.54701zM7.21069,13.55144c1.4613,-1.06162 3.31253,-1.43123 5.06857,-1.01207l0.7262,-0.87659c-2.10964,-0.65731 -4.40346,-0.31377 -6.22883,0.93293c-1.82537,1.2467 -2.98236,3.26004 -3.14178,5.46715h1.04129c0.14749,-1.80207 1.0732,-3.4498 2.53456,-4.51141zM14.94642,18.06279h1.0445c-0.12594,-1.23281 -0.6903,-2.37921 -1.59009,-3.22991l-0.65905,0.79551c0.66432,0.65209 1.08888,1.51007 1.20464,2.43439zM11.92506,14.58771c0.34772,0.09388 0.68164,0.23323 0.99303,0.41437l10.86934,-13.12035c0.17976,-0.21856 0.14967,-0.54148 -0.06739,-0.72292c-0.21706,-0.18144 -0.53966,-0.15349 -0.72227,0.0627zM1.56408,18.06285h1.04546c0.15427,-2.61153 1.53614,-4.99498 3.72425,-6.42361c2.18805,-1.42863 4.92302,-1.73312 7.37093,-0.82056l0.6992,-0.84403c-1.12581,-0.47071 -2.33403,-0.71177 -3.55393,-0.7091c-4.93325,0.00582 -9.00588,3.86417 -9.28591,8.79729zM29.87743,19.09779h-28.75528l0.17456,0.42856c1.42951,3.47484 3.92381,6.40523 7.12329,8.36873h5.01287c0.28536,0 0.51665,0.23166 0.51665,0.51747c0,0.28581 -0.23129,0.51747 -0.51665,0.51747h-4.65001v0.57587c0.00036,0.25349 0.20556,0.45889 0.45864,0.45913h12.51658c0.25297,-0.0003 0.45798,-0.2057 0.4581,-0.45913v-0.57587h-1.03384c-0.28536,0 -0.51665,-0.23166 -0.51665,-0.51747c0,-0.28581 0.23129,-0.51747 0.51665,-0.51747h1.39591c3.199,-1.96332 5.69311,-4.8931 7.12305,-8.36721zM22.73276,25.82509l-0.23105,-0.46295l0.00254,-0.00127c1.90989,-1.17835 3.43901,-2.88448 4.40328,-4.91305c0.11165,-0.26301 0.41499,-0.38563 0.67764,-0.27392c0.12612,0.05373 0.22572,0.15543 0.27688,0.28272c0.05116,0.12729 0.04977,0.26974 -0.00394,0.396c-1.06357,2.23991 -2.75344,4.12251 -4.86441,5.41924z" vector-effect="non-scaling-stroke"/></defs></g></svg>