<svg version="1.2" xmlns="http://www.w3.org/2000/svg" xmlns:xlink="http://www.w3.org/1999/xlink" overflow="visible" preserveAspectRatio="none" viewBox="0 0 31.000005760546326 25.000000000000057" width="31.000005760546326" height="25.000000000000057"><g transform="translate(0, 0)"><g transform="translate(6.900036098045348e-14, -2.1975476993674192e-14) rotate(0)"><path d="M30.98431,16.50962l-0.04013,-0.22021c-0.25769,-1.56128 -0.70414,-3.0849 -1.32921,-4.53675l-0.41617,-0.97244c0.35419,-0.0924 0.63271,-0.36821 0.73077,-0.72361c0.09807,-0.35539 0.00073,-0.73654 -0.25527,-1.00008l-2.5195,-2.69002c-1.49756,-1.50354 -3.23768,-2.73946 -5.14603,-3.65507c-0.03517,-0.02374 -0.07307,-0.04303 -0.11296,-0.05743c-0.65056,-0.30748 -1.31844,-0.57645 -2.00012,-0.80551l-0.25509,-0.08575l0.00666,-0.07342c0.07664,-0.55692 -0.27053,-1.084 -0.80941,-1.22877c-2.18075,-0.61375 -4.48645,-0.61405 -6.66738,-0.00104c-0.48246,0.13061 -0.81909,0.56999 -0.82254,1.07369c-0.00073,0.05017 0.0023,0.10034 0.00908,0.15002l0.0072,0.07946l-0.25437,0.08532c-0.68331,0.22973 -1.3527,0.49961 -2.00472,0.80832c-0.03753,0.01385 -0.07337,0.03204 -0.10672,0.05432c-1.91283,0.9186 -3.65688,2.15849 -5.15747,3.66655l-2.49832,2.66811c-0.26145,0.26195 -0.36363,0.64506 -0.26786,1.00393c0.09577,0.35887 0.37489,0.63846 0.73138,0.73282c-0.80499,1.74792 -1.39465,3.58861 -1.75592,5.48099c-0.11272,0.38847 -0.03317,0.80795 0.21387,1.12709c0.1833,0.18816 0.42822,0.30272 0.68906,0.32231v0.12524c0.00061,0.69657 0.17537,1.38178 0.50825,1.99223l0.64802,1.18758c0.01102,0.02478 0.02403,0.04858 0.03892,0.07123l1.46033,2.67629c0.47822,0.87076 1.44072,1.35261 2.4178,1.21028c0.97709,-0.14227 1.765,-0.87899 1.97929,-1.85064l1.22933,-5.73415c0.72714,-1.34071 1.97627,-3.07129 3.85986,-3.85611l0.01084,-0.00458c1.52401,-0.62907 3.23108,-0.63486 4.75928,-0.0163c0.01562,0.00787 0.03226,0.01349 0.04861,0.01996l0.01616,0.00659c0.00575,0.00201 0.01114,0.00519 0.01701,0.00702c1.66966,0.80734 3.01782,2.16258 3.82353,3.84354l1.22933,5.73403c0.21429,0.97158 1.00221,1.70837 1.97929,1.85064c0.97709,0.14227 1.93958,-0.33953 2.4178,-1.21028l1.45579,-2.66805c0.01749,-0.026 0.03257,-0.05359 0.04492,-0.08239l0.64645,-1.18465c0.333,-0.61039 0.50788,-1.2956 0.50849,-1.99223v-0.1203c0.28851,-0.02124 0.55462,-0.16479 0.73222,-0.39494c0.17755,-0.23028 0.25013,-0.52561 0.19964,-0.81284zM6.9958,22.90488c-0.12331,0.54685 -0.56842,0.96041 -1.1191,1.03969c-0.55068,0.07934 -1.09277,-0.19201 -1.36305,-0.68216l-1.04131,-1.90831h0.66648c0.2853,0 0.51654,-0.23315 0.51654,-0.52079c0,-0.28765 -0.23124,-0.52079 -0.51654,-0.52079h-1.23484l-0.53755,-0.98519c-0.24898,-0.4564 -0.37973,-0.96883 -0.3801,-1.48975v-0.11029h3.00832l3.11111,0.00037zM8.44057,16.68564h-3.59804l-3.59774,-0.00055c-0.06877,0.00153 -0.13759,-0.0022 -0.20582,-0.01117c0.00212,-0.07287 0.0109,-0.14538 0.02621,-0.21667c0.18221,-0.96133 0.4264,-1.90972 0.73083,-2.83906l1.70084,0.42876c0.17906,0.04547 0.36859,-0.00891 0.49711,-0.14269c0.12845,-0.13378 0.17634,-0.32653 0.12549,-0.50547c-0.05085,-0.17901 -0.19262,-0.317 -0.37186,-0.36192l-1.60011,-0.4033c0.20061,-0.53025 0.41442,-1.0555 0.65456,-1.57007l8.67833,2.16874c-1.26081,0.90286 -2.30043,2.08403 -3.0398,3.45342zM2.08313,9.77166l1.86567,-1.99284l2.02518,1.0209c0.1652,0.08392 0.36224,0.07245 0.51672,-0.03015c0.15448,-0.1026 0.24274,-0.28063 0.23148,-0.46672c-0.01126,-0.18615 -0.1204,-0.35198 -0.28609,-0.43486l-1.7377,-0.876c1.25179,-1.23396 2.67907,-2.2728 4.23474,-3.08234l0.38131,1.92241c0.04825,0.24322 0.25993,0.41838 0.50601,0.41856c0.0342,0.00012 0.06834,-0.0033 0.10188,-0.01019c0.13433,-0.0271 0.25249,-0.10687 0.32846,-0.22179c0.07597,-0.11492 0.10351,-0.25561 0.07658,-0.39104l-0.43288,-2.18217c0.49977,-0.22301 1.00705,-0.42888 1.52522,-0.60349l0.90045,9.52313zM18.62119,1.56934l-0.97436,10.76991c-0.53301,-0.1632 -1.0826,-0.26507 -1.63836,-0.30364c0.00484,-0.01849 0.00854,-0.03723 0.0112,-0.05609v-1.04165c0,-0.28765 -0.23124,-0.52079 -0.51654,-0.52079c-0.2853,0 -0.51654,0.23321 -0.51654,0.52079v1.04165c0.00266,0.01886 0.00642,0.03754 0.0112,0.05597c-0.55613,0.03808 -1.10615,0.14013 -1.63927,0.30413l-0.97745,-10.80635c0.00236,-0.03546 0.02894,-0.06451 0.0638,-0.0697c0.33367,-0.09369 0.67127,-0.16595 1.0102,-0.22845l0.15733,1.42719c0.02894,0.26348 0.24958,0.46299 0.51248,0.46336c0.01931,0 0.03856,-0.00104 0.05775,-0.00305c0.28348,-0.03192 0.48773,-0.28936 0.45631,-0.57523l-0.16017,-1.45289c0.6815,-0.06201 1.36717,-0.06189 2.04861,0.00037l-0.16017,1.45252c-0.03142,0.28582 0.17277,0.54331 0.45625,0.57523c0.01919,0.00201 0.0385,0.00305 0.05781,0.00305c0.26296,-0.00037 0.48361,-0.19982 0.51254,-0.46336l0.15727,-1.42652c0.34063,0.0628 0.67992,0.13543 1.01559,0.22979c0.03838,0.01019 0.06259,0.04327 0.05454,0.10376zM19.58568,2.84242c0.51848,0.17449 1.026,0.38042 1.52595,0.60349l-0.43276,2.18168c-0.02694,0.13543 0.00061,0.27611 0.07658,0.39104c0.07597,0.11492 0.19413,0.19476 0.32846,0.22179c0.03354,0.00684 0.06768,0.01025 0.10188,0.01013c0.24601,-0.00018 0.45776,-0.17535 0.50595,-0.41856l0.38131,-1.92217c1.55622,0.80875 2.98374,1.84752 4.23523,3.08191l-1.73812,0.87619c-0.25424,0.12921 -0.35691,0.44139 -0.22955,0.69809c0.1273,0.2567 0.43663,0.36125 0.69167,0.23369l2.02112,-1.01888l1.8604,2.00401l-10.2288,2.5812zM29.01918,17.83763c-0.00048,0.52092 -0.1313,1.03329 -0.38034,1.48969l-0.53755,0.98519h-1.23381c-0.2853,0 -0.51654,0.23315 -0.51654,0.52079c0,0.28765 0.23124,0.52079 0.51654,0.52079h0.66545l-1.04131,1.90831c-0.27029,0.49015 -0.81243,0.76151 -1.36305,0.68216c-0.55068,-0.07934 -0.99573,-0.49284 -1.1191,-1.03969l-1.11008,-5.1776h6.11979zM22.57203,16.68564c-0.72405,-1.38282 -1.76924,-2.56838 -3.04639,-3.45543v0c1.29592,-0.32244 3.80029,-0.94857 8.66956,-2.16563l0.47168,1.10164c0.06647,0.1546 0.12295,0.31292 0.18511,0.46916l-1.59333,0.4016c-0.17924,0.04492 -0.32101,0.18292 -0.37186,0.36192c-0.05085,0.17901 -0.00303,0.37175 0.12549,0.50547c0.12845,0.13378 0.31799,0.18816 0.49711,0.14269l1.70259,-0.42912c0.31363,0.92953 0.55262,1.88298 0.71473,2.85115l0.03505,0.21667h-7.38974z" style="stroke-width: 0; stroke-linecap: butt; stroke-linejoin: miter; fill: rgb(131, 49, 167);" vector-effect="non-scaling-stroke"/></g><defs><path id="path-1673538955702183147" d="M30.98431,16.50962l-0.04013,-0.22021c-0.25769,-1.56128 -0.70414,-3.0849 -1.32921,-4.53675l-0.41617,-0.97244c0.35419,-0.0924 0.63271,-0.36821 0.73077,-0.72361c0.09807,-0.35539 0.00073,-0.73654 -0.25527,-1.00008l-2.5195,-2.69002c-1.49756,-1.50354 -3.23768,-2.73946 -5.14603,-3.65507c-0.03517,-0.02374 -0.07307,-0.04303 -0.11296,-0.05743c-0.65056,-0.30748 -1.31844,-0.57645 -2.00012,-0.80551l-0.25509,-0.08575l0.00666,-0.07342c0.07664,-0.55692 -0.27053,-1.084 -0.80941,-1.22877c-2.18075,-0.61375 -4.48645,-0.61405 -6.66738,-0.00104c-0.48246,0.13061 -0.81909,0.56999 -0.82254,1.07369c-0.00073,0.05017 0.0023,0.10034 0.00908,0.15002l0.0072,0.07946l-0.25437,0.08532c-0.68331,0.22973 -1.3527,0.49961 -2.00472,0.80832c-0.03753,0.01385 -0.07337,0.03204 -0.10672,0.05432c-1.91283,0.9186 -3.65688,2.15849 -5.15747,3.66655l-2.49832,2.66811c-0.26145,0.26195 -0.36363,0.64506 -0.26786,1.00393c0.09577,0.35887 0.37489,0.63846 0.73138,0.73282c-0.80499,1.74792 -1.39465,3.58861 -1.75592,5.48099c-0.11272,0.38847 -0.03317,0.80795 0.21387,1.12709c0.1833,0.18816 0.42822,0.30272 0.68906,0.32231v0.12524c0.00061,0.69657 0.17537,1.38178 0.50825,1.99223l0.64802,1.18758c0.01102,0.02478 0.02403,0.04858 0.03892,0.07123l1.46033,2.67629c0.47822,0.87076 1.44072,1.35261 2.4178,1.21028c0.97709,-0.14227 1.765,-0.87899 1.97929,-1.85064l1.22933,-5.73415c0.72714,-1.34071 1.97627,-3.07129 3.85986,-3.85611l0.01084,-0.00458c1.52401,-0.62907 3.23108,-0.63486 4.75928,-0.0163c0.01562,0.00787 0.03226,0.01349 0.04861,0.01996l0.01616,0.00659c0.00575,0.00201 0.01114,0.00519 0.01701,0.00702c1.66966,0.80734 3.01782,2.16258 3.82353,3.84354l1.22933,5.73403c0.21429,0.97158 1.00221,1.70837 1.97929,1.85064c0.97709,0.14227 1.93958,-0.33953 2.4178,-1.21028l1.45579,-2.66805c0.01749,-0.026 0.03257,-0.05359 0.04492,-0.08239l0.64645,-1.18465c0.333,-0.61039 0.50788,-1.2956 0.50849,-1.99223v-0.1203c0.28851,-0.02124 0.55462,-0.16479 0.73222,-0.39494c0.17755,-0.23028 0.25013,-0.52561 0.19964,-0.81284zM6.9958,22.90488c-0.12331,0.54685 -0.56842,0.96041 -1.1191,1.03969c-0.55068,0.07934 -1.09277,-0.19201 -1.36305,-0.68216l-1.04131,-1.90831h0.66648c0.2853,0 0.51654,-0.23315 0.51654,-0.52079c0,-0.28765 -0.23124,-0.52079 -0.51654,-0.52079h-1.23484l-0.53755,-0.98519c-0.24898,-0.4564 -0.37973,-0.96883 -0.3801,-1.48975v-0.11029h3.00832l3.11111,0.00037zM8.44057,16.68564h-3.59804l-3.59774,-0.00055c-0.06877,0.00153 -0.13759,-0.0022 -0.20582,-0.01117c0.00212,-0.07287 0.0109,-0.14538 0.02621,-0.21667c0.18221,-0.96133 0.4264,-1.90972 0.73083,-2.83906l1.70084,0.42876c0.17906,0.04547 0.36859,-0.00891 0.49711,-0.14269c0.12845,-0.13378 0.17634,-0.32653 0.12549,-0.50547c-0.05085,-0.17901 -0.19262,-0.317 -0.37186,-0.36192l-1.60011,-0.4033c0.20061,-0.53025 0.41442,-1.0555 0.65456,-1.57007l8.67833,2.16874c-1.26081,0.90286 -2.30043,2.08403 -3.0398,3.45342zM2.08313,9.77166l1.86567,-1.99284l2.02518,1.0209c0.1652,0.08392 0.36224,0.07245 0.51672,-0.03015c0.15448,-0.1026 0.24274,-0.28063 0.23148,-0.46672c-0.01126,-0.18615 -0.1204,-0.35198 -0.28609,-0.43486l-1.7377,-0.876c1.25179,-1.23396 2.67907,-2.2728 4.23474,-3.08234l0.38131,1.92241c0.04825,0.24322 0.25993,0.41838 0.50601,0.41856c0.0342,0.00012 0.06834,-0.0033 0.10188,-0.01019c0.13433,-0.0271 0.25249,-0.10687 0.32846,-0.22179c0.07597,-0.11492 0.10351,-0.25561 0.07658,-0.39104l-0.43288,-2.18217c0.49977,-0.22301 1.00705,-0.42888 1.52522,-0.60349l0.90045,9.52313zM18.62119,1.56934l-0.97436,10.76991c-0.53301,-0.1632 -1.0826,-0.26507 -1.63836,-0.30364c0.00484,-0.01849 0.00854,-0.03723 0.0112,-0.05609v-1.04165c0,-0.28765 -0.23124,-0.52079 -0.51654,-0.52079c-0.2853,0 -0.51654,0.23321 -0.51654,0.52079v1.04165c0.00266,0.01886 0.00642,0.03754 0.0112,0.05597c-0.55613,0.03808 -1.10615,0.14013 -1.63927,0.30413l-0.97745,-10.80635c0.00236,-0.03546 0.02894,-0.06451 0.0638,-0.0697c0.33367,-0.09369 0.67127,-0.16595 1.0102,-0.22845l0.15733,1.42719c0.02894,0.26348 0.24958,0.46299 0.51248,0.46336c0.01931,0 0.03856,-0.00104 0.05775,-0.00305c0.28348,-0.03192 0.48773,-0.28936 0.45631,-0.57523l-0.16017,-1.45289c0.6815,-0.06201 1.36717,-0.06189 2.04861,0.00037l-0.16017,1.45252c-0.03142,0.28582 0.17277,0.54331 0.45625,0.57523c0.01919,0.00201 0.0385,0.00305 0.05781,0.00305c0.26296,-0.00037 0.48361,-0.19982 0.51254,-0.46336l0.15727,-1.42652c0.34063,0.0628 0.67992,0.13543 1.01559,0.22979c0.03838,0.01019 0.06259,0.04327 0.05454,0.10376zM19.58568,2.84242c0.51848,0.17449 1.026,0.38042 1.52595,0.60349l-0.43276,2.18168c-0.02694,0.13543 0.00061,0.27611 0.07658,0.39104c0.07597,0.11492 0.19413,0.19476 0.32846,0.22179c0.03354,0.00684 0.06768,0.01025 0.10188,0.01013c0.24601,-0.00018 0.45776,-0.17535 0.50595,-0.41856l0.38131,-1.92217c1.55622,0.80875 2.98374,1.84752 4.23523,3.08191l-1.73812,0.87619c-0.25424,0.12921 -0.35691,0.44139 -0.22955,0.69809c0.1273,0.2567 0.43663,0.36125 0.69167,0.23369l2.02112,-1.01888l1.8604,2.00401l-10.2288,2.5812zM29.01918,17.83763c-0.00048,0.52092 -0.1313,1.03329 -0.38034,1.48969l-0.53755,0.98519h-1.23381c-0.2853,0 -0.51654,0.23315 -0.51654,0.52079c0,0.28765 0.23124,0.52079 0.51654,0.52079h0.66545l-1.04131,1.90831c-0.27029,0.49015 -0.81243,0.76151 -1.36305,0.68216c-0.55068,-0.07934 -0.99573,-0.49284 -1.1191,-1.03969l-1.11008,-5.1776h6.11979zM22.57203,16.68564c-0.72405,-1.38282 -1.76924,-2.56838 -3.04639,-3.45543v0c1.29592,-0.32244 3.80029,-0.94857 8.66956,-2.16563l0.47168,1.10164c0.06647,0.1546 0.12295,0.31292 0.18511,0.46916l-1.59333,0.4016c-0.17924,0.04492 -0.32101,0.18292 -0.37186,0.36192c-0.05085,0.17901 -0.00303,0.37175 0.12549,0.50547c0.12845,0.13378 0.31799,0.18816 0.49711,0.14269l1.70259,-0.42912c0.31363,0.92953 0.55262,1.88298 0.71473,2.85115l0.03505,0.21667h-7.38974z" vector-effect="non-scaling-stroke"/></defs></g></svg>