<svg version="1.2" xmlns="http://www.w3.org/2000/svg" xmlns:xlink="http://www.w3.org/1999/xlink" overflow="visible" preserveAspectRatio="none" viewBox="0 0 30.999999999999943 21.99999999999995" width="30.999999999999943" height="21.99999999999995"><g transform="translate(0, 0)"><g transform="translate(-1.55500612386561e-14, -7.136537691907526e-14) rotate(0)"><path d="M7.59726,18.48512c0.09433,0.10049 0.14785,0.23326 0.14985,0.37192c0.00115,0.13934 -0.0528,0.27328 -0.14985,0.37192c-0.05031,0.04616 -0.10795,0.08336 -0.17055,0.11c-0.12502,0.05592 -0.26749,0.05592 -0.39251,0c-0.06266,-0.02652 -0.12036,-0.06372 -0.17055,-0.11c-0.09723,-0.09852 -0.15124,-0.23258 -0.14985,-0.37192c0.00182,-0.13873 0.05534,-0.27156 0.14985,-0.37186c0.0494,-0.04739 0.10729,-0.08471 0.17055,-0.11c0.09227,-0.04168 0.19526,-0.05279 0.29413,-0.03174c0.03427,0.00516 0.06751,0.01584 0.09839,0.03174c0.03288,0.01136 0.06412,0.02719 0.09282,0.04708c0.02573,0.02099 0.05201,0.04193 0.07774,0.06286zM5.53063,18.48512c0.09433,0.10049 0.14785,0.23326 0.14985,0.37192c0.00115,0.13934 -0.0528,0.27328 -0.14985,0.37192c-0.05031,0.04616 -0.10795,0.08336 -0.17055,0.11c-0.12502,0.05592 -0.26749,0.05592 -0.39251,0c-0.06266,-0.02652 -0.12036,-0.06372 -0.17055,-0.11c-0.1998,-0.20656 -0.1998,-0.53723 0,-0.74379c0.0494,-0.04739 0.10729,-0.08471 0.17055,-0.11c0.19265,-0.07919 0.41322,-0.03609 0.56307,0.10994zM7.74711,14.66661c-0.00085,0.06844 -0.01489,0.13603 -0.04135,0.19901c-0.02628,0.06347 -0.06297,0.12191 -0.1085,0.17292c-0.14858,0.14892 -0.37072,0.19293 -0.56367,0.11172c-0.1929,-0.08121 -0.31895,-0.27187 -0.3198,-0.48364c0.00182,-0.13873 0.05534,-0.27162 0.14985,-0.37192c0.14779,-0.15113 0.37108,-0.19649 0.56494,-0.11491c0.1938,0.08158 0.31974,0.27396 0.31853,0.48684zM4.68851,14.86562c-0.02646,-0.06298 -0.0405,-0.13056 -0.04135,-0.19901c0.00182,-0.13873 0.05534,-0.27162 0.14985,-0.37192l0.07726,-0.06292c0.02888,-0.01995 0.0603,-0.03579 0.09336,-0.04708c0.02924,-0.0151 0.06048,-0.02584 0.09282,-0.03174c0.17025,-0.03499 0.3465,0.01811 0.47025,0.14167c0.09433,0.10049 0.14785,0.23326 0.14985,0.37192c-0.00085,0.06844 -0.01489,0.13603 -0.04135,0.19901c-0.02628,0.06347 -0.06297,0.12191 -0.1085,0.17292c-0.14936,0.14677 -0.36938,0.1917 -0.56313,0.11509c-0.06285,-0.02836 -0.12048,-0.06728 -0.17055,-0.11509c-0.04553,-0.05101 -0.08222,-0.10945 -0.1085,-0.17286zM6.67238,16.96083c-0.02507,0.06408 -0.06188,0.12277 -0.1085,0.17292c-0.05013,0.0477 -0.10777,0.08655 -0.17055,0.11503c-0.12636,0.04911 -0.26615,0.04911 -0.39251,0c-0.06351,-0.02707 -0.12139,-0.06617 -0.17055,-0.11509c-0.04662,-0.05015 -0.08343,-0.10883 -0.1085,-0.17292c-0.05516,-0.12676 -0.05516,-0.27119 0,-0.39795c0.02616,-0.06353 0.06285,-0.12203 0.1085,-0.17292l0.07719,-0.06292c0.02888,-0.01995 0.0603,-0.03579 0.09336,-0.04708c0.02924,-0.0151 0.06048,-0.02584 0.09282,-0.03174c0.06624,-0.01535 0.13508,-0.01535 0.20131,0c0.03427,0.00516 0.06751,0.01584 0.09839,0.03174c0.03179,0.01031 0.06151,0.02627 0.08779,0.04708c0.03082,0.02099 0.05703,0.04199 0.08276,0.06292c0.04565,0.05089 0.0824,0.10939 0.10856,0.17292c0.05516,0.12676 0.05516,0.27126 -0.00006,0.39801zM4.60581,16.96077c-0.02507,0.06408 -0.06188,0.12277 -0.1085,0.17292c-0.05013,0.04776 -0.10777,0.08661 -0.17055,0.11509c-0.12636,0.04911 -0.26615,0.04911 -0.39251,0c-0.06285,-0.02836 -0.12054,-0.06728 -0.17055,-0.11509c-0.0465,-0.05138 -0.08494,-0.10969 -0.11401,-0.17292c-0.02476,-0.06329 -0.03693,-0.13093 -0.03584,-0.19901c-0.00188,-0.06869 0.01229,-0.13689 0.04135,-0.19901c0.02616,-0.06353 0.06285,-0.12203 0.1085,-0.17292c0.12194,-0.12277 0.29625,-0.17593 0.46474,-0.14167c0.03427,0.00516 0.06751,0.01584 0.09839,0.03174c0.03179,0.01031 0.06151,0.02627 0.08779,0.04708c0.03082,0.02099 0.05703,0.04199 0.08276,0.06292c0.04565,0.05089 0.08234,0.10939 0.1085,0.17292c0.05516,0.12676 0.05516,0.27126 -0.00006,0.39795zM9.66378,12.19941c0.09433,0.10049 0.14785,0.23326 0.14985,0.37192c0,0.28924 -0.23128,0.52379 -0.51663,0.52379c-0.28529,0 -0.51663,-0.23449 -0.51663,-0.52379c0.00182,-0.13873 0.05534,-0.27156 0.14985,-0.37186c0.0494,-0.04739 0.10729,-0.08471 0.17055,-0.11c0.19241,-0.08176 0.41443,-0.03843 0.56301,0.10994zM8.22239,10.27718c0.05516,0.12676 0.05516,0.27119 0,0.39795c-0.02628,0.06347 -0.06297,0.12191 -0.1085,0.17292c-0.05146,0.04598 -0.1088,0.08471 -0.17055,0.11503c-0.12636,0.04911 -0.26615,0.04911 -0.39251,0c-0.06182,-0.0302 -0.11921,-0.06893 -0.17055,-0.11509c-0.04553,-0.05101 -0.08222,-0.10945 -0.1085,-0.17292c-0.05516,-0.12676 -0.05516,-0.27119 0,-0.39795c0.02616,-0.06353 0.06285,-0.12203 0.1085,-0.17292c0.20718,-0.19385 0.5265,-0.19385 0.73362,0c0.04565,0.05089 0.0824,0.10939 0.1085,0.17298zM10.80553,10.27724c0.09736,0.23117 0.01853,0.49985 -0.18751,0.63956c-0.20603,0.13971 -0.48103,0.11086 -0.65455,-0.06869c-0.04541,-0.05224 -0.08373,-0.11043 -0.11401,-0.17292c-0.02476,-0.06335 -0.03693,-0.13093 -0.03584,-0.19901c-0.00188,-0.06869 0.01229,-0.13689 0.04135,-0.19901c0.02616,-0.06353 0.06285,-0.12203 0.1085,-0.17292l0.07726,-0.06292c0.02888,-0.01995 0.0603,-0.03579 0.09336,-0.04708c0.03076,-0.0159 0.06381,-0.02664 0.0979,-0.03174c0.16868,-0.03499 0.34341,0.01823 0.46517,0.14167c0.04565,0.05095 0.08234,0.10945 0.10838,0.17304zM13.91063,10.67507c-0.02991,0.06261 -0.06811,0.1208 -0.11352,0.17292c-0.14858,0.14892 -0.37072,0.19293 -0.56367,0.11172c-0.1929,-0.08121 -0.31895,-0.27187 -0.3198,-0.48364c0.00085,-0.06844 0.01489,-0.13603 0.04141,-0.19901c0.04704,-0.13155 0.14924,-0.23516 0.27899,-0.28286c0.09421,-0.04199 0.19895,-0.0531 0.2997,-0.03174c0.03227,0.00602 0.06351,0.0167 0.09282,0.03174c0.03288,0.01136 0.06412,0.02719 0.09282,0.04708c0.02573,0.02099 0.05195,0.04199 0.07768,0.06292c0.04553,0.05205 0.08373,0.11025 0.11352,0.17292c0.04844,0.12811 0.04844,0.2699 0.00006,0.39795zM10.847,6.28564c0.00109,0.17519 -0.0844,0.33933 -0.22771,0.43724c-0.14331,0.09791 -0.32543,0.11657 -0.48521,0.04978c-0.06285,-0.02836 -0.12054,-0.06728 -0.17055,-0.11509c-0.09723,-0.09852 -0.15124,-0.23258 -0.14985,-0.37192c-0.00188,-0.06869 0.01229,-0.13689 0.04135,-0.19901c0.02616,-0.06353 0.06285,-0.12203 0.1085,-0.17292c0.14779,-0.15113 0.37108,-0.19649 0.56494,-0.11491c0.1938,0.08164 0.31974,0.27402 0.31853,0.48684zM13.06343,6.6575c-0.09717,-0.09852 -0.15118,-0.23252 -0.14985,-0.37186c0,-0.2893 0.23128,-0.52379 0.51663,-0.52379c0.28535,0 0.51663,0.23449 0.51663,0.52379c0.00133,0.13934 -0.05267,0.27334 -0.14985,0.37186c-0.09717,0.09852 -0.22934,0.15328 -0.36678,0.15192c-0.13744,0.00135 -0.26961,-0.0534 -0.36678,-0.15192zM15.81664,10.95965c-0.1929,-0.08121 -0.31895,-0.27187 -0.3198,-0.48364c0.00085,-0.06844 0.01489,-0.13603 0.04135,-0.19901c0.02616,-0.06353 0.06285,-0.12203 0.1085,-0.17292c0.12194,-0.12277 0.29619,-0.17586 0.46468,-0.14167c0.03427,0.00516 0.06751,0.01584 0.09839,0.03174c0.03288,0.01136 0.06412,0.02719 0.09282,0.04708c0.02573,0.02099 0.05195,0.04199 0.07768,0.06292c0.04565,0.05095 0.08234,0.10939 0.1085,0.17292c0.02882,0.06218 0.04299,0.13032 0.04135,0.19901c0.00091,0.06814 -0.01144,0.13572 -0.03633,0.19901c-0.02991,0.06261 -0.06811,0.1208 -0.11352,0.17292c-0.14852,0.14892 -0.37066,0.19299 -0.56361,0.11166zM6.34701,12.94326c-0.09723,-0.09852 -0.15124,-0.23258 -0.14985,-0.37192c0,-0.2893 0.23128,-0.52379 0.51663,-0.52379c0.28535,0 0.51663,0.23449 0.51663,0.52379c0.00109,0.17519 -0.0844,0.33927 -0.22771,0.43718c-0.14331,0.09791 -0.32543,0.11657 -0.48521,0.04978c-0.06285,-0.0283 -0.12048,-0.06722 -0.17049,-0.11503zM14.83024,12.19941c0.09433,0.10049 0.14785,0.23326 0.14985,0.37192c0,0.28924 -0.23128,0.52379 -0.51663,0.52379c-0.28535,0 -0.51663,-0.23449 -0.51663,-0.52379c0.00182,-0.13873 0.05534,-0.27156 0.14985,-0.37186c0.05025,-0.04628 0.10789,-0.08348 0.17055,-0.11c0.19235,-0.08232 0.41467,-0.03892 0.56301,0.10994zM12.2471,12.19941c0.09433,0.10049 0.14785,0.23326 0.14985,0.37192c0.00115,0.13934 -0.0528,0.27328 -0.14985,0.37192c-0.05013,0.04776 -0.10777,0.08661 -0.17055,0.11509c-0.12636,0.04911 -0.26615,0.04911 -0.39251,0c-0.06285,-0.02836 -0.12054,-0.06728 -0.17055,-0.11509c-0.09723,-0.09852 -0.15124,-0.23258 -0.14985,-0.37192c0.00182,-0.13873 0.05534,-0.27156 0.14985,-0.37186c0.14961,-0.14658 0.37047,-0.18974 0.56307,-0.11c0.06321,0.02535 0.12109,0.06267 0.17055,0.10994zM8.93022,8.75277c-0.09717,-0.09852 -0.15118,-0.23252 -0.14985,-0.37186c0.00176,-0.13873 0.05534,-0.27162 0.14985,-0.37192c0.20591,-0.1971 0.52771,-0.1971 0.73362,0c0.09433,0.10049 0.14785,0.23326 0.14985,0.37192c0.00133,0.13934 -0.05267,0.27334 -0.14985,0.37186c-0.09717,0.09852 -0.22934,0.15328 -0.36678,0.15192c-0.13744,0.00135 -0.26967,-0.0534 -0.36684,-0.15192zM14.83031,8.00892c0.09433,0.10049 0.14785,0.23326 0.14985,0.37192c0,0.2893 -0.23128,0.52379 -0.51663,0.52379c-0.28535,0 -0.51663,-0.23449 -0.51663,-0.52379c0.00182,-0.13873 0.05534,-0.27162 0.14985,-0.37192c0.12412,-0.12289 0.30006,-0.17593 0.47025,-0.14167c0.03227,0.00602 0.06351,0.0167 0.09282,0.03174c0.03288,0.01136 0.06412,0.02719 0.09282,0.04708c0.02573,0.02099 0.05195,0.04193 0.07768,0.06286zM12.39689,8.38091c0,0.2893 -0.23128,0.52379 -0.51663,0.52379c-0.28535,0 -0.51663,-0.23449 -0.51663,-0.52379c0.00182,-0.13873 0.05534,-0.27162 0.14985,-0.37192c0.14779,-0.15113 0.37108,-0.19649 0.56494,-0.11491c0.1938,0.08158 0.31974,0.27396 0.31847,0.48684zM12.39695,4.71421c0.00091,0.06814 -0.01144,0.13572 -0.03633,0.19901c-0.0287,0.06329 -0.06702,0.12166 -0.11352,0.17292c-0.1493,0.14677 -0.36932,0.1917 -0.56307,0.11509c-0.06285,-0.02836 -0.12048,-0.06728 -0.17055,-0.11509c-0.04662,-0.05015 -0.08343,-0.10883 -0.1085,-0.17292c-0.02646,-0.06298 -0.0405,-0.13056 -0.04135,-0.19901c0.00182,-0.13873 0.05534,-0.27162 0.14985,-0.37192c0.14779,-0.15113 0.37108,-0.19649 0.56494,-0.11491c0.1938,0.08164 0.31974,0.27402 0.31853,0.48684zM16.53016,12.57134c0,-0.2893 0.23128,-0.52379 0.51663,-0.52379c0.28535,0 0.51663,0.23449 0.51663,0.52379c0.00115,0.13934 -0.0528,0.27328 -0.14985,0.37192c-0.05013,0.04776 -0.10777,0.08661 -0.17055,0.11509c-0.12636,0.04911 -0.26615,0.04911 -0.39251,0c-0.06285,-0.02836 -0.12054,-0.06728 -0.17055,-0.11509c-0.09723,-0.09852 -0.15124,-0.23258 -0.14979,-0.37192zM3.46405,18.48512c0.09433,0.10049 0.14785,0.23326 0.14985,0.37192c0.00018,0.13916 -0.05364,0.27273 -0.14985,0.37192c-0.05031,0.04616 -0.10795,0.08336 -0.17055,0.10994c-0.06212,0.02682 -0.12878,0.04107 -0.19629,0.04193c-0.13744,0.00135 -0.26961,-0.0534 -0.36678,-0.15192c-0.09717,-0.09852 -0.15118,-0.23252 -0.14985,-0.37186c0.00182,-0.13873 0.05534,-0.27156 0.14985,-0.37186c0.0494,-0.04739 0.10729,-0.08471 0.17055,-0.11c0.19265,-0.07919 0.41322,-0.03609 0.56307,0.10994zM16.89694,19.00897c0.09433,0.10049 0.14785,0.23326 0.14985,0.37192c0.0017,0.17519 -0.08398,0.33945 -0.22777,0.43662c-0.14379,0.09717 -0.32628,0.11424 -0.48515,0.04524c-0.06266,-0.02652 -0.12036,-0.06372 -0.17055,-0.11c-0.04553,-0.05101 -0.08222,-0.10945 -0.1085,-0.17292c-0.02646,-0.06298 -0.0405,-0.13056 -0.04135,-0.19901c0.00182,-0.13867 0.05534,-0.27156 0.14985,-0.37186c0.02573,-0.02099 0.05146,-0.04199 0.08276,-0.06292c0.02622,-0.02093 0.05594,-0.03689 0.08779,-0.04708c0.03076,-0.0159 0.06381,-0.02664 0.0979,-0.03174c0.06642,-0.01535 0.13538,-0.01535 0.2018,0c0.03227,0.00602 0.06351,0.0167 0.09282,0.03174c0.03288,0.01136 0.06412,0.02719 0.09282,0.04708c0.02573,0.02099 0.05201,0.04193 0.07774,0.06292zM19.02963,19.09012c0.13744,0.2084 0.10971,0.48634 -0.06611,0.66258c-0.04947,0.04727 -0.10735,0.08459 -0.17055,0.11c-0.06212,0.02682 -0.12878,0.04107 -0.19629,0.04193c-0.13738,0.00135 -0.26961,-0.0534 -0.36678,-0.15192c-0.09717,-0.09852 -0.15118,-0.23252 -0.14985,-0.37186c0.00182,-0.13873 0.05534,-0.27156 0.14985,-0.37186c0.0494,-0.04739 0.10729,-0.08471 0.17055,-0.11c0.22783,-0.09742 0.49174,-0.01719 0.62918,0.19115zM16.89688,14.81848c0.09433,0.10049 0.14785,0.23326 0.14985,0.37192c0.00163,0.06869 -0.01253,0.13682 -0.04135,0.19901c-0.02628,0.06347 -0.06297,0.12191 -0.1085,0.17292c-0.1493,0.14677 -0.36932,0.1917 -0.56307,0.11509c-0.06285,-0.02836 -0.12048,-0.06728 -0.17055,-0.11509c-0.04553,-0.05101 -0.08222,-0.10945 -0.1085,-0.17292c-0.02646,-0.06298 -0.0405,-0.13056 -0.04135,-0.19901c0.00182,-0.13867 0.05534,-0.27156 0.14985,-0.37186c0.02573,-0.02099 0.05146,-0.04199 0.08276,-0.06292c0.02622,-0.02093 0.05594,-0.03689 0.08779,-0.04708c0.03076,-0.0159 0.06381,-0.02664 0.0979,-0.03174c0.16868,-0.03425 0.34311,0.01891 0.46517,0.14167zM18.12146,15.38929c-0.02646,-0.06298 -0.0405,-0.13056 -0.04135,-0.19901c0.00182,-0.13867 0.05534,-0.27156 0.14985,-0.37186c0.05025,-0.04628 0.10789,-0.08348 0.17055,-0.11c0.09421,-0.04199 0.19895,-0.0531 0.2997,-0.03174c0.03227,0.00602 0.06351,0.0167 0.09282,0.03174c0.03288,0.01136 0.06412,0.02719 0.09282,0.04708c0.02573,0.02099 0.05195,0.04199 0.07768,0.06292c0.09433,0.10049 0.14785,0.23326 0.14985,0.37192c0.00091,0.06814 -0.01144,0.13572 -0.03633,0.19901c-0.0287,0.06329 -0.06702,0.12166 -0.11352,0.17292c-0.20373,0.20257 -0.52989,0.20257 -0.73362,0c-0.04553,-0.05101 -0.08222,-0.10945 -0.10844,-0.17298zM18.08005,17.28556c0.00091,0.06814 -0.01144,0.13572 -0.03633,0.19901c-0.0287,0.06329 -0.06702,0.12166 -0.11352,0.17292c-0.05013,0.04776 -0.10777,0.08661 -0.17055,0.11509c-0.12636,0.04911 -0.26615,0.04911 -0.39251,0c-0.06194,-0.02719 -0.11812,-0.06623 -0.16547,-0.11509c-0.04977,-0.04862 -0.08852,-0.10761 -0.11352,-0.17292c-0.08349,-0.19563 -0.0382,-0.4233 0.11352,-0.57087c0.20519,-0.19385 0.52335,-0.19385 0.72854,0c0.04565,0.05095 0.08234,0.10939 0.1085,0.17292c0.02882,0.06218 0.04299,0.13032 0.04135,0.19894zM20.10533,17.48462c-0.02507,0.06408 -0.06188,0.12277 -0.1085,0.17292c-0.04922,0.0488 -0.1071,0.08784 -0.17055,0.11503c-0.12636,0.04911 -0.26615,0.04911 -0.39251,0c-0.06285,-0.02836 -0.12048,-0.06728 -0.17055,-0.11509c-0.04662,-0.05015 -0.08343,-0.10883 -0.1085,-0.17292c-0.05516,-0.12676 -0.05516,-0.27119 0,-0.39795c0.02616,-0.06353 0.06285,-0.12203 0.1085,-0.17292c0.12375,-0.12363 0.3,-0.17672 0.47025,-0.14167c0.03227,0.00602 0.06351,0.0167 0.09282,0.03174c0.03288,0.01136 0.06412,0.02719 0.09282,0.04708c0.02573,0.02099 0.05195,0.04199 0.07768,0.06292c0.04571,0.05089 0.0824,0.10939 0.10856,0.17292c0.05516,0.12676 0.05516,0.27119 0,0.39795zM21.03009,19.00891c0.09433,0.10049 0.14785,0.23326 0.14985,0.37192c0.00115,0.13928 -0.0528,0.27322 -0.14985,0.37186c-0.05031,0.04616 -0.10795,0.08336 -0.17055,0.11c-0.06212,0.02682 -0.12878,0.04107 -0.19629,0.04193c-0.13744,0.00135 -0.26961,-0.0534 -0.36678,-0.15192c-0.09717,-0.09852 -0.15118,-0.23252 -0.14985,-0.37186c0.00182,-0.13873 0.05534,-0.27156 0.14985,-0.37186c0.05025,-0.04628 0.10789,-0.08348 0.17055,-0.11c0.19259,-0.07968 0.41346,-0.03658 0.56307,0.10994zM30.5412,17.89019c-0.64401,1.24744 -1.92205,2.02505 -3.31077,2.01443h-3.88637c-0.01362,0.02713 -0.02264,0.05537 -0.03693,0.08238c-0.64498,1.24664 -1.9229,2.02346 -3.31132,2.0129h-16.23054c-1.3912,-0.00626 -2.66676,-0.78639 -3.321,-2.03125c-0.65425,-1.2448 -0.58153,-2.75337 0.18932,-3.92758l8.11657,-12.23827c0.65794,-1.01118 1.75211,-1.64343 2.9455,-1.70205c1.1934,-0.05862 2.34278,0.46345 3.09402,1.40532l1.19303,-1.80112c0.69596,-1.06519 1.87241,-1.70543 3.13259,-1.70494c1.26018,0.00049 2.43614,0.64171 3.13126,1.70745l8.10997,12.23784c0.78593,1.17599 0.85719,2.6988 0.18466,3.94489zM13.94733,20.95226v-5.23757c-0.00018,-0.28918 -0.23134,-0.5236 -0.51663,-0.52379h-3.10038c-0.28523,0.00018 -0.51645,0.23461 -0.51663,0.52379v5.23757zM22.26576,16.62016l-8.113,-12.23434c-0.50276,-0.77485 -1.35602,-1.24155 -2.27079,-1.24204c-0.91477,-0.00049 -1.76851,0.46523 -2.27212,1.23946l-0.00151,0.00258l-8.115,12.23686c-0.56912,0.85643 -0.61877,1.96342 -0.12866,2.86865c0.46728,0.90424 1.39374,1.46806 2.4006,1.46093h5.01517v-5.23757c0.00091,-0.86748 0.69433,-1.5705 1.54995,-1.57143h3.10038c0.85562,0.00092 1.54904,0.70395 1.54995,1.57143v5.23757h5.01511c1.00686,0.00712 1.93332,-0.55669 2.4006,-1.46093c0.49041,-0.90633 0.43998,-2.01456 -0.13066,-2.87117zM29.49729,14.5274l-8.10997,-12.2384c-0.50349,-0.7746 -1.35705,-1.241 -2.272,-1.24149c-0.91501,-0.00055 -1.76906,0.46492 -2.2734,1.23891l-1.41735,2.13996l7.70093,11.6121c0.54817,0.82696 0.75312,1.83955 0.57057,2.81856h3.5343c1.00692,0.00712 1.93326,-0.55694 2.40012,-1.46143c0.48914,-0.90584 0.43774,-2.01296 -0.1332,-2.86822zM21.18006,8.38085c0.00109,0.17519 -0.0844,0.33933 -0.22771,0.43724c-0.14331,0.09791 -0.32543,0.11657 -0.48521,0.04978c-0.06285,-0.02836 -0.12054,-0.06728 -0.17055,-0.11509c-0.09723,-0.09852 -0.15124,-0.23258 -0.14985,-0.37192c0.00182,-0.13873 0.05534,-0.27162 0.14985,-0.37192c0.12369,-0.12363 0.3,-0.17672 0.47025,-0.14167c0.03227,0.00602 0.06351,0.0167 0.09282,0.03174c0.03288,0.01136 0.06412,0.02719 0.09282,0.04708c0.02573,0.02099 0.05195,0.04199 0.07768,0.06292c0.09427,0.10042 0.14779,0.2332 0.14991,0.37186zM18.08005,4.19036c0.00218,0.06875 -0.01199,0.13701 -0.04135,0.19901c-0.02507,0.06408 -0.06188,0.12277 -0.1085,0.17292c-0.1493,0.14677 -0.36932,0.1917 -0.56307,0.11509c-0.06285,-0.02836 -0.12054,-0.06728 -0.17055,-0.11509c-0.04662,-0.05015 -0.08343,-0.10883 -0.1085,-0.17292c-0.02694,-0.0628 -0.04105,-0.1305 -0.04135,-0.19901c0.00048,-0.21165 0.12708,-0.402 0.3204,-0.48186c0.15893,-0.06642 0.34008,-0.04831 0.48309,0.04837c0.14307,0.09668 0.22922,0.25922 0.22983,0.43349zM20.18797,4.38937c-0.08246,-0.19324 -0.03935,-0.41796 0.1085,-0.56577c0.20519,-0.19901 0.5285,-0.19901 0.73362,0c0.09499,0.09791 0.14876,0.22945 0.14985,0.36677c-0.0003,0.0685 -0.01435,0.13621 -0.04135,0.19901c-0.02507,0.06408 -0.06188,0.12277 -0.1085,0.17292c-0.20373,0.20257 -0.52989,0.20257 -0.73362,0c-0.04662,-0.05015 -0.08343,-0.10883 -0.1085,-0.17292zM23.04968,8.86443c-0.1929,-0.08121 -0.31895,-0.27187 -0.3198,-0.48364c0.00182,-0.13873 0.05534,-0.27162 0.14985,-0.37192c0.12236,-0.12203 0.29625,-0.17507 0.46474,-0.14167c0.03427,0.00516 0.06751,0.01584 0.09839,0.03174c0.03288,0.01136 0.06412,0.02719 0.09282,0.04708c0.02573,0.02099 0.05195,0.04199 0.07768,0.06292c0.09433,0.10049 0.14785,0.23326 0.14985,0.37192c0.00115,0.13934 -0.0528,0.27328 -0.14985,0.37192c-0.14852,0.14892 -0.37072,0.19299 -0.56367,0.11166zM22.1719,10.27712c0.02882,0.06218 0.04299,0.13032 0.04135,0.19901c0.00091,0.06807 -0.01144,0.13566 -0.03633,0.19894c-0.02991,0.06261 -0.06811,0.1208 -0.11352,0.17292c-0.20373,0.20257 -0.52989,0.20257 -0.73362,0c-0.04553,-0.05101 -0.08222,-0.10945 -0.1085,-0.17292c-0.05516,-0.12676 -0.05516,-0.27119 0,-0.39795c0.02616,-0.06353 0.06285,-0.12203 0.1085,-0.17292c0.20718,-0.19385 0.5265,-0.19385 0.73362,0c0.04565,0.05089 0.08234,0.10939 0.1085,0.17292zM22.2132,6.28564c0,0.2893 -0.23128,0.52379 -0.51663,0.52379c-0.28535,0 -0.51663,-0.23449 -0.51663,-0.52379c0.00182,-0.13873 0.05534,-0.27162 0.14985,-0.37192c0.14779,-0.15113 0.37108,-0.19649 0.56494,-0.11491c0.19386,0.08164 0.31974,0.27402 0.31847,0.48684zM19.48014,5.91371c0.09433,0.10049 0.14785,0.23326 0.14985,0.37192c0.00109,0.17519 -0.0844,0.33927 -0.22771,0.43718c-0.14331,0.09791 -0.32543,0.11657 -0.48521,0.04978c-0.06194,-0.02719 -0.11812,-0.06623 -0.16547,-0.11509c-0.04856,-0.04763 -0.08718,-0.10466 -0.11352,-0.16776c-0.02597,-0.06488 -0.04002,-0.13406 -0.04135,-0.2041c0.00133,-0.13983 0.05697,-0.27346 0.15487,-0.37192c0.20519,-0.19391 0.52335,-0.19391 0.72854,0zM19.5887,2.41993c0.02882,0.06218 0.04299,0.13032 0.04135,0.19901c0.00115,0.13934 -0.0528,0.27328 -0.14985,0.37192c-0.05013,0.04776 -0.10777,0.08661 -0.17055,0.11509c-0.19374,0.07661 -0.41376,0.03167 -0.56307,-0.11509c-0.04553,-0.05101 -0.08222,-0.10945 -0.1085,-0.17292c-0.05516,-0.12676 -0.05516,-0.27119 0,-0.39795c0.025,-0.06255 0.06188,-0.11958 0.1085,-0.16776c0.02446,-0.02412 0.05025,-0.04684 0.07719,-0.06801c0.02888,-0.01995 0.0603,-0.03579 0.09336,-0.04708c0.03076,-0.0159 0.06381,-0.02664 0.0979,-0.03174c0.06642,-0.01535 0.13538,-0.01535 0.2018,0c0.03227,0.00602 0.06351,0.0167 0.09282,0.03174c0.03288,0.01136 0.06412,0.02719 0.09282,0.04708c0.02712,0.02118 0.05304,0.04389 0.07768,0.06801c0.04668,0.04819 0.08349,0.10515 0.10856,0.1677zM23.80455,10.67507c-0.08349,-0.19563 -0.03826,-0.4233 0.11358,-0.57087c0.02373,-0.02357 0.04977,-0.04463 0.07768,-0.06292c0.02622,-0.02093 0.05594,-0.03689 0.08779,-0.04708c0.03076,-0.0159 0.06381,-0.02664 0.0979,-0.03174c0.06642,-0.01535 0.13538,-0.01535 0.2018,0c0.03227,0.00602 0.06351,0.0167 0.09282,0.03174c0.03288,0.01136 0.06412,0.02719 0.09282,0.04708c0.02573,0.02099 0.05195,0.04199 0.07768,0.06292c0.04565,0.05095 0.08234,0.10939 0.1085,0.17292c0.06811,0.16107 0.0514,0.34608 -0.0445,0.49193c-0.0959,0.14585 -0.25792,0.23271 -0.43078,0.23086c-0.1361,0.00233 -0.26712,-0.05273 -0.36176,-0.15192c-0.04874,-0.04948 -0.08731,-0.10828 -0.11352,-0.17292zM26.30518,17.08667c0.05516,0.12676 0.05516,0.27119 0,0.39795c-0.02507,0.06408 -0.06188,0.12277 -0.1085,0.17292c-0.05013,0.0477 -0.10777,0.08655 -0.17055,0.11503c-0.12636,0.04911 -0.26615,0.04911 -0.39251,0c-0.06285,-0.02836 -0.12054,-0.06728 -0.17055,-0.11509c-0.04662,-0.05015 -0.08343,-0.10883 -0.1085,-0.17292c-0.05516,-0.12676 -0.05516,-0.27119 0,-0.39795c0.02616,-0.06353 0.06285,-0.12203 0.1085,-0.17292c0.02573,-0.02099 0.05146,-0.04199 0.08276,-0.06292c0.02622,-0.02093 0.05594,-0.03689 0.08779,-0.04708c0.03076,-0.0159 0.06381,-0.02664 0.0979,-0.03174c0.06642,-0.01535 0.13538,-0.01535 0.2018,0c0.03227,0.00602 0.06351,0.0167 0.09282,0.03174c0.03288,0.01136 0.06412,0.02719 0.09282,0.04708c0.02573,0.02099 0.05195,0.04199 0.07768,0.06292c0.04565,0.05095 0.08234,0.10945 0.10856,0.17298zM24.27989,13.09519c0.00109,0.17519 -0.0844,0.33933 -0.22771,0.43724c-0.14331,0.09791 -0.32543,0.11657 -0.48521,0.04978c-0.06285,-0.02836 -0.12048,-0.06728 -0.17055,-0.11509c-0.09723,-0.09852 -0.15124,-0.23258 -0.14985,-0.37192c0.00182,-0.13873 0.05534,-0.27162 0.14985,-0.37192l0.07726,-0.06292c0.02888,-0.01995 0.0603,-0.03579 0.09336,-0.04708c0.03076,-0.0159 0.06381,-0.02664 0.0979,-0.03174c0.06642,-0.01535 0.13538,-0.01535 0.2018,0c0.03227,0.00602 0.06351,0.0167 0.09282,0.03174c0.03288,0.01136 0.06412,0.02719 0.09282,0.04708c0.02573,0.02099 0.05195,0.04199 0.07768,0.06292c0.09427,0.10042 0.14779,0.2332 0.14985,0.37192zM25.3545,13.29413c-0.02646,-0.06298 -0.0405,-0.13056 -0.04135,-0.19901c0.00182,-0.13873 0.05534,-0.27162 0.14985,-0.37192c0.12412,-0.12295 0.30006,-0.17599 0.47025,-0.14174c0.03227,0.00602 0.06351,0.0167 0.09282,0.03174c0.06327,0.02529 0.12115,0.06261 0.17055,0.11c0.09433,0.10049 0.14785,0.23326 0.14985,0.37192c-0.00085,0.06844 -0.01489,0.13603 -0.04135,0.19901c-0.02628,0.06347 -0.06297,0.12191 -0.1085,0.17292c-0.05013,0.04776 -0.10777,0.08661 -0.17055,0.11509c-0.19374,0.07661 -0.41376,0.03167 -0.56307,-0.11509c-0.04559,-0.05101 -0.08222,-0.10945 -0.1085,-0.17292zM25.31309,15.1904c0,0.2893 -0.23128,0.52379 -0.51663,0.52379c-0.28535,0 -0.51663,-0.23449 -0.51663,-0.52379c0.00176,-0.13873 0.05534,-0.27162 0.14985,-0.37192c0.05025,-0.04628 0.10789,-0.08348 0.17055,-0.11c0.19241,-0.08176 0.41443,-0.03836 0.56307,0.11c0.09433,0.10042 0.14779,0.23326 0.14979,0.37192zM27.22988,14.81854c0.09433,0.10049 0.14785,0.23326 0.14985,0.37192c-0.00085,0.06844 -0.01489,0.13603 -0.04135,0.19901c-0.02507,0.06408 -0.06188,0.12277 -0.1085,0.17292c-0.05013,0.04776 -0.10777,0.08661 -0.17055,0.11509c-0.19374,0.07661 -0.41376,0.03167 -0.56307,-0.11509c-0.04553,-0.05101 -0.08222,-0.10945 -0.1085,-0.17292c-0.02646,-0.06298 -0.0405,-0.13056 -0.04135,-0.19901c0.00176,-0.13873 0.05534,-0.27162 0.14985,-0.37192c0.02573,-0.02099 0.05146,-0.04199 0.08276,-0.06292c0.02622,-0.02093 0.05594,-0.03689 0.08779,-0.04708c0.03076,-0.0159 0.06381,-0.02664 0.0979,-0.03174c0.16868,-0.03425 0.34305,0.01891 0.46517,0.14174zM28.37672,17.08661c0.04844,0.12811 0.04844,0.26984 0,0.39795c-0.02991,0.06261 -0.06811,0.1208 -0.11352,0.17292c-0.04922,0.0488 -0.1071,0.08784 -0.17049,0.11503c-0.12636,0.04911 -0.26615,0.04911 -0.39251,0c-0.06285,-0.02836 -0.12048,-0.06728 -0.17055,-0.11509c-0.04662,-0.05015 -0.08343,-0.10883 -0.1085,-0.17292c-0.05516,-0.12676 -0.05516,-0.27119 0,-0.39795c0.04704,-0.13155 0.14924,-0.23516 0.27899,-0.28286c0.12515,-0.05525 0.26737,-0.05525 0.39251,0c0.06321,0.02541 0.12109,0.06273 0.17055,0.11c0.04553,0.05205 0.08373,0.11025 0.11352,0.17292z" style="stroke-width: 0; stroke-linecap: butt; stroke-linejoin: miter; fill: rgb(131, 49, 167);" vector-effect="non-scaling-stroke"/></g><defs><path id="path-1673538955703183196" d="M7.59726,18.48512c0.09433,0.10049 0.14785,0.23326 0.14985,0.37192c0.00115,0.13934 -0.0528,0.27328 -0.14985,0.37192c-0.05031,0.04616 -0.10795,0.08336 -0.17055,0.11c-0.12502,0.05592 -0.26749,0.05592 -0.39251,0c-0.06266,-0.02652 -0.12036,-0.06372 -0.17055,-0.11c-0.09723,-0.09852 -0.15124,-0.23258 -0.14985,-0.37192c0.00182,-0.13873 0.05534,-0.27156 0.14985,-0.37186c0.0494,-0.04739 0.10729,-0.08471 0.17055,-0.11c0.09227,-0.04168 0.19526,-0.05279 0.29413,-0.03174c0.03427,0.00516 0.06751,0.01584 0.09839,0.03174c0.03288,0.01136 0.06412,0.02719 0.09282,0.04708c0.02573,0.02099 0.05201,0.04193 0.07774,0.06286zM5.53063,18.48512c0.09433,0.10049 0.14785,0.23326 0.14985,0.37192c0.00115,0.13934 -0.0528,0.27328 -0.14985,0.37192c-0.05031,0.04616 -0.10795,0.08336 -0.17055,0.11c-0.12502,0.05592 -0.26749,0.05592 -0.39251,0c-0.06266,-0.02652 -0.12036,-0.06372 -0.17055,-0.11c-0.1998,-0.20656 -0.1998,-0.53723 0,-0.74379c0.0494,-0.04739 0.10729,-0.08471 0.17055,-0.11c0.19265,-0.07919 0.41322,-0.03609 0.56307,0.10994zM7.74711,14.66661c-0.00085,0.06844 -0.01489,0.13603 -0.04135,0.19901c-0.02628,0.06347 -0.06297,0.12191 -0.1085,0.17292c-0.14858,0.14892 -0.37072,0.19293 -0.56367,0.11172c-0.1929,-0.08121 -0.31895,-0.27187 -0.3198,-0.48364c0.00182,-0.13873 0.05534,-0.27162 0.14985,-0.37192c0.14779,-0.15113 0.37108,-0.19649 0.56494,-0.11491c0.1938,0.08158 0.31974,0.27396 0.31853,0.48684zM4.68851,14.86562c-0.02646,-0.06298 -0.0405,-0.13056 -0.04135,-0.19901c0.00182,-0.13873 0.05534,-0.27162 0.14985,-0.37192l0.07726,-0.06292c0.02888,-0.01995 0.0603,-0.03579 0.09336,-0.04708c0.02924,-0.0151 0.06048,-0.02584 0.09282,-0.03174c0.17025,-0.03499 0.3465,0.01811 0.47025,0.14167c0.09433,0.10049 0.14785,0.23326 0.14985,0.37192c-0.00085,0.06844 -0.01489,0.13603 -0.04135,0.19901c-0.02628,0.06347 -0.06297,0.12191 -0.1085,0.17292c-0.14936,0.14677 -0.36938,0.1917 -0.56313,0.11509c-0.06285,-0.02836 -0.12048,-0.06728 -0.17055,-0.11509c-0.04553,-0.05101 -0.08222,-0.10945 -0.1085,-0.17286zM6.67238,16.96083c-0.02507,0.06408 -0.06188,0.12277 -0.1085,0.17292c-0.05013,0.0477 -0.10777,0.08655 -0.17055,0.11503c-0.12636,0.04911 -0.26615,0.04911 -0.39251,0c-0.06351,-0.02707 -0.12139,-0.06617 -0.17055,-0.11509c-0.04662,-0.05015 -0.08343,-0.10883 -0.1085,-0.17292c-0.05516,-0.12676 -0.05516,-0.27119 0,-0.39795c0.02616,-0.06353 0.06285,-0.12203 0.1085,-0.17292l0.07719,-0.06292c0.02888,-0.01995 0.0603,-0.03579 0.09336,-0.04708c0.02924,-0.0151 0.06048,-0.02584 0.09282,-0.03174c0.06624,-0.01535 0.13508,-0.01535 0.20131,0c0.03427,0.00516 0.06751,0.01584 0.09839,0.03174c0.03179,0.01031 0.06151,0.02627 0.08779,0.04708c0.03082,0.02099 0.05703,0.04199 0.08276,0.06292c0.04565,0.05089 0.0824,0.10939 0.10856,0.17292c0.05516,0.12676 0.05516,0.27126 -0.00006,0.39801zM4.60581,16.96077c-0.02507,0.06408 -0.06188,0.12277 -0.1085,0.17292c-0.05013,0.04776 -0.10777,0.08661 -0.17055,0.11509c-0.12636,0.04911 -0.26615,0.04911 -0.39251,0c-0.06285,-0.02836 -0.12054,-0.06728 -0.17055,-0.11509c-0.0465,-0.05138 -0.08494,-0.10969 -0.11401,-0.17292c-0.02476,-0.06329 -0.03693,-0.13093 -0.03584,-0.19901c-0.00188,-0.06869 0.01229,-0.13689 0.04135,-0.19901c0.02616,-0.06353 0.06285,-0.12203 0.1085,-0.17292c0.12194,-0.12277 0.29625,-0.17593 0.46474,-0.14167c0.03427,0.00516 0.06751,0.01584 0.09839,0.03174c0.03179,0.01031 0.06151,0.02627 0.08779,0.04708c0.03082,0.02099 0.05703,0.04199 0.08276,0.06292c0.04565,0.05089 0.08234,0.10939 0.1085,0.17292c0.05516,0.12676 0.05516,0.27126 -0.00006,0.39795zM9.66378,12.19941c0.09433,0.10049 0.14785,0.23326 0.14985,0.37192c0,0.28924 -0.23128,0.52379 -0.51663,0.52379c-0.28529,0 -0.51663,-0.23449 -0.51663,-0.52379c0.00182,-0.13873 0.05534,-0.27156 0.14985,-0.37186c0.0494,-0.04739 0.10729,-0.08471 0.17055,-0.11c0.19241,-0.08176 0.41443,-0.03843 0.56301,0.10994zM8.22239,10.27718c0.05516,0.12676 0.05516,0.27119 0,0.39795c-0.02628,0.06347 -0.06297,0.12191 -0.1085,0.17292c-0.05146,0.04598 -0.1088,0.08471 -0.17055,0.11503c-0.12636,0.04911 -0.26615,0.04911 -0.39251,0c-0.06182,-0.0302 -0.11921,-0.06893 -0.17055,-0.11509c-0.04553,-0.05101 -0.08222,-0.10945 -0.1085,-0.17292c-0.05516,-0.12676 -0.05516,-0.27119 0,-0.39795c0.02616,-0.06353 0.06285,-0.12203 0.1085,-0.17292c0.20718,-0.19385 0.5265,-0.19385 0.73362,0c0.04565,0.05089 0.0824,0.10939 0.1085,0.17298zM10.80553,10.27724c0.09736,0.23117 0.01853,0.49985 -0.18751,0.63956c-0.20603,0.13971 -0.48103,0.11086 -0.65455,-0.06869c-0.04541,-0.05224 -0.08373,-0.11043 -0.11401,-0.17292c-0.02476,-0.06335 -0.03693,-0.13093 -0.03584,-0.19901c-0.00188,-0.06869 0.01229,-0.13689 0.04135,-0.19901c0.02616,-0.06353 0.06285,-0.12203 0.1085,-0.17292l0.07726,-0.06292c0.02888,-0.01995 0.0603,-0.03579 0.09336,-0.04708c0.03076,-0.0159 0.06381,-0.02664 0.0979,-0.03174c0.16868,-0.03499 0.34341,0.01823 0.46517,0.14167c0.04565,0.05095 0.08234,0.10945 0.10838,0.17304zM13.91063,10.67507c-0.02991,0.06261 -0.06811,0.1208 -0.11352,0.17292c-0.14858,0.14892 -0.37072,0.19293 -0.56367,0.11172c-0.1929,-0.08121 -0.31895,-0.27187 -0.3198,-0.48364c0.00085,-0.06844 0.01489,-0.13603 0.04141,-0.19901c0.04704,-0.13155 0.14924,-0.23516 0.27899,-0.28286c0.09421,-0.04199 0.19895,-0.0531 0.2997,-0.03174c0.03227,0.00602 0.06351,0.0167 0.09282,0.03174c0.03288,0.01136 0.06412,0.02719 0.09282,0.04708c0.02573,0.02099 0.05195,0.04199 0.07768,0.06292c0.04553,0.05205 0.08373,0.11025 0.11352,0.17292c0.04844,0.12811 0.04844,0.2699 0.00006,0.39795zM10.847,6.28564c0.00109,0.17519 -0.0844,0.33933 -0.22771,0.43724c-0.14331,0.09791 -0.32543,0.11657 -0.48521,0.04978c-0.06285,-0.02836 -0.12054,-0.06728 -0.17055,-0.11509c-0.09723,-0.09852 -0.15124,-0.23258 -0.14985,-0.37192c-0.00188,-0.06869 0.01229,-0.13689 0.04135,-0.19901c0.02616,-0.06353 0.06285,-0.12203 0.1085,-0.17292c0.14779,-0.15113 0.37108,-0.19649 0.56494,-0.11491c0.1938,0.08164 0.31974,0.27402 0.31853,0.48684zM13.06343,6.6575c-0.09717,-0.09852 -0.15118,-0.23252 -0.14985,-0.37186c0,-0.2893 0.23128,-0.52379 0.51663,-0.52379c0.28535,0 0.51663,0.23449 0.51663,0.52379c0.00133,0.13934 -0.05267,0.27334 -0.14985,0.37186c-0.09717,0.09852 -0.22934,0.15328 -0.36678,0.15192c-0.13744,0.00135 -0.26961,-0.0534 -0.36678,-0.15192zM15.81664,10.95965c-0.1929,-0.08121 -0.31895,-0.27187 -0.3198,-0.48364c0.00085,-0.06844 0.01489,-0.13603 0.04135,-0.19901c0.02616,-0.06353 0.06285,-0.12203 0.1085,-0.17292c0.12194,-0.12277 0.29619,-0.17586 0.46468,-0.14167c0.03427,0.00516 0.06751,0.01584 0.09839,0.03174c0.03288,0.01136 0.06412,0.02719 0.09282,0.04708c0.02573,0.02099 0.05195,0.04199 0.07768,0.06292c0.04565,0.05095 0.08234,0.10939 0.1085,0.17292c0.02882,0.06218 0.04299,0.13032 0.04135,0.19901c0.00091,0.06814 -0.01144,0.13572 -0.03633,0.19901c-0.02991,0.06261 -0.06811,0.1208 -0.11352,0.17292c-0.14852,0.14892 -0.37066,0.19299 -0.56361,0.11166zM6.34701,12.94326c-0.09723,-0.09852 -0.15124,-0.23258 -0.14985,-0.37192c0,-0.2893 0.23128,-0.52379 0.51663,-0.52379c0.28535,0 0.51663,0.23449 0.51663,0.52379c0.00109,0.17519 -0.0844,0.33927 -0.22771,0.43718c-0.14331,0.09791 -0.32543,0.11657 -0.48521,0.04978c-0.06285,-0.0283 -0.12048,-0.06722 -0.17049,-0.11503zM14.83024,12.19941c0.09433,0.10049 0.14785,0.23326 0.14985,0.37192c0,0.28924 -0.23128,0.52379 -0.51663,0.52379c-0.28535,0 -0.51663,-0.23449 -0.51663,-0.52379c0.00182,-0.13873 0.05534,-0.27156 0.14985,-0.37186c0.05025,-0.04628 0.10789,-0.08348 0.17055,-0.11c0.19235,-0.08232 0.41467,-0.03892 0.56301,0.10994zM12.2471,12.19941c0.09433,0.10049 0.14785,0.23326 0.14985,0.37192c0.00115,0.13934 -0.0528,0.27328 -0.14985,0.37192c-0.05013,0.04776 -0.10777,0.08661 -0.17055,0.11509c-0.12636,0.04911 -0.26615,0.04911 -0.39251,0c-0.06285,-0.02836 -0.12054,-0.06728 -0.17055,-0.11509c-0.09723,-0.09852 -0.15124,-0.23258 -0.14985,-0.37192c0.00182,-0.13873 0.05534,-0.27156 0.14985,-0.37186c0.14961,-0.14658 0.37047,-0.18974 0.56307,-0.11c0.06321,0.02535 0.12109,0.06267 0.17055,0.10994zM8.93022,8.75277c-0.09717,-0.09852 -0.15118,-0.23252 -0.14985,-0.37186c0.00176,-0.13873 0.05534,-0.27162 0.14985,-0.37192c0.20591,-0.1971 0.52771,-0.1971 0.73362,0c0.09433,0.10049 0.14785,0.23326 0.14985,0.37192c0.00133,0.13934 -0.05267,0.27334 -0.14985,0.37186c-0.09717,0.09852 -0.22934,0.15328 -0.36678,0.15192c-0.13744,0.00135 -0.26967,-0.0534 -0.36684,-0.15192zM14.83031,8.00892c0.09433,0.10049 0.14785,0.23326 0.14985,0.37192c0,0.2893 -0.23128,0.52379 -0.51663,0.52379c-0.28535,0 -0.51663,-0.23449 -0.51663,-0.52379c0.00182,-0.13873 0.05534,-0.27162 0.14985,-0.37192c0.12412,-0.12289 0.30006,-0.17593 0.47025,-0.14167c0.03227,0.00602 0.06351,0.0167 0.09282,0.03174c0.03288,0.01136 0.06412,0.02719 0.09282,0.04708c0.02573,0.02099 0.05195,0.04193 0.07768,0.06286zM12.39689,8.38091c0,0.2893 -0.23128,0.52379 -0.51663,0.52379c-0.28535,0 -0.51663,-0.23449 -0.51663,-0.52379c0.00182,-0.13873 0.05534,-0.27162 0.14985,-0.37192c0.14779,-0.15113 0.37108,-0.19649 0.56494,-0.11491c0.1938,0.08158 0.31974,0.27396 0.31847,0.48684zM12.39695,4.71421c0.00091,0.06814 -0.01144,0.13572 -0.03633,0.19901c-0.0287,0.06329 -0.06702,0.12166 -0.11352,0.17292c-0.1493,0.14677 -0.36932,0.1917 -0.56307,0.11509c-0.06285,-0.02836 -0.12048,-0.06728 -0.17055,-0.11509c-0.04662,-0.05015 -0.08343,-0.10883 -0.1085,-0.17292c-0.02646,-0.06298 -0.0405,-0.13056 -0.04135,-0.19901c0.00182,-0.13873 0.05534,-0.27162 0.14985,-0.37192c0.14779,-0.15113 0.37108,-0.19649 0.56494,-0.11491c0.1938,0.08164 0.31974,0.27402 0.31853,0.48684zM16.53016,12.57134c0,-0.2893 0.23128,-0.52379 0.51663,-0.52379c0.28535,0 0.51663,0.23449 0.51663,0.52379c0.00115,0.13934 -0.0528,0.27328 -0.14985,0.37192c-0.05013,0.04776 -0.10777,0.08661 -0.17055,0.11509c-0.12636,0.04911 -0.26615,0.04911 -0.39251,0c-0.06285,-0.02836 -0.12054,-0.06728 -0.17055,-0.11509c-0.09723,-0.09852 -0.15124,-0.23258 -0.14979,-0.37192zM3.46405,18.48512c0.09433,0.10049 0.14785,0.23326 0.14985,0.37192c0.00018,0.13916 -0.05364,0.27273 -0.14985,0.37192c-0.05031,0.04616 -0.10795,0.08336 -0.17055,0.10994c-0.06212,0.02682 -0.12878,0.04107 -0.19629,0.04193c-0.13744,0.00135 -0.26961,-0.0534 -0.36678,-0.15192c-0.09717,-0.09852 -0.15118,-0.23252 -0.14985,-0.37186c0.00182,-0.13873 0.05534,-0.27156 0.14985,-0.37186c0.0494,-0.04739 0.10729,-0.08471 0.17055,-0.11c0.19265,-0.07919 0.41322,-0.03609 0.56307,0.10994zM16.89694,19.00897c0.09433,0.10049 0.14785,0.23326 0.14985,0.37192c0.0017,0.17519 -0.08398,0.33945 -0.22777,0.43662c-0.14379,0.09717 -0.32628,0.11424 -0.48515,0.04524c-0.06266,-0.02652 -0.12036,-0.06372 -0.17055,-0.11c-0.04553,-0.05101 -0.08222,-0.10945 -0.1085,-0.17292c-0.02646,-0.06298 -0.0405,-0.13056 -0.04135,-0.19901c0.00182,-0.13867 0.05534,-0.27156 0.14985,-0.37186c0.02573,-0.02099 0.05146,-0.04199 0.08276,-0.06292c0.02622,-0.02093 0.05594,-0.03689 0.08779,-0.04708c0.03076,-0.0159 0.06381,-0.02664 0.0979,-0.03174c0.06642,-0.01535 0.13538,-0.01535 0.2018,0c0.03227,0.00602 0.06351,0.0167 0.09282,0.03174c0.03288,0.01136 0.06412,0.02719 0.09282,0.04708c0.02573,0.02099 0.05201,0.04193 0.07774,0.06292zM19.02963,19.09012c0.13744,0.2084 0.10971,0.48634 -0.06611,0.66258c-0.04947,0.04727 -0.10735,0.08459 -0.17055,0.11c-0.06212,0.02682 -0.12878,0.04107 -0.19629,0.04193c-0.13738,0.00135 -0.26961,-0.0534 -0.36678,-0.15192c-0.09717,-0.09852 -0.15118,-0.23252 -0.14985,-0.37186c0.00182,-0.13873 0.05534,-0.27156 0.14985,-0.37186c0.0494,-0.04739 0.10729,-0.08471 0.17055,-0.11c0.22783,-0.09742 0.49174,-0.01719 0.62918,0.19115zM16.89688,14.81848c0.09433,0.10049 0.14785,0.23326 0.14985,0.37192c0.00163,0.06869 -0.01253,0.13682 -0.04135,0.19901c-0.02628,0.06347 -0.06297,0.12191 -0.1085,0.17292c-0.1493,0.14677 -0.36932,0.1917 -0.56307,0.11509c-0.06285,-0.02836 -0.12048,-0.06728 -0.17055,-0.11509c-0.04553,-0.05101 -0.08222,-0.10945 -0.1085,-0.17292c-0.02646,-0.06298 -0.0405,-0.13056 -0.04135,-0.19901c0.00182,-0.13867 0.05534,-0.27156 0.14985,-0.37186c0.02573,-0.02099 0.05146,-0.04199 0.08276,-0.06292c0.02622,-0.02093 0.05594,-0.03689 0.08779,-0.04708c0.03076,-0.0159 0.06381,-0.02664 0.0979,-0.03174c0.16868,-0.03425 0.34311,0.01891 0.46517,0.14167zM18.12146,15.38929c-0.02646,-0.06298 -0.0405,-0.13056 -0.04135,-0.19901c0.00182,-0.13867 0.05534,-0.27156 0.14985,-0.37186c0.05025,-0.04628 0.10789,-0.08348 0.17055,-0.11c0.09421,-0.04199 0.19895,-0.0531 0.2997,-0.03174c0.03227,0.00602 0.06351,0.0167 0.09282,0.03174c0.03288,0.01136 0.06412,0.02719 0.09282,0.04708c0.02573,0.02099 0.05195,0.04199 0.07768,0.06292c0.09433,0.10049 0.14785,0.23326 0.14985,0.37192c0.00091,0.06814 -0.01144,0.13572 -0.03633,0.19901c-0.0287,0.06329 -0.06702,0.12166 -0.11352,0.17292c-0.20373,0.20257 -0.52989,0.20257 -0.73362,0c-0.04553,-0.05101 -0.08222,-0.10945 -0.10844,-0.17298zM18.08005,17.28556c0.00091,0.06814 -0.01144,0.13572 -0.03633,0.19901c-0.0287,0.06329 -0.06702,0.12166 -0.11352,0.17292c-0.05013,0.04776 -0.10777,0.08661 -0.17055,0.11509c-0.12636,0.04911 -0.26615,0.04911 -0.39251,0c-0.06194,-0.02719 -0.11812,-0.06623 -0.16547,-0.11509c-0.04977,-0.04862 -0.08852,-0.10761 -0.11352,-0.17292c-0.08349,-0.19563 -0.0382,-0.4233 0.11352,-0.57087c0.20519,-0.19385 0.52335,-0.19385 0.72854,0c0.04565,0.05095 0.08234,0.10939 0.1085,0.17292c0.02882,0.06218 0.04299,0.13032 0.04135,0.19894zM20.10533,17.48462c-0.02507,0.06408 -0.06188,0.12277 -0.1085,0.17292c-0.04922,0.0488 -0.1071,0.08784 -0.17055,0.11503c-0.12636,0.04911 -0.26615,0.04911 -0.39251,0c-0.06285,-0.02836 -0.12048,-0.06728 -0.17055,-0.11509c-0.04662,-0.05015 -0.08343,-0.10883 -0.1085,-0.17292c-0.05516,-0.12676 -0.05516,-0.27119 0,-0.39795c0.02616,-0.06353 0.06285,-0.12203 0.1085,-0.17292c0.12375,-0.12363 0.3,-0.17672 0.47025,-0.14167c0.03227,0.00602 0.06351,0.0167 0.09282,0.03174c0.03288,0.01136 0.06412,0.02719 0.09282,0.04708c0.02573,0.02099 0.05195,0.04199 0.07768,0.06292c0.04571,0.05089 0.0824,0.10939 0.10856,0.17292c0.05516,0.12676 0.05516,0.27119 0,0.39795zM21.03009,19.00891c0.09433,0.10049 0.14785,0.23326 0.14985,0.37192c0.00115,0.13928 -0.0528,0.27322 -0.14985,0.37186c-0.05031,0.04616 -0.10795,0.08336 -0.17055,0.11c-0.06212,0.02682 -0.12878,0.04107 -0.19629,0.04193c-0.13744,0.00135 -0.26961,-0.0534 -0.36678,-0.15192c-0.09717,-0.09852 -0.15118,-0.23252 -0.14985,-0.37186c0.00182,-0.13873 0.05534,-0.27156 0.14985,-0.37186c0.05025,-0.04628 0.10789,-0.08348 0.17055,-0.11c0.19259,-0.07968 0.41346,-0.03658 0.56307,0.10994zM30.5412,17.89019c-0.64401,1.24744 -1.92205,2.02505 -3.31077,2.01443h-3.88637c-0.01362,0.02713 -0.02264,0.05537 -0.03693,0.08238c-0.64498,1.24664 -1.9229,2.02346 -3.31132,2.0129h-16.23054c-1.3912,-0.00626 -2.66676,-0.78639 -3.321,-2.03125c-0.65425,-1.2448 -0.58153,-2.75337 0.18932,-3.92758l8.11657,-12.23827c0.65794,-1.01118 1.75211,-1.64343 2.9455,-1.70205c1.1934,-0.05862 2.34278,0.46345 3.09402,1.40532l1.19303,-1.80112c0.69596,-1.06519 1.87241,-1.70543 3.13259,-1.70494c1.26018,0.00049 2.43614,0.64171 3.13126,1.70745l8.10997,12.23784c0.78593,1.17599 0.85719,2.6988 0.18466,3.94489zM13.94733,20.95226v-5.23757c-0.00018,-0.28918 -0.23134,-0.5236 -0.51663,-0.52379h-3.10038c-0.28523,0.00018 -0.51645,0.23461 -0.51663,0.52379v5.23757zM22.26576,16.62016l-8.113,-12.23434c-0.50276,-0.77485 -1.35602,-1.24155 -2.27079,-1.24204c-0.91477,-0.00049 -1.76851,0.46523 -2.27212,1.23946l-0.00151,0.00258l-8.115,12.23686c-0.56912,0.85643 -0.61877,1.96342 -0.12866,2.86865c0.46728,0.90424 1.39374,1.46806 2.4006,1.46093h5.01517v-5.23757c0.00091,-0.86748 0.69433,-1.5705 1.54995,-1.57143h3.10038c0.85562,0.00092 1.54904,0.70395 1.54995,1.57143v5.23757h5.01511c1.00686,0.00712 1.93332,-0.55669 2.4006,-1.46093c0.49041,-0.90633 0.43998,-2.01456 -0.13066,-2.87117zM29.49729,14.5274l-8.10997,-12.2384c-0.50349,-0.7746 -1.35705,-1.241 -2.272,-1.24149c-0.91501,-0.00055 -1.76906,0.46492 -2.2734,1.23891l-1.41735,2.13996l7.70093,11.6121c0.54817,0.82696 0.75312,1.83955 0.57057,2.81856h3.5343c1.00692,0.00712 1.93326,-0.55694 2.40012,-1.46143c0.48914,-0.90584 0.43774,-2.01296 -0.1332,-2.86822zM21.18006,8.38085c0.00109,0.17519 -0.0844,0.33933 -0.22771,0.43724c-0.14331,0.09791 -0.32543,0.11657 -0.48521,0.04978c-0.06285,-0.02836 -0.12054,-0.06728 -0.17055,-0.11509c-0.09723,-0.09852 -0.15124,-0.23258 -0.14985,-0.37192c0.00182,-0.13873 0.05534,-0.27162 0.14985,-0.37192c0.12369,-0.12363 0.3,-0.17672 0.47025,-0.14167c0.03227,0.00602 0.06351,0.0167 0.09282,0.03174c0.03288,0.01136 0.06412,0.02719 0.09282,0.04708c0.02573,0.02099 0.05195,0.04199 0.07768,0.06292c0.09427,0.10042 0.14779,0.2332 0.14991,0.37186zM18.08005,4.19036c0.00218,0.06875 -0.01199,0.13701 -0.04135,0.19901c-0.02507,0.06408 -0.06188,0.12277 -0.1085,0.17292c-0.1493,0.14677 -0.36932,0.1917 -0.56307,0.11509c-0.06285,-0.02836 -0.12054,-0.06728 -0.17055,-0.11509c-0.04662,-0.05015 -0.08343,-0.10883 -0.1085,-0.17292c-0.02694,-0.0628 -0.04105,-0.1305 -0.04135,-0.19901c0.00048,-0.21165 0.12708,-0.402 0.3204,-0.48186c0.15893,-0.06642 0.34008,-0.04831 0.48309,0.04837c0.14307,0.09668 0.22922,0.25922 0.22983,0.43349zM20.18797,4.38937c-0.08246,-0.19324 -0.03935,-0.41796 0.1085,-0.56577c0.20519,-0.19901 0.5285,-0.19901 0.73362,0c0.09499,0.09791 0.14876,0.22945 0.14985,0.36677c-0.0003,0.0685 -0.01435,0.13621 -0.04135,0.19901c-0.02507,0.06408 -0.06188,0.12277 -0.1085,0.17292c-0.20373,0.20257 -0.52989,0.20257 -0.73362,0c-0.04662,-0.05015 -0.08343,-0.10883 -0.1085,-0.17292zM23.04968,8.86443c-0.1929,-0.08121 -0.31895,-0.27187 -0.3198,-0.48364c0.00182,-0.13873 0.05534,-0.27162 0.14985,-0.37192c0.12236,-0.12203 0.29625,-0.17507 0.46474,-0.14167c0.03427,0.00516 0.06751,0.01584 0.09839,0.03174c0.03288,0.01136 0.06412,0.02719 0.09282,0.04708c0.02573,0.02099 0.05195,0.04199 0.07768,0.06292c0.09433,0.10049 0.14785,0.23326 0.14985,0.37192c0.00115,0.13934 -0.0528,0.27328 -0.14985,0.37192c-0.14852,0.14892 -0.37072,0.19299 -0.56367,0.11166zM22.1719,10.27712c0.02882,0.06218 0.04299,0.13032 0.04135,0.19901c0.00091,0.06807 -0.01144,0.13566 -0.03633,0.19894c-0.02991,0.06261 -0.06811,0.1208 -0.11352,0.17292c-0.20373,0.20257 -0.52989,0.20257 -0.73362,0c-0.04553,-0.05101 -0.08222,-0.10945 -0.1085,-0.17292c-0.05516,-0.12676 -0.05516,-0.27119 0,-0.39795c0.02616,-0.06353 0.06285,-0.12203 0.1085,-0.17292c0.20718,-0.19385 0.5265,-0.19385 0.73362,0c0.04565,0.05089 0.08234,0.10939 0.1085,0.17292zM22.2132,6.28564c0,0.2893 -0.23128,0.52379 -0.51663,0.52379c-0.28535,0 -0.51663,-0.23449 -0.51663,-0.52379c0.00182,-0.13873 0.05534,-0.27162 0.14985,-0.37192c0.14779,-0.15113 0.37108,-0.19649 0.56494,-0.11491c0.19386,0.08164 0.31974,0.27402 0.31847,0.48684zM19.48014,5.91371c0.09433,0.10049 0.14785,0.23326 0.14985,0.37192c0.00109,0.17519 -0.0844,0.33927 -0.22771,0.43718c-0.14331,0.09791 -0.32543,0.11657 -0.48521,0.04978c-0.06194,-0.02719 -0.11812,-0.06623 -0.16547,-0.11509c-0.04856,-0.04763 -0.08718,-0.10466 -0.11352,-0.16776c-0.02597,-0.06488 -0.04002,-0.13406 -0.04135,-0.2041c0.00133,-0.13983 0.05697,-0.27346 0.15487,-0.37192c0.20519,-0.19391 0.52335,-0.19391 0.72854,0zM19.5887,2.41993c0.02882,0.06218 0.04299,0.13032 0.04135,0.19901c0.00115,0.13934 -0.0528,0.27328 -0.14985,0.37192c-0.05013,0.04776 -0.10777,0.08661 -0.17055,0.11509c-0.19374,0.07661 -0.41376,0.03167 -0.56307,-0.11509c-0.04553,-0.05101 -0.08222,-0.10945 -0.1085,-0.17292c-0.05516,-0.12676 -0.05516,-0.27119 0,-0.39795c0.025,-0.06255 0.06188,-0.11958 0.1085,-0.16776c0.02446,-0.02412 0.05025,-0.04684 0.07719,-0.06801c0.02888,-0.01995 0.0603,-0.03579 0.09336,-0.04708c0.03076,-0.0159 0.06381,-0.02664 0.0979,-0.03174c0.06642,-0.01535 0.13538,-0.01535 0.2018,0c0.03227,0.00602 0.06351,0.0167 0.09282,0.03174c0.03288,0.01136 0.06412,0.02719 0.09282,0.04708c0.02712,0.02118 0.05304,0.04389 0.07768,0.06801c0.04668,0.04819 0.08349,0.10515 0.10856,0.1677zM23.80455,10.67507c-0.08349,-0.19563 -0.03826,-0.4233 0.11358,-0.57087c0.02373,-0.02357 0.04977,-0.04463 0.07768,-0.06292c0.02622,-0.02093 0.05594,-0.03689 0.08779,-0.04708c0.03076,-0.0159 0.06381,-0.02664 0.0979,-0.03174c0.06642,-0.01535 0.13538,-0.01535 0.2018,0c0.03227,0.00602 0.06351,0.0167 0.09282,0.03174c0.03288,0.01136 0.06412,0.02719 0.09282,0.04708c0.02573,0.02099 0.05195,0.04199 0.07768,0.06292c0.04565,0.05095 0.08234,0.10939 0.1085,0.17292c0.06811,0.16107 0.0514,0.34608 -0.0445,0.49193c-0.0959,0.14585 -0.25792,0.23271 -0.43078,0.23086c-0.1361,0.00233 -0.26712,-0.05273 -0.36176,-0.15192c-0.04874,-0.04948 -0.08731,-0.10828 -0.11352,-0.17292zM26.30518,17.08667c0.05516,0.12676 0.05516,0.27119 0,0.39795c-0.02507,0.06408 -0.06188,0.12277 -0.1085,0.17292c-0.05013,0.0477 -0.10777,0.08655 -0.17055,0.11503c-0.12636,0.04911 -0.26615,0.04911 -0.39251,0c-0.06285,-0.02836 -0.12054,-0.06728 -0.17055,-0.11509c-0.04662,-0.05015 -0.08343,-0.10883 -0.1085,-0.17292c-0.05516,-0.12676 -0.05516,-0.27119 0,-0.39795c0.02616,-0.06353 0.06285,-0.12203 0.1085,-0.17292c0.02573,-0.02099 0.05146,-0.04199 0.08276,-0.06292c0.02622,-0.02093 0.05594,-0.03689 0.08779,-0.04708c0.03076,-0.0159 0.06381,-0.02664 0.0979,-0.03174c0.06642,-0.01535 0.13538,-0.01535 0.2018,0c0.03227,0.00602 0.06351,0.0167 0.09282,0.03174c0.03288,0.01136 0.06412,0.02719 0.09282,0.04708c0.02573,0.02099 0.05195,0.04199 0.07768,0.06292c0.04565,0.05095 0.08234,0.10945 0.10856,0.17298zM24.27989,13.09519c0.00109,0.17519 -0.0844,0.33933 -0.22771,0.43724c-0.14331,0.09791 -0.32543,0.11657 -0.48521,0.04978c-0.06285,-0.02836 -0.12048,-0.06728 -0.17055,-0.11509c-0.09723,-0.09852 -0.15124,-0.23258 -0.14985,-0.37192c0.00182,-0.13873 0.05534,-0.27162 0.14985,-0.37192l0.07726,-0.06292c0.02888,-0.01995 0.0603,-0.03579 0.09336,-0.04708c0.03076,-0.0159 0.06381,-0.02664 0.0979,-0.03174c0.06642,-0.01535 0.13538,-0.01535 0.2018,0c0.03227,0.00602 0.06351,0.0167 0.09282,0.03174c0.03288,0.01136 0.06412,0.02719 0.09282,0.04708c0.02573,0.02099 0.05195,0.04199 0.07768,0.06292c0.09427,0.10042 0.14779,0.2332 0.14985,0.37192zM25.3545,13.29413c-0.02646,-0.06298 -0.0405,-0.13056 -0.04135,-0.19901c0.00182,-0.13873 0.05534,-0.27162 0.14985,-0.37192c0.12412,-0.12295 0.30006,-0.17599 0.47025,-0.14174c0.03227,0.00602 0.06351,0.0167 0.09282,0.03174c0.06327,0.02529 0.12115,0.06261 0.17055,0.11c0.09433,0.10049 0.14785,0.23326 0.14985,0.37192c-0.00085,0.06844 -0.01489,0.13603 -0.04135,0.19901c-0.02628,0.06347 -0.06297,0.12191 -0.1085,0.17292c-0.05013,0.04776 -0.10777,0.08661 -0.17055,0.11509c-0.19374,0.07661 -0.41376,0.03167 -0.56307,-0.11509c-0.04559,-0.05101 -0.08222,-0.10945 -0.1085,-0.17292zM25.31309,15.1904c0,0.2893 -0.23128,0.52379 -0.51663,0.52379c-0.28535,0 -0.51663,-0.23449 -0.51663,-0.52379c0.00176,-0.13873 0.05534,-0.27162 0.14985,-0.37192c0.05025,-0.04628 0.10789,-0.08348 0.17055,-0.11c0.19241,-0.08176 0.41443,-0.03836 0.56307,0.11c0.09433,0.10042 0.14779,0.23326 0.14979,0.37192zM27.22988,14.81854c0.09433,0.10049 0.14785,0.23326 0.14985,0.37192c-0.00085,0.06844 -0.01489,0.13603 -0.04135,0.19901c-0.02507,0.06408 -0.06188,0.12277 -0.1085,0.17292c-0.05013,0.04776 -0.10777,0.08661 -0.17055,0.11509c-0.19374,0.07661 -0.41376,0.03167 -0.56307,-0.11509c-0.04553,-0.05101 -0.08222,-0.10945 -0.1085,-0.17292c-0.02646,-0.06298 -0.0405,-0.13056 -0.04135,-0.19901c0.00176,-0.13873 0.05534,-0.27162 0.14985,-0.37192c0.02573,-0.02099 0.05146,-0.04199 0.08276,-0.06292c0.02622,-0.02093 0.05594,-0.03689 0.08779,-0.04708c0.03076,-0.0159 0.06381,-0.02664 0.0979,-0.03174c0.16868,-0.03425 0.34305,0.01891 0.46517,0.14174zM28.37672,17.08661c0.04844,0.12811 0.04844,0.26984 0,0.39795c-0.02991,0.06261 -0.06811,0.1208 -0.11352,0.17292c-0.04922,0.0488 -0.1071,0.08784 -0.17049,0.11503c-0.12636,0.04911 -0.26615,0.04911 -0.39251,0c-0.06285,-0.02836 -0.12048,-0.06728 -0.17055,-0.11509c-0.04662,-0.05015 -0.08343,-0.10883 -0.1085,-0.17292c-0.05516,-0.12676 -0.05516,-0.27119 0,-0.39795c0.04704,-0.13155 0.14924,-0.23516 0.27899,-0.28286c0.12515,-0.05525 0.26737,-0.05525 0.39251,0c0.06321,0.02541 0.12109,0.06273 0.17055,0.11c0.04553,0.05205 0.08373,0.11025 0.11352,0.17292z" vector-effect="non-scaling-stroke"/></defs></g></svg>