<svg version="1.2" xmlns="http://www.w3.org/2000/svg" xmlns:xlink="http://www.w3.org/1999/xlink" overflow="visible" preserveAspectRatio="none" viewBox="0 0 37.99999999999993 29.999999999999996" width="37.99999999999993" height="29.999999999999996"><g transform="translate(0, 0)"><g transform="translate(0, -3.479855292809475e-15) rotate(0)"><path d="M37.61751,17.17457l-3.41977,1.46463v9.23459c0,0.34804 -0.28356,0.63022 -0.63329,0.63022h-8.23279c-0.16798,0 -0.32899,-0.06649 -0.44774,-0.18465l-0.81885,-0.81487l-0.81885,0.81487c-0.11874,0.11817 -0.27976,0.18465 -0.44774,0.18465h-11.6095l-3.36848,1.44446c-0.32132,0.13762 -0.69385,-0.00993 -0.83214,-0.3296l-0.48257,-1.11486h-5.87251c-0.34974,0 -0.63329,-0.28218 -0.63329,-0.63022v-17.64612c0,-0.34804 0.28356,-0.63022 0.63329,-0.63022h7.31768c0.01077,-0.00504 0.01773,-0.01513 0.0285,-0.01954l12.48217,-5.35056c0.15429,-0.06594 0.32852,-0.06822 0.48447,-0.0063l1.05126,0.41594l0.41797,-1.04616c0.06214,-0.15543 0.18381,-0.2799 0.33818,-0.34599l7.44561,-3.19332c0.32132,-0.13762 0.69385,0.00993 0.83214,0.3296l6.91681,15.96533c0.13845,0.31952 -0.00958,0.69017 -0.33058,0.82811zM7.98834,28.50401h-0.10386l0.01647,0.03781zM32.93115,10.85789h-7.33731l-1.0804,1.07578c-0.00016,0.00016 -0.00032,0.00032 -0.00047,0.00047c-0.24746,0.24602 -0.64849,0.24579 -0.89563,-0.00047l-1.08103,-1.07578h-21.26972v16.38569h21.26972c0.00016,-0.00016 1.08135,-1.0761 1.0815,-1.07626c0.24746,-0.24602 0.64849,-0.24579 0.89563,0.00047l1.0804,1.07578h7.33731zM33.65247,9.6151l-3.53123,-8.15692l-6.62803,2.84355l-0.55476,1.38648c-0.00016,0.00024 -0.00024,0.00047 -0.00032,0.00071c-0.12967,0.32322 -0.49816,0.48062 -0.82296,0.35158l-1.39324,-0.55207l-9.58423,4.10903h4.68256l5.31141,-2.27698l0.50093,1.15771l-2.61106,1.11927h3.77695c0.16782,-0.00016 0.32892,0.06609 0.44774,0.18402l0.81885,0.81487l0.81885,-0.81424c0.11874,-0.11817 0.27976,-0.18465 0.44774,-0.18465h0.84101l-0.13996,-0.32267l5.17399,-2.21774l0.50093,1.15771l-3.22535,1.3827h5.08216c0.02976,0.00362 0.05921,0.00953 0.08803,0.01765zM36.53205,16.26895l-2.33431,-5.39215v3.08807l0.46864,1.08461l-0.46864,0.20104v2.0167zM24.55894,8.41262l-1.19392,0.51538l-0.76004,-1.76734l1.19392,-0.51538zM30.52366,4.45277l-5.31113,2.29125l-0.51415,-1.1963l5.31113,-2.29125zM23.54871,15.2784v-1.95368h1.3v1.95368zM23.54871,18.53453v-1.95368h1.3v1.95368zM23.54871,21.79066v-1.95368h1.3v1.95368zM23.54871,25.04679v-1.95368h1.3v1.95368zM2.92315,17.02523c-0.24936,-0.2587 -0.24221,-0.67101 0.01601,-0.92083c0.25821,-0.24983 0.66974,-0.24266 0.9191,0.01604l0.45955,0.46042h2.5792l-0.8268,-1.66258c-0.16047,-0.32187 -0.03006,-0.71317 0.2912,-0.87395c0.32126,-0.16077 0.71183,-0.03012 0.8723,0.29175l1.1167,2.24478h1.5483c0.35896,0 0.65,0.29159 0.65,0.65123c0,0.35964 -0.29104,0.65123 -0.65,0.65123h-1.625l-1.755,2.34441c-0.21539,0.28776 -0.62278,0.34605 -0.91,0.13025c-0.28722,-0.2158 -0.34539,-0.62396 -0.13,-0.91172l1.17,-1.56294h-2.6c-0.17241,0 -0.33768,-0.0687 -0.45955,-0.19081l-0.65,-0.65123c-0.00544,-0.00529 -0.01073,-0.01058 -0.01601,-0.01604zM14.44871,13.97595v-1.30245h7.8v1.30245zM26.14871,13.97595v-1.30245h5.85v1.30245zM26.14871,17.8833v-1.30245h5.85v1.30245zM26.14871,21.79066v-1.30245h5.85v1.30245zM26.14871,25.69801v-1.30245h3.25v1.30245zM11.84871,17.8833v-1.30245h10.4v1.30245zM11.84871,21.79066v-1.30245h10.4v1.30245zM2.74871,25.69801v-1.30245h16.9v1.30245zM11.84871,13.97595v-1.30245h1.3v1.30245zM30.69871,25.69801v-1.30245h1.3v1.30245zM20.94871,25.69801v-1.30245h1.3v1.30245z" style="stroke-width: 0; stroke-linecap: butt; stroke-linejoin: miter; fill: rgb(131, 49, 167);" vector-effect="non-scaling-stroke"/></g><defs><path id="path-1673538955704183213" d="M37.61751,17.17457l-3.41977,1.46463v9.23459c0,0.34804 -0.28356,0.63022 -0.63329,0.63022h-8.23279c-0.16798,0 -0.32899,-0.06649 -0.44774,-0.18465l-0.81885,-0.81487l-0.81885,0.81487c-0.11874,0.11817 -0.27976,0.18465 -0.44774,0.18465h-11.6095l-3.36848,1.44446c-0.32132,0.13762 -0.69385,-0.00993 -0.83214,-0.3296l-0.48257,-1.11486h-5.87251c-0.34974,0 -0.63329,-0.28218 -0.63329,-0.63022v-17.64612c0,-0.34804 0.28356,-0.63022 0.63329,-0.63022h7.31768c0.01077,-0.00504 0.01773,-0.01513 0.0285,-0.01954l12.48217,-5.35056c0.15429,-0.06594 0.32852,-0.06822 0.48447,-0.0063l1.05126,0.41594l0.41797,-1.04616c0.06214,-0.15543 0.18381,-0.2799 0.33818,-0.34599l7.44561,-3.19332c0.32132,-0.13762 0.69385,0.00993 0.83214,0.3296l6.91681,15.96533c0.13845,0.31952 -0.00958,0.69017 -0.33058,0.82811zM7.98834,28.50401h-0.10386l0.01647,0.03781zM32.93115,10.85789h-7.33731l-1.0804,1.07578c-0.00016,0.00016 -0.00032,0.00032 -0.00047,0.00047c-0.24746,0.24602 -0.64849,0.24579 -0.89563,-0.00047l-1.08103,-1.07578h-21.26972v16.38569h21.26972c0.00016,-0.00016 1.08135,-1.0761 1.0815,-1.07626c0.24746,-0.24602 0.64849,-0.24579 0.89563,0.00047l1.0804,1.07578h7.33731zM33.65247,9.6151l-3.53123,-8.15692l-6.62803,2.84355l-0.55476,1.38648c-0.00016,0.00024 -0.00024,0.00047 -0.00032,0.00071c-0.12967,0.32322 -0.49816,0.48062 -0.82296,0.35158l-1.39324,-0.55207l-9.58423,4.10903h4.68256l5.31141,-2.27698l0.50093,1.15771l-2.61106,1.11927h3.77695c0.16782,-0.00016 0.32892,0.06609 0.44774,0.18402l0.81885,0.81487l0.81885,-0.81424c0.11874,-0.11817 0.27976,-0.18465 0.44774,-0.18465h0.84101l-0.13996,-0.32267l5.17399,-2.21774l0.50093,1.15771l-3.22535,1.3827h5.08216c0.02976,0.00362 0.05921,0.00953 0.08803,0.01765zM36.53205,16.26895l-2.33431,-5.39215v3.08807l0.46864,1.08461l-0.46864,0.20104v2.0167zM24.55894,8.41262l-1.19392,0.51538l-0.76004,-1.76734l1.19392,-0.51538zM30.52366,4.45277l-5.31113,2.29125l-0.51415,-1.1963l5.31113,-2.29125zM23.54871,15.2784v-1.95368h1.3v1.95368zM23.54871,18.53453v-1.95368h1.3v1.95368zM23.54871,21.79066v-1.95368h1.3v1.95368zM23.54871,25.04679v-1.95368h1.3v1.95368zM2.92315,17.02523c-0.24936,-0.2587 -0.24221,-0.67101 0.01601,-0.92083c0.25821,-0.24983 0.66974,-0.24266 0.9191,0.01604l0.45955,0.46042h2.5792l-0.8268,-1.66258c-0.16047,-0.32187 -0.03006,-0.71317 0.2912,-0.87395c0.32126,-0.16077 0.71183,-0.03012 0.8723,0.29175l1.1167,2.24478h1.5483c0.35896,0 0.65,0.29159 0.65,0.65123c0,0.35964 -0.29104,0.65123 -0.65,0.65123h-1.625l-1.755,2.34441c-0.21539,0.28776 -0.62278,0.34605 -0.91,0.13025c-0.28722,-0.2158 -0.34539,-0.62396 -0.13,-0.91172l1.17,-1.56294h-2.6c-0.17241,0 -0.33768,-0.0687 -0.45955,-0.19081l-0.65,-0.65123c-0.00544,-0.00529 -0.01073,-0.01058 -0.01601,-0.01604zM14.44871,13.97595v-1.30245h7.8v1.30245zM26.14871,13.97595v-1.30245h5.85v1.30245zM26.14871,17.8833v-1.30245h5.85v1.30245zM26.14871,21.79066v-1.30245h5.85v1.30245zM26.14871,25.69801v-1.30245h3.25v1.30245zM11.84871,17.8833v-1.30245h10.4v1.30245zM11.84871,21.79066v-1.30245h10.4v1.30245zM2.74871,25.69801v-1.30245h16.9v1.30245zM11.84871,13.97595v-1.30245h1.3v1.30245zM30.69871,25.69801v-1.30245h1.3v1.30245zM20.94871,25.69801v-1.30245h1.3v1.30245z" vector-effect="non-scaling-stroke"/></defs></g></svg>