<svg version="1.2" xmlns="http://www.w3.org/2000/svg" xmlns:xlink="http://www.w3.org/1999/xlink" overflow="visible" preserveAspectRatio="none" viewBox="0 0 32 31.75" width="32" height="31.75"><g transform="translate(0, 0)"><g transform="translate(0, 0) rotate(0)"><path d="M9,25.00003c0,0.8603 -0.75551,1.55769 -1.6875,1.55769h-2.25v4.15383h2.25v1.03846h-5.625v-1.03846h2.25v-4.15383h-2.25c-0.93199,0 -1.6875,-0.69739 -1.6875,-1.55769c0,-0.8603 0.75551,-1.55769 1.6875,-1.55769h2.25v-1.39361c-0.67184,-0.21924 -1.12205,-0.80442 -1.125,-1.46215v-0.51923c-0.8254,0.00227 -1.53141,-0.54681 -1.66901,-1.29807c-0.15532,-0.84823 0.46371,-1.65212 1.3827,-1.79549c0.91891,-0.14337 1.7898,0.42804 1.94512,1.27626h0.47869l1.08169,-1.50005l0.936,0.57634l-0.78019,1.07948v2.18076c-0.00295,0.65773 -0.45316,1.2429 -1.125,1.46215v1.39361h2.25c0.93199,0 1.6875,0.69739 1.6875,1.55769zM3.28837,18.25005c-0.09717,-0.15862 -0.27851,-0.25754 -0.47587,-0.25961c-0.31064,0 -0.5625,0.23248 -0.5625,0.51923c0,0.28674 0.25186,0.51923 0.5625,0.51923v-0.77884zM3.9375,20.58658c0,0.28674 0.25186,0.51923 0.5625,0.51923c0.31064,0 0.5625,-0.23248 0.5625,-0.51923v-1.29807h-1.125zM7.875,25.00003c0,-0.28674 -0.25186,-0.51923 -0.5625,-0.51923h-5.625c-0.31064,0 -0.5625,0.23248 -0.5625,0.51923c0,0.28674 0.25186,0.51923 0.5625,0.51923h5.625c0.31064,0 0.5625,-0.23248 0.5625,-0.51923zM22.90698,16.61957v9.91304h1.09705l4.80005,-4.68209c0.74081,-0.68993 1.90686,-0.68993 2.64767,0c0.73085,0.71309 0.73085,1.869 0,2.58209l-5.33547,5.20383v2.11357h-1.06977v-1.56522h-2.13953v1.56522h-1.06977v-1.56522h-9.62791v1.56522h-1.06977v-1.56522h-0.26744c-1.03393,0 -1.87209,-0.81757 -1.87209,-1.82609c0,-1.00852 0.83816,-1.82609 1.87209,-1.82609h10.96512v-9.91304h-9.09302v-0.52174c0.00562,-4.60813 3.83391,-8.34235 8.55814,-8.34783h2.13953c4.72423,0.00548 8.55252,3.7397 8.55814,8.34783v0.52174zM23.48358,8.79348l0.89807,1.10087c1.24307,1.51428 1.92505,3.39385 1.93521,5.33374v0.348h4.59465c-0.28389,-3.80433 -3.51753,-6.75704 -7.42793,-6.78261zM22.90698,15.57609h2.34012v-0.34591c-0.00983,-1.7038 -0.60983,-3.35433 -1.70253,-4.68365l-0.63758,-0.78261zM18.42733,15.22809c0.01016,-1.93989 0.69214,-3.81946 1.93521,-5.33374l0.89807,-1.10087c-3.9104,0.02557 -7.14404,2.97828 -7.42793,6.78261h4.59465zM21.83721,15.57609v-5.81217l-0.63758,0.78052c-1.0927,1.32933 -1.69271,2.97985 -1.70253,4.68365v0.348zM22.10465,28.09783v-0.52174h-1.06977v0.52174h-1.06977v-0.52174h-1.06977v0.52174h-1.06977v-0.52174h-1.06977v0.52174h-1.06977v-0.52174h-1.06977v0.52174h-1.06977v-0.52174h-1.06977v0.52174h-1.06977v-0.52174h-0.53488c-0.44308,0 -0.80233,0.35041 -0.80233,0.78261c0,0.4322 0.35924,0.78261 0.80233,0.78261h13.90698c0.21369,0.00085 0.41888,-0.08185 0.56965,-0.22957l5.34884,-5.21739c0.31324,-0.30561 0.31324,-0.801 0,-1.10661c-0.31752,-0.29589 -0.8175,-0.29589 -1.13502,0l-0.29044,0.2833l0.54237,0.53113l-0.75633,0.73774l-0.54451,-0.52904l-0.84619,0.82539l0.54237,0.53113l-0.75633,0.73774l-0.54451,-0.52904l-0.84619,0.82539l0.54237,0.53113l-0.75633,0.73774l-0.54612,-0.52904l-0.85581,0.83478h-1.27249v0.52174zM4,6.75c0,-1.65688 1.34313,-3 3,-3c1.65687,0 3,1.34312 3,3c-0.00163,1.65619 -1.34381,2.99838 -3,3c-1.65687,0 -3,-1.34312 -3,-3zM5,6.75c0,1.10456 0.89544,2 2,2c1.10456,0 2,-0.89544 2,-2c0,-1.10456 -0.89544,-2 -2,-2c-1.10456,0 -2,0.89544 -2,2zM6.7,2.06667v-2.06667h1.03333v2.06667zM9.76811,2.91953l1.46113,-1.46155l0.73077,0.73057l-1.46113,1.46155zM11.35,6.71667v-1.03333h2.06667v1.03333zM11.96587,10.21817l-0.73119,0.73015l-1.46031,-1.46237l0.73119,-0.73015zM2.0135,1.82393l0.73067,-0.73067l1.46134,1.46134l-0.73067,0.73067zM0.5,6.71667v-1.03333h2.06667v1.03333zM6.7,12.4v-2.06667h1.03333v2.06667zM4.65907,9.48782l-1.46113,1.46155l-0.73077,-0.73057l1.46113,-1.46155z" style="stroke-width: 0; stroke-linecap: butt; stroke-linejoin: miter; fill: rgb(131, 49, 167);" vector-effect="non-scaling-stroke"/></g><defs><path id="path-1673538955703183205" d="M9,25.00003c0,0.8603 -0.75551,1.55769 -1.6875,1.55769h-2.25v4.15383h2.25v1.03846h-5.625v-1.03846h2.25v-4.15383h-2.25c-0.93199,0 -1.6875,-0.69739 -1.6875,-1.55769c0,-0.8603 0.75551,-1.55769 1.6875,-1.55769h2.25v-1.39361c-0.67184,-0.21924 -1.12205,-0.80442 -1.125,-1.46215v-0.51923c-0.8254,0.00227 -1.53141,-0.54681 -1.66901,-1.29807c-0.15532,-0.84823 0.46371,-1.65212 1.3827,-1.79549c0.91891,-0.14337 1.7898,0.42804 1.94512,1.27626h0.47869l1.08169,-1.50005l0.936,0.57634l-0.78019,1.07948v2.18076c-0.00295,0.65773 -0.45316,1.2429 -1.125,1.46215v1.39361h2.25c0.93199,0 1.6875,0.69739 1.6875,1.55769zM3.28837,18.25005c-0.09717,-0.15862 -0.27851,-0.25754 -0.47587,-0.25961c-0.31064,0 -0.5625,0.23248 -0.5625,0.51923c0,0.28674 0.25186,0.51923 0.5625,0.51923v-0.77884zM3.9375,20.58658c0,0.28674 0.25186,0.51923 0.5625,0.51923c0.31064,0 0.5625,-0.23248 0.5625,-0.51923v-1.29807h-1.125zM7.875,25.00003c0,-0.28674 -0.25186,-0.51923 -0.5625,-0.51923h-5.625c-0.31064,0 -0.5625,0.23248 -0.5625,0.51923c0,0.28674 0.25186,0.51923 0.5625,0.51923h5.625c0.31064,0 0.5625,-0.23248 0.5625,-0.51923zM22.90698,16.61957v9.91304h1.09705l4.80005,-4.68209c0.74081,-0.68993 1.90686,-0.68993 2.64767,0c0.73085,0.71309 0.73085,1.869 0,2.58209l-5.33547,5.20383v2.11357h-1.06977v-1.56522h-2.13953v1.56522h-1.06977v-1.56522h-9.62791v1.56522h-1.06977v-1.56522h-0.26744c-1.03393,0 -1.87209,-0.81757 -1.87209,-1.82609c0,-1.00852 0.83816,-1.82609 1.87209,-1.82609h10.96512v-9.91304h-9.09302v-0.52174c0.00562,-4.60813 3.83391,-8.34235 8.55814,-8.34783h2.13953c4.72423,0.00548 8.55252,3.7397 8.55814,8.34783v0.52174zM23.48358,8.79348l0.89807,1.10087c1.24307,1.51428 1.92505,3.39385 1.93521,5.33374v0.348h4.59465c-0.28389,-3.80433 -3.51753,-6.75704 -7.42793,-6.78261zM22.90698,15.57609h2.34012v-0.34591c-0.00983,-1.7038 -0.60983,-3.35433 -1.70253,-4.68365l-0.63758,-0.78261zM18.42733,15.22809c0.01016,-1.93989 0.69214,-3.81946 1.93521,-5.33374l0.89807,-1.10087c-3.9104,0.02557 -7.14404,2.97828 -7.42793,6.78261h4.59465zM21.83721,15.57609v-5.81217l-0.63758,0.78052c-1.0927,1.32933 -1.69271,2.97985 -1.70253,4.68365v0.348zM22.10465,28.09783v-0.52174h-1.06977v0.52174h-1.06977v-0.52174h-1.06977v0.52174h-1.06977v-0.52174h-1.06977v0.52174h-1.06977v-0.52174h-1.06977v0.52174h-1.06977v-0.52174h-1.06977v0.52174h-1.06977v-0.52174h-0.53488c-0.44308,0 -0.80233,0.35041 -0.80233,0.78261c0,0.4322 0.35924,0.78261 0.80233,0.78261h13.90698c0.21369,0.00085 0.41888,-0.08185 0.56965,-0.22957l5.34884,-5.21739c0.31324,-0.30561 0.31324,-0.801 0,-1.10661c-0.31752,-0.29589 -0.8175,-0.29589 -1.13502,0l-0.29044,0.2833l0.54237,0.53113l-0.75633,0.73774l-0.54451,-0.52904l-0.84619,0.82539l0.54237,0.53113l-0.75633,0.73774l-0.54451,-0.52904l-0.84619,0.82539l0.54237,0.53113l-0.75633,0.73774l-0.54612,-0.52904l-0.85581,0.83478h-1.27249v0.52174zM4,6.75c0,-1.65688 1.34313,-3 3,-3c1.65687,0 3,1.34312 3,3c-0.00163,1.65619 -1.34381,2.99838 -3,3c-1.65687,0 -3,-1.34312 -3,-3zM5,6.75c0,1.10456 0.89544,2 2,2c1.10456,0 2,-0.89544 2,-2c0,-1.10456 -0.89544,-2 -2,-2c-1.10456,0 -2,0.89544 -2,2zM6.7,2.06667v-2.06667h1.03333v2.06667zM9.76811,2.91953l1.46113,-1.46155l0.73077,0.73057l-1.46113,1.46155zM11.35,6.71667v-1.03333h2.06667v1.03333zM11.96587,10.21817l-0.73119,0.73015l-1.46031,-1.46237l0.73119,-0.73015zM2.0135,1.82393l0.73067,-0.73067l1.46134,1.46134l-0.73067,0.73067zM0.5,6.71667v-1.03333h2.06667v1.03333zM6.7,12.4v-2.06667h1.03333v2.06667zM4.65907,9.48782l-1.46113,1.46155l-0.73077,-0.73057l1.46113,-1.46155z" vector-effect="non-scaling-stroke"/></defs></g></svg>