<svg version="1.2" xmlns="http://www.w3.org/2000/svg" xmlns:xlink="http://www.w3.org/1999/xlink" overflow="visible" preserveAspectRatio="none" viewBox="0 0 32 30.999999999999993" width="32" height="30.999999999999993"><g transform="translate(0, 0)"><g transform="translate(0, -0.00004089574929976273) rotate(0)"><path d="M22.2,18.11667v-1.03333h1.03333v1.03333zM22.2,20.18333v-1.03333h1.03333v1.03333zM22.2,22.25v-1.03333h1.03333v1.03333zM22.2,13.98334v-1.03333h1.03333v1.03333zM22.2,16.05v-1.03333h1.03333v1.03333zM22.2,11.91667v-1.03333h1.03333v1.03333zM22.2,9.85v-1.03333h1.03333v1.03333zM32,16.01671h-1.3792l0.97547,0.94447l-0.75413,0.73057l-0.97547,-0.94447v9.13777c1.24073,0.24716 2.13173,1.30452 2.13333,2.53167v2.58333h-32v-2.58333c0.0016,-1.22715 0.8926,-2.28451 2.13333,-2.53167v-9.13777l-0.97547,0.94447l-0.75413,-0.73057l0.97547,-0.94447h-1.3792v-1.03333h1.3792l-0.97547,-0.94447l0.75413,-0.73057l0.97547,0.94447v-1.3361h1.06667v1.3361l0.97547,-0.94447l0.75413,0.73057l-0.97547,0.94447h1.3792v1.03333h-1.3792l0.97547,0.94447l-0.75413,0.73057l-0.97547,-0.94447v9.0861h0.05333c0.255,-1.20209 1.34653,-2.06531 2.61333,-2.06667h0.53333v-14.98333h-2.13333v-1.03333h2.13333c-0.00027,-0.97308 0.40587,-1.90482 1.12587,-2.58333h-1.12587v-1.03333h5.33333v-1.1284c-0.63973,-0.21829 -1.0672,-0.80439 -1.06593,-1.46146c0.00167,-0.85405 0.71767,-1.54509 1.59927,-1.54348h7.46667c0.67827,-0.00123 1.28327,0.41288 1.5086,1.03262c0.29293,0.80555 -0.14373,1.6886 -0.97527,1.97231v1.1284h5.33333v1.03333h-1.12587c0.72,0.67851 1.12613,1.61026 1.12587,2.58333h2.13333v1.03333h-2.13333v14.98333h0.53333c1.2668,0.00136 2.35833,0.86458 2.61333,2.06667h0.05333v-9.0861l-0.97547,0.94447l-0.75413,-0.73057l0.97547,-0.94447h-1.3792v-1.03333h1.3792l-0.97547,-0.94447l0.75413,-0.73057l0.97547,0.94447v-1.3361h1.06667v1.3361l0.97547,-0.94447l0.75413,0.73057l-0.97547,0.94447h1.3792zM6.4,24.8h-0.53333c-0.88367,0 -1.6,0.69395 -1.6,1.55v0.51667h-1.6c-0.88367,0 -1.6,0.69395 -1.6,1.55v1.55h1.06667v-1.03333h1.06667v1.03333h1.06667v-1.03333h1.06667v1.03333h1.06667zM11.73333,1.55c0,0.28533 0.2388,0.51667 0.53333,0.51667h7.46667c0.29453,0 0.53333,-0.23134 0.53333,-0.51667c0,-0.28533 -0.2388,-0.51667 -0.53333,-0.51667h-7.46667c-0.29453,0 -0.53333,0.23134 -0.53333,0.51667zM12.8,3.1v1.03333h6.4v-1.03333zM10.66667,27.9h-3.2v2.06667h3.2zM10.66667,25.83333h-3.2v1.03333h3.2zM10.66667,8.78334h-3.2v16.01667h3.2zM10.66667,5.16667h-0.53333c-1.472,0.00168 -2.66493,1.15733 -2.66667,2.58333h3.2zM17.06667,28.41667c0,-0.28533 -0.2388,-0.51667 -0.53333,-0.51667h-1.06667c-0.29453,0 -0.53333,0.23134 -0.53333,0.51667v1.55h2.13333zM20.26667,25.83333h-8.53333v4.13333h2.13333v-1.55c0,-0.85605 0.71633,-1.55 1.6,-1.55h1.06667c0.88367,0 1.6,0.69395 1.6,1.55v1.55h2.13333zM20.26667,23.76667h-8.53333v1.03333h8.53333zM20.26667,5.16667h-8.53333v17.56667h8.53333zM24.53333,27.9h-3.2v2.06667h3.2zM24.53333,25.83333h-3.2v1.03333h3.2zM24.53333,8.78334h-3.2v16.01667h3.2zM24.53333,7.75c-0.00173,-1.426 -1.19467,-2.58165 -2.66667,-2.58333h-0.53333v2.58333zM29.33333,26.86667h-1.6v-0.51667c0,-0.85605 -0.71633,-1.55 -1.6,-1.55h-0.53333v5.16667h1.06667v-1.03333h1.06667v1.03333h1.06667v-1.03333h1.06667v1.03333h1.06667v-1.55c0,-0.85605 -0.71633,-1.55 -1.6,-1.55zM8.76667,18.11667v-1.03333h1.03333v1.03333zM8.76667,20.18333v-1.03333h1.03333v1.03333zM8.76667,22.25v-1.03333h1.03333v1.03333zM8.76667,13.98334v-1.03333h1.03333v1.03333zM8.76667,16.05v-1.03333h1.03333v1.03333zM8.76667,11.91667v-1.03333h1.03333v1.03333zM8.76667,9.85v-1.03333h1.03333v1.03333zM19,9h-6v-3h6zM15.4,7h-1.2v1h1.2zM17.8,7h-1.2v1h1.2zM19,13h-6v-3h6zM15.4,11h-1.2v1h1.2zM17.8,11h-1.2v1h1.2zM19,17h-6v-3h6zM15.4,15h-1.2v1h1.2zM17.8,15h-1.2v1h1.2zM19,21h-6v-3h6zM15.4,19h-1.2v1h1.2zM17.8,19h-1.2v1h1.2z" style="stroke-width: 0; stroke-linecap: butt; stroke-linejoin: miter; fill: rgb(131, 49, 167);" vector-effect="non-scaling-stroke"/></g><defs><path id="path-1673538955703183203" d="M22.2,18.11667v-1.03333h1.03333v1.03333zM22.2,20.18333v-1.03333h1.03333v1.03333zM22.2,22.25v-1.03333h1.03333v1.03333zM22.2,13.98334v-1.03333h1.03333v1.03333zM22.2,16.05v-1.03333h1.03333v1.03333zM22.2,11.91667v-1.03333h1.03333v1.03333zM22.2,9.85v-1.03333h1.03333v1.03333zM32,16.01671h-1.3792l0.97547,0.94447l-0.75413,0.73057l-0.97547,-0.94447v9.13777c1.24073,0.24716 2.13173,1.30452 2.13333,2.53167v2.58333h-32v-2.58333c0.0016,-1.22715 0.8926,-2.28451 2.13333,-2.53167v-9.13777l-0.97547,0.94447l-0.75413,-0.73057l0.97547,-0.94447h-1.3792v-1.03333h1.3792l-0.97547,-0.94447l0.75413,-0.73057l0.97547,0.94447v-1.3361h1.06667v1.3361l0.97547,-0.94447l0.75413,0.73057l-0.97547,0.94447h1.3792v1.03333h-1.3792l0.97547,0.94447l-0.75413,0.73057l-0.97547,-0.94447v9.0861h0.05333c0.255,-1.20209 1.34653,-2.06531 2.61333,-2.06667h0.53333v-14.98333h-2.13333v-1.03333h2.13333c-0.00027,-0.97308 0.40587,-1.90482 1.12587,-2.58333h-1.12587v-1.03333h5.33333v-1.1284c-0.63973,-0.21829 -1.0672,-0.80439 -1.06593,-1.46146c0.00167,-0.85405 0.71767,-1.54509 1.59927,-1.54348h7.46667c0.67827,-0.00123 1.28327,0.41288 1.5086,1.03262c0.29293,0.80555 -0.14373,1.6886 -0.97527,1.97231v1.1284h5.33333v1.03333h-1.12587c0.72,0.67851 1.12613,1.61026 1.12587,2.58333h2.13333v1.03333h-2.13333v14.98333h0.53333c1.2668,0.00136 2.35833,0.86458 2.61333,2.06667h0.05333v-9.0861l-0.97547,0.94447l-0.75413,-0.73057l0.97547,-0.94447h-1.3792v-1.03333h1.3792l-0.97547,-0.94447l0.75413,-0.73057l0.97547,0.94447v-1.3361h1.06667v1.3361l0.97547,-0.94447l0.75413,0.73057l-0.97547,0.94447h1.3792zM6.4,24.8h-0.53333c-0.88367,0 -1.6,0.69395 -1.6,1.55v0.51667h-1.6c-0.88367,0 -1.6,0.69395 -1.6,1.55v1.55h1.06667v-1.03333h1.06667v1.03333h1.06667v-1.03333h1.06667v1.03333h1.06667zM11.73333,1.55c0,0.28533 0.2388,0.51667 0.53333,0.51667h7.46667c0.29453,0 0.53333,-0.23134 0.53333,-0.51667c0,-0.28533 -0.2388,-0.51667 -0.53333,-0.51667h-7.46667c-0.29453,0 -0.53333,0.23134 -0.53333,0.51667zM12.8,3.1v1.03333h6.4v-1.03333zM10.66667,27.9h-3.2v2.06667h3.2zM10.66667,25.83333h-3.2v1.03333h3.2zM10.66667,8.78334h-3.2v16.01667h3.2zM10.66667,5.16667h-0.53333c-1.472,0.00168 -2.66493,1.15733 -2.66667,2.58333h3.2zM17.06667,28.41667c0,-0.28533 -0.2388,-0.51667 -0.53333,-0.51667h-1.06667c-0.29453,0 -0.53333,0.23134 -0.53333,0.51667v1.55h2.13333zM20.26667,25.83333h-8.53333v4.13333h2.13333v-1.55c0,-0.85605 0.71633,-1.55 1.6,-1.55h1.06667c0.88367,0 1.6,0.69395 1.6,1.55v1.55h2.13333zM20.26667,23.76667h-8.53333v1.03333h8.53333zM20.26667,5.16667h-8.53333v17.56667h8.53333zM24.53333,27.9h-3.2v2.06667h3.2zM24.53333,25.83333h-3.2v1.03333h3.2zM24.53333,8.78334h-3.2v16.01667h3.2zM24.53333,7.75c-0.00173,-1.426 -1.19467,-2.58165 -2.66667,-2.58333h-0.53333v2.58333zM29.33333,26.86667h-1.6v-0.51667c0,-0.85605 -0.71633,-1.55 -1.6,-1.55h-0.53333v5.16667h1.06667v-1.03333h1.06667v1.03333h1.06667v-1.03333h1.06667v1.03333h1.06667v-1.55c0,-0.85605 -0.71633,-1.55 -1.6,-1.55zM8.76667,18.11667v-1.03333h1.03333v1.03333zM8.76667,20.18333v-1.03333h1.03333v1.03333zM8.76667,22.25v-1.03333h1.03333v1.03333zM8.76667,13.98334v-1.03333h1.03333v1.03333zM8.76667,16.05v-1.03333h1.03333v1.03333zM8.76667,11.91667v-1.03333h1.03333v1.03333zM8.76667,9.85v-1.03333h1.03333v1.03333zM19,9h-6v-3h6zM15.4,7h-1.2v1h1.2zM17.8,7h-1.2v1h1.2zM19,13h-6v-3h6zM15.4,11h-1.2v1h1.2zM17.8,11h-1.2v1h1.2zM19,17h-6v-3h6zM15.4,15h-1.2v1h1.2zM17.8,15h-1.2v1h1.2zM19,21h-6v-3h6zM15.4,19h-1.2v1h1.2zM17.8,19h-1.2v1h1.2z" vector-effect="non-scaling-stroke"/></defs></g></svg>