<svg version="1.2" xmlns="http://www.w3.org/2000/svg" xmlns:xlink="http://www.w3.org/1999/xlink" overflow="visible" preserveAspectRatio="none" viewBox="0 0 28 32" width="28" height="32"><g transform="translate(0, 0)"><g transform="translate(0, 0) rotate(0)"><path d="M10.88889,11.35v-0.51667c0,-0.28533 0.23217,-0.51667 0.51852,-0.51667c0.28635,0 0.51852,0.23134 0.51852,0.51667v0.51667c0,0.28533 -0.23217,0.51667 -0.51852,0.51667c-0.28635,0 -0.51852,-0.23134 -0.51852,-0.51667zM16.07407,11.35v-0.51667c0,-0.28533 0.23217,-0.51667 0.51852,-0.51667c0.28635,0 0.51852,0.23134 0.51852,0.51667v0.51667c0,0.28533 -0.23217,0.51667 -0.51852,0.51667c-0.28635,0 -0.51852,-0.23134 -0.51852,-0.51667zM12.53156,12.61583l1.03704,-1.55c0.15893,-0.23741 0.48093,-0.30148 0.71919,-0.14312c0.23826,0.15836 0.30256,0.47921 0.14363,0.71662l-0.71141,1.06278l0.51178,0.25472c0.25628,0.12755 0.36031,0.438 0.2323,0.69337c-0.12801,0.25536 -0.43957,0.35902 -0.69585,0.23147l-1.03704,-0.51667c-0.01944,-0.00962 -0.03824,-0.02054 -0.05632,-0.03255c-0.23819,-0.15849 -0.3023,-0.47934 -0.14331,-0.71662zM11.55985,14.81683l0.73526,-0.7285l0.15556,0.155c0.0641,0.07375 0.13345,0.14286 0.20747,0.20673c0.85607,0.7389 2.1512,0.64629 2.89275,-0.20673l0.15556,-0.155l0.73474,0.7285l-0.15556,0.155c-0.08005,0.08977 -0.16534,0.17483 -0.2555,0.25459c-1.2622,1.1171 -3.1942,1.00311 -4.31524,-0.25459zM28,26.66667v5.33333h-28v-5.33333c0.0013,-2.13167 0.95777,-4.14373 2.59259,-5.45387v-0.4128c0.00369,-3.23847 2.55519,-5.86287 5.7037,-5.86667h0.05444c-0.30178,-0.67287 -0.48669,-1.39487 -0.54652,-2.13333h-0.02644c-1.14547,0 -2.07407,-0.95513 -2.07407,-2.13333c0,-1.1782 0.9286,-2.13333 2.07407,-2.13333v-4.26667h0.03059c0.26626,-2.4276 2.26094,-4.26333 4.63607,-4.26667h3.11111c2.37514,0.00333 4.36981,1.83907 4.63607,4.26667h4.17874v1.06667h-4.14815v3.2c1.14547,0 2.07407,0.95513 2.07407,2.13333c0,1.1782 -0.9286,2.13333 -2.07407,2.13333h-0.02385c-0.05982,0.73847 -0.24474,1.46047 -0.54652,2.13333h0.05185c3.14851,0.0038 5.70001,2.6282 5.7037,5.86667v0.4128c1.63482,1.31013 2.5913,3.3222 2.59259,5.45387zM20.22222,11.73333c0.57277,0 1.03704,-0.47753 1.03704,-1.06667c0,-0.58913 -0.46427,-1.06667 -1.03704,-1.06667zM7.77778,9.6c-0.57277,0 -1.03704,0.47753 -1.03704,1.06667c0,0.58913 0.46427,1.06667 1.03704,1.06667zM19.04363,16c-0.62935,0.8988 -1.47356,1.6152 -2.45104,2.08v1.65333h4.66667c1.07852,0.0002 2.14103,0.2684 3.09711,0.78187c-0.14642,-2.5336 -2.1851,-4.51207 -4.65267,-4.5152zM8.85163,4.26667h10.29674c-0.2601,-1.83567 -1.78928,-3.19767 -3.59281,-3.2h-3.11111c-1.80354,0.00233 -3.33271,1.36433 -3.59281,3.2zM8.81481,8.85973l1.01059,-0.3456c0.63531,-0.21787 1.06374,-0.8296 1.06348,-1.5184v-0.59573c0,-0.09673 0.0256,-0.19167 0.07402,-0.27453c0.14752,-0.25253 0.46608,-0.3342 0.71154,-0.18253l2.408,1.48587c1.42781,0.8824 3.25636,0.65073 4.43333,-0.5616l0.66941,-0.688v-0.84587h-10.37037zM8.81481,12.26667c0,2.94553 2.32147,5.33333 5.18519,5.33333c2.86371,0 5.18519,-2.3878 5.18519,-5.33333v-4.58667c-1.51641,1.50793 -3.82861,1.77987 -5.63681,0.66293l-1.64267,-1.01333c-0.12406,1.01793 -0.80558,1.87207 -1.75207,2.19573l-1.33881,0.45867zM12.44444,18.45333v2.34667c0,0.88367 0.69644,1.6 1.55556,1.6c0.85912,0 1.55556,-0.71633 1.55556,-1.6v-2.34667c-1.01908,0.28087 -2.09203,0.28087 -3.11111,0zM3.64363,20.5152c0.95608,-0.51347 2.01859,-0.78167 3.09711,-0.78187h4.66667v-1.65333c-0.97747,-0.4648 -1.82169,-1.1812 -2.45104,-2.08h-0.66007c-2.46756,0.00313 -4.50625,1.9816 -4.65267,4.5152zM8.2963,20.8v2.66667c-0.00201,0.83887 -0.38578,1.62833 -1.03704,2.13333l-1.03704,0.8v1.33333l2.48889,-1.92c0.39064,-0.30307 0.62086,-0.77673 0.62222,-1.28v-3.73333zM5.18519,29.86667h-4.14815v1.06667h4.14815zM5.39259,25.70667l1.24444,-0.96c0.39064,-0.30307 0.62086,-0.77673 0.62222,-1.28v-2.66667h-0.51852c-3.14851,0.0038 -5.70001,2.6282 -5.7037,5.86667v2.13333h4.14815v-2.66667c0,-0.16787 0.07687,-0.32593 0.20741,-0.42667zM21.77778,29.06667l-3.11111,-2.4c-0.65126,-0.505 -1.03503,-1.29447 -1.03704,-2.13333v-3.73333h-1.03704c0,1.47273 -1.16077,2.66667 -2.59259,2.66667c-1.43182,0 -2.59259,-1.19393 -2.59259,-2.66667h-1.03704v3.73333c-0.00201,0.83887 -0.38578,1.62833 -1.03704,2.13333l-3.11111,2.4v1.86667h15.55556zM21.77778,26.4l-1.03704,-0.8c-0.65126,-0.505 -1.03503,-1.29447 -1.03704,-2.13333v-2.66667h-1.03704v3.73333c0.00136,0.50327 0.23158,0.97687 0.62222,1.28l2.48889,1.92zM26.96296,29.86667h-4.14815v1.06667h4.14815zM26.96296,26.66667c-0.00369,-3.23847 -2.55519,-5.86287 -5.7037,-5.86667h-0.51852v2.66667c0.00136,0.50327 0.23158,0.97687 0.62222,1.28l1.24444,0.96c0.13054,0.10073 0.20741,0.2588 0.20741,0.42667v2.66667h4.14815z" style="stroke-width: 0; stroke-linecap: butt; stroke-linejoin: miter; fill: rgb(131, 49, 167);" vector-effect="non-scaling-stroke"/></g><defs><path id="path-1673538955703183211" d="M10.88889,11.35v-0.51667c0,-0.28533 0.23217,-0.51667 0.51852,-0.51667c0.28635,0 0.51852,0.23134 0.51852,0.51667v0.51667c0,0.28533 -0.23217,0.51667 -0.51852,0.51667c-0.28635,0 -0.51852,-0.23134 -0.51852,-0.51667zM16.07407,11.35v-0.51667c0,-0.28533 0.23217,-0.51667 0.51852,-0.51667c0.28635,0 0.51852,0.23134 0.51852,0.51667v0.51667c0,0.28533 -0.23217,0.51667 -0.51852,0.51667c-0.28635,0 -0.51852,-0.23134 -0.51852,-0.51667zM12.53156,12.61583l1.03704,-1.55c0.15893,-0.23741 0.48093,-0.30148 0.71919,-0.14312c0.23826,0.15836 0.30256,0.47921 0.14363,0.71662l-0.71141,1.06278l0.51178,0.25472c0.25628,0.12755 0.36031,0.438 0.2323,0.69337c-0.12801,0.25536 -0.43957,0.35902 -0.69585,0.23147l-1.03704,-0.51667c-0.01944,-0.00962 -0.03824,-0.02054 -0.05632,-0.03255c-0.23819,-0.15849 -0.3023,-0.47934 -0.14331,-0.71662zM11.55985,14.81683l0.73526,-0.7285l0.15556,0.155c0.0641,0.07375 0.13345,0.14286 0.20747,0.20673c0.85607,0.7389 2.1512,0.64629 2.89275,-0.20673l0.15556,-0.155l0.73474,0.7285l-0.15556,0.155c-0.08005,0.08977 -0.16534,0.17483 -0.2555,0.25459c-1.2622,1.1171 -3.1942,1.00311 -4.31524,-0.25459zM28,26.66667v5.33333h-28v-5.33333c0.0013,-2.13167 0.95777,-4.14373 2.59259,-5.45387v-0.4128c0.00369,-3.23847 2.55519,-5.86287 5.7037,-5.86667h0.05444c-0.30178,-0.67287 -0.48669,-1.39487 -0.54652,-2.13333h-0.02644c-1.14547,0 -2.07407,-0.95513 -2.07407,-2.13333c0,-1.1782 0.9286,-2.13333 2.07407,-2.13333v-4.26667h0.03059c0.26626,-2.4276 2.26094,-4.26333 4.63607,-4.26667h3.11111c2.37514,0.00333 4.36981,1.83907 4.63607,4.26667h4.17874v1.06667h-4.14815v3.2c1.14547,0 2.07407,0.95513 2.07407,2.13333c0,1.1782 -0.9286,2.13333 -2.07407,2.13333h-0.02385c-0.05982,0.73847 -0.24474,1.46047 -0.54652,2.13333h0.05185c3.14851,0.0038 5.70001,2.6282 5.7037,5.86667v0.4128c1.63482,1.31013 2.5913,3.3222 2.59259,5.45387zM20.22222,11.73333c0.57277,0 1.03704,-0.47753 1.03704,-1.06667c0,-0.58913 -0.46427,-1.06667 -1.03704,-1.06667zM7.77778,9.6c-0.57277,0 -1.03704,0.47753 -1.03704,1.06667c0,0.58913 0.46427,1.06667 1.03704,1.06667zM19.04363,16c-0.62935,0.8988 -1.47356,1.6152 -2.45104,2.08v1.65333h4.66667c1.07852,0.0002 2.14103,0.2684 3.09711,0.78187c-0.14642,-2.5336 -2.1851,-4.51207 -4.65267,-4.5152zM8.85163,4.26667h10.29674c-0.2601,-1.83567 -1.78928,-3.19767 -3.59281,-3.2h-3.11111c-1.80354,0.00233 -3.33271,1.36433 -3.59281,3.2zM8.81481,8.85973l1.01059,-0.3456c0.63531,-0.21787 1.06374,-0.8296 1.06348,-1.5184v-0.59573c0,-0.09673 0.0256,-0.19167 0.07402,-0.27453c0.14752,-0.25253 0.46608,-0.3342 0.71154,-0.18253l2.408,1.48587c1.42781,0.8824 3.25636,0.65073 4.43333,-0.5616l0.66941,-0.688v-0.84587h-10.37037zM8.81481,12.26667c0,2.94553 2.32147,5.33333 5.18519,5.33333c2.86371,0 5.18519,-2.3878 5.18519,-5.33333v-4.58667c-1.51641,1.50793 -3.82861,1.77987 -5.63681,0.66293l-1.64267,-1.01333c-0.12406,1.01793 -0.80558,1.87207 -1.75207,2.19573l-1.33881,0.45867zM12.44444,18.45333v2.34667c0,0.88367 0.69644,1.6 1.55556,1.6c0.85912,0 1.55556,-0.71633 1.55556,-1.6v-2.34667c-1.01908,0.28087 -2.09203,0.28087 -3.11111,0zM3.64363,20.5152c0.95608,-0.51347 2.01859,-0.78167 3.09711,-0.78187h4.66667v-1.65333c-0.97747,-0.4648 -1.82169,-1.1812 -2.45104,-2.08h-0.66007c-2.46756,0.00313 -4.50625,1.9816 -4.65267,4.5152zM8.2963,20.8v2.66667c-0.00201,0.83887 -0.38578,1.62833 -1.03704,2.13333l-1.03704,0.8v1.33333l2.48889,-1.92c0.39064,-0.30307 0.62086,-0.77673 0.62222,-1.28v-3.73333zM5.18519,29.86667h-4.14815v1.06667h4.14815zM5.39259,25.70667l1.24444,-0.96c0.39064,-0.30307 0.62086,-0.77673 0.62222,-1.28v-2.66667h-0.51852c-3.14851,0.0038 -5.70001,2.6282 -5.7037,5.86667v2.13333h4.14815v-2.66667c0,-0.16787 0.07687,-0.32593 0.20741,-0.42667zM21.77778,29.06667l-3.11111,-2.4c-0.65126,-0.505 -1.03503,-1.29447 -1.03704,-2.13333v-3.73333h-1.03704c0,1.47273 -1.16077,2.66667 -2.59259,2.66667c-1.43182,0 -2.59259,-1.19393 -2.59259,-2.66667h-1.03704v3.73333c-0.00201,0.83887 -0.38578,1.62833 -1.03704,2.13333l-3.11111,2.4v1.86667h15.55556zM21.77778,26.4l-1.03704,-0.8c-0.65126,-0.505 -1.03503,-1.29447 -1.03704,-2.13333v-2.66667h-1.03704v3.73333c0.00136,0.50327 0.23158,0.97687 0.62222,1.28l2.48889,1.92zM26.96296,29.86667h-4.14815v1.06667h4.14815zM26.96296,26.66667c-0.00369,-3.23847 -2.55519,-5.86287 -5.7037,-5.86667h-0.51852v2.66667c0.00136,0.50327 0.23158,0.97687 0.62222,1.28l1.24444,0.96c0.13054,0.10073 0.20741,0.2588 0.20741,0.42667v2.66667h4.14815z" vector-effect="non-scaling-stroke"/></defs></g></svg>