<svg version="1.2" xmlns="http://www.w3.org/2000/svg" xmlns:xlink="http://www.w3.org/1999/xlink" overflow="visible" preserveAspectRatio="none" viewBox="0 0 34.000000000000036 30.999999876471453" width="34.000000000000036" height="30.999999876471453"><g transform="translate(0, 0)"><g transform="translate(-8.886988367429183e-15, 0) rotate(0)"><path d="M33.83542,18.61453l-0.96677,-5.00847c0.00379,-0.12478 0.00086,-0.24963 -0.00883,-0.37408c-0.08815,-0.96261 -0.54789,-1.85109 -1.27924,-2.47239l-0.13478,-0.11812c0.49528,-1.28106 0.1209,-2.73931 -0.92778,-3.61386c-0.97467,-0.83682 -2.15952,-1.38338 -3.42262,-1.57886l-1.67953,-0.27459c-0.06158,-0.11086 -0.12873,-0.21849 -0.20121,-0.32242c-1.6396,-2.33677 -5.1159,-4.85174 -8.87397,-4.85174c-4.07167,0 -7.14197,1.48078 -7.14197,3.44415c-0.00007,0.08294 0.00551,0.16582 0.01661,0.24809l-1.33391,1.48515c-0.03374,-0.00518 -0.06795,-0.00706 -0.10203,-0.00552l-2.75424,0.39406c-0.92499,0.11563 -1.74788,0.65076 -2.23664,1.45441c-0.58608,1.01111 -0.64892,2.24798 -0.16826,3.31459c-0.00432,-0.00013 -0.00784,-0.00249 -0.01216,-0.00249h-0.06616c-0.13531,0 -0.26617,0.04904 -0.36893,0.13817l-0.38361,0.33298c-1.15476,0.95434 -1.58739,2.54376 -1.0785,3.96245l-0.61982,4.28298c-0.38428,2.77314 0.45947,5.57669 2.30579,7.66134c2.49258,2.79911 6.06314,4.3635 9.78434,4.28695h9.63628c3.80271,0.06384 7.43969,-1.57381 9.94018,-4.47584c1.84307,-2.17903 2.60764,-5.08852 2.07775,-7.90694zM8.67057,6.00479l1.07199,-1.19368c1.05478,1.24447 3.54498,2.07718 6.59807,2.07718c0.05613,-0.00269 0.11153,-0.01399 0.16427,-0.03357c0.05274,0.01958 0.10814,0.03094 0.16427,0.03357c1.97698,0 3.52558,-1.00849 3.52558,-2.29608c0,-1.28765 -1.54853,-2.29608 -3.52558,-2.29608c-0.9305,-0.02422 -1.84665,0.23564 -2.62936,0.74587c-0.25461,0.18378 -0.3142,0.54165 -0.13305,0.79975c0.18114,0.25811 0.53447,0.31892 0.78954,0.13582c0.59186,-0.36964 1.27784,-0.5551 1.97286,-0.53337c1.36892,0 2.39188,0.60595 2.39188,1.14807c0,0.54205 -1.02297,1.14807 -2.39188,1.14807c-0.05613,0.00269 -0.11153,0.01399 -0.16427,0.03357c-0.05274,-0.01958 -0.10814,-0.03094 -0.16427,-0.03357c-3.4387,0 -6.00827,-1.21225 -6.00827,-2.29608c0,-1.08383 2.56957,-2.29608 6.00827,-2.29608c3.35593,0 6.47352,2.26439 7.94985,4.36855c0.31805,0.38942 0.44718,0.90254 0.35206,1.39865c-0.10887,0.33345 -0.3676,0.59479 -0.69721,0.7041l-1.14698,0.47283c-1.28635,0.52543 -2.70548,0.61759 -4.04756,0.26289l-0.41902,-0.11099c-1.35862,-0.36029 -2.78938,-0.3315 -4.13279,0.08321c-1.2263,0.37502 -2.53457,0.37502 -3.76086,0l-1.12978,-0.34953c-0.43416,-0.11994 -0.77712,-0.45722 -0.90812,-0.89326c-0.10243,-0.38323 0.00007,-0.79262 0.27036,-1.07986zM3.76943,7.59623c0.3134,-0.4996 0.83372,-0.82828 1.41462,-0.89353l2.07642,-0.29712c-0.05626,0.32713 -0.04039,0.6628 0.04643,0.98293c0.23289,0.8161 0.86388,1.45347 1.67036,1.6873l1.12978,0.34953c1.44232,0.44061 2.98089,0.44061 4.42314,0c1.14233,-0.35323 2.3592,-0.37778 3.51449,-0.0709l0.41902,0.11099c1.57915,0.41673 3.24878,0.30802 4.76224,-0.30997l1.14665,-0.47283c0.65025,-0.24217 1.1523,-0.77675 1.35842,-1.44654c0.07553,-0.27136 0.10097,-0.55449 0.075,-0.83521l1.10879,0.18129c1.05598,0.16178 2.04706,0.61692 2.86298,1.31483c0.42334,0.33345 0.69588,0.82572 0.756,1.36542c0.06012,0.5397 -0.09731,1.08107 -0.43662,1.50163c-0.01076,0.01123 -0.05427,0.05718 -0.06397,0.06922c-0.94571,1.05988 -2.40105,1.48858 -3.76053,1.10771l-1.68251,-0.44202c-1.53086,-0.40038 -3.14502,-0.32706 -4.63437,0.21048l-3.23523,1.17686c-1.51319,0.53922 -3.16542,0.52241 -4.66758,-0.04763l-2.15886,-0.83891c-0.8937,-0.34401 -1.84187,-0.52005 -2.79795,-0.51938h-1.04741c-0.50909,0.0041 -1.00702,-0.15115 -1.42571,-0.44451c-1.14778,-0.73033 -1.52402,-2.2465 -0.85358,-3.43964zM1.63694,13.31378c0.06344,-0.64632 0.38507,-1.23835 0.89031,-1.63853v0l0.25687,-0.22313c0.14601,-0.05038 0.26517,-0.15929 0.32974,-0.30123c0.24412,0.3128 0.53081,0.58887 0.85159,0.82c0.61086,0.43146 1.33856,0.66111 2.08326,0.65755h1.04761c0.81797,-0.00054 1.62917,0.14987 2.39381,0.44397l2.15833,0.83864c0.89769,0.3424 1.84924,0.51696 2.80844,0.51514c0.90187,0.00202 1.79737,-0.15344 2.64709,-0.45965l3.2355,-1.17693c1.27446,-0.45978 2.65573,-0.52241 3.96566,-0.17967l1.68471,0.44256c1.75279,0.48057 3.62409,-0.06666 4.85404,-1.41957c0.50298,0.42453 0.82116,1.03217 0.88606,1.692c0.04457,0.64961 -0.17238,1.28981 -0.60142,1.77474c-1.16798,1.23485 -2.91844,1.70721 -4.53832,1.22456c-0.1106,-0.03094 -0.22485,-0.04615 -0.33964,-0.04514c-0.62467,-0.02287 -1.15017,0.46967 -1.17601,1.10206v2.70951c-0.05932,0.36009 -0.38481,0.6114 -0.74344,0.574c-0.20446,0.00343 -0.40314,-0.06888 -0.55851,-0.20349c-0.11326,-0.08927 -0.18114,-0.22521 -0.18493,-0.37051v-1.14807c-0.09559,-0.97728 -0.90732,-1.72194 -1.87708,-1.72194c-0.96976,0 -1.78149,0.74466 -1.87708,1.72194v2.87014c-0.08728,0.70834 -0.71581,1.21742 -1.41741,1.14807c-0.37631,0.00424 -0.74218,-0.12559 -1.03346,-0.36688c-0.23561,-0.19024 -0.37611,-0.47613 -0.38388,-0.78112v-1.26297c-0.01475,-1.02046 -0.50564,-1.97366 -1.32355,-2.56993c-1.04256,-0.77641 -2.38105,-1.02093 -3.62575,-0.66233c-0.01574,0.00309 -0.03155,0.007 -0.04703,0.0115c-0.88008,0.25636 -1.82686,0.10938 -2.59063,-0.4022l-0.53473,-0.36184c-1.02835,-0.70047 -2.30865,-0.90799 -3.50154,-0.56761c-0.01521,0.00309 -0.03016,0.00673 -0.0451,0.0109c-1.10553,0.33513 -2.30314,0.00592 -3.08963,-0.84926l-0.04955,-0.06135c-0.41749,-0.49308 -0.61777,-1.13758 -0.55433,-1.78396zM30.88303,25.79094c-2.28427,2.63867 -5.60101,4.12342 -9.06554,4.05824h-9.63628c-3.3918,0.07615 -6.64902,-1.34315 -8.92658,-3.88953c-1.62897,-1.8334 -2.37621,-4.30121 -2.04208,-6.7442l0.43875,-3.03179c1.06827,0.98205 2.5608,1.33743 3.94925,0.94035c0.01627,-0.00309 0.03235,-0.007 0.04816,-0.01177c0.88002,-0.25683 1.82699,-0.10978 2.59063,0.4022l0.53473,0.36184c1.02835,0.7004 2.30865,0.90792 3.50154,0.56761c0.01548,-0.00309 0.03102,-0.00673 0.04623,-0.01123c0.9131,-0.27594 1.90112,-0.10427 2.67114,0.46415c0.5356,0.37765 0.85989,0.99234 0.87211,1.65312v1.26297c0.00525,0.6408 0.29095,1.24615 0.77998,1.65285c0.49574,0.42137 1.12387,0.64954 1.77106,0.64329c1.3284,0.07299 2.46674,-0.95158 2.55104,-2.29608v-2.87014c0.09187,-0.33903 0.39623,-0.57407 0.74338,-0.57407c0.34714,0 0.65151,0.23504 0.74338,0.57407v1.14807c0.00325,0.47862 0.21416,0.9316 0.57678,1.23855c0.36036,0.31697 0.82302,0.48897 1.3003,0.48353c0.9867,0.04581 1.82493,-0.72327 1.87708,-1.72207v-2.65515c0.02318,-0.00518 0.04683,-0.0076 0.07061,-0.00726c2.04381,0.5997 4.24717,-0.00922 5.70683,-1.57718c0.04597,-0.05381 0.08649,-0.11052 0.129,-0.16615l0.60774,3.1489c0.46266,2.48153 -0.21416,5.04144 -1.83921,6.95691z" style="stroke-width: 0; stroke-linecap: butt; stroke-linejoin: miter; fill: rgb(131, 49, 167);" vector-effect="non-scaling-stroke"/></g><defs><path id="path-1673538955701183121" d="M33.83542,18.61453l-0.96677,-5.00847c0.00379,-0.12478 0.00086,-0.24963 -0.00883,-0.37408c-0.08815,-0.96261 -0.54789,-1.85109 -1.27924,-2.47239l-0.13478,-0.11812c0.49528,-1.28106 0.1209,-2.73931 -0.92778,-3.61386c-0.97467,-0.83682 -2.15952,-1.38338 -3.42262,-1.57886l-1.67953,-0.27459c-0.06158,-0.11086 -0.12873,-0.21849 -0.20121,-0.32242c-1.6396,-2.33677 -5.1159,-4.85174 -8.87397,-4.85174c-4.07167,0 -7.14197,1.48078 -7.14197,3.44415c-0.00007,0.08294 0.00551,0.16582 0.01661,0.24809l-1.33391,1.48515c-0.03374,-0.00518 -0.06795,-0.00706 -0.10203,-0.00552l-2.75424,0.39406c-0.92499,0.11563 -1.74788,0.65076 -2.23664,1.45441c-0.58608,1.01111 -0.64892,2.24798 -0.16826,3.31459c-0.00432,-0.00013 -0.00784,-0.00249 -0.01216,-0.00249h-0.06616c-0.13531,0 -0.26617,0.04904 -0.36893,0.13817l-0.38361,0.33298c-1.15476,0.95434 -1.58739,2.54376 -1.0785,3.96245l-0.61982,4.28298c-0.38428,2.77314 0.45947,5.57669 2.30579,7.66134c2.49258,2.79911 6.06314,4.3635 9.78434,4.28695h9.63628c3.80271,0.06384 7.43969,-1.57381 9.94018,-4.47584c1.84307,-2.17903 2.60764,-5.08852 2.07775,-7.90694zM8.67057,6.00479l1.07199,-1.19368c1.05478,1.24447 3.54498,2.07718 6.59807,2.07718c0.05613,-0.00269 0.11153,-0.01399 0.16427,-0.03357c0.05274,0.01958 0.10814,0.03094 0.16427,0.03357c1.97698,0 3.52558,-1.00849 3.52558,-2.29608c0,-1.28765 -1.54853,-2.29608 -3.52558,-2.29608c-0.9305,-0.02422 -1.84665,0.23564 -2.62936,0.74587c-0.25461,0.18378 -0.3142,0.54165 -0.13305,0.79975c0.18114,0.25811 0.53447,0.31892 0.78954,0.13582c0.59186,-0.36964 1.27784,-0.5551 1.97286,-0.53337c1.36892,0 2.39188,0.60595 2.39188,1.14807c0,0.54205 -1.02297,1.14807 -2.39188,1.14807c-0.05613,0.00269 -0.11153,0.01399 -0.16427,0.03357c-0.05274,-0.01958 -0.10814,-0.03094 -0.16427,-0.03357c-3.4387,0 -6.00827,-1.21225 -6.00827,-2.29608c0,-1.08383 2.56957,-2.29608 6.00827,-2.29608c3.35593,0 6.47352,2.26439 7.94985,4.36855c0.31805,0.38942 0.44718,0.90254 0.35206,1.39865c-0.10887,0.33345 -0.3676,0.59479 -0.69721,0.7041l-1.14698,0.47283c-1.28635,0.52543 -2.70548,0.61759 -4.04756,0.26289l-0.41902,-0.11099c-1.35862,-0.36029 -2.78938,-0.3315 -4.13279,0.08321c-1.2263,0.37502 -2.53457,0.37502 -3.76086,0l-1.12978,-0.34953c-0.43416,-0.11994 -0.77712,-0.45722 -0.90812,-0.89326c-0.10243,-0.38323 0.00007,-0.79262 0.27036,-1.07986zM3.76943,7.59623c0.3134,-0.4996 0.83372,-0.82828 1.41462,-0.89353l2.07642,-0.29712c-0.05626,0.32713 -0.04039,0.6628 0.04643,0.98293c0.23289,0.8161 0.86388,1.45347 1.67036,1.6873l1.12978,0.34953c1.44232,0.44061 2.98089,0.44061 4.42314,0c1.14233,-0.35323 2.3592,-0.37778 3.51449,-0.0709l0.41902,0.11099c1.57915,0.41673 3.24878,0.30802 4.76224,-0.30997l1.14665,-0.47283c0.65025,-0.24217 1.1523,-0.77675 1.35842,-1.44654c0.07553,-0.27136 0.10097,-0.55449 0.075,-0.83521l1.10879,0.18129c1.05598,0.16178 2.04706,0.61692 2.86298,1.31483c0.42334,0.33345 0.69588,0.82572 0.756,1.36542c0.06012,0.5397 -0.09731,1.08107 -0.43662,1.50163c-0.01076,0.01123 -0.05427,0.05718 -0.06397,0.06922c-0.94571,1.05988 -2.40105,1.48858 -3.76053,1.10771l-1.68251,-0.44202c-1.53086,-0.40038 -3.14502,-0.32706 -4.63437,0.21048l-3.23523,1.17686c-1.51319,0.53922 -3.16542,0.52241 -4.66758,-0.04763l-2.15886,-0.83891c-0.8937,-0.34401 -1.84187,-0.52005 -2.79795,-0.51938h-1.04741c-0.50909,0.0041 -1.00702,-0.15115 -1.42571,-0.44451c-1.14778,-0.73033 -1.52402,-2.2465 -0.85358,-3.43964zM1.63694,13.31378c0.06344,-0.64632 0.38507,-1.23835 0.89031,-1.63853v0l0.25687,-0.22313c0.14601,-0.05038 0.26517,-0.15929 0.32974,-0.30123c0.24412,0.3128 0.53081,0.58887 0.85159,0.82c0.61086,0.43146 1.33856,0.66111 2.08326,0.65755h1.04761c0.81797,-0.00054 1.62917,0.14987 2.39381,0.44397l2.15833,0.83864c0.89769,0.3424 1.84924,0.51696 2.80844,0.51514c0.90187,0.00202 1.79737,-0.15344 2.64709,-0.45965l3.2355,-1.17693c1.27446,-0.45978 2.65573,-0.52241 3.96566,-0.17967l1.68471,0.44256c1.75279,0.48057 3.62409,-0.06666 4.85404,-1.41957c0.50298,0.42453 0.82116,1.03217 0.88606,1.692c0.04457,0.64961 -0.17238,1.28981 -0.60142,1.77474c-1.16798,1.23485 -2.91844,1.70721 -4.53832,1.22456c-0.1106,-0.03094 -0.22485,-0.04615 -0.33964,-0.04514c-0.62467,-0.02287 -1.15017,0.46967 -1.17601,1.10206v2.70951c-0.05932,0.36009 -0.38481,0.6114 -0.74344,0.574c-0.20446,0.00343 -0.40314,-0.06888 -0.55851,-0.20349c-0.11326,-0.08927 -0.18114,-0.22521 -0.18493,-0.37051v-1.14807c-0.09559,-0.97728 -0.90732,-1.72194 -1.87708,-1.72194c-0.96976,0 -1.78149,0.74466 -1.87708,1.72194v2.87014c-0.08728,0.70834 -0.71581,1.21742 -1.41741,1.14807c-0.37631,0.00424 -0.74218,-0.12559 -1.03346,-0.36688c-0.23561,-0.19024 -0.37611,-0.47613 -0.38388,-0.78112v-1.26297c-0.01475,-1.02046 -0.50564,-1.97366 -1.32355,-2.56993c-1.04256,-0.77641 -2.38105,-1.02093 -3.62575,-0.66233c-0.01574,0.00309 -0.03155,0.007 -0.04703,0.0115c-0.88008,0.25636 -1.82686,0.10938 -2.59063,-0.4022l-0.53473,-0.36184c-1.02835,-0.70047 -2.30865,-0.90799 -3.50154,-0.56761c-0.01521,0.00309 -0.03016,0.00673 -0.0451,0.0109c-1.10553,0.33513 -2.30314,0.00592 -3.08963,-0.84926l-0.04955,-0.06135c-0.41749,-0.49308 -0.61777,-1.13758 -0.55433,-1.78396zM30.88303,25.79094c-2.28427,2.63867 -5.60101,4.12342 -9.06554,4.05824h-9.63628c-3.3918,0.07615 -6.64902,-1.34315 -8.92658,-3.88953c-1.62897,-1.8334 -2.37621,-4.30121 -2.04208,-6.7442l0.43875,-3.03179c1.06827,0.98205 2.5608,1.33743 3.94925,0.94035c0.01627,-0.00309 0.03235,-0.007 0.04816,-0.01177c0.88002,-0.25683 1.82699,-0.10978 2.59063,0.4022l0.53473,0.36184c1.02835,0.7004 2.30865,0.90792 3.50154,0.56761c0.01548,-0.00309 0.03102,-0.00673 0.04623,-0.01123c0.9131,-0.27594 1.90112,-0.10427 2.67114,0.46415c0.5356,0.37765 0.85989,0.99234 0.87211,1.65312v1.26297c0.00525,0.6408 0.29095,1.24615 0.77998,1.65285c0.49574,0.42137 1.12387,0.64954 1.77106,0.64329c1.3284,0.07299 2.46674,-0.95158 2.55104,-2.29608v-2.87014c0.09187,-0.33903 0.39623,-0.57407 0.74338,-0.57407c0.34714,0 0.65151,0.23504 0.74338,0.57407v1.14807c0.00325,0.47862 0.21416,0.9316 0.57678,1.23855c0.36036,0.31697 0.82302,0.48897 1.3003,0.48353c0.9867,0.04581 1.82493,-0.72327 1.87708,-1.72207v-2.65515c0.02318,-0.00518 0.04683,-0.0076 0.07061,-0.00726c2.04381,0.5997 4.24717,-0.00922 5.70683,-1.57718c0.04597,-0.05381 0.08649,-0.11052 0.129,-0.16615l0.60774,3.1489c0.46266,2.48153 -0.21416,5.04144 -1.83921,6.95691z" vector-effect="non-scaling-stroke"/></defs></g></svg>