<svg version="1.2" xmlns="http://www.w3.org/2000/svg" xmlns:xlink="http://www.w3.org/1999/xlink" overflow="visible" preserveAspectRatio="none" viewBox="0 0 14 30" width="14" height="30"><g transform="translate(0, 0)"><defs><path id="path-167202719637917" d="M29.1221405712931 23.890004508011973 C29.1221405712931 23.890004508011973 24.96959819841176 23.890004508011973 24.96959819841176 23.890004508011973 C24.96959819841176 23.890004508011973 24.96959819841176 38.918896766525975 24.96959819841176 38.918896766525975 C24.96959819841176 38.918896766525975 18.678143890008293 38.918896766525975 18.678143890008293 38.918896766525975 C18.678143890008293 38.918896766525975 18.678143890008293 23.890004508011973 18.678143890008293 23.890004508011973 C18.678143890008293 23.890004508011973 15.685907313025949 23.890004508011973 15.685907313025949 23.890004508011973 C15.685907313025949 23.890004508011973 15.685907313025949 18.6082537600918 15.685907313025949 18.6082537600918 C15.685907313025949 18.6082537600918 18.678143890008293 18.6082537600918 18.678143890008293 18.6082537600918 C18.678143890008293 18.6082537600918 18.678143890008293 15.190361050776609 18.678143890008293 15.190361050776609 C18.678143890008293 12.74619892627352 19.85338390423135 8.918896766525963 25.025601517126937 8.918896766525963 C25.025601517126937 8.918896766525963 29.68590731302595 8.938158272201962 29.68590731302595 8.938158272201962 C29.68590731302595 8.938158272201962 29.68590731302595 14.064997336174754 29.68590731302595 14.064997336174754 C29.68590731302595 14.064997336174754 26.304551380822563 14.064997336174754 26.304551380822563 14.064997336174754 C25.749911105843314 14.064997336174754 24.97001303780965 14.338756608335723 24.97001303780965 15.504692430638094 C24.97001303780965 15.504692430638094 24.97001303780965 18.613171591328232 24.97001303780965 18.613171591328232 C24.97001303780965 18.613171591328232 29.671802773497685 18.613171591328232 29.671802773497685 18.613171591328232 C29.671802773497685 18.613171591328232 29.1221405712931 23.890004508011973 29.1221405712931 23.890004508011973 Z" vector-effect="non-scaling-stroke"/></defs><g transform="translate(-15.685907313025949, -8.918896766525963)"><path d="M29.1221405712931 23.890004508011973 C29.1221405712931 23.890004508011973 24.96959819841176 23.890004508011973 24.96959819841176 23.890004508011973 C24.96959819841176 23.890004508011973 24.96959819841176 38.918896766525975 24.96959819841176 38.918896766525975 C24.96959819841176 38.918896766525975 18.678143890008293 38.918896766525975 18.678143890008293 38.918896766525975 C18.678143890008293 38.918896766525975 18.678143890008293 23.890004508011973 18.678143890008293 23.890004508011973 C18.678143890008293 23.890004508011973 15.685907313025949 23.890004508011973 15.685907313025949 23.890004508011973 C15.685907313025949 23.890004508011973 15.685907313025949 18.6082537600918 15.685907313025949 18.6082537600918 C15.685907313025949 18.6082537600918 18.678143890008293 18.6082537600918 18.678143890008293 18.6082537600918 C18.678143890008293 18.6082537600918 18.678143890008293 15.190361050776609 18.678143890008293 15.190361050776609 C18.678143890008293 12.74619892627352 19.85338390423135 8.918896766525963 25.025601517126937 8.918896766525963 C25.025601517126937 8.918896766525963 29.68590731302595 8.938158272201962 29.68590731302595 8.938158272201962 C29.68590731302595 8.938158272201962 29.68590731302595 14.064997336174754 29.68590731302595 14.064997336174754 C29.68590731302595 14.064997336174754 26.304551380822563 14.064997336174754 26.304551380822563 14.064997336174754 C25.749911105843314 14.064997336174754 24.97001303780965 14.338756608335723 24.97001303780965 15.504692430638094 C24.97001303780965 15.504692430638094 24.97001303780965 18.613171591328232 24.97001303780965 18.613171591328232 C24.97001303780965 18.613171591328232 29.671802773497685 18.613171591328232 29.671802773497685 18.613171591328232 C29.671802773497685 18.613171591328232 29.1221405712931 23.890004508011973 29.1221405712931 23.890004508011973 Z" style="stroke-width: 0; stroke-linecap: butt; stroke-linejoin: miter; fill: rgb(59, 89, 152);" vector-effect="non-scaling-stroke"/></g></g></svg>