<svg version="1.2" xmlns="http://www.w3.org/2000/svg" xmlns:xlink="http://www.w3.org/1999/xlink" overflow="visible" preserveAspectRatio="none" viewBox="0 0 1921 624" width="1921" height="624"><g transform="translate(0, 0)"><defs><path id="path-1671059177080643227" d="M0 0 C0 0 1920.9999999999977 0 1920.9999999999977 0 C1920.9999999999977 0 1920.9999999999977 624 1920.9999999999977 624 C1920.9999999999977 624 0 624 0 624 C0 624 0 0 0 0 Z" vector-effect="non-scaling-stroke"/><linearGradient id="gradient-1671059177640650320" x1="7%" y1="75%" x2="93%" y2="25%" vector-effect="non-scaling-stroke"><stop offset="3%" stop-color="rgba(58,141,222,0.5)" stop-opacity="0.5" vector-effect="non-scaling-stroke"/><stop offset="47%" stop-color="rgba(131,49,167,0.53)" stop-opacity="0.53" vector-effect="non-scaling-stroke"/><stop offset="97%" stop-color="rgba(223,22,131,0.5)" stop-opacity="0.5" vector-effect="non-scaling-stroke"/></linearGradient></defs><g transform="translate(0, 0)"><path d="M0 0 C0 0 1920.9999999999977 0 1920.9999999999977 0 C1920.9999999999977 0 1920.9999999999977 624 1920.9999999999977 624 C1920.9999999999977 624 0 624 0 624 C0 624 0 0 0 0 Z" style="stroke: rgb(140, 140, 140); stroke-width: 0; stroke-linecap: butt; stroke-linejoin: miter; fill: url(&quot;#gradient-1671059177640650320&quot;);" vector-effect="non-scaling-stroke"/></g></g></svg>