<svg version="1.2" xmlns="http://www.w3.org/2000/svg" xmlns:xlink="http://www.w3.org/1999/xlink" overflow="visible" preserveAspectRatio="none" viewBox="0 0 37.000005895238075 40.00004153425447" width="37.000005895238075" height="40.00004153425447"><g transform="translate(0, 0)"><g transform="translate(0.000020000000003683738, 0.000040000000013584724) rotate(0)"><path d="M0,35.33312c-0.00083,2.01723 1.28353,3.80644 3.18334,4.43462c1.89981,0.62819 3.98456,-0.047 5.16713,-1.67348c0.68029,0.37753 1.44451,0.57442 2.2209,0.57216c1.41183,0.00025 2.74643,-0.6503 3.62376,-1.76641c0.87733,-1.11611 1.20127,-2.57548 0.87956,-3.96256c0.69356,-0.30942 1.30156,-0.78537 1.77095,-1.38632c1.31404,1.68746 3.59926,2.25313 5.53809,1.37086c1.93883,-0.88227 3.03137,-2.98501 2.6477,-5.09584c1.96503,-0.55473 3.33766,-2.34317 3.37824,-4.40164c0.04058,-2.05847 -1.26047,-3.90058 -3.20208,-4.53372c0.36844,-0.68236 0.56104,-1.44718 0.56012,-2.22424c0,-0.11467 -0.00553,-0.228 -0.01363,-0.34066c0.01745,0.04033 0.03513,0.07994 0.05302,0.11883c0.36243,0.78688 0.88017,1.49087 1.52153,2.0689c0.14414,0.12029 0.33206,0.17329 0.51713,0.14586c0.18507,-0.02743 0.34994,-0.13274 0.4537,-0.28978l0.4402,-0.66666c0.73223,1.47399 2.34594,2.66432 2.59255,2.84057c0.17804,0.12719 0.40682,0.15751 0.61137,0.08103c0.20455,-0.07648 0.35851,-0.24991 0.41141,-0.46345l0.50792,-2.04999l2.68579,0.54166c0.23781,0.04811 0.48262,-0.03912 0.63776,-0.22724c0.15513,-0.18812 0.19565,-0.44688 0.10554,-0.67409l-1.06118,-2.6769l1.31737,-0.443c0.19013,-0.06394 0.34123,-0.21151 0.41076,-0.40118c0.06953,-0.18966 0.04998,-0.40092 -0.05315,-0.57432c-1.17978,-1.98407 -2.50352,-2.78232 -3.49045,-3.09373l0.09597,-0.1005c0.15206,-0.15914 0.21605,-0.38399 0.17083,-0.60029c-0.04521,-0.2163 -0.19375,-0.39592 -0.39655,-0.47954c-2.49418,-1.02833 -4.29462,-0.53016 -5.3653,0.06875c-0.70764,0.39031 -1.31348,0.94434 -1.76781,1.61666c-0.00372,0.00608 -0.00727,0.01217 -0.01074,0.01825c-0.05121,0.09025 -0.09911,0.17975 -0.14478,0.26892c-1.34446,-0.10937 -2.69336,0.14755 -3.90579,0.74391c-0.27488,-0.05757 -0.55439,-0.08973 -0.83506,-0.09608c-0.02769,-0.51862 -0.1032,-1.03351 -0.22555,-1.53799c1.3419,-0.76766 2.9732,-1.9259 3.96509,-3.42765c0.00826,-0.01275 0.01652,-0.0255 0.02478,-0.03842c0.99404,0.08708 1.99512,-0.03784 2.93818,-0.36666c0.3462,-0.11644 0.5333,-0.49401 0.4179,-0.84333c-0.1154,-0.34932 -0.4896,-0.5381 -0.8358,-0.42166c-0.65399,0.22676 -1.34197,0.33745 -2.03342,0.32716c0.06664,-0.46549 0.03503,-0.93994 -0.09275,-1.39224c-0.19433,-0.69008 -0.59951,-1.28974 -1.11156,-1.64524c-0.76808,-0.53333 -1.65178,-0.45508 -2.30621,0.20475c-0.4884,0.47799 -0.66296,1.19566 -0.44937,1.84749c0.25685,0.83783 1.03583,1.55516 2.08008,1.96124c-0.8391,1.07383 -2.07843,1.94074 -3.03151,2.50732c-0.23271,-0.53048 -0.5245,-1.03252 -0.86974,-1.49641c0.00619,-0.01225 0.01255,-0.02383 0.01867,-0.03617c0.36431,-0.71646 0.552,-1.511 0.54715,-2.31624c-0.00875,-1.22424 -0.49165,-3.0069 -2.74253,-4.54689c-0.15759,-0.10783 -0.35363,-0.14181 -0.53786,-0.09324c-0.18422,0.04857 -0.33872,0.17498 -0.42389,0.34682l-0.24066,0.48558c-0.77394,-0.66716 -2.20364,-1.52074 -4.45435,-1.52074c-0.3649,0 -0.66071,0.29847 -0.66071,0.66666v1.45341l-2.77242,0.5595c-0.23888,0.04825 -0.43207,0.22522 -0.50268,0.46049c-0.07061,0.23527 -0.00717,0.49065 0.16506,0.66451l2.17572,2.1954l-1.51501,1.52857c-0.16195,0.16338 -0.2285,0.39972 -0.17589,0.6246c0.05261,0.22489 0.21688,0.40625 0.43414,0.47931c0.739,0.23704 1.49577,0.41345 2.26293,0.5275c0.53315,0.08275 1.07302,0.1129 1.61197,0.09l-0.2514,0.3805c-0.11426,0.17288 -0.14209,0.38963 -0.07527,0.58619c0.06682,0.19655 0.22066,0.35043 0.41603,0.41614c0.48316,0.14479 0.98282,0.22602 1.4866,0.24167c-1.24362,0.39113 -2.26745,1.29095 -2.82206,2.48023c-0.14527,-0.01375 -0.29137,-0.02142 -0.43772,-0.02142c-1.56963,0.00023 -3.03206,0.80358 -3.88416,2.13367c-0.8521,1.33009 -0.9776,3.00542 -0.33332,4.44962c-1.73994,0.96887 -2.67167,2.95121 -2.31422,4.92372c-1.99582,0.56598 -3.37593,2.40107 -3.37896,4.49289c-0.00225,0.78339 0.19288,1.55449 0.56706,2.2409c-1.18688,0.87805 -1.88822,2.27408 -1.88848,3.75906zM22.80988,4.31472c-0.04254,-0.14914 -0.01833,-0.30959 0.06626,-0.43921c0.08459,-0.12962 0.2211,-0.21545 0.37369,-0.23495c0.11066,0.00609 0.21683,0.04619 0.30426,0.11492c0.54905,0.38125 0.70481,1.11133 0.63957,1.70574c-0.79178,-0.281 -1.26493,-0.75858 -1.38378,-1.14649zM4.62498,38.66643c-1.8245,0 -3.30355,-1.49237 -3.30355,-3.33331c0,-1.84094 1.47905,-3.33331 3.30355,-3.33331c1.8245,0 3.30355,1.49237 3.30355,3.33331c-0.00205,1.84008 -1.4799,3.33125 -3.30355,3.33331zM13.87493,33.99979c-0.00205,1.84008 -1.4799,3.33125 -3.30355,3.33331c-0.55856,0.00164 -1.10824,-0.14102 -1.59669,-0.41441c0.45067,-1.25745 0.34431,-2.64965 -0.29203,-3.82256c0.45764,-0.33765 0.84962,-0.75759 1.15624,-1.23874c1.01384,1.09528 2.48878,1.63027 3.9617,1.43699c0.0495,0.23181 0.07442,0.46828 0.07433,0.70541zM13.21422,31.9998c-1.12509,0.00032 -2.17287,-0.57758 -2.78002,-1.53332c0.0912,-0.37075 0.13727,-0.75133 0.13718,-1.13333c0.00038,-0.66565 -0.14128,-1.32358 -0.41534,-1.92907c0.62851,-1.54975 2.29892,-2.38849 3.90315,-1.95983c1.60423,0.42865 2.64431,1.99164 2.43028,3.65214c-0.21403,1.6605 -1.61572,2.90306 -3.27525,2.90342zM14.73567,19.86046c0.94931,0.23985 1.94961,0.1689 2.85634,-0.20258c0.55838,0.67762 1.29642,1.18082 2.12782,1.45074c-0.5514,1.02591 -0.70169,2.22309 -0.4212,3.35531c-0.51618,0.81917 -1.36252,1.36863 -2.3153,1.50316c-0.73268,-1.04188 -1.85641,-1.7354 -3.10939,-1.91899c0,-0.01608 0.00099,-0.03217 0.00099,-0.04825c0.00079,-0.7676 -0.18727,-1.52339 -0.54732,-2.19957c0.21216,-0.80165 0.71461,-1.49385 1.40806,-1.93982zM20.10972,13.49992c1.55424,-0.51588 3.24858,0.1939 3.98368,1.66882c0.73509,1.47492 0.28945,3.27056 -1.04778,4.22186c-1.33723,0.9513 -3.16313,0.77162 -4.293,-0.42246c1.6178,-1.30858 2.17277,-3.54477 1.3571,-5.46822zM20.48203,31.9998c-1.21876,-0.00021 -2.3385,-0.6772 -2.91349,-1.76149c0.34783,-0.97896 0.36074,-2.04725 0.03667,-3.03448c0.879,-0.21188 1.67642,-0.68094 2.29225,-1.34833c0.83761,1.31502 2.27224,2.11941 3.8213,2.14257c0.19852,0.98091 -0.05026,1.99991 -0.67762,2.77554c-0.62736,0.77563 -1.5669,1.22581 -2.55912,1.22618zM27.08914,23.33319c0,1.4503 -0.92938,2.73416 -2.29861,3.17534c-1.36923,0.44118 -2.86405,-0.06158 -3.69709,-1.24346c-0.83304,-1.18188 -0.81311,-2.77163 0.04931,-3.93186c1.18645,0.00048 2.32735,-0.46091 3.18504,-1.28808c1.5961,0.26256 2.7666,1.65633 2.76136,3.28806zM31.83338,10.29752l-0.27948,0.29258c-0.20287,0.20824 -0.24911,0.5249 -0.11439,0.78333c0.13253,0.25394 0.41358,0.39112 0.69317,0.33833c0.12248,-0.01517 1.64682,-0.15067 3.17802,1.93165l-1.16269,0.39066c-0.17267,0.05803 -0.31397,0.18535 -0.39057,0.35192c-0.0766,0.16658 -0.0817,0.35766 -0.01412,0.52816l0.86842,2.19065l-2.1075,-0.425c-0.34585,-0.06978 -0.68504,0.14683 -0.77055,0.49208l-0.40857,1.64882c-0.19062,-0.17333 -0.39824,-0.375 -0.60001,-0.59566c-0.75362,-0.82408 -1.11099,-1.56757 -1.00626,-2.09349c0.06223,-0.31221 -0.10308,-0.62524 -0.39461,-0.74724c-0.29154,-0.12201 -0.62789,-0.01892 -0.80292,0.24608l-0.8652,1.30949c-0.60075,-0.74833 -1.43358,-2.21424 -0.83935,-4.11747c1.71884,0.37666 3.27242,1.36407 4.47896,2.36007c0.18237,0.15385 0.43259,0.197 0.65524,0.11298c0.22265,-0.08402 0.38341,-0.28225 0.42097,-0.51909c0.03756,-0.23684 -0.05387,-0.47579 -0.23943,-0.62571c-1.58083,-1.30499 -3.16563,-2.16074 -4.72788,-2.5594c0.41228,-0.52466 1.81646,-1.96082 4.42874,-1.29374zM25.4837,12.66417c-0.17728,0.64675 -0.23473,1.32095 -0.16947,1.98874c-0.34038,-0.71276 -0.85372,-1.32719 -1.49238,-1.78624c0.54209,-0.14431 1.1013,-0.21259 1.66185,-0.20292zM18.9899,8.96419c0.58186,0.96648 0.90883,2.06716 0.94977,3.19723c-0.18229,0.04924 -0.3614,0.10974 -0.53633,0.18117c-0.79199,-0.95758 -1.93133,-1.55489 -3.16315,-1.65832c1.06769,-0.28953 2.01596,-0.91526 2.70685,-1.78616c0.01396,0.02175 0.02924,0.0435 0.04286,0.06533zM14.95453,7.48512c-0.2627,-0.21731 -0.6459,-0.19821 -0.8861,0.04417c-0.55756,0.56275 -2.16515,0.4495 -3.5495,0.13383l1.18036,-1.19099c0.12391,-0.12502 0.19353,-0.2946 0.19353,-0.47141c0,-0.17682 -0.06962,-0.34639 -0.19353,-0.47141l-1.76988,-1.78582l2.09297,-0.42233c0.30911,-0.06238 0.5315,-0.33642 0.53113,-0.6545v-1.30324c2.394,0.22308 3.37334,1.61307 3.41455,1.67307c0.13065,0.1977 0.35572,0.31028 0.59077,0.29551c0.23504,-0.01477 0.44453,-0.15465 0.54987,-0.36718l0.30558,-0.61666c1.94265,1.66707 1.62304,3.46506 1.34711,4.25097c-1.07118,-1.00833 -2.57966,-1.91532 -4.69229,-2.57015c-0.22594,-0.07099 -0.47225,-0.01464 -0.64574,0.14773c-0.1735,0.16237 -0.24769,0.40596 -0.1945,0.63862c0.05319,0.23266 0.22562,0.41885 0.45208,0.48814c1.89269,0.58675 3.37276,1.43041 4.41991,2.5159c-1.17326,1.63182 -2.78993,1.79882 -3.7843,1.71357l0.76882,-1.16358c0.18821,-0.2851 0.13165,-0.66772 -0.13082,-0.88499zM15.85706,11.99993c1.8245,0 3.30355,1.49237 3.30355,3.33331c0,1.84094 -1.47905,3.33331 -3.30355,3.33331c-1.8245,0 -3.30355,-1.49237 -3.30355,-3.33331c0.00205,-1.84008 1.4799,-3.33125 3.30355,-3.33331zM7.92853,17.99989c0.00205,-1.84008 1.4799,-3.33125 3.30355,-3.33331c0.01594,0 0.03188,0.001 0.04782,0.00125c-0.26016,1.80909 0.55309,3.60438 2.07909,4.58972c-0.40021,0.37573 -0.73071,0.82054 -0.97595,1.31349c-1.10987,-1.03651 -2.65299,-1.45787 -4.12944,-1.12758c-0.21465,-0.45038 -0.32576,-0.94383 -0.32507,-1.44357zM9.24995,20.66654c1.82365,0.00207 3.30151,1.49323 3.30355,3.33331c0,0.01625 -0.00074,0.03258 -0.00099,0.04883c-1.3271,0.19522 -2.50556,0.96031 -3.23162,2.09807c-0.85689,-0.92684 -2.05145,-1.46081 -3.30752,-1.47849c-0.1988,-0.98092 0.04985,-2.00006 0.67723,-2.77576c0.62738,-0.7757 1.56706,-1.22582 2.55934,-1.22597zM2.64284,29.33315c-0.00017,-1.57389 1.09073,-2.93342 2.61646,-3.26077c1.52572,-0.32735 3.07047,0.46671 3.70498,1.90449c0.63451,1.43779 0.18586,3.12747 -1.07605,4.0526c-1.26685,-1.27671 -3.15087,-1.69962 -4.83467,-1.08524c-0.27095,-0.49285 -0.41234,-1.04748 -0.41071,-1.61107z" style="stroke-width: 0; stroke-linecap: butt; stroke-linejoin: miter; fill: rgb(0, 0, 0);" vector-effect="non-scaling-stroke"/></g><defs><path id="path-1671061844700212453" d="M0,35.33312c-0.00083,2.01723 1.28353,3.80644 3.18334,4.43462c1.89981,0.62819 3.98456,-0.047 5.16713,-1.67348c0.68029,0.37753 1.44451,0.57442 2.2209,0.57216c1.41183,0.00025 2.74643,-0.6503 3.62376,-1.76641c0.87733,-1.11611 1.20127,-2.57548 0.87956,-3.96256c0.69356,-0.30942 1.30156,-0.78537 1.77095,-1.38632c1.31404,1.68746 3.59926,2.25313 5.53809,1.37086c1.93883,-0.88227 3.03137,-2.98501 2.6477,-5.09584c1.96503,-0.55473 3.33766,-2.34317 3.37824,-4.40164c0.04058,-2.05847 -1.26047,-3.90058 -3.20208,-4.53372c0.36844,-0.68236 0.56104,-1.44718 0.56012,-2.22424c0,-0.11467 -0.00553,-0.228 -0.01363,-0.34066c0.01745,0.04033 0.03513,0.07994 0.05302,0.11883c0.36243,0.78688 0.88017,1.49087 1.52153,2.0689c0.14414,0.12029 0.33206,0.17329 0.51713,0.14586c0.18507,-0.02743 0.34994,-0.13274 0.4537,-0.28978l0.4402,-0.66666c0.73223,1.47399 2.34594,2.66432 2.59255,2.84057c0.17804,0.12719 0.40682,0.15751 0.61137,0.08103c0.20455,-0.07648 0.35851,-0.24991 0.41141,-0.46345l0.50792,-2.04999l2.68579,0.54166c0.23781,0.04811 0.48262,-0.03912 0.63776,-0.22724c0.15513,-0.18812 0.19565,-0.44688 0.10554,-0.67409l-1.06118,-2.6769l1.31737,-0.443c0.19013,-0.06394 0.34123,-0.21151 0.41076,-0.40118c0.06953,-0.18966 0.04998,-0.40092 -0.05315,-0.57432c-1.17978,-1.98407 -2.50352,-2.78232 -3.49045,-3.09373l0.09597,-0.1005c0.15206,-0.15914 0.21605,-0.38399 0.17083,-0.60029c-0.04521,-0.2163 -0.19375,-0.39592 -0.39655,-0.47954c-2.49418,-1.02833 -4.29462,-0.53016 -5.3653,0.06875c-0.70764,0.39031 -1.31348,0.94434 -1.76781,1.61666c-0.00372,0.00608 -0.00727,0.01217 -0.01074,0.01825c-0.05121,0.09025 -0.09911,0.17975 -0.14478,0.26892c-1.34446,-0.10937 -2.69336,0.14755 -3.90579,0.74391c-0.27488,-0.05757 -0.55439,-0.08973 -0.83506,-0.09608c-0.02769,-0.51862 -0.1032,-1.03351 -0.22555,-1.53799c1.3419,-0.76766 2.9732,-1.9259 3.96509,-3.42765c0.00826,-0.01275 0.01652,-0.0255 0.02478,-0.03842c0.99404,0.08708 1.99512,-0.03784 2.93818,-0.36666c0.3462,-0.11644 0.5333,-0.49401 0.4179,-0.84333c-0.1154,-0.34932 -0.4896,-0.5381 -0.8358,-0.42166c-0.65399,0.22676 -1.34197,0.33745 -2.03342,0.32716c0.06664,-0.46549 0.03503,-0.93994 -0.09275,-1.39224c-0.19433,-0.69008 -0.59951,-1.28974 -1.11156,-1.64524c-0.76808,-0.53333 -1.65178,-0.45508 -2.30621,0.20475c-0.4884,0.47799 -0.66296,1.19566 -0.44937,1.84749c0.25685,0.83783 1.03583,1.55516 2.08008,1.96124c-0.8391,1.07383 -2.07843,1.94074 -3.03151,2.50732c-0.23271,-0.53048 -0.5245,-1.03252 -0.86974,-1.49641c0.00619,-0.01225 0.01255,-0.02383 0.01867,-0.03617c0.36431,-0.71646 0.552,-1.511 0.54715,-2.31624c-0.00875,-1.22424 -0.49165,-3.0069 -2.74253,-4.54689c-0.15759,-0.10783 -0.35363,-0.14181 -0.53786,-0.09324c-0.18422,0.04857 -0.33872,0.17498 -0.42389,0.34682l-0.24066,0.48558c-0.77394,-0.66716 -2.20364,-1.52074 -4.45435,-1.52074c-0.3649,0 -0.66071,0.29847 -0.66071,0.66666v1.45341l-2.77242,0.5595c-0.23888,0.04825 -0.43207,0.22522 -0.50268,0.46049c-0.07061,0.23527 -0.00717,0.49065 0.16506,0.66451l2.17572,2.1954l-1.51501,1.52857c-0.16195,0.16338 -0.2285,0.39972 -0.17589,0.6246c0.05261,0.22489 0.21688,0.40625 0.43414,0.47931c0.739,0.23704 1.49577,0.41345 2.26293,0.5275c0.53315,0.08275 1.07302,0.1129 1.61197,0.09l-0.2514,0.3805c-0.11426,0.17288 -0.14209,0.38963 -0.07527,0.58619c0.06682,0.19655 0.22066,0.35043 0.41603,0.41614c0.48316,0.14479 0.98282,0.22602 1.4866,0.24167c-1.24362,0.39113 -2.26745,1.29095 -2.82206,2.48023c-0.14527,-0.01375 -0.29137,-0.02142 -0.43772,-0.02142c-1.56963,0.00023 -3.03206,0.80358 -3.88416,2.13367c-0.8521,1.33009 -0.9776,3.00542 -0.33332,4.44962c-1.73994,0.96887 -2.67167,2.95121 -2.31422,4.92372c-1.99582,0.56598 -3.37593,2.40107 -3.37896,4.49289c-0.00225,0.78339 0.19288,1.55449 0.56706,2.2409c-1.18688,0.87805 -1.88822,2.27408 -1.88848,3.75906zM22.80988,4.31472c-0.04254,-0.14914 -0.01833,-0.30959 0.06626,-0.43921c0.08459,-0.12962 0.2211,-0.21545 0.37369,-0.23495c0.11066,0.00609 0.21683,0.04619 0.30426,0.11492c0.54905,0.38125 0.70481,1.11133 0.63957,1.70574c-0.79178,-0.281 -1.26493,-0.75858 -1.38378,-1.14649zM4.62498,38.66643c-1.8245,0 -3.30355,-1.49237 -3.30355,-3.33331c0,-1.84094 1.47905,-3.33331 3.30355,-3.33331c1.8245,0 3.30355,1.49237 3.30355,3.33331c-0.00205,1.84008 -1.4799,3.33125 -3.30355,3.33331zM13.87493,33.99979c-0.00205,1.84008 -1.4799,3.33125 -3.30355,3.33331c-0.55856,0.00164 -1.10824,-0.14102 -1.59669,-0.41441c0.45067,-1.25745 0.34431,-2.64965 -0.29203,-3.82256c0.45764,-0.33765 0.84962,-0.75759 1.15624,-1.23874c1.01384,1.09528 2.48878,1.63027 3.9617,1.43699c0.0495,0.23181 0.07442,0.46828 0.07433,0.70541zM13.21422,31.9998c-1.12509,0.00032 -2.17287,-0.57758 -2.78002,-1.53332c0.0912,-0.37075 0.13727,-0.75133 0.13718,-1.13333c0.00038,-0.66565 -0.14128,-1.32358 -0.41534,-1.92907c0.62851,-1.54975 2.29892,-2.38849 3.90315,-1.95983c1.60423,0.42865 2.64431,1.99164 2.43028,3.65214c-0.21403,1.6605 -1.61572,2.90306 -3.27525,2.90342zM14.73567,19.86046c0.94931,0.23985 1.94961,0.1689 2.85634,-0.20258c0.55838,0.67762 1.29642,1.18082 2.12782,1.45074c-0.5514,1.02591 -0.70169,2.22309 -0.4212,3.35531c-0.51618,0.81917 -1.36252,1.36863 -2.3153,1.50316c-0.73268,-1.04188 -1.85641,-1.7354 -3.10939,-1.91899c0,-0.01608 0.00099,-0.03217 0.00099,-0.04825c0.00079,-0.7676 -0.18727,-1.52339 -0.54732,-2.19957c0.21216,-0.80165 0.71461,-1.49385 1.40806,-1.93982zM20.10972,13.49992c1.55424,-0.51588 3.24858,0.1939 3.98368,1.66882c0.73509,1.47492 0.28945,3.27056 -1.04778,4.22186c-1.33723,0.9513 -3.16313,0.77162 -4.293,-0.42246c1.6178,-1.30858 2.17277,-3.54477 1.3571,-5.46822zM20.48203,31.9998c-1.21876,-0.00021 -2.3385,-0.6772 -2.91349,-1.76149c0.34783,-0.97896 0.36074,-2.04725 0.03667,-3.03448c0.879,-0.21188 1.67642,-0.68094 2.29225,-1.34833c0.83761,1.31502 2.27224,2.11941 3.8213,2.14257c0.19852,0.98091 -0.05026,1.99991 -0.67762,2.77554c-0.62736,0.77563 -1.5669,1.22581 -2.55912,1.22618zM27.08914,23.33319c0,1.4503 -0.92938,2.73416 -2.29861,3.17534c-1.36923,0.44118 -2.86405,-0.06158 -3.69709,-1.24346c-0.83304,-1.18188 -0.81311,-2.77163 0.04931,-3.93186c1.18645,0.00048 2.32735,-0.46091 3.18504,-1.28808c1.5961,0.26256 2.7666,1.65633 2.76136,3.28806zM31.83338,10.29752l-0.27948,0.29258c-0.20287,0.20824 -0.24911,0.5249 -0.11439,0.78333c0.13253,0.25394 0.41358,0.39112 0.69317,0.33833c0.12248,-0.01517 1.64682,-0.15067 3.17802,1.93165l-1.16269,0.39066c-0.17267,0.05803 -0.31397,0.18535 -0.39057,0.35192c-0.0766,0.16658 -0.0817,0.35766 -0.01412,0.52816l0.86842,2.19065l-2.1075,-0.425c-0.34585,-0.06978 -0.68504,0.14683 -0.77055,0.49208l-0.40857,1.64882c-0.19062,-0.17333 -0.39824,-0.375 -0.60001,-0.59566c-0.75362,-0.82408 -1.11099,-1.56757 -1.00626,-2.09349c0.06223,-0.31221 -0.10308,-0.62524 -0.39461,-0.74724c-0.29154,-0.12201 -0.62789,-0.01892 -0.80292,0.24608l-0.8652,1.30949c-0.60075,-0.74833 -1.43358,-2.21424 -0.83935,-4.11747c1.71884,0.37666 3.27242,1.36407 4.47896,2.36007c0.18237,0.15385 0.43259,0.197 0.65524,0.11298c0.22265,-0.08402 0.38341,-0.28225 0.42097,-0.51909c0.03756,-0.23684 -0.05387,-0.47579 -0.23943,-0.62571c-1.58083,-1.30499 -3.16563,-2.16074 -4.72788,-2.5594c0.41228,-0.52466 1.81646,-1.96082 4.42874,-1.29374zM25.4837,12.66417c-0.17728,0.64675 -0.23473,1.32095 -0.16947,1.98874c-0.34038,-0.71276 -0.85372,-1.32719 -1.49238,-1.78624c0.54209,-0.14431 1.1013,-0.21259 1.66185,-0.20292zM18.9899,8.96419c0.58186,0.96648 0.90883,2.06716 0.94977,3.19723c-0.18229,0.04924 -0.3614,0.10974 -0.53633,0.18117c-0.79199,-0.95758 -1.93133,-1.55489 -3.16315,-1.65832c1.06769,-0.28953 2.01596,-0.91526 2.70685,-1.78616c0.01396,0.02175 0.02924,0.0435 0.04286,0.06533zM14.95453,7.48512c-0.2627,-0.21731 -0.6459,-0.19821 -0.8861,0.04417c-0.55756,0.56275 -2.16515,0.4495 -3.5495,0.13383l1.18036,-1.19099c0.12391,-0.12502 0.19353,-0.2946 0.19353,-0.47141c0,-0.17682 -0.06962,-0.34639 -0.19353,-0.47141l-1.76988,-1.78582l2.09297,-0.42233c0.30911,-0.06238 0.5315,-0.33642 0.53113,-0.6545v-1.30324c2.394,0.22308 3.37334,1.61307 3.41455,1.67307c0.13065,0.1977 0.35572,0.31028 0.59077,0.29551c0.23504,-0.01477 0.44453,-0.15465 0.54987,-0.36718l0.30558,-0.61666c1.94265,1.66707 1.62304,3.46506 1.34711,4.25097c-1.07118,-1.00833 -2.57966,-1.91532 -4.69229,-2.57015c-0.22594,-0.07099 -0.47225,-0.01464 -0.64574,0.14773c-0.1735,0.16237 -0.24769,0.40596 -0.1945,0.63862c0.05319,0.23266 0.22562,0.41885 0.45208,0.48814c1.89269,0.58675 3.37276,1.43041 4.41991,2.5159c-1.17326,1.63182 -2.78993,1.79882 -3.7843,1.71357l0.76882,-1.16358c0.18821,-0.2851 0.13165,-0.66772 -0.13082,-0.88499zM15.85706,11.99993c1.8245,0 3.30355,1.49237 3.30355,3.33331c0,1.84094 -1.47905,3.33331 -3.30355,3.33331c-1.8245,0 -3.30355,-1.49237 -3.30355,-3.33331c0.00205,-1.84008 1.4799,-3.33125 3.30355,-3.33331zM7.92853,17.99989c0.00205,-1.84008 1.4799,-3.33125 3.30355,-3.33331c0.01594,0 0.03188,0.001 0.04782,0.00125c-0.26016,1.80909 0.55309,3.60438 2.07909,4.58972c-0.40021,0.37573 -0.73071,0.82054 -0.97595,1.31349c-1.10987,-1.03651 -2.65299,-1.45787 -4.12944,-1.12758c-0.21465,-0.45038 -0.32576,-0.94383 -0.32507,-1.44357zM9.24995,20.66654c1.82365,0.00207 3.30151,1.49323 3.30355,3.33331c0,0.01625 -0.00074,0.03258 -0.00099,0.04883c-1.3271,0.19522 -2.50556,0.96031 -3.23162,2.09807c-0.85689,-0.92684 -2.05145,-1.46081 -3.30752,-1.47849c-0.1988,-0.98092 0.04985,-2.00006 0.67723,-2.77576c0.62738,-0.7757 1.56706,-1.22582 2.55934,-1.22597zM2.64284,29.33315c-0.00017,-1.57389 1.09073,-2.93342 2.61646,-3.26077c1.52572,-0.32735 3.07047,0.46671 3.70498,1.90449c0.63451,1.43779 0.18586,3.12747 -1.07605,4.0526c-1.26685,-1.27671 -3.15087,-1.69962 -4.83467,-1.08524c-0.27095,-0.49285 -0.41234,-1.04748 -0.41071,-1.61107z" vector-effect="non-scaling-stroke"/></defs></g></svg>