<svg version="1.2" xmlns="http://www.w3.org/2000/svg" xmlns:xlink="http://www.w3.org/1999/xlink" overflow="visible" preserveAspectRatio="none" viewBox="0 0 36.99997452610785 41" width="36.99997452610785" height="41"><g transform="translate(0, 0)"><g transform="translate(-0.000007500000002658158, -8.881784197001252e-16) rotate(0)"><path d="M22.35359,29.11469c0.61703,0.70154 0.80553,1.60861 0.50833,2.44611l-1.2301,3.46799c-0.41493,1.16998 -1.6879,1.97121 -3.13182,1.97121c-1.44392,0 -2.71689,-0.80122 -3.13182,-1.97121l-1.2301,-3.46799c-0.29719,-0.83749 -0.10871,-1.74454 0.5083,-2.44608c0.61701,-0.70153 1.58984,-1.1149 2.62347,-1.11473h2.4602c1.03365,-0.0002 2.00651,0.41315 2.62355,1.11469zM20.93093,30.01017c-0.28241,-0.32113 -0.72775,-0.51032 -1.20088,-0.51017h-2.4602c-0.47319,-0.00024 -0.91862,0.18891 -1.20111,0.51006c-0.28249,0.32114 -0.36874,0.73641 -0.23256,1.11978l1.2301,3.4679c0.18991,0.53554 0.77258,0.9023 1.43351,0.9023c0.66093,0 1.2436,-0.36675 1.43351,-0.9023l1.2301,-3.4679c0.13616,-0.38332 0.04995,-0.79854 -0.23246,-1.11967zM15.71594,9.20461c-0.08972,-0.15995 -0.10887,-0.3472 -0.05324,-0.52056c0.20522,-0.63892 0.35199,-1.21539 0.48139,-1.72371c0.39102,-1.53477 0.72843,-2.86035 2.36516,-2.86035c1.59859,0 1.95463,1.34676 2.36696,2.90605c0.13094,0.49559 0.2795,1.0572 0.47933,1.67707c0.11637,0.36088 -0.09731,0.74304 -0.47726,0.85357c-0.37995,0.11053 -0.7823,-0.09242 -0.89867,-0.45331c-0.21071,-0.65344 -0.36422,-1.23308 -0.49911,-1.74446c-0.42087,-1.59234 -0.56656,-1.87225 -0.97124,-1.87225c-0.41512,0 -0.54408,0.1564 -0.96657,1.8151c-0.134,0.52642 -0.28607,1.12314 -0.50361,1.80084c-0.05546,0.17346 -0.1813,0.31885 -0.34975,0.40408c-0.16845,0.08523 -0.36569,0.10331 -0.5482,0.05025c-0.18252,-0.05284 -0.33547,-0.17238 -0.42519,-0.33233zM9.25438,10.04987l-0.20548,0.20175l2.0095,1.97424c0.44997,-2.05686 1.09476,-4.06797 1.92595,-6.0071c1.69707,-3.89398 3.76236,-6.21876 5.52461,-6.21876c1.76225,0 3.82754,2.32479 5.52461,6.21876c1.05697,2.42541 2.83019,7.50565 2.83019,14.28124c0.00098,2.23785 -0.19478,4.47161 -0.5851,6.67642l2.66422,2.61691l0.21348,-0.20987c1.1507,-1.12921 3.41337,-0.34944 4.46581,0.68333l2.74525,2.73718c0.82634,0.81095 0.84671,2.22049 0.03969,3.01256l-2.13726,2.05495c-0.8435,0.80199 -2.18402,0.7998 -3.02478,-0.00495l-2.78493,-2.73333c-1.05236,-1.03294 -1.84676,-3.25386 -0.69623,-4.38307l0.19442,-0.19082l-2.00271,-1.96715c-0.44977,2.05061 -1.09323,4.05564 -1.92204,5.98908c-1.69707,3.89397 -3.76236,6.21876 -5.52461,6.21876c-3.68272,0 -8.3548,-9.65208 -8.3548,-20.5c-0.00108,-2.23139 0.19348,-4.45873 0.58153,-6.65738l-2.67179,-2.62468l-0.20234,0.19859c-0.40086,0.39351 -0.93687,0.55521 -1.50952,0.55521c-1.07098,0 -2.2705,-0.56554 -2.95629,-1.23854l-2.78493,-2.73333c-0.81443,-0.80108 -0.81443,-2.09805 0,-2.89913l2.20819,-2.16728c0.8162,-0.79934 2.13765,-0.79934 2.95386,0l2.78493,2.73333c1.05236,1.03294 1.84676,3.25386 0.69658,4.38307zM29.9272,30.75974l3.2649,3.20697c0.27178,0.26698 0.27159,0.69966 -0.00044,0.9664c-0.27202,0.26675 -0.71286,0.26656 -0.98465,-0.00043l-3.26438,-3.20654l-0.19407,0.19039c-0.42601,0.41811 0.05135,1.81741 0.69623,2.45026l2.78493,2.73333c0.30097,0.26761 0.75965,0.26761 1.06062,0l2.13717,-2.05495c0.25761,-0.25283 0.23567,-0.79967 -0.04856,-1.07864l-2.74525,-2.73718c-0.47152,-0.46279 -1.36766,-0.83862 -1.97817,-0.83862c-0.21931,0 -0.4019,0.04852 -0.51452,0.15913zM24.77794,27.63537l-2.57276,-2.52705c-0.63486,0.55343 -1.45463,0.85886 -2.30375,0.85835h-2.78493c-1.9217,-0.00212 -3.47901,-1.53057 -3.48117,-3.41667c0,-0.01891 0.00078,-0.03781 0.00235,-0.05672l0.45464,-5.35392l-2.14153,-2.10356c-0.26965,1.80936 -0.40473,3.63558 -0.40416,5.46419c0,6.56854 1.67618,11.43183 2.67536,13.74585c1.59777,3.70162 3.34253,5.38749 4.28697,5.38749c0.76194,0 2.52106,-1.435 4.24441,-5.38979c0.909,-2.12698 1.58759,-4.34189 2.02456,-6.60818zM21.95394,22.92797c0.02233,-0.11593 0.03444,-0.23352 0.0362,-0.35149l-0.69388,-8.16993c-0.00157,-0.01885 -0.00235,-0.03775 -0.00235,-0.05672c-0.00134,-1.13164 -0.9357,-2.04868 -2.0887,-2.05h-1.39247c-1.153,0.00132 -2.08736,0.91836 -2.0887,2.05c0,0.01896 -0.00078,0.03787 -0.00235,0.05672l-0.18807,2.21485l6.42031,6.3064zM15.38193,18.40618l-0.35412,4.1703c0.01607,1.12128 0.94614,2.02233 2.0887,2.02352h2.78493c0.48021,0.00042 0.94575,-0.16235 1.31753,-0.46065zM12.23609,13.38274l2.00759,1.97201l0.0879,-1.03482c0.01893,-1.87434 1.57135,-3.38459 3.48117,-3.3866h1.39247c1.90982,0.00201 3.46223,1.51226 3.48117,3.3866l0.69388,8.17335c0.00157,0.01885 0.00235,0.03775 0.00235,0.05672c0.00042,0.50314 -0.11307,1.00008 -0.33228,1.4549l2.01403,1.97834c0.27149,-1.81558 0.4075,-3.6482 0.40695,-5.48324c0,-6.53207 -1.70281,-11.41466 -2.71792,-13.74354c-1.72335,-3.95479 -3.48247,-5.38979 -4.24441,-5.38979c-0.76194,0 -2.52106,1.435 -4.24441,5.38979c-0.91148,2.13268 -1.59139,4.35371 -2.02847,6.62628zM4.12724,6.3843c0.27202,-0.26675 0.71286,-0.26656 0.98465,0.00043l2.95238,2.90007l0.20513,-0.20133c0.42644,-0.41811 -0.05135,-1.81741 -0.69623,-2.45026l-2.78493,-2.73333c-0.27203,-0.26649 -0.71253,-0.26649 -0.98456,0l-2.20819,2.16728c-0.27142,0.26703 -0.27142,0.69929 0,0.96632l2.78493,2.73333c0.6448,0.63294 2.07077,1.10187 2.49652,0.68333l0.20269,-0.19902l-2.95281,-2.90041c-0.27178,-0.26698 -0.27159,-0.69966 0.00044,-0.9664z" style="stroke-width: 0; stroke-linecap: butt; stroke-linejoin: miter; fill: rgb(138, 138, 138);" vector-effect="non-scaling-stroke"/></g><defs><path id="path-1676997203263223039" d="M22.35359,29.11469c0.61703,0.70154 0.80553,1.60861 0.50833,2.44611l-1.2301,3.46799c-0.41493,1.16998 -1.6879,1.97121 -3.13182,1.97121c-1.44392,0 -2.71689,-0.80122 -3.13182,-1.97121l-1.2301,-3.46799c-0.29719,-0.83749 -0.10871,-1.74454 0.5083,-2.44608c0.61701,-0.70153 1.58984,-1.1149 2.62347,-1.11473h2.4602c1.03365,-0.0002 2.00651,0.41315 2.62355,1.11469zM20.93093,30.01017c-0.28241,-0.32113 -0.72775,-0.51032 -1.20088,-0.51017h-2.4602c-0.47319,-0.00024 -0.91862,0.18891 -1.20111,0.51006c-0.28249,0.32114 -0.36874,0.73641 -0.23256,1.11978l1.2301,3.4679c0.18991,0.53554 0.77258,0.9023 1.43351,0.9023c0.66093,0 1.2436,-0.36675 1.43351,-0.9023l1.2301,-3.4679c0.13616,-0.38332 0.04995,-0.79854 -0.23246,-1.11967zM15.71594,9.20461c-0.08972,-0.15995 -0.10887,-0.3472 -0.05324,-0.52056c0.20522,-0.63892 0.35199,-1.21539 0.48139,-1.72371c0.39102,-1.53477 0.72843,-2.86035 2.36516,-2.86035c1.59859,0 1.95463,1.34676 2.36696,2.90605c0.13094,0.49559 0.2795,1.0572 0.47933,1.67707c0.11637,0.36088 -0.09731,0.74304 -0.47726,0.85357c-0.37995,0.11053 -0.7823,-0.09242 -0.89867,-0.45331c-0.21071,-0.65344 -0.36422,-1.23308 -0.49911,-1.74446c-0.42087,-1.59234 -0.56656,-1.87225 -0.97124,-1.87225c-0.41512,0 -0.54408,0.1564 -0.96657,1.8151c-0.134,0.52642 -0.28607,1.12314 -0.50361,1.80084c-0.05546,0.17346 -0.1813,0.31885 -0.34975,0.40408c-0.16845,0.08523 -0.36569,0.10331 -0.5482,0.05025c-0.18252,-0.05284 -0.33547,-0.17238 -0.42519,-0.33233zM9.25438,10.04987l-0.20548,0.20175l2.0095,1.97424c0.44997,-2.05686 1.09476,-4.06797 1.92595,-6.0071c1.69707,-3.89398 3.76236,-6.21876 5.52461,-6.21876c1.76225,0 3.82754,2.32479 5.52461,6.21876c1.05697,2.42541 2.83019,7.50565 2.83019,14.28124c0.00098,2.23785 -0.19478,4.47161 -0.5851,6.67642l2.66422,2.61691l0.21348,-0.20987c1.1507,-1.12921 3.41337,-0.34944 4.46581,0.68333l2.74525,2.73718c0.82634,0.81095 0.84671,2.22049 0.03969,3.01256l-2.13726,2.05495c-0.8435,0.80199 -2.18402,0.7998 -3.02478,-0.00495l-2.78493,-2.73333c-1.05236,-1.03294 -1.84676,-3.25386 -0.69623,-4.38307l0.19442,-0.19082l-2.00271,-1.96715c-0.44977,2.05061 -1.09323,4.05564 -1.92204,5.98908c-1.69707,3.89397 -3.76236,6.21876 -5.52461,6.21876c-3.68272,0 -8.3548,-9.65208 -8.3548,-20.5c-0.00108,-2.23139 0.19348,-4.45873 0.58153,-6.65738l-2.67179,-2.62468l-0.20234,0.19859c-0.40086,0.39351 -0.93687,0.55521 -1.50952,0.55521c-1.07098,0 -2.2705,-0.56554 -2.95629,-1.23854l-2.78493,-2.73333c-0.81443,-0.80108 -0.81443,-2.09805 0,-2.89913l2.20819,-2.16728c0.8162,-0.79934 2.13765,-0.79934 2.95386,0l2.78493,2.73333c1.05236,1.03294 1.84676,3.25386 0.69658,4.38307zM29.9272,30.75974l3.2649,3.20697c0.27178,0.26698 0.27159,0.69966 -0.00044,0.9664c-0.27202,0.26675 -0.71286,0.26656 -0.98465,-0.00043l-3.26438,-3.20654l-0.19407,0.19039c-0.42601,0.41811 0.05135,1.81741 0.69623,2.45026l2.78493,2.73333c0.30097,0.26761 0.75965,0.26761 1.06062,0l2.13717,-2.05495c0.25761,-0.25283 0.23567,-0.79967 -0.04856,-1.07864l-2.74525,-2.73718c-0.47152,-0.46279 -1.36766,-0.83862 -1.97817,-0.83862c-0.21931,0 -0.4019,0.04852 -0.51452,0.15913zM24.77794,27.63537l-2.57276,-2.52705c-0.63486,0.55343 -1.45463,0.85886 -2.30375,0.85835h-2.78493c-1.9217,-0.00212 -3.47901,-1.53057 -3.48117,-3.41667c0,-0.01891 0.00078,-0.03781 0.00235,-0.05672l0.45464,-5.35392l-2.14153,-2.10356c-0.26965,1.80936 -0.40473,3.63558 -0.40416,5.46419c0,6.56854 1.67618,11.43183 2.67536,13.74585c1.59777,3.70162 3.34253,5.38749 4.28697,5.38749c0.76194,0 2.52106,-1.435 4.24441,-5.38979c0.909,-2.12698 1.58759,-4.34189 2.02456,-6.60818zM21.95394,22.92797c0.02233,-0.11593 0.03444,-0.23352 0.0362,-0.35149l-0.69388,-8.16993c-0.00157,-0.01885 -0.00235,-0.03775 -0.00235,-0.05672c-0.00134,-1.13164 -0.9357,-2.04868 -2.0887,-2.05h-1.39247c-1.153,0.00132 -2.08736,0.91836 -2.0887,2.05c0,0.01896 -0.00078,0.03787 -0.00235,0.05672l-0.18807,2.21485l6.42031,6.3064zM15.38193,18.40618l-0.35412,4.1703c0.01607,1.12128 0.94614,2.02233 2.0887,2.02352h2.78493c0.48021,0.00042 0.94575,-0.16235 1.31753,-0.46065zM12.23609,13.38274l2.00759,1.97201l0.0879,-1.03482c0.01893,-1.87434 1.57135,-3.38459 3.48117,-3.3866h1.39247c1.90982,0.00201 3.46223,1.51226 3.48117,3.3866l0.69388,8.17335c0.00157,0.01885 0.00235,0.03775 0.00235,0.05672c0.00042,0.50314 -0.11307,1.00008 -0.33228,1.4549l2.01403,1.97834c0.27149,-1.81558 0.4075,-3.6482 0.40695,-5.48324c0,-6.53207 -1.70281,-11.41466 -2.71792,-13.74354c-1.72335,-3.95479 -3.48247,-5.38979 -4.24441,-5.38979c-0.76194,0 -2.52106,1.435 -4.24441,5.38979c-0.91148,2.13268 -1.59139,4.35371 -2.02847,6.62628zM4.12724,6.3843c0.27202,-0.26675 0.71286,-0.26656 0.98465,0.00043l2.95238,2.90007l0.20513,-0.20133c0.42644,-0.41811 -0.05135,-1.81741 -0.69623,-2.45026l-2.78493,-2.73333c-0.27203,-0.26649 -0.71253,-0.26649 -0.98456,0l-2.20819,2.16728c-0.27142,0.26703 -0.27142,0.69929 0,0.96632l2.78493,2.73333c0.6448,0.63294 2.07077,1.10187 2.49652,0.68333l0.20269,-0.19902l-2.95281,-2.90041c-0.27178,-0.26698 -0.27159,-0.69966 0.00044,-0.9664z" vector-effect="non-scaling-stroke"/></defs></g></svg>