<svg version="1.2" xmlns="http://www.w3.org/2000/svg" xmlns:xlink="http://www.w3.org/1999/xlink" overflow="visible" preserveAspectRatio="none" viewBox="0 0 15.000003985323307 14.999989625151997" width="15.000003985323307" height="14.999989625151997"><g transform="translate(0, 0)"><g transform="translate(0.000008985323310576427, 0) rotate(0)"><path d="M12.13508,0c-0.26218,0 -0.52485,0.09855 -0.72198,0.29615l-1.12475,1.12459l3.2922,3.29072l1.12375,-1.12459c0.39426,-0.39421 0.39426,-1.05005 0,-1.44425l-1.84724,-1.84646c-0.19713,-0.1976 -0.45981,-0.29615 -0.72198,-0.29615zM9.58037,2.12811l-8.13995,8.13924c-0.05454,0.05453 -0.09556,0.12156 -0.12108,0.1956c-0.36474,1.09407 -1.01818,2.881 -1.30087,3.90353c-0.10057,0.36519 0.22515,0.70537 0.5944,0.62032c1.21681,-0.28115 2.8454,-0.94849 3.92262,-1.30718c0.07305,-0.02401 0.14059,-0.06453 0.19613,-0.11806l8.13995,-8.14174z" style="stroke-width: 0; stroke-linecap: butt; stroke-linejoin: miter; fill: rgb(255, 255, 255);" vector-effect="non-scaling-stroke"/></g><defs><path id="path-167210945752310525" d="M12.13508,0c-0.26218,0 -0.52485,0.09855 -0.72198,0.29615l-1.12475,1.12459l3.2922,3.29072l1.12375,-1.12459c0.39426,-0.39421 0.39426,-1.05005 0,-1.44425l-1.84724,-1.84646c-0.19713,-0.1976 -0.45981,-0.29615 -0.72198,-0.29615zM9.58037,2.12811l-8.13995,8.13924c-0.05454,0.05453 -0.09556,0.12156 -0.12108,0.1956c-0.36474,1.09407 -1.01818,2.881 -1.30087,3.90353c-0.10057,0.36519 0.22515,0.70537 0.5944,0.62032c1.21681,-0.28115 2.8454,-0.94849 3.92262,-1.30718c0.07305,-0.02401 0.14059,-0.06453 0.19613,-0.11806l8.13995,-8.14174z" vector-effect="non-scaling-stroke"/></defs></g></svg>