<svg version="1.2" xmlns="http://www.w3.org/2000/svg" xmlns:xlink="http://www.w3.org/1999/xlink" overflow="visible" preserveAspectRatio="none" viewBox="0 0 24 24" width="21" height="21"><g><path xmlns:default="http://www.w3.org/2000/svg" id="twitter-square" d="M17.33,9c-0.29,0.44-0.66,0.82-1.09,1.13c0,0.09,0,0.19,0,0.28c0.01,1.22-0.34,2.41-1,3.44  c-0.34,0.54-0.76,1.04-1.24,1.46c-0.52,0.44-1.11,0.77-1.75,1c-0.7,0.25-1.44,0.38-2.19,0.37c-1.19,0-2.35-0.35-3.35-1  c0.17,0.01,0.35,0.01,0.52,0c0.99,0.01,1.95-0.33,2.72-0.94c-0.46,0-0.91-0.16-1.27-0.44c-0.36-0.27-0.64-0.65-0.78-1.08h0.41  c0.18,0,0.36-0.03,0.53-0.08c-0.5-0.09-0.95-0.36-1.28-0.75C7.22,12.03,7.02,11.56,7,11.07l0,0c0.31,0.16,0.65,0.25,1,0.27  c-0.61-0.41-0.95-1.11-0.9-1.84c0-0.39,0.1-0.77,0.3-1.1c1.12,1.37,2.76,2.2,4.52,2.29c-0.04-0.16-0.05-0.33-0.05-0.5  c0-1.21,0.97-2.18,2.18-2.19c0.61-0.01,1.19,0.24,1.59,0.69c0.48-0.1,0.94-0.28,1.36-0.53c-0.16,0.52-0.52,0.96-1,1.22  C16.46,9.32,16.91,9.19,17.33,9L17.33,9z M19.12,4.86C18.56,4.29,17.79,3.98,17,4H7C5.34,4,4,5.34,4,7v10c0,1.66,1.34,3,3,3h10  c1.66,0,3-1.34,3-3V7c0.01-0.8-0.31-1.57-0.88-2.12L19.12,4.86z" style="fill: rgb(255, 255, 255);" vector-effect="non-scaling-stroke"/></g></svg>