<svg version="1.2" xmlns="http://www.w3.org/2000/svg" xmlns:xlink="http://www.w3.org/1999/xlink" overflow="visible" preserveAspectRatio="none" viewBox="0 0 76 76" width="76" height="76"><g transform="translate(0, 0)"><defs><path id="path-1677094893507492" d="M38 0 C58.972770930771965 0 76 17.027229069228003 76 38 C76 58.972770930771965 58.972770930771965 76 38 76 C17.027229069228003 76 0 58.972770930771965 0 38 C0 17.027229069228003 17.027229069228003 0 38 0 Z" vector-effect="non-scaling-stroke"/><filter height="128.94736842105263%" id="filter-16770948938406390" width="128.94736842105263%" x="-10.526315789473683%" y="-10.526315789473683%" vector-effect="non-scaling-stroke"><feFlood flood-opacity="0" result="backgroundFix" vector-effect="non-scaling-stroke"/><feColorMatrix in="SourceAlpha" result="hardAlpha" type="matrix" values="0 0 0 0 0 0 0 0 0 0 0 0 0 0 0 0 0 0 127 0" vector-effect="non-scaling-stroke"/><feOffset dx="2" dy="2" vector-effect="non-scaling-stroke"/><feGaussianBlur stdDeviation="3.8333333333333335" vector-effect="non-scaling-stroke"/><feColorMatrix in="" result="" type="matrix" values="0 0 0 0 0  0 0 0 0 0  0 0 0 0 0  0 0 0 0.1 0" vector-effect="non-scaling-stroke"/><feBlend in2="backgroundFix" mode="normal" result="shadowOuter_1" vector-effect="non-scaling-stroke"/></filter></defs><g transform="translate(0, 0)"><use xmlns:xlink="http://www.w3.org/1999/xlink" xlink:href="#path-1677094893507492" filter="url(#filter-16770948938406390)" vector-effect="non-scaling-stroke"/><path d="M38 0 C58.972770930771965 0 76 17.027229069228003 76 38 C76 58.972770930771965 58.972770930771965 76 38 76 C17.027229069228003 76 0 58.972770930771965 0 38 C0 17.027229069228003 17.027229069228003 0 38 0 Z" style="stroke: rgb(140, 140, 140); stroke-width: 0; stroke-linecap: butt; stroke-linejoin: miter; fill: rgb(255, 255, 255);" vector-effect="non-scaling-stroke"/></g></g></svg>